<svg xmlns="http://www.w3.org/2000/svg" xmlns:xlink="http://www.w3.org/1999/xlink" width="113" height="113" viewBox="0 0 113 113">
  <defs>
    <filter id="Trazado_982547" x="0" y="0" width="113" height="113" filterUnits="userSpaceOnUse">
      <feOffset dy="3" input="SourceAlpha"/>
      <feGaussianBlur stdDeviation="3" result="blur"/>
      <feFlood flood-opacity="0.161"/>
      <feComposite operator="in" in2="blur"/>
      <feComposite in="SourceGraphic"/>
    </filter>
  </defs>
  <g id="Grupo_1209007" data-name="Grupo 1209007" transform="translate(-1827.5 -5128.397)">
    <g id="Grupo_1208832" data-name="Grupo 1208832" transform="translate(1836.5 5134.397)">
      <g id="Grupo_1208311" data-name="Grupo 1208311" transform="translate(0 0)">
        <g id="Grupo_1207519" data-name="Grupo 1207519">
          <g id="Grupo_1202423" data-name="Grupo 1202423">
            <g id="Grupo_1202352" data-name="Grupo 1202352">
              <g id="Grupo_1174813" data-name="Grupo 1174813">
                <g id="Grupo_1201680" data-name="Grupo 1201680">
                  <g id="Grupo_1201330" data-name="Grupo 1201330">
                    <g id="Grupo_1172010" data-name="Grupo 1172010">
                      <g id="Grupo_1171046" data-name="Grupo 1171046">
                        <g id="Grupo_1148525" data-name="Grupo 1148525">
                          <g transform="matrix(1, 0, 0, 1, -9, -6)" filter="url(#Trazado_982547)">
                            <g id="Trazado_982547-2" data-name="Trazado 982547" transform="translate(9 6)" fill="#fff4e6">
                              <path d="M 47.5 93.5 C 41.28937149047852 93.5 35.26533508300781 92.28397369384766 29.59518623352051 89.88570404052734 C 24.11771965026855 87.56893157958984 19.19813346862793 84.25196075439453 14.97309303283691 80.02691650390625 C 10.74804019927979 75.80186462402344 7.431066513061523 70.88229370117188 5.114293098449707 65.40481567382812 C 2.716026782989502 59.73468017578125 1.5 53.71062850952148 1.5 47.5 C 1.5 41.28937149047852 2.716026782989502 35.26533508300781 5.114293098449707 29.59518623352051 C 7.431066513061523 24.11771965026855 10.74804019927979 19.19813346862793 14.97309303283691 14.97309303283691 C 19.19813346862793 10.74804019927979 24.11771965026855 7.431066513061523 29.59518623352051 5.114293098449707 C 35.26533508300781 2.716026782989502 41.28937149047852 1.5 47.5 1.5 C 53.71062850952148 1.5 59.73468017578125 2.716026782989502 65.40481567382812 5.114293098449707 C 70.88229370117188 7.431066513061523 75.80186462402344 10.74804019927979 80.02691650390625 14.97309303283691 C 84.25196075439453 19.19813346862793 87.56893157958984 24.11771965026855 89.88570404052734 29.59518623352051 C 92.28397369384766 35.26533508300781 93.5 41.28937149047852 93.5 47.5 C 93.5 53.71062850952148 92.28397369384766 59.73468017578125 89.88570404052734 65.40481567382812 C 87.56893157958984 70.88229370117188 84.25196075439453 75.80186462402344 80.02691650390625 80.02691650390625 C 75.80186462402344 84.25196075439453 70.88229370117188 87.56893157958984 65.40481567382812 89.88570404052734 C 59.73468017578125 92.28397369384766 53.71062850952148 93.5 47.5 93.5 Z" stroke="none"/>
                              <path d="M 47.5 3 C 41.49121475219727 3 35.66376876831055 4.176155090332031 30.17950439453125 6.495796203613281 C 24.88084411621094 8.736953735351562 20.12152099609375 11.94598388671875 16.03375244140625 16.03375244140625 C 11.94598388671875 20.12152099609375 8.736953735351562 24.88084411621094 6.495796203613281 30.17950439453125 C 4.176155090332031 35.66376876831055 3 41.49121475219727 3 47.5 C 3 53.50878524780273 4.176155090332031 59.33623123168945 6.495796203613281 64.82049560546875 C 8.736953735351562 70.11915588378906 11.94598388671875 74.87847900390625 16.03375244140625 78.96624755859375 C 20.12152099609375 83.05401611328125 24.88084411621094 86.26304626464844 30.17950439453125 88.50419616699219 C 35.66376876831055 90.82384490966797 41.49121475219727 92 47.5 92 C 53.50878524780273 92 59.33623123168945 90.82384490966797 64.82049560546875 88.50419616699219 C 70.11915588378906 86.26304626464844 74.87847900390625 83.05401611328125 78.96624755859375 78.96624755859375 C 83.05401611328125 74.87847900390625 86.26304626464844 70.11915588378906 88.50419616699219 64.82049560546875 C 90.82384490966797 59.33623123168945 92 53.50878524780273 92 47.5 C 92 41.49121475219727 90.82384490966797 35.66376876831055 88.50419616699219 30.17950439453125 C 86.26304626464844 24.88084411621094 83.05401611328125 20.12152099609375 78.96624755859375 16.03375244140625 C 74.87847900390625 11.94598388671875 70.11915588378906 8.736953735351562 64.82049560546875 6.495796203613281 C 59.33623123168945 4.176155090332031 53.50878524780273 3 47.5 3 M 47.5 0 C 73.7335205078125 0 95 21.2664794921875 95 47.5 C 95 73.7335205078125 73.7335205078125 95 47.5 95 C 21.2664794921875 95 0 73.7335205078125 0 47.5 C 0 21.2664794921875 21.2664794921875 0 47.5 0 Z" stroke="none" fill="#ff9d1c"/>
                            </g>
                          </g>
                        </g>
                      </g>
                    </g>
                  </g>
                </g>
              </g>
            </g>
          </g>
        </g>
      </g>
    </g>
    <g id="back-office_18477553" transform="translate(1849.374 5147.24)">
      <g id="Grupo_1209006" data-name="Grupo 1209006" transform="translate(5.264 5.873)">
        <g id="Grupo_1209000" data-name="Grupo 1209000" transform="translate(8.942 46.42)">
          <path id="Trazado_1055999" data-name="Trazado 1055999" d="M136.324,470.811l-8.072.121-2.094,3.594a.22.22,0,0,0,.19.331H138.3a.22.22,0,0,0,.19-.331Z" transform="translate(-122.206 -456.539)" fill="#004960" fill-rule="evenodd"/>
          <path id="Trazado_1056000" data-name="Trazado 1056000" d="M129.729,471.532l-1.478.022-2.094,3.594a.22.22,0,0,0,.19.331H138.3a.22.22,0,0,0,.19-.331l-.194-.333H128.2a.22.22,0,0,1-.19-.331Z" transform="translate(-122.206 -457.162)" fill="#003d50" fill-rule="evenodd"/>
          <rect id="Rect치ngulo_419803" data-name="Rect치ngulo 419803" width="20.234" height="14.829" rx="7.414" transform="translate(0)" fill="#e6f8ff"/>
          <path id="Trazado_1056001" data-name="Trazado 1056001" d="M116.664,366.542a1.059,1.059,0,0,1,1.056,1.056v.655H100.254A1.059,1.059,0,0,0,99.2,369.31v12.06h-.655a1.059,1.059,0,0,1-1.056-1.056V367.6a1.059,1.059,0,0,1,1.056-1.056Z" transform="translate(-97.486 -366.542)" fill="#cbf0ff" fill-rule="evenodd"/>
        </g>
        <g id="Grupo_1209002" data-name="Grupo 1209002" transform="translate(45.381 7.006)">
          <rect id="Rect치ngulo_419804" data-name="Rect치ngulo 419804" width="18.179" height="15.719" transform="translate(0)" fill="#ba7b62"/>
          <path id="Trazado_1056002" data-name="Trazado 1056002" d="M364.7,78.586h1.5V92.069a1,1,0,0,0,.992.992h14.7v.252a1,1,0,0,1-.992.992H364.7a1,1,0,0,1-.992-.992V79.578a1,1,0,0,1,.992-.992Z" transform="translate(-363.709 -78.586)" fill="#a76b52" fill-rule="evenodd"/>
          <path id="Trazado_1056003" data-name="Trazado 1056003" d="M385.453,153.64h4.365v2.47h-4.365Z" transform="translate(-382.477 -143.367)" fill="#e6f8ff"/>
          <g id="Grupo_1209001" data-name="Grupo 1209001" transform="translate(2.976)">
            <path id="Trazado_1056004" data-name="Trazado 1056004" d="M385.453,153.64h4.365v.458h-3.242v2.012h-1.124Z" transform="translate(-385.453 -143.367)" fill="#cbf0ff" fill-rule="evenodd"/>
            <path id="Trazado_1056005" data-name="Trazado 1056005" d="M408.641,78.586h5.878v3.893a.438.438,0,0,1-.716.339l-1.945-1.594a.435.435,0,0,0-.556,0l-1.945,1.594a.438.438,0,0,1-.716-.339V78.586Z" transform="translate(-405.467 -78.586)" fill="#ffda2d" fill-rule="evenodd"/>
            <path id="Trazado_1056006" data-name="Trazado 1056006" d="M408.641,78.586h.741V81.6a.438.438,0,0,0,.716.339l1.945-1.594a.435.435,0,0,1,.556,0l1.92,1.574v.562a.438.438,0,0,1-.716.339l-1.945-1.594a.435.435,0,0,0-.556,0l-1.945,1.594a.438.438,0,0,1-.716-.339V78.586Z" transform="translate(-405.467 -78.586)" fill="#ffc700" fill-rule="evenodd"/>
          </g>
        </g>
        <g id="Grupo_1209005" data-name="Grupo 1209005" transform="translate(0)">
          <g id="Grupo_1209003" data-name="Grupo 1209003">
            <path id="Trazado_1056007" data-name="Trazado 1056007" d="M38.631,147.924c3.566,0,6.474-1.177,6.474-2.62s-2.908-2.62-6.474-2.62-6.474,1.177-6.474,2.62S35.065,147.924,38.631,147.924Z" transform="translate(-32.157 -126.905)" fill="#64b5f6" fill-rule="evenodd"/>
            <path id="Trazado_1056008" data-name="Trazado 1056008" d="M45.072,151.894c-.335,1.32-3.09,2.349-6.44,2.349-3.576,0-6.474-1.173-6.474-2.62,0-.61.516-1.172,1.381-1.618a1.1,1.1,0,0,0-.034.271c0,1.447,2.9,2.62,6.474,2.62a11.69,11.69,0,0,0,5.093-1Z" transform="translate(-32.157 -133.225)" fill="#42a5f5" fill-rule="evenodd"/>
            <path id="Trazado_1056009" data-name="Trazado 1056009" d="M43.308,44.71c2.908-4.574,5.76-7.972,5.527-11.958A5.7,5.7,0,0,0,43.073,27.4a5.621,5.621,0,0,0-5.762,5.351C37.235,36.739,39.919,39.912,43.308,44.71Z" transform="translate(-36.605 -27.402)" fill="#fc685b" fill-rule="evenodd"/>
            <path id="Trazado_1056010" data-name="Trazado 1056010" d="M43.308,44.71q.34-.535.678-1.049c-2.7-3.76-4.663-6.581-4.6-10a5.621,5.621,0,0,1,5.762-5.351,6.017,6.017,0,0,1,1.283.137A5.805,5.805,0,0,0,43.073,27.4a5.621,5.621,0,0,0-5.762,5.351C37.235,36.739,39.919,39.912,43.308,44.71Z" transform="translate(-36.605 -27.402)" fill="#fb4737" fill-rule="evenodd"/>
            <path id="Trazado_1056011" data-name="Trazado 1056011" d="M68.859,62.262a1.681,1.681,0,1,0-1.681-1.681A1.684,1.684,0,0,0,68.859,62.262Z" transform="translate(-62.385 -54.589)" fill="#e6f8ff" fill-rule="evenodd"/>
            <path id="Trazado_1056012" data-name="Trazado 1056012" d="M77.109,58.9a1.68,1.68,0,0,0-.373.042,1.681,1.681,0,0,1,0,3.279,1.681,1.681,0,1,0,.373-3.32Z" transform="translate(-70.634 -54.589)" fill="#cbf0ff" fill-rule="evenodd"/>
          </g>
          <g id="Grupo_1209004" data-name="Grupo 1209004" transform="translate(14.363 14.261)">
            <path id="Trazado_1056013" data-name="Trazado 1056013" d="M149.193,131.594h3.751a.458.458,0,0,1,.457.457v1.884a11.8,11.8,0,0,1,4.246,1.76l1.333-1.333a.458.458,0,0,1,.646,0l2.652,2.652a.458.458,0,0,1,0,.646l-1.333,1.333a11.8,11.8,0,0,1,1.76,4.246h1.884a.458.458,0,0,1,.457.457v3.751a.458.458,0,0,1-.457.457H162.7a11.8,11.8,0,0,1-1.76,4.246l1.333,1.333a.458.458,0,0,1,0,.646l-2.652,2.652a.458.458,0,0,1-.646,0l-1.332-1.332a11.8,11.8,0,0,1-4.246,1.76v1.883a.458.458,0,0,1-.457.457h-3.751a.458.458,0,0,1-.457-.457v-1.883a11.8,11.8,0,0,1-4.246-1.76l-1.333,1.333a.458.458,0,0,1-.646,0l-2.652-2.652a.458.458,0,0,1,0-.646l1.332-1.333a11.8,11.8,0,0,1-1.76-4.246h-1.883a.458.458,0,0,1-.457-.457V143.7a.458.458,0,0,1,.457-.457h1.883a11.8,11.8,0,0,1,1.76-4.246l-1.333-1.333a.458.458,0,0,1,0-.646l2.652-2.652a.458.458,0,0,1,.646,0l1.333,1.333a11.8,11.8,0,0,1,4.246-1.76v-1.884a.458.458,0,0,1,.457-.457Z" transform="translate(-137.092 -131.594)" fill="#ffda2d" fill-rule="evenodd"/>
            <path id="Trazado_1056014" data-name="Trazado 1056014" d="M152.157,131.594h.787a.458.458,0,0,1,.457.457v1.884a11.775,11.775,0,0,0-1.244-.319v-2.021Zm-4.192,24.293a8.258,8.258,0,0,1-4.719-1.638l-1.333,1.333a.458.458,0,0,1-.5.1l1.1,1.1a.458.458,0,0,0,.646,0l1.333-1.333a11.808,11.808,0,0,0,4.246,1.76v-1.359A7.72,7.72,0,0,1,147.965,155.887Zm13.6-12.649H162.7a11.812,11.812,0,0,0-1.76-4.246l1.333-1.333a.458.458,0,0,0,0-.646l-2.652-2.652a.453.453,0,0,0-.143-.1l1.551,1.551a.458.458,0,0,1,0,.646l-1.333,1.333a10.621,10.621,0,0,1,1.863,5.444Zm2.237,0h.787a.458.458,0,0,1,.457.457v3.751a.458.458,0,0,1-.457.457H162.7a11.8,11.8,0,0,1-1.76,4.246l1.333,1.333a.458.458,0,0,1,0,.646l-2.652,2.652a.458.458,0,0,1-.646,0l-1.1-1.1a.458.458,0,0,0,.5-.1l2.652-2.652a.458.458,0,0,0,0-.646l-1.333-1.333a11.8,11.8,0,0,0,1.76-4.246h1.884a.458.458,0,0,0,.457-.457v-3.01Zm-6.182,12.227a11.8,11.8,0,0,1-4.218,1.741v1.883a.458.458,0,0,1-.457.457h-3.751a.458.458,0,0,1-.457-.457v-.741H151.7a.458.458,0,0,0,.457-.457v-1.883a11.8,11.8,0,0,0,4.246-1.76l1.216,1.217ZM139.432,147.9h-1.883a.458.458,0,0,1-.457-.457v-.741h2.035A11.774,11.774,0,0,0,139.432,147.9Zm3.583-13.638a.453.453,0,0,1,.143.1l.116.116-.028.018Z" transform="translate(-137.092 -131.594)" fill="#ffc700" fill-rule="evenodd"/>
            <path id="Trazado_1056015" data-name="Trazado 1056015" d="M194.66,191.048a7.3,7.3,0,1,0-7.3-7.3A7.312,7.312,0,0,0,194.66,191.048Z" transform="translate(-180.481 -170.312)" fill="#eff4f7" fill-rule="evenodd"/>
            <path id="Trazado_1056016" data-name="Trazado 1056016" d="M196.277,178.869a7.058,7.058,0,0,1,5.447,2.562A7.073,7.073,0,0,0,192,191.578a7.073,7.073,0,0,1,4.274-12.709Z" transform="translate(-182.071 -172.398)" fill="#dee8ee" fill-rule="evenodd"/>
            <path id="Trazado_1056017" data-name="Trazado 1056017" d="M214.784,255.756a7.072,7.072,0,0,1-9.2,0,5.249,5.249,0,0,1,9.2,0Z" transform="translate(-196.205 -236.408)" fill="#64b5f6" fill-rule="evenodd"/>
            <path id="Trazado_1056018" data-name="Trazado 1056018" d="M240.1,255.756a7.114,7.114,0,0,1-.876.642,5.285,5.285,0,0,0-4.315-3.334,5.246,5.246,0,0,1,5.19,2.692Z" transform="translate(-221.519 -236.409)" fill="#42a5f5" fill-rule="evenodd"/>
            <path id="Trazado_1056019" data-name="Trazado 1056019" d="M205.632,272.276q.133.182.277.356l-.008-.006-.066-.051-.007-.006-.076-.061h0l-.068-.056-.019-.016-.056-.047-.016-.013-.012-.01.052-.091Z" transform="translate(-196.206 -253.02)" fill="#42a5f5" fill-rule="evenodd"/>
            <path id="Trazado_1056020" data-name="Trazado 1056020" d="M221.291,215.2a2.841,2.841,0,1,0-2.841-2.841A2.846,2.846,0,0,0,221.291,215.2Z" transform="translate(-207.314 -198.851)" fill="#ffd6bd" fill-rule="evenodd"/>
            <path id="Trazado_1056021" data-name="Trazado 1056021" d="M222.5,217.152a2.841,2.841,0,1,0,3.885-4.035,2.841,2.841,0,0,1-3.885,4.035Z" transform="translate(-210.813 -201.959)" fill="#f9c6aa" fill-rule="evenodd"/>
          </g>
        </g>
      </g>
      <path id="Trazado_1056022" data-name="Trazado 1056022" d="M11.087,11.076a.615.615,0,1,1,.611.613A.62.62,0,0,1,11.087,11.076Zm3.418,0a2.8,2.8,0,1,0-2.806,2.8A2.807,2.807,0,0,0,14.5,11.076ZM15.943,24.55a11.891,11.891,0,0,1-4.244.7,11.86,11.86,0,0,1-4.239-.7c-1.013-.411-1.243-.812-1.243-.868,0-.283,1.281-1.241,4.09-1.5.24.335.483.676.731,1.028a1.1,1.1,0,0,0,.9.463h.026a1.092,1.092,0,0,0,.9-.506c.2-.32.407-.634.609-.943,2.556.308,3.722,1.2,3.722,1.462,0,.056-.23.457-1.243.868ZM11.7,6.078a4.643,4.643,0,0,0-4.762,4.366c-.061,3.193,1.92,5.955,4.664,9.778l.1.144a.845.845,0,0,1,.068.095l.122.168c.214-.326.427-.646.636-.962,2.294-3.459,4.106-6.191,3.931-9.18A4.677,4.677,0,0,0,11.7,6.078Zm7.678,17.6c0-1.638-1.748-2.922-4.583-3.471,2.227-3.371,4.055-6.361,3.852-9.851A6.824,6.824,0,0,0,16.518,5.79,6.962,6.962,0,0,0,11.7,3.89,6.839,6.839,0,0,0,4.747,10.4C4.68,13.88,6.46,16.764,8.871,20.17c-2.626.469-4.842,1.629-4.842,3.512,0,2.465,3.86,3.756,7.67,3.756s7.675-1.291,7.675-3.756Zm3.35,38.4L24.16,56.73a1.095,1.095,0,0,1,2.115.567l-1.436,5.354a1.1,1.1,0,0,1-1.057.812,1.069,1.069,0,0,1-.283-.038,1.094,1.094,0,0,1-.775-1.34Zm-5-1.62a1.094,1.094,0,0,1,0-1.547l2.379-2.379a1.095,1.095,0,0,1,1.548,1.548l-1.606,1.6L21.654,61.3a1.094,1.094,0,0,1-1.548,1.547ZM27.2,58.087a1.094,1.094,0,0,1,1.547-1.548l2.381,2.379a1.091,1.091,0,0,1,0,1.548l-2.381,2.379A1.095,1.095,0,0,1,27.2,61.295l1.607-1.6Zm6.477,8.046V53.251H15.3V66.132Zm-4.629,3.546H19.932l.789-1.358h7.534Zm4.648-18.616H15.281a2.17,2.17,0,0,0-2.165,2.169v12.92a2.17,2.17,0,0,0,2.165,2.169H18.19l-.906,1.558a1.315,1.315,0,0,0,1.132,1.987H30.56A1.318,1.318,0,0,0,31.7,69.884l-.912-1.563h2.908a2.172,2.172,0,0,0,2.169-2.169V53.232a2.172,2.172,0,0,0-2.169-2.169ZM30.316,39.38a4.717,4.717,0,0,1,7.206,0,6.722,6.722,0,0,1-7.206,0Zm3.6-4.168a2.054,2.054,0,1,1,2.055-2.052A2.056,2.056,0,0,1,33.921,35.212Zm-6.748-1.531a6.72,6.72,0,0,0,1.508,4.246,6.959,6.959,0,0,1,2.274-1.736,4.246,4.246,0,1,1,5.931,0,6.958,6.958,0,0,1,2.274,1.736,6.746,6.746,0,1,0-11.986-4.246Zm15.683,0a8.936,8.936,0,1,0-8.935,8.935,8.946,8.946,0,0,0,8.935-8.935ZM36.075,44.433A10.882,10.882,0,0,0,40,42.807a1.1,1.1,0,0,1,1.381.137l.908.908,1.8-1.8-.909-.909a1.1,1.1,0,0,1-.136-1.381,10.879,10.879,0,0,0,1.626-3.921,1.093,1.093,0,0,1,1.074-.88H47.03V32.4H45.747a1.1,1.1,0,0,1-1.074-.878A10.912,10.912,0,0,0,43.046,27.6a1.1,1.1,0,0,1,.137-1.381l.909-.908-1.8-1.805-.908.909A1.094,1.094,0,0,1,40,24.552a10.811,10.811,0,0,0-3.921-1.62,1.1,1.1,0,0,1-.881-1.073V20.573H32.643v1.285a1.1,1.1,0,0,1-.881,1.073,10.8,10.8,0,0,0-3.92,1.62,1.1,1.1,0,0,1-1.381-.135l-.907-.909-1.806,1.805.908.908a1.1,1.1,0,0,1,.138,1.381,10.912,10.912,0,0,0-1.627,3.923,1.1,1.1,0,0,1-1.074.878H20.809v2.553h1.283a1.093,1.093,0,0,1,1.074.88,10.877,10.877,0,0,0,1.626,3.921,1.094,1.094,0,0,1-.137,1.381l-.908.909,1.806,1.8.907-.908a1.1,1.1,0,0,1,1.381-.137,10.874,10.874,0,0,0,3.922,1.626,1.094,1.094,0,0,1,.879,1.073V46.79H35.2V45.506a1.094,1.094,0,0,1,.879-1.073Zm1.31,1.938v1.047a1.562,1.562,0,0,1-1.56,1.561h-3.81a1.562,1.562,0,0,1-1.56-1.561V46.372A13,13,0,0,1,27.4,45.1l-.742.742a1.552,1.552,0,0,1-1.1.457h0a1.56,1.56,0,0,1-1.108-.467l-2.688-2.688a1.565,1.565,0,0,1-.008-2.194l.75-.75a12.979,12.979,0,0,1-1.269-3.059H20.181a1.561,1.561,0,0,1-1.56-1.559V31.775a1.562,1.562,0,0,1,1.56-1.561h1.047A13.086,13.086,0,0,1,22.5,27.157l-.742-.742a1.566,1.566,0,0,1-.008-2.2l2.7-2.7a1.558,1.558,0,0,1,2.2,0l.742.742a12.9,12.9,0,0,1,3.059-1.266v-1.05a1.56,1.56,0,0,1,1.56-1.555h3.81a1.56,1.56,0,0,1,1.56,1.555v1.05a12.922,12.922,0,0,1,3.059,1.266l.742-.742a1.567,1.567,0,0,1,2.2,0l2.7,2.7a1.568,1.568,0,0,1,0,2.2l-.742.742a13.149,13.149,0,0,1,1.269,3.058h1.046a1.564,1.564,0,0,1,1.561,1.561v3.811a1.562,1.562,0,0,1-1.561,1.559H46.612A12.981,12.981,0,0,1,45.343,40.2l.742.742a1.566,1.566,0,0,1,0,2.2l-2.7,2.7a1.555,1.555,0,0,1-2.212-.01l-.732-.732a13.012,13.012,0,0,1-3.059,1.268Zm26.968-8.556a1.094,1.094,0,1,0-2.164-.324,28.424,28.424,0,0,1-21.6,23.567l.367-.565A1.094,1.094,0,1,0,39.116,59.3l-1.764,2.72a1.094,1.094,0,0,0,.322,1.514l2.72,1.766a1.094,1.094,0,1,0,1.191-1.835l-.451-.293a31.114,31.114,0,0,0,14.4-8.013,30.5,30.5,0,0,0,8.822-17.343ZM22.079,5.989a1.1,1.1,0,0,1,.62-1.418,30.866,30.866,0,0,1,22.216-.085l-.185-.429a1.094,1.094,0,1,1,2.007-.87l1.289,2.972A1.094,1.094,0,0,1,47.457,7.6L44.481,8.89a1.094,1.094,0,0,1-.87-2.007l.677-.294a28.915,28.915,0,0,0-6.127-1.624A28.592,28.592,0,0,0,23.5,6.608a1.1,1.1,0,0,1-1.42-.618Zm-11,44.457a1.094,1.094,0,1,1-1.748,1.317A30.526,30.526,0,0,1,3.22,30.9l-.456.353a1.094,1.094,0,0,1-1.342-1.727l2.56-1.99a1.1,1.1,0,0,1,1.536.192l1.99,2.557A1.094,1.094,0,0,1,5.78,31.625L5.4,31.132a28.343,28.343,0,0,0,5.679,19.314ZM68.618,26.983H52.33V13.2h4.063v2.864a1.541,1.541,0,0,0,2.517,1.191l1.564-1.285,1.568,1.288a1.533,1.533,0,0,0,.969.348,1.557,1.557,0,0,0,.667-.152,1.525,1.525,0,0,0,.879-1.389V13.2h4.062V26.983ZM58.581,13.2v1.493l.916-.753a1.529,1.529,0,0,1,1.95,0l.92.756V13.2H58.581ZM68.7,11.01H52.245a2.1,2.1,0,0,0-2.1,2.1V27.069a2.1,2.1,0,0,0,2.1,2.1H68.7a2.1,2.1,0,0,0,2.1-2.1V13.112A2.1,2.1,0,0,0,68.7,11.01Z" transform="translate(0 0)" fill-rule="evenodd"/>
    </g>
  </g>
</svg>
