<svg xmlns="http://www.w3.org/2000/svg" xmlns:xlink="http://www.w3.org/1999/xlink" width="113" height="113" viewBox="0 0 113 113">
  <defs>
    <filter id="Trazado_982547" x="0" y="0" width="113" height="113" filterUnits="userSpaceOnUse">
      <feOffset dy="3" input="SourceAlpha"/>
      <feGaussianBlur stdDeviation="3" result="blur"/>
      <feFlood flood-opacity="0.161"/>
      <feComposite operator="in" in2="blur"/>
      <feComposite in="SourceGraphic"/>
    </filter>
  </defs>
  <g id="Grupo_1209013" data-name="Grupo 1209013" transform="translate(-2158.5 -5128.397)">
    <g id="Grupo_1208833" data-name="Grupo 1208833" transform="translate(2167.5 5134.397)">
      <g id="Grupo_1208311" data-name="Grupo 1208311" transform="translate(0 0)">
        <g id="Grupo_1207519" data-name="Grupo 1207519">
          <g id="Grupo_1202423" data-name="Grupo 1202423">
            <g id="Grupo_1202352" data-name="Grupo 1202352">
              <g id="Grupo_1174813" data-name="Grupo 1174813">
                <g id="Grupo_1201680" data-name="Grupo 1201680">
                  <g id="Grupo_1201330" data-name="Grupo 1201330">
                    <g id="Grupo_1172010" data-name="Grupo 1172010">
                      <g id="Grupo_1171046" data-name="Grupo 1171046">
                        <g id="Grupo_1148525" data-name="Grupo 1148525">
                          <g transform="matrix(1, 0, 0, 1, -9, -6)" filter="url(#Trazado_982547)">
                            <g id="Trazado_982547-2" data-name="Trazado 982547" transform="translate(9 6)" fill="#fff4e6">
                              <path d="M 47.5 93.5 C 41.28937149047852 93.5 35.26533508300781 92.28397369384766 29.59518623352051 89.88570404052734 C 24.11771965026855 87.56893157958984 19.19813346862793 84.25196075439453 14.97309303283691 80.02691650390625 C 10.74804019927979 75.80186462402344 7.431066513061523 70.88229370117188 5.114293098449707 65.40481567382812 C 2.716026782989502 59.73468017578125 1.5 53.71062850952148 1.5 47.5 C 1.5 41.28937149047852 2.716026782989502 35.26533508300781 5.114293098449707 29.59518623352051 C 7.431066513061523 24.11771965026855 10.74804019927979 19.19813346862793 14.97309303283691 14.97309303283691 C 19.19813346862793 10.74804019927979 24.11771965026855 7.431066513061523 29.59518623352051 5.114293098449707 C 35.26533508300781 2.716026782989502 41.28937149047852 1.5 47.5 1.5 C 53.71062850952148 1.5 59.73468017578125 2.716026782989502 65.40481567382812 5.114293098449707 C 70.88229370117188 7.431066513061523 75.80186462402344 10.74804019927979 80.02691650390625 14.97309303283691 C 84.25196075439453 19.19813346862793 87.56893157958984 24.11771965026855 89.88570404052734 29.59518623352051 C 92.28397369384766 35.26533508300781 93.5 41.28937149047852 93.5 47.5 C 93.5 53.71062850952148 92.28397369384766 59.73468017578125 89.88570404052734 65.40481567382812 C 87.56893157958984 70.88229370117188 84.25196075439453 75.80186462402344 80.02691650390625 80.02691650390625 C 75.80186462402344 84.25196075439453 70.88229370117188 87.56893157958984 65.40481567382812 89.88570404052734 C 59.73468017578125 92.28397369384766 53.71062850952148 93.5 47.5 93.5 Z" stroke="none"/>
                              <path d="M 47.5 3 C 41.49121475219727 3 35.66376876831055 4.176155090332031 30.17950439453125 6.495796203613281 C 24.88084411621094 8.736953735351562 20.12152099609375 11.94598388671875 16.03375244140625 16.03375244140625 C 11.94598388671875 20.12152099609375 8.736953735351562 24.88084411621094 6.495796203613281 30.17950439453125 C 4.176155090332031 35.66376876831055 3 41.49121475219727 3 47.5 C 3 53.50878524780273 4.176155090332031 59.33623123168945 6.495796203613281 64.82049560546875 C 8.736953735351562 70.11915588378906 11.94598388671875 74.87847900390625 16.03375244140625 78.96624755859375 C 20.12152099609375 83.05401611328125 24.88084411621094 86.26304626464844 30.17950439453125 88.50419616699219 C 35.66376876831055 90.82384490966797 41.49121475219727 92 47.5 92 C 53.50878524780273 92 59.33623123168945 90.82384490966797 64.82049560546875 88.50419616699219 C 70.11915588378906 86.26304626464844 74.87847900390625 83.05401611328125 78.96624755859375 78.96624755859375 C 83.05401611328125 74.87847900390625 86.26304626464844 70.11915588378906 88.50419616699219 64.82049560546875 C 90.82384490966797 59.33623123168945 92 53.50878524780273 92 47.5 C 92 41.49121475219727 90.82384490966797 35.66376876831055 88.50419616699219 30.17950439453125 C 86.26304626464844 24.88084411621094 83.05401611328125 20.12152099609375 78.96624755859375 16.03375244140625 C 74.87847900390625 11.94598388671875 70.11915588378906 8.736953735351562 64.82049560546875 6.495796203613281 C 59.33623123168945 4.176155090332031 53.50878524780273 3 47.5 3 M 47.5 0 C 73.7335205078125 0 95 21.2664794921875 95 47.5 C 95 73.7335205078125 73.7335205078125 95 47.5 95 C 21.2664794921875 95 0 73.7335205078125 0 47.5 C 0 21.2664794921875 21.2664794921875 0 47.5 0 Z" stroke="none" fill="#ff9d1c"/>
                            </g>
                          </g>
                        </g>
                      </g>
                    </g>
                  </g>
                </g>
              </g>
            </g>
          </g>
        </g>
      </g>
    </g>
    <g id="hospital_10620219" transform="translate(2145.486 5140.09)">
      <g id="Grupo_1209012" data-name="Grupo 1209012" transform="translate(40.594 9.092)">
        <g id="Grupo_1209008" data-name="Grupo 1209008" transform="translate(0 0)">
          <path id="Trazado_1056023" data-name="Trazado 1056023" d="M48.826,162.78h54.2a1.325,1.325,0,0,1,1.321,1.321v32.774a1.324,1.324,0,0,1-1.321,1.321h-54.2a1.325,1.325,0,0,1-1.321-1.321V164.1A1.325,1.325,0,0,1,48.826,162.78Z" transform="translate(-47.505 -142.772)" fill="#8d9ca8" fill-rule="evenodd"/>
          <path id="Trazado_1056024" data-name="Trazado 1056024" d="M172.939,162.78h22.645V198.2H172.939Z" transform="translate(-155.841 -142.772)" fill="#8192a5" fill-rule="evenodd"/>
          <path id="Trazado_1056025" data-name="Trazado 1056025" d="M75.6,224.172h2.552a.926.926,0,0,1,.924.924v2.552a.926.926,0,0,1-.924.924H75.6a.926.926,0,0,1-.924-.924V225.1A.926.926,0,0,1,75.6,224.172Zm7.139,14.278H85.29a.926.926,0,0,1,.924.924v2.552a.926.926,0,0,1-.924.924H82.738a.926.926,0,0,1-.924-.924v-2.552A.926.926,0,0,1,82.738,238.45Zm-7.139,0h2.552a.926.926,0,0,1,.924.924v2.552a.926.926,0,0,1-.924.924H75.6a.926.926,0,0,1-.924-.924v-2.552A.926.926,0,0,1,75.6,238.45Zm7.139-7.139H85.29a.926.926,0,0,1,.924.924v2.552a.926.926,0,0,1-.924.924H82.738a.926.926,0,0,1-.924-.924v-2.552A.926.926,0,0,1,82.738,231.311Zm-7.139,0h2.552a.926.926,0,0,1,.924.924v2.552a.926.926,0,0,1-.924.924H75.6a.926.926,0,0,1-.924-.924v-2.552A.926.926,0,0,1,75.6,231.311Zm7.139-7.139H85.29a.926.926,0,0,1,.924.924v2.552a.926.926,0,0,1-.924.924H82.738a.926.926,0,0,1-.924-.924V225.1A.926.926,0,0,1,82.738,224.172Z" transform="translate(-70.971 -195.796)" fill="#d8ecfe" fill-rule="evenodd"/>
          <path id="Trazado_1056026" data-name="Trazado 1056026" d="M90.9,224.172h1.265a.926.926,0,0,1,.924.924v2.552a.926.926,0,0,1-.924.924H90.9a.926.926,0,0,0,.924-.924V225.1A.926.926,0,0,0,90.9,224.172Zm7.139,14.278H99.3a.926.926,0,0,1,.924.924v2.552a.926.926,0,0,1-.924.924H98.036a.926.926,0,0,0,.924-.924v-2.552A.926.926,0,0,0,98.036,238.45Zm-7.139,0h1.265a.926.926,0,0,1,.924.924v2.552a.926.926,0,0,1-.924.924H90.9a.926.926,0,0,0,.924-.924v-2.552A.926.926,0,0,0,90.9,238.45Zm7.139-7.139H99.3a.926.926,0,0,1,.924.924v2.552a.926.926,0,0,1-.924.924H98.036a.926.926,0,0,0,.924-.924v-2.552A.926.926,0,0,0,98.036,231.311Zm-7.139,0h1.265a.926.926,0,0,1,.924.924v2.552a.926.926,0,0,1-.924.924H90.9a.926.926,0,0,0,.924-.924v-2.552A.926.926,0,0,0,90.9,231.311Zm7.139-7.139H99.3a.926.926,0,0,1,.924.924v2.552a.926.926,0,0,1-.924.924H98.036a.926.926,0,0,0,.924-.924V225.1A.926.926,0,0,0,98.036,224.172Z" transform="translate(-84.982 -195.796)" fill="#c4e2ff" fill-rule="evenodd"/>
          <path id="Trazado_1056027" data-name="Trazado 1056027" d="M353.593,224.172h2.552a.926.926,0,0,1,.924.924v2.552a.926.926,0,0,1-.924.924h-2.552a.926.926,0,0,1-.924-.924V225.1A.926.926,0,0,1,353.593,224.172Zm7.139,14.278h2.552a.926.926,0,0,1,.924.924v2.552a.926.926,0,0,1-.924.924h-2.552a.926.926,0,0,1-.924-.924v-2.552A.926.926,0,0,1,360.732,238.45Zm-7.139,0h2.552a.926.926,0,0,1,.924.924v2.552a.926.926,0,0,1-.924.924h-2.552a.926.926,0,0,1-.924-.924v-2.552A.926.926,0,0,1,353.593,238.45Zm7.139-7.139h2.552a.926.926,0,0,1,.924.924v2.552a.926.926,0,0,1-.924.924h-2.552a.926.926,0,0,1-.924-.924v-2.552A.926.926,0,0,1,360.732,231.311Zm-7.139,0h2.552a.926.926,0,0,1,.924.924v2.552a.926.926,0,0,1-.924.924h-2.552a.926.926,0,0,1-.924-.924v-2.552A.926.926,0,0,1,353.593,231.311Zm7.139-7.139h2.552a.926.926,0,0,1,.924.924v2.552a.926.926,0,0,1-.924.924h-2.552a.926.926,0,0,1-.924-.924V225.1A.926.926,0,0,1,360.732,224.172Z" transform="translate(-311.071 -195.796)" fill="#d8ecfe" fill-rule="evenodd"/>
          <path id="Trazado_1056028" data-name="Trazado 1056028" d="M368.89,224.172h1.265a.926.926,0,0,1,.924.924v2.552a.926.926,0,0,1-.924.924H368.89a.926.926,0,0,0,.924-.924V225.1A.926.926,0,0,0,368.89,224.172Zm7.139,14.278h1.265a.926.926,0,0,1,.924.924v2.552a.926.926,0,0,1-.924.924h-1.265a.926.926,0,0,0,.924-.924v-2.552A.926.926,0,0,0,376.029,238.45Zm-7.139,0h1.265a.926.926,0,0,1,.924.924v2.552a.926.926,0,0,1-.924.924H368.89a.926.926,0,0,0,.924-.924v-2.552A.926.926,0,0,0,368.89,238.45Zm7.139-7.139h1.265a.926.926,0,0,1,.924.924v2.552a.926.926,0,0,1-.924.924h-1.265a.926.926,0,0,0,.924-.924v-2.552A.926.926,0,0,0,376.029,231.311Zm-7.139,0h1.265a.926.926,0,0,1,.924.924v2.552a.926.926,0,0,1-.924.924H368.89a.926.926,0,0,0,.924-.924v-2.552A.926.926,0,0,0,368.89,231.311Zm7.139-7.139h1.265a.926.926,0,0,1,.924.924v2.552a.926.926,0,0,1-.924.924h-1.265a.926.926,0,0,0,.924-.924V225.1A.926.926,0,0,0,376.029,224.172Z" transform="translate(-325.081 -195.796)" fill="#c4e2ff" fill-rule="evenodd"/>
          <path id="Trazado_1056029" data-name="Trazado 1056029" d="M187.823,101.136h16.306a1.325,1.325,0,0,1,1.321,1.321v42.5H186.5v-42.5A1.324,1.324,0,0,1,187.823,101.136Z" transform="translate(-167.555 -89.531)" fill="#9facba" fill-rule="evenodd"/>
          <path id="Trazado_1056030" data-name="Trazado 1056030" d="M214.6,184.427h2.552a.926.926,0,0,1,.924.924V187.9a.926.926,0,0,1-.924.924H214.6a.926.926,0,0,1-.924-.924v-2.552A.926.926,0,0,1,214.6,184.427Zm7.139,7.139h2.552a.926.926,0,0,1,.924.924v2.552a.926.926,0,0,1-.924.924h-2.552a.926.926,0,0,1-.924-.924V192.49a.926.926,0,0,1,.924-.924Zm-7.139,0h2.552a.926.926,0,0,1,.924.924v2.552a.926.926,0,0,1-.924.924H214.6a.926.926,0,0,1-.924-.924V192.49a.926.926,0,0,1,.924-.924Zm7.139-7.139h2.552a.926.926,0,0,1,.924.924V187.9a.926.926,0,0,1-.924.924h-2.552a.926.926,0,0,1-.924-.924v-2.552A.926.926,0,0,1,221.735,184.427Z" transform="translate(-191.021 -161.468)" fill="#d8ecfe" fill-rule="evenodd"/>
          <path id="Trazado_1056031" data-name="Trazado 1056031" d="M229.893,184.427h1.265a.926.926,0,0,1,.924.924V187.9a.926.926,0,0,1-.924.924h-1.265a.926.926,0,0,0,.924-.924v-2.552A.926.926,0,0,0,229.893,184.427Zm7.139,7.139H238.3a.926.926,0,0,1,.924.924v2.552a.926.926,0,0,1-.924.924h-1.265a.926.926,0,0,0,.924-.924V192.49a.926.926,0,0,0-.924-.924Zm-7.139,0h1.265a.926.926,0,0,1,.924.924v2.552a.926.926,0,0,1-.924.924h-1.265a.926.926,0,0,0,.924-.924V192.49a.926.926,0,0,0-.924-.924Zm7.139-7.139H238.3a.926.926,0,0,1,.924.924V187.9a.926.926,0,0,1-.924.924h-1.265a.926.926,0,0,0,.924-.924v-2.552A.926.926,0,0,0,237.032,184.427Z" transform="translate(-205.031 -161.468)" fill="#c4e2ff" fill-rule="evenodd"/>
          <circle id="Elipse_12497" data-name="Elipse 12497" cx="10.221" cy="10.221" r="10.221" transform="translate(18.199)" fill="#fe646f"/>
          <path id="Trazado_1056032" data-name="Trazado 1056032" d="M256.194,19a10.221,10.221,0,0,1-8.338,17.388,10.221,10.221,0,0,0,0-20.321A10.2,10.2,0,0,1,256.194,19Z" transform="translate(-220.546 -16.005)" fill="#fd4755" fill-rule="evenodd"/>
          <path id="Trazado_1056033" data-name="Trazado 1056033" d="M214.725,46.245h5.269v3.464h3.464v5.269h-3.464v3.464h-5.269V54.978h-3.464V49.709h3.464Z" transform="translate(-188.939 -42.122)" fill="#eceff1" fill-rule="evenodd"/>
          <path id="Trazado_1056034" data-name="Trazado 1056034" d="M214.725,46.245h1.321v3.464h-1.321Zm0,8.733v3.464h1.321V54.978Zm-2.144-5.269h-1.321v5.269h1.321Z" transform="translate(-188.939 -42.122)" fill="#d1d1d6" fill-rule="evenodd"/>
        </g>
        <g id="Grupo_1209009" data-name="Grupo 1209009" transform="translate(11.805 34.471)">
          <path id="Trazado_1056035" data-name="Trazado 1056035" d="M217.692,420.906h10.444v7.98H217.692Z" transform="translate(-206.299 -400.183)" fill="#a79ba7" fill-rule="evenodd"/>
          <path id="Trazado_1056036" data-name="Trazado 1056036" d="M281.638,420.906h1.727v7.98h-1.727Z" transform="translate(-261.528 -400.183)" fill="#837683" fill-rule="evenodd"/>
          <path id="Trazado_1056037" data-name="Trazado 1056037" d="M136.665,268.88h28.121a2.562,2.562,0,0,1,2.555,2.555v17.574a2.562,2.562,0,0,1-2.555,2.555H136.665a2.562,2.562,0,0,1-2.555-2.555V271.435A2.562,2.562,0,0,1,136.665,268.88Z" transform="translate(-134.11 -268.88)" fill="#eceff1" fill-rule="evenodd"/>
          <path id="Trazado_1056038" data-name="Trazado 1056038" d="M166.681,270.346a2.564,2.564,0,0,1,1.567,2.355v17.574a2.562,2.562,0,0,1-2.555,2.555H137.572a2.564,2.564,0,0,1-2.411-1.714,2.532,2.532,0,0,0,.988.2H164.27a2.562,2.562,0,0,0,2.555-2.555V271.187A2.533,2.533,0,0,0,166.681,270.346Z" transform="translate(-135.018 -270.146)" fill="#d1d1d6" fill-rule="evenodd"/>
          <path id="Trazado_1056039" data-name="Trazado 1056039" d="M173.787,469.281h21.371a.6.6,0,0,0,.6-.6V466.8a2,2,0,0,0-2.179-1.741H175.363a2,2,0,0,0-2.179,1.741v1.873A.6.6,0,0,0,173.787,469.281Z" transform="translate(-167.858 -438.322)" fill="#eceff1" fill-rule="evenodd"/>
          <path id="Trazado_1056040" data-name="Trazado 1056040" d="M173.787,470.936h21.371a.6.6,0,0,0,.6-.6v-1.873a1.7,1.7,0,0,0-1.034-1.479,1.415,1.415,0,0,1,.117.562v1.873a.6.6,0,0,1-.6.6H173.184v.314A.6.6,0,0,0,173.787,470.936Z" transform="translate(-167.858 -439.976)" fill="#d1d1d6" fill-rule="evenodd"/>
        </g>
        <g id="Grupo_1209010" data-name="Grupo 1209010" transform="translate(20.517 37.908)">
          <path id="Trazado_1056041" data-name="Trazado 1056041" d="M207.494,295.412a6.747,6.747,0,0,1,1.975.819l1.284-.57,1.513,1.513-.57,1.283a6.75,6.75,0,0,1,.819,1.976l1.31.5v2.139l-1.31.5a6.75,6.75,0,0,1-.819,1.975l.57,1.284-1.513,1.513-1.283-.57a6.75,6.75,0,0,1-1.976.819l-.5,1.31H204.85l-.5-1.31a6.749,6.749,0,0,1-1.975-.819l-1.284.57-1.513-1.513.57-1.283a6.745,6.745,0,0,1-.819-1.976l-1.31-.5v-2.139l1.31-.5a6.747,6.747,0,0,1,.819-1.975l-.57-1.283,1.513-1.513,1.284.57a6.751,6.751,0,0,1,1.975-.819l.5-1.31h2.139Z" transform="translate(-198.016 -294.103)" fill="#837683" fill-rule="evenodd"/>
          <path id="Trazado_1056042" data-name="Trazado 1056042" d="M220.578,307.779l-1.284.57-.2-.2,1.2-.535Q220.438,307.7,220.578,307.779Zm5.123-12.37a6.746,6.746,0,0,1,1.975.819l-.365.162a8.9,8.9,0,0,0-2.253-.981l-.5-1.31h.643Zm1.976,12.37a6.75,6.75,0,0,1-1.976.819l-.5,1.31h-.643l.5-1.31a8.9,8.9,0,0,0,2.254-.981Zm-8.58-11.923.2-.2,1.284.57q-.141.078-.278.162Zm9.418,0,.445-.2,1.513,1.513-.57,1.283a6.749,6.749,0,0,1,.819,1.976l1.31.5v2.139l-1.31.5a6.751,6.751,0,0,1-.819,1.975l.57,1.284-1.513,1.513-.445-.2,1.315-1.315-.57-1.284a6.746,6.746,0,0,0,.819-1.975l1.31-.5v-2.139l-1.31-.5a6.745,6.745,0,0,0-.819-1.976l.57-1.283Z" transform="translate(-216.223 -294.1)" fill="#685e68" fill-rule="evenodd"/>
          <circle id="Elipse_12498" data-name="Elipse 12498" cx="3.731" cy="3.731" r="3.731" transform="translate(3.458 5.037) rotate(-12.243)" fill="#eceff1"/>
          <path id="Trazado_1056043" data-name="Trazado 1056043" d="M232.362,324.714a3.731,3.731,0,0,0,0,7.462q.15,0,.3-.012a3.731,3.731,0,0,1,0-7.438C232.561,324.718,232.462,324.714,232.362,324.714Z" transform="translate(-224.458 -320.541)" fill="#d1d1d6" fill-rule="evenodd"/>
        </g>
        <g id="Grupo_1209011" data-name="Grupo 1209011" transform="translate(37.043 45.055)">
          <path id="Trazado_1056044" data-name="Trazado 1056044" d="M328.907,347.866a6.871,6.871,0,0,1,2.011.834l1.307-.58,1.54,1.54-.58,1.306a6.866,6.866,0,0,1,.834,2.012l1.333.513v2.178l-1.334.513a6.869,6.869,0,0,1-.834,2.011l.58,1.307-1.54,1.54-1.306-.58a6.865,6.865,0,0,1-2.012.834l-.513,1.333h-2.178l-.513-1.334a6.87,6.87,0,0,1-2.011-.834l-1.307.58-1.54-1.54.58-1.306a6.869,6.869,0,0,1-.834-2.012l-1.333-.513v-2.178l1.333-.513a6.868,6.868,0,0,1,.834-2.011l-.58-1.307,1.54-1.54,1.307.58a6.869,6.869,0,0,1,2.011-.834l.513-1.334h2.178Z" transform="translate(-319.257 -346.533)" fill="#ffe177" fill-rule="evenodd"/>
          <path id="Trazado_1056045" data-name="Trazado 1056045" d="M342.229,360.457l-1.307.58-.2-.2,1.225-.544Q342.086,360.378,342.229,360.457Zm5.216-12.594a6.871,6.871,0,0,1,2.011.834l-.371.165a9.061,9.061,0,0,0-2.294-1l-.513-1.334h.654Zm2.011,12.594a6.865,6.865,0,0,1-2.012.834l-.513,1.333h-.654l.513-1.333a9.054,9.054,0,0,0,2.294-1Zm-8.735-12.139.2-.2,1.307.58q-.143.079-.283.165Zm9.589,0,.453-.2,1.54,1.54-.58,1.306a6.866,6.866,0,0,1,.834,2.012l1.333.513v2.178l-1.334.513a6.87,6.87,0,0,1-.834,2.011l.58,1.307-1.54,1.54-.453-.2,1.339-1.339-.58-1.307a6.867,6.867,0,0,0,.834-2.011l1.334-.513v-2.178l-1.333-.513a6.866,6.866,0,0,0-.834-2.012l.58-1.306Z" transform="translate(-337.795 -346.53)" fill="#ffd064" fill-rule="evenodd"/>
          <circle id="Elipse_12499" data-name="Elipse 12499" cx="3.798" cy="3.798" r="3.798" transform="translate(4.249 4.249)" fill="#eceff1"/>
          <path id="Trazado_1056046" data-name="Trazado 1056046" d="M354.224,377.7a3.8,3.8,0,1,0,0,7.6q.153,0,.3-.012a3.8,3.8,0,0,1,0-7.573q-.149-.012-.3-.012Z" transform="translate(-346.177 -373.452)" fill="#d1d1d6" fill-rule="evenodd"/>
        </g>
      </g>
      <path id="Trazado_1056047" data-name="Trazado 1056047" d="M85.684,64.9a2.708,2.708,0,1,1,2.708-2.709A2.711,2.711,0,0,1,85.684,64.9Zm0-7.6a4.889,4.889,0,1,0,4.89,4.888A4.894,4.894,0,0,0,85.684,57.306Zm-16.67.239a2.64,2.64,0,1,1,2.641-2.64A2.643,2.643,0,0,1,69.014,57.544Zm0-7.461A4.821,4.821,0,1,0,73.836,54.9,4.827,4.827,0,0,0,69.014,50.083Zm6.814,5.143v-.642l-.611-.236a1.09,1.09,0,0,1-.669-.765,5.645,5.645,0,0,0-.687-1.656,1.091,1.091,0,0,1-.068-1.016l.266-.6-.454-.454-.6.266a1.089,1.089,0,0,1-1.015-.069,5.632,5.632,0,0,0-1.656-.685,1.091,1.091,0,0,1-.765-.67l-.235-.611h-.641l-.235.611a1.092,1.092,0,0,1-.765.67,5.624,5.624,0,0,0-1.656.685,1.087,1.087,0,0,1-1.014.069l-.6-.266-.454.454.266.6a1.089,1.089,0,0,1-.069,1.014,5.659,5.659,0,0,0-.686,1.656,1.092,1.092,0,0,1-.668.765l-.611.236v.642l.611.234a1.094,1.094,0,0,1,.669.765,5.66,5.66,0,0,0,.686,1.658,1.089,1.089,0,0,1,.069,1.014l-.266.6.454.454.6-.266a1.091,1.091,0,0,1,1.014.069,5.685,5.685,0,0,0,1.656.686,1.091,1.091,0,0,1,.765.668l.235.612h.641l.235-.611a1.088,1.088,0,0,1,.765-.67,5.642,5.642,0,0,0,1.656-.686,1.091,1.091,0,0,1,1.014-.069l.6.266.454-.454-.266-.6a1.093,1.093,0,0,1,.067-1.016,5.6,5.6,0,0,0,.686-1.656,1.1,1.1,0,0,1,.669-.765Zm1.482,1.765a1.087,1.087,0,0,0,.7-1.016V53.834a1.089,1.089,0,0,0-.7-1.017l-.8-.308a7.93,7.93,0,0,0-.5-1.212l.347-.783a1.089,1.089,0,0,0-.225-1.214l-1.513-1.513a1.09,1.09,0,0,0-1.214-.225l-.783.348a7.755,7.755,0,0,0-1.213-.5l-.307-.8a1.088,1.088,0,0,0-1.017-.7H67.945a1.09,1.09,0,0,0-1.018.7l-.307.8a7.775,7.775,0,0,0-1.213.5l-.783-.348a1.09,1.09,0,0,0-1.214.225L61.9,49.3a1.09,1.09,0,0,0-.226,1.214l.348.783a7.862,7.862,0,0,0-.5,1.212l-.8.308a1.09,1.09,0,0,0-.7,1.017v2.141a1.087,1.087,0,0,0,.7,1.016l.8.309a7.87,7.87,0,0,0,.5,1.213l-.348.783a1.088,1.088,0,0,0,.226,1.213l1.513,1.513a1.088,1.088,0,0,0,1.214.225l.783-.348a7.842,7.842,0,0,0,1.213.5l.307.8a1.092,1.092,0,0,0,1.018.7h2.139a1.09,1.09,0,0,0,1.017-.7l.307-.8a7.842,7.842,0,0,0,1.213-.5l.782.348a1.088,1.088,0,0,0,1.214-.225l1.513-1.513a1.087,1.087,0,0,0,.225-1.213l-.347-.784a7.93,7.93,0,0,0,.5-1.212ZM64.006,17.77H66.38a1.091,1.091,0,0,0,1.091-1.091V14.305h3.088v2.374a1.091,1.091,0,0,0,1.09,1.091h2.374v3.088H71.649a1.09,1.09,0,0,0-1.09,1.091v2.373H67.47V21.948a1.091,1.091,0,0,0-1.091-1.091H64.006Zm1.284,5.269v2.373A1.091,1.091,0,0,0,66.38,26.5h5.269a1.091,1.091,0,0,0,1.091-1.091V23.039h2.374A1.091,1.091,0,0,0,76.2,21.948V16.679a1.09,1.09,0,0,0-1.091-1.09H72.739V13.214a1.09,1.09,0,0,0-1.091-1.091H66.38a1.09,1.09,0,0,0-1.091,1.091v2.375H62.916a1.09,1.09,0,0,0-1.091,1.09v5.269a1.091,1.091,0,0,0,1.091,1.091ZM47.607,55.055h-2.22V52.836h2.22Zm1.091-4.4H44.3a1.091,1.091,0,0,0-1.091,1.091v4.4A1.09,1.09,0,0,0,44.3,57.236h4.4a1.09,1.09,0,0,0,1.091-1.091v-4.4A1.091,1.091,0,0,0,48.7,50.655Zm-1.091-2.739h-2.22V45.7h2.22Zm1.091-4.4H44.3a1.09,1.09,0,0,0-1.091,1.091v4.4A1.09,1.09,0,0,0,44.3,50.1h4.4a1.09,1.09,0,0,0,1.091-1.09v-4.4A1.09,1.09,0,0,0,48.7,43.517Zm-1.091-2.739h-2.22v-2.22h2.22Zm1.091-4.4H44.3a1.091,1.091,0,0,0-1.091,1.091v4.4a1.09,1.09,0,0,0,1.091,1.09h4.4a1.09,1.09,0,0,0,1.091-1.09v-4.4A1.091,1.091,0,0,0,48.7,36.378ZM90.421,45.7H92.64v2.219H90.421ZM89.33,50.1h4.4a1.09,1.09,0,0,0,1.09-1.091v-4.4a1.09,1.09,0,0,0-1.09-1.09h-4.4a1.09,1.09,0,0,0-1.091,1.09v4.4A1.09,1.09,0,0,0,89.33,50.1Zm1.091-11.539H92.64v2.22H90.421Zm-1.091,4.4h4.4a1.09,1.09,0,0,0,1.09-1.09v-4.4a1.09,1.09,0,0,0-1.09-1.091h-4.4a1.09,1.09,0,0,0-1.091,1.091v4.4A1.09,1.09,0,0,0,89.33,42.959ZM71.474,33.14h2.22v2.22h-2.22Zm-1.09,4.4h4.4a1.09,1.09,0,0,0,1.091-1.091v-4.4a1.091,1.091,0,0,0-1.091-1.091h-4.4a1.091,1.091,0,0,0-1.091,1.091v4.4A1.091,1.091,0,0,0,70.383,37.542Zm-6.048-4.4h2.22v2.22h-2.22Zm-1.091,4.4h4.4a1.09,1.09,0,0,0,1.091-1.091v-4.4a1.091,1.091,0,0,0-1.091-1.091h-4.4a1.091,1.091,0,0,0-1.091,1.091v4.4A1.091,1.091,0,0,0,63.244,37.542Zm20.038,3.236v-2.22H85.5v2.22ZM96.344,63.425V30.191H79.579V42.473h1.705a1.079,1.079,0,0,1-.183-.6v-4.4a1.091,1.091,0,0,1,1.09-1.091h4.4a1.091,1.091,0,0,1,1.091,1.091v4.4a1.09,1.09,0,0,1-1.091,1.09h-1.7a3.648,3.648,0,0,1,1.828,3.159v6.939h.053a1.092,1.092,0,0,1,1.018.7l.316.822c.045.014.088.03.132.046V51.746a1.09,1.09,0,0,1,1.09-1.091h4.4a1.09,1.09,0,0,1,1.09,1.091v4.4a1.09,1.09,0,0,1-1.09,1.091h-.5a1.106,1.106,0,0,1-.093.481l-.359.806a7.8,7.8,0,0,1,.518,1.248l.822.316a1.089,1.089,0,0,1,.7,1.017v2.179a1.281,1.281,0,0,1-.01.142h1.533Zm-3.7-8.37H91.468l-.093-.092a1.086,1.086,0,0,0-.954-.3V52.836H92.64v2.219Zm-1.3,8.49a1.093,1.093,0,0,1,.669-.766l.634-.244v-.681l-.634-.244a1.093,1.093,0,0,1-.669-.767,5.761,5.761,0,0,0-.7-1.691,1.084,1.084,0,0,1-.069-1.014l.276-.623-.482-.481-.621.277a1.093,1.093,0,0,1-1.016-.068,5.741,5.741,0,0,0-1.691-.7,1.093,1.093,0,0,1-.765-.67l-.244-.635h-.68l-.246.635a1.087,1.087,0,0,1-.765.67,5.76,5.76,0,0,0-1.692.7,1.088,1.088,0,0,1-1.014.068l-.623-.277-.481.481.276.623a1.093,1.093,0,0,1-.068,1.014,5.8,5.8,0,0,0-.7,1.691,1.088,1.088,0,0,1-.669.767l-.634.244v.681l.634.244a1.087,1.087,0,0,1,.669.765,5.789,5.789,0,0,0,.7,1.693,1.093,1.093,0,0,1,.068,1.014l-.276.622.481.482.623-.277a1.086,1.086,0,0,1,1.014.068,5.779,5.779,0,0,0,1.692.7,1.086,1.086,0,0,1,.765.669l.246.636h.68l.244-.636a1.092,1.092,0,0,1,.765-.669,5.773,5.773,0,0,0,1.693-.7,1.087,1.087,0,0,1,1.014-.068l.621.277.482-.482-.277-.622a1.093,1.093,0,0,1,.068-1.014,5.745,5.745,0,0,0,.7-1.692ZM73.145,69.214H64.883V67.337h8.263v1.877Zm6.068,2.832v1.386h-20.4V72.046c0-.3.475-.65,1.088-.65h18.22C78.737,71.4,79.213,71.744,79.213,72.046ZM53.489,63.691a1.467,1.467,0,0,0,1.464,1.466H78.261c-.071-.178-.136-.357-.2-.539l-.82-.316a1.092,1.092,0,0,1-.7-1.018V61.1a1.09,1.09,0,0,1,.7-1.017l.822-.316a7.922,7.922,0,0,1,.516-1.248l-.357-.806a1.093,1.093,0,0,1,.225-1.214l1.541-1.539a1.088,1.088,0,0,1,1.213-.226l.807.359a7.834,7.834,0,0,1,1.248-.518l.316-.822a1.089,1.089,0,0,1,.961-.695V46.118a1.466,1.466,0,0,0-1.464-1.465H54.953a1.466,1.466,0,0,0-1.464,1.465V63.691Zm1.257-22.912h-2.22v-2.22h2.22ZM41.684,30.191V63.425h9.624V46.118a3.648,3.648,0,0,1,1.828-3.159h-1.7a1.09,1.09,0,0,1-1.09-1.091v-4.4a1.09,1.09,0,0,1,1.09-1.091h4.4a1.091,1.091,0,0,1,1.091,1.091v4.4a1.088,1.088,0,0,1-.182.6H58.45V30.191H41.684Zm24.87,12.282h-2.22V40.279h2.22Zm7.139,0h-2.22V40.279h2.22ZM69.014,30.626A11.289,11.289,0,0,1,60.631,26.9V42.473h1.523V39.189A1.091,1.091,0,0,1,63.244,38.1h4.4a1.091,1.091,0,0,1,1.09,1.091v3.284h.557V39.189A1.091,1.091,0,0,1,70.383,38.1h4.4a1.091,1.091,0,0,1,1.091,1.091v3.284H77.4V26.9A11.289,11.289,0,0,1,69.014,30.626Zm0-20.443a9.131,9.131,0,1,0,9.13,9.131A9.141,9.141,0,0,0,69.014,10.183ZM97.435,28.01H79.579V23.35a11.312,11.312,0,1,0-21.128,0V28.01H40.594A1.091,1.091,0,0,0,39.5,29.1V64.516a1.091,1.091,0,0,0,1.091,1.091h11.26a3.646,3.646,0,0,0,3.1,1.731H62.7v1.877H59.9a3.078,3.078,0,0,0-3.269,2.832v2.477a1.09,1.09,0,0,0,1.09,1.09H80.3a1.091,1.091,0,0,0,1.091-1.09V72.046a3.078,3.078,0,0,0-3.27-2.832h-2.8V67.337h2.831a1.089,1.089,0,0,0,.294.548l1.541,1.541a1.092,1.092,0,0,0,1.214.226l.806-.359a7.832,7.832,0,0,0,1.248.518l.316.822a1.09,1.09,0,0,0,1.017.7h2.179a1.091,1.091,0,0,0,1.018-.7l.316-.822a7.885,7.885,0,0,0,1.248-.518l.806.359a1.09,1.09,0,0,0,1.213-.226l1.54-1.541a1.089,1.089,0,0,0,.226-1.213l-.359-.805c.045-.086.087-.173.128-.26h4.524a1.092,1.092,0,0,0,1.09-1.091V29.1A1.09,1.09,0,0,0,97.435,28.01Z" transform="translate(0 0)" fill-rule="evenodd"/>
    </g>
  </g>
</svg>
