<svg xmlns="http://www.w3.org/2000/svg" xmlns:xlink="http://www.w3.org/1999/xlink" width="113" height="113" viewBox="0 0 113 113">
  <defs>
    <filter id="Trazado_982547" x="0" y="0" width="113" height="113" filterUnits="userSpaceOnUse">
      <feOffset dy="3" input="SourceAlpha"/>
      <feGaussianBlur stdDeviation="3" result="blur"/>
      <feFlood flood-opacity="0.161"/>
      <feComposite operator="in" in2="blur"/>
      <feComposite in="SourceGraphic"/>
    </filter>
  </defs>
  <g id="Grupo_1209014" data-name="Grupo 1209014" transform="translate(-1827.5 -5563.397)">
    <g id="Grupo_1208834" data-name="Grupo 1208834" transform="translate(1836.5 5569.397)">
      <g id="Grupo_1208311" data-name="Grupo 1208311" transform="translate(0 0)">
        <g id="Grupo_1207519" data-name="Grupo 1207519">
          <g id="Grupo_1202423" data-name="Grupo 1202423">
            <g id="Grupo_1202352" data-name="Grupo 1202352">
              <g id="Grupo_1174813" data-name="Grupo 1174813">
                <g id="Grupo_1201680" data-name="Grupo 1201680">
                  <g id="Grupo_1201330" data-name="Grupo 1201330">
                    <g id="Grupo_1172010" data-name="Grupo 1172010">
                      <g id="Grupo_1171046" data-name="Grupo 1171046">
                        <g id="Grupo_1148525" data-name="Grupo 1148525">
                          <g transform="matrix(1, 0, 0, 1, -9, -6)" filter="url(#Trazado_982547)">
                            <g id="Trazado_982547-2" data-name="Trazado 982547" transform="translate(9 6)" fill="#fff4e6">
                              <path d="M 47.5 93.5 C 41.28937149047852 93.5 35.26533508300781 92.28397369384766 29.59518623352051 89.88570404052734 C 24.11771965026855 87.56893157958984 19.19813346862793 84.25196075439453 14.97309303283691 80.02691650390625 C 10.74804019927979 75.80186462402344 7.431066513061523 70.88229370117188 5.114293098449707 65.40481567382812 C 2.716026782989502 59.73468017578125 1.5 53.71062850952148 1.5 47.5 C 1.5 41.28937149047852 2.716026782989502 35.26533508300781 5.114293098449707 29.59518623352051 C 7.431066513061523 24.11771965026855 10.74804019927979 19.19813346862793 14.97309303283691 14.97309303283691 C 19.19813346862793 10.74804019927979 24.11771965026855 7.431066513061523 29.59518623352051 5.114293098449707 C 35.26533508300781 2.716026782989502 41.28937149047852 1.5 47.5 1.5 C 53.71062850952148 1.5 59.73468017578125 2.716026782989502 65.40481567382812 5.114293098449707 C 70.88229370117188 7.431066513061523 75.80186462402344 10.74804019927979 80.02691650390625 14.97309303283691 C 84.25196075439453 19.19813346862793 87.56893157958984 24.11771965026855 89.88570404052734 29.59518623352051 C 92.28397369384766 35.26533508300781 93.5 41.28937149047852 93.5 47.5 C 93.5 53.71062850952148 92.28397369384766 59.73468017578125 89.88570404052734 65.40481567382812 C 87.56893157958984 70.88229370117188 84.25196075439453 75.80186462402344 80.02691650390625 80.02691650390625 C 75.80186462402344 84.25196075439453 70.88229370117188 87.56893157958984 65.40481567382812 89.88570404052734 C 59.73468017578125 92.28397369384766 53.71062850952148 93.5 47.5 93.5 Z" stroke="none"/>
                              <path d="M 47.5 3 C 41.49121475219727 3 35.66376876831055 4.176155090332031 30.17950439453125 6.495796203613281 C 24.88084411621094 8.736953735351562 20.12152099609375 11.94598388671875 16.03375244140625 16.03375244140625 C 11.94598388671875 20.12152099609375 8.736953735351562 24.88084411621094 6.495796203613281 30.17950439453125 C 4.176155090332031 35.66376876831055 3 41.49121475219727 3 47.5 C 3 53.50878524780273 4.176155090332031 59.33623123168945 6.495796203613281 64.82049560546875 C 8.736953735351562 70.11915588378906 11.94598388671875 74.87847900390625 16.03375244140625 78.96624755859375 C 20.12152099609375 83.05401611328125 24.88084411621094 86.26304626464844 30.17950439453125 88.50419616699219 C 35.66376876831055 90.82384490966797 41.49121475219727 92 47.5 92 C 53.50878524780273 92 59.33623123168945 90.82384490966797 64.82049560546875 88.50419616699219 C 70.11915588378906 86.26304626464844 74.87847900390625 83.05401611328125 78.96624755859375 78.96624755859375 C 83.05401611328125 74.87847900390625 86.26304626464844 70.11915588378906 88.50419616699219 64.82049560546875 C 90.82384490966797 59.33623123168945 92 53.50878524780273 92 47.5 C 92 41.49121475219727 90.82384490966797 35.66376876831055 88.50419616699219 30.17950439453125 C 86.26304626464844 24.88084411621094 83.05401611328125 20.12152099609375 78.96624755859375 16.03375244140625 C 74.87847900390625 11.94598388671875 70.11915588378906 8.736953735351562 64.82049560546875 6.495796203613281 C 59.33623123168945 4.176155090332031 53.50878524780273 3 47.5 3 M 47.5 0 C 73.7335205078125 0 95 21.2664794921875 95 47.5 C 95 73.7335205078125 73.7335205078125 95 47.5 95 C 21.2664794921875 95 0 73.7335205078125 0 47.5 C 0 21.2664794921875 21.2664794921875 0 47.5 0 Z" stroke="none" fill="#ff9d1c"/>
                            </g>
                          </g>
                        </g>
                      </g>
                    </g>
                  </g>
                </g>
              </g>
            </g>
          </g>
        </g>
      </g>
    </g>
    <g id="car_2052572" transform="translate(1852.396 5585.396)">
      <path id="Trazado_1056048" data-name="Trazado 1056048" d="M59.284,53.514H4V17.974A1.974,1.974,0,0,1,5.974,16H57.309a1.974,1.974,0,0,1,1.974,1.974Z" transform="translate(-0.038 -0.192)" fill="#c9c6ca"/>
      <path id="Trazado_1056049" data-name="Trazado 1056049" d="M8,20H55.386V49.616H8Z" transform="translate(-0.09 -0.243)" fill="#93a7bf"/>
      <path id="Trazado_1056050" data-name="Trazado 1056050" d="M8,20H52.424V49.616H8Z" transform="translate(-0.09 -0.243)" fill="#c4deff"/>
      <path id="Trazado_1056051" data-name="Trazado 1056051" d="M12,36H31.744v5.923H12Z" transform="translate(-0.141 -0.448)" fill="#bf6065"/>
      <path id="Trazado_1056052" data-name="Trazado 1056052" d="M12,36H28.783v5.923H12Z" transform="translate(-0.141 -0.448)" fill="#ff8087"/>
      <path id="Trazado_1056053" data-name="Trazado 1056053" d="M23.923,31.949H19.974A1.974,1.974,0,0,1,18,29.974V28h7.9v1.974A1.974,1.974,0,0,1,23.923,31.949Z" transform="translate(-0.217 -0.345)" fill="#656365"/>
      <path id="Trazado_1056054" data-name="Trazado 1056054" d="M43.923,31.949H39.974A1.974,1.974,0,0,1,38,29.974V28h7.9v1.974A1.974,1.974,0,0,1,43.923,31.949Z" transform="translate(-0.473 -0.345)" fill="#656365"/>
      <path id="Trazado_1056055" data-name="Trazado 1056055" d="M14,24H49.54v3.949H14Z" transform="translate(-0.166 -0.294)" fill="#9ab878"/>
      <path id="Trazado_1056056" data-name="Trazado 1056056" d="M14,24H46.578v3.949H14Z" transform="translate(-0.166 -0.294)" fill="#cdf5a0"/>
      <path id="Trazado_1056057" data-name="Trazado 1056057" d="M19.949,9H17.974a1.974,1.974,0,1,0,0,3.949h1.974" transform="translate(-0.192 -0.102)" fill="#9ab878"/>
      <path id="Trazado_1056058" data-name="Trazado 1056058" d="M44,9h1.974a1.974,1.974,0,0,1,0,3.949H44" transform="translate(-0.55 -0.102)" fill="#9ab878"/>
      <path id="Trazado_1056059" data-name="Trazado 1056059" d="M16,23.9V20.936A4.937,4.937,0,0,1,20.936,16H42.655a4.937,4.937,0,0,1,4.936,4.936V23.9" transform="translate(-0.192 -0.192)" fill="#738a5a"/>
      <path id="Trazado_1056060" data-name="Trazado 1056060" d="M39.693,16H20.936A4.937,4.937,0,0,0,16,20.936V23.9H44.629V20.936A4.937,4.937,0,0,0,39.693,16Z" transform="translate(-0.192 -0.192)" fill="#9ab878"/>
      <path id="Trazado_1056061" data-name="Trazado 1056061" d="M20,23.949a3.949,3.949,0,0,1,7.9,0" transform="translate(-0.243 -0.243)" fill="#bfbf73"/>
      <path id="Trazado_1056062" data-name="Trazado 1056062" d="M22.468,20.3A3.944,3.944,0,0,0,20,23.953h4.936A3.944,3.944,0,0,0,22.468,20.3Z" transform="translate(-0.243 -0.247)" fill="#ff9"/>
      <path id="Trazado_1056063" data-name="Trazado 1056063" d="M36,23.949a3.949,3.949,0,0,1,7.9,0" transform="translate(-0.448 -0.243)" fill="#bfbf73"/>
      <path id="Trazado_1056064" data-name="Trazado 1056064" d="M38.468,20.3A3.944,3.944,0,0,0,36,23.953h4.936A3.944,3.944,0,0,0,38.468,20.3Z" transform="translate(-0.448 -0.247)" fill="#ff9"/>
      <path id="Trazado_1056065" data-name="Trazado 1056065" d="M20,15.821v-7.9A5.923,5.923,0,0,1,25.923,2H37.77a5.923,5.923,0,0,1,5.923,5.923v7.9" transform="translate(-0.243 -0.013)" fill="#9ab878"/>
      <path id="Trazado_1056066" data-name="Trazado 1056066" d="M34.808,2H25.923A5.923,5.923,0,0,0,20,7.923v7.9H40.731v-7.9A5.923,5.923,0,0,0,34.808,2Z" transform="translate(-0.243 -0.013)" fill="#cdf5a0"/>
      <path id="Trazado_1056067" data-name="Trazado 1056067" d="M39.8,11.923H24V7.974A1.974,1.974,0,0,1,25.974,6H37.821A1.974,1.974,0,0,1,39.8,7.974Z" transform="translate(-0.294 -0.064)" fill="#93a7bf"/>
      <path id="Trazado_1056068" data-name="Trazado 1056068" d="M34.859,6H25.974A1.974,1.974,0,0,0,24,7.974v3.949H36.834V7.974A1.974,1.974,0,0,0,34.859,6Z" transform="translate(-0.294 -0.064)" fill="#c4deff"/>
      <path id="Trazado_1056069" data-name="Trazado 1056069" d="M57.284,61.9H5.949A3.949,3.949,0,0,1,2,57.949V54H61.233v3.949A3.949,3.949,0,0,1,57.284,61.9Z" transform="translate(-0.013 -0.678)" fill="#656365"/>
      <path id="Trazado_1056070" data-name="Trazado 1056070" d="M58.271,57.949V54H2v3.949A3.949,3.949,0,0,0,5.949,61.9H54.322A3.949,3.949,0,0,0,58.271,57.949Z" transform="translate(-0.013 -0.678)" fill="#979598"/>
      <path id="Trazado_1056071" data-name="Trazado 1056071" d="M23,54v1.974a1.974,1.974,0,0,0,1.974,1.974H38.8a1.974,1.974,0,0,0,1.974-1.974V54" transform="translate(-0.281 -0.678)" fill="#4c4a4c"/>
      <path id="Trazado_1056072" data-name="Trazado 1056072" d="M37.808,55.974V54H23v1.974a1.974,1.974,0,0,0,1.974,1.974H35.834A1.974,1.974,0,0,0,37.808,55.974Z" transform="translate(-0.281 -0.678)" fill="#656365"/>
      <path id="Trazado_1056073" data-name="Trazado 1056073" d="M57.271,62.872H5.936A4.942,4.942,0,0,1,1,57.936V53.987A.987.987,0,0,1,1.987,53H61.22a.987.987,0,0,1,.987.987v3.949A4.942,4.942,0,0,1,57.271,62.872Zm-54.3-7.9v2.962A2.965,2.965,0,0,0,5.936,60.9H57.271a2.965,2.965,0,0,0,2.962-2.962V54.974Z" transform="translate(0 -0.665)"/>
      <path id="Trazado_1056074" data-name="Trazado 1056074" d="M38.783,58.936H24.962A2.965,2.965,0,0,1,22,55.974V54h1.974v1.974a.988.988,0,0,0,.987.987H38.783a.988.988,0,0,0,.987-.987V54h1.974v1.974A2.965,2.965,0,0,1,38.783,58.936Z" transform="translate(-0.269 -0.678)"/>
      <path id="Trazado_1056075" data-name="Trazado 1056075" d="M60.783,53.5H58.808V17.962a.988.988,0,0,0-.987-.987H44V15H57.821a2.965,2.965,0,0,1,2.962,2.962Z" transform="translate(-0.55 -0.179)"/>
      <path id="Trazado_1056076" data-name="Trazado 1056076" d="M4.974,53.5H3V17.962A2.965,2.965,0,0,1,5.962,15H19.783v1.974H5.962a.988.988,0,0,0-.987.987Z" transform="translate(-0.026 -0.179)"/>
      <path id="Trazado_1056077" data-name="Trazado 1056077" d="M55.373,50.591H7.987A.987.987,0,0,1,7,49.6V19.987A.987.987,0,0,1,7.987,19h7.9v1.974H8.974V48.616H54.386V20.974h-6.91V19h7.9a.987.987,0,0,1,.987.987V49.6A.987.987,0,0,1,55.373,50.591Z" transform="translate(-0.077 -0.23)"/>
      <path id="Trazado_1056078" data-name="Trazado 1056078" d="M23.91,32.936H19.962A2.965,2.965,0,0,1,17,29.974V28h1.974v1.974a.988.988,0,0,0,.987.987H23.91a.988.988,0,0,0,.987-.987V28h1.974v1.974A2.965,2.965,0,0,1,23.91,32.936Z" transform="translate(-0.205 -0.345)"/>
      <path id="Trazado_1056079" data-name="Trazado 1056079" d="M43.91,32.936H39.962A2.965,2.965,0,0,1,37,29.974V28h1.974v1.974a.988.988,0,0,0,.987.987H43.91a.988.988,0,0,0,.987-.987V28h1.974v1.974A2.965,2.965,0,0,1,43.91,32.936Z" transform="translate(-0.46 -0.345)"/>
      <path id="Trazado_1056080" data-name="Trazado 1056080" d="M49.527,28.923H13.987A.987.987,0,0,1,13,27.936V23.987A.987.987,0,0,1,13.987,23h35.54a.987.987,0,0,1,.987.987v3.949A.987.987,0,0,1,49.527,28.923ZM14.974,26.949H48.54V24.974H14.974Z" transform="translate(-0.153 -0.281)"/>
      <path id="Trazado_1056081" data-name="Trazado 1056081" d="M48.565,23.885H46.591V20.923a3.953,3.953,0,0,0-3.949-3.949H20.923a3.953,3.953,0,0,0-3.949,3.949v2.962H15V20.923A5.929,5.929,0,0,1,20.923,15H42.642a5.929,5.929,0,0,1,5.923,5.923Z" transform="translate(-0.179 -0.179)"/>
      <path id="Trazado_1056082" data-name="Trazado 1056082" d="M44.667,15.808H42.693V7.91a4.942,4.942,0,0,0-4.936-4.936H25.91A4.942,4.942,0,0,0,20.974,7.91v7.9H19V7.91A6.919,6.919,0,0,1,25.91,1H37.757a6.919,6.919,0,0,1,6.91,6.91Z" transform="translate(-0.23)"/>
      <path id="Trazado_1056083" data-name="Trazado 1056083" d="M39.783,12.9h-15.8A.987.987,0,0,1,23,11.91V7.962A2.965,2.965,0,0,1,25.962,5H37.808A2.965,2.965,0,0,1,40.77,7.962V11.91A.987.987,0,0,1,39.783,12.9ZM24.974,10.923H38.8V7.962a.988.988,0,0,0-.987-.987H25.962a.988.988,0,0,0-.987.987Z" transform="translate(-0.281 -0.051)"/>
      <path id="Trazado_1056084" data-name="Trazado 1056084" d="M19.936,13.923H17.962a2.962,2.962,0,1,1,0-5.923h1.974V9.974H17.962a.987.987,0,1,0,0,1.974h1.974Z" transform="translate(-0.179 -0.09)"/>
      <path id="Trazado_1056085" data-name="Trazado 1056085" d="M45.974,13.923H44V11.949h1.974a.987.987,0,0,0,0-1.974H44V8h1.974a2.962,2.962,0,1,1,0,5.923Z" transform="translate(-0.55 -0.09)"/>
      <path id="Trazado_1056086" data-name="Trazado 1056086" d="M28.872,23.936H26.9a2.962,2.962,0,0,0-5.923,0H19a4.936,4.936,0,0,1,9.872,0Z" transform="translate(-0.23 -0.23)"/>
      <path id="Trazado_1056087" data-name="Trazado 1056087" d="M44.872,23.936H42.9a2.962,2.962,0,1,0-5.923,0H35a4.936,4.936,0,1,1,9.872,0Z" transform="translate(-0.435 -0.23)"/>
      <path id="Trazado_1056088" data-name="Trazado 1056088" d="M31.731,42.9H11.987A.987.987,0,0,1,11,41.91V35.987A.987.987,0,0,1,11.987,35H31.731a.987.987,0,0,1,.987.987V41.91A.987.987,0,0,1,31.731,42.9ZM12.974,40.923h17.77V36.974H12.974Z" transform="translate(-0.128 -0.435)"/>
      <path id="Trazado_1056089" data-name="Trazado 1056089" d="M11,45H52.463v1.974H11Z" transform="translate(-0.128 -0.563)"/>
      <path id="Trazado_1056090" data-name="Trazado 1056090" d="M35,37H52.77v1.974H35Z" transform="translate(-0.435 -0.46)"/>
      <path id="Trazado_1056091" data-name="Trazado 1056091" d="M35,41H52.77v1.974H35Z" transform="translate(-0.435 -0.512)"/>
    </g>
  </g>
</svg>
