<svg xmlns="http://www.w3.org/2000/svg" xmlns:xlink="http://www.w3.org/1999/xlink" width="113" height="113" viewBox="0 0 113 113">
  <defs>
    <filter id="Trazado_982547" x="0" y="0" width="113" height="113" filterUnits="userSpaceOnUse">
      <feOffset dy="3" input="SourceAlpha"/>
      <feGaussianBlur stdDeviation="3" result="blur"/>
      <feFlood flood-opacity="0.161"/>
      <feComposite operator="in" in2="blur"/>
      <feComposite in="SourceGraphic"/>
    </filter>
  </defs>
  <g id="Grupo_1207733" data-name="Grupo 1207733" transform="translate(-320 -3620.56)">
    <g id="Grupo_1207519" data-name="Grupo 1207519" transform="translate(0 2984.488)">
      <g id="Grupo_1202423" data-name="Grupo 1202423" transform="translate(0 -677.451)">
        <g id="Grupo_1202352" data-name="Grupo 1202352" transform="translate(49 443.108)">
          <g id="Grupo_1174813" data-name="Grupo 1174813" transform="translate(280 876.414)">
            <g id="Grupo_1201680" data-name="Grupo 1201680">
              <g id="Grupo_1201330" data-name="Grupo 1201330">
                <g id="Grupo_1172010" data-name="Grupo 1172010">
                  <g id="Grupo_1171046" data-name="Grupo 1171046">
                    <g id="Grupo_1148525" data-name="Grupo 1148525">
                      <g transform="matrix(1, 0, 0, 1, -9, -6)" filter="url(#Trazado_982547)">
                        <g id="Trazado_982547-2" data-name="Trazado 982547" transform="translate(9 6)" fill="#fff4e6">
                          <path d="M 47.5 93.5 C 41.28937149047852 93.5 35.26533508300781 92.28397369384766 29.59518623352051 89.88570404052734 C 24.11771965026855 87.56893157958984 19.19813346862793 84.25196075439453 14.97309303283691 80.02691650390625 C 10.74804019927979 75.80186462402344 7.431066513061523 70.88229370117188 5.114293098449707 65.40481567382812 C 2.716026782989502 59.73468017578125 1.5 53.71062850952148 1.5 47.5 C 1.5 41.28937149047852 2.716026782989502 35.26533508300781 5.114293098449707 29.59518623352051 C 7.431066513061523 24.11771965026855 10.74804019927979 19.19813346862793 14.97309303283691 14.97309303283691 C 19.19813346862793 10.74804019927979 24.11771965026855 7.431066513061523 29.59518623352051 5.114293098449707 C 35.26533508300781 2.716026782989502 41.28937149047852 1.5 47.5 1.5 C 53.71062850952148 1.5 59.73468017578125 2.716026782989502 65.40481567382812 5.114293098449707 C 70.88229370117188 7.431066513061523 75.80186462402344 10.74804019927979 80.02691650390625 14.97309303283691 C 84.25196075439453 19.19813346862793 87.56893157958984 24.11771965026855 89.88570404052734 29.59518623352051 C 92.28397369384766 35.26533508300781 93.5 41.28937149047852 93.5 47.5 C 93.5 53.71062850952148 92.28397369384766 59.73468017578125 89.88570404052734 65.40481567382812 C 87.56893157958984 70.88229370117188 84.25196075439453 75.80186462402344 80.02691650390625 80.02691650390625 C 75.80186462402344 84.25196075439453 70.88229370117188 87.56893157958984 65.40481567382812 89.88570404052734 C 59.73468017578125 92.28397369384766 53.71062850952148 93.5 47.5 93.5 Z" stroke="none"/>
                          <path d="M 47.5 3 C 41.49121475219727 3 35.66376876831055 4.176155090332031 30.17950439453125 6.495796203613281 C 24.88084411621094 8.736953735351562 20.12152099609375 11.94598388671875 16.03375244140625 16.03375244140625 C 11.94598388671875 20.12152099609375 8.736953735351562 24.88084411621094 6.495796203613281 30.17950439453125 C 4.176155090332031 35.66376876831055 3 41.49121475219727 3 47.5 C 3 53.50878524780273 4.176155090332031 59.33623123168945 6.495796203613281 64.82049560546875 C 8.736953735351562 70.11915588378906 11.94598388671875 74.87847900390625 16.03375244140625 78.96624755859375 C 20.12152099609375 83.05401611328125 24.88084411621094 86.26304626464844 30.17950439453125 88.50419616699219 C 35.66376876831055 90.82384490966797 41.49121475219727 92 47.5 92 C 53.50878524780273 92 59.33623123168945 90.82384490966797 64.82049560546875 88.50419616699219 C 70.11915588378906 86.26304626464844 74.87847900390625 83.05401611328125 78.96624755859375 78.96624755859375 C 83.05401611328125 74.87847900390625 86.26304626464844 70.11915588378906 88.50419616699219 64.82049560546875 C 90.82384490966797 59.33623123168945 92 53.50878524780273 92 47.5 C 92 41.49121475219727 90.82384490966797 35.66376876831055 88.50419616699219 30.17950439453125 C 86.26304626464844 24.88084411621094 83.05401611328125 20.12152099609375 78.96624755859375 16.03375244140625 C 74.87847900390625 11.94598388671875 70.11915588378906 8.736953735351562 64.82049560546875 6.495796203613281 C 59.33623123168945 4.176155090332031 53.50878524780273 3 47.5 3 M 47.5 0 C 73.7335205078125 0 95 21.2664794921875 95 47.5 C 95 73.7335205078125 73.7335205078125 95 47.5 95 C 21.2664794921875 95 0 73.7335205078125 0 47.5 C 0 21.2664794921875 21.2664794921875 0 47.5 0 Z" stroke="none" fill="#ff9d1c"/>
                        </g>
                      </g>
                    </g>
                  </g>
                </g>
              </g>
            </g>
          </g>
        </g>
      </g>
    </g>
    <g id="resource-allocation_13063118" transform="translate(334.779 3637.083)">
      <g id="Grupo_1207732" data-name="Grupo 1207732" transform="translate(7.741 8.247)">
        <g id="Grupo_1207728" data-name="Grupo 1207728" transform="translate(42.263 0)">
          <path id="Trazado_1052949" data-name="Trazado 1052949" d="M363.007,32.7a8.848,8.848,0,1,0-8.848-8.847A8.865,8.865,0,0,0,363.007,32.7Z" transform="translate(-354.159 -15)" fill="#837683" fill-rule="evenodd"/>
          <path id="Trazado_1052950" data-name="Trazado 1052950" d="M427.3,23.848a8.846,8.846,0,0,1-8.061,8.813q.389.035.787.035a8.886,8.886,0,0,0,1.267-.09l.159-.024A8.848,8.848,0,0,0,420.021,15q-.4,0-.787.034a8.848,8.848,0,0,1,8.061,8.814Z" transform="translate(-411.173 -15)" fill="#685e68" fill-rule="evenodd"/>
          <path id="Trazado_1052951" data-name="Trazado 1052951" d="M382.136,93.311a6.181,6.181,0,0,0-6.144,5.515,8.846,8.846,0,0,0,12.286,0,6.179,6.179,0,0,0-6.143-5.515Z" transform="translate(-373.287 -83.61)" fill="#8ac9fe" fill-rule="evenodd"/>
          <path id="Trazado_1052952" data-name="Trazado 1052952" d="M419.243,93.361c3.677.467,5.159,3.25,5.5,6.585a8.8,8.8,0,0,0,1.429-1.12,6.179,6.179,0,0,0-6.143-5.515A6.091,6.091,0,0,0,419.243,93.361Z" transform="translate(-411.181 -83.61)" fill="#60b7ff" fill-rule="evenodd"/>
          <path id="Trazado_1052953" data-name="Trazado 1052953" d="M403.5,45.357a3.124,3.124,0,1,0-3.124-3.124A3.13,3.13,0,0,0,403.5,45.357Z" transform="translate(-394.647 -36.123)" fill="#f6dccd" fill-rule="evenodd"/>
          <path id="Trazado_1052954" data-name="Trazado 1052954" d="M425.146,42.234a3.124,3.124,0,0,1-2.731,3.1,3.238,3.238,0,0,0,.393.024,3.124,3.124,0,1,0,0-6.247,3.263,3.263,0,0,0-.393.024A3.124,3.124,0,0,1,425.146,42.234Z" transform="translate(-413.96 -36.123)" fill="#f1cbbc" fill-rule="evenodd"/>
        </g>
        <g id="Grupo_1207729" data-name="Grupo 1207729" transform="translate(42.263 41.765)">
          <path id="Trazado_1052955" data-name="Trazado 1052955" d="M363,369.848A8.848,8.848,0,1,1,371.854,361,8.864,8.864,0,0,1,363,369.848Z" transform="translate(-354.157 -352.153)" fill="#ffc338" fill-rule="evenodd"/>
          <path id="Trazado_1052956" data-name="Trazado 1052956" d="M429.646,361a8.849,8.849,0,0,0-8.319-8.833c.174-.01.35-.015.527-.015a8.848,8.848,0,1,1,0,17.7c-.177,0-.353-.005-.527-.015A8.849,8.849,0,0,0,429.646,361Z" transform="translate(-413.006 -352.153)" fill="#f5b829" fill-rule="evenodd"/>
        </g>
        <g id="Grupo_1207730" data-name="Grupo 1207730" transform="translate(42.567 21.186)">
          <path id="Trazado_1052957" data-name="Trazado 1052957" d="M365.157,186.027a8.544,8.544,0,1,1-8.544,8.544A8.544,8.544,0,0,1,365.157,186.027Z" transform="translate(-356.613 -186.027)" fill="#eceff1" fill-rule="evenodd"/>
          <path id="Trazado_1052958" data-name="Trazado 1052958" d="M365.157,186.027c.122,0,.244,0,.364.008a8.544,8.544,0,0,0,0,17.073c-.121.005-.242.008-.364.008a8.544,8.544,0,0,1,0-17.088Z" transform="translate(-356.613 -186.027)" fill="#d1d1d6" fill-rule="evenodd"/>
        </g>
        <g id="Grupo_1207731" data-name="Grupo 1207731" transform="translate(0 17.846)">
          <path id="Trazado_1052959" data-name="Trazado 1052959" d="M27.238,161.035a10.133,10.133,0,0,1,2.971,1.231l1.93-.856,2.274,2.274-.856,1.93a10.135,10.135,0,0,1,1.231,2.971l1.97.758v3.218l-1.97.758a10.141,10.141,0,0,1-1.231,2.969l.856,1.93-2.274,2.276-1.93-.858a10.136,10.136,0,0,1-2.971,1.233l-.758,1.968H23.262l-.758-1.97a10.14,10.14,0,0,1-2.969-1.231l-1.93.858-2.276-2.276.858-1.929a10.167,10.167,0,0,1-1.233-2.971l-1.968-.758v-3.218l1.968-.758a10.135,10.135,0,0,1,1.233-2.971l-.858-1.93,2.276-2.274,1.929.856a10.163,10.163,0,0,1,2.971-1.231l.758-1.97H26.48Z" transform="translate(-12.986 -159.065)" fill="#ffe177" fill-rule="evenodd"/>
          <path id="Trazado_1052960" data-name="Trazado 1052960" d="M62.12,161.7l.649-.288,2.274,2.274-.856,1.93a10.134,10.134,0,0,1,1.231,2.971l1.97.758v3.218l-1.97.758a10.141,10.141,0,0,1-1.231,2.969l.856,1.93-2.274,2.276-.649-.288,1.988-1.988-.858-1.93a10.138,10.138,0,0,0,1.231-2.969l1.97-.758v-3.218l-1.97-.758a10.131,10.131,0,0,0-1.231-2.971l.858-1.93Zm-14.173,0,.288-.288,1.929.856c-.136.076-.271.154-.4.237Zm9.921-.663a10.133,10.133,0,0,1,2.971,1.231l-.532.237a13.256,13.256,0,0,0-3.375-1.468l-.758-1.97h.936Zm-7.7,18.6-1.93.858-.288-.288,1.814-.806Q49.959,179.522,50.165,179.635Zm10.673,0a10.136,10.136,0,0,1-2.971,1.233l-.758,1.968h-.936l.758-1.968a13.285,13.285,0,0,0,3.376-1.468Z" transform="translate(-43.616 -159.065)" fill="#ffd064" fill-rule="evenodd"/>
          <path id="Trazado_1052961" data-name="Trazado 1052961" d="M69.684,210.2a5.549,5.549,0,1,1-5.549,5.55A5.55,5.55,0,0,1,69.684,210.2Z" transform="translate(-57.799 -203.867)" fill="#eceff1" fill-rule="evenodd"/>
          <path id="Trazado_1052962" data-name="Trazado 1052962" d="M69.684,210.2c.126,0,.251,0,.377.013a5.549,5.549,0,0,0,0,11.073c-.125.008-.25.012-.377.012a5.549,5.549,0,0,1,0-11.1Z" transform="translate(-57.799 -203.867)" fill="#d1d1d6" fill-rule="evenodd"/>
        </g>
      </g>
      <path id="Trazado_1052963" data-name="Trazado 1052963" d="M34.67,38.968h-.447a.991.991,0,0,1,0-1.982h.447A7.489,7.489,0,0,0,37.9,36.3a6.626,6.626,0,0,0,3.014-7.591,38,38,0,0,0-2.4-4.676c-1.406-2.772-2.148-5.755.792-9.48,2.735-3.465,6.632-2.46,7.757-2.46a.991.991,0,1,1,0,1.982c-.4,0-1.206-.163-2.183-.16a4.856,4.856,0,0,0-4.018,1.866c-2.28,2.889-1.671,5.205-.58,7.356A40.006,40.006,0,0,1,42.8,28.081a8.652,8.652,0,0,1-2.486,8.905h6.307a.991.991,0,1,1,0,1.982H40.312A8.652,8.652,0,0,1,42.8,47.873a40.006,40.006,0,0,1-2.513,4.946c-1.091,2.15-1.7,4.467.58,7.356a4.856,4.856,0,0,0,4.018,1.866c.977,0,1.781-.16,2.183-.16a.991.991,0,1,1,0,1.982c-1.125,0-5.022,1-7.757-2.46-2.94-3.725-2.2-6.708-.792-9.48a38,38,0,0,0,2.4-4.676A6.626,6.626,0,0,0,37.9,39.656a7.489,7.489,0,0,0-3.233-.688ZM22.555,27.536a10.8,10.8,0,0,1,2.2.91l1.409-.626a.991.991,0,0,1,1.1.2l2.2,2.2a.991.991,0,0,1,.205,1.1L29.05,32.74a10.767,10.767,0,0,1,.911,2.2l1.436.553a.991.991,0,0,1,.635.925v3.118a.991.991,0,0,1-.635.925l-1.437.553a10.883,10.883,0,0,1-.911,2.2l.625,1.41a.991.991,0,0,1-.205,1.1l-2.2,2.2a.991.991,0,0,1-1.1.205l-1.408-.624a10.766,10.766,0,0,1-2.2.911L22,49.858a.991.991,0,0,1-.925.635H17.959a.991.991,0,0,1-.925-.635l-.553-1.436a10.856,10.856,0,0,1-2.2-.912l-1.41.625a.991.991,0,0,1-1.1-.205l-2.2-2.2a.991.991,0,0,1-.2-1.1l.626-1.408a10.858,10.858,0,0,1-.912-2.2l-1.438-.553A.991.991,0,0,1,7,39.538V36.419a.991.991,0,0,1,.635-.925l1.438-.553a10.866,10.866,0,0,1,.913-2.2l-.626-1.409a.991.991,0,0,1,.2-1.1l2.2-2.2a.991.991,0,0,1,1.1-.2l1.408.626a10.793,10.793,0,0,1,2.2-.911l.556-1.44a.991.991,0,0,1,.925-.634h3.118A.991.991,0,0,1,22,26.1ZM20.887,28.72,20.4,27.443H18.638l-.493,1.278a.991.991,0,0,1-.7.607A8.818,8.818,0,0,0,14.861,30.4a.991.991,0,0,1-.923.062l-1.25-.556-1.242,1.242L12,32.4a.991.991,0,0,1-.062.923,8.891,8.891,0,0,0-1.076,2.594.991.991,0,0,1-.608.694l-1.274.49v1.757l1.274.491a.991.991,0,0,1,.607.693,8.871,8.871,0,0,0,1.076,2.59.991.991,0,0,1,.063.924l-.556,1.25,1.243,1.243,1.25-.554a.992.992,0,0,1,.919.061,8.881,8.881,0,0,0,2.594,1.074.991.991,0,0,1,.7.608l.49,1.274H20.4l.491-1.274a.991.991,0,0,1,.7-.608,8.781,8.781,0,0,0,2.588-1.072.991.991,0,0,1,.923-.063l1.25.554L27.587,44.8l-.554-1.25a.992.992,0,0,1,.061-.919,8.9,8.9,0,0,0,1.074-2.591.991.991,0,0,1,.608-.7l1.274-.491V37.1l-1.274-.49a.991.991,0,0,1-.608-.7A8.8,8.8,0,0,0,27.1,33.322a.991.991,0,0,1-.062-.921l.554-1.25-1.243-1.243-1.25.556a.991.991,0,0,1-.923-.062,8.818,8.818,0,0,0-2.589-1.073.991.991,0,0,1-.7-.609Zm-1.371,2.827a6.432,6.432,0,1,1-6.43,6.43A6.431,6.431,0,0,1,19.516,31.547Zm0,1.982a4.45,4.45,0,1,0,4.451,4.448,4.447,4.447,0,0,0-4.451-4.448ZM58.742,7.292a9.7,9.7,0,1,1-9.7,9.7,9.7,9.7,0,0,1,9.7-9.7Zm6.507,13.853a7.718,7.718,0,1,0-13.015,0,7.1,7.1,0,0,1,3.515-3.64,4.067,4.067,0,1,1,5.984,0,7.1,7.1,0,0,1,3.515,3.64ZM53.757,22.886a7.72,7.72,0,0,0,9.97,0,5.09,5.09,0,0,0-9.97,0Zm4.985-6.043a2.085,2.085,0,1,0-2.085-2.085A2.09,2.09,0,0,0,58.742,16.842Zm0,11.434a9.7,9.7,0,1,1-9.7,9.7A9.7,9.7,0,0,1,58.742,28.277ZM52.85,32.991a7.684,7.684,0,0,0-1.8,4.349.989.989,0,0,1,.758-.353h.751a.991.991,0,1,1,0,1.982h-.751a.989.989,0,0,1-.758-.353,7.684,7.684,0,0,0,1.8,4.349.988.988,0,0,1,.287-.782l.533-.533a.991.991,0,0,1,1.4,1.4l-.533.533a.989.989,0,0,1-.782.287,7.684,7.684,0,0,0,4.348,1.8.989.989,0,0,1-.353-.758V44.16a.991.991,0,0,1,1.982,0v.751a.989.989,0,0,1-.353.758,7.685,7.685,0,0,0,4.349-1.8.989.989,0,0,1-.782-.287l-.533-.533a.991.991,0,0,1,1.4-1.4l.533.533a.989.989,0,0,1,.287.782,7.684,7.684,0,0,0,1.8-4.345.989.989,0,0,1-.756.35h-.753a.991.991,0,1,1,0-1.982h.753a.989.989,0,0,1,.756.35,7.684,7.684,0,0,0-1.8-4.345.989.989,0,0,1-.287.782l-.533.533a.991.991,0,0,1-1.4-1.4l.533-.533a.989.989,0,0,1,.782-.287,7.685,7.685,0,0,0-4.349-1.8.989.989,0,0,1,.353.758v.751a.991.991,0,1,1-1.982,0v-.751a.989.989,0,0,1,.353-.758,7.684,7.684,0,0,0-4.348,1.8.989.989,0,0,1,.782.287l.533.533a.991.991,0,0,1-1.4,1.4l-.533-.533A.988.988,0,0,1,52.85,32.991Zm4.9,1.692a.991.991,0,1,1,1.982,0V37.4l1.706.985a.991.991,0,1,1-.991,1.717l-2.2-1.271a.991.991,0,0,1-.5-.858Zm.991,33.98a9.7,9.7,0,1,1,9.7-9.7A9.721,9.721,0,0,1,58.742,68.662Zm0-1.982a7.718,7.718,0,1,0-7.718-7.718,7.735,7.735,0,0,0,7.718,7.718Zm-.991-12.862v-.369a.991.991,0,1,1,1.982,0v.358a3.563,3.563,0,0,1,2.486,2.123.991.991,0,0,1-1.827.768,1.807,1.807,0,0,0-2.374-.889,1.1,1.1,0,0,0-.79,1.054.908.908,0,0,0,.6.776,3.966,3.966,0,0,0,1.083.313c1.609.263,3.361,1.014,3.6,2.927h0c.222,1.84-1.218,2.932-2.772,3.252v.341a.991.991,0,0,1-1.982,0v-.355a3.538,3.538,0,0,1-2.764-2.575.991.991,0,1,1,1.923-.479,1.787,1.787,0,0,0,1.922,1.185,2.545,2.545,0,0,0,1.347-.381.761.761,0,0,0,.359-.749,1.122,1.122,0,0,0-.753-.883,4.8,4.8,0,0,0-1.195-.327h0c-1.579-.26-3.248-1.071-3.34-2.948h0a3.015,3.015,0,0,1,2.044-2.994,3.869,3.869,0,0,1,.458-.148Z" fill-rule="evenodd"/>
    </g>
  </g>
</svg>
