<svg xmlns="http://www.w3.org/2000/svg" xmlns:xlink="http://www.w3.org/1999/xlink" width="113" height="113" viewBox="0 0 113 113">
  <defs>
    <filter id="Trazado_982547" x="0" y="0" width="113" height="113" filterUnits="userSpaceOnUse">
      <feOffset dy="3" input="SourceAlpha"/>
      <feGaussianBlur stdDeviation="3" result="blur"/>
      <feFlood flood-opacity="0.161"/>
      <feComposite operator="in" in2="blur"/>
      <feComposite in="SourceGraphic"/>
    </filter>
  </defs>
  <g id="Grupo_1207737" data-name="Grupo 1207737" transform="translate(-743.203 -3611.488)">
    <g id="Grupo_1207520" data-name="Grupo 1207520" transform="translate(0 2975.416)">
      <g id="Grupo_1202450" data-name="Grupo 1202450" transform="translate(0 -677.451)">
        <g id="Grupo_1202353" data-name="Grupo 1202353" transform="translate(472.203 443.108)">
          <g id="Grupo_1174813" data-name="Grupo 1174813" transform="translate(280 876.414)">
            <g id="Grupo_1201680" data-name="Grupo 1201680">
              <g id="Grupo_1201330" data-name="Grupo 1201330">
                <g id="Grupo_1172010" data-name="Grupo 1172010">
                  <g id="Grupo_1171046" data-name="Grupo 1171046">
                    <g id="Grupo_1148525" data-name="Grupo 1148525">
                      <g transform="matrix(1, 0, 0, 1, -9, -6)" filter="url(#Trazado_982547)">
                        <g id="Trazado_982547-2" data-name="Trazado 982547" transform="translate(9 6)" fill="#fff4e6">
                          <path d="M 47.5 93.5 C 41.28937149047852 93.5 35.26533508300781 92.28397369384766 29.59518623352051 89.88570404052734 C 24.11771965026855 87.56893157958984 19.19813346862793 84.25196075439453 14.97309303283691 80.02691650390625 C 10.74804019927979 75.80186462402344 7.431066513061523 70.88229370117188 5.114293098449707 65.40481567382812 C 2.716026782989502 59.73468017578125 1.5 53.71062850952148 1.5 47.5 C 1.5 41.28937149047852 2.716026782989502 35.26533508300781 5.114293098449707 29.59518623352051 C 7.431066513061523 24.11771965026855 10.74804019927979 19.19813346862793 14.97309303283691 14.97309303283691 C 19.19813346862793 10.74804019927979 24.11771965026855 7.431066513061523 29.59518623352051 5.114293098449707 C 35.26533508300781 2.716026782989502 41.28937149047852 1.5 47.5 1.5 C 53.71062850952148 1.5 59.73468017578125 2.716026782989502 65.40481567382812 5.114293098449707 C 70.88229370117188 7.431066513061523 75.80186462402344 10.74804019927979 80.02691650390625 14.97309303283691 C 84.25196075439453 19.19813346862793 87.56893157958984 24.11771965026855 89.88570404052734 29.59518623352051 C 92.28397369384766 35.26533508300781 93.5 41.28937149047852 93.5 47.5 C 93.5 53.71062850952148 92.28397369384766 59.73468017578125 89.88570404052734 65.40481567382812 C 87.56893157958984 70.88229370117188 84.25196075439453 75.80186462402344 80.02691650390625 80.02691650390625 C 75.80186462402344 84.25196075439453 70.88229370117188 87.56893157958984 65.40481567382812 89.88570404052734 C 59.73468017578125 92.28397369384766 53.71062850952148 93.5 47.5 93.5 Z" stroke="none"/>
                          <path d="M 47.5 3 C 41.49121475219727 3 35.66376876831055 4.176155090332031 30.17950439453125 6.495796203613281 C 24.88084411621094 8.736953735351562 20.12152099609375 11.94598388671875 16.03375244140625 16.03375244140625 C 11.94598388671875 20.12152099609375 8.736953735351562 24.88084411621094 6.495796203613281 30.17950439453125 C 4.176155090332031 35.66376876831055 3 41.49121475219727 3 47.5 C 3 53.50878524780273 4.176155090332031 59.33623123168945 6.495796203613281 64.82049560546875 C 8.736953735351562 70.11915588378906 11.94598388671875 74.87847900390625 16.03375244140625 78.96624755859375 C 20.12152099609375 83.05401611328125 24.88084411621094 86.26304626464844 30.17950439453125 88.50419616699219 C 35.66376876831055 90.82384490966797 41.49121475219727 92 47.5 92 C 53.50878524780273 92 59.33623123168945 90.82384490966797 64.82049560546875 88.50419616699219 C 70.11915588378906 86.26304626464844 74.87847900390625 83.05401611328125 78.96624755859375 78.96624755859375 C 83.05401611328125 74.87847900390625 86.26304626464844 70.11915588378906 88.50419616699219 64.82049560546875 C 90.82384490966797 59.33623123168945 92 53.50878524780273 92 47.5 C 92 41.49121475219727 90.82384490966797 35.66376876831055 88.50419616699219 30.17950439453125 C 86.26304626464844 24.88084411621094 83.05401611328125 20.12152099609375 78.96624755859375 16.03375244140625 C 74.87847900390625 11.94598388671875 70.11915588378906 8.736953735351562 64.82049560546875 6.495796203613281 C 59.33623123168945 4.176155090332031 53.50878524780273 3 47.5 3 M 47.5 0 C 73.7335205078125 0 95 21.2664794921875 95 47.5 C 95 73.7335205078125 73.7335205078125 95 47.5 95 C 21.2664794921875 95 0 73.7335205078125 0 47.5 C 0 21.2664794921875 21.2664794921875 0 47.5 0 Z" stroke="none" fill="#ff9d1c"/>
                        </g>
                      </g>
                    </g>
                  </g>
                </g>
              </g>
            </g>
          </g>
        </g>
      </g>
    </g>
    <g id="business-plan_11476636" transform="translate(722.536 3624.253)">
      <g id="Grupo_1207736" data-name="Grupo 1207736" transform="translate(50.441 9.087)">
        <g id="Grupo_1207734" data-name="Grupo 1207734" transform="translate(0 0)">
          <path id="Trazado_1052964" data-name="Trazado 1052964" d="M97.679,50.429a2.464,2.464,0,0,1,2.459,2.459V98.14a2.464,2.464,0,0,1-2.459,2.459H59.805a2.464,2.464,0,0,1-2.459-2.459V52.888a2.464,2.464,0,0,1,2.459-2.459Z" transform="translate(-57.346 -45.745)" fill="#837683" fill-rule="evenodd"/>
          <path id="Trazado_1052965" data-name="Trazado 1052965" d="M330.515,100.6h3.174a2.464,2.464,0,0,0,2.459-2.459V52.888a2.464,2.464,0,0,0-2.459-2.459h-3.174Z" transform="translate(-293.356 -45.745)" fill="#685e68" fill-rule="evenodd"/>
          <path id="Trazado_1052966" data-name="Trazado 1052966" d="M117.341,75.579H83.6A1.108,1.108,0,0,0,82.5,76.685V117.8a1.108,1.108,0,0,0,1.106,1.106h33.738a1.108,1.108,0,0,0,1.106-1.106V76.685a1.108,1.108,0,0,0-1.106-1.106Z" transform="translate(-79.076 -67.474)" fill="#eceff1" fill-rule="evenodd"/>
          <path id="Trazado_1052967" data-name="Trazado 1052967" d="M330.515,118.907h1.106q.052,0,.1,0a1.109,1.109,0,0,0,1-1.1V76.685a1.108,1.108,0,0,0-1-1.1q-.051,0-.1,0h-1.106Z" transform="translate(-293.356 -67.474)" fill="#d1d1d6" fill-rule="evenodd"/>
          <path id="Trazado_1052968" data-name="Trazado 1052968" d="M146.137,19.2h3.505a1.086,1.086,0,0,0,1.016-.668,4.182,4.182,0,0,1,7.683,0,1.086,1.086,0,0,0,1.016.668h3.505a1.108,1.108,0,0,1,1.106,1.106v4.183a1.108,1.108,0,0,1-1.106,1.106H146.137a1.108,1.108,0,0,1-1.106-1.106V20.3A1.108,1.108,0,0,1,146.137,19.2Z" transform="translate(-133.103 -15.998)" fill="#e3a76f" fill-rule="evenodd"/>
          <path id="Trazado_1052969" data-name="Trazado 1052969" d="M161.755,44.789H145.03a1.108,1.108,0,0,0,1.106,1.106h16.725a1.108,1.108,0,0,0,1.106-1.106V40.607a1.108,1.108,0,0,0-1.106-1.106v4.182a1.108,1.108,0,0,1-1.106,1.106Z" transform="translate(-133.102 -36.304)" fill="#c48958" fill-rule="evenodd"/>
          <path id="Trazado_1052970" data-name="Trazado 1052970" d="M118.075,310.381h6.193a.811.811,0,0,1,.808.808v6.193a.811.811,0,0,1-.808.808h-6.193a.811.811,0,0,1-.808-.808v-6.193A.811.811,0,0,1,118.075,310.381Z" transform="translate(-109.116 -270.336)" fill="#ffe177" fill-rule="evenodd"/>
          <path id="Trazado_1052971" data-name="Trazado 1052971" d="M158.734,310.381h1.36a.811.811,0,0,1,.808.808v6.193a.811.811,0,0,1-.808.808h-1.36a.811.811,0,0,0,.808-.808v-6.193A.811.811,0,0,0,158.734,310.381Z" transform="translate(-144.942 -270.336)" fill="#ffd064" fill-rule="evenodd"/>
          <path id="Trazado_1052972" data-name="Trazado 1052972" d="M118.075,218.28h6.193a.811.811,0,0,1,.808.808v6.193a.811.811,0,0,1-.808.808h-6.193a.811.811,0,0,1-.808-.808v-6.193A.811.811,0,0,1,118.075,218.28Z" transform="translate(-109.116 -190.764)" fill="#6cf5c2" fill-rule="evenodd"/>
          <path id="Trazado_1052973" data-name="Trazado 1052973" d="M158.734,218.28h1.36a.811.811,0,0,1,.808.808v6.193a.811.811,0,0,1-.808.808h-1.36a.811.811,0,0,0,.808-.808v-6.193A.811.811,0,0,0,158.734,218.28Z" transform="translate(-144.942 -190.764)" fill="#00e499" fill-rule="evenodd"/>
          <path id="Trazado_1052974" data-name="Trazado 1052974" d="M244.8,104.032h-2.216a.409.409,0,0,0-.408.408v11.232a.409.409,0,0,0,.408.408H244.8a.409.409,0,0,0,.408-.408V104.44A.409.409,0,0,0,244.8,104.032Z" transform="translate(-217.036 -92.057)" fill="#6cf5c2" fill-rule="evenodd"/>
          <path id="Trazado_1052975" data-name="Trazado 1052975" d="M252.831,104.032h-1.36a.409.409,0,0,1,.408.408v11.232a.409.409,0,0,1-.408.408h1.36a.409.409,0,0,0,.408-.408V104.44A.409.409,0,0,0,252.831,104.032Z" transform="translate(-225.064 -92.057)" fill="#00e499" fill-rule="evenodd"/>
          <path id="Trazado_1052976" data-name="Trazado 1052976" d="M203.41,127.428h-2.216a.409.409,0,0,0-.408.408v8.049a.409.409,0,0,0,.408.408h2.216a.409.409,0,0,0,.408-.408v-8.049a.409.409,0,0,0-.408-.408Z" transform="translate(-181.274 -112.27)" fill="#ffe177" fill-rule="evenodd"/>
          <path id="Trazado_1052977" data-name="Trazado 1052977" d="M211.438,127.428h-1.36a.409.409,0,0,1,.408.408v8.049a.409.409,0,0,1-.408.408h1.36a.409.409,0,0,0,.408-.408v-8.049a.409.409,0,0,0-.408-.408Z" transform="translate(-189.302 -112.27)" fill="#ffd064" fill-rule="evenodd"/>
          <path id="Trazado_1052978" data-name="Trazado 1052978" d="M159.8,149.835h2.216a.409.409,0,0,1,.408.408v5a.409.409,0,0,1-.408.408H159.8a.409.409,0,0,1-.408-.408v-5A.409.409,0,0,1,159.8,149.835Z" transform="translate(-145.512 -131.629)" fill="#fe646f" fill-rule="evenodd"/>
          <path id="Trazado_1052979" data-name="Trazado 1052979" d="M168.685,149.835h1.36a.409.409,0,0,1,.408.408v5a.409.409,0,0,1-.408.408h-1.36a.409.409,0,0,0,.408-.408v-5A.409.409,0,0,0,168.685,149.835Z" transform="translate(-153.54 -131.629)" fill="#fd4755" fill-rule="evenodd"/>
        </g>
        <g id="Grupo_1207735" data-name="Grupo 1207735" transform="translate(24.873 36.124)">
          <path id="Trazado_1052980" data-name="Trazado 1052980" d="M257.686,283.976a12.449,12.449,0,0,1,3.645,1.511l2.369-1.052,2.792,2.792-1.052,2.368a12.451,12.451,0,0,1,1.511,3.646l2.416.93v3.948l-2.417.93a12.444,12.444,0,0,1-1.511,3.645l1.052,2.369-2.791,2.792-2.368-1.052a12.448,12.448,0,0,1-3.646,1.511l-.93,2.416h-3.948l-.93-2.417a12.444,12.444,0,0,1-3.645-1.511l-2.369,1.052-2.792-2.791,1.052-2.368a12.446,12.446,0,0,1-1.511-3.646l-2.416-.93V294.17l2.417-.93a12.448,12.448,0,0,1,1.511-3.645l-1.052-2.368,2.791-2.792,2.369,1.052a12.448,12.448,0,0,1,3.645-1.511l.93-2.417h3.948Z" transform="translate(-240.196 -281.559)" fill="#ffe177" fill-rule="evenodd"/>
          <path id="Trazado_1052981" data-name="Trazado 1052981" d="M281.912,306.8l-2.369,1.052-.365-.365,2.221-.986Q281.653,306.657,281.912,306.8Zm9.453-22.826a12.449,12.449,0,0,1,3.645,1.511l-.673.3a16.419,16.419,0,0,0-4.158-1.81l-.93-2.417h1.186Zm3.646,22.826a12.446,12.446,0,0,1-3.646,1.511l-.93,2.416H289.25l.93-2.416a16.415,16.415,0,0,0,4.158-1.81Zm-15.832-22,.365-.365,2.369,1.052q-.26.143-.513.3Zm17.379,0,.821-.365,2.792,2.792-1.052,2.368a12.45,12.45,0,0,1,1.511,3.646l2.416.93v3.948l-2.417.93a12.445,12.445,0,0,1-1.511,3.645l1.052,2.369-2.792,2.792-.821-.365,2.427-2.427-1.052-2.369a12.453,12.453,0,0,0,1.511-3.645l2.417-.93v-3.948l-2.416-.93a12.446,12.446,0,0,0-1.511-3.646l1.052-2.368Z" transform="translate(-273.876 -281.557)" fill="#ffd064" fill-rule="evenodd"/>
          <ellipse id="Elipse_13460" data-name="Elipse 13460" cx="7.895" cy="7.895" rx="7.895" ry="7.895" transform="translate(4.812 9.191) rotate(-16.26)" fill="#eceff1"/>
          <path id="Trazado_1052982" data-name="Trazado 1052982" d="M297.273,330.741a7.9,7.9,0,0,0,0,15.79q.317,0,.628-.025a7.9,7.9,0,0,1,0-15.741Q297.59,330.741,297.273,330.741Z" transform="translate(-282.688 -324.05)" fill="#d1d1d6" fill-rule="evenodd"/>
        </g>
      </g>
      <path id="Trazado_1052983" data-name="Trazado 1052983" d="M96.708,59.8A6.807,6.807,0,1,0,89.9,66.6,6.815,6.815,0,0,0,96.708,59.8Zm2.176,0A8.983,8.983,0,1,1,89.9,50.813,8.994,8.994,0,0,1,98.884,59.8ZM103.4,58.57v2.454l-1.72.661a1.086,1.086,0,0,0-.667.765,11.377,11.377,0,0,1-1.38,3.326,1.091,1.091,0,0,0-.068,1.012l.748,1.686-1.735,1.736-1.685-.75a1.09,1.09,0,0,0-1.012.068,11.263,11.263,0,0,1-3.328,1.379,1.089,1.089,0,0,0-.763.668l-.661,1.719H88.674l-.662-1.719a1.087,1.087,0,0,0-.763-.668,11.341,11.341,0,0,1-3.326-1.379,1.09,1.09,0,0,0-1.012-.068l-1.685.75-1.736-1.736.748-1.684a1.085,1.085,0,0,0-.067-1.012,11.351,11.351,0,0,1-1.379-3.327,1.088,1.088,0,0,0-.668-.765L76.4,61.024V58.57l1.719-.661a1.089,1.089,0,0,0,.668-.763,11.324,11.324,0,0,1,1.379-3.327,1.089,1.089,0,0,0,.069-1.012l-.75-1.686,1.736-1.734,1.685.748a1.089,1.089,0,0,0,1.012-.068,11.35,11.35,0,0,1,3.326-1.379,1.086,1.086,0,0,0,.763-.667l.662-1.721h2.454l.661,1.721a1.086,1.086,0,0,0,.764.667,11.386,11.386,0,0,1,3.326,1.379,1.09,1.09,0,0,0,1.012.068l1.685-.748,1.735,1.734-.748,1.686a1.091,1.091,0,0,0,.068,1.012,11.348,11.348,0,0,1,1.38,3.327,1.088,1.088,0,0,0,.668.763ZM52.9,62.853H75.1l-.173-.067a1.09,1.09,0,0,1-.7-1.016v-.162H53.863a1.088,1.088,0,0,1-1.088-1.088V17.192A1.088,1.088,0,0,1,53.863,16.1h7.418V14.859H52.9A1.373,1.373,0,0,0,51.53,16.23V61.482A1.373,1.373,0,0,0,52.9,62.853ZM63.458,17.591V13.372h4.316a1.089,1.089,0,0,0,1.058-.832,3.093,3.093,0,0,1,6.012,0,1.087,1.087,0,0,0,1.057.832h4.316v4.218ZM88.725,44.123h-.8a1.089,1.089,0,0,0-1.016.7l-.729,1.9a13.482,13.482,0,0,0-2.9,1.2l-1.858-.826a1.089,1.089,0,0,0-1.211.226l-2.4,2.4H71.337a1.088,1.088,0,1,0,0,2.176h6.116l.57,1.281q-.274.49-.5,1H71.337a1.088,1.088,0,1,0,0,2.176h4.769l-1.181.456a1.087,1.087,0,0,0-.7,1.015v1.61H54.952V18.28h6.329v.4a1.088,1.088,0,0,0,1.089,1.088H81.307a1.088,1.088,0,0,0,1.088-1.088v-.4h6.331V44.123ZM82.394,14.859V16.1h7.419A1.089,1.089,0,0,1,90.9,17.192V44.123h.973a1.077,1.077,0,0,1,.272.038V16.23a1.372,1.372,0,0,0-1.371-1.371Zm23.18,42.964v3.948a1.09,1.09,0,0,1-.7,1.016l-1.9.729a13.444,13.444,0,0,1-1.2,2.9l.824,1.858a1.084,1.084,0,0,1-.224,1.211l-2.792,2.791a1.088,1.088,0,0,1-1.21.226l-1.859-.826a13.5,13.5,0,0,1-2.9,1.2l-.73,1.895a1.086,1.086,0,0,1-1.015.7H87.927a1.089,1.089,0,0,1-1.016-.7l-.729-1.9a13.469,13.469,0,0,1-2.9-1.2l-1.858.826a1.09,1.09,0,0,1-1.211-.226l-2.791-2.791a1.089,1.089,0,0,1-.226-1.211l.826-1.858a13.266,13.266,0,0,1-.674-1.385H52.9a3.552,3.552,0,0,1-3.548-3.548V16.23A3.552,3.552,0,0,1,52.9,12.683h8.379v-.4A1.088,1.088,0,0,1,62.37,11.2h4.622a5.273,5.273,0,0,1,9.694,0h4.621a1.087,1.087,0,0,1,1.088,1.088v.4h8.381a3.551,3.551,0,0,1,3.547,3.548V46.938a13.64,13.64,0,0,1,2.2.981l1.859-.826a1.088,1.088,0,0,1,1.21.226l2.792,2.791a1.085,1.085,0,0,1,.224,1.211l-.824,1.858a13.524,13.524,0,0,1,1.2,2.9l1.9.731A1.087,1.087,0,0,1,105.574,57.823Zm-40.163-25.8v-3.64h.857v3.64Zm5.632,0V25.333H71.9v6.689Zm5.63,0h.856V22.15h-.856ZM72.984,34.2H62.838a1.088,1.088,0,1,1,0-2.176h.4V27.294a1.089,1.089,0,0,1,1.089-1.088h3.033a1.089,1.089,0,0,1,1.089,1.088v4.728h.422V24.245a1.088,1.088,0,0,1,1.088-1.088h3.032a1.088,1.088,0,0,1,1.089,1.088v7.777H74.5V21.062a1.089,1.089,0,0,1,1.089-1.088h3.032a1.089,1.089,0,0,1,1.089,1.088v10.96h1.133a1.088,1.088,0,0,1,0,2.176H72.984ZM61.439,42.475l-1.358-1.358a1.088,1.088,0,0,1,1.539-1.538l.5.5L63.3,38.626A1.089,1.089,0,0,1,64.991,40L63.053,42.39a1.086,1.086,0,0,1-.789.4h-.057A1.083,1.083,0,0,1,61.439,42.475Zm3.876-4.783v5.633H59.682V37.692Zm2.176-.28v6.193a1.9,1.9,0,0,1-1.9,1.9H59.4a1.9,1.9,0,0,1-1.9-1.9V37.412a1.9,1.9,0,0,1,1.9-1.9h6.192A1.9,1.9,0,0,1,67.491,37.412ZM61.439,55l-1.358-1.356a1.088,1.088,0,0,1,1.539-1.54l.5.5L63.3,51.155a1.089,1.089,0,0,1,1.692,1.37l-1.937,2.394a1.085,1.085,0,0,1-.789.4h-.057A1.083,1.083,0,0,1,61.439,55Zm3.876-4.783v5.633H59.682V50.22Zm2.176-.279v6.192a1.9,1.9,0,0,1-1.9,1.9H59.4a1.9,1.9,0,0,1-1.9-1.9V49.941a1.9,1.9,0,0,1,1.9-1.9h6.192A1.9,1.9,0,0,1,67.491,49.941ZM85.084,37.193a1.088,1.088,0,0,1,0,2.176H71.337a1.088,1.088,0,1,1,0-2.176Zm0,4.455a1.088,1.088,0,0,1,0,2.177H71.337a1.088,1.088,0,1,1,0-2.177ZM70.733,12.515a1.106,1.106,0,1,0,1.106-1.106A1.108,1.108,0,0,0,70.733,12.515Z" transform="translate(0 0)" fill="#242222" fill-rule="evenodd"/>
    </g>
  </g>
</svg>
