<svg xmlns="http://www.w3.org/2000/svg" xmlns:xlink="http://www.w3.org/1999/xlink" width="113" height="113" viewBox="0 0 113 113">
  <defs>
    <filter id="Trazado_982547" x="0" y="0" width="113" height="113" filterUnits="userSpaceOnUse">
      <feOffset dy="3" input="SourceAlpha"/>
      <feGaussianBlur stdDeviation="3" result="blur"/>
      <feFlood flood-opacity="0.161"/>
      <feComposite operator="in" in2="blur"/>
      <feComposite in="SourceGraphic"/>
    </filter>
  </defs>
  <g id="Grupo_1207739" data-name="Grupo 1207739" transform="translate(-1167.406 -3611.488)">
    <g id="Grupo_1207521" data-name="Grupo 1207521" transform="translate(0 2975.416)">
      <g id="Grupo_1202477" data-name="Grupo 1202477" transform="translate(0 -677.451)">
        <g id="Grupo_1202354" data-name="Grupo 1202354" transform="translate(896.406 443.108)">
          <g id="Grupo_1174813" data-name="Grupo 1174813" transform="translate(280 876.414)">
            <g id="Grupo_1201680" data-name="Grupo 1201680">
              <g id="Grupo_1201330" data-name="Grupo 1201330">
                <g id="Grupo_1172010" data-name="Grupo 1172010">
                  <g id="Grupo_1171046" data-name="Grupo 1171046">
                    <g id="Grupo_1148525" data-name="Grupo 1148525">
                      <g transform="matrix(1, 0, 0, 1, -9, -6)" filter="url(#Trazado_982547)">
                        <g id="Trazado_982547-2" data-name="Trazado 982547" transform="translate(9 6)" fill="#fff4e6">
                          <path d="M 47.5 93.5 C 41.28937149047852 93.5 35.26533508300781 92.28397369384766 29.59518623352051 89.88570404052734 C 24.11771965026855 87.56893157958984 19.19813346862793 84.25196075439453 14.97309303283691 80.02691650390625 C 10.74804019927979 75.80186462402344 7.431066513061523 70.88229370117188 5.114293098449707 65.40481567382812 C 2.716026782989502 59.73468017578125 1.5 53.71062850952148 1.5 47.5 C 1.5 41.28937149047852 2.716026782989502 35.26533508300781 5.114293098449707 29.59518623352051 C 7.431066513061523 24.11771965026855 10.74804019927979 19.19813346862793 14.97309303283691 14.97309303283691 C 19.19813346862793 10.74804019927979 24.11771965026855 7.431066513061523 29.59518623352051 5.114293098449707 C 35.26533508300781 2.716026782989502 41.28937149047852 1.5 47.5 1.5 C 53.71062850952148 1.5 59.73468017578125 2.716026782989502 65.40481567382812 5.114293098449707 C 70.88229370117188 7.431066513061523 75.80186462402344 10.74804019927979 80.02691650390625 14.97309303283691 C 84.25196075439453 19.19813346862793 87.56893157958984 24.11771965026855 89.88570404052734 29.59518623352051 C 92.28397369384766 35.26533508300781 93.5 41.28937149047852 93.5 47.5 C 93.5 53.71062850952148 92.28397369384766 59.73468017578125 89.88570404052734 65.40481567382812 C 87.56893157958984 70.88229370117188 84.25196075439453 75.80186462402344 80.02691650390625 80.02691650390625 C 75.80186462402344 84.25196075439453 70.88229370117188 87.56893157958984 65.40481567382812 89.88570404052734 C 59.73468017578125 92.28397369384766 53.71062850952148 93.5 47.5 93.5 Z" stroke="none"/>
                          <path d="M 47.5 3 C 41.49121475219727 3 35.66376876831055 4.176155090332031 30.17950439453125 6.495796203613281 C 24.88084411621094 8.736953735351562 20.12152099609375 11.94598388671875 16.03375244140625 16.03375244140625 C 11.94598388671875 20.12152099609375 8.736953735351562 24.88084411621094 6.495796203613281 30.17950439453125 C 4.176155090332031 35.66376876831055 3 41.49121475219727 3 47.5 C 3 53.50878524780273 4.176155090332031 59.33623123168945 6.495796203613281 64.82049560546875 C 8.736953735351562 70.11915588378906 11.94598388671875 74.87847900390625 16.03375244140625 78.96624755859375 C 20.12152099609375 83.05401611328125 24.88084411621094 86.26304626464844 30.17950439453125 88.50419616699219 C 35.66376876831055 90.82384490966797 41.49121475219727 92 47.5 92 C 53.50878524780273 92 59.33623123168945 90.82384490966797 64.82049560546875 88.50419616699219 C 70.11915588378906 86.26304626464844 74.87847900390625 83.05401611328125 78.96624755859375 78.96624755859375 C 83.05401611328125 74.87847900390625 86.26304626464844 70.11915588378906 88.50419616699219 64.82049560546875 C 90.82384490966797 59.33623123168945 92 53.50878524780273 92 47.5 C 92 41.49121475219727 90.82384490966797 35.66376876831055 88.50419616699219 30.17950439453125 C 86.26304626464844 24.88084411621094 83.05401611328125 20.12152099609375 78.96624755859375 16.03375244140625 C 74.87847900390625 11.94598388671875 70.11915588378906 8.736953735351562 64.82049560546875 6.495796203613281 C 59.33623123168945 4.176155090332031 53.50878524780273 3 47.5 3 M 47.5 0 C 73.7335205078125 0 95 21.2664794921875 95 47.5 C 95 73.7335205078125 73.7335205078125 95 47.5 95 C 21.2664794921875 95 0 73.7335205078125 0 47.5 C 0 21.2664794921875 21.2664794921875 0 47.5 0 Z" stroke="none" fill="#ff9d1c"/>
                        </g>
                      </g>
                    </g>
                  </g>
                </g>
              </g>
            </g>
          </g>
        </g>
      </g>
    </g>
    <g id="research_1728466" transform="translate(1193.989 3635.08)">
      <path id="Trazado_1052984" data-name="Trazado 1052984" d="M28,72H73.855a3.987,3.987,0,0,1,3.987,3.987v30.9a2.99,2.99,0,0,1-2.991,2.991H27a2.991,2.991,0,0,1-2.991-2.991v-30.9A3.988,3.988,0,0,1,28,72Zm0,0" transform="translate(-21.009 -63.028)" fill="#348fd9"/>
      <path id="Trazado_1052985" data-name="Trazado 1052985" d="M107.874,15.975,99.9,8H68a3.988,3.988,0,0,0-3.987,3.987V54.853h43.862Zm0,0" transform="translate(-56.025 -7.003)" fill="#60d1e0"/>
      <path id="Trazado_1052986" data-name="Trazado 1052986" d="M218.946,108.008,190.9,142.4h28.052Zm0,0" transform="translate(-167.098 -94.549)" fill="#5ac6d4"/>
      <path id="Trazado_1052987" data-name="Trazado 1052987" d="M96.012,32h1.994v1.994H96.012Zm0,0" transform="translate(-84.038 -28.013)" fill="#3fb7c7"/>
      <path id="Trazado_1052988" data-name="Trazado 1052988" d="M128.012,32h1.994v1.994h-1.994Zm0,0" transform="translate(-112.05 -28.013)" fill="#3fb7c7"/>
      <path id="Trazado_1052989" data-name="Trazado 1052989" d="M160.012,32h1.994v1.994h-1.994Zm0,0" transform="translate(-140.063 -28.013)" fill="#3fb7c7"/>
      <path id="Trazado_1052990" data-name="Trazado 1052990" d="M96.012,64h28.909v1.994H96.012Zm0,0" transform="translate(-84.038 -56.025)" fill="#3fb7c7"/>
      <path id="Trazado_1052991" data-name="Trazado 1052991" d="M64.012,344h43.862v4.984H64.012Zm0,0" transform="translate(-56.025 -301.135)" fill="#5ac6d4"/>
      <path id="Trazado_1052992" data-name="Trazado 1052992" d="M42.9,361a3.4,3.4,0,0,1-2.407,1H33.346a3.4,3.4,0,0,1-2.407-1,3.4,3.4,0,0,0-2.407-1H8.011v2.991A2.991,2.991,0,0,0,11,365.981H62.839a2.99,2.99,0,0,0,2.991-2.991V360H45.308a3.4,3.4,0,0,0-2.407,1Zm0,0" transform="translate(-7.003 -315.141)" fill="#e0e0de"/>
      <path id="Trazado_1052993" data-name="Trazado 1052993" d="M416.012,107.887V72h1a3.964,3.964,0,0,1,1,.141v35.747Zm0,0" transform="translate(-364.163 -63.028)" fill="#2d7dbf"/>
      <path id="Trazado_1052994" data-name="Trazado 1052994" d="M24.012,344H29v1.994H24.012Zm0,0" transform="translate(-21.009 -301.135)" fill="#2d7dbf"/>
      <path id="Trazado_1052995" data-name="Trazado 1052995" d="M416.012,344H421v1.994h-4.984Zm0,0" transform="translate(-364.163 -301.135)" fill="#2d7dbf"/>
      <path id="Trazado_1052996" data-name="Trazado 1052996" d="M247.765,145.777l-7.754,7.753,7.754,7.753a10.965,10.965,0,0,0,0-15.507Zm0,0" transform="translate(-210.094 -127.612)" fill="#7eb457"/>
      <path id="Trazado_1052997" data-name="Trazado 1052997" d="M185.543,208l-7.753,7.753a10.965,10.965,0,0,0,15.507,0Zm0,0" transform="translate(-155.625 -182.081)" fill="#f35244"/>
      <path id="Trazado_1052998" data-name="Trazado 1052998" d="M162.978,120a10.965,10.965,0,0,0-10.966,10.966h10.966l7.754-7.753A10.929,10.929,0,0,0,162.978,120Zm0,0" transform="translate(-133.06 -105.047)" fill="#ffb531"/>
      <path id="Trazado_1052999" data-name="Trazado 1052999" d="M152.012,208a10.928,10.928,0,0,0,3.212,7.753L162.977,208Zm0,0" transform="translate(-133.06 -182.081)" fill="#348fd9"/>
      <g id="Grupo_1207738" data-name="Grupo 1207738" transform="translate(11.974 13.956)">
        <path id="Trazado_1053000" data-name="Trazado 1053000" d="M96.012,112h6.978v1.994H96.012Zm0,0" transform="translate(-96.012 -112)" fill="#3fb7c7"/>
        <path id="Trazado_1053001" data-name="Trazado 1053001" d="M96.012,144h1.994v1.994H96.012Zm0,0" transform="translate(-96.012 -140.013)" fill="#3fb7c7"/>
        <path id="Trazado_1053002" data-name="Trazado 1053002" d="M128.012,144h1.994v1.994h-1.994Zm0,0" transform="translate(-124.024 -140.013)" fill="#3fb7c7"/>
        <path id="Trazado_1053003" data-name="Trazado 1053003" d="M336.012,112h5.981v1.994h-5.981Zm0,0" transform="translate(-306.106 -112)" fill="#3fb7c7"/>
        <path id="Trazado_1053004" data-name="Trazado 1053004" d="M344.012,144H349v1.994h-4.984Zm0,0" transform="translate(-313.109 -140.013)" fill="#3fb7c7"/>
        <path id="Trazado_1053005" data-name="Trazado 1053005" d="M96.012,256H101v1.994H96.012Zm0,0" transform="translate(-96.012 -238.056)" fill="#3fb7c7"/>
        <path id="Trazado_1053006" data-name="Trazado 1053006" d="M96.012,288h6.978v1.994H96.012Zm0,0" transform="translate(-96.012 -266.069)" fill="#3fb7c7"/>
      </g>
      <path id="Trazado_1053007" data-name="Trazado 1053007" d="M255.937,243.962A11.962,11.962,0,1,1,243.974,232,11.962,11.962,0,0,1,255.937,243.962Zm0,0" transform="translate(-203.091 -203.091)" fill="#ffb531"/>
      <path id="Trazado_1053008" data-name="Trazado 1053008" d="M393.288,390.285l-7.509-7.508a11.984,11.984,0,0,1-2.991,2.991l7.509,7.508a2.115,2.115,0,0,0,2.991-2.991Zm0,0" transform="translate(-335.08 -335.08)" fill="#ffb531"/>
      <path id="Trazado_1053009" data-name="Trazado 1053009" d="M279.962,271.975A7.975,7.975,0,1,1,271.987,264,7.975,7.975,0,0,1,279.962,271.975Zm0,0" transform="translate(-231.104 -231.103)" fill="#48add9"/>
      <path id="Trazado_1053010" data-name="Trazado 1053010" d="M291.974,285.981A5.981,5.981,0,1,1,285.993,280,5.981,5.981,0,0,1,291.974,285.981Zm0,0" transform="translate(-245.11 -245.11)" fill="#4db7e5"/>
      <path id="Trazado_1053011" data-name="Trazado 1053011" d="M290.006,292.984h-1.994A4.991,4.991,0,0,1,293,288v1.994A2.991,2.991,0,0,0,290.006,292.984Zm0,0" transform="translate(-252.113 -252.113)" fill="#79c6e8"/>
      <path id="Trazado_1053012" data-name="Trazado 1053012" d="M354.006,15.975h5.981L352.012,8v5.981A1.994,1.994,0,0,0,354.006,15.975Zm0,0" transform="translate(-308.138 -7.003)" fill="#9fe4ed"/>
      <path id="Trazado_1053013" data-name="Trazado 1053013" d="M387.773,384.771l-1.994-1.994a11.983,11.983,0,0,1-2.991,2.991l1.994,1.994A11.983,11.983,0,0,0,387.773,384.771Zm0,0" transform="translate(-335.08 -335.08)" fill="#f7a116"/>
      <path id="Trazado_1053014" data-name="Trazado 1053014" d="M96.012,64h28.909v1.994H96.012Zm0,0" transform="translate(-84.038 -56.025)"/>
      <path id="Trazado_1053015" data-name="Trazado 1053015" d="M440.5,104.579h-1v-30.9a5,5,0,0,0-2.492-4.317l-1,1.725a3.005,3.005,0,0,1,1.5,2.592v30.9h-1v1.994H439.5v1.994a1.993,1.993,0,0,1-.665,1.488l1.33,1.487a3.992,3.992,0,0,0,1.329-2.975v-2.991A1,1,0,0,0,440.5,104.579Zm0,0" transform="translate(-381.671 -60.717)"/>
      <path id="Trazado_1053016" data-name="Trazado 1053016" d="M2.005,108.566v-1.994H21.534a2.42,2.42,0,0,1,1.694.7,4.425,4.425,0,0,0,3.11,1.289h.588v-1.994h-.588a2.421,2.421,0,0,1-1.695-.7,4.424,4.424,0,0,0-3.11-1.289H4v-30.9a3.006,3.006,0,0,1,1.5-2.592l-1-1.725a5,5,0,0,0-2.492,4.317v30.9h-1a1,1,0,0,0-1,1v2.991A3.988,3.988,0,0,0,4,112.554H29.918V110.56H4a1.994,1.994,0,0,1-1.994-1.994Zm0,0" transform="translate(0 -60.717)"/>
      <path id="Trazado_1053017" data-name="Trazado 1053017" d="M58.005,4.984A2.991,2.991,0,0,1,61,1.994H91.9V6.978A2.991,2.991,0,0,0,94.89,9.969h4.984V29.906h1.994V8.972c0-.024-.012-.046-.014-.07a1.037,1.037,0,0,0-.048-.243.854.854,0,0,0-.037-.1,1.023,1.023,0,0,0-.184-.274l-.009-.014L93.6.3h0A.994.994,0,0,0,93.309.1c-.03-.014-.061-.022-.092-.033a1,1,0,0,0-.264-.053A.152.152,0,0,0,92.9,0H61a4.991,4.991,0,0,0-4.984,4.984V41.868h1.994ZM94.89,7.975a1,1,0,0,1-1-1V3.4l4.571,4.572Zm0,0" transform="translate(-49.022)"/>
      <path id="Trazado_1053018" data-name="Trazado 1053018" d="M96.012,32h1.994v1.994H96.012Zm0,0" transform="translate(-84.038 -28.013)"/>
      <path id="Trazado_1053019" data-name="Trazado 1053019" d="M128.012,32h1.994v1.994h-1.994Zm0,0" transform="translate(-112.05 -28.013)"/>
      <path id="Trazado_1053020" data-name="Trazado 1053020" d="M160.012,32h1.994v1.994h-1.994Zm0,0" transform="translate(-140.063 -28.013)"/>
      <path id="Trazado_1053021" data-name="Trazado 1053021" d="M165.849,123.884h1.994a11.884,11.884,0,0,0-3.5-8.46l-.013-.008a11.963,11.963,0,0,0-16.921,16.916l.009.013a11.874,11.874,0,0,0,4.111,2.692l.724-1.858a9.908,9.908,0,0,1-2.686-1.57l6.315-6.314,2.286,2.286,1.41-1.41-2.286-2.286,6.311-6.311a9.9,9.9,0,0,1,2.248,6.311Zm-17.017-7.049a9.969,9.969,0,0,1,13.358-.67l-6.722,6.722h-9.507a9.891,9.891,0,0,1,2.871-6.052Zm4.642,8.046-5.313,5.312a9.868,9.868,0,0,1-2.2-5.312Zm0,0" transform="translate(-125.963 -97.965)"/>
      <path id="Trazado_1053022" data-name="Trazado 1053022" d="M96.012,112h6.978v1.994H96.012Zm0,0" transform="translate(-84.038 -98.044)"/>
      <path id="Trazado_1053023" data-name="Trazado 1053023" d="M96.012,144h1.994v1.994H96.012Zm0,0" transform="translate(-84.038 -126.056)"/>
      <path id="Trazado_1053024" data-name="Trazado 1053024" d="M128.012,144h1.994v1.994h-1.994Zm0,0" transform="translate(-112.05 -126.056)"/>
      <path id="Trazado_1053025" data-name="Trazado 1053025" d="M336.012,112h5.981v1.994h-5.981Zm0,0" transform="translate(-294.132 -98.044)"/>
      <path id="Trazado_1053026" data-name="Trazado 1053026" d="M344.012,144H349v1.994h-4.984Zm0,0" transform="translate(-301.135 -126.056)"/>
      <path id="Trazado_1053027" data-name="Trazado 1053027" d="M96.012,256H101v1.994H96.012Zm0,0" transform="translate(-84.038 -224.1)"/>
      <path id="Trazado_1053028" data-name="Trazado 1053028" d="M96.012,288h6.978v1.994H96.012Zm0,0" transform="translate(-84.038 -252.113)"/>
      <path id="Trazado_1053029" data-name="Trazado 1053029" d="M247.387,242.99a13.005,13.005,0,1,0-4.4,4.4l6.947,6.946a3.112,3.112,0,1,0,4.4-4.4Zm-22.048-6.679a10.966,10.966,0,1,1,19.7,6.606c-.1.136-.2.275-.31.4-.155.186-.321.362-.488.536-.12.127-.243.252-.369.372-.181.173-.363.344-.554.5-.127.1-.261.2-.393.3a10.945,10.945,0,0,1-17.583-8.723Zm26.8,16.947a1.111,1.111,0,0,1-.791-.327l-6.7-6.7q.421-.355.809-.742l.037-.04c.256-.257.5-.521.733-.8l6.705,6.7a1.118,1.118,0,0,1-.79,1.907Zm0,0" transform="translate(-195.421 -195.439)"/>
      <path id="Trazado_1053030" data-name="Trazado 1053030" d="M273.956,264.972a8.972,8.972,0,1,0-8.972,8.972A8.972,8.972,0,0,0,273.956,264.972Zm-8.972,6.978a6.978,6.978,0,1,1,6.978-6.978A6.978,6.978,0,0,1,264.984,271.95Zm0,0" transform="translate(-224.1 -224.1)"/>
      <path id="Trazado_1053031" data-name="Trazado 1053031" d="M288.012,292.984h1.994A2.991,2.991,0,0,1,293,289.994V288A4.991,4.991,0,0,0,288.012,292.984Zm0,0" transform="translate(-252.113 -252.113)"/>
    </g>
  </g>
</svg>
