<svg xmlns="http://www.w3.org/2000/svg" xmlns:xlink="http://www.w3.org/1999/xlink" width="103" height="103" viewBox="0 0 103 103">
  <defs>
    <filter id="Trazado_982547" x="0" y="0" width="103" height="103" filterUnits="userSpaceOnUse">
      <feOffset dy="3" input="SourceAlpha"/>
      <feGaussianBlur stdDeviation="3" result="blur"/>
      <feFlood flood-opacity="0.161"/>
      <feComposite operator="in" in2="blur"/>
      <feComposite in="SourceGraphic"/>
    </filter>
  </defs>
  <g id="Grupo_1207749" data-name="Grupo 1207749" transform="translate(-191 -4315.098)">
    <g id="Grupo_1207522" data-name="Grupo 1207522" transform="translate(0 651.598)">
      <g id="Grupo_1207313" data-name="Grupo 1207313" transform="translate(0 2919.5)">
        <g id="Grupo_1202212" data-name="Grupo 1202212" transform="translate(-80 -126.414)">
          <g id="Grupo_1174813" data-name="Grupo 1174813" transform="translate(280 876.414)">
            <g id="Grupo_1201680" data-name="Grupo 1201680">
              <g id="Grupo_1201330" data-name="Grupo 1201330">
                <g id="Grupo_1172010" data-name="Grupo 1172010">
                  <g id="Grupo_1171046" data-name="Grupo 1171046">
                    <g id="Grupo_1148525" data-name="Grupo 1148525">
                      <g transform="matrix(1, 0, 0, 1, -9, -6)" filter="url(#Trazado_982547)">
                        <g id="Trazado_982547-2" data-name="Trazado 982547" transform="translate(9 6)" fill="#f2f7e5">
                          <path d="M 42.5 83.5 C 36.96437835693359 83.5 31.59512901306152 82.41617584228516 26.54141235351562 80.27863311767578 C 21.65934181213379 78.21369171142578 17.27447128295898 75.25723266601562 13.50862312316895 71.49137878417969 C 9.742764472961426 67.72553253173828 6.786305904388428 63.34066009521484 4.721364498138428 58.45858764648438 C 2.583823442459106 53.40486907958984 1.5 48.03562164306641 1.5 42.5 C 1.5 36.96437835693359 2.583823442459106 31.59512901306152 4.721364498138428 26.54141235351562 C 6.786305904388428 21.65934181213379 9.742764472961426 17.27448272705078 13.50862312316895 13.50862312316895 C 17.27447128295898 9.742776870727539 21.65934181213379 6.786305904388428 26.54141235351562 4.721364498138428 C 31.59512901306152 2.583823442459106 36.96437835693359 1.5 42.5 1.5 C 48.03562164306641 1.5 53.40486907958984 2.583823442459106 58.45858764648438 4.721364498138428 C 63.34066009521484 6.786305904388428 67.72553253173828 9.742776870727539 71.49137878417969 13.50862312316895 C 75.25723266601562 17.27448272705078 78.21369171142578 21.65934181213379 80.27863311767578 26.54141235351562 C 82.41617584228516 31.59512901306152 83.5 36.96437835693359 83.5 42.5 C 83.5 48.03562164306641 82.41617584228516 53.40486907958984 80.27863311767578 58.45858764648438 C 78.21369171142578 63.34066009521484 75.25723266601562 67.72553253173828 71.49137878417969 71.49137878417969 C 67.72553253173828 75.25723266601562 63.34066009521484 78.21369171142578 58.45858764648438 80.27863311767578 C 53.40486907958984 82.41617584228516 48.03562164306641 83.5 42.5 83.5 Z" stroke="none"/>
                          <path d="M 42.5 3 C 37.16621398925781 3 31.99356079101562 4.043960571289062 27.125732421875 6.102882385253906 C 22.42246627807617 8.092185974121094 18.19785308837891 10.94070434570312 14.56928253173828 14.56928253173828 C 10.94070434570312 18.19785308837891 8.092185974121094 22.42246627807617 6.102882385253906 27.125732421875 C 4.043960571289062 31.99356079101562 3 37.16621398925781 3 42.5 C 3 47.83378601074219 4.043960571289062 53.00643920898438 6.102882385253906 57.874267578125 C 8.092185974121094 62.57753372192383 10.94070434570312 66.80214691162109 14.56928253173828 70.43071746826172 C 18.19785308837891 74.05929565429688 22.42246627807617 76.90781402587891 27.125732421875 78.89711761474609 C 31.99356079101562 80.95603942871094 37.16621398925781 82 42.5 82 C 47.83378601074219 82 53.00643920898438 80.95603942871094 57.874267578125 78.89711761474609 C 62.57753372192383 76.90781402587891 66.80214691162109 74.05929565429688 70.43071746826172 70.43071746826172 C 74.05929565429688 66.80214691162109 76.90781402587891 62.57753372192383 78.89711761474609 57.874267578125 C 80.95603942871094 53.00643920898438 82 47.83378601074219 82 42.5 C 82 37.16621398925781 80.95603942871094 31.99356079101562 78.89711761474609 27.125732421875 C 76.90781402587891 22.42246627807617 74.05929565429688 18.19785308837891 70.43071746826172 14.56928253173828 C 66.80214691162109 10.94070434570312 62.57753372192383 8.092185974121094 57.874267578125 6.102882385253906 C 53.00643920898438 4.043960571289062 47.83378601074219 3 42.5 3 M 42.5 0 C 65.97210693359375 0 85 19.02789306640625 85 42.5 C 85 65.97210693359375 65.97210693359375 85 42.5 85 C 19.02789306640625 85 0 65.97210693359375 0 42.5 C 0 19.02789306640625 19.02789306640625 0 42.5 0 Z" stroke="none" fill="#496406"/>
                        </g>
                      </g>
                    </g>
                  </g>
                </g>
              </g>
            </g>
          </g>
        </g>
      </g>
    </g>
    <g id="psychology_9071757" transform="translate(154.357 4327.517)">
      <g id="Grupo_1207740" data-name="Grupo 1207740" transform="translate(64.069 7.5)">
        <path id="Trazado_1053032" data-name="Trazado 1053032" d="M212.438,284.19l4.386,25.339H187.577l4.58-25.339Z" transform="translate(-173.372 -252.367)" fill="#fed2a4"/>
        <path id="Trazado_1053033" data-name="Trazado 1053033" d="M220.355,284.19H200.073l-3.551,19.646a19.692,19.692,0,0,0,14.953-7.656l1.189-1.541a23.333,23.333,0,0,0,8.631-5.013Z" transform="translate(-181.288 -252.367)" fill="#ffbd86"/>
        <path id="Trazado_1053034" data-name="Trazado 1053034" d="M108.221,27.455a19.955,19.955,0,1,0-39.909.191v1.9A8.9,8.9,0,0,1,67.173,33.9L64.258,39.1a1.411,1.411,0,0,0-.16.418,1.345,1.345,0,0,0,.98,1.565l3.235.842-.534,1.646a.749.749,0,0,0,.31.863l.7.445a.75.75,0,0,1,.126,1.162.749.749,0,0,0-.1.937l.633.976a.749.749,0,0,1,.121.408v3.147A3.991,3.991,0,0,0,73.556,55.5h5.1A16.213,16.213,0,0,0,91.5,49.185l1.083-1.4A4.109,4.109,0,0,1,94.551,46.4,19.963,19.963,0,0,0,108.221,27.455Z" transform="translate(-64.072 -7.5)" fill="#ffe5c2"/>
        <path id="Trazado_1053035" data-name="Trazado 1053035" d="M145.922,70.226a19.965,19.965,0,0,1-11.4,28.2,4.109,4.109,0,0,0-1.969,1.382l-1.083,1.4a16.213,16.213,0,0,1-12.838,6.311h-5.1a3.975,3.975,0,0,1-1.664-.363,3.99,3.99,0,0,0,3.987,3.849h5.1A16.213,16.213,0,0,0,133.8,104.7l1.083-1.4a4.109,4.109,0,0,1,1.969-1.382,19.959,19.959,0,0,0,9.074-31.684Z" transform="translate(-106.369 -63.012)" fill="#fed2a4"/>
      </g>
      <path id="Trazado_1053036" data-name="Trazado 1053036" d="M161.317,39.734l2.381-2.446a.929.929,0,0,1,1.567.42l.839,3.309a.929.929,0,0,0,1.154.666l3.285-.928A.929.929,0,0,1,171.69,41.9l-.928,3.285a.929.929,0,0,0,.666,1.154l3.309.839a.929.929,0,0,1,.42,1.567l-2.446,2.381a.929.929,0,0,0,0,1.332l2.446,2.381a.929.929,0,0,1-.42,1.567l-3.309.839a.929.929,0,0,0-.666,1.154l.928,3.285a.929.929,0,0,1-1.147,1.147l-3.285-.928a.929.929,0,0,0-1.154.666l-.839,3.309a.929.929,0,0,1-1.567.42l-2.381-2.446a.929.929,0,0,0-1.332,0L157.6,66.3a.929.929,0,0,1-1.567-.42L155.2,62.57a.929.929,0,0,0-1.154-.666l-3.285.928a.929.929,0,0,1-1.147-1.147l.928-3.285a.929.929,0,0,0-.666-1.154l-3.309-.839a.929.929,0,0,1-.42-1.567l2.446-2.381a.929.929,0,0,0,0-1.332l-2.446-2.381a.93.93,0,0,1,.42-1.567l3.309-.839a.929.929,0,0,0,.666-1.154l-.928-3.285a.929.929,0,0,1,1.147-1.147l3.285.928a.929.929,0,0,0,1.154-.666l.839-3.309a.929.929,0,0,1,1.567-.42l2.381,2.446A.929.929,0,0,0,161.317,39.734Z" transform="translate(-72.387 -26.112)" fill="#fe646f"/>
      <path id="Trazado_1053037" data-name="Trazado 1053037" d="M201.276,81.027a.929.929,0,0,1,0-1.332l2.446-2.381a.93.93,0,0,0-.42-1.567l-3.309-.839a.929.929,0,0,1-.666-1.154l.928-3.285a.929.929,0,0,0-1.147-1.147l-1.219.345a15.622,15.622,0,0,1-19.367,19.367l-.345,1.219a.929.929,0,0,0,1.147,1.147l3.285-.928a.93.93,0,0,1,1.154.666l.839,3.309a.93.93,0,0,0,1.567.42l2.381-2.446a.929.929,0,0,1,1.332,0l2.381,2.446a.93.93,0,0,0,1.567-.42l.839-3.309a.929.929,0,0,1,1.154-.666l3.285.928a.929.929,0,0,0,1.147-1.147l-.928-3.285a.929.929,0,0,1,.666-1.154l3.309-.839a.93.93,0,0,0,.42-1.567Z" transform="translate(-100.952 -54.68)" fill="#fd4755"/>
      <path id="Trazado_1053038" data-name="Trazado 1053038" d="M198.922,101.771a.37.37,0,0,1-.545-.147,3.946,3.946,0,0,0-3.568-2.254q-.157,0-.314.013a.369.369,0,0,1-.4-.4,3.945,3.945,0,0,0-2.242-3.884.37.37,0,0,1-.146-.545,3.945,3.945,0,0,0,0-4.484.37.37,0,0,1,.146-.545,3.945,3.945,0,0,0,2.242-3.884.369.369,0,0,1,.4-.4q.156.012.314.013a3.946,3.946,0,0,0,3.567-2.254.37.37,0,0,1,.545-.147,3.945,3.945,0,0,0,4.481,0,.37.37,0,0,1,.545.147,3.946,3.946,0,0,0,3.567,2.254q.157,0,.314-.013a.369.369,0,0,1,.4.4,3.945,3.945,0,0,0,2.242,3.884.37.37,0,0,1,.146.545,3.945,3.945,0,0,0,0,4.484.37.37,0,0,1-.146.545,3.945,3.945,0,0,0-2.242,3.884.369.369,0,0,1-.4.4q-.156-.012-.314-.013a3.947,3.947,0,0,0-3.568,2.254.37.37,0,0,1-.545.147,3.944,3.944,0,0,0-4.481,0Z" transform="translate(-112.899 -66.634)" fill="#fed402"/>
      <path id="Trazado_1053039" data-name="Trazado 1053039" d="M254.038,137.969a3.945,3.945,0,0,1,0-4.484.37.37,0,0,0-.146-.545,3.988,3.988,0,0,1-1.383-1.093A15.632,15.632,0,0,1,240.7,143.654a3.942,3.942,0,0,1,1.094,1.382.37.37,0,0,0,.545.147,3.945,3.945,0,0,1,4.481,0,.37.37,0,0,0,.545-.147,3.947,3.947,0,0,1,3.568-2.254q.157,0,.314.013a.369.369,0,0,0,.4-.4,3.945,3.945,0,0,1,2.242-3.884A.37.37,0,0,0,254.038,137.969Z" transform="translate(-156.318 -110.045)" fill="#e8b800"/>
      <g id="Grupo_1207744" data-name="Grupo 1207744" transform="translate(86.753 19.846)">
        <g id="Grupo_1207743" data-name="Grupo 1207743" transform="translate(0)">
          <g id="Grupo_1207742" data-name="Grupo 1207742">
            <g id="Grupo_1207741" data-name="Grupo 1207741">
              <path id="Trazado_1053040" data-name="Trazado 1053040" d="M262.813,123.477a1.51,1.51,0,0,1-1.51-1.51v-5.61a1.51,1.51,0,1,1,3.021,0v5.61A1.51,1.51,0,0,1,262.813,123.477Z" transform="translate(-261.303 -114.846)" fill="#f2fbff"/>
            </g>
          </g>
        </g>
      </g>
      <circle id="Elipse_13461" data-name="Elipse 13461" cx="1.51" cy="1.51" r="1.51" transform="translate(86.753 28.477)" fill="#f2fbff"/>
      <path id="Trazado_1053041" data-name="Trazado 1053041" d="M77.927,55.5h.731A16.211,16.211,0,0,0,91.5,49.185l1.083-1.4A4.107,4.107,0,0,1,94.548,46.4,19.956,19.956,0,1,0,68.309,27.646v1.9A8.9,8.9,0,0,1,67.171,33.9L64.254,39.1a1.427,1.427,0,0,0-.16.417,1.346,1.346,0,0,0,.98,1.565l3.235.842-.535,1.646a.752.752,0,0,0,.309.864l.7.444a.75.75,0,0,1,.127,1.163.748.748,0,0,0-.1.937l.633.975a.754.754,0,0,1,.12.407v3.148a3.991,3.991,0,0,0,3.991,3.99H73.9" transform="translate(0 0)" fill="none" stroke="#000" stroke-linecap="round" stroke-linejoin="round" stroke-miterlimit="10" stroke-width="1"/>
      <line id="Línea_1345" data-name="Línea 1345" y1="9.217" x2="1.666" transform="translate(78.273 55.445)" fill="none" stroke="#000" stroke-linecap="round" stroke-linejoin="round" stroke-miterlimit="10" stroke-width="1"/>
      <line id="Línea_1346" data-name="Línea 1346" x1="1.902" y1="10.987" transform="translate(105.619 53.675)" fill="none" stroke="#000" stroke-linecap="round" stroke-linejoin="round" stroke-miterlimit="10" stroke-width="1"/>
      <line id="Línea_1347" data-name="Línea 1347" x1="1.591" y1="9.187" transform="translate(103.343 40.522)" fill="none" stroke="#000" stroke-linecap="round" stroke-linejoin="round" stroke-miterlimit="10" stroke-width="1"/>
      <path id="Trazado_1053042" data-name="Trazado 1053042" d="M198.922,101.771a.37.37,0,0,1-.545-.147,3.946,3.946,0,0,0-3.568-2.254q-.157,0-.314.013a.369.369,0,0,1-.4-.4,3.945,3.945,0,0,0-2.242-3.884.37.37,0,0,1-.146-.545,3.945,3.945,0,0,0,0-4.484.37.37,0,0,1,.146-.545,3.945,3.945,0,0,0,2.242-3.884.369.369,0,0,1,.4-.4q.156.012.314.013a3.946,3.946,0,0,0,3.567-2.254.37.37,0,0,1,.545-.147,3.945,3.945,0,0,0,4.481,0,.37.37,0,0,1,.545.147,3.946,3.946,0,0,0,3.567,2.254q.157,0,.314-.013a.369.369,0,0,1,.4.4,3.945,3.945,0,0,0,2.242,3.884.37.37,0,0,1,.146.545,3.945,3.945,0,0,0,0,4.484.37.37,0,0,1-.146.545,3.945,3.945,0,0,0-2.242,3.884.369.369,0,0,1-.4.4q-.156-.012-.314-.013a3.947,3.947,0,0,0-3.568,2.254.37.37,0,0,1-.545.147,3.944,3.944,0,0,0-4.481,0Z" transform="translate(-112.899 -66.634)" fill="none" stroke="#000" stroke-linecap="round" stroke-linejoin="round" stroke-miterlimit="10" stroke-width="1"/>
      <path id="Trazado_1053043" data-name="Trazado 1053043" d="M154.27,41.719a.927.927,0,0,0,.926-.7l.84-3.309a.929.929,0,0,1,1.566-.42l2.381,2.446a.93.93,0,0,0,1.333,0L163.7,37.29a.929.929,0,0,1,1.566.42l.838,3.309a.93.93,0,0,0,1.155.666l3.285-.928a.929.929,0,0,1,1.147,1.147l-.928,3.286a.931.931,0,0,0,.666,1.154l3.31.838a.93.93,0,0,1,.42,1.568l-2.446,2.381a.929.929,0,0,0,0,1.332l2.446,2.381a.931.931,0,0,1-.42,1.568l-3.31.838a.931.931,0,0,0-.666,1.154l.928,3.285a.93.93,0,0,1-1.147,1.148l-3.285-.928a.93.93,0,0,0-1.155.666l-.838,3.309a.929.929,0,0,1-1.566.42l-2.381-2.446a.93.93,0,0,0-1.333,0L157.6,66.3a.929.929,0,0,1-1.566-.42l-.84-3.309a.928.928,0,0,0-1.154-.666l-3.285.928a.93.93,0,0,1-1.147-1.148l.927-3.285a.929.929,0,0,0-.666-1.154l-3.309-.838a.93.93,0,0,1-.42-1.568l2.446-2.381a.929.929,0,0,0,0-1.332l-2.446-2.381a.93.93,0,0,1,.42-1.568l3.309-.838a.929.929,0,0,0,.666-1.154l-.927-3.286a.93.93,0,0,1,.757-1.173" transform="translate(-72.385 -26.114)" fill="none" stroke="#000" stroke-linecap="round" stroke-linejoin="round" stroke-miterlimit="10" stroke-width="1"/>
      <g id="Grupo_1207748" data-name="Grupo 1207748" transform="translate(86.753 19.846)">
        <g id="Grupo_1207747" data-name="Grupo 1207747" transform="translate(0)">
          <g id="Grupo_1207746" data-name="Grupo 1207746">
            <g id="Grupo_1207745" data-name="Grupo 1207745">
              <path id="Trazado_1053044" data-name="Trazado 1053044" d="M262.813,123.477a1.51,1.51,0,0,1-1.51-1.51v-5.61a1.51,1.51,0,1,1,3.021,0v5.61A1.51,1.51,0,0,1,262.813,123.477Z" transform="translate(-261.303 -114.846)" fill="none" stroke="#000" stroke-linecap="round" stroke-linejoin="round" stroke-miterlimit="10" stroke-width="1"/>
            </g>
          </g>
        </g>
      </g>
      <circle id="Elipse_13462" data-name="Elipse 13462" cx="1.51" cy="1.51" r="1.51" transform="translate(86.753 28.477)" fill="none" stroke="#000" stroke-linecap="round" stroke-linejoin="round" stroke-miterlimit="10" stroke-width="1"/>
    </g>
  </g>
</svg>
