<svg xmlns="http://www.w3.org/2000/svg" xmlns:xlink="http://www.w3.org/1999/xlink" width="103" height="103" viewBox="0 0 103 103">
  <defs>
    <filter id="Trazado_982547" x="0" y="0" width="103" height="103" filterUnits="userSpaceOnUse">
      <feOffset dy="3" input="SourceAlpha"/>
      <feGaussianBlur stdDeviation="3" result="blur"/>
      <feFlood flood-opacity="0.161"/>
      <feComposite operator="in" in2="blur"/>
      <feComposite in="SourceGraphic"/>
    </filter>
  </defs>
  <g id="Grupo_1207759" data-name="Grupo 1207759" transform="translate(-611 -4315.098)">
    <g id="Grupo_1207523" data-name="Grupo 1207523" transform="translate(0 651.598)">
      <g id="Grupo_1207315" data-name="Grupo 1207315" transform="translate(0 2919.5)">
        <g id="Grupo_1202210" data-name="Grupo 1202210" transform="translate(340 -126.414)">
          <g id="Grupo_1174813" data-name="Grupo 1174813" transform="translate(280 876.414)">
            <g id="Grupo_1201680" data-name="Grupo 1201680">
              <g id="Grupo_1201330" data-name="Grupo 1201330">
                <g id="Grupo_1172010" data-name="Grupo 1172010">
                  <g id="Grupo_1171046" data-name="Grupo 1171046">
                    <g id="Grupo_1148525" data-name="Grupo 1148525">
                      <g transform="matrix(1, 0, 0, 1, -9, -6)" filter="url(#Trazado_982547)">
                        <g id="Trazado_982547-2" data-name="Trazado 982547" transform="translate(9 6)" fill="#f2f7e5">
                          <path d="M 42.5 83.5 C 36.96437835693359 83.5 31.59512901306152 82.41617584228516 26.54141235351562 80.27863311767578 C 21.65934181213379 78.21369171142578 17.27447128295898 75.25723266601562 13.50862312316895 71.49137878417969 C 9.742764472961426 67.72553253173828 6.786305904388428 63.34066009521484 4.721364498138428 58.45858764648438 C 2.583823442459106 53.40486907958984 1.5 48.03562164306641 1.5 42.5 C 1.5 36.96437835693359 2.583823442459106 31.59512901306152 4.721364498138428 26.54141235351562 C 6.786305904388428 21.65934181213379 9.742764472961426 17.27448272705078 13.50862312316895 13.50862312316895 C 17.27447128295898 9.742776870727539 21.65934181213379 6.786305904388428 26.54141235351562 4.721364498138428 C 31.59512901306152 2.583823442459106 36.96437835693359 1.5 42.5 1.5 C 48.03562164306641 1.5 53.40486907958984 2.583823442459106 58.45858764648438 4.721364498138428 C 63.34066009521484 6.786305904388428 67.72553253173828 9.742776870727539 71.49137878417969 13.50862312316895 C 75.25723266601562 17.27448272705078 78.21369171142578 21.65934181213379 80.27863311767578 26.54141235351562 C 82.41617584228516 31.59512901306152 83.5 36.96437835693359 83.5 42.5 C 83.5 48.03562164306641 82.41617584228516 53.40486907958984 80.27863311767578 58.45858764648438 C 78.21369171142578 63.34066009521484 75.25723266601562 67.72553253173828 71.49137878417969 71.49137878417969 C 67.72553253173828 75.25723266601562 63.34066009521484 78.21369171142578 58.45858764648438 80.27863311767578 C 53.40486907958984 82.41617584228516 48.03562164306641 83.5 42.5 83.5 Z" stroke="none"/>
                          <path d="M 42.5 3 C 37.16621398925781 3 31.99356079101562 4.043960571289062 27.125732421875 6.102882385253906 C 22.42246627807617 8.092185974121094 18.19785308837891 10.94070434570312 14.56928253173828 14.56928253173828 C 10.94070434570312 18.19785308837891 8.092185974121094 22.42246627807617 6.102882385253906 27.125732421875 C 4.043960571289062 31.99356079101562 3 37.16621398925781 3 42.5 C 3 47.83378601074219 4.043960571289062 53.00643920898438 6.102882385253906 57.874267578125 C 8.092185974121094 62.57753372192383 10.94070434570312 66.80214691162109 14.56928253173828 70.43071746826172 C 18.19785308837891 74.05929565429688 22.42246627807617 76.90781402587891 27.125732421875 78.89711761474609 C 31.99356079101562 80.95603942871094 37.16621398925781 82 42.5 82 C 47.83378601074219 82 53.00643920898438 80.95603942871094 57.874267578125 78.89711761474609 C 62.57753372192383 76.90781402587891 66.80214691162109 74.05929565429688 70.43071746826172 70.43071746826172 C 74.05929565429688 66.80214691162109 76.90781402587891 62.57753372192383 78.89711761474609 57.874267578125 C 80.95603942871094 53.00643920898438 82 47.83378601074219 82 42.5 C 82 37.16621398925781 80.95603942871094 31.99356079101562 78.89711761474609 27.125732421875 C 76.90781402587891 22.42246627807617 74.05929565429688 18.19785308837891 70.43071746826172 14.56928253173828 C 66.80214691162109 10.94070434570312 62.57753372192383 8.092185974121094 57.874267578125 6.102882385253906 C 53.00643920898438 4.043960571289062 47.83378601074219 3 42.5 3 M 42.5 0 C 65.97210693359375 0 85 19.02789306640625 85 42.5 C 85 65.97210693359375 65.97210693359375 85 42.5 85 C 19.02789306640625 85 0 65.97210693359375 0 42.5 C 0 19.02789306640625 19.02789306640625 0 42.5 0 Z" stroke="none" fill="#496406"/>
                        </g>
                      </g>
                    </g>
                  </g>
                </g>
              </g>
            </g>
          </g>
        </g>
      </g>
    </g>
    <g id="adaptation_14245398" transform="translate(624.852 4329.843)">
      <g id="Grupo_1207758" data-name="Grupo 1207758" transform="translate(13.472 7.879)">
        <g id="Grupo_1207755" data-name="Grupo 1207755" transform="translate(0 0)">
          <g id="Grupo_1207754" data-name="Grupo 1207754">
            <g id="Grupo_1207750" data-name="Grupo 1207750">
              <circle id="Elipse_13463" data-name="Elipse 13463" cx="4.653" cy="4.653" r="4.653" transform="translate(0 0)" fill="#6cf5c2"/>
              <path id="Trazado_1053045" data-name="Trazado 1053045" d="M66.535,15.23a4.653,4.653,0,1,1,0,9.166,4.654,4.654,0,0,0,0-9.166Z" transform="translate(-62.691 -15.16)" fill="#00e499" fill-rule="evenodd"/>
            </g>
            <g id="Grupo_1207751" data-name="Grupo 1207751" transform="translate(38.394 1.237)">
              <path id="Trazado_1053046" data-name="Trazado 1053046" d="M397.29,31.009a.539.539,0,0,1,0,.539l-2.375,4.114a.54.54,0,0,1-.467.27H389.7a.539.539,0,0,1-.467-.27l-2.375-4.114a.539.539,0,0,1,0-.539l2.375-4.114a.539.539,0,0,1,.467-.27h4.75a.54.54,0,0,1,.467.27Z" transform="translate(-386.782 -26.625)" fill="#8ac9fe" fill-rule="evenodd"/>
              <path id="Trazado_1053047" data-name="Trazado 1053047" d="M442.83,26.625h1.618a.54.54,0,0,1,.467.27l2.375,4.114a.539.539,0,0,1,0,.539l-2.375,4.114a.54.54,0,0,1-.467.27H442.83a.54.54,0,0,0,.467-.27l2.375-4.114a.54.54,0,0,0,0-.539L443.3,26.895A.54.54,0,0,0,442.83,26.625Z" transform="translate(-436.783 -26.625)" fill="#60b7ff" fill-rule="evenodd"/>
            </g>
            <g id="Grupo_1207752" data-name="Grupo 1207752" transform="translate(1.08 42.834)">
              <path id="Trazado_1053048" data-name="Trazado 1053048" d="M45.26,412.468a.539.539,0,0,1,.934,0l4.305,7.457a.324.324,0,0,1-.28.485H41.235a.324.324,0,0,1-.28-.485Z" transform="translate(-40.911 -412.198)" fill="#fe646f" fill-rule="evenodd"/>
              <path id="Trazado_1053049" data-name="Trazado 1053049" d="M78.049,413.06l.342-.592a.539.539,0,0,1,.934,0l4.305,7.457a.324.324,0,0,1-.28.485H81.732a.324.324,0,0,0,.28-.485Z" transform="translate(-74.042 -412.198)" fill="#fd4755" fill-rule="evenodd"/>
            </g>
            <g id="Grupo_1207753" data-name="Grupo 1207753" transform="translate(40.476 42.295)">
              <path id="Trazado_1053050" data-name="Trazado 1053050" d="M414.635,407.2a.539.539,0,0,1,.539.539v8.013a.539.539,0,0,1-.539.539h-8.013a.539.539,0,0,1-.539-.539v-8.013a.539.539,0,0,1,.539-.539Z" transform="translate(-406.083 -407.198)" fill="#ffe177" fill-rule="evenodd"/>
              <path id="Trazado_1053051" data-name="Trazado 1053051" d="M470.355,407.2h1.618a.539.539,0,0,1,.539.539v8.013a.539.539,0,0,1-.539.539h-1.618a.539.539,0,0,0,.539-.539v-8.013A.539.539,0,0,0,470.355,407.2Z" transform="translate(-463.421 -407.198)" fill="#ffd064" fill-rule="evenodd"/>
            </g>
          </g>
        </g>
        <g id="Grupo_1207756" data-name="Grupo 1207756" transform="translate(4.996 7.755)">
          <path id="Trazado_1053052" data-name="Trazado 1053052" d="M99.607,90.139a15.922,15.922,0,0,1,4.668,1.934l3.033-1.346,3.573,3.573-1.346,3.033A15.921,15.921,0,0,1,111.469,102l3.095,1.191v5.056l-3.095,1.191a15.933,15.933,0,0,1-1.934,4.665l1.346,3.033-3.573,3.576-3.033-1.348a15.927,15.927,0,0,1-4.668,1.937L98.415,124.4H93.36L92.168,121.3a15.93,15.93,0,0,1-4.665-1.934l-3.033,1.348-3.576-3.576,1.348-3.031a15.977,15.977,0,0,1-1.937-4.668l-3.092-1.191v-5.056L80.305,102a15.926,15.926,0,0,1,1.937-4.667L80.895,94.3l3.576-3.573L87.5,92.073a15.971,15.971,0,0,1,4.668-1.934l1.191-3.095h5.056Z" transform="translate(-77.213 -87.044)" fill="#ffe177" fill-rule="evenodd"/>
          <path id="Trazado_1053053" data-name="Trazado 1053053" d="M162.559,91.18l1.019-.452,3.573,3.573-1.346,3.033A15.92,15.92,0,0,1,167.741,102l3.095,1.191v5.056l-3.095,1.191a15.933,15.933,0,0,1-1.934,4.665l1.346,3.033-3.573,3.576-1.019-.452,3.123-3.123-1.348-3.033a15.93,15.93,0,0,0,1.934-4.665l3.095-1.191v-5.056L166.269,102a15.918,15.918,0,0,0-1.934-4.668l1.348-3.033Zm-22.27,0,.452-.452,3.031,1.346c-.214.119-.426.243-.633.373Zm15.589-1.041a15.922,15.922,0,0,1,4.667,1.934l-.836.373a20.826,20.826,0,0,0-5.3-2.307l-1.191-3.095h1.471Zm-12.1,29.227-3.033,1.348-.452-.452,2.85-1.266Q143.45,119.187,143.774,119.366Zm16.771,0a15.927,15.927,0,0,1-4.668,1.937l-1.191,3.093h-1.471l1.191-3.093A20.879,20.879,0,0,0,159.711,119Z" transform="translate(-133.484 -87.044)" fill="#ffd064" fill-rule="evenodd"/>
          <path id="Trazado_1053054" data-name="Trazado 1053054" d="M160.531,159.5a10.858,10.858,0,1,1-10.857,10.859A10.859,10.859,0,0,1,160.531,159.5Z" transform="translate(-141.857 -151.688)" fill="#eceff1" fill-rule="evenodd"/>
          <path id="Trazado_1053055" data-name="Trazado 1053055" d="M160.531,159.505c.247,0,.492.009.737.027a10.858,10.858,0,0,0,0,21.666c-.245.015-.49.024-.737.024a10.858,10.858,0,0,1,0-21.716Z" transform="translate(-141.857 -151.688)" fill="#d1d1d6" fill-rule="evenodd"/>
        </g>
        <g id="Grupo_1207757" data-name="Grupo 1207757" transform="translate(13.411 16.127)">
          <path id="Trazado_1053056" data-name="Trazado 1053056" d="M165.511,185.252a10.3,10.3,0,1,1,10.3-10.3A10.324,10.324,0,0,1,165.511,185.252Z" transform="translate(-155.207 -164.645)" fill="#837683" fill-rule="evenodd"/>
          <path id="Trazado_1053057" data-name="Trazado 1053057" d="M157.04,174.949a10.3,10.3,0,0,0,9.388,10.263q-.453.04-.916.04a10.351,10.351,0,0,1-1.475-.1l-.185-.028a10.3,10.3,0,0,1,1.66-20.475q.464,0,.916.04a10.3,10.3,0,0,0-9.388,10.264Z" transform="translate(-155.207 -164.645)" fill="#685e68" fill-rule="evenodd"/>
          <path id="Trazado_1053058" data-name="Trazado 1053058" d="M192.555,271.394a7.029,7.029,0,0,1,6.986,6.271,10.059,10.059,0,0,1-13.971,0A7.026,7.026,0,0,1,192.555,271.394Z" transform="translate(-182.294 -259.877)" fill="#8ac9fe" fill-rule="evenodd"/>
          <path id="Trazado_1053059" data-name="Trazado 1053059" d="M193.449,271.451c-4.182.531-5.867,3.7-6.254,7.488a9.992,9.992,0,0,1-1.624-1.274,7.026,7.026,0,0,1,6.985-6.271,6.938,6.938,0,0,1,.894.057Z" transform="translate(-182.294 -259.877)" fill="#60b7ff" fill-rule="evenodd"/>
          <path id="Trazado_1053060" data-name="Trazado 1053060" d="M220.966,210.942a3.549,3.549,0,1,1,3.549-3.549A3.557,3.557,0,0,1,220.966,210.942Z" transform="translate(-210.704 -199.614)" fill="#f6dccd" fill-rule="evenodd"/>
          <path id="Trazado_1053061" data-name="Trazado 1053061" d="M218.319,207.392a3.551,3.551,0,0,0,3.1,3.522,3.7,3.7,0,0,1-.447.027,3.549,3.549,0,0,1,0-7.1,3.7,3.7,0,0,1,.447.027A3.551,3.551,0,0,0,218.319,207.392Z" transform="translate(-210.714 -199.614)" fill="#f1cbbc" fill-rule="evenodd"/>
        </g>
      </g>
      <path id="Trazado_1053062" data-name="Trazado 1053062" d="M16.143,22.555A24.081,24.081,0,0,0,17.18,47.716a.863.863,0,1,1-1.432.964,25.808,25.808,0,0,1-1.177-26.85L13.925,22a.863.863,0,1,1-.447-1.667l2.766-.741a.863.863,0,0,1,1.057.61l.741,2.766a.863.863,0,1,1-1.667.447l-.231-.863ZM28.671,58.667l.262.662a.863.863,0,0,1-1.6.636L26.273,57.3a.863.863,0,0,1,.484-1.12l2.662-1.055a.863.863,0,0,1,.636,1.6l-.791.314a24.11,24.11,0,0,0,20.933-2.5A.863.863,0,1,1,51.132,56a25.836,25.836,0,0,1-22.461,2.665ZM60.432,45.49l.7-.187a.863.863,0,0,1,.447,1.667l-2.766.741a.863.863,0,0,1-1.057-.61l-.741-2.766a.863.863,0,0,1,1.667-.447l.217.811a24.1,24.1,0,0,0-.81-22.354.863.863,0,0,1,1.5-.858,25.824,25.824,0,0,1,.848,24Zm-14-33.435a24.123,24.123,0,0,0-19.523.448.863.863,0,1,1-.737-1.561,25.847,25.847,0,0,1,21.2-.365l-.21-.782a.863.863,0,1,1,1.667-.447l.74,2.76a.863.863,0,0,1-.61,1.057l-2.76.74a.863.863,0,0,1-.447-1.667ZM41.607,17.7a17.041,17.041,0,0,1,4.165,1.726l2.679-1.191a.863.863,0,0,1,.961.178l3.638,3.638a.863.863,0,0,1,.179.96l-1.187,2.68a17.006,17.006,0,0,1,1.727,4.172L56.5,30.917a.863.863,0,0,1,.553.805v5.146a.863.863,0,0,1-.553.805l-2.733,1.052a17.181,17.181,0,0,1-1.727,4.165l1.188,2.681a.863.863,0,0,1-.179.96L49.413,50.17a.863.863,0,0,1-.96.179l-2.679-1.187a16.992,16.992,0,0,1-4.167,1.726l-1.052,2.733a.863.863,0,0,1-.805.553H34.6a.863.863,0,0,1-.806-.553l-1.052-2.733a17.151,17.151,0,0,1-4.171-1.727l-2.681,1.188a.863.863,0,0,1-.96-.179L21.3,46.532a.863.863,0,0,1-.178-.961l1.191-2.679a17.143,17.143,0,0,1-1.73-4.166l-2.735-1.053a.863.863,0,0,1-.553-.805V31.723a.863.863,0,0,1,.553-.805l2.734-1.052a17.16,17.16,0,0,1,1.73-4.171l-1.191-2.679a.863.863,0,0,1,.178-.961l3.638-3.638a.863.863,0,0,1,.961-.178l2.679,1.191A17.039,17.039,0,0,1,32.741,17.7L33.8,14.964a.863.863,0,0,1,.805-.552H39.75a.863.863,0,0,1,.806.554ZM40.156,18.74l-1-2.6H35.2l-1,2.6a.863.863,0,0,1-.606.529,15.318,15.318,0,0,0-4.5,1.864.863.863,0,0,1-.8.054l-2.547-1.132-2.8,2.8L24.069,25.4a.864.864,0,0,1-.054.8,15.441,15.441,0,0,0-1.87,4.506.863.863,0,0,1-.529.6l-2.6,1v3.961l2.6,1a.863.863,0,0,1,.529.6,15.415,15.415,0,0,0,1.869,4.5.863.863,0,0,1,.055.8l-1.132,2.547,2.8,2.8L28.284,47.4a.863.863,0,0,1,.8.053,15.433,15.433,0,0,0,4.505,1.865.863.863,0,0,1,.607.53l1,2.6h3.961l1-2.6a.863.863,0,0,1,.606-.53,15.262,15.262,0,0,0,4.5-1.864.863.863,0,0,1,.8-.055l2.547,1.128,2.8-2.8-1.128-2.547a.863.863,0,0,1,.053-.8,15.459,15.459,0,0,0,1.865-4.5.863.863,0,0,1,.53-.606l2.6-1V32.315l-2.6-1a.863.863,0,0,1-.53-.607,15.292,15.292,0,0,0-1.864-4.5.863.863,0,0,1-.054-.8l1.128-2.547-2.8-2.8-2.547,1.132a.863.863,0,0,1-.8-.054,15.318,15.318,0,0,0-4.5-1.864.863.863,0,0,1-.606-.53Zm-2.982,4.451a11.1,11.1,0,1,1-11.1,11.1,11.1,11.1,0,0,1,11.1-11.1Zm7.575,16.628a9.375,9.375,0,1,0-15.149,0,8.039,8.039,0,0,1,4.586-4.824,4.479,4.479,0,1,1,5.977,0,8.039,8.039,0,0,1,4.586,4.824ZM30.985,41.336a9.377,9.377,0,0,0,12.379,0,6.285,6.285,0,0,0-12.379,0Zm6.189-6.917a2.753,2.753,0,1,0-2.753-2.753,2.76,2.76,0,0,0,2.753,2.753ZM18.156,7a5.517,5.517,0,1,1-5.516,5.517A5.519,5.519,0,0,1,18.156,7Zm0,1.726a3.79,3.79,0,1,0,3.79,3.79A3.792,3.792,0,0,0,18.156,8.725Zm45.151,5.459L60.62,18.837a.863.863,0,0,1-.747.432H54.5a.863.863,0,0,1-.747-.432l-2.687-4.653a.863.863,0,0,1,0-.863l2.687-4.653a.863.863,0,0,1,.747-.432h5.373a.863.863,0,0,1,.747.432l2.687,4.653a.863.863,0,0,1,0,.863Zm-1.744-.432-2.188-3.79H55l-2.188,3.79L55,17.543h4.377ZM20.145,49.725,25.2,58.477a.863.863,0,0,1-.747,1.295H14.345a.863.863,0,0,1-.747-1.295l5.053-8.751a.863.863,0,0,1,1.495,0ZM19.4,51.883,15.84,58.045h7.116Zm44.535-1.726v9.092a.863.863,0,0,1-.863.863H53.978a.863.863,0,0,1-.863-.863V50.157a.863.863,0,0,1,.863-.863H63.07A.863.863,0,0,1,63.933,50.157Zm-1.726.863H54.841v7.365h7.365Z" fill-rule="evenodd"/>
    </g>
  </g>
</svg>
