<svg xmlns="http://www.w3.org/2000/svg" xmlns:xlink="http://www.w3.org/1999/xlink" width="103" height="103" viewBox="0 0 103 103">
  <defs>
    <filter id="Trazado_982547" x="0" y="0" width="103" height="103" filterUnits="userSpaceOnUse">
      <feOffset dy="3" input="SourceAlpha"/>
      <feGaussianBlur stdDeviation="3" result="blur"/>
      <feFlood flood-opacity="0.161"/>
      <feComposite operator="in" in2="blur"/>
      <feComposite in="SourceGraphic"/>
    </filter>
  </defs>
  <g id="Grupo_1207760" data-name="Grupo 1207760" transform="translate(-1031 -4315.098)">
    <g id="Grupo_1207524" data-name="Grupo 1207524" transform="translate(0 651.598)">
      <g id="Grupo_1207317" data-name="Grupo 1207317" transform="translate(0 2919.5)">
        <g id="Grupo_1202211" data-name="Grupo 1202211" transform="translate(760 -126.414)">
          <g id="Grupo_1174813" data-name="Grupo 1174813" transform="translate(280 876.414)">
            <g id="Grupo_1201680" data-name="Grupo 1201680">
              <g id="Grupo_1201330" data-name="Grupo 1201330">
                <g id="Grupo_1172010" data-name="Grupo 1172010">
                  <g id="Grupo_1171046" data-name="Grupo 1171046">
                    <g id="Grupo_1148525" data-name="Grupo 1148525">
                      <g transform="matrix(1, 0, 0, 1, -9, -6)" filter="url(#Trazado_982547)">
                        <g id="Trazado_982547-2" data-name="Trazado 982547" transform="translate(9 6)" fill="#f2f7e5">
                          <path d="M 42.5 83.5 C 36.96437835693359 83.5 31.59512901306152 82.41617584228516 26.54141235351562 80.27863311767578 C 21.65934181213379 78.21369171142578 17.27447128295898 75.25723266601562 13.50862312316895 71.49137878417969 C 9.742764472961426 67.72553253173828 6.786305904388428 63.34066009521484 4.721364498138428 58.45858764648438 C 2.583823442459106 53.40486907958984 1.5 48.03562164306641 1.5 42.5 C 1.5 36.96437835693359 2.583823442459106 31.59512901306152 4.721364498138428 26.54141235351562 C 6.786305904388428 21.65934181213379 9.742764472961426 17.27448272705078 13.50862312316895 13.50862312316895 C 17.27447128295898 9.742776870727539 21.65934181213379 6.786305904388428 26.54141235351562 4.721364498138428 C 31.59512901306152 2.583823442459106 36.96437835693359 1.5 42.5 1.5 C 48.03562164306641 1.5 53.40486907958984 2.583823442459106 58.45858764648438 4.721364498138428 C 63.34066009521484 6.786305904388428 67.72553253173828 9.742776870727539 71.49137878417969 13.50862312316895 C 75.25723266601562 17.27448272705078 78.21369171142578 21.65934181213379 80.27863311767578 26.54141235351562 C 82.41617584228516 31.59512901306152 83.5 36.96437835693359 83.5 42.5 C 83.5 48.03562164306641 82.41617584228516 53.40486907958984 80.27863311767578 58.45858764648438 C 78.21369171142578 63.34066009521484 75.25723266601562 67.72553253173828 71.49137878417969 71.49137878417969 C 67.72553253173828 75.25723266601562 63.34066009521484 78.21369171142578 58.45858764648438 80.27863311767578 C 53.40486907958984 82.41617584228516 48.03562164306641 83.5 42.5 83.5 Z" stroke="none"/>
                          <path d="M 42.5 3 C 37.16621398925781 3 31.99356079101562 4.043960571289062 27.125732421875 6.102882385253906 C 22.42246627807617 8.092185974121094 18.19785308837891 10.94070434570312 14.56928253173828 14.56928253173828 C 10.94070434570312 18.19785308837891 8.092185974121094 22.42246627807617 6.102882385253906 27.125732421875 C 4.043960571289062 31.99356079101562 3 37.16621398925781 3 42.5 C 3 47.83378601074219 4.043960571289062 53.00643920898438 6.102882385253906 57.874267578125 C 8.092185974121094 62.57753372192383 10.94070434570312 66.80214691162109 14.56928253173828 70.43071746826172 C 18.19785308837891 74.05929565429688 22.42246627807617 76.90781402587891 27.125732421875 78.89711761474609 C 31.99356079101562 80.95603942871094 37.16621398925781 82 42.5 82 C 47.83378601074219 82 53.00643920898438 80.95603942871094 57.874267578125 78.89711761474609 C 62.57753372192383 76.90781402587891 66.80214691162109 74.05929565429688 70.43071746826172 70.43071746826172 C 74.05929565429688 66.80214691162109 76.90781402587891 62.57753372192383 78.89711761474609 57.874267578125 C 80.95603942871094 53.00643920898438 82 47.83378601074219 82 42.5 C 82 37.16621398925781 80.95603942871094 31.99356079101562 78.89711761474609 27.125732421875 C 76.90781402587891 22.42246627807617 74.05929565429688 18.19785308837891 70.43071746826172 14.56928253173828 C 66.80214691162109 10.94070434570312 62.57753372192383 8.092185974121094 57.874267578125 6.102882385253906 C 53.00643920898438 4.043960571289062 47.83378601074219 3 42.5 3 M 42.5 0 C 65.97210693359375 0 85 19.02789306640625 85 42.5 C 85 65.97210693359375 65.97210693359375 85 42.5 85 C 19.02789306640625 85 0 65.97210693359375 0 42.5 C 0 19.02789306640625 19.02789306640625 0 42.5 0 Z" stroke="none" fill="#496406"/>
                        </g>
                      </g>
                    </g>
                  </g>
                </g>
              </g>
            </g>
          </g>
        </g>
      </g>
    </g>
    <g id="avatars_1731336" transform="translate(1056.331 4337.429)">
      <path id="Trazado_1053063" data-name="Trazado 1053063" d="M264,184h3.377v5.065H264Zm0,0" transform="translate(-236.143 -164.584)" fill="#958573"/>
      <path id="Trazado_1053064" data-name="Trazado 1053064" d="M264,184h1.688v5.065H264Zm0,0" transform="translate(-236.143 -164.584)" fill="#c7b299"/>
      <path id="Trazado_1053065" data-name="Trazado 1053065" d="M232,168h3.377v6.753H232Zm0,0" transform="translate(-207.52 -150.273)" fill="#534741"/>
      <path id="Trazado_1053066" data-name="Trazado 1053066" d="M232,168h1.688v6.753H232Zm0,0" transform="translate(-207.52 -150.273)" fill="#736357"/>
      <path id="Trazado_1053067" data-name="Trazado 1053067" d="M200,152h3.377v8.442H200Zm0,0" transform="translate(-178.896 -135.961)" fill="#958573"/>
      <path id="Trazado_1053068" data-name="Trazado 1053068" d="M200,152h1.688v8.442H200Zm0,0" transform="translate(-178.896 -135.961)" fill="#c7b299"/>
      <path id="Trazado_1053069" data-name="Trazado 1053069" d="M26.571,373.506H8v-4.221a9.286,9.286,0,0,1,18.571,0Zm0,0" transform="translate(-7.156 -322.013)" fill="#007f76"/>
      <path id="Trazado_1053070" data-name="Trazado 1053070" d="M16.019,360.91A9.28,9.28,0,0,0,8,370.1v4.221H24.039V370.1a9.28,9.28,0,0,0-8.019-9.19Zm0,0" transform="translate(-7.156 -322.827)" fill="#00a99d"/>
      <path id="Trazado_1053071" data-name="Trazado 1053071" d="M330.571,373.506H312v-4.221a9.286,9.286,0,0,1,18.571,0Zm0,0" transform="translate(-279.078 -322.013)" fill="#f6e431"/>
      <path id="Trazado_1053072" data-name="Trazado 1053072" d="M320.019,360.91A9.28,9.28,0,0,0,312,370.1v4.221h16.039V370.1a9.28,9.28,0,0,0-8.019-9.19Zm0,0" transform="translate(-279.078 -322.827)" fill="#f7e95a"/>
      <path id="Trazado_1053073" data-name="Trazado 1053073" d="M39.195,223.6a7.6,7.6,0,1,1-7.6-7.6A7.6,7.6,0,0,1,39.195,223.6Zm0,0" transform="translate(-21.468 -193.208)" fill="#f9a94b"/>
      <path id="Trazado_1053074" data-name="Trazado 1053074" d="M35.818,225.25c0-4.088-2.645-7.4-5.909-7.4S24,221.162,24,225.25s2.645,7.4,5.909,7.4S35.818,229.338,35.818,225.25Zm0,0" transform="translate(-21.468 -194.861)" fill="#fabe78"/>
      <path id="Trazado_1053075" data-name="Trazado 1053075" d="M343.195,223.6a7.6,7.6,0,1,1-7.6-7.6A7.6,7.6,0,0,1,343.195,223.6Zm0,0" transform="translate(-293.39 -193.208)" fill="#f9a94b"/>
      <path id="Trazado_1053076" data-name="Trazado 1053076" d="M339.818,225.25c0-4.088-2.645-7.4-5.909-7.4S328,221.162,328,225.25s2.645,7.4,5.909,7.4S339.818,229.338,339.818,225.25Zm0,0" transform="translate(-293.39 -194.861)" fill="#fabe78"/>
      <path id="Trazado_1053077" data-name="Trazado 1053077" d="M335.6,216v1.833a5.764,5.764,0,0,1-5.764,5.764H328a7.6,7.6,0,1,1,15.195,0h-1.833a5.764,5.764,0,0,1-5.764-5.764Z" transform="translate(-293.39 -193.208)" fill="#4d4d4d"/>
      <path id="Trazado_1053078" data-name="Trazado 1053078" d="M31.6,216v1.833a5.764,5.764,0,0,1-5.764,5.764H24a7.6,7.6,0,1,1,15.195,0H37.361a5.764,5.764,0,0,1-5.764-5.764Z" transform="translate(-21.468 -193.208)" fill="#4d4d4d"/>
      <path id="Trazado_1053079" data-name="Trazado 1053079" d="M359.195,15.6A7.6,7.6,0,1,1,351.6,8,7.6,7.6,0,0,1,359.195,15.6Zm0,0" transform="translate(-307.702 -7.156)" fill="#69952f"/>
      <path id="Trazado_1053080" data-name="Trazado 1053080" d="M356.662,16.562c0-4.133-2.835-7.484-6.331-7.484S344,12.429,344,16.562s2.835,7.484,6.331,7.484S356.662,20.695,356.662,16.562Zm0,0" transform="translate(-307.702 -8.12)" fill="#8cc63f"/>
      <path id="Trazado_1053081" data-name="Trazado 1053081" d="M23.195,15.6A7.6,7.6,0,1,1,15.6,8,7.6,7.6,0,0,1,23.195,15.6Zm0,0" transform="translate(-7.156 -7.156)" fill="#69952f"/>
      <path id="Trazado_1053082" data-name="Trazado 1053082" d="M20.662,16.562c0-4.133-2.835-7.484-6.331-7.484S8,12.429,8,16.562s2.835,7.484,6.331,7.484S20.662,20.695,20.662,16.562Zm0,0" transform="translate(-7.156 -8.12)" fill="#8cc63f"/>
      <path id="Trazado_1053083" data-name="Trazado 1053083" d="M24.442,224.883a8.442,8.442,0,1,1,8.442-8.441A8.451,8.451,0,0,1,24.442,224.883Zm0-15.195a6.753,6.753,0,1,0,6.753,6.753A6.761,6.761,0,0,0,24.442,209.688Zm0,0" transform="translate(-14.312 -186.052)"/>
      <path id="Trazado_1053084" data-name="Trazado 1053084" d="M25.833,224.441H24v-1.688h1.833a4.92,4.92,0,0,0,4.92-4.921V216h1.688v1.833a6.609,6.609,0,0,1-6.608,6.609Zm0,0" transform="translate(-21.468 -193.208)"/>
      <path id="Trazado_1053085" data-name="Trazado 1053085" d="M96.441,224.441H94.608A6.609,6.609,0,0,1,88,217.832V216h1.688v1.833a4.92,4.92,0,0,0,4.92,4.921h1.833Zm0,0" transform="translate(-78.714 -193.208)"/>
      <path id="Trazado_1053086" data-name="Trazado 1053086" d="M19.415,367.195H.844A.844.844,0,0,1,0,366.351V362.13a10.13,10.13,0,1,1,20.26,0v4.221A.844.844,0,0,1,19.415,367.195ZM1.688,365.506H18.571V362.13a8.442,8.442,0,1,0-16.883,0Zm0,0" transform="translate(0 -314.857)"/>
      <path id="Trazado_1053087" data-name="Trazado 1053087" d="M62.317,367.161a.842.842,0,0,1-.6-.247l-3.377-3.377,1.194-1.194,2.78,2.78,2.78-2.78,1.194,1.194-3.377,3.377a.842.842,0,0,1-.6.247Zm0,0" transform="translate(-52.187 -324.11)"/>
      <path id="Trazado_1053088" data-name="Trazado 1053088" d="M88,400h1.688v9.286H88Zm0,0" transform="translate(-78.714 -357.792)"/>
      <path id="Trazado_1053089" data-name="Trazado 1053089" d="M328.442,224.883a8.442,8.442,0,1,1,8.441-8.441A8.451,8.451,0,0,1,328.442,224.883Zm0-15.195a6.753,6.753,0,1,0,6.753,6.753A6.761,6.761,0,0,0,328.442,209.688Zm0,0" transform="translate(-286.234 -186.052)"/>
      <path id="Trazado_1053090" data-name="Trazado 1053090" d="M329.833,224.441H328v-1.688h1.833a4.92,4.92,0,0,0,4.92-4.921V216h1.688v1.833a6.609,6.609,0,0,1-6.608,6.609Zm0,0" transform="translate(-293.39 -193.208)"/>
      <path id="Trazado_1053091" data-name="Trazado 1053091" d="M400.441,224.441h-1.833A6.609,6.609,0,0,1,392,217.832V216h1.688v1.833a4.92,4.92,0,0,0,4.92,4.921h1.833Zm0,0" transform="translate(-350.636 -193.208)"/>
      <path id="Trazado_1053092" data-name="Trazado 1053092" d="M323.415,367.195H304.844a.844.844,0,0,1-.844-.844V362.13a10.13,10.13,0,1,1,20.26,0v4.221A.844.844,0,0,1,323.415,367.195Zm-17.727-1.688h16.883V362.13a8.441,8.441,0,1,0-16.883,0Zm0,0" transform="translate(-271.922 -314.857)"/>
      <path id="Trazado_1053093" data-name="Trazado 1053093" d="M366.317,367.161a.842.842,0,0,1-.6-.247l-3.377-3.377,1.194-1.194,2.78,2.78,2.78-2.78,1.194,1.194-3.377,3.377a.842.842,0,0,1-.6.247Zm0,0" transform="translate(-324.11 -324.11)"/>
      <path id="Trazado_1053094" data-name="Trazado 1053094" d="M392,400h1.688v9.286H392Zm0,0" transform="translate(-350.637 -357.792)"/>
      <path id="Trazado_1053095" data-name="Trazado 1053095" d="M196.221,154.13h-3.377a.844.844,0,0,1-.844-.844v-8.442a.844.844,0,0,1,.844-.844h3.377a.844.844,0,0,1,.844.844v8.442A.844.844,0,0,1,196.221,154.13Zm-2.532-1.688h1.688v-6.753h-1.688Zm0,0" transform="translate(-171.74 -128.805)"/>
      <path id="Trazado_1053096" data-name="Trazado 1053096" d="M228.221,168.442h-3.377A.844.844,0,0,1,224,167.6v-6.753a.844.844,0,0,1,.844-.844h3.377a.844.844,0,0,1,.844.844V167.6A.844.844,0,0,1,228.221,168.442Zm-2.532-1.688h1.688v-5.065h-1.688Zm0,0" transform="translate(-200.364 -143.117)"/>
      <path id="Trazado_1053097" data-name="Trazado 1053097" d="M260.221,182.753h-3.377a.844.844,0,0,1-.844-.844v-5.065a.844.844,0,0,1,.844-.844h3.377a.844.844,0,0,1,.844.844v5.065A.844.844,0,0,1,260.221,182.753Zm-2.532-1.688h1.688v-3.377h-1.688Zm0,0" transform="translate(-228.987 -157.429)"/>
      <path id="Trazado_1053098" data-name="Trazado 1053098" d="M8.442,16.883a8.442,8.442,0,1,1,8.442-8.442A8.451,8.451,0,0,1,8.442,16.883Zm0-15.195a6.753,6.753,0,1,0,6.753,6.753A6.761,6.761,0,0,0,8.442,1.688Zm0,0"/>
      <path id="Trazado_1053099" data-name="Trazado 1053099" d="M51.377,99.377A3.38,3.38,0,0,1,48,96h1.688a1.688,1.688,0,0,0,3.377,0h1.688A3.38,3.38,0,0,1,51.377,99.377Zm0,0" transform="translate(-42.935 -85.87)"/>
      <path id="Trazado_1053100" data-name="Trazado 1053100" d="M41.688,43.377a1.688,1.688,0,1,1,1.688-1.688A1.69,1.69,0,0,1,41.688,43.377Zm0-1.689h0Zm0,0" transform="translate(-35.779 -35.779)"/>
      <path id="Trazado_1053101" data-name="Trazado 1053101" d="M89.688,43.377a1.688,1.688,0,1,1,1.688-1.688A1.69,1.69,0,0,1,89.688,43.377Zm0-1.689h0Zm0,0" transform="translate(-78.714 -35.779)"/>
      <path id="Trazado_1053102" data-name="Trazado 1053102" d="M344.441,16.883a8.442,8.442,0,1,1,8.442-8.442A8.451,8.451,0,0,1,344.441,16.883Zm0-15.195a6.753,6.753,0,1,0,6.753,6.753A6.761,6.761,0,0,0,344.441,1.688Zm0,0" transform="translate(-300.546)"/>
      <path id="Trazado_1053103" data-name="Trazado 1053103" d="M390.753,88h-1.688a1.688,1.688,0,0,1-3.377,0H384a3.377,3.377,0,0,0,6.753,0Zm0,0" transform="translate(-343.481 -78.714)"/>
      <path id="Trazado_1053104" data-name="Trazado 1053104" d="M377.688,43.377a1.688,1.688,0,1,1,1.688-1.688A1.69,1.69,0,0,1,377.688,43.377Zm0-1.689h0Zm0,0" transform="translate(-336.325 -35.779)"/>
      <path id="Trazado_1053105" data-name="Trazado 1053105" d="M425.688,43.377a1.688,1.688,0,1,1,1.688-1.688A1.69,1.69,0,0,1,425.688,43.377Zm0-1.689h0Zm0,0" transform="translate(-379.26 -35.779)"/>
      <path id="Trazado_1053106" data-name="Trazado 1053106" d="M257.688,63.6H256V60.221A4.226,4.226,0,0,1,260.221,56h2.532v1.688h-2.532a2.536,2.536,0,0,0-2.532,2.532Zm0,0" transform="translate(-228.987 -50.091)"/>
      <path id="Trazado_1053107" data-name="Trazado 1053107" d="M182.753,63.6h-1.688V60.221a2.536,2.536,0,0,0-2.532-2.532H176V56h2.532a4.226,4.226,0,0,1,4.221,4.221Zm0,0" transform="translate(-157.429 -50.091)"/>
      <path id="Trazado_1053108" data-name="Trazado 1053108" d="M259.377,277.1h-2.532a.844.844,0,0,1-.844-.844V256h1.688v19.415h1.688Zm0,0" transform="translate(-228.987 -228.987)"/>
      <path id="Trazado_1053109" data-name="Trazado 1053109" d="M210.532,277.1H208v-1.688h1.688V256h1.688v20.26A.844.844,0,0,1,210.532,277.1Zm0,0" transform="translate(-186.052 -228.987)"/>
    </g>
  </g>
</svg>
