<svg xmlns="http://www.w3.org/2000/svg" xmlns:xlink="http://www.w3.org/1999/xlink" width="103" height="103" viewBox="0 0 103 103">
  <defs>
    <filter id="Trazado_982547" x="0" y="0" width="103" height="103" filterUnits="userSpaceOnUse">
      <feOffset dy="3" input="SourceAlpha"/>
      <feGaussianBlur stdDeviation="3" result="blur"/>
      <feFlood flood-opacity="0.161"/>
      <feComposite operator="in" in2="blur"/>
      <feComposite in="SourceGraphic"/>
    </filter>
  </defs>
  <g id="Grupo_1207653" data-name="Grupo 1207653" transform="translate(-191 -1315.329)">
    <g id="Grupo_1207516" data-name="Grupo 1207516" transform="translate(0 -2348.171)">
      <g id="Grupo_1207313" data-name="Grupo 1207313" transform="translate(0 2919.5)">
        <g id="Grupo_1202212" data-name="Grupo 1202212" transform="translate(-80 -126.414)">
          <g id="Grupo_1174813" data-name="Grupo 1174813" transform="translate(280 876.414)">
            <g id="Grupo_1201680" data-name="Grupo 1201680">
              <g id="Grupo_1201330" data-name="Grupo 1201330">
                <g id="Grupo_1172010" data-name="Grupo 1172010">
                  <g id="Grupo_1171046" data-name="Grupo 1171046">
                    <g id="Grupo_1148525" data-name="Grupo 1148525">
                      <g transform="matrix(1, 0, 0, 1, -9, -6)" filter="url(#Trazado_982547)">
                        <g id="Trazado_982547-2" data-name="Trazado 982547" transform="translate(9 6)" fill="#f2f7e5">
                          <path d="M 42.5 83.5 C 36.96437835693359 83.5 31.59512901306152 82.41617584228516 26.54141235351562 80.27863311767578 C 21.65934181213379 78.21369171142578 17.27447128295898 75.25723266601562 13.50862312316895 71.49137878417969 C 9.742764472961426 67.72553253173828 6.786305904388428 63.34066009521484 4.721364498138428 58.45858764648438 C 2.583823442459106 53.40486907958984 1.5 48.03562164306641 1.5 42.5 C 1.5 36.96437835693359 2.583823442459106 31.59512901306152 4.721364498138428 26.54141235351562 C 6.786305904388428 21.65934181213379 9.742764472961426 17.27448272705078 13.50862312316895 13.50862312316895 C 17.27447128295898 9.742776870727539 21.65934181213379 6.786305904388428 26.54141235351562 4.721364498138428 C 31.59512901306152 2.583823442459106 36.96437835693359 1.5 42.5 1.5 C 48.03562164306641 1.5 53.40486907958984 2.583823442459106 58.45858764648438 4.721364498138428 C 63.34066009521484 6.786305904388428 67.72553253173828 9.742776870727539 71.49137878417969 13.50862312316895 C 75.25723266601562 17.27448272705078 78.21369171142578 21.65934181213379 80.27863311767578 26.54141235351562 C 82.41617584228516 31.59512901306152 83.5 36.96437835693359 83.5 42.5 C 83.5 48.03562164306641 82.41617584228516 53.40486907958984 80.27863311767578 58.45858764648438 C 78.21369171142578 63.34066009521484 75.25723266601562 67.72553253173828 71.49137878417969 71.49137878417969 C 67.72553253173828 75.25723266601562 63.34066009521484 78.21369171142578 58.45858764648438 80.27863311767578 C 53.40486907958984 82.41617584228516 48.03562164306641 83.5 42.5 83.5 Z" stroke="none"/>
                          <path d="M 42.5 3 C 37.16621398925781 3 31.99356079101562 4.043960571289062 27.125732421875 6.102882385253906 C 22.42246627807617 8.092185974121094 18.19785308837891 10.94070434570312 14.56928253173828 14.56928253173828 C 10.94070434570312 18.19785308837891 8.092185974121094 22.42246627807617 6.102882385253906 27.125732421875 C 4.043960571289062 31.99356079101562 3 37.16621398925781 3 42.5 C 3 47.83378601074219 4.043960571289062 53.00643920898438 6.102882385253906 57.874267578125 C 8.092185974121094 62.57753372192383 10.94070434570312 66.80214691162109 14.56928253173828 70.43071746826172 C 18.19785308837891 74.05929565429688 22.42246627807617 76.90781402587891 27.125732421875 78.89711761474609 C 31.99356079101562 80.95603942871094 37.16621398925781 82 42.5 82 C 47.83378601074219 82 53.00643920898438 80.95603942871094 57.874267578125 78.89711761474609 C 62.57753372192383 76.90781402587891 66.80214691162109 74.05929565429688 70.43071746826172 70.43071746826172 C 74.05929565429688 66.80214691162109 76.90781402587891 62.57753372192383 78.89711761474609 57.874267578125 C 80.95603942871094 53.00643920898438 82 47.83378601074219 82 42.5 C 82 37.16621398925781 80.95603942871094 31.99356079101562 78.89711761474609 27.125732421875 C 76.90781402587891 22.42246627807617 74.05929565429688 18.19785308837891 70.43071746826172 14.56928253173828 C 66.80214691162109 10.94070434570312 62.57753372192383 8.092185974121094 57.874267578125 6.102882385253906 C 53.00643920898438 4.043960571289062 47.83378601074219 3 42.5 3 M 42.5 0 C 65.97210693359375 0 85 19.02789306640625 85 42.5 C 85 65.97210693359375 65.97210693359375 85 42.5 85 C 19.02789306640625 85 0 65.97210693359375 0 42.5 C 0 19.02789306640625 19.02789306640625 0 42.5 0 Z" stroke="none" fill="#496406"/>
                        </g>
                      </g>
                    </g>
                  </g>
                </g>
              </g>
            </g>
          </g>
        </g>
      </g>
    </g>
    <g id="presentation_682509" transform="translate(215.546 1316.896)">
      <rect id="Rectángulo_419522" data-name="Rectángulo 419522" width="38.87" height="29.928" transform="translate(12.623 25.071)" fill="#e5e5da"/>
      <g id="Grupo_1207646" data-name="Grupo 1207646" transform="translate(12.623 25.071)">
        <path id="Trazado_1052665" data-name="Trazado 1052665" d="M133.7,157.473a4.333,4.333,0,0,1-3.358,4.238c-.069.017-.141.031-.212.044a8.282,8.282,0,0,1-1.148,2.126H119.89V144.026h11.32a.813.813,0,0,1,.81.741l.106,1.185a23.61,23.61,0,0,1-.8,7.643A4.342,4.342,0,0,1,133.7,157.473Z" transform="translate(-119.89 -133.953)" fill="#d1d0bf"/>
        <rect id="Rectángulo_419523" data-name="Rectángulo 419523" width="38.87" height="3.36" fill="#d1d0bf"/>
        <rect id="Rectángulo_419524" data-name="Rectángulo 419524" width="38.87" height="3.233" transform="translate(0 26.694)" fill="#d1d0bf"/>
      </g>
      <g id="Grupo_1207647" data-name="Grupo 1207647" transform="translate(0.79 23.12)">
        <rect id="Rectángulo_419525" data-name="Rectángulo 419525" width="42.122" height="3.252" transform="translate(10.208)" fill="#f2f2f0"/>
        <rect id="Rectángulo_419526" data-name="Rectángulo 419526" width="42.122" height="3.252" transform="translate(10.208 30.579)" fill="#f2f2f0"/>
        <path id="Trazado_1052666" data-name="Trazado 1052666" d="M24.576,365.837H18.929l-7.374,1.83A5.342,5.342,0,0,0,7.5,372.852v5.234H36.005v-5.234a5.342,5.342,0,0,0-4.055-5.185Z" transform="translate(-7.5 -330.459)" fill="#f2f2f0"/>
      </g>
      <g id="Grupo_1207648" data-name="Grupo 1207648" transform="translate(0.79 60.436)">
        <path id="Trazado_1052667" data-name="Trazado 1052667" d="M11.185,384.239a7.3,7.3,0,0,0-2.228,5.077v5.234H7.5v-5.234A5.34,5.34,0,0,1,11.185,384.239Z" transform="translate(-7.502 -384.239)" fill="#e5e5da"/>
        <path id="Trazado_1052668" data-name="Trazado 1052668" d="M243.248,384.239a7.3,7.3,0,0,1,2.228,5.077v5.234h1.456v-5.234A5.34,5.34,0,0,0,243.248,384.239Z" transform="translate(-218.426 -384.239)" fill="#e5e5da"/>
      </g>
      <g id="Grupo_1207649" data-name="Grupo 1207649" transform="translate(12.688 60.311)">
        <path id="Trazado_1052669" data-name="Trazado 1052669" d="M128.8,428.137h-3.752l.954-6.359h1.843Z" transform="translate(-124.572 -417.7)" fill="#00c3ff"/>
        <path id="Trazado_1052670" data-name="Trazado 1052670" d="M121.683,387.129l-1.177-2.039,1.177-2.039h2.354l1.177,2.039-1.177,2.039Z" transform="translate(-120.506 -383.051)" fill="#00c3ff"/>
      </g>
      <g id="Grupo_1207650" data-name="Grupo 1207650" transform="translate(5.764 46.351)">
        <rect id="Rectángulo_419527" data-name="Rectángulo 419527" width="5.938" height="5.501" transform="translate(6.308 7.561)" fill="#f7c9a4"/>
        <path id="Trazado_1052671" data-name="Trazado 1052671" d="M192.911,252.71a2.239,2.239,0,0,1-1.725,2.18,2.192,2.192,0,0,1-.515.06,2.24,2.24,0,1,1,2.24-2.241Z" transform="translate(-174.355 -250.47)" fill="#f7c9a4"/>
        <path id="Trazado_1052672" data-name="Trazado 1052672" d="M59.227,252.71a2.24,2.24,0,0,1-2.241,2.241,2.2,2.2,0,0,1-.515-.06,2.24,2.24,0,0,1-.02-4.355,2.2,2.2,0,0,1,.535-.065A2.24,2.24,0,0,1,59.227,252.71Z" transform="translate(-54.746 -250.47)" fill="#f7c9a4"/>
      </g>
      <path id="Trazado_1052673" data-name="Trazado 1052673" d="M96.35,210.932v7.856a6.2,6.2,0,1,1-12.408,0v-7.856Z" transform="translate(-75.104 -168.744)" fill="#ffd9b6"/>
      <path id="Trazado_1052674" data-name="Trazado 1052674" d="M79.378,173.194s-1.892-6.389,1.4-7.556a2.166,2.166,0,0,1,2.1-1.538H93.289a20.991,20.991,0,0,1-1.5,9.094l-1.425-.239v-1.7a55.874,55.874,0,0,0-9.456-.689v2.386Z" transform="translate(-70.536 -126.843)" fill="#694b4b"/>
      <g id="Grupo_1207651" data-name="Grupo 1207651" transform="translate(9.793 56.832)">
        <path id="Trazado_1052675" data-name="Trazado 1052675" d="M93.989,350.013l4.268,2.572-1.723,3.526-3.526-3.632Z" transform="translate(-93.008 -350.013)" fill="#e5e5da"/>
        <path id="Trazado_1052676" data-name="Trazado 1052676" d="M147.133,350.013l-4.268,2.572,1.723,3.526,3.526-3.632Z" transform="translate(-137.616 -350.013)" fill="#e5e5da"/>
      </g>
      <rect id="Rectángulo_419528" data-name="Rectángulo 419528" width="3.765" height="15.603" transform="translate(42.064 30.748)" fill="#00c3ff"/>
      <g id="Grupo_1207652" data-name="Grupo 1207652" transform="translate(28.294 33.561)">
        <rect id="Rectángulo_419529" data-name="Rectángulo 419529" width="3.765" height="12.79" transform="translate(6.869)" fill="#ff5f5f"/>
        <rect id="Rectángulo_419530" data-name="Rectángulo 419530" width="3.765" height="11.207" transform="translate(0 1.583)" fill="#ff5f5f"/>
      </g>
      <path id="Trazado_1052677" data-name="Trazado 1052677" d="M51.494,37.415a.79.79,0,0,0,.79-.79V27.161h.836a.79.79,0,0,0,.79-.79V23.12a.79.79,0,0,0-.79-.79H40.853a.79.79,0,1,0,0,1.579H52.33v1.672H11.787V23.909H37.045a.79.79,0,0,0,0-1.579H11a.79.79,0,0,0-.79.79v3.252a.79.79,0,0,0,.79.79h.836v9.346A2.938,2.938,0,0,0,9.623,38.2c-2.69,1.3-2.188,5.433-1.785,7.369a2.936,2.936,0,0,0-.557.083,3.03,3.03,0,0,0,.021,5.89,2.985,2.985,0,0,0,.7.082c.075,0,.15,0,.224-.009a7.013,7.013,0,0,0,3.054,4.324v.281l-.1-.061a.79.79,0,0,0-1.141.384L9.3,58.41l-2.291.569a.79.79,0,1,0,.38,1.533l2-.5,2.583,2.66c.011.023.021.047.034.069l1.177,2.039a.786.786,0,0,0,.067.1l-.762,5.077H6.128V67.95a.79.79,0,0,0-1.579,0v2.007H1.579V65.513A4.551,4.551,0,0,1,4.3,61.343.79.79,0,0,0,3.669,59.9,6.13,6.13,0,0,0,0,65.513v5.234a.79.79,0,0,0,.79.79H29.3a.79.79,0,0,0,.79-.79V65.513a6.122,6.122,0,0,0-4.655-5.951L20.789,58.41l-.267-.671H31.269V70.747a.79.79,0,0,0,1.579,0V57.739H53.119a.79.79,0,0,0,.79-.79V53.7a.79.79,0,0,0-.79-.79h-.836v-12.8a.79.79,0,1,0-1.579,0v12.8H21.42a6.939,6.939,0,0,0,.437-1.3c.074.005.149.009.224.009a2.97,2.97,0,0,0,.7-.081,3.034,3.034,0,0,0,1.967-4.4H48.17a.79.79,0,0,0,0-1.579H46.618V30.748a.79.79,0,0,0-.79-.79H42.064a.79.79,0,0,0-.79.79V45.561H39.717v-12a.79.79,0,0,0-.79-.79H35.163a.79.79,0,0,0-.79.79v12H32.848V35.143a.79.79,0,0,0-.79-.79H28.294a.79.79,0,0,0-.79.79V45.561h-5.1a21.931,21.931,0,0,0,1.132-8.374.79.79,0,0,0-.787-.72H13.413V27.161H50.7v9.464A.79.79,0,0,0,51.494,37.415ZM7.67,50a1.45,1.45,0,0,1-.008-2.82,1.411,1.411,0,0,1,.343-.041l.044,0v2.9A1.425,1.425,0,0,1,7.67,50Zm1.959.041V47.027l.863-.135a.79.79,0,0,0,.668-.78V44.52a59.516,59.516,0,0,1,7.877.567v1.025a.79.79,0,0,0,.659.779l.761.128v3.025a5.414,5.414,0,1,1-10.828,0Zm3.233,6.643a6.969,6.969,0,0,0,4.36,0v.481l-2.18,1.313-2.18-1.313v-.481ZM16,69.957H14.084l.717-4.779h.483ZM15.042,61.2l.965,1.974-.244.423H14.322l-.244-.423Zm1.939.371-.912-1.867,2.852-1.718.448,1.126Zm-5.818-3.585,2.852,1.718L13.1,61.574l-2.387-2.459Zm17.342,7.524v4.444h-2.97V67.95a.79.79,0,0,0-1.579,0v2.007H17.6l-.762-5.077a.787.787,0,0,0,.067-.1l1.177-2.039c.013-.022.023-.046.034-.069l2.583-2.66,4.352,1.08A4.545,4.545,0,0,1,28.505,65.513ZM52.33,54.488V56.16h-32.6a.787.787,0,0,0-.821,0l-.1.061v-.281a7.049,7.049,0,0,0,1.637-1.448H52.33ZM22.41,50a1.4,1.4,0,0,1-.329.038l-.044,0v-2.9A1.45,1.45,0,0,1,22.41,50ZM42.853,31.538h2.185V45.561H42.853Zm-6.9,2.813h2.185v11.21H35.952Zm-6.869,1.582h2.185v9.628H29.084Zm-8.324,9.535-.143-.024V44.415a.79.79,0,0,0-.642-.776,56.2,56.2,0,0,0-9.6-.7.79.79,0,0,0-.79.79v1.71l-.145.023c-.338-1.531-.922-5.214,1.069-5.92A.789.789,0,0,0,11,39a1.346,1.346,0,0,1,1.336-.954H22A20.468,20.468,0,0,1,20.759,45.468Z"/>
      <path id="Trazado_1052678" data-name="Trazado 1052678" d="M149.98,119.2h6.6a.79.79,0,1,0,0-1.579h-6.6a.79.79,0,1,0,0,1.579Z" transform="translate(-133.482 -85.255)"/>
      <path id="Trazado_1052679" data-name="Trazado 1052679" d="M277.229,270.145a.79.79,0,1,0,0,1.579h.335a.79.79,0,0,0,0-1.579Z" transform="translate(-247.332 -221.722)"/>
      <path id="Trazado_1052680" data-name="Trazado 1052680" d="M343.532,270.145a.79.79,0,0,0,0,1.579h.335a.79.79,0,0,0,0-1.579Z" transform="translate(-306.654 -221.722)"/>
      <path id="Trazado_1052681" data-name="Trazado 1052681" d="M409.836,270.145a.79.79,0,1,0,0,1.579h.335a.79.79,0,1,0,0-1.579Z" transform="translate(-365.977 -221.722)"/>
      <path id="Trazado_1052682" data-name="Trazado 1052682" d="M109.043,263.876a.79.79,0,0,1-.79-.79v-.55a.79.79,0,0,1,1.579,0v.55A.79.79,0,0,1,109.043,263.876Z" transform="translate(-96.855 -214.209)"/>
      <path id="Trazado_1052683" data-name="Trazado 1052683" d="M163.835,263.876a.79.79,0,0,1-.79-.79v-.55a.79.79,0,0,1,1.579,0v.55A.79.79,0,0,1,163.835,263.876Z" transform="translate(-145.878 -214.209)"/>
    </g>
  </g>
</svg>
