<svg xmlns="http://www.w3.org/2000/svg" xmlns:xlink="http://www.w3.org/1999/xlink" width="103" height="103" viewBox="0 0 103 103">
  <defs>
    <filter id="Trazado_982547" x="0" y="0" width="103" height="103" filterUnits="userSpaceOnUse">
      <feOffset dy="3" input="SourceAlpha"/>
      <feGaussianBlur stdDeviation="3" result="blur"/>
      <feFlood flood-opacity="0.161"/>
      <feComposite operator="in" in2="blur"/>
      <feComposite in="SourceGraphic"/>
    </filter>
  </defs>
  <g id="Grupo_1207655" data-name="Grupo 1207655" transform="translate(-611 -1315.329)">
    <g id="Grupo_1207517" data-name="Grupo 1207517" transform="translate(0 -2348.171)">
      <g id="Grupo_1207315" data-name="Grupo 1207315" transform="translate(0 2919.5)">
        <g id="Grupo_1202210" data-name="Grupo 1202210" transform="translate(340 -126.414)">
          <g id="Grupo_1174813" data-name="Grupo 1174813" transform="translate(280 876.414)">
            <g id="Grupo_1201680" data-name="Grupo 1201680">
              <g id="Grupo_1201330" data-name="Grupo 1201330">
                <g id="Grupo_1172010" data-name="Grupo 1172010">
                  <g id="Grupo_1171046" data-name="Grupo 1171046">
                    <g id="Grupo_1148525" data-name="Grupo 1148525">
                      <g transform="matrix(1, 0, 0, 1, -9, -6)" filter="url(#Trazado_982547)">
                        <g id="Trazado_982547-2" data-name="Trazado 982547" transform="translate(9 6)" fill="#f2f7e5">
                          <path d="M 42.5 83.5 C 36.96437835693359 83.5 31.59512901306152 82.41617584228516 26.54141235351562 80.27863311767578 C 21.65934181213379 78.21369171142578 17.27447128295898 75.25723266601562 13.50862312316895 71.49137878417969 C 9.742764472961426 67.72553253173828 6.786305904388428 63.34066009521484 4.721364498138428 58.45858764648438 C 2.583823442459106 53.40486907958984 1.5 48.03562164306641 1.5 42.5 C 1.5 36.96437835693359 2.583823442459106 31.59512901306152 4.721364498138428 26.54141235351562 C 6.786305904388428 21.65934181213379 9.742764472961426 17.27448272705078 13.50862312316895 13.50862312316895 C 17.27447128295898 9.742776870727539 21.65934181213379 6.786305904388428 26.54141235351562 4.721364498138428 C 31.59512901306152 2.583823442459106 36.96437835693359 1.5 42.5 1.5 C 48.03562164306641 1.5 53.40486907958984 2.583823442459106 58.45858764648438 4.721364498138428 C 63.34066009521484 6.786305904388428 67.72553253173828 9.742776870727539 71.49137878417969 13.50862312316895 C 75.25723266601562 17.27448272705078 78.21369171142578 21.65934181213379 80.27863311767578 26.54141235351562 C 82.41617584228516 31.59512901306152 83.5 36.96437835693359 83.5 42.5 C 83.5 48.03562164306641 82.41617584228516 53.40486907958984 80.27863311767578 58.45858764648438 C 78.21369171142578 63.34066009521484 75.25723266601562 67.72553253173828 71.49137878417969 71.49137878417969 C 67.72553253173828 75.25723266601562 63.34066009521484 78.21369171142578 58.45858764648438 80.27863311767578 C 53.40486907958984 82.41617584228516 48.03562164306641 83.5 42.5 83.5 Z" stroke="none"/>
                          <path d="M 42.5 3 C 37.16621398925781 3 31.99356079101562 4.043960571289062 27.125732421875 6.102882385253906 C 22.42246627807617 8.092185974121094 18.19785308837891 10.94070434570312 14.56928253173828 14.56928253173828 C 10.94070434570312 18.19785308837891 8.092185974121094 22.42246627807617 6.102882385253906 27.125732421875 C 4.043960571289062 31.99356079101562 3 37.16621398925781 3 42.5 C 3 47.83378601074219 4.043960571289062 53.00643920898438 6.102882385253906 57.874267578125 C 8.092185974121094 62.57753372192383 10.94070434570312 66.80214691162109 14.56928253173828 70.43071746826172 C 18.19785308837891 74.05929565429688 22.42246627807617 76.90781402587891 27.125732421875 78.89711761474609 C 31.99356079101562 80.95603942871094 37.16621398925781 82 42.5 82 C 47.83378601074219 82 53.00643920898438 80.95603942871094 57.874267578125 78.89711761474609 C 62.57753372192383 76.90781402587891 66.80214691162109 74.05929565429688 70.43071746826172 70.43071746826172 C 74.05929565429688 66.80214691162109 76.90781402587891 62.57753372192383 78.89711761474609 57.874267578125 C 80.95603942871094 53.00643920898438 82 47.83378601074219 82 42.5 C 82 37.16621398925781 80.95603942871094 31.99356079101562 78.89711761474609 27.125732421875 C 76.90781402587891 22.42246627807617 74.05929565429688 18.19785308837891 70.43071746826172 14.56928253173828 C 66.80214691162109 10.94070434570312 62.57753372192383 8.092185974121094 57.874267578125 6.102882385253906 C 53.00643920898438 4.043960571289062 47.83378601074219 3 42.5 3 M 42.5 0 C 65.97210693359375 0 85 19.02789306640625 85 42.5 C 85 65.97210693359375 65.97210693359375 85 42.5 85 C 19.02789306640625 85 0 65.97210693359375 0 42.5 C 0 19.02789306640625 19.02789306640625 0 42.5 0 Z" stroke="none" fill="#496406"/>
                        </g>
                      </g>
                    </g>
                  </g>
                </g>
              </g>
            </g>
          </g>
        </g>
      </g>
    </g>
    <g id="_26-Graph" data-name="26-Graph" transform="translate(636.797 1338.797)">
      <path id="Trazado_1052684" data-name="Trazado 1052684" d="M15,5v9.826h.819a8.189,8.189,0,0,1,8.189,8.189v2.678a1.638,1.638,0,0,1-.819,3.054H22.37l-.049-.008a6.546,6.546,0,0,1-3.251,4.872l.025.049v2.457a1.638,1.638,0,0,0,1.638,1.638H31.377L33.834,35.3l2.457-2.457v-.819a1.643,1.643,0,0,1,1.638-1.638h8.033a.977.977,0,0,1,.36,1.883l-3.48,1.392-2.457,3.275-2.457,2.457-3.275,3.275H54.305V5Z" transform="translate(-2.717 -0.906)" fill="#dce1eb"/>
      <path id="Trazado_1052685" data-name="Trazado 1052685" d="M15,1H54.305V4.275H15Z" transform="translate(-2.717 -0.181)" fill="#9d87e0"/>
      <path id="Trazado_1052686" data-name="Trazado 1052686" d="M15,3H54.305V4.638H15Z" transform="translate(-2.717 -0.543)" fill="#725cb5"/>
      <path id="Trazado_1052687" data-name="Trazado 1052687" d="M15,5H54.305v.819H15Z" transform="translate(-2.717 -0.906)" fill="#afb4c8"/>
      <path id="Trazado_1052688" data-name="Trazado 1052688" d="M41.258,3.409a.409.409,0,0,0,.409.409H53.95a.409.409,0,0,0,0-.819H41.667A.409.409,0,0,0,41.258,3.409Z" transform="translate(-7.474 -0.543)" fill="#5f4a9e"/>
      <path id="Trazado_1052689" data-name="Trazado 1052689" d="M58.258,3.409a.409.409,0,0,0,.409.409h.819a.409.409,0,1,0,0-.819h-.819A.409.409,0,0,0,58.258,3.409Z" transform="translate(-10.553 -0.543)" fill="#5f4a9e"/>
      <path id="Trazado_1052690" data-name="Trazado 1052690" d="M1,51.656v8.189H13.283L5.094,54.112l1.638-2.457L5.094,50.018V45.58A6.557,6.557,0,0,0,1,51.656Z" transform="translate(-0.181 -8.257)" fill="#9d87e0"/>
      <path id="Trazado_1052691" data-name="Trazado 1052691" d="M25.627,30.221a1.638,1.638,0,0,1-.819,3.054h-.819l-.049-.008a6.633,6.633,0,0,0,.049-.811V30h.819A1.638,1.638,0,0,1,25.627,30.221Z" transform="translate(-4.337 -5.434)" fill="#ffd3cc"/>
      <path id="Trazado_1052692" data-name="Trazado 1052692" d="M11.8,55.383l-1.7-3.063V44.73a1.638,1.638,0,0,1-.819.221H8.457A6.627,6.627,0,0,0,6,45.426v4.438L7.638,51.5,6,53.958l8.189,5.732Z" transform="translate(-1.087 -8.103)" fill="#333940"/>
      <path id="Trazado_1052693" data-name="Trazado 1052693" d="M5.284,21.029C2,20.529,2,17,2,17H13.464a8.189,8.189,0,0,1,8.189,8.189v2.678a1.638,1.638,0,0,0-.819-.221h-.819c-9.826,0-9.826-3.275-9.826-3.275L6.913,27.645H6.094a1.638,1.638,0,0,0-.819.221V21.094Z" transform="translate(-0.362 -3.079)" fill="#ffaf12"/>
      <path id="Trazado_1052694" data-name="Trazado 1052694" d="M21.1,29.275v2.457a6.538,6.538,0,0,1-1.916,4.635A6.418,6.418,0,0,1,17.8,37.415a6.551,6.551,0,0,1-9.753-4.872A6.633,6.633,0,0,1,8,31.732V29.275L11.275,26s0,3.275,9.826,3.275Z" transform="translate(-1.449 -4.71)" fill="#ffd3cc"/>
      <path id="Trazado_1052695" data-name="Trazado 1052695" d="M11,48.848v4.094L12.7,56l1.572-5.519L12.728,48.16Z" transform="translate(-1.993 -8.724)" fill="#cdd2e1"/>
      <path id="Trazado_1052696" data-name="Trazado 1052696" d="M12.728,47.225l2.366-.95L11.819,43A1.638,1.638,0,0,1,11,44.417v3.5Z" transform="translate(-1.993 -7.789)" fill="#e9edf5"/>
      <path id="Trazado_1052697" data-name="Trazado 1052697" d="M18.551,39.989v2.457l-3.275,3.275L12,42.446V39.989l.025-.049a6.521,6.521,0,0,0,6.5,0Z" transform="translate(-2.174 -7.235)" fill="#ffd3cc"/>
      <path id="Trazado_1052698" data-name="Trazado 1052698" d="M14.652,51,13.08,56.519l2.391,4.307,2.391-4.307L16.29,51Z" transform="translate(-2.369 -9.238)" fill="#d2a0f5"/>
      <path id="Trazado_1052699" data-name="Trazado 1052699" d="M13.11,47.95l1.548,2.326H16.3l1.548-2.326L15.476,47Z" transform="translate(-2.375 -8.514)" fill="#d2a0f5"/>
      <path id="Trazado_1052700" data-name="Trazado 1052700" d="M18.391,55.383,16,59.69l8.189-5.732L22.551,51.5l1.638-1.638V44.951H20.913a1.638,1.638,0,0,1-.819-.221v7.591Z" transform="translate(-2.898 -8.103)" fill="#333940"/>
      <path id="Trazado_1052701" data-name="Trazado 1052701" d="M18.366,47.225l1.728.688v-3.5A1.638,1.638,0,0,1,19.275,43L16,46.275Z" transform="translate(-2.898 -7.789)" fill="#e9edf5"/>
      <path id="Trazado_1052702" data-name="Trazado 1052702" d="M16,59.2H28.283V49.37h6.551l3.275-3.275L34.015,42l-2.457,2.457h-7.37V49.37l-1.638,1.638,1.638,2.457Z" transform="translate(-2.898 -7.608)" fill="#9d87e0"/>
      <path id="Trazado_1052703" data-name="Trazado 1052703" d="M18.548,48.16,17,50.486,18.572,56l1.7-3.063V48.848Z" transform="translate(-3.079 -8.724)" fill="#cdd2e1"/>
      <path id="Trazado_1052704" data-name="Trazado 1052704" d="M5.819,30.221A1.638,1.638,0,0,1,6.638,30h.819v2.457a6.633,6.633,0,0,0,.049.811l-.049.008H6.638a1.638,1.638,0,0,1-.819-3.054Z" transform="translate(-0.906 -5.434)" fill="#ffd3cc"/>
      <path id="Trazado_1052705" data-name="Trazado 1052705" d="M0,0H3.474V5.79H0Z" transform="translate(31.11 34.392) rotate(-45)" fill="#725cb5"/>
      <path id="Trazado_1052706" data-name="Trazado 1052706" d="M41,37.638v.819l4.094,4.094,2.457-3.275,3.48-1.392A.977.977,0,0,0,50.671,36H42.638A1.643,1.643,0,0,0,41,37.638Z" transform="translate(-7.427 -6.521)" fill="#ffd3cc"/>
      <path id="Trazado_1052707" data-name="Trazado 1052707" d="M42.638,36h8.033a.965.965,0,0,1,.7,1.638h-7.1a1.643,1.643,0,0,0-1.638,1.638v.819L41,38.457v-.819A1.643,1.643,0,0,1,42.638,36Z" transform="translate(-7.427 -6.521)" fill="#fde5e1"/>
      <path id="Trazado_1052708" data-name="Trazado 1052708" d="M6.163,51.18l-.923-.923A.819.819,0,0,1,5,49.678V45.984a6.561,6.561,0,0,1,.819-.409v4.442l1.638,1.638L5.819,54.112l8.189,5.732h-.819L5.6,54.579a.819.819,0,0,1-.179-1.1l.843-1.265a.819.819,0,0,0-.1-1.033Z" transform="translate(-0.906 -8.256)" fill="#725cb5"/>
      <path id="Trazado_1052709" data-name="Trazado 1052709" d="M25.638,30.221A1.638,1.638,0,0,0,24.819,30H24a1.638,1.638,0,1,1,0,3.275h.819a1.638,1.638,0,0,0,.819-3.054Z" transform="translate(-4.347 -5.434)" fill="#fde5e1"/>
      <path id="Trazado_1052710" data-name="Trazado 1052710" d="M13.464,17H2a5.164,5.164,0,0,0,.337,1.638h9.489a8.189,8.189,0,0,1,8.189,8.189v.819h.819a1.638,1.638,0,0,1,.819.221V25.189A8.189,8.189,0,0,0,13.464,17Z" transform="translate(-0.362 -3.079)" fill="#ffd417"/>
      <path id="Trazado_1052711" data-name="Trazado 1052711" d="M20.732,29.959v2.49a6.538,6.538,0,0,1-1.916,4.635,6.418,6.418,0,0,1-1.384,1.048A6.529,6.529,0,0,1,15,38.945a6.579,6.579,0,0,0,.819.055,6.513,6.513,0,0,0,3.251-.868,6.418,6.418,0,0,0,1.384-1.048,6.538,6.538,0,0,0,1.916-4.635V29.993C21.789,29.993,21.246,29.98,20.732,29.959Z" transform="translate(-2.717 -5.427)" fill="#fde5e1"/>
      <path id="Trazado_1052712" data-name="Trazado 1052712" d="M5.819,31.638A1.638,1.638,0,0,1,7.457,30H6.638a1.638,1.638,0,1,0,0,3.275h.819a1.643,1.643,0,0,1-1.638-1.638Z" transform="translate(-0.906 -5.434)" fill="#ffd3cc"/>
      <path id="Trazado_1052713" data-name="Trazado 1052713" d="M9.687,32.543a6.633,6.633,0,0,1-.049-.811v-1.1a3.276,3.276,0,0,1,.96-2.317l.678-.678s0,1.638,9.826,1.638c-9.826,0-9.826-3.275-9.826-3.275L9.638,27.638,8,29.275v2.457a6.633,6.633,0,0,0,.049.811,6.523,6.523,0,0,0,7.321,5.685A6.557,6.557,0,0,1,9.687,32.543Z" transform="translate(-1.449 -4.71)" fill="#ffb9b0"/>
      <path id="Trazado_1052714" data-name="Trazado 1052714" d="M15.7,41.808a6.468,6.468,0,0,1-1.349-.155,4.409,4.409,0,0,0,2.538,2.237l2.086-2.082v-.819l-.025-.049a6.513,6.513,0,0,1-3.251.868Z" transform="translate(-2.6 -7.416)" fill="#fde5e1"/>
      <path id="Trazado_1052715" data-name="Trazado 1052715" d="M15.275,45.275,12,42v.819l3.275,3.275L17.09,44.28a5.556,5.556,0,0,1-.622-.2Z" transform="translate(-2.174 -7.608)" fill="#ffb9b0"/>
      <path id="Trazado_1052716" data-name="Trazado 1052716" d="M18.079,44.28l1.461-1.461V42l-2.082,2.082a5.556,5.556,0,0,0,.622.2Z" transform="translate(-3.162 -7.608)" fill="#fdddd7"/>
      <path id="Trazado_1052717" data-name="Trazado 1052717" d="M21.558,28.551h-.819c-6.824,0-8.53-3.662-8.909-4.61-.109-.273-.22-.547-.352-.811l-.112-.224A1.638,1.638,0,0,0,9.9,22H6v6.772a1.638,1.638,0,0,1,.819-.221h.819l3.275-3.275s0,3.275,9.826,3.275h.819a1.638,1.638,0,0,1,.819.221A1.638,1.638,0,0,0,21.558,28.551Z" transform="translate(-1.087 -3.985)" fill="#ff7f00"/>
      <path id="Trazado_1052718" data-name="Trazado 1052718" d="M17.415,48.594l-1.938-.775-1.938.775-.428-.644L15.476,47l2.366.95Z" transform="translate(-2.375 -8.514)" fill="#a260e5"/>
      <path id="Trazado_1052719" data-name="Trazado 1052719" d="M14.777,59.123a.819.819,0,0,0,1.392,0l1.474-2.353.226.794-2.4,4.307L13.08,57.564l.226-.794Z" transform="translate(-2.369 -10.284)" fill="#a260e5"/>
      <path id="Trazado_1052720" data-name="Trazado 1052720" d="M12.078,48.419l.649-.259.428.644,1.119,1.681L12.929,55.21l-.683-1.093,1.21-3.632-.58-.87a.819.819,0,0,0-.983-.305L11,49.667v-.819Z" transform="translate(-1.993 -8.724)" fill="#bec3d2"/>
      <path id="Trazado_1052721" data-name="Trazado 1052721" d="M18.548,48.16l.649.259,1.078.429v.819l-.892-.356a.819.819,0,0,0-.983.305l-.582.87,1.21,3.632-.683,1.093L17,50.486,18.119,48.8Z" transform="translate(-3.079 -8.724)" fill="#bec3d2"/>
      <path id="Trazado_1052722" data-name="Trazado 1052722" d="M12.246,54.994l.683,1.093-.226.794-.68-1.222L11,53.819V53Z" transform="translate(-1.993 -9.601)" fill="#afb4c8"/>
      <path id="Trazado_1052723" data-name="Trazado 1052723" d="M20.573,53v.819L19.55,55.66l-.68,1.222-.226-.794.683-1.093Z" transform="translate(-3.377 -9.601)" fill="#afb4c8"/>
      <path id="Trazado_1052724" data-name="Trazado 1052724" d="M14.948,51h1.638l.233.819h-2.1Z" transform="translate(-2.666 -9.238)" fill="#a260e5"/>
      <path id="Trazado_1052725" data-name="Trazado 1052725" d="M4.275,46.075v2.2a6.538,6.538,0,0,0-2.457,5.11v6.551H1V51.746a6.551,6.551,0,0,1,3.275-5.671Z" transform="translate(-0.181 -8.346)" fill="#c4b0ff"/>
      <path id="Trazado_1052726" data-name="Trazado 1052726" d="M6,47.472V45.425a6.627,6.627,0,0,1,2.457-.474h.819a1.638,1.638,0,0,0,.819-.221v1.859H9.275A6.514,6.514,0,0,0,6,47.472Z" transform="translate(-1.087 -8.103)" fill="#414952"/>
      <path id="Trazado_1052727" data-name="Trazado 1052727" d="M5,48.183v-2.2a6.561,6.561,0,0,1,.819-.409v2.047A6.524,6.524,0,0,0,5,48.183Z" transform="translate(-0.906 -8.256)" fill="#9d87e0"/>
      <path id="Trazado_1052728" data-name="Trazado 1052728" d="M11.819,43l.819.819c0,1.358-.733,2.457-1.638,2.457V44.417A1.638,1.638,0,0,0,11.819,43Z" transform="translate(-1.993 -7.789)" fill="#f7faff"/>
      <path id="Trazado_1052729" data-name="Trazado 1052729" d="M19.819,43,19,43.819c0,1.358.733,2.457,1.638,2.457V44.417A1.638,1.638,0,0,1,19.819,43Z" transform="translate(-3.442 -7.789)" fill="#f7faff"/>
      <path id="Trazado_1052730" data-name="Trazado 1052730" d="M23.845,51.076l.923-.923a.819.819,0,0,0,.24-.579V45h-.819v4.913l-1.638,1.638,1.638,2.457L16,59.739h.819l7.588-5.264a.819.819,0,0,0,.179-1.1l-.843-1.265A.819.819,0,0,1,23.845,51.076Z" transform="translate(-2.898 -8.152)" fill="#725cb5"/>
      <path id="Trazado_1052731" data-name="Trazado 1052731" d="M21,46.589V44.73a1.638,1.638,0,0,0,.819.221h3.275v1.638Z" transform="translate(-3.804 -8.103)" fill="#414952"/>
      <path id="Trazado_1052732" data-name="Trazado 1052732" d="M34.85,45.614a1.638,1.638,0,0,1-1.158.48H27V44.457h6.551L36.007,42l1.228,1.228Z" transform="translate(-4.891 -7.608)" fill="#c4b0ff"/>
      <path id="Trazado_1052733" data-name="Trazado 1052733" d="M0,0H3.474V1.158H0Z" transform="translate(34.384 37.667) rotate(-45)" fill="#5f4a9e"/>
      <path id="Trazado_1052734" data-name="Trazado 1052734" d="M0,0H3.474V1.737H0Z" transform="translate(31.11 34.391) rotate(-45)" fill="#9d87e0"/>
      <path id="Trazado_1052735" data-name="Trazado 1052735" d="M26,45h.819v1.638H26Z" transform="translate(-4.71 -8.152)" fill="#9d87e0"/>
      <path id="Trazado_1052736" data-name="Trazado 1052736" d="M30.819,50h.819a.819.819,0,0,0-.819.819v9.826H30V50.819A.819.819,0,0,1,30.819,50Z" transform="translate(-5.434 -9.057)" fill="#c4b0ff"/>
      <path id="Trazado_1052737" data-name="Trazado 1052737" d="M31.819,49.275h4.913L40.007,46l.819.819-3.275,3.275H31A.819.819,0,0,1,31.819,49.275Z" transform="translate(-5.615 -8.333)" fill="#725cb5"/>
      <path id="Trazado_1052738" data-name="Trazado 1052738" d="M45.433,40.3a1.638,1.638,0,0,1,1.158-.48h.96l-2.457,3.275L41,39l2.707,2.031a.819.819,0,0,0,1.07-.076Z" transform="translate(-7.427 -7.065)" fill="#ffb9b0"/>
      <ellipse id="Elipse_13445" data-name="Elipse 13445" cx="0.47" cy="0.338" rx="0.47" ry="0.338" transform="translate(35.447 30.632) rotate(-45)" fill="#f6fafd"/>
      <ellipse id="Elipse_13446" data-name="Elipse 13446" cx="0.5" cy="1" rx="0.5" ry="1" transform="translate(16.203 25.203)" fill="#483584"/>
      <ellipse id="Elipse_13447" data-name="Elipse 13447" cx="0.5" cy="1" rx="0.5" ry="1" transform="translate(8.203 25.203)" fill="#483584"/>
      <rect id="Rectángulo_419531" data-name="Rectángulo 419531" width="2" height="4" rx="1" transform="translate(12.203 25.203)" fill="#ffb9b0"/>
      <path id="Trazado_1052739" data-name="Trazado 1052739" d="M15.592,38.478c-1.523,0-1.842-.557-1.842-1.024a.2.2,0,1,1,.409,0c0,.508.78.614,1.433.614s1.433-.106,1.433-.614a.2.2,0,1,1,.409,0C17.435,37.921,17.115,38.478,15.592,38.478Z" transform="translate(-2.491 -6.748)" fill="#ff978a"/>
      <g id="Grupo_1207654" data-name="Grupo 1207654" transform="translate(15.443 15.091)">
        <ellipse id="Elipse_13448" data-name="Elipse 13448" cx="0.676" cy="0.94" rx="0.676" ry="0.94" transform="translate(0 0.955) rotate(-45)" fill="#f6fafd"/>
        <ellipse id="Elipse_13449" data-name="Elipse 13449" cx="0.338" cy="0.47" rx="0.338" ry="0.47" transform="translate(2 2.277) rotate(-45)" fill="#f6fafd"/>
        <ellipse id="Elipse_13450" data-name="Elipse 13450" cx="0.94" cy="0.676" rx="0.94" ry="0.676" transform="translate(6.947 23.414) rotate(-45)" fill="#f6fafd"/>
        <ellipse id="Elipse_13451" data-name="Elipse 13451" cx="0.47" cy="0.338" rx="0.47" ry="0.338" transform="translate(9.363 23.729) rotate(-45)" fill="#f6fafd"/>
      </g>
      <path id="Trazado_1052740" data-name="Trazado 1052740" d="M24.189,25.189v2.663a.026.026,0,0,0,.013.022,1.638,1.638,0,0,1,.806,1.52,1.72,1.72,0,0,1-1.755,1.527h-.7l-.049-.008a6.618,6.618,0,0,1-1.867,3.824,6.418,6.418,0,0,1-1.384,1.048l.025.049V38.29a1.638,1.638,0,0,0,1.638,1.638h3.275a1.638,1.638,0,0,1-1.638-1.638V35.834l-.025-.049a6.418,6.418,0,0,0,1.384-1.048,6.618,6.618,0,0,0,1.867-3.824l.049.008h.7a1.72,1.72,0,0,0,1.755-1.527,1.638,1.638,0,0,0-.8-1.52.026.026,0,0,1-.016-.022V25.217A8.217,8.217,0,0,0,19.247,17H16a8.189,8.189,0,0,1,8.189,8.189Z" transform="translate(-2.898 -3.079)" fill="#9196aa"/>
      <path id="Trazado_1052741" data-name="Trazado 1052741" d="M53.593,36H50.317a.977.977,0,0,1,.36,1.883L47.2,39.275a.036.036,0,0,0-.012.01l-2.452,3.266-2.457,2.457-3.227,3.227a.029.029,0,0,0,.02.048h3.194a.029.029,0,0,0,.02-.008l3.269-3.267,2.457-2.457,2.451-3.267a.036.036,0,0,1,.013-.008l3.473-1.392A.977.977,0,0,0,53.593,36Z" transform="translate(-7.074 -6.521)" fill="#9196aa"/>
      <path id="Trazado_1052742" data-name="Trazado 1052742" d="M18,8h1.638V9.638H18Z" transform="translate(-3.261 -1.449)" fill="#5f4a9e"/>
      <path id="Trazado_1052743" data-name="Trazado 1052743" d="M22,8h4.913V9.638H22Z" transform="translate(-3.985 -1.449)" fill="#5f4a9e"/>
      <path id="Trazado_1052744" data-name="Trazado 1052744" d="M18,12h5.732v1.638H18Z" transform="translate(-3.261 -2.174)" fill="#5f4a9e"/>
      <ellipse id="Elipse_13452" data-name="Elipse 13452" cx="1.345" cy="1.872" rx="1.345" ry="1.872" transform="translate(46.255 7.671) rotate(-45)" fill="#f6fafd"/>
      <ellipse id="Elipse_13453" data-name="Elipse 13453" cx="0.676" cy="0.94" rx="0.676" ry="0.94" transform="translate(44.108 9.504) rotate(-45)" fill="#f6fafd"/>
      <path id="Trazado_1052745" data-name="Trazado 1052745" d="M43,10h4.913V28.015H43Z" transform="translate(-7.789 -1.811)" fill="#ffaf12"/>
      <path id="Trazado_1052746" data-name="Trazado 1052746" d="M53,16h4.913V29.1H53Z" transform="translate(-9.601 -2.898)" fill="#725cb5"/>
      <path id="Trazado_1052747" data-name="Trazado 1052747" d="M33,22h4.913v8.189H33Z" transform="translate(-5.978 -3.985)" fill="#b674f2"/>
      <path id="Trazado_1052748" data-name="Trazado 1052748" d="M30,32H53.747v.819H30Z" transform="translate(-5.434 -5.797)" fill="#5f4a9e"/>
      <path id="Trazado_1052749" data-name="Trazado 1052749" d="M56,16h2.457V29.1H56Z" transform="translate(-10.144 -2.898)" fill="#9d87e0"/>
      <path id="Trazado_1052750" data-name="Trazado 1052750" d="M36,22h2.457v8.189H36Z" transform="translate(-6.521 -3.985)" fill="#d2a0f5"/>
      <path id="Trazado_1052751" data-name="Trazado 1052751" d="M46,10h2.457V28.015H46Z" transform="translate(-8.333 -1.811)" fill="#ffd417"/>
      <path id="Trazado_1052752" data-name="Trazado 1052752" d="M53,28h2.457v3.275H53Z" transform="translate(-9.601 -5.072)" fill="#5f4a9e"/>
      <path id="Trazado_1052753" data-name="Trazado 1052753" d="M56,28h2.457v3.275H56Z" transform="translate(-10.144 -5.072)" fill="#725cb5"/>
      <path id="Trazado_1052754" data-name="Trazado 1052754" d="M43,28h2.457v3.275H43Z" transform="translate(-7.789 -5.072)" fill="#ff9202"/>
      <path id="Trazado_1052755" data-name="Trazado 1052755" d="M46,28h2.457v3.275H46Z" transform="translate(-8.333 -5.072)" fill="#ffaf12"/>
      <path id="Trazado_1052756" data-name="Trazado 1052756" d="M33,28h2.457v3.275H33Z" transform="translate(-5.978 -5.072)" fill="#a260e5"/>
      <path id="Trazado_1052757" data-name="Trazado 1052757" d="M36,28h2.457v3.275H36Z" transform="translate(-6.521 -5.072)" fill="#b674f2"/>
      <path id="Trazado_1052758" data-name="Trazado 1052758" d="M54.124,0H14.819A.819.819,0,0,0,14,.819V11.464h1.638V4.913H46.754V3.275H15.638V1.638H53.305V3.275H51.667V4.913h1.638v36.03H41.022V42.58h13.1a.819.819,0,0,0,.819-.819V.819A.819.819,0,0,0,54.124,0Z" transform="translate(-2.536)"/>
      <path id="Trazado_1052759" data-name="Trazado 1052759" d="M43,50h1.638v1.638H43Z" transform="translate(-7.789 -9.057)"/>
      <path id="Trazado_1052760" data-name="Trazado 1052760" d="M56,4h1.638V5.638H56Z" transform="translate(-10.144 -0.725)"/>
      <path id="Trazado_1052761" data-name="Trazado 1052761" d="M40.641,36.327l3.266-1.306a1.8,1.8,0,0,0-.666-3.463H35.211a2.457,2.457,0,0,0-2.457,2.457v.48l-4.433,4.433h-1.3v1.638H28.66a.819.819,0,0,0,.579-.24l1.878-1.878,2.936,2.936L31.6,43.841H25.385a.819.819,0,0,0-.819.819v9.007H15.7l6.06-4.242a.819.819,0,0,0,.212-1.125l-1.265-1.9,1.163-1.163a.819.819,0,0,0,.241-.579V40.566h3.275V38.928h-7.37a.819.819,0,0,1-.819-.819V36.044a7.386,7.386,0,0,0,3.085-4.486h.19a2.448,2.448,0,0,0,1.638-4.274V25.007A9.018,9.018,0,0,0,13.1,16v1.638a7.378,7.378,0,0,1,7.37,7.37v1.638h-.819c-7.131,0-8.921-1.806-9.007-2.457a.819.819,0,0,0-1.4-.579L6.212,26.645h-.48V21.732H7.37V20.094H5.732a2.984,2.984,0,0,1-3.171-2.457h8.9V16H1.638a.819.819,0,0,0-.819.819A4.822,4.822,0,0,0,4.094,21.5v5.784a2.448,2.448,0,0,0,1.638,4.274h.19a7.386,7.386,0,0,0,3.085,4.486v2.065a.819.819,0,0,1-.819.819H7.37A7.378,7.378,0,0,0,0,46.3v4.094H1.638V46.3a5.725,5.725,0,0,1,2.457-4.7V44.66a.819.819,0,0,0,.24.579L5.5,46.4,4.232,48.3a.819.819,0,0,0,.212,1.125l6.06,4.242H1.638V52.03H0v2.457a.819.819,0,0,0,.819.819H25.385a.819.819,0,0,0,.819-.819V45.479h5.732a.819.819,0,0,0,.579-.24l5.732-5.732a.827.827,0,0,0,.065-.1l.011.009Zm-30.5,3.256,1.5,1.5-1.819.726V39.929A2.42,2.42,0,0,0,10.142,39.583Zm5.92,0a2.42,2.42,0,0,0,.315.344V41.81l-1.819-.727ZM13.1,42.266l1.129.452-.748,1.123h-.762l-.748-1.123Zm-.2,3.212h.4l1.31,4.6L13.1,52.8l-1.514-2.725Zm2.841,2.571L14.811,44.8l.974-1.459.592.237V46.9ZM9.826,43.577l.592-.237.974,1.459-.929,3.251L9.826,46.9Zm10.645-3.011v3.755l-1.4,1.4a.819.819,0,0,0-.1,1.033l1.193,1.79-4.622,3.235,2.369-4.264a.812.812,0,0,0,.1-.4V40.566Zm0-10.645V28.283a.819.819,0,1,1,0,1.638ZM4.913,29.1a.819.819,0,0,1,.819-.819v1.638A.819.819,0,0,1,4.913,29.1Zm2.457.819V27.8l2.211-2.211c.909,1.141,3.257,2.561,9.253,2.682v1.647a5.732,5.732,0,0,1-11.464,0ZM13.1,37.29a7.317,7.317,0,0,0,2.457-.43v.91L13.1,40.227,10.645,37.77v-.91A7.317,7.317,0,0,0,13.1,37.29ZM7.13,45.719l-1.4-1.4v-3.51a5.7,5.7,0,0,1,1.638-.246h.819v6.551a.812.812,0,0,0,.1.4l2.369,4.264L6.039,48.542l1.193-1.79A.819.819,0,0,0,7.13,45.719ZM35.211,33.2h8.031a.157.157,0,0,1,.058.3l-3.481,1.392a.824.824,0,0,0-.35.269l-1.89,2.52-3.187-3.187v-.48A.819.819,0,0,1,35.211,33.2Zm0,7.031L32.274,37.29l1.3-1.3,2.936,2.936Z" transform="translate(0 -2.898)"/>
      <path id="Trazado_1052762" data-name="Trazado 1052762" d="M37.37,18.826H32.457a.819.819,0,0,0-.819.819v7.37H30v1.638H54.566V14.732a.819.819,0,0,0-.819-.819H48.834a.819.819,0,0,0-.819.819V27.015H46.377V9.819A.819.819,0,0,0,45.558,9H40.645a.819.819,0,0,0-.819.819v17.2H38.189v-7.37A.819.819,0,0,0,37.37,18.826Zm-4.094,8.189V20.464h3.275v6.551ZM49.653,15.551h3.275V27.015H49.653Zm-8.189-4.913h3.275V27.015H41.464Z" transform="translate(-5.434 -1.63)"/>
      <path id="Trazado_1052763" data-name="Trazado 1052763" d="M18,8h1.638V9.638H18Z" transform="translate(-3.261 -1.449)"/>
      <path id="Trazado_1052764" data-name="Trazado 1052764" d="M22,8h4.913V9.638H22Z" transform="translate(-3.985 -1.449)"/>
      <path id="Trazado_1052765" data-name="Trazado 1052765" d="M18,12h5.732v1.638H18Z" transform="translate(-3.261 -2.174)"/>
    </g>
  </g>
</svg>
