<svg xmlns="http://www.w3.org/2000/svg" xmlns:xlink="http://www.w3.org/1999/xlink" width="103" height="103" viewBox="0 0 103 103">
  <defs>
    <filter id="Trazado_982547" x="0" y="0" width="103" height="103" filterUnits="userSpaceOnUse">
      <feOffset dy="3" input="SourceAlpha"/>
      <feGaussianBlur stdDeviation="3" result="blur"/>
      <feFlood flood-opacity="0.161"/>
      <feComposite operator="in" in2="blur"/>
      <feComposite in="SourceGraphic"/>
    </filter>
  </defs>
  <g id="Grupo_1207676" data-name="Grupo 1207676" transform="translate(-1031 -1315.329)">
    <g id="Grupo_1207518" data-name="Grupo 1207518" transform="translate(0 -2348.171)">
      <g id="Grupo_1207317" data-name="Grupo 1207317" transform="translate(0 2919.5)">
        <g id="Grupo_1202211" data-name="Grupo 1202211" transform="translate(760 -126.414)">
          <g id="Grupo_1174813" data-name="Grupo 1174813" transform="translate(280 876.414)">
            <g id="Grupo_1201680" data-name="Grupo 1201680">
              <g id="Grupo_1201330" data-name="Grupo 1201330">
                <g id="Grupo_1172010" data-name="Grupo 1172010">
                  <g id="Grupo_1171046" data-name="Grupo 1171046">
                    <g id="Grupo_1148525" data-name="Grupo 1148525">
                      <g transform="matrix(1, 0, 0, 1, -9, -6)" filter="url(#Trazado_982547)">
                        <g id="Trazado_982547-2" data-name="Trazado 982547" transform="translate(9 6)" fill="#f2f7e5">
                          <path d="M 42.5 83.5 C 36.96437835693359 83.5 31.59512901306152 82.41617584228516 26.54141235351562 80.27863311767578 C 21.65934181213379 78.21369171142578 17.27447128295898 75.25723266601562 13.50862312316895 71.49137878417969 C 9.742764472961426 67.72553253173828 6.786305904388428 63.34066009521484 4.721364498138428 58.45858764648438 C 2.583823442459106 53.40486907958984 1.5 48.03562164306641 1.5 42.5 C 1.5 36.96437835693359 2.583823442459106 31.59512901306152 4.721364498138428 26.54141235351562 C 6.786305904388428 21.65934181213379 9.742764472961426 17.27448272705078 13.50862312316895 13.50862312316895 C 17.27447128295898 9.742776870727539 21.65934181213379 6.786305904388428 26.54141235351562 4.721364498138428 C 31.59512901306152 2.583823442459106 36.96437835693359 1.5 42.5 1.5 C 48.03562164306641 1.5 53.40486907958984 2.583823442459106 58.45858764648438 4.721364498138428 C 63.34066009521484 6.786305904388428 67.72553253173828 9.742776870727539 71.49137878417969 13.50862312316895 C 75.25723266601562 17.27448272705078 78.21369171142578 21.65934181213379 80.27863311767578 26.54141235351562 C 82.41617584228516 31.59512901306152 83.5 36.96437835693359 83.5 42.5 C 83.5 48.03562164306641 82.41617584228516 53.40486907958984 80.27863311767578 58.45858764648438 C 78.21369171142578 63.34066009521484 75.25723266601562 67.72553253173828 71.49137878417969 71.49137878417969 C 67.72553253173828 75.25723266601562 63.34066009521484 78.21369171142578 58.45858764648438 80.27863311767578 C 53.40486907958984 82.41617584228516 48.03562164306641 83.5 42.5 83.5 Z" stroke="none"/>
                          <path d="M 42.5 3 C 37.16621398925781 3 31.99356079101562 4.043960571289062 27.125732421875 6.102882385253906 C 22.42246627807617 8.092185974121094 18.19785308837891 10.94070434570312 14.56928253173828 14.56928253173828 C 10.94070434570312 18.19785308837891 8.092185974121094 22.42246627807617 6.102882385253906 27.125732421875 C 4.043960571289062 31.99356079101562 3 37.16621398925781 3 42.5 C 3 47.83378601074219 4.043960571289062 53.00643920898438 6.102882385253906 57.874267578125 C 8.092185974121094 62.57753372192383 10.94070434570312 66.80214691162109 14.56928253173828 70.43071746826172 C 18.19785308837891 74.05929565429688 22.42246627807617 76.90781402587891 27.125732421875 78.89711761474609 C 31.99356079101562 80.95603942871094 37.16621398925781 82 42.5 82 C 47.83378601074219 82 53.00643920898438 80.95603942871094 57.874267578125 78.89711761474609 C 62.57753372192383 76.90781402587891 66.80214691162109 74.05929565429688 70.43071746826172 70.43071746826172 C 74.05929565429688 66.80214691162109 76.90781402587891 62.57753372192383 78.89711761474609 57.874267578125 C 80.95603942871094 53.00643920898438 82 47.83378601074219 82 42.5 C 82 37.16621398925781 80.95603942871094 31.99356079101562 78.89711761474609 27.125732421875 C 76.90781402587891 22.42246627807617 74.05929565429688 18.19785308837891 70.43071746826172 14.56928253173828 C 66.80214691162109 10.94070434570312 62.57753372192383 8.092185974121094 57.874267578125 6.102882385253906 C 53.00643920898438 4.043960571289062 47.83378601074219 3 42.5 3 M 42.5 0 C 65.97210693359375 0 85 19.02789306640625 85 42.5 C 85 65.97210693359375 65.97210693359375 85 42.5 85 C 19.02789306640625 85 0 65.97210693359375 0 42.5 C 0 19.02789306640625 19.02789306640625 0 42.5 0 Z" stroke="none" fill="#496406"/>
                        </g>
                      </g>
                    </g>
                  </g>
                </g>
              </g>
            </g>
          </g>
        </g>
      </g>
    </g>
    <g id="data-analysis_2849134" transform="translate(1055.436 1337.153)">
      <g id="Grupo_1207674" data-name="Grupo 1207674" transform="translate(1.72 1.707)">
        <g id="Grupo_1207656" data-name="Grupo 1207656" transform="translate(10.982 7.603)">
          <path id="Trazado_1052766" data-name="Trazado 1052766" d="M27.334,17.927l1.183,2.365-.845,3.379H23.448V20.293l-5.407-.541A3.375,3.375,0,0,1,15,16.39V11h3.379l.845,4.224h5.914l.845,3.379Z" transform="translate(-15 -11)" fill="#b4dd7f"/>
        </g>
        <g id="Grupo_1207657" data-name="Grupo 1207657" transform="translate(26.189 12.182)">
          <path id="Trazado_1052767" data-name="Trazado 1052767" d="M38.069,24.513H33.845L33,21.134l1.183-2.365,1.352.676.777-3.024,1.816.4a4.229,4.229,0,0,1,3.32,4.131v3.565Z" transform="translate(-33 -16.42)" fill="#b4dd7f"/>
        </g>
        <g id="Grupo_1207658" data-name="Grupo 1207658" transform="translate(23.654 16.896)">
          <path id="Trazado_1052768" data-name="Trazado 1052768" d="M32.534,22l.845,3.379H30L30.845,22Z" transform="translate(-30 -22)" fill="#ff826e"/>
        </g>
        <g id="Grupo_1207659" data-name="Grupo 1207659" transform="translate(23.316 13.517)">
          <path id="Trazado_1052769" data-name="Trazado 1052769" d="M33.655,19.014l-1.183,2.365h-1.69L29.6,19.014,31.628,18Z" transform="translate(-29.6 -18)" fill="#fc6e51"/>
        </g>
        <g id="Grupo_1207660" data-name="Grupo 1207660" transform="translate(21.12 11.827)">
          <path id="Trazado_1052770" data-name="Trazado 1052770" d="M31.224,17.69,29.2,18.7l-1.352.676L27,16h1.69Z" transform="translate(-27 -16)" fill="#a0d468"/>
        </g>
        <g id="Grupo_1207661" data-name="Grupo 1207661" transform="translate(25.344 11.827)">
          <path id="Trazado_1052771" data-name="Trazado 1052771" d="M36.156,16.355l-.777,3.024L34.028,18.7,32,17.69,34.534,16Z" transform="translate(-32 -16)" fill="#a0d468"/>
        </g>
        <g id="Grupo_1207662" data-name="Grupo 1207662" transform="translate(20.275 0)">
          <path id="Trazado_1052772" data-name="Trazado 1052772" d="M32.758,2.076V3.951a1.7,1.7,0,0,1-1.411,1.664L29.1,5.987A1.694,1.694,0,0,0,27.69,7.652V8.758a3.277,3.277,0,0,0,.152,1l-.617-.617A4.182,4.182,0,0,1,30.182,2h1.774a4.171,4.171,0,0,1,.8.076Z" transform="translate(-26 -2)" fill="#b27946"/>
        </g>
        <g id="Grupo_1207663" data-name="Grupo 1207663" transform="translate(26.831 0.076)">
          <path id="Trazado_1052773" data-name="Trazado 1052773" d="M37.342,6.2a4.182,4.182,0,0,1-1.225,2.957l-.617.617a3.277,3.277,0,0,0,.152-1V7.218a2.527,2.527,0,0,0-1.732-2.4L33.76,4.76a1.68,1.68,0,0,0,.2-.794V2.09A4.181,4.181,0,0,1,37.342,6.2Z" transform="translate(-33.76 -2.09)" fill="#b27946"/>
        </g>
        <g id="Grupo_1207664" data-name="Grupo 1207664" transform="translate(0 20.275)">
          <path id="Trazado_1052774" data-name="Trazado 1052774" d="M52.688,29.379V53.033a3.378,3.378,0,0,1-3.379,3.379H5.379A3.378,3.378,0,0,1,2,53.033V29.379a3.393,3.393,0,0,1,1.436-2.771l2.788,4.461L9.392,26H49.308A3.378,3.378,0,0,1,52.688,29.379Z" transform="translate(-2 -26)" fill="#969faa"/>
        </g>
        <g id="Grupo_1207665" data-name="Grupo 1207665" transform="translate(10.138 23.654)">
          <path id="Trazado_1052775" data-name="Trazado 1052775" d="M51.171,30.845V52.809a.847.847,0,0,1-.845.845H14.845A.847.847,0,0,1,14,52.809V30.845A.847.847,0,0,1,14.845,30H50.326A.847.847,0,0,1,51.171,30.845Z" transform="translate(-14 -30)" fill="#69d6f4"/>
        </g>
        <g id="Grupo_1207666" data-name="Grupo 1207666" transform="translate(33.792 27.033)">
          <path id="Trazado_1052776" data-name="Trazado 1052776" d="M47.069,39.069h5.069A5.069,5.069,0,1,1,47.069,34Z" transform="translate(-42 -34)" fill="#ff826e"/>
        </g>
        <g id="Grupo_1207667" data-name="Grupo 1207667" transform="translate(38.86 27.033)">
          <path id="Trazado_1052777" data-name="Trazado 1052777" d="M53.069,39.069H48V34A5.073,5.073,0,0,1,53.069,39.069Z" transform="translate(-48 -34)" fill="#b4dd7f"/>
        </g>
        <g id="Grupo_1207668" data-name="Grupo 1207668" transform="translate(3.379 30.413)">
          <path id="Trazado_1052778" data-name="Trazado 1052778" d="M9.379,38.845v8.448a.847.847,0,0,1-.845.845H6.845A.847.847,0,0,1,6,47.293V38.845A.847.847,0,0,1,6.845,38h1.69A.847.847,0,0,1,9.379,38.845Z" transform="translate(-6 -38)" fill="#e6e9ed"/>
        </g>
        <g id="Grupo_1207669" data-name="Grupo 1207669" transform="translate(42.24)">
          <path id="Trazado_1052779" data-name="Trazado 1052779" d="M56.224,2l4.224,6.758H57.914V18.9H54.534V8.758H52Z" transform="translate(-52 -2)" fill="#ffeaa7"/>
        </g>
        <g id="Grupo_1207670" data-name="Grupo 1207670" transform="translate(21.965 2.746)">
          <path id="Trazado_1052780" data-name="Trazado 1052780" d="M34.758,7.708V9.263a3.277,3.277,0,0,1-.152,1,3.408,3.408,0,0,1-.836,1.394,3.116,3.116,0,0,1-.591.465,3.379,3.379,0,0,1-5.027-1.859,3.277,3.277,0,0,1-.152-1V8.156a1.694,1.694,0,0,1,1.411-1.664l2.247-.372a1.668,1.668,0,0,0,1.208-.87l.161.059a2.527,2.527,0,0,1,1.732,2.4Z" transform="translate(-28 -5.25)" fill="#f0d0b4"/>
        </g>
        <g id="Grupo_1207671" data-name="Grupo 1207671" transform="translate(22.809 9.614)">
          <path id="Trazado_1052781" data-name="Trazado 1052781" d="M33.334,13.388l.735,2.2-2.534,1.69L29,15.593l.735-2.2V13.38a3.353,3.353,0,0,0,3.6,0Z" transform="translate(-29 -13.38)" fill="#f0d0b4"/>
        </g>
        <g id="Grupo_1207672" data-name="Grupo 1207672" transform="translate(10.982 1.69)">
          <path id="Trazado_1052782" data-name="Trazado 1052782" d="M20.069,5.69V7.176a2.547,2.547,0,0,1-.743,1.791l-.946.946H15V5.69A1.7,1.7,0,0,1,16.69,4h1.69A1.7,1.7,0,0,1,20.069,5.69Z" transform="translate(-15 -4)" fill="#f0d0b4"/>
        </g>
        <g id="Grupo_1207673" data-name="Grupo 1207673" transform="translate(0 8.448)">
          <path id="Trazado_1052783" data-name="Trazado 1052783" d="M10.448,22.138l-1.056,1.69L6.224,28.9,3.436,24.435,2,22.138H4.534V12H7.914V22.138Z" transform="translate(-2 -12)" fill="#ffeaa7"/>
        </g>
      </g>
      <g id="Grupo_1207675" data-name="Grupo 1207675" transform="translate(0.195 0.113)">
        <path id="Trazado_1052784" data-name="Trazado 1052784" d="M8.379,37H6.69A1.691,1.691,0,0,0,5,38.69v8.448a1.691,1.691,0,0,0,1.69,1.69h1.69a1.691,1.691,0,0,0,1.69-1.69V38.69A1.691,1.691,0,0,0,8.379,37Zm0,10.138H6.69V38.69h1.69Z" transform="translate(-0.941 -5.838)"/>
        <path id="Trazado_1052785" data-name="Trazado 1052785" d="M49.028,21.275H37.2V18.553A5.1,5.1,0,0,0,33.22,13.6l-2.973-.653-.4-1.2a4.212,4.212,0,0,0,1.158-1.675l.5-.5A5.026,5.026,0,0,0,27.951,1H26.177a5.026,5.026,0,0,0-3.554,8.581l.5.5a4.221,4.221,0,0,0,1.158,1.676l-.358,1.073h-6.3L17,9.726l.627-.628a3.358,3.358,0,0,0,.99-2.39V5.224A2.537,2.537,0,0,0,16.081,2.69h-1.69a2.537,2.537,0,0,0-2.534,2.534v9.614a4.212,4.212,0,0,0,3.8,4.2l4.645.464v1.77H10.637l1.056-1.69H8.478V9.448H3.409V19.585H.2l1.868,2.988A4.228,4.228,0,0,0,.875,25.5V49.153A4.229,4.229,0,0,0,5.1,53.377H49.028a4.229,4.229,0,0,0,4.224-4.224V25.5a4.229,4.229,0,0,0-4.224-4.224ZM35.512,18.553v2.722h-1.69v-1.69h-1.69v1.69h-2.72L28.8,18.839l.666-1.33L31,18.274l.834-3.247,1.023.225a3.4,3.4,0,0,1,2.654,3.3ZM24.273,14.517l1.11.74-1.135.568-.327-1.308Zm5.495.057.416.091-.3,1.162-1.141-.571Zm-2.7,1.732.895.447L27.386,17.9H26.74l-.571-1.143Zm-.186,3.279h.371l.422,1.69H26.455ZM24.529,8.6V7.5a.842.842,0,0,1,.705-.833l2.245-.374a2.528,2.528,0,0,0,1.336-.667A1.685,1.685,0,0,1,29.6,7.05V8.6a2.534,2.534,0,1,1-5.069,0Zm6.758-2.577a3.439,3.439,0,0,1-.047.486,3.369,3.369,0,0,0-1.662-2.4,2.682,2.682,0,0,0,.019-.32v-.65a3.326,3.326,0,0,1,1.69,2.884ZM26.177,2.69h1.732v1.1a.842.842,0,0,1-.705.833L24.958,5a2.517,2.517,0,0,0-2.014,1.813A3.3,3.3,0,0,1,26.177,2.69Zm.887,10.138a4.178,4.178,0,0,0,1.288-.222l.241.722-1.529,1.019-1.529-1.019.241-.722a4.178,4.178,0,0,0,1.288.222ZM14.392,4.379h1.69a.846.846,0,0,1,.845.845V6.708a1.681,1.681,0,0,1-.5,1.2l-.7.7H13.547V5.224A.846.846,0,0,1,14.392,4.379Zm1.437,12.98a2.526,2.526,0,0,1-2.282-2.522V10.293h1.842l.846,4.224h5.946l.939,3.761,1.538-.769.666,1.33-.609,2.436h-2.72v-3.3ZM5.1,21.275V11.138h1.69V21.275H8.643l-2.7,4.319-2.7-4.319ZM51.563,49.153a2.537,2.537,0,0,1-2.534,2.534H5.1a2.537,2.537,0,0,1-2.534-2.534V25.5a2.52,2.52,0,0,1,.448-1.406l2.931,4.689,3.637-5.818H49.028A2.537,2.537,0,0,1,51.563,25.5Z" transform="translate(-0.195 -0.251)"/>
        <path id="Trazado_1052786" data-name="Trazado 1052786" d="M50.171,29H14.69A1.691,1.691,0,0,0,13,30.69V52.654a1.691,1.691,0,0,0,1.69,1.69H50.171a1.691,1.691,0,0,0,1.69-1.69V30.69A1.691,1.691,0,0,0,50.171,29Zm0,23.654H14.69V30.69H50.171Z" transform="translate(-2.182 -4.596)"/>
        <path id="Trazado_1052787" data-name="Trazado 1052787" d="M46.914,44.827A5.914,5.914,0,1,0,41,38.914,5.921,5.921,0,0,0,46.914,44.827Zm4.139-6.758H47.758V34.775A4.237,4.237,0,0,1,51.052,38.069Zm-4.983-3.294v4.983h4.983a4.224,4.224,0,1,1-4.983-4.983Z" transform="translate(-6.528 -5.217)"/>
        <path id="Trazado_1052788" data-name="Trazado 1052788" d="M47,49h6.758v1.69H47Z" transform="translate(-7.459 -7.701)"/>
        <path id="Trazado_1052789" data-name="Trazado 1052789" d="M41,49h3.379v1.69H41Z" transform="translate(-6.528 -7.701)"/>
        <path id="Trazado_1052790" data-name="Trazado 1052790" d="M41,53H52.827v1.69H41Z" transform="translate(-6.528 -8.321)"/>
        <path id="Trazado_1052791" data-name="Trazado 1052791" d="M32.206,44.069h-1.69v6.758h-1.69V39h-1.69V50.827h-1.69V47.448h-1.69v3.379h-1.69V42.379h-1.69v8.448H18.69V45.758H17v6.758H32.206Z" transform="translate(-2.803 -6.149)"/>
        <path id="Trazado_1052792" data-name="Trazado 1052792" d="M17,33h1.69v1.69H17Z" transform="translate(-2.803 -5.217)"/>
        <path id="Trazado_1052793" data-name="Trazado 1052793" d="M21,33h1.69v1.69H21Z" transform="translate(-3.424 -5.217)"/>
        <path id="Trazado_1052794" data-name="Trazado 1052794" d="M25,33h1.69v1.69H25Z" transform="translate(-4.045 -5.217)"/>
        <path id="Trazado_1052795" data-name="Trazado 1052795" d="M53.409,19.448h5.069V9.31h3.214L55.944.113,50.2,9.31h3.214ZM53.245,7.621l2.7-4.319,2.7,4.319H56.789V17.758H55.1V7.621Z" transform="translate(-7.955 -0.113)"/>
      </g>
    </g>
  </g>
</svg>
