<svg xmlns="http://www.w3.org/2000/svg" width="295" height="89.792" viewBox="0 0 295 89.792">
  <g id="Grupo_1207794" data-name="Grupo 1207794" transform="translate(-1125 -3374.208)">
    <rect id="Rectángulo_419456" data-name="Rectángulo 419456" width="295" height="55" rx="2" transform="translate(1125 3398)" fill="#103d47"/>
    <path id="Trazado_1053177" data-name="Trazado 1053177" d="M2,0H251a2,2,0,0,1,2,2V75a2,2,0,0,1-2,2H2a2,2,0,0,1-2-2V2A2,2,0,0,1,2,0Z" transform="translate(1146 3387)" fill="#1d7083"/>
    <g id="presentation_682509" transform="translate(1224 3351.878)">
      <rect id="Rectángulo_419522" data-name="Rectángulo 419522" width="70.482" height="54.267" transform="translate(22.889 27.3)" fill="#e5e5da"/>
      <g id="Grupo_1207646" data-name="Grupo 1207646" transform="translate(22.889 27.3)">
        <path id="Trazado_1052665" data-name="Trazado 1052665" d="M144.933,168.409a7.857,7.857,0,0,1-6.089,7.685c-.126.031-.255.057-.385.081a15.017,15.017,0,0,1-2.081,3.854H119.89v-36h20.527a1.473,1.473,0,0,1,1.468,1.344l.193,2.148a42.812,42.812,0,0,1-1.447,13.858A7.874,7.874,0,0,1,144.933,168.409Z" transform="translate(-119.89 -125.761)" fill="#d1d0bf"/>
        <rect id="Rectángulo_419523" data-name="Rectángulo 419523" width="70.482" height="6.093" fill="#d1d0bf"/>
        <rect id="Rectángulo_419524" data-name="Rectángulo 419524" width="70.482" height="5.863" transform="translate(0 48.404)" fill="#d1d0bf"/>
      </g>
      <g id="Grupo_1207647" data-name="Grupo 1207647" transform="translate(1.432 23.762)">
        <rect id="Rectángulo_419525" data-name="Rectángulo 419525" width="76.377" height="5.896" transform="translate(18.51)" fill="#f2f2f0"/>
        <rect id="Rectángulo_419526" data-name="Rectángulo 419526" width="76.377" height="5.896" transform="translate(18.51 55.447)" fill="#f2f2f0"/>
        <path id="Trazado_1052666" data-name="Trazado 1052666" d="M38.464,365.837H28.224l-13.371,3.319a9.687,9.687,0,0,0-7.353,9.4v9.49H59.188v-9.49a9.687,9.687,0,0,0-7.353-9.4Z" transform="translate(-7.5 -301.687)" fill="#f2f2f0"/>
      </g>
      <g id="Grupo_1207648" data-name="Grupo 1207648" transform="translate(1.432 91.426)">
        <path id="Trazado_1052667" data-name="Trazado 1052667" d="M14.181,384.239a13.237,13.237,0,0,0-4.039,9.207v9.49H7.5v-9.49A9.683,9.683,0,0,1,14.181,384.239Z" transform="translate(-7.502 -384.239)" fill="#e5e5da"/>
        <path id="Trazado_1052668" data-name="Trazado 1052668" d="M243.248,384.239a13.237,13.237,0,0,1,4.039,9.207v9.49h2.639v-9.49A9.683,9.683,0,0,0,243.248,384.239Z" transform="translate(-198.239 -384.239)" fill="#e5e5da"/>
      </g>
      <g id="Grupo_1207649" data-name="Grupo 1207649" transform="translate(23.007 91.199)">
        <path id="Trazado_1052669" data-name="Trazado 1052669" d="M131.854,433.308h-6.8l1.731-11.53h3.341Z" transform="translate(-124.183 -414.384)" fill="#00c3ff"/>
        <path id="Trazado_1052670" data-name="Trazado 1052670" d="M122.64,390.445l-2.134-3.7,2.134-3.7h4.269l2.134,3.7-2.134,3.7Z" transform="translate(-120.506 -383.051)" fill="#00c3ff"/>
      </g>
      <g id="Grupo_1207650" data-name="Grupo 1207650" transform="translate(10.452 65.886)">
        <rect id="Rectángulo_419527" data-name="Rectángulo 419527" width="10.768" height="9.976" transform="translate(11.439 13.71)" fill="#f7c9a4"/>
        <path id="Trazado_1052671" data-name="Trazado 1052671" d="M196.555,254.531a4.061,4.061,0,0,1-3.128,3.953,3.975,3.975,0,0,1-.933.11,4.062,4.062,0,1,1,4.061-4.063Z" transform="translate(-162.908 -250.47)" fill="#f7c9a4"/>
        <path id="Trazado_1052672" data-name="Trazado 1052672" d="M62.872,254.531a4.062,4.062,0,0,1-4.063,4.063,3.987,3.987,0,0,1-.935-.11,4.061,4.061,0,0,1-.036-7.9,3.984,3.984,0,0,1,.971-.118A4.062,4.062,0,0,1,62.872,254.531Z" transform="translate(-54.746 -250.47)" fill="#f7c9a4"/>
      </g>
      <path id="Trazado_1052673" data-name="Trazado 1052673" d="M106.441,210.932v14.245a11.249,11.249,0,1,1-22.5,0V210.932Z" transform="translate(-67.916 -152.594)" fill="#ffd9b6"/>
      <path id="Trazado_1052674" data-name="Trazado 1052674" d="M79.818,180.589s-3.431-11.586,2.535-13.7a3.928,3.928,0,0,1,3.805-2.788h18.885a38.061,38.061,0,0,1-2.725,16.489l-2.584-.433V177.08a101.314,101.314,0,0,0-17.147-1.25v4.327Z" transform="translate(-63.785 -114.703)" fill="#694b4b"/>
      <g id="Grupo_1207651" data-name="Grupo 1207651" transform="translate(17.757 84.891)">
        <path id="Trazado_1052675" data-name="Trazado 1052675" d="M94.787,350.013l7.74,4.663L99.4,361.07l-6.394-6.586Z" transform="translate(-93.008 -350.013)" fill="#e5e5da"/>
        <path id="Trazado_1052676" data-name="Trazado 1052676" d="M150.6,350.013l-7.74,4.663,3.125,6.394,6.394-6.586Z" transform="translate(-133.346 -350.013)" fill="#e5e5da"/>
      </g>
      <rect id="Rectángulo_419528" data-name="Rectángulo 419528" width="6.826" height="28.292" transform="translate(76.272 37.594)" fill="#00c3ff"/>
      <g id="Grupo_1207652" data-name="Grupo 1207652" transform="translate(51.304 42.695)">
        <rect id="Rectángulo_419529" data-name="Rectángulo 419529" width="6.826" height="23.191" transform="translate(12.456)" fill="#ff5f5f"/>
        <rect id="Rectángulo_419530" data-name="Rectángulo 419530" width="6.826" height="20.322" transform="translate(0 2.87)" fill="#ff5f5f"/>
      </g>
      <path id="Trazado_1052677" data-name="Trazado 1052677" d="M93.371,49.683A1.432,1.432,0,0,0,94.8,48.251V31.09h1.516a1.432,1.432,0,0,0,1.432-1.432v-5.9a1.432,1.432,0,0,0-1.432-1.432H74.077a1.432,1.432,0,1,0,0,2.864h20.81v3.032H21.373V25.194h45.8a1.432,1.432,0,1,0,0-2.864H19.941a1.432,1.432,0,0,0-1.432,1.432v5.9a1.432,1.432,0,0,0,1.432,1.432h1.516V48.036A5.328,5.328,0,0,0,17.45,51.1c-4.877,2.349-3.967,9.851-3.236,13.362a5.325,5.325,0,0,0-1.009.15,5.493,5.493,0,0,0,.039,10.679,5.413,5.413,0,0,0,1.272.149c.136,0,.271-.006.406-.016a12.716,12.716,0,0,0,5.538,7.84v.51l-.184-.111a1.432,1.432,0,0,0-2.069.7l-1.349,3.391L12.7,88.784a1.432,1.432,0,1,0,.69,2.779l3.631-.9,4.683,4.824c.019.042.038.085.062.125l2.135,3.7a1.426,1.426,0,0,0,.121.176l-1.382,9.206H11.112v-3.64a1.432,1.432,0,0,0-2.864,0v3.64H2.864v-8.059A8.252,8.252,0,0,1,7.8,93.072a1.432,1.432,0,0,0-1.149-2.623A11.116,11.116,0,0,0,0,100.632v9.491a1.432,1.432,0,0,0,1.432,1.432H53.12a1.432,1.432,0,0,0,1.432-1.432v-9.491A11.1,11.1,0,0,0,46.11,89.841L37.7,87.753l-.484-1.216H56.7v23.586a1.432,1.432,0,1,0,2.864,0V86.536H96.319A1.432,1.432,0,0,0,97.751,85.1v-5.9a1.432,1.432,0,0,0-1.432-1.432H94.8V54.569a1.432,1.432,0,1,0-2.864,0V77.777H38.84a12.582,12.582,0,0,0,.792-2.351c.134.01.27.016.406.016A5.386,5.386,0,0,0,41.3,75.3a5.5,5.5,0,0,0,3.566-7.978h42.48a1.432,1.432,0,0,0,0-2.864H84.53V37.595A1.432,1.432,0,0,0,83.1,36.163H76.272a1.432,1.432,0,0,0-1.432,1.432V64.454H72.017V42.7a1.432,1.432,0,0,0-1.432-1.432H63.759A1.432,1.432,0,0,0,62.327,42.7V64.454H59.562V45.564a1.432,1.432,0,0,0-1.432-1.432H51.3a1.432,1.432,0,0,0-1.432,1.432v18.89h-9.24A39.767,39.767,0,0,0,42.685,49.27a1.432,1.432,0,0,0-1.426-1.305H24.321V31.09H91.939V48.251A1.432,1.432,0,0,0,93.371,49.683ZM13.908,72.507a2.63,2.63,0,0,1-.015-5.114,2.558,2.558,0,0,1,.623-.075c.027,0,.053,0,.08,0v5.253A2.584,2.584,0,0,1,13.908,72.507Zm3.552.075v-5.47l1.564-.244a1.432,1.432,0,0,0,1.211-1.415V62.566a107.92,107.92,0,0,1,14.283,1.028v1.859a1.432,1.432,0,0,0,1.2,1.412l1.38.231v5.485a9.817,9.817,0,1,1-19.634,0Zm5.863,12.046a12.636,12.636,0,0,0,7.906,0V85.5l-3.953,2.382L23.323,85.5v-.873Zm5.692,24.062H25.538l1.3-8.666h.876ZM27.276,92.816l1.749,3.579-.443.767H25.969l-.443-.767Zm3.517.673L29.138,90.1l5.171-3.115.812,2.041Zm-10.55-6.5L25.413,90.1l-1.654,3.385L19.43,89.03Zm31.445,13.643v8.059H46.3v-3.64a1.432,1.432,0,0,0-2.864,0v3.64H31.911l-1.382-9.207a1.427,1.427,0,0,0,.121-.175l2.134-3.7c.023-.041.042-.083.061-.125l4.683-4.824,7.892,1.959A8.241,8.241,0,0,1,51.688,100.632Zm43.2-19.991v3.032H35.766a1.427,1.427,0,0,0-1.489-.008l-.184.111v-.509a12.781,12.781,0,0,0,2.968-2.626H94.887ZM40.634,72.509a2.543,2.543,0,0,1-.6.069c-.027,0-.053,0-.08,0V67.322a2.629,2.629,0,0,1,.677,5.187ZM77.7,39.027h3.962V64.454H77.7Zm-12.513,5.1h3.962V64.454H65.191ZM52.736,47H56.7V64.454H52.736ZM37.642,64.285l-.26-.044V62.376a1.432,1.432,0,0,0-1.165-1.407A101.9,101.9,0,0,0,18.8,59.695a1.432,1.432,0,0,0-1.432,1.432v3.1l-.262.041c-.612-2.776-1.672-9.455,1.938-10.734a1.432,1.432,0,0,0,.9-.977,2.441,2.441,0,0,1,2.423-1.729H39.888A37.114,37.114,0,0,1,37.642,64.285Z"/>
      <path id="Trazado_1052678" data-name="Trazado 1052678" d="M150.622,120.482h11.962a1.432,1.432,0,1,0,0-2.864H150.622a1.432,1.432,0,1,0,0,2.864Z" transform="translate(-120.707 -77.096)"/>
      <path id="Trazado_1052679" data-name="Trazado 1052679" d="M277.871,270.145a1.432,1.432,0,1,0,0,2.864h.607a1.432,1.432,0,0,0,0-2.864Z" transform="translate(-223.661 -200.502)"/>
      <path id="Trazado_1052680" data-name="Trazado 1052680" d="M344.174,270.145a1.432,1.432,0,0,0,0,2.864h.607a1.432,1.432,0,0,0,0-2.864Z" transform="translate(-277.306 -200.502)"/>
      <path id="Trazado_1052681" data-name="Trazado 1052681" d="M410.478,270.145a1.432,1.432,0,1,0,0,2.864h.607a1.432,1.432,0,1,0,0-2.864Z" transform="translate(-330.951 -200.502)"/>
      <path id="Trazado_1052682" data-name="Trazado 1052682" d="M109.685,265.608a1.432,1.432,0,0,1-1.432-1.432v-1a1.432,1.432,0,0,1,2.864,0v1A1.432,1.432,0,0,1,109.685,265.608Z" transform="translate(-87.585 -193.708)"/>
      <path id="Trazado_1052683" data-name="Trazado 1052683" d="M164.477,265.608a1.432,1.432,0,0,1-1.432-1.432v-1a1.432,1.432,0,0,1,2.864,0v1A1.432,1.432,0,0,1,164.477,265.608Z" transform="translate(-131.916 -193.708)"/>
    </g>
  </g>
</svg>
