<svg xmlns="http://www.w3.org/2000/svg" width="539.396" height="363.721" viewBox="0 0 539.396 363.721">
  <g id="Grupo_1209094" data-name="Grupo 1209094" transform="translate(-531 -5554.49)">
    <path id="Trazado_1056243" data-name="Trazado 1056243" d="M0,0H54V289H0Z" transform="translate(531 5593)" fill="#cee29d"/>
    <g id="Trazado_1056244" data-name="Trazado 1056244" transform="translate(584 5743)" fill="#c1f0fa">
      <path d="M 90.5 137.5 L 0.5 137.5 L 0.5 0.5 L 90.5 0.5 L 90.5 137.5 Z" stroke="none"/>
      <path d="M 1 1 L 1 137 L 90 137 L 90 1 L 1 1 M 0 0 L 91 0 L 91 138 L 0 138 L 0 0 Z" stroke="none" fill="#707070"/>
    </g>
    <g id="Trazado_1056245" data-name="Trazado 1056245" transform="translate(674 5743)" fill="#c1f0fa">
      <path d="M 88.5 137.5 L 0.5 137.5 L 0.5 0.5 L 88.5 0.5 L 88.5 137.5 Z" stroke="none"/>
      <path d="M 1 1 L 1 137 L 88 137 L 88 1 L 1 1 M 0 0 L 89 0 L 89 138 L 0 138 L 0 0 Z" stroke="none" fill="#1d7083"/>
    </g>
    <g id="Trazado_1056246" data-name="Trazado 1056246" transform="translate(762 5743)" fill="#c1f0fa">
      <path d="M 88.5 137.5 L 0.5 137.5 L 0.5 0.5 L 88.5 0.5 L 88.5 137.5 Z" stroke="none"/>
      <path d="M 1 1 L 1 137 L 88 137 L 88 1 L 1 1 M 0 0 L 89 0 L 89 138 L 0 138 L 0 0 Z" stroke="none" fill="#1d7083"/>
    </g>
    <g id="Trazado_1056247" data-name="Trazado 1056247" transform="translate(850 5743)" fill="#c1f0fa">
      <path d="M 86.5 137.5 L 0.5 137.5 L 0.5 0.5 L 86.5 0.5 L 86.5 137.5 Z" stroke="none"/>
      <path d="M 1 1 L 1 137 L 86 137 L 86 1 L 1 1 M 0 0 L 87 0 L 87 138 L 0 138 L 0 0 Z" stroke="none" fill="#1d7083"/>
    </g>
    <g id="Trazado_1052548" data-name="Trazado 1052548" transform="translate(936 5743)" fill="#c1f0fa">
      <path d="M 84.53491973876953 137.5 L 0.5 137.5 L 0.5 0.5 L 94.46245574951172 0.5 L 84.53491973876953 137.5 Z" stroke="none"/>
      <path d="M 1 1 L 1 137 L 84.06984710693359 137 L 93.92491912841797 1 L 1 1 M 0 0 L 95 0 L 85 138 L 0 138 L 0 0 Z" stroke="none" fill="#1d7083"/>
    </g>
    <path id="Trazado_1056248" data-name="Trazado 1056248" d="M3.129-4.764V0H1.652V-12.6H5.115a4.571,4.571,0,0,1,3.133.984A3.515,3.515,0,0,1,9.36-8.842,3.82,3.82,0,0,1,8.125-5.906,4.718,4.718,0,0,1,4.79-4.764Zm0-6.5V-6.1H4.676a3.458,3.458,0,0,0,2.333-.7,2.474,2.474,0,0,0,.8-1.973q0-2.5-2.953-2.5ZM20.77,0H19.013L16.9-3.533a7.7,7.7,0,0,0-.562-.839,3.207,3.207,0,0,0-.558-.567,1.933,1.933,0,0,0-.615-.321,2.53,2.53,0,0,0-.743-.1H13.212V0H11.735V-12.6H15.5a5.361,5.361,0,0,1,1.525.207,3.412,3.412,0,0,1,1.213.628,2.92,2.92,0,0,1,.8,1.05,3.483,3.483,0,0,1,.29,1.472,3.545,3.545,0,0,1-.2,1.208,3.156,3.156,0,0,1-.562.98,3.41,3.41,0,0,1-.879.734,4.487,4.487,0,0,1-1.156.47v.035a2.658,2.658,0,0,1,.549.321,3.023,3.023,0,0,1,.444.426,5.646,5.646,0,0,1,.417.558q.207.312.461.725ZM13.212-11.268V-6.7h2a3.039,3.039,0,0,0,1.024-.167,2.37,2.37,0,0,0,.813-.479,2.172,2.172,0,0,0,.536-.765,2.56,2.56,0,0,0,.193-1.015,1.976,1.976,0,0,0-.655-1.578,2.813,2.813,0,0,0-1.894-.567ZM23.98,0H22.5V-12.6H23.98ZM40.145,0H38.677V-8.455q0-1,.123-2.452h-.035a7.84,7.84,0,0,1-.378,1.222L34.081,0H33.36l-4.3-9.615a7.533,7.533,0,0,1-.378-1.292h-.035q.07.756.07,2.47V0H27.3V-12.6h1.951l3.867,8.789a11.254,11.254,0,0,1,.58,1.512h.053q.378-1.037.606-1.547L38.3-12.6h1.846ZM53.216,0H51.581L50.245-3.533H44.9L43.645,0H42l4.834-12.6h1.529ZM49.762-4.86l-1.978-5.37a5.142,5.142,0,0,1-.193-.844h-.035a4.708,4.708,0,0,1-.2.844l-1.96,5.37ZM64.108,0H62.35L60.24-3.533a7.7,7.7,0,0,0-.562-.839,3.207,3.207,0,0,0-.558-.567A1.933,1.933,0,0,0,58.5-5.26a2.53,2.53,0,0,0-.743-.1H56.549V0H55.072V-12.6h3.762a5.361,5.361,0,0,1,1.525.207,3.412,3.412,0,0,1,1.213.628,2.92,2.92,0,0,1,.8,1.05,3.483,3.483,0,0,1,.29,1.472,3.545,3.545,0,0,1-.2,1.208,3.156,3.156,0,0,1-.562.98,3.41,3.41,0,0,1-.879.734,4.487,4.487,0,0,1-1.156.47v.035a2.658,2.658,0,0,1,.549.321,3.023,3.023,0,0,1,.444.426,5.646,5.646,0,0,1,.417.558q.207.312.461.725ZM56.549-11.268V-6.7h2a3.039,3.039,0,0,0,1.024-.167,2.37,2.37,0,0,0,.813-.479,2.172,2.172,0,0,0,.536-.765,2.56,2.56,0,0,0,.193-1.015,1.976,1.976,0,0,0-.655-1.578,2.813,2.813,0,0,0-1.894-.567ZM73.69-12.6,69.532-4.658V0H68.056V-4.623L64-12.6h1.679l2.821,5.7q.053.105.308.773h.026a4.624,4.624,0,0,1,.334-.773l2.953-5.7ZM90.137,0H88.5L87.167-3.533H81.823L80.566,0H78.923l4.834-12.6h1.529ZM86.683-4.86l-1.978-5.37a5.142,5.142,0,0,1-.193-.844h-.035a4.708,4.708,0,0,1-.2.844l-1.96,5.37ZM100.22-.527a7.392,7.392,0,0,1-3.48.738,5.613,5.613,0,0,1-4.307-1.731,6.389,6.389,0,0,1-1.617-4.544,6.7,6.7,0,0,1,1.819-4.887,6.175,6.175,0,0,1,4.614-1.863,7.4,7.4,0,0,1,2.971.519v1.573a6.024,6.024,0,0,0-2.988-.756,4.585,4.585,0,0,0-3.52,1.45,5.463,5.463,0,0,0-1.349,3.876,5.2,5.2,0,0,0,1.261,3.669,4.292,4.292,0,0,0,3.309,1.367,6.208,6.208,0,0,0,3.287-.844Zm10.021-10.74H106.6V0h-1.477V-11.268H101.5V-12.6h8.745ZM113.7,0h-1.477V-12.6H113.7Zm12.684-12.6L121.715,0h-1.626l-4.57-12.6h1.644l3.489,9.993a5.933,5.933,0,0,1,.255,1.116h.035a5.475,5.475,0,0,1,.29-1.134l3.56-9.976ZM129.671,0h-1.477V-12.6h1.477Zm10.768-11.268H136.8V0h-1.477V-11.268h-3.63V-12.6h8.745ZM143.9,0h-1.477V-12.6H143.9Zm9.995,0h-6.68V-12.6h6.4v1.336h-4.922v4.192h4.553v1.327h-4.553v4.412h5.2Zm1.839-.51V-2.25a3.38,3.38,0,0,0,.716.475,5.8,5.8,0,0,0,.879.356,7,7,0,0,0,.927.224,5.17,5.17,0,0,0,.861.079,3.374,3.374,0,0,0,2.035-.505,1.709,1.709,0,0,0,.672-1.455,1.708,1.708,0,0,0-.224-.888,2.525,2.525,0,0,0-.62-.69,6.148,6.148,0,0,0-.936-.6q-.541-.286-1.165-.6-.659-.334-1.23-.677a5.332,5.332,0,0,1-.993-.756,3.153,3.153,0,0,1-.664-.936,2.9,2.9,0,0,1-.242-1.226,2.883,2.883,0,0,1,.378-1.5,3.242,3.242,0,0,1,.993-1.05,4.5,4.5,0,0,1,1.4-.615,6.419,6.419,0,0,1,1.6-.2,6.147,6.147,0,0,1,2.716.448v1.661a4.923,4.923,0,0,0-2.865-.773,4.712,4.712,0,0,0-.967.1,2.731,2.731,0,0,0-.861.33,1.908,1.908,0,0,0-.615.589,1.563,1.563,0,0,0-.237.879,1.809,1.809,0,0,0,.18.835,2.046,2.046,0,0,0,.532.642,5.3,5.3,0,0,0,.857.563q.505.272,1.165.6.677.334,1.283.7a5.865,5.865,0,0,1,1.063.817,3.632,3.632,0,0,1,.725.993,2.792,2.792,0,0,1,.268,1.248A3.165,3.165,0,0,1,163-1.6a2.993,2.993,0,0,1-.984,1.05,4.3,4.3,0,0,1-1.428.584,7.822,7.822,0,0,1-1.705.18,6.948,6.948,0,0,1-.738-.048q-.439-.048-.9-.141a7.315,7.315,0,0,1-.866-.229A2.694,2.694,0,0,1,155.729-.51Z" transform="translate(565 5828) rotate(-90)" fill="#212429"/>
    <path id="Trazado_1056249" data-name="Trazado 1056249" d="M3.129-4.764V0H1.652V-12.6H5.115a4.571,4.571,0,0,1,3.133.984A3.515,3.515,0,0,1,9.36-8.842,3.82,3.82,0,0,1,8.125-5.906,4.718,4.718,0,0,1,4.79-4.764Zm0-6.5V-6.1H4.676a3.458,3.458,0,0,0,2.333-.7,2.474,2.474,0,0,0,.8-1.973q0-2.5-2.953-2.5ZM20.77,0H19.013L16.9-3.533a7.7,7.7,0,0,0-.562-.839,3.207,3.207,0,0,0-.558-.567,1.933,1.933,0,0,0-.615-.321,2.53,2.53,0,0,0-.743-.1H13.212V0H11.735V-12.6H15.5a5.361,5.361,0,0,1,1.525.207,3.412,3.412,0,0,1,1.213.628,2.92,2.92,0,0,1,.8,1.05,3.483,3.483,0,0,1,.29,1.472,3.545,3.545,0,0,1-.2,1.208,3.156,3.156,0,0,1-.562.98,3.41,3.41,0,0,1-.879.734,4.487,4.487,0,0,1-1.156.47v.035a2.658,2.658,0,0,1,.549.321,3.023,3.023,0,0,1,.444.426,5.646,5.646,0,0,1,.417.558q.207.312.461.725ZM13.212-11.268V-6.7h2a3.039,3.039,0,0,0,1.024-.167,2.37,2.37,0,0,0,.813-.479,2.172,2.172,0,0,0,.536-.765,2.56,2.56,0,0,0,.193-1.015,1.976,1.976,0,0,0-.655-1.578,2.813,2.813,0,0,0-1.894-.567ZM23.98,0H22.5V-12.6H23.98ZM40.145,0H38.677V-8.455q0-1,.123-2.452h-.035a7.84,7.84,0,0,1-.378,1.222L34.081,0H33.36l-4.3-9.615a7.533,7.533,0,0,1-.378-1.292h-.035q.07.756.07,2.47V0H27.3V-12.6h1.951l3.867,8.789a11.254,11.254,0,0,1,.58,1.512h.053q.378-1.037.606-1.547L38.3-12.6h1.846ZM53.216,0H51.581L50.245-3.533H44.9L43.645,0H42l4.834-12.6h1.529ZM49.762-4.86l-1.978-5.37a5.142,5.142,0,0,1-.193-.844h-.035a4.708,4.708,0,0,1-.2.844l-1.96,5.37ZM64.108,0H62.35L60.24-3.533a7.7,7.7,0,0,0-.562-.839,3.207,3.207,0,0,0-.558-.567A1.933,1.933,0,0,0,58.5-5.26a2.53,2.53,0,0,0-.743-.1H56.549V0H55.072V-12.6h3.762a5.361,5.361,0,0,1,1.525.207,3.412,3.412,0,0,1,1.213.628,2.92,2.92,0,0,1,.8,1.05,3.483,3.483,0,0,1,.29,1.472,3.545,3.545,0,0,1-.2,1.208,3.156,3.156,0,0,1-.562.98,3.41,3.41,0,0,1-.879.734,4.487,4.487,0,0,1-1.156.47v.035a2.658,2.658,0,0,1,.549.321,3.023,3.023,0,0,1,.444.426,5.646,5.646,0,0,1,.417.558q.207.312.461.725ZM56.549-11.268V-6.7h2a3.039,3.039,0,0,0,1.024-.167,2.37,2.37,0,0,0,.813-.479,2.172,2.172,0,0,0,.536-.765,2.56,2.56,0,0,0,.193-1.015,1.976,1.976,0,0,0-.655-1.578,2.813,2.813,0,0,0-1.894-.567ZM73.69-12.6,69.532-4.658V0H68.056V-4.623L64-12.6h1.679l2.821,5.7q.053.105.308.773h.026a4.624,4.624,0,0,1,.334-.773l2.953-5.7ZM90.137,0H88.5L87.167-3.533H81.823L80.566,0H78.923l4.834-12.6h1.529ZM86.683-4.86l-1.978-5.37a5.142,5.142,0,0,1-.193-.844h-.035a4.708,4.708,0,0,1-.2.844l-1.96,5.37ZM100.22-.527a7.392,7.392,0,0,1-3.48.738,5.613,5.613,0,0,1-4.307-1.731,6.389,6.389,0,0,1-1.617-4.544,6.7,6.7,0,0,1,1.819-4.887,6.175,6.175,0,0,1,4.614-1.863,7.4,7.4,0,0,1,2.971.519v1.573a6.024,6.024,0,0,0-2.988-.756,4.585,4.585,0,0,0-3.52,1.45,5.463,5.463,0,0,0-1.349,3.876,5.2,5.2,0,0,0,1.261,3.669,4.292,4.292,0,0,0,3.309,1.367,6.208,6.208,0,0,0,3.287-.844Zm10.021-10.74H106.6V0h-1.477V-11.268H101.5V-12.6h8.745ZM113.7,0h-1.477V-12.6H113.7Zm12.684-12.6L121.715,0h-1.626l-4.57-12.6h1.644l3.489,9.993a5.933,5.933,0,0,1,.255,1.116h.035a5.475,5.475,0,0,1,.29-1.134l3.56-9.976ZM129.671,0h-1.477V-12.6h1.477Zm10.768-11.268H136.8V0h-1.477V-11.268h-3.63V-12.6h8.745ZM143.9,0h-1.477V-12.6H143.9Zm9.995,0h-6.68V-12.6h6.4v1.336h-4.922v4.192h4.553v1.327h-4.553v4.412h5.2Zm1.839-.51V-2.25a3.38,3.38,0,0,0,.716.475,5.8,5.8,0,0,0,.879.356,7,7,0,0,0,.927.224,5.17,5.17,0,0,0,.861.079,3.374,3.374,0,0,0,2.035-.505,1.709,1.709,0,0,0,.672-1.455,1.708,1.708,0,0,0-.224-.888,2.525,2.525,0,0,0-.62-.69,6.148,6.148,0,0,0-.936-.6q-.541-.286-1.165-.6-.659-.334-1.23-.677a5.332,5.332,0,0,1-.993-.756,3.153,3.153,0,0,1-.664-.936,2.9,2.9,0,0,1-.242-1.226,2.883,2.883,0,0,1,.378-1.5,3.242,3.242,0,0,1,.993-1.05,4.5,4.5,0,0,1,1.4-.615,6.419,6.419,0,0,1,1.6-.2,6.147,6.147,0,0,1,2.716.448v1.661a4.923,4.923,0,0,0-2.865-.773,4.712,4.712,0,0,0-.967.1,2.731,2.731,0,0,0-.861.33,1.908,1.908,0,0,0-.615.589,1.563,1.563,0,0,0-.237.879,1.809,1.809,0,0,0,.18.835,2.046,2.046,0,0,0,.532.642,5.3,5.3,0,0,0,.857.563q.505.272,1.165.6.677.334,1.283.7a5.865,5.865,0,0,1,1.063.817,3.632,3.632,0,0,1,.725.993,2.792,2.792,0,0,1,.268,1.248A3.165,3.165,0,0,1,163-1.6a2.993,2.993,0,0,1-.984,1.05,4.3,4.3,0,0,1-1.428.584,7.822,7.822,0,0,1-1.705.18,6.948,6.948,0,0,1-.738-.048q-.439-.048-.9-.141a7.315,7.315,0,0,1-.866-.229A2.694,2.694,0,0,1,155.729-.51Z" transform="translate(710 5918)" fill="#212429"/>
    <path id="Trazado_1056250" data-name="Trazado 1056250" d="M15.133-.647A12.005,12.005,0,0,1,9.928.317,8.774,8.774,0,0,1,3.339-2.146a9,9,0,0,1-2.4-6.563,9.619,9.619,0,0,1,2.7-7.084,9.436,9.436,0,0,1,7-2.717,13.094,13.094,0,0,1,4.494.673v3.948a7.963,7.963,0,0,0-4.164-1.092A5.524,5.524,0,0,0,6.83-13.368,5.983,5.983,0,0,0,5.256-9,5.868,5.868,0,0,0,6.741-4.792a5.247,5.247,0,0,0,4,1.568,8.53,8.53,0,0,0,4.393-1.168ZM34.062,0H29.948V-7.414H22.407V0h-4.1V-18.205h4.1v7.262h7.541v-7.262h4.113ZM54.234,0H49.766L48.471-4.05H42L40.714,0H36.271L42.9-18.205H47.76Zm-6.7-7.2-1.955-6.119a7.974,7.974,0,0,1-.3-1.638h-.1a6.944,6.944,0,0,1-.317,1.587L42.872-7.2ZM60.607,0h-4.1V-18.205h4.1ZM81.123,0H76.984l-7.5-11.438a16.542,16.542,0,0,1-.914-1.511h-.051q.1.965.1,2.945V0H64.746V-18.205h4.418L76.388-7.122q.5.749.914,1.485h.051a19.464,19.464,0,0,1-.1-2.5V-18.205h3.872Zm19.03.317A8.474,8.474,0,0,1,93.78-2.228a9.138,9.138,0,0,1-2.463-6.633,9.792,9.792,0,0,1,2.5-6.982,8.659,8.659,0,0,1,6.627-2.666,8.263,8.263,0,0,1,6.3,2.552,9.408,9.408,0,0,1,2.406,6.729,9.635,9.635,0,0,1-2.495,6.919A8.562,8.562,0,0,1,100.153.317Zm.178-15.3A4.128,4.128,0,0,0,96.9-13.362a6.749,6.749,0,0,0-1.27,4.285A6.625,6.625,0,0,0,96.9-4.8a4.068,4.068,0,0,0,3.326,1.574,4.109,4.109,0,0,0,3.364-1.53A6.552,6.552,0,0,0,104.838-9a7.1,7.1,0,0,0-1.206-4.405A3.932,3.932,0,0,0,100.331-14.98Zm22.369.114h-6.424V-10.4h5.9v3.326h-5.9V0h-4.1V-18.205H122.7Zm25.327-3.339L141.756,0h-4.646l-6.2-18.205h4.418l3.8,12.67A9.074,9.074,0,0,1,139.5-3.72h.076a10.262,10.262,0,0,1,.394-1.866l3.771-12.619ZM164.874,0h-4.469L159.11-4.05h-6.475L151.354,0H146.91l6.627-18.205H158.4Zm-6.7-7.2-1.955-6.119a7.975,7.975,0,0,1-.3-1.638h-.1a6.944,6.944,0,0,1-.317,1.587l-1.98,6.17ZM177.988,0H167.146V-18.205h4.1V-3.326h6.741Zm16.771-7.884q0,8.2-7.643,8.2-7.414,0-7.414-8.011V-18.205h4.113V-7.643q0,4.418,3.453,4.418,3.39,0,3.39-4.266V-18.205h4.1ZM209.638,0H198.72V-18.205h10.5v3.339h-6.4v4.05h5.954V-7.49H202.82v4.164h6.817Z" transform="translate(691 5573)" fill="#212429"/>
    <path id="Trazado_1056251" data-name="Trazado 1056251" d="M8.051-11.268H3.129v4.359H7.682v1.327H3.129V0H1.652V-12.6h6.4Zm2.937-.018a.913.913,0,0,1-.659-.264.89.89,0,0,1-.272-.668.9.9,0,0,1,.272-.672.905.905,0,0,1,.659-.268.931.931,0,0,1,.672.268.9.9,0,0,1,.277.672.891.891,0,0,1-.277.659A.923.923,0,0,1,10.988-11.285ZM11.691,0H10.25V-9h1.441ZM19.3-7.541a1.763,1.763,0,0,0-1.09-.29,1.839,1.839,0,0,0-1.542.87,4.023,4.023,0,0,0-.62,2.373V0H14.611V-9h1.441v1.854h.035a3.143,3.143,0,0,1,.94-1.481,2.144,2.144,0,0,1,1.415-.532,2.353,2.353,0,0,1,.861.123ZM33.65,0H32.209V-5.168a3.9,3.9,0,0,0-.461-2.162A1.75,1.75,0,0,0,30.2-8a1.921,1.921,0,0,0-1.569.844,3.228,3.228,0,0,0-.646,2.021V0H26.54V-5.344Q26.54-8,24.492-8a1.9,1.9,0,0,0-1.564.8,3.288,3.288,0,0,0-.615,2.07V0H20.871V-9h1.441v1.424h.035a3.058,3.058,0,0,1,2.795-1.635,2.606,2.606,0,0,1,1.608.514,2.586,2.586,0,0,1,.94,1.349,3.212,3.212,0,0,1,2.988-1.863q2.971,0,2.971,3.665Zm9.329,0H41.5V-12.6h1.477ZM53.571,0H52.13V-5.133Q52.13-8,50.038-8a2.269,2.269,0,0,0-1.789.813,3.013,3.013,0,0,0-.708,2.052V0H46.1V-9h1.441v1.494h.035A3.248,3.248,0,0,1,50.53-9.211a2.753,2.753,0,0,1,2.259.954A4.248,4.248,0,0,1,53.571-5.5Zm4.194-1.3H57.73V0H56.289V-13.324H57.73v5.906h.035a3.408,3.408,0,0,1,3.111-1.793A3.3,3.3,0,0,1,63.588-8a4.99,4.99,0,0,1,.98,3.239,5.578,5.578,0,0,1-1.1,3.617A3.658,3.658,0,0,1,60.464.211,2.96,2.96,0,0,1,57.766-1.3Zm-.035-3.63v1.257a2.676,2.676,0,0,0,.725,1.894A2.408,2.408,0,0,0,60.3-1a2.413,2.413,0,0,0,2.052-1,4.6,4.6,0,0,0,.743-2.786A3.629,3.629,0,0,0,62.4-7.146,2.3,2.3,0,0,0,60.517-8a2.554,2.554,0,0,0-2.021.875A3.211,3.211,0,0,0,57.73-4.931ZM70.635.211A4.175,4.175,0,0,1,67.448-1.05a4.672,4.672,0,0,1-1.191-3.344A4.867,4.867,0,0,1,67.5-7.937a4.455,4.455,0,0,1,3.349-1.274,4.037,4.037,0,0,1,3.142,1.239,4.914,4.914,0,0,1,1.129,3.437A4.835,4.835,0,0,1,73.9-1.085,4.265,4.265,0,0,1,70.635.211ZM70.74-8a2.742,2.742,0,0,0-2.2.945,3.88,3.88,0,0,0-.809,2.606,3.67,3.67,0,0,0,.817,2.522A2.778,2.778,0,0,0,70.74-1a2.635,2.635,0,0,0,2.149-.905,3.928,3.928,0,0,0,.751-2.575,4,4,0,0,0-.751-2.6A2.623,2.623,0,0,0,70.74-8ZM84.7,0H83.257V-1.424h-.035A2.96,2.96,0,0,1,80.445.211q-3.217,0-3.217-3.832V-9h1.433v5.15Q78.661-1,80.84-1a2.205,2.205,0,0,0,1.736-.778,2.976,2.976,0,0,0,.681-2.035V-9H84.7ZM95.08,0H93.639V-5.133Q93.639-8,91.547-8a2.269,2.269,0,0,0-1.789.813,3.013,3.013,0,0,0-.708,2.052V0H87.61V-9h1.441v1.494h.035a3.248,3.248,0,0,1,2.953-1.705,2.753,2.753,0,0,1,2.259.954A4.248,4.248,0,0,1,95.08-5.5Zm10.4,0h-1.441V-1.529H104a3.327,3.327,0,0,1-3.094,1.74A3.362,3.362,0,0,1,98.2-1a4.958,4.958,0,0,1-1.015-3.292,5.394,5.394,0,0,1,1.125-3.577,3.71,3.71,0,0,1,3-1.345A2.885,2.885,0,0,1,104-7.752h.035v-5.572h1.441Zm-1.441-4.069V-5.4a2.575,2.575,0,0,0-.721-1.846A2.417,2.417,0,0,0,101.49-8a2.489,2.489,0,0,0-2.074.967,4.237,4.237,0,0,0-.756,2.672A3.81,3.81,0,0,0,99.385-1.9a2.37,2.37,0,0,0,1.947.9,2.462,2.462,0,0,0,1.956-.87A3.242,3.242,0,0,0,104.038-4.069ZM3.129,22H1.652V9.4H3.129Zm10.593,0H12.28V16.867Q12.28,14,10.188,14a2.269,2.269,0,0,0-1.789.813,3.013,3.013,0,0,0-.708,2.052V22H6.251V13H7.692v1.494h.035a3.248,3.248,0,0,1,2.953-1.705,2.753,2.753,0,0,1,2.259.954,4.248,4.248,0,0,1,.782,2.755ZM20.886,9.941a1.92,1.92,0,0,0-.958-.237q-1.512,0-1.512,1.907V13h2.109v1.23H18.417V22H16.984V14.23H15.446V13h1.538V11.541A3.032,3.032,0,0,1,17.8,9.3a2.759,2.759,0,0,1,2.039-.822,2.824,2.824,0,0,1,1.046.158Zm5.882,4.518a1.763,1.763,0,0,0-1.09-.29,1.839,1.839,0,0,0-1.542.87,4.023,4.023,0,0,0-.62,2.373V22H22.075V13h1.441v1.854h.035a3.143,3.143,0,0,1,.94-1.481,2.144,2.144,0,0,1,1.415-.532,2.353,2.353,0,0,1,.861.123ZM34.777,22H33.335V20.594H33.3a3.018,3.018,0,0,1-2.769,1.617,2.959,2.959,0,0,1-2.1-.712,2.466,2.466,0,0,1-.76-1.89q0-2.522,2.971-2.936l2.7-.378Q33.335,14,31.481,14a4.431,4.431,0,0,0-2.936,1.107V13.633a5.577,5.577,0,0,1,3.059-.844q3.173,0,3.173,3.357Zm-1.441-4.553-2.171.3a3.525,3.525,0,0,0-1.512.5,1.432,1.432,0,0,0-.51,1.261,1.374,1.374,0,0,0,.47,1.077A1.817,1.817,0,0,0,30.866,21a2.314,2.314,0,0,0,1.771-.751,2.685,2.685,0,0,0,.7-1.9Zm3.614,4.228V20.128a4.266,4.266,0,0,0,2.593.87q1.9,0,1.9-1.266a1.1,1.1,0,0,0-.163-.611,1.62,1.62,0,0,0-.439-.444,3.383,3.383,0,0,0-.65-.347q-.374-.154-.8-.321a10.357,10.357,0,0,1-1.05-.479,3.173,3.173,0,0,1-.756-.545,2.028,2.028,0,0,1-.457-.69,2.441,2.441,0,0,1-.154-.905,2.15,2.15,0,0,1,.29-1.121,2.572,2.572,0,0,1,.773-.817,3.607,3.607,0,0,1,1.1-.5,4.893,4.893,0,0,1,1.279-.167,5.164,5.164,0,0,1,2.092.4v1.459A4.077,4.077,0,0,0,40.219,14a2.671,2.671,0,0,0-.729.092,1.786,1.786,0,0,0-.558.259,1.2,1.2,0,0,0-.36.4,1.053,1.053,0,0,0-.127.514,1.233,1.233,0,0,0,.127.589,1.3,1.3,0,0,0,.374.422,2.855,2.855,0,0,0,.6.334q.352.149.8.325a11.131,11.131,0,0,1,1.072.47,3.678,3.678,0,0,1,.809.545,2.129,2.129,0,0,1,.514.7,2.254,2.254,0,0,1,.18.94,2.217,2.217,0,0,1-.294,1.16,2.523,2.523,0,0,1-.787.817,3.6,3.6,0,0,1-1.134.483,5.6,5.6,0,0,1-1.345.158A5.106,5.106,0,0,1,36.949,21.675Zm12.359.237a2.779,2.779,0,0,1-1.345.281q-2.364,0-2.364-2.637V14.23H44.053V13H45.6V10.8l1.441-.466V13h2.268v1.23H47.041V19.3a2.1,2.1,0,0,0,.308,1.292,1.228,1.228,0,0,0,1.02.387,1.515,1.515,0,0,0,.94-.3Zm6.62-7.453a1.763,1.763,0,0,0-1.09-.29,1.839,1.839,0,0,0-1.542.87,4.023,4.023,0,0,0-.62,2.373V22H51.235V13h1.441v1.854h.035a3.143,3.143,0,0,1,.94-1.481,2.144,2.144,0,0,1,1.415-.532,2.353,2.353,0,0,1,.861.123ZM64.772,22H63.331V20.576H63.3a2.96,2.96,0,0,1-2.777,1.635q-3.217,0-3.217-3.832V13h1.433v5.15q0,2.848,2.18,2.848a2.205,2.205,0,0,0,1.736-.778,2.976,2.976,0,0,0,.681-2.035V13h1.441Zm9.046-.413a4.684,4.684,0,0,1-2.461.624,4.074,4.074,0,0,1-3.107-1.252,4.539,4.539,0,0,1-1.182-3.248,4.99,4.99,0,0,1,1.274-3.573,4.458,4.458,0,0,1,3.4-1.349,4.735,4.735,0,0,1,2.092.439v1.477a3.665,3.665,0,0,0-2.145-.7,2.9,2.9,0,0,0-2.263.989,3.752,3.752,0,0,0-.883,2.6,3.573,3.573,0,0,0,.831,2.5A2.863,2.863,0,0,0,71.6,21a3.613,3.613,0,0,0,2.215-.782Zm6.356.325a2.779,2.779,0,0,1-1.345.281q-2.364,0-2.364-2.637V14.23H74.918V13h1.547V10.8l1.441-.466V13h2.268v1.23H77.907V19.3a2.1,2.1,0,0,0,.308,1.292,1.228,1.228,0,0,0,1.02.387,1.515,1.515,0,0,0,.94-.3Zm9.2.088H87.937V20.576H87.9a2.96,2.96,0,0,1-2.777,1.635q-3.217,0-3.217-3.832V13H83.34v5.15Q83.34,21,85.52,21a2.205,2.205,0,0,0,1.736-.778,2.976,2.976,0,0,0,.681-2.035V13h1.441Zm7.6-7.541a1.763,1.763,0,0,0-1.09-.29,1.839,1.839,0,0,0-1.542.87,4.023,4.023,0,0,0-.62,2.373V22H92.289V13h1.441v1.854h.035a3.143,3.143,0,0,1,.94-1.481,2.144,2.144,0,0,1,1.415-.532,2.353,2.353,0,0,1,.861.123Zm8.8,3.4H99.428a3.366,3.366,0,0,0,.809,2.32,2.788,2.788,0,0,0,2.127.817,4.422,4.422,0,0,0,2.795-1V21.35a5.224,5.224,0,0,1-3.138.861,3.8,3.8,0,0,1-3-1.226,5.018,5.018,0,0,1-1.09-3.45,4.921,4.921,0,0,1,1.191-3.423,3.819,3.819,0,0,1,2.958-1.323,3.384,3.384,0,0,1,2.733,1.143,4.764,4.764,0,0,1,.967,3.173Zm-1.477-1.222a2.933,2.933,0,0,0-.6-1.942A2.051,2.051,0,0,0,102.056,14a2.328,2.328,0,0,0-1.731.729,3.31,3.31,0,0,0-.879,1.907ZM14.5,44H13.034V35.545q0-1,.123-2.452h-.035a7.84,7.84,0,0,1-.378,1.222L8.438,44H7.717l-4.3-9.615a7.533,7.533,0,0,1-.378-1.292H3.006q.07.756.07,2.47V44H1.652V31.4H3.6l3.867,8.789a11.254,11.254,0,0,1,.58,1.512H8.1q.378-1.037.606-1.547L12.656,31.4H14.5Zm9.564,0H22.625V42.594H22.59a3.018,3.018,0,0,1-2.769,1.617,2.959,2.959,0,0,1-2.1-.712,2.466,2.466,0,0,1-.76-1.89q0-2.522,2.971-2.936l2.7-.378Q22.625,36,20.77,36a4.431,4.431,0,0,0-2.936,1.107V35.633a5.577,5.577,0,0,1,3.059-.844q3.173,0,3.173,3.357Zm-1.441-4.553-2.171.3a3.525,3.525,0,0,0-1.512.5,1.432,1.432,0,0,0-.51,1.261,1.374,1.374,0,0,0,.47,1.077A1.817,1.817,0,0,0,20.155,43a2.314,2.314,0,0,0,1.771-.751,2.685,2.685,0,0,0,.7-1.9ZM34.255,44H32.813V38.867Q32.813,36,30.721,36a2.269,2.269,0,0,0-1.789.813,3.013,3.013,0,0,0-.708,2.052V44H26.784V35h1.441v1.494h.035a3.248,3.248,0,0,1,2.953-1.705,2.753,2.753,0,0,1,2.259.954,4.248,4.248,0,0,1,.782,2.755Zm9.16,0H41.973V42.594h-.035a3.018,3.018,0,0,1-2.769,1.617,2.959,2.959,0,0,1-2.1-.712,2.466,2.466,0,0,1-.76-1.89q0-2.522,2.971-2.936l2.7-.378Q41.973,36,40.119,36a4.431,4.431,0,0,0-2.936,1.107V35.633a5.577,5.577,0,0,1,3.059-.844q3.173,0,3.173,3.357Zm-1.441-4.553-2.171.3a3.525,3.525,0,0,0-1.512.5,1.432,1.432,0,0,0-.51,1.261,1.374,1.374,0,0,0,.47,1.077A1.817,1.817,0,0,0,39.5,43a2.314,2.314,0,0,0,1.771-.751,2.685,2.685,0,0,0,.7-1.9Zm11.841,3.832q0,4.957-4.746,4.957A6.372,6.372,0,0,1,46.15,47.6V46.162a5.993,5.993,0,0,0,2.9.844q3.322,0,3.322-3.533v-.984h-.035a3.641,3.641,0,0,1-5.8.523,4.8,4.8,0,0,1-1.024-3.221,5.6,5.6,0,0,1,1.1-3.647,3.685,3.685,0,0,1,3.019-1.354,2.934,2.934,0,0,1,2.7,1.459h.035V35h1.441Zm-1.441-3.349V38.6a2.575,2.575,0,0,0-.725-1.837A2.387,2.387,0,0,0,49.841,36a2.5,2.5,0,0,0-2.092.971,4.335,4.335,0,0,0-.756,2.72,3.721,3.721,0,0,0,.725,2.4,2.343,2.343,0,0,0,1.92.9,2.509,2.509,0,0,0,1.973-.861A3.21,3.21,0,0,0,52.372,39.931Zm11.595-.07H57.613a3.366,3.366,0,0,0,.809,2.32A2.788,2.788,0,0,0,60.548,43a4.422,4.422,0,0,0,2.795-1V43.35a5.224,5.224,0,0,1-3.138.861,3.8,3.8,0,0,1-3-1.226,5.018,5.018,0,0,1-1.09-3.45,4.921,4.921,0,0,1,1.191-3.423,3.819,3.819,0,0,1,2.958-1.323A3.384,3.384,0,0,1,63,35.932a4.764,4.764,0,0,1,.967,3.173ZM62.49,38.639a2.933,2.933,0,0,0-.6-1.942A2.051,2.051,0,0,0,60.24,36a2.328,2.328,0,0,0-1.731.729,3.31,3.31,0,0,0-.879,1.907ZM78.928,44H77.486V38.832a3.9,3.9,0,0,0-.461-2.162A1.75,1.75,0,0,0,75.474,36a1.921,1.921,0,0,0-1.569.844,3.228,3.228,0,0,0-.646,2.021V44H71.817V38.656Q71.817,36,69.77,36a1.9,1.9,0,0,0-1.564.8,3.288,3.288,0,0,0-.615,2.07V44H66.148V35H67.59v1.424h.035a3.058,3.058,0,0,1,2.795-1.635,2.6,2.6,0,0,1,2.549,1.863,3.212,3.212,0,0,1,2.988-1.863q2.971,0,2.971,3.665Zm9.96-4.14H82.533a3.366,3.366,0,0,0,.809,2.32A2.788,2.788,0,0,0,85.469,43a4.422,4.422,0,0,0,2.795-1V43.35a5.224,5.224,0,0,1-3.138.861,3.8,3.8,0,0,1-3-1.226,5.018,5.018,0,0,1-1.09-3.45,4.921,4.921,0,0,1,1.191-3.423,3.819,3.819,0,0,1,2.958-1.323,3.384,3.384,0,0,1,2.733,1.143,4.764,4.764,0,0,1,.967,3.173Zm-1.477-1.222a2.933,2.933,0,0,0-.6-1.942A2.051,2.051,0,0,0,85.161,36a2.328,2.328,0,0,0-1.731.729,3.31,3.31,0,0,0-.879,1.907ZM98.54,44H97.1V38.867Q97.1,36,95.007,36a2.269,2.269,0,0,0-1.789.813,3.013,3.013,0,0,0-.708,2.052V44H91.069V35H92.51v1.494h.035A3.248,3.248,0,0,1,95.5,34.789a2.753,2.753,0,0,1,2.259.954A4.248,4.248,0,0,1,98.54,38.5Zm6.892-.088a2.779,2.779,0,0,1-1.345.281q-2.364,0-2.364-2.637V36.23h-1.547V35h1.547V32.8l1.441-.466V35h2.268v1.23h-2.268V41.3a2.1,2.1,0,0,0,.308,1.292,1.228,1.228,0,0,0,1.02.387,1.515,1.515,0,0,0,.94-.3Z" transform="translate(616 5869) rotate(-90)" fill="#212429"/>
    <path id="Trazado_1056252" data-name="Trazado 1056252" d="M-20.25,0h-1.477V-5.748h-6.521V0h-1.477V-12.6h1.477v5.528h6.521V-12.6h1.477ZM-9.86,0H-11.3V-1.424h-.035A2.96,2.96,0,0,1-14.114.211q-3.217,0-3.217-3.832V-9H-15.9v5.15Q-15.9-1-13.718-1a2.205,2.205,0,0,0,1.736-.778A2.976,2.976,0,0,0-11.3-3.814V-9H-9.86ZM5.831,0H4.389V-5.168A3.9,3.9,0,0,0,3.928-7.33,1.75,1.75,0,0,0,2.377-8a1.921,1.921,0,0,0-1.569.844A3.228,3.228,0,0,0,.162-5.133V0H-1.28V-5.344Q-1.28-8-3.328-8a1.9,1.9,0,0,0-1.564.8,3.288,3.288,0,0,0-.615,2.07V0H-6.949V-9h1.441v1.424h.035A3.058,3.058,0,0,1-2.677-9.211,2.606,2.606,0,0,1-1.069-8.7a2.586,2.586,0,0,1,.94,1.349A3.212,3.212,0,0,1,2.86-9.211q2.971,0,2.971,3.665ZM15,0H13.558V-1.406h-.035A3.018,3.018,0,0,1,10.754.211,2.959,2.959,0,0,1,8.649-.5a2.466,2.466,0,0,1-.76-1.89q0-2.522,2.971-2.936l2.7-.378Q13.558-8,11.7-8A4.431,4.431,0,0,0,8.768-6.891V-8.367a5.577,5.577,0,0,1,3.059-.844Q15-9.211,15-5.854ZM13.558-4.553l-2.171.3a3.525,3.525,0,0,0-1.512.5A1.432,1.432,0,0,0,9.366-2.5a1.374,1.374,0,0,0,.47,1.077A1.817,1.817,0,0,0,11.088-1a2.314,2.314,0,0,0,1.771-.751,2.685,2.685,0,0,0,.7-1.9ZM25.188,0H23.746V-5.133Q23.746-8,21.655-8a2.269,2.269,0,0,0-1.789.813,3.013,3.013,0,0,0-.708,2.052V0H17.717V-9h1.441v1.494h.035a3.248,3.248,0,0,1,2.953-1.705,2.753,2.753,0,0,1,2.259.954A4.248,4.248,0,0,1,25.188-5.5ZM-27.789,22h-1.758l-2.109-3.533a7.7,7.7,0,0,0-.562-.839,3.207,3.207,0,0,0-.558-.567,1.933,1.933,0,0,0-.615-.321,2.53,2.53,0,0,0-.743-.1h-1.213V22h-1.477V9.4h3.762a5.361,5.361,0,0,1,1.525.207,3.412,3.412,0,0,1,1.213.628,2.92,2.92,0,0,1,.8,1.05,3.483,3.483,0,0,1,.29,1.472,3.545,3.545,0,0,1-.2,1.208,3.156,3.156,0,0,1-.562.98,3.41,3.41,0,0,1-.879.734,4.487,4.487,0,0,1-1.156.47v.035a2.658,2.658,0,0,1,.549.321,3.023,3.023,0,0,1,.444.426,5.646,5.646,0,0,1,.417.558q.207.312.461.725Zm-7.559-11.268V15.3h2a3.039,3.039,0,0,0,1.024-.167,2.37,2.37,0,0,0,.813-.479,2.172,2.172,0,0,0,.536-.765,2.56,2.56,0,0,0,.193-1.015,1.976,1.976,0,0,0-.655-1.578,2.813,2.813,0,0,0-1.894-.567Zm15.8,7.128H-25.9a3.366,3.366,0,0,0,.809,2.32A2.788,2.788,0,0,0-22.962,21a4.422,4.422,0,0,0,2.795-1V21.35a5.224,5.224,0,0,1-3.138.861,3.8,3.8,0,0,1-3-1.226,5.018,5.018,0,0,1-1.09-3.45A4.921,4.921,0,0,1-26.2,14.112a3.819,3.819,0,0,1,2.958-1.323,3.384,3.384,0,0,1,2.733,1.143,4.764,4.764,0,0,1,.967,3.173Zm-1.477-1.222a2.933,2.933,0,0,0-.6-1.942A2.051,2.051,0,0,0-23.27,14,2.328,2.328,0,0,0-25,14.731a3.31,3.31,0,0,0-.879,1.907Zm3.113,5.036V20.128a4.266,4.266,0,0,0,2.593.87q1.9,0,1.9-1.266a1.1,1.1,0,0,0-.163-.611,1.62,1.62,0,0,0-.439-.444,3.383,3.383,0,0,0-.65-.347q-.374-.154-.8-.321a10.357,10.357,0,0,1-1.05-.479,3.173,3.173,0,0,1-.756-.545,2.028,2.028,0,0,1-.457-.69,2.441,2.441,0,0,1-.154-.905,2.15,2.15,0,0,1,.29-1.121,2.572,2.572,0,0,1,.773-.817,3.607,3.607,0,0,1,1.1-.5,4.893,4.893,0,0,1,1.279-.167,5.164,5.164,0,0,1,2.092.4v1.459A4.077,4.077,0,0,0-14.637,14a2.671,2.671,0,0,0-.729.092,1.786,1.786,0,0,0-.558.259,1.2,1.2,0,0,0-.36.4,1.053,1.053,0,0,0-.127.514,1.233,1.233,0,0,0,.127.589,1.3,1.3,0,0,0,.374.422,2.855,2.855,0,0,0,.6.334q.352.149.8.325a11.131,11.131,0,0,1,1.072.47,3.678,3.678,0,0,1,.809.545,2.129,2.129,0,0,1,.514.7,2.254,2.254,0,0,1,.18.94,2.217,2.217,0,0,1-.294,1.16,2.523,2.523,0,0,1-.787.817,3.6,3.6,0,0,1-1.134.483,5.6,5.6,0,0,1-1.345.158A5.106,5.106,0,0,1-17.907,21.675Zm11.946.536A4.175,4.175,0,0,1-9.147,20.95a4.672,4.672,0,0,1-1.191-3.344A4.867,4.867,0,0,1-9.1,14.063,4.455,4.455,0,0,1-5.75,12.789a4.037,4.037,0,0,1,3.142,1.239,4.914,4.914,0,0,1,1.129,3.437A4.835,4.835,0,0,1-2.7,20.915,4.265,4.265,0,0,1-5.961,22.211ZM-5.855,14a2.742,2.742,0,0,0-2.2.945,3.88,3.88,0,0,0-.809,2.606,3.67,3.67,0,0,0,.817,2.522A2.778,2.778,0,0,0-5.855,21a2.635,2.635,0,0,0,2.149-.905,3.928,3.928,0,0,0,.751-2.575,4,4,0,0,0-.751-2.6A2.623,2.623,0,0,0-5.855,14ZM8.1,22H6.662V20.576H6.627A2.96,2.96,0,0,1,3.85,22.211q-3.217,0-3.217-3.832V13H2.065v5.15Q2.065,21,4.245,21a2.205,2.205,0,0,0,1.736-.778,2.976,2.976,0,0,0,.681-2.035V13H8.1Zm7.6-7.541a1.763,1.763,0,0,0-1.09-.29,1.839,1.839,0,0,0-1.542.87,4.023,4.023,0,0,0-.62,2.373V22H11.014V13h1.441v1.854h.035a3.143,3.143,0,0,1,.94-1.481,2.144,2.144,0,0,1,1.415-.532,2.353,2.353,0,0,1,.861.123Zm7.7,7.128a4.684,4.684,0,0,1-2.461.624,4.074,4.074,0,0,1-3.107-1.252,4.539,4.539,0,0,1-1.182-3.248,4.99,4.99,0,0,1,1.274-3.573,4.458,4.458,0,0,1,3.4-1.349,4.735,4.735,0,0,1,2.092.439v1.477a3.665,3.665,0,0,0-2.145-.7,2.9,2.9,0,0,0-2.263.989,3.752,3.752,0,0,0-.883,2.6,3.573,3.573,0,0,0,.831,2.5A2.863,2.863,0,0,0,21.194,21a3.613,3.613,0,0,0,2.215-.782Zm9.415-3.727H26.469a3.366,3.366,0,0,0,.809,2.32A2.788,2.788,0,0,0,29.4,21,4.422,4.422,0,0,0,32.2,20V21.35a5.224,5.224,0,0,1-3.138.861,3.8,3.8,0,0,1-3-1.226,5.018,5.018,0,0,1-1.09-3.45,4.921,4.921,0,0,1,1.191-3.423,3.819,3.819,0,0,1,2.958-1.323,3.384,3.384,0,0,1,2.733,1.143,4.764,4.764,0,0,1,.967,3.173Zm-1.477-1.222a2.933,2.933,0,0,0-.6-1.942A2.051,2.051,0,0,0,29.1,14a2.328,2.328,0,0,0-1.731.729,3.31,3.31,0,0,0-.879,1.907ZM-38.447,44h-1.468V35.545q0-1,.123-2.452h-.035a7.84,7.84,0,0,1-.378,1.222L-44.512,44h-.721l-4.3-9.615a7.533,7.533,0,0,1-.378-1.292h-.035q.07.756.07,2.47V44H-51.3V31.4h1.951l3.867,8.789A11.254,11.254,0,0,1-44.9,41.7h.053q.378-1.037.606-1.547l3.946-8.754h1.846Zm9.564,0h-1.441V42.594h-.035a3.018,3.018,0,0,1-2.769,1.617,2.959,2.959,0,0,1-2.1-.712,2.466,2.466,0,0,1-.76-1.89q0-2.522,2.971-2.936l2.7-.378q0-2.294-1.854-2.294a4.431,4.431,0,0,0-2.936,1.107V35.633a5.577,5.577,0,0,1,3.059-.844q3.173,0,3.173,3.357Zm-1.441-4.553-2.171.3a3.525,3.525,0,0,0-1.512.5,1.432,1.432,0,0,0-.51,1.261,1.374,1.374,0,0,0,.47,1.077A1.817,1.817,0,0,0-32.794,43a2.314,2.314,0,0,0,1.771-.751,2.685,2.685,0,0,0,.7-1.9ZM-18.694,44h-1.441V38.867q0-2.865-2.092-2.865a2.269,2.269,0,0,0-1.789.813,3.013,3.013,0,0,0-.708,2.052V44h-1.441V35h1.441v1.494h.035a3.248,3.248,0,0,1,2.953-1.705,2.753,2.753,0,0,1,2.259.954,4.248,4.248,0,0,1,.782,2.755Zm9.16,0h-1.441V42.594h-.035a3.018,3.018,0,0,1-2.769,1.617,2.959,2.959,0,0,1-2.1-.712,2.466,2.466,0,0,1-.76-1.89q0-2.522,2.971-2.936l2.7-.378Q-10.976,36-12.83,36a4.431,4.431,0,0,0-2.936,1.107V35.633a5.577,5.577,0,0,1,3.059-.844q3.173,0,3.173,3.357Zm-1.441-4.553-2.171.3a3.525,3.525,0,0,0-1.512.5,1.432,1.432,0,0,0-.51,1.261,1.374,1.374,0,0,0,.47,1.077A1.817,1.817,0,0,0-13.446,43a2.314,2.314,0,0,0,1.771-.751,2.685,2.685,0,0,0,.7-1.9ZM.865,43.279q0,4.957-4.746,4.957A6.372,6.372,0,0,1-6.8,47.6V46.162a5.993,5.993,0,0,0,2.9.844q3.322,0,3.322-3.533v-.984H-.612a3.371,3.371,0,0,1-3.094,1.723,3.379,3.379,0,0,1-2.7-1.2A4.8,4.8,0,0,1-7.432,39.79a5.6,5.6,0,0,1,1.1-3.647A3.685,3.685,0,0,1-3.31,34.789a2.934,2.934,0,0,1,2.7,1.459h.035V35H.865ZM-.577,39.931V38.6A2.575,2.575,0,0,0-1.3,36.767,2.387,2.387,0,0,0-3.108,36a2.5,2.5,0,0,0-2.092.971,4.335,4.335,0,0,0-.756,2.72,3.721,3.721,0,0,0,.725,2.4,2.343,2.343,0,0,0,1.92.9,2.509,2.509,0,0,0,1.973-.861A3.21,3.21,0,0,0-.577,39.931Zm11.595-.07H4.663a3.366,3.366,0,0,0,.809,2.32A2.788,2.788,0,0,0,7.6,43a4.422,4.422,0,0,0,2.795-1V43.35a5.224,5.224,0,0,1-3.138.861,3.8,3.8,0,0,1-3-1.226,5.018,5.018,0,0,1-1.09-3.45A4.921,4.921,0,0,1,4.36,36.112a3.819,3.819,0,0,1,2.958-1.323,3.384,3.384,0,0,1,2.733,1.143,4.764,4.764,0,0,1,.967,3.173ZM9.541,38.639a2.933,2.933,0,0,0-.6-1.942A2.051,2.051,0,0,0,7.291,36a2.328,2.328,0,0,0-1.731.729,3.31,3.31,0,0,0-.879,1.907ZM25.979,44H24.537V38.832a3.9,3.9,0,0,0-.461-2.162A1.75,1.75,0,0,0,22.525,36a1.921,1.921,0,0,0-1.569.844,3.228,3.228,0,0,0-.646,2.021V44H18.868V38.656Q18.868,36,16.821,36a1.9,1.9,0,0,0-1.564.8,3.288,3.288,0,0,0-.615,2.07V44H13.2V35h1.441v1.424h.035a3.058,3.058,0,0,1,2.795-1.635,2.6,2.6,0,0,1,2.549,1.863,3.212,3.212,0,0,1,2.988-1.863q2.971,0,2.971,3.665Zm9.96-4.14H29.584a3.366,3.366,0,0,0,.809,2.32A2.788,2.788,0,0,0,32.52,43a4.422,4.422,0,0,0,2.795-1V43.35a5.224,5.224,0,0,1-3.138.861,3.8,3.8,0,0,1-3-1.226,5.018,5.018,0,0,1-1.09-3.45,4.921,4.921,0,0,1,1.191-3.423,3.819,3.819,0,0,1,2.958-1.323,3.384,3.384,0,0,1,2.733,1.143,4.764,4.764,0,0,1,.967,3.173Zm-1.477-1.222a2.933,2.933,0,0,0-.6-1.942A2.051,2.051,0,0,0,32.212,36a2.328,2.328,0,0,0-1.731.729,3.31,3.31,0,0,0-.879,1.907ZM45.591,44H44.149V38.867Q44.149,36,42.058,36a2.269,2.269,0,0,0-1.789.813,3.013,3.013,0,0,0-.708,2.052V44H38.12V35h1.441v1.494H39.6a3.248,3.248,0,0,1,2.953-1.705,2.753,2.753,0,0,1,2.259.954,4.248,4.248,0,0,1,.782,2.755Zm6.892-.088a2.779,2.779,0,0,1-1.345.281q-2.364,0-2.364-2.637V36.23H47.227V35h1.547V32.8l1.441-.466V35h2.268v1.23H50.216V41.3a2.1,2.1,0,0,0,.308,1.292,1.228,1.228,0,0,0,1.02.387,1.515,1.515,0,0,0,.94-.3Z" transform="translate(702.5 5810.5) rotate(-90)" fill="#212429"/>
    <path id="Trazado_1056253" data-name="Trazado 1056253" d="M-36.719.211a5.532,5.532,0,0,1-4.293-1.767,6.552,6.552,0,0,1-1.613-4.6A6.943,6.943,0,0,1-40.982-11a5.74,5.74,0,0,1,4.474-1.811A5.408,5.408,0,0,1-32.3-11.057a6.576,6.576,0,0,1,1.6,4.6,6.965,6.965,0,0,1-1.635,4.878A5.634,5.634,0,0,1-36.719.211Zm.105-11.689a4.063,4.063,0,0,0-3.226,1.433,5.546,5.546,0,0,0-1.239,3.762A5.585,5.585,0,0,0-39.87-2.536a3.941,3.941,0,0,0,3.151,1.419A4.138,4.138,0,0,0-33.45-2.47a5.532,5.532,0,0,0,1.2-3.788,5.78,5.78,0,0,0-1.16-3.858A3.978,3.978,0,0,0-36.614-11.479ZM-21.143,0h-1.441V-1.424h-.035A2.96,2.96,0,0,1-25.4.211q-3.217,0-3.217-3.832V-9h1.433v5.15Q-27.181-1-25-1a2.205,2.205,0,0,0,1.736-.778,2.976,2.976,0,0,0,.681-2.035V-9h1.441Zm7.086-.088A2.779,2.779,0,0,1-15.4.193q-2.364,0-2.364-2.637V-7.77h-1.547V-9h1.547v-2.2l1.441-.466V-9h2.268v1.23h-2.268V-2.7a2.1,2.1,0,0,0,.308,1.292A1.228,1.228,0,0,0-15-1.02a1.515,1.515,0,0,0,.94-.3Zm3.4-1.213h-.035V0h-1.441V-13.324h1.441v5.906h.035A3.408,3.408,0,0,1-7.543-9.211,3.3,3.3,0,0,1-4.831-8a4.99,4.99,0,0,1,.98,3.239,5.578,5.578,0,0,1-1.1,3.617A3.658,3.658,0,0,1-7.956.211,2.96,2.96,0,0,1-10.654-1.3Zm-.035-3.63v1.257A2.676,2.676,0,0,0-9.964-1.78,2.408,2.408,0,0,0-8.123-1,2.413,2.413,0,0,0-6.071-2,4.6,4.6,0,0,0-5.328-4.79a3.629,3.629,0,0,0-.694-2.355A2.3,2.3,0,0,0-7.9-8a2.554,2.554,0,0,0-2.021.875A3.211,3.211,0,0,0-10.689-4.931ZM2.215.211A4.175,4.175,0,0,1-.971-1.05,4.672,4.672,0,0,1-2.162-4.395,4.867,4.867,0,0,1-.923-7.937,4.455,4.455,0,0,1,2.426-9.211,4.037,4.037,0,0,1,5.568-7.972,4.914,4.914,0,0,1,6.7-4.535,4.835,4.835,0,0,1,5.48-1.085,4.265,4.265,0,0,1,2.215.211ZM2.32-8a2.742,2.742,0,0,0-2.2.945A3.88,3.88,0,0,0-.686-4.447,3.67,3.67,0,0,0,.132-1.925,2.778,2.778,0,0,0,2.32-1a2.635,2.635,0,0,0,2.149-.905,3.928,3.928,0,0,0,.751-2.575,4,4,0,0,0-.751-2.6A2.623,2.623,0,0,0,2.32-8ZM16.279,0H14.838V-1.424H14.8A2.96,2.96,0,0,1,12.025.211q-3.217,0-3.217-3.832V-9h1.433v5.15Q10.241-1,12.421-1a2.205,2.205,0,0,0,1.736-.778,2.976,2.976,0,0,0,.681-2.035V-9h1.441ZM26.661,0H25.219V-5.133Q25.219-8,23.128-8a2.269,2.269,0,0,0-1.789.813,3.013,3.013,0,0,0-.708,2.052V0H19.19V-9h1.441v1.494h.035A3.248,3.248,0,0,1,23.62-9.211a2.753,2.753,0,0,1,2.259.954A4.248,4.248,0,0,1,26.661-5.5Zm10.4,0H35.619V-1.529h-.035A3.327,3.327,0,0,1,32.49.211,3.362,3.362,0,0,1,29.778-1a4.958,4.958,0,0,1-1.015-3.292,5.394,5.394,0,0,1,1.125-3.577,3.71,3.71,0,0,1,3-1.345,2.885,2.885,0,0,1,2.7,1.459h.035v-5.572H37.06ZM35.619-4.069V-5.4A2.575,2.575,0,0,0,34.9-7.242,2.417,2.417,0,0,0,33.07-8,2.489,2.489,0,0,0,31-7.031a4.237,4.237,0,0,0-.756,2.672A3.81,3.81,0,0,0,30.965-1.9a2.37,2.37,0,0,0,1.947.9,2.462,2.462,0,0,0,1.956-.87A3.242,3.242,0,0,0,35.619-4.069ZM-51.737,22V9.4h3.48q6.662,0,6.662,6.144a6.191,6.191,0,0,1-1.85,4.689A6.863,6.863,0,0,1-48.4,22Zm1.477-11.268v9.932h1.881a5.338,5.338,0,0,0,3.858-1.327,4.975,4.975,0,0,0,1.38-3.762q0-4.843-5.15-4.843Zm18.186,7.128h-6.354a3.366,3.366,0,0,0,.809,2.32A2.788,2.788,0,0,0-35.493,21,4.422,4.422,0,0,0-32.7,20V21.35a5.224,5.224,0,0,1-3.138.861,3.8,3.8,0,0,1-3-1.226,5.018,5.018,0,0,1-1.09-3.45,4.921,4.921,0,0,1,1.191-3.423,3.819,3.819,0,0,1,2.958-1.323,3.384,3.384,0,0,1,2.733,1.143,4.764,4.764,0,0,1,.967,3.173Zm-1.477-1.222a2.933,2.933,0,0,0-.6-1.942A2.051,2.051,0,0,0-35.8,14a2.328,2.328,0,0,0-1.731.729,3.31,3.31,0,0,0-.879,1.907ZM-22.817,13-26.4,22h-1.415l-3.41-9h1.582l2.285,6.539a5.869,5.869,0,0,1,.316,1.257h.035a5.943,5.943,0,0,1,.281-1.222L-24.338,13Zm8.782,4.86H-20.39a3.366,3.366,0,0,0,.809,2.32A2.788,2.788,0,0,0-17.454,21a4.422,4.422,0,0,0,2.795-1V21.35a5.224,5.224,0,0,1-3.138.861,3.8,3.8,0,0,1-3-1.226,5.018,5.018,0,0,1-1.09-3.45,4.921,4.921,0,0,1,1.191-3.423,3.819,3.819,0,0,1,2.958-1.323A3.384,3.384,0,0,1-15,13.932a4.764,4.764,0,0,1,.967,3.173Zm-1.477-1.222a2.933,2.933,0,0,0-.6-1.942A2.051,2.051,0,0,0-17.762,14a2.328,2.328,0,0,0-1.731.729,3.31,3.31,0,0,0-.879,1.907Zm5.1,5.361h-1.441V8.676h1.441Zm6.681.211A4.175,4.175,0,0,1-6.917,20.95a4.672,4.672,0,0,1-1.191-3.344,4.867,4.867,0,0,1,1.239-3.542A4.455,4.455,0,0,1-3.52,12.789,4.037,4.037,0,0,1-.378,14.028,4.914,4.914,0,0,1,.751,17.465a4.835,4.835,0,0,1-1.217,3.45A4.265,4.265,0,0,1-3.731,22.211ZM-3.625,14a2.742,2.742,0,0,0-2.2.945,3.88,3.88,0,0,0-.809,2.606,3.67,3.67,0,0,0,.817,2.522A2.778,2.778,0,0,0-3.625,21a2.635,2.635,0,0,0,2.149-.905,3.928,3.928,0,0,0,.751-2.575,4,4,0,0,0-.751-2.6A2.623,2.623,0,0,0-3.625,14Zm8.158,6.7H4.5v5.44H3.056V13H4.5v1.582h.035a3.408,3.408,0,0,1,3.111-1.793A3.3,3.3,0,0,1,10.36,14a5.005,5.005,0,0,1,.976,3.239,5.578,5.578,0,0,1-1.1,3.617,3.658,3.658,0,0,1-3.006,1.358A3.011,3.011,0,0,1,4.533,20.7ZM4.5,17.069v1.257a2.676,2.676,0,0,0,.725,1.894A2.408,2.408,0,0,0,7.064,21a2.413,2.413,0,0,0,2.052-1,4.6,4.6,0,0,0,.743-2.786,3.629,3.629,0,0,0-.694-2.355A2.3,2.3,0,0,0,7.284,14a2.554,2.554,0,0,0-2.021.875A3.211,3.211,0,0,0,4.5,17.069ZM26.419,22H24.978V16.832a3.9,3.9,0,0,0-.461-2.162A1.75,1.75,0,0,0,22.965,14a1.921,1.921,0,0,0-1.569.844,3.228,3.228,0,0,0-.646,2.021V22H19.309V16.656Q19.309,14,17.261,14a1.9,1.9,0,0,0-1.564.8,3.288,3.288,0,0,0-.615,2.07V22H13.64V13h1.441v1.424h.035a3.058,3.058,0,0,1,2.795-1.635,2.6,2.6,0,0,1,2.549,1.863,3.212,3.212,0,0,1,2.988-1.863q2.971,0,2.971,3.665Zm9.96-4.14H30.024a3.366,3.366,0,0,0,.809,2.32A2.788,2.788,0,0,0,32.96,21a4.422,4.422,0,0,0,2.795-1V21.35a5.224,5.224,0,0,1-3.138.861,3.8,3.8,0,0,1-3-1.226,5.018,5.018,0,0,1-1.09-3.45,4.921,4.921,0,0,1,1.191-3.423,3.819,3.819,0,0,1,2.958-1.323,3.384,3.384,0,0,1,2.733,1.143,4.764,4.764,0,0,1,.967,3.173ZM34.9,16.639a2.933,2.933,0,0,0-.6-1.942A2.051,2.051,0,0,0,32.652,14a2.328,2.328,0,0,0-1.731.729,3.31,3.31,0,0,0-.879,1.907ZM46.031,22H44.59V16.867Q44.59,14,42.5,14a2.269,2.269,0,0,0-1.789.813A3.013,3.013,0,0,0,40,16.867V22H38.56V13H40v1.494h.035a3.248,3.248,0,0,1,2.953-1.705,2.753,2.753,0,0,1,2.259.954,4.248,4.248,0,0,1,.782,2.755Zm6.892-.088a2.779,2.779,0,0,1-1.345.281q-2.364,0-2.364-2.637V14.23H47.668V13h1.547V10.8l1.441-.466V13h2.268v1.23H50.656V19.3a2.1,2.1,0,0,0,.308,1.292,1.228,1.228,0,0,0,1.02.387,1.515,1.515,0,0,0,.94-.3Z" transform="translate(802 5811) rotate(-90)" fill="#212429"/>
    <path id="Trazado_1056254" data-name="Trazado 1056254" d="M-28.564,0h-1.468V-8.455q0-1,.123-2.452h-.035a7.84,7.84,0,0,1-.378,1.222L-34.628,0h-.721l-4.3-9.615a7.533,7.533,0,0,1-.378-1.292h-.035q.07.756.07,2.47V0h-1.424V-12.6h1.951L-35.6-3.814a11.254,11.254,0,0,1,.58,1.512h.053q.378-1.037.606-1.547l3.946-8.754h1.846ZM-19,0h-1.441V-1.406h-.035A3.018,3.018,0,0,1-23.245.211,2.959,2.959,0,0,1-25.35-.5a2.466,2.466,0,0,1-.76-1.89q0-2.522,2.971-2.936l2.7-.378Q-20.441-8-22.3-8a4.431,4.431,0,0,0-2.936,1.107V-8.367a5.577,5.577,0,0,1,3.059-.844Q-19-9.211-19-5.854Zm-1.441-4.553-2.171.3a3.525,3.525,0,0,0-1.512.5,1.432,1.432,0,0,0-.51,1.261,1.374,1.374,0,0,0,.47,1.077A1.817,1.817,0,0,0-22.911-1a2.314,2.314,0,0,0,1.771-.751,2.685,2.685,0,0,0,.7-1.9Zm8.852-2.988a1.763,1.763,0,0,0-1.09-.29,1.839,1.839,0,0,0-1.542.87,4.023,4.023,0,0,0-.62,2.373V0h-1.441V-9h1.441v1.854h.035a3.143,3.143,0,0,1,.94-1.481,2.144,2.144,0,0,1,1.415-.532,2.353,2.353,0,0,1,.861.123ZM-2.552,0H-4.573L-8.546-4.324h-.035V0h-1.441V-13.324h1.441v8.446h.035L-4.766-9h1.89L-7.052-4.658ZM6.16-4.14H-.194a3.366,3.366,0,0,0,.809,2.32A2.788,2.788,0,0,0,2.741-1,4.422,4.422,0,0,0,5.536-2V-.65A5.224,5.224,0,0,1,2.4.211a3.8,3.8,0,0,1-3-1.226,5.018,5.018,0,0,1-1.09-3.45A4.921,4.921,0,0,1-.5-7.888,3.819,3.819,0,0,1,2.46-9.211,3.384,3.384,0,0,1,5.193-8.068,4.764,4.764,0,0,1,6.16-4.9ZM4.684-5.361a2.933,2.933,0,0,0-.6-1.942A2.051,2.051,0,0,0,2.434-8,2.328,2.328,0,0,0,.7-7.269,3.311,3.311,0,0,0-.177-5.361ZM12.517-.088a2.779,2.779,0,0,1-1.345.281q-2.364,0-2.364-2.637V-7.77H7.261V-9H8.808v-2.2l1.441-.466V-9h2.268v1.23H10.249V-2.7a2.1,2.1,0,0,0,.308,1.292,1.228,1.228,0,0,0,1.02.387,1.515,1.515,0,0,0,.94-.3Zm2.665-11.2a.913.913,0,0,1-.659-.264.89.89,0,0,1-.272-.668.9.9,0,0,1,.272-.672.905.905,0,0,1,.659-.268.931.931,0,0,1,.672.268.9.9,0,0,1,.277.672.891.891,0,0,1-.277.659A.923.923,0,0,1,15.181-11.285ZM15.885,0H14.443V-9h1.441Zm10.39,0H24.834V-5.133Q24.834-8,22.742-8a2.269,2.269,0,0,0-1.789.813,3.013,3.013,0,0,0-.708,2.052V0H18.8V-9h1.441v1.494h.035a3.248,3.248,0,0,1,2.953-1.705,2.753,2.753,0,0,1,2.259.954A4.248,4.248,0,0,1,26.275-5.5Zm10.4-.721q0,4.957-4.746,4.957A6.372,6.372,0,0,1,29.01,3.6V2.162a5.993,5.993,0,0,0,2.9.844q3.322,0,3.322-3.533v-.984H35.2A3.371,3.371,0,0,1,32.1.211a3.379,3.379,0,0,1-2.7-1.2A4.8,4.8,0,0,1,28.377-4.21a5.6,5.6,0,0,1,1.1-3.647A3.685,3.685,0,0,1,32.5-9.211a2.934,2.934,0,0,1,2.7,1.459h.035V-9h1.441ZM35.233-4.069V-5.4a2.575,2.575,0,0,0-.725-1.837A2.387,2.387,0,0,0,32.7-8a2.5,2.5,0,0,0-2.092.971,4.335,4.335,0,0,0-.756,2.72,3.721,3.721,0,0,0,.725,2.4A2.343,2.343,0,0,0,32.5-1a2.509,2.509,0,0,0,1.973-.861A3.21,3.21,0,0,0,35.233-4.069ZM-17.039,22.2a2.627,2.627,0,0,1-.883-.136,2.562,2.562,0,0,1-.708-.387,4.088,4.088,0,0,1-.628-.611q-.3-.36-.637-.817a6.421,6.421,0,0,1-.813.729,6,6,0,0,1-1.024.624,6.152,6.152,0,0,1-1.23.435,6.123,6.123,0,0,1-1.45.163,6.038,6.038,0,0,1-1.74-.237,3.85,3.85,0,0,1-1.354-.7,3.164,3.164,0,0,1-.875-1.138,3.678,3.678,0,0,1-.312-1.556,3.559,3.559,0,0,1,.765-2.3,5.516,5.516,0,0,1,2.162-1.56,4.83,4.83,0,0,1-.527-.453,3.218,3.218,0,0,1-.47-.589,3.192,3.192,0,0,1-.334-.729,2.867,2.867,0,0,1-.127-.875,2.876,2.876,0,0,1,.25-1.23,2.607,2.607,0,0,1,.69-.905,3,3,0,0,1,1.037-.558,4.264,4.264,0,0,1,1.292-.189,3.942,3.942,0,0,1,1.252.189,2.867,2.867,0,0,1,.976.541,2.475,2.475,0,0,1,.637.844,2.578,2.578,0,0,1,.229,1.1,2.591,2.591,0,0,1-.6,1.753A4.671,4.671,0,0,1-23.27,14.8a5.28,5.28,0,0,1,1.1.58,6.514,6.514,0,0,1,.91.765,8.549,8.549,0,0,1,.778.905q.36.483.712,1A7.389,7.389,0,0,0-18.7,15.865a8.631,8.631,0,0,0,.36-2.5,4.726,4.726,0,0,0-.04-.628,5.7,5.7,0,0,0-.11-.584h1.4a2.98,2.98,0,0,1,.083.549q.013.259.031.62a7.935,7.935,0,0,1-.167,1.608,10.825,10.825,0,0,1-.448,1.569,10.977,10.977,0,0,1-.655,1.446,11.68,11.68,0,0,1-.787,1.257q.308.422.563.734a3.635,3.635,0,0,0,.514.523,1.865,1.865,0,0,0,.536.312,1.824,1.824,0,0,0,.628.1,2.14,2.14,0,0,0,.536-.07q.272-.07.562-.176v1.336a3.521,3.521,0,0,1-.664.185A3.9,3.9,0,0,1-17.039,22.2Zm-7.374-1.248a4.922,4.922,0,0,0,1.23-.145,5.063,5.063,0,0,0,1.037-.387,4.643,4.643,0,0,0,.861-.562,6.689,6.689,0,0,0,.7-.672q-.536-.835-.989-1.428a8.2,8.2,0,0,0-.914-1.024A5.609,5.609,0,0,0-23.468,16a8.175,8.175,0,0,0-1.208-.571,7.838,7.838,0,0,0-1.02.488,3.4,3.4,0,0,0-.8.633,2.718,2.718,0,0,0-.532.848,3.042,3.042,0,0,0-.193,1.134,2.407,2.407,0,0,0,.22,1.055,2.137,2.137,0,0,0,.6.76,2.651,2.651,0,0,0,.892.457A3.786,3.786,0,0,0-24.413,20.954Zm2.2-8.974a1.581,1.581,0,0,0-.163-.747,1.614,1.614,0,0,0-.413-.51,1.623,1.623,0,0,0-.558-.294,2.1,2.1,0,0,0-.606-.092,1.971,1.971,0,0,0-1.375.466,1.649,1.649,0,0,0-.523,1.266,2.049,2.049,0,0,0,.11.677,2.259,2.259,0,0,0,.308.589,2.488,2.488,0,0,0,.461.483,3.162,3.162,0,0,0,.563.36,4.634,4.634,0,0,0,1.652-.9A1.707,1.707,0,0,0-22.215,11.98Zm12.88,9.51V19.75a3.38,3.38,0,0,0,.716.475,5.8,5.8,0,0,0,.879.356,7,7,0,0,0,.927.224,5.17,5.17,0,0,0,.861.079,3.374,3.374,0,0,0,2.035-.505,1.709,1.709,0,0,0,.672-1.455,1.708,1.708,0,0,0-.224-.888,2.525,2.525,0,0,0-.62-.69,6.148,6.148,0,0,0-.936-.6q-.541-.286-1.165-.6-.659-.334-1.23-.677a5.332,5.332,0,0,1-.993-.756,3.153,3.153,0,0,1-.664-.936,2.9,2.9,0,0,1-.242-1.226,2.883,2.883,0,0,1,.378-1.5A3.242,3.242,0,0,1-7.947,10a4.5,4.5,0,0,1,1.4-.615,6.419,6.419,0,0,1,1.6-.2,6.147,6.147,0,0,1,2.716.448v1.661a4.923,4.923,0,0,0-2.865-.773,4.712,4.712,0,0,0-.967.1,2.731,2.731,0,0,0-.861.33,1.908,1.908,0,0,0-.615.589,1.563,1.563,0,0,0-.237.879,1.809,1.809,0,0,0,.18.835,2.046,2.046,0,0,0,.532.642,5.3,5.3,0,0,0,.857.563q.505.272,1.165.6.677.334,1.283.7a5.865,5.865,0,0,1,1.063.817,3.632,3.632,0,0,1,.725.993A2.792,2.792,0,0,1-1.7,18.818,3.165,3.165,0,0,1-2.063,20.4a2.993,2.993,0,0,1-.984,1.05,4.3,4.3,0,0,1-1.428.584,7.822,7.822,0,0,1-1.705.18,6.948,6.948,0,0,1-.738-.048q-.439-.048-.9-.141a7.315,7.315,0,0,1-.866-.229A2.694,2.694,0,0,1-9.336,21.49Zm16.4.51H5.625V20.594H5.59a3.018,3.018,0,0,1-2.769,1.617,2.959,2.959,0,0,1-2.1-.712,2.466,2.466,0,0,1-.76-1.89q0-2.522,2.971-2.936l2.7-.378Q5.625,14,3.771,14A4.431,4.431,0,0,0,.835,15.109V13.633a5.577,5.577,0,0,1,3.059-.844q3.173,0,3.173,3.357ZM5.625,17.447l-2.171.3a3.525,3.525,0,0,0-1.512.5,1.432,1.432,0,0,0-.51,1.261,1.374,1.374,0,0,0,.47,1.077A1.817,1.817,0,0,0,3.155,21a2.314,2.314,0,0,0,1.771-.751,2.685,2.685,0,0,0,.7-1.9ZM11.225,22H9.784V8.676h1.441Zm10.153-4.14H15.024a3.366,3.366,0,0,0,.809,2.32A2.788,2.788,0,0,0,17.96,21a4.422,4.422,0,0,0,2.795-1V21.35a5.224,5.224,0,0,1-3.138.861,3.8,3.8,0,0,1-3-1.226,5.018,5.018,0,0,1-1.09-3.45,4.921,4.921,0,0,1,1.191-3.423,3.819,3.819,0,0,1,2.958-1.323,3.384,3.384,0,0,1,2.733,1.143,4.764,4.764,0,0,1,.967,3.173ZM19.9,16.639a2.933,2.933,0,0,0-.6-1.942A2.051,2.051,0,0,0,17.652,14a2.328,2.328,0,0,0-1.731.729,3.31,3.31,0,0,0-.879,1.907Zm3.113,5.036V20.128a4.266,4.266,0,0,0,2.593.87q1.9,0,1.9-1.266a1.1,1.1,0,0,0-.163-.611,1.62,1.62,0,0,0-.439-.444,3.383,3.383,0,0,0-.65-.347q-.374-.154-.8-.321a10.357,10.357,0,0,1-1.05-.479,3.173,3.173,0,0,1-.756-.545,2.028,2.028,0,0,1-.457-.69,2.441,2.441,0,0,1-.154-.905,2.15,2.15,0,0,1,.29-1.121,2.572,2.572,0,0,1,.773-.817,3.607,3.607,0,0,1,1.1-.5,4.893,4.893,0,0,1,1.279-.167,5.164,5.164,0,0,1,2.092.4v1.459A4.077,4.077,0,0,0,26.285,14a2.671,2.671,0,0,0-.729.092,1.786,1.786,0,0,0-.558.259,1.2,1.2,0,0,0-.36.4,1.053,1.053,0,0,0-.127.514,1.233,1.233,0,0,0,.127.589,1.3,1.3,0,0,0,.374.422,2.855,2.855,0,0,0,.6.334q.352.149.8.325a11.131,11.131,0,0,1,1.072.47,3.678,3.678,0,0,1,.809.545,2.129,2.129,0,0,1,.514.7,2.254,2.254,0,0,1,.18.94,2.217,2.217,0,0,1-.294,1.16,2.523,2.523,0,0,1-.787.817,3.6,3.6,0,0,1-1.134.483,5.6,5.6,0,0,1-1.345.158A5.106,5.106,0,0,1,23.015,21.675Z" transform="translate(889 5807) rotate(-90)" fill="#212429"/>
    <path id="Trazado_1056255" data-name="Trazado 1056255" d="M-30.733-.51V-2.25a3.38,3.38,0,0,0,.716.475,5.8,5.8,0,0,0,.879.356,7,7,0,0,0,.927.224,5.17,5.17,0,0,0,.861.079,3.374,3.374,0,0,0,2.035-.505,1.709,1.709,0,0,0,.672-1.455,1.708,1.708,0,0,0-.224-.888,2.525,2.525,0,0,0-.62-.69,6.148,6.148,0,0,0-.936-.6q-.541-.286-1.165-.6-.659-.334-1.23-.677a5.332,5.332,0,0,1-.993-.756,3.153,3.153,0,0,1-.664-.936,2.9,2.9,0,0,1-.242-1.226,2.883,2.883,0,0,1,.378-1.5A3.242,3.242,0,0,1-29.344-12a4.5,4.5,0,0,1,1.4-.615,6.419,6.419,0,0,1,1.6-.2,6.147,6.147,0,0,1,2.716.448v1.661a4.923,4.923,0,0,0-2.865-.773,4.712,4.712,0,0,0-.967.1,2.731,2.731,0,0,0-.861.33,1.908,1.908,0,0,0-.615.589,1.563,1.563,0,0,0-.237.879,1.809,1.809,0,0,0,.18.835,2.046,2.046,0,0,0,.532.642,5.3,5.3,0,0,0,.857.563q.505.272,1.165.6.677.334,1.283.7a5.865,5.865,0,0,1,1.063.817,3.632,3.632,0,0,1,.725.993A2.792,2.792,0,0,1-23.1-3.182,3.165,3.165,0,0,1-23.46-1.6a2.993,2.993,0,0,1-.984,1.05,4.3,4.3,0,0,1-1.428.584,7.822,7.822,0,0,1-1.705.18,6.948,6.948,0,0,1-.738-.048q-.439-.048-.9-.141a7.315,7.315,0,0,1-.866-.229A2.694,2.694,0,0,1-30.733-.51ZM-13.54-4.14h-6.354a3.366,3.366,0,0,0,.809,2.32A2.788,2.788,0,0,0-16.959-1a4.422,4.422,0,0,0,2.795-1V-.65A5.224,5.224,0,0,1-17.3.211a3.8,3.8,0,0,1-3-1.226,5.018,5.018,0,0,1-1.09-3.45A4.921,4.921,0,0,1-20.2-7.888,3.819,3.819,0,0,1-17.24-9.211a3.384,3.384,0,0,1,2.733,1.143A4.764,4.764,0,0,1-13.54-4.9Zm-1.477-1.222a2.933,2.933,0,0,0-.6-1.942A2.051,2.051,0,0,0-17.266-8,2.328,2.328,0,0,0-19-7.269a3.311,3.311,0,0,0-.879,1.907Zm8.351-2.18a1.763,1.763,0,0,0-1.09-.29,1.839,1.839,0,0,0-1.542.87,4.023,4.023,0,0,0-.62,2.373V0h-1.441V-9h1.441v1.854h.035a3.143,3.143,0,0,1,.94-1.481,2.144,2.144,0,0,1,1.415-.532,2.353,2.353,0,0,1,.861.123ZM1.977-9-1.609,0H-3.024l-3.41-9h1.582l2.285,6.539A5.869,5.869,0,0,1-2.251-1.2h.035a5.943,5.943,0,0,1,.281-1.222L.456-9Zm2.287-2.285a.913.913,0,0,1-.659-.264.89.89,0,0,1-.272-.668.9.9,0,0,1,.272-.672.905.905,0,0,1,.659-.268.931.931,0,0,1,.672.268.9.9,0,0,1,.277.672.891.891,0,0,1-.277.659A.923.923,0,0,1,4.264-11.285ZM4.967,0H3.525V-9H4.967Zm9.055-.413A4.684,4.684,0,0,1,11.56.211,4.074,4.074,0,0,1,8.453-1.042,4.539,4.539,0,0,1,7.271-4.289,4.99,4.99,0,0,1,8.546-7.862a4.458,4.458,0,0,1,3.4-1.349,4.735,4.735,0,0,1,2.092.439v1.477A3.665,3.665,0,0,0,11.894-8a2.9,2.9,0,0,0-2.263.989,3.752,3.752,0,0,0-.883,2.6,3.573,3.573,0,0,0,.831,2.5A2.863,2.863,0,0,0,11.806-1a3.613,3.613,0,0,0,2.215-.782ZM23.436-4.14H17.082a3.366,3.366,0,0,0,.809,2.32A2.788,2.788,0,0,0,20.017-1a4.422,4.422,0,0,0,2.795-1V-.65a5.224,5.224,0,0,1-3.138.861,3.8,3.8,0,0,1-3-1.226,5.018,5.018,0,0,1-1.09-3.45,4.921,4.921,0,0,1,1.191-3.423,3.819,3.819,0,0,1,2.958-1.323,3.384,3.384,0,0,1,2.733,1.143A4.764,4.764,0,0,1,23.436-4.9ZM21.96-5.361a2.933,2.933,0,0,0-.6-1.942A2.051,2.051,0,0,0,19.71-8a2.328,2.328,0,0,0-1.731.729A3.311,3.311,0,0,0,17.1-5.361ZM25.073-.325V-1.872A4.266,4.266,0,0,0,27.665-1q1.9,0,1.9-1.266a1.1,1.1,0,0,0-.163-.611,1.62,1.62,0,0,0-.439-.444,3.383,3.383,0,0,0-.65-.347q-.374-.154-.8-.321a10.357,10.357,0,0,1-1.05-.479,3.173,3.173,0,0,1-.756-.545,2.028,2.028,0,0,1-.457-.69,2.441,2.441,0,0,1-.154-.905,2.15,2.15,0,0,1,.29-1.121,2.572,2.572,0,0,1,.773-.817,3.607,3.607,0,0,1,1.1-.5,4.893,4.893,0,0,1,1.279-.167,5.164,5.164,0,0,1,2.092.4v1.459A4.077,4.077,0,0,0,28.342-8a2.671,2.671,0,0,0-.729.092,1.786,1.786,0,0,0-.558.259,1.2,1.2,0,0,0-.36.4,1.053,1.053,0,0,0-.127.514,1.233,1.233,0,0,0,.127.589,1.3,1.3,0,0,0,.374.422,2.855,2.855,0,0,0,.6.334q.352.149.8.325a11.131,11.131,0,0,1,1.072.47,3.678,3.678,0,0,1,.809.545,2.129,2.129,0,0,1,.514.7,2.254,2.254,0,0,1,.18.94,2.217,2.217,0,0,1-.294,1.16,2.523,2.523,0,0,1-.787.817,3.6,3.6,0,0,1-1.134.483,5.6,5.6,0,0,1-1.345.158A5.106,5.106,0,0,1,25.073-.325Z" transform="translate(974 5807) rotate(-90)" fill="#212429"/>
    <g id="Trazado_1056256" data-name="Trazado 1056256" transform="translate(994 5593) rotate(90)" fill="#c1f0fa">
      <path d="M 37.5 409.5 L 0.5 409.5 L 0.5 0.5 L 37.5 0.5 L 37.5 409.5 Z" stroke="none"/>
      <path d="M 1 1 L 1 409 L 37 409 L 37 1 L 1 1 M 0 0 L 38 0 L 38 410 L 0 410 L 0 0 Z" stroke="none" fill="#1d7083"/>
    </g>
    <g id="Trazado_1056257" data-name="Trazado 1056257" transform="translate(1007 5630) rotate(90)" fill="#c1f0fa">
      <path d="M 37.5 422.5 L 0.5 422.5 L 0.5 0.5 L 37.5 0.5 L 37.5 422.5 Z" stroke="none"/>
      <path d="M 1 1 L 1 422 L 37 422 L 37 1 L 1 1 M 0 0 L 38 0 L 38 423 L 0 423 L 0 0 Z" stroke="none" fill="#1d7083"/>
    </g>
    <g id="Trazado_1056258" data-name="Trazado 1056258" transform="translate(1018 5667) rotate(90)" fill="#c1f0fa">
      <path d="M 39.5 433.5 L 0.5 433.5 L 0.5 0.5 L 39.5 0.5 L 39.5 433.5 Z" stroke="none"/>
      <path d="M 1 1 L 1 433 L 39 433 L 39 1 L 1 1 M 0 0 L 40 0 L 40 434 L 0 434 L 0 0 Z" stroke="none" fill="#1d7083"/>
    </g>
    <g id="Trazado_1056259" data-name="Trazado 1056259" transform="translate(1027 5706) rotate(90)" fill="#c1f0fa">
      <path d="M 37.5 442.5 L 0.5 442.5 L 0.5 0.5 L 37.5 0.5 L 37.5 442.5 Z" stroke="none"/>
      <path d="M 1 1 L 1 442 L 37 442 L 37 1 L 1 1 M 0 0 L 38 0 L 38 443 L 0 443 L 0 0 Z" stroke="none" fill="#1d7083"/>
    </g>
    <path id="Trazado_1056260" data-name="Trazado 1056260" d="M8.051-11.268H3.129v4.359H7.682v1.327H3.129V0H1.652V-12.6h6.4Zm2.937-.018a.913.913,0,0,1-.659-.264.89.89,0,0,1-.272-.668.9.9,0,0,1,.272-.672.905.905,0,0,1,.659-.268.931.931,0,0,1,.672.268.9.9,0,0,1,.277.672.891.891,0,0,1-.277.659A.923.923,0,0,1,10.988-11.285ZM11.691,0H10.25V-9h1.441ZM19.3-7.541a1.763,1.763,0,0,0-1.09-.29,1.839,1.839,0,0,0-1.542.87,4.023,4.023,0,0,0-.62,2.373V0H14.611V-9h1.441v1.854h.035a3.143,3.143,0,0,1,.94-1.481,2.144,2.144,0,0,1,1.415-.532,2.353,2.353,0,0,1,.861.123ZM33.65,0H32.209V-5.168a3.9,3.9,0,0,0-.461-2.162A1.75,1.75,0,0,0,30.2-8a1.921,1.921,0,0,0-1.569.844,3.228,3.228,0,0,0-.646,2.021V0H26.54V-5.344Q26.54-8,24.492-8a1.9,1.9,0,0,0-1.564.8,3.288,3.288,0,0,0-.615,2.07V0H20.871V-9h1.441v1.424h.035a3.058,3.058,0,0,1,2.795-1.635,2.606,2.606,0,0,1,1.608.514,2.586,2.586,0,0,1,.94,1.349,3.212,3.212,0,0,1,2.988-1.863q2.971,0,2.971,3.665Zm9.329,0H41.5V-12.6h1.477ZM53.571,0H52.13V-5.133Q52.13-8,50.038-8a2.269,2.269,0,0,0-1.789.813,3.013,3.013,0,0,0-.708,2.052V0H46.1V-9h1.441v1.494h.035A3.248,3.248,0,0,1,50.53-9.211a2.753,2.753,0,0,1,2.259.954A4.248,4.248,0,0,1,53.571-5.5Zm7.165-12.059a1.92,1.92,0,0,0-.958-.237q-1.512,0-1.512,1.907V-9h2.109v1.23H58.267V0H56.834V-7.77H55.3V-9h1.538v-1.459a3.032,3.032,0,0,1,.817-2.237,2.759,2.759,0,0,1,2.039-.822,2.824,2.824,0,0,1,1.046.158Zm5.882,4.518a1.763,1.763,0,0,0-1.09-.29,1.839,1.839,0,0,0-1.542.87,4.023,4.023,0,0,0-.62,2.373V0H61.925V-9h1.441v1.854H63.4a3.143,3.143,0,0,1,.94-1.481,2.144,2.144,0,0,1,1.415-.532,2.353,2.353,0,0,1,.861.123ZM74.627,0H73.185V-1.406H73.15A3.018,3.018,0,0,1,70.381.211a2.959,2.959,0,0,1-2.1-.712,2.466,2.466,0,0,1-.76-1.89q0-2.522,2.971-2.936l2.7-.378Q73.185-8,71.331-8A4.431,4.431,0,0,0,68.4-6.891V-8.367a5.577,5.577,0,0,1,3.059-.844q3.173,0,3.173,3.357ZM73.185-4.553l-2.171.3a3.525,3.525,0,0,0-1.512.5,1.432,1.432,0,0,0-.51,1.261,1.374,1.374,0,0,0,.47,1.077A1.817,1.817,0,0,0,70.715-1a2.314,2.314,0,0,0,1.771-.751,2.685,2.685,0,0,0,.7-1.9ZM76.8-.325V-1.872A4.266,4.266,0,0,0,79.392-1q1.9,0,1.9-1.266a1.1,1.1,0,0,0-.163-.611,1.62,1.62,0,0,0-.439-.444,3.383,3.383,0,0,0-.65-.347q-.374-.154-.8-.321a10.357,10.357,0,0,1-1.05-.479,3.173,3.173,0,0,1-.756-.545,2.028,2.028,0,0,1-.457-.69,2.441,2.441,0,0,1-.154-.905,2.15,2.15,0,0,1,.29-1.121,2.572,2.572,0,0,1,.773-.817,3.607,3.607,0,0,1,1.1-.5,4.893,4.893,0,0,1,1.279-.167,5.164,5.164,0,0,1,2.092.4v1.459A4.077,4.077,0,0,0,80.069-8a2.671,2.671,0,0,0-.729.092,1.786,1.786,0,0,0-.558.259,1.2,1.2,0,0,0-.36.4,1.053,1.053,0,0,0-.127.514,1.233,1.233,0,0,0,.127.589,1.3,1.3,0,0,0,.374.422,2.855,2.855,0,0,0,.6.334q.352.149.8.325a11.131,11.131,0,0,1,1.072.47,3.678,3.678,0,0,1,.809.545,2.129,2.129,0,0,1,.514.7,2.254,2.254,0,0,1,.18.94,2.217,2.217,0,0,1-.294,1.16,2.523,2.523,0,0,1-.787.817,3.6,3.6,0,0,1-1.134.483,5.6,5.6,0,0,1-1.345.158A5.106,5.106,0,0,1,76.8-.325Zm12.359.237a2.779,2.779,0,0,1-1.345.281q-2.364,0-2.364-2.637V-7.77H83.9V-9h1.547v-2.2l1.441-.466V-9h2.268v1.23H86.891V-2.7A2.1,2.1,0,0,0,87.2-1.406a1.228,1.228,0,0,0,1.02.387,1.515,1.515,0,0,0,.94-.3Zm6.62-7.453a1.763,1.763,0,0,0-1.09-.29,1.839,1.839,0,0,0-1.542.87,4.023,4.023,0,0,0-.62,2.373V0H91.085V-9h1.441v1.854h.035a3.143,3.143,0,0,1,.94-1.481,2.144,2.144,0,0,1,1.415-.532,2.353,2.353,0,0,1,.861.123ZM104.622,0h-1.441V-1.424h-.035A2.96,2.96,0,0,1,100.368.211q-3.217,0-3.217-3.832V-9h1.433v5.15Q98.584-1,100.764-1A2.205,2.205,0,0,0,102.5-1.78a2.976,2.976,0,0,0,.681-2.035V-9h1.441Zm9.046-.413a4.684,4.684,0,0,1-2.461.624A4.074,4.074,0,0,1,108.1-1.042a4.539,4.539,0,0,1-1.182-3.248,4.99,4.99,0,0,1,1.274-3.573,4.458,4.458,0,0,1,3.4-1.349,4.735,4.735,0,0,1,2.092.439v1.477a3.665,3.665,0,0,0-2.145-.7,2.9,2.9,0,0,0-2.263.989,3.752,3.752,0,0,0-.883,2.6,3.573,3.573,0,0,0,.831,2.5A2.863,2.863,0,0,0,111.453-1a3.613,3.613,0,0,0,2.215-.782Zm6.356.325a2.779,2.779,0,0,1-1.345.281q-2.364,0-2.364-2.637V-7.77h-1.547V-9h1.547v-2.2l1.441-.466V-9h2.268v1.23h-2.268V-2.7a2.1,2.1,0,0,0,.308,1.292,1.228,1.228,0,0,0,1.02.387,1.515,1.515,0,0,0,.94-.3Zm9.2.088h-1.441V-1.424h-.035A2.96,2.96,0,0,1,124.974.211q-3.217,0-3.217-3.832V-9h1.433v5.15Q123.19-1,125.37-1a2.205,2.205,0,0,0,1.736-.778,2.976,2.976,0,0,0,.681-2.035V-9h1.441Zm7.6-7.541a1.763,1.763,0,0,0-1.09-.29,1.839,1.839,0,0,0-1.542.87,4.023,4.023,0,0,0-.62,2.373V0h-1.441V-9h1.441v1.854h.035a3.143,3.143,0,0,1,.94-1.481,2.144,2.144,0,0,1,1.415-.532,2.353,2.353,0,0,1,.861.123Zm8.8,3.4h-6.354a3.366,3.366,0,0,0,.809,2.32A2.788,2.788,0,0,0,142.213-1a4.422,4.422,0,0,0,2.795-1V-.65a5.224,5.224,0,0,1-3.138.861,3.8,3.8,0,0,1-3-1.226,5.018,5.018,0,0,1-1.09-3.45,4.921,4.921,0,0,1,1.191-3.423,3.819,3.819,0,0,1,2.958-1.323,3.384,3.384,0,0,1,2.733,1.143,4.764,4.764,0,0,1,.967,3.173Zm-1.477-1.222a2.933,2.933,0,0,0-.6-1.942A2.051,2.051,0,0,0,141.905-8a2.328,2.328,0,0,0-1.731.729,3.311,3.311,0,0,0-.879,1.907Z" transform="translate(700 5618)" fill="#212429"/>
    <path id="Trazado_1056261" data-name="Trazado 1056261" d="M11.127,0H9.65V-5.748H3.129V0H1.652V-12.6H3.129v5.528H9.65V-12.6h1.477Zm10.39,0H20.076V-1.424h-.035A2.96,2.96,0,0,1,17.264.211q-3.217,0-3.217-3.832V-9h1.433v5.15Q15.479-1,17.659-1a2.205,2.205,0,0,0,1.736-.778,2.976,2.976,0,0,0,.681-2.035V-9h1.441Zm15.69,0H35.766V-5.168A3.9,3.9,0,0,0,35.3-7.33,1.75,1.75,0,0,0,33.754-8a1.921,1.921,0,0,0-1.569.844,3.228,3.228,0,0,0-.646,2.021V0H30.1V-5.344Q30.1-8,28.049-8a1.9,1.9,0,0,0-1.564.8,3.288,3.288,0,0,0-.615,2.07V0H24.428V-9H25.87v1.424H25.9A3.058,3.058,0,0,1,28.7-9.211a2.606,2.606,0,0,1,1.608.514,2.586,2.586,0,0,1,.94,1.349,3.212,3.212,0,0,1,2.988-1.863q2.971,0,2.971,3.665Zm9.169,0H44.935V-1.406H44.9A3.018,3.018,0,0,1,42.131.211a2.959,2.959,0,0,1-2.1-.712,2.466,2.466,0,0,1-.76-1.89q0-2.522,2.971-2.936l2.7-.378Q44.935-8,43.081-8a4.431,4.431,0,0,0-2.936,1.107V-8.367A5.577,5.577,0,0,1,43.2-9.211q3.173,0,3.173,3.357ZM44.935-4.553l-2.171.3a3.525,3.525,0,0,0-1.512.5,1.432,1.432,0,0,0-.51,1.261,1.374,1.374,0,0,0,.47,1.077A1.817,1.817,0,0,0,42.465-1a2.314,2.314,0,0,0,1.771-.751,2.685,2.685,0,0,0,.7-1.9ZM56.565,0H55.123V-5.133Q55.123-8,53.032-8a2.269,2.269,0,0,0-1.789.813,3.013,3.013,0,0,0-.708,2.052V0H49.094V-9h1.441v1.494h.035a3.248,3.248,0,0,1,2.953-1.705,2.753,2.753,0,0,1,2.259.954A4.248,4.248,0,0,1,56.565-5.5ZM73.443,0H71.686L69.576-3.533a7.7,7.7,0,0,0-.562-.839,3.207,3.207,0,0,0-.558-.567,1.933,1.933,0,0,0-.615-.321,2.53,2.53,0,0,0-.743-.1H65.885V0H64.408V-12.6H68.17a5.361,5.361,0,0,1,1.525.207,3.412,3.412,0,0,1,1.213.628,2.92,2.92,0,0,1,.8,1.05A3.483,3.483,0,0,1,72-9.246a3.545,3.545,0,0,1-.2,1.208,3.156,3.156,0,0,1-.562.98,3.41,3.41,0,0,1-.879.734,4.487,4.487,0,0,1-1.156.47v.035a2.658,2.658,0,0,1,.549.321,3.024,3.024,0,0,1,.444.426,5.646,5.646,0,0,1,.417.558q.207.312.461.725ZM65.885-11.268V-6.7h2a3.039,3.039,0,0,0,1.024-.167,2.371,2.371,0,0,0,.813-.479,2.172,2.172,0,0,0,.536-.765,2.56,2.56,0,0,0,.193-1.015A1.976,1.976,0,0,0,69.8-10.7a2.813,2.813,0,0,0-1.894-.567Zm15.8,7.128H75.335a3.366,3.366,0,0,0,.809,2.32A2.788,2.788,0,0,0,78.27-1a4.422,4.422,0,0,0,2.795-1V-.65a5.224,5.224,0,0,1-3.138.861,3.8,3.8,0,0,1-3-1.226,5.018,5.018,0,0,1-1.09-3.45,4.921,4.921,0,0,1,1.191-3.423,3.819,3.819,0,0,1,2.958-1.323,3.384,3.384,0,0,1,2.733,1.143A4.764,4.764,0,0,1,81.689-4.9ZM80.213-5.361a2.933,2.933,0,0,0-.6-1.942A2.051,2.051,0,0,0,77.963-8a2.328,2.328,0,0,0-1.731.729,3.311,3.311,0,0,0-.879,1.907ZM83.326-.325V-1.872A4.266,4.266,0,0,0,85.919-1q1.9,0,1.9-1.266a1.1,1.1,0,0,0-.163-.611,1.62,1.62,0,0,0-.439-.444,3.383,3.383,0,0,0-.65-.347q-.374-.154-.8-.321a10.357,10.357,0,0,1-1.05-.479,3.173,3.173,0,0,1-.756-.545A2.028,2.028,0,0,1,83.5-5.7a2.441,2.441,0,0,1-.154-.905,2.15,2.15,0,0,1,.29-1.121,2.572,2.572,0,0,1,.773-.817,3.607,3.607,0,0,1,1.1-.5,4.893,4.893,0,0,1,1.279-.167,5.164,5.164,0,0,1,2.092.4v1.459A4.077,4.077,0,0,0,86.6-8a2.671,2.671,0,0,0-.729.092,1.786,1.786,0,0,0-.558.259,1.2,1.2,0,0,0-.36.4,1.053,1.053,0,0,0-.127.514,1.233,1.233,0,0,0,.127.589,1.3,1.3,0,0,0,.374.422,2.855,2.855,0,0,0,.6.334q.352.149.8.325a11.131,11.131,0,0,1,1.072.47,3.678,3.678,0,0,1,.809.545,2.129,2.129,0,0,1,.514.7,2.254,2.254,0,0,1,.18.94A2.217,2.217,0,0,1,89-1.248a2.523,2.523,0,0,1-.787.817,3.6,3.6,0,0,1-1.134.483,5.6,5.6,0,0,1-1.345.158A5.106,5.106,0,0,1,83.326-.325ZM95.272.211A4.175,4.175,0,0,1,92.086-1.05,4.672,4.672,0,0,1,90.9-4.395a4.867,4.867,0,0,1,1.239-3.542,4.455,4.455,0,0,1,3.349-1.274,4.037,4.037,0,0,1,3.142,1.239,4.914,4.914,0,0,1,1.129,3.437,4.835,4.835,0,0,1-1.217,3.45A4.265,4.265,0,0,1,95.272.211ZM95.378-8a2.742,2.742,0,0,0-2.2.945,3.88,3.88,0,0,0-.809,2.606,3.67,3.67,0,0,0,.817,2.522A2.778,2.778,0,0,0,95.378-1a2.635,2.635,0,0,0,2.149-.905,3.928,3.928,0,0,0,.751-2.575,4,4,0,0,0-.751-2.6A2.623,2.623,0,0,0,95.378-8Zm13.959,8h-1.441V-1.424h-.035A2.96,2.96,0,0,1,105.082.211q-3.217,0-3.217-3.832V-9H103.3v5.15Q103.3-1,105.478-1a2.205,2.205,0,0,0,1.736-.778,2.976,2.976,0,0,0,.681-2.035V-9h1.441Zm7.6-7.541a1.763,1.763,0,0,0-1.09-.29,1.839,1.839,0,0,0-1.542.87,4.023,4.023,0,0,0-.62,2.373V0h-1.441V-9h1.441v1.854h.035a3.143,3.143,0,0,1,.94-1.481,2.144,2.144,0,0,1,1.415-.532,2.353,2.353,0,0,1,.861.123Zm7.7,7.128a4.684,4.684,0,0,1-2.461.624,4.074,4.074,0,0,1-3.107-1.252,4.539,4.539,0,0,1-1.182-3.248,4.99,4.99,0,0,1,1.274-3.573,4.458,4.458,0,0,1,3.4-1.349,4.735,4.735,0,0,1,2.092.439v1.477a3.665,3.665,0,0,0-2.145-.7,2.9,2.9,0,0,0-2.263.989,3.752,3.752,0,0,0-.883,2.6,3.573,3.573,0,0,0,.831,2.5A2.863,2.863,0,0,0,122.427-1a3.613,3.613,0,0,0,2.215-.782Zm9.415-3.727H127.7a3.366,3.366,0,0,0,.809,2.32A2.788,2.788,0,0,0,130.638-1a4.422,4.422,0,0,0,2.795-1V-.65a5.224,5.224,0,0,1-3.138.861,3.8,3.8,0,0,1-3-1.226,5.018,5.018,0,0,1-1.09-3.45A4.921,4.921,0,0,1,127.4-7.888a3.819,3.819,0,0,1,2.958-1.323,3.384,3.384,0,0,1,2.733,1.143,4.764,4.764,0,0,1,.967,3.173ZM132.58-5.361a2.933,2.933,0,0,0-.6-1.942A2.051,2.051,0,0,0,130.33-8a2.328,2.328,0,0,0-1.731.729,3.311,3.311,0,0,0-.879,1.907ZM154.214,0h-1.468V-8.455q0-1,.123-2.452h-.035a7.84,7.84,0,0,1-.378,1.222L148.149,0h-.721l-4.3-9.615a7.533,7.533,0,0,1-.378-1.292h-.035q.07.756.07,2.47V0h-1.424V-12.6h1.951l3.867,8.789a11.254,11.254,0,0,1,.58,1.512h.053q.378-1.037.606-1.547l3.946-8.754h1.846Zm9.564,0h-1.441V-1.406H162.3A3.018,3.018,0,0,1,159.533.211a2.959,2.959,0,0,1-2.1-.712,2.466,2.466,0,0,1-.76-1.89q0-2.522,2.971-2.936l2.7-.378Q162.336-8,160.482-8a4.431,4.431,0,0,0-2.936,1.107V-8.367a5.577,5.577,0,0,1,3.059-.844q3.173,0,3.173,3.357Zm-1.441-4.553-2.171.3a3.525,3.525,0,0,0-1.512.5,1.432,1.432,0,0,0-.51,1.261,1.374,1.374,0,0,0,.47,1.077A1.817,1.817,0,0,0,159.867-1a2.314,2.314,0,0,0,1.771-.751,2.685,2.685,0,0,0,.7-1.9ZM173.966,0h-1.441V-5.133Q172.525-8,170.433-8a2.269,2.269,0,0,0-1.789.813,3.013,3.013,0,0,0-.708,2.052V0H166.5V-9h1.441v1.494h.035a3.248,3.248,0,0,1,2.953-1.705,2.753,2.753,0,0,1,2.259.954,4.248,4.248,0,0,1,.782,2.755Zm9.16,0h-1.441V-1.406h-.035A3.018,3.018,0,0,1,178.881.211a2.959,2.959,0,0,1-2.1-.712,2.466,2.466,0,0,1-.76-1.89q0-2.522,2.971-2.936l2.7-.378Q181.685-8,179.83-8a4.431,4.431,0,0,0-2.936,1.107V-8.367a5.577,5.577,0,0,1,3.059-.844q3.173,0,3.173,3.357Zm-1.441-4.553-2.171.3a3.525,3.525,0,0,0-1.512.5,1.432,1.432,0,0,0-.51,1.261,1.374,1.374,0,0,0,.47,1.077A1.817,1.817,0,0,0,179.215-1a2.314,2.314,0,0,0,1.771-.751,2.685,2.685,0,0,0,.7-1.9ZM193.525-.721q0,4.957-4.746,4.957a6.372,6.372,0,0,1-2.918-.633V2.162a5.993,5.993,0,0,0,2.9.844q3.322,0,3.322-3.533v-.984h-.035A3.371,3.371,0,0,1,188.955.211a3.379,3.379,0,0,1-2.7-1.2,4.8,4.8,0,0,1-1.024-3.221,5.6,5.6,0,0,1,1.1-3.647,3.685,3.685,0,0,1,3.019-1.354,2.934,2.934,0,0,1,2.7,1.459h.035V-9h1.441Zm-1.441-3.349V-5.4a2.575,2.575,0,0,0-.725-1.837A2.387,2.387,0,0,0,189.553-8a2.5,2.5,0,0,0-2.092.971,4.335,4.335,0,0,0-.756,2.72,3.721,3.721,0,0,0,.725,2.4,2.343,2.343,0,0,0,1.92.9,2.509,2.509,0,0,0,1.973-.861A3.21,3.21,0,0,0,192.084-4.069Zm11.595-.07h-6.354a3.366,3.366,0,0,0,.809,2.32A2.788,2.788,0,0,0,200.26-1a4.422,4.422,0,0,0,2.795-1V-.65a5.224,5.224,0,0,1-3.138.861,3.8,3.8,0,0,1-3-1.226,5.018,5.018,0,0,1-1.09-3.45,4.921,4.921,0,0,1,1.191-3.423,3.819,3.819,0,0,1,2.958-1.323,3.384,3.384,0,0,1,2.733,1.143,4.764,4.764,0,0,1,.967,3.173ZM202.2-5.361a2.933,2.933,0,0,0-.6-1.942A2.051,2.051,0,0,0,199.952-8a2.328,2.328,0,0,0-1.731.729,3.311,3.311,0,0,0-.879,1.907ZM218.639,0H217.2V-5.168a3.9,3.9,0,0,0-.461-2.162A1.75,1.75,0,0,0,215.185-8a1.921,1.921,0,0,0-1.569.844,3.228,3.228,0,0,0-.646,2.021V0h-1.441V-5.344Q211.529-8,209.481-8a1.9,1.9,0,0,0-1.564.8,3.288,3.288,0,0,0-.615,2.07V0H205.86V-9H207.3v1.424h.035a3.058,3.058,0,0,1,2.795-1.635,2.606,2.606,0,0,1,1.608.514,2.586,2.586,0,0,1,.94,1.349,3.212,3.212,0,0,1,2.988-1.863q2.971,0,2.971,3.665Zm9.96-4.14h-6.354a3.366,3.366,0,0,0,.809,2.32A2.788,2.788,0,0,0,225.18-1a4.422,4.422,0,0,0,2.795-1V-.65a5.224,5.224,0,0,1-3.138.861,3.8,3.8,0,0,1-3-1.226,5.018,5.018,0,0,1-1.09-3.45,4.921,4.921,0,0,1,1.191-3.423A3.819,3.819,0,0,1,224.9-9.211a3.384,3.384,0,0,1,2.733,1.143A4.764,4.764,0,0,1,228.6-4.9Zm-1.477-1.222a2.933,2.933,0,0,0-.6-1.942A2.051,2.051,0,0,0,224.873-8a2.328,2.328,0,0,0-1.731.729,3.311,3.311,0,0,0-.879,1.907ZM238.251,0H236.81V-5.133Q236.81-8,234.718-8a2.269,2.269,0,0,0-1.789.813,3.013,3.013,0,0,0-.708,2.052V0h-1.441V-9h1.441v1.494h.035a3.248,3.248,0,0,1,2.953-1.705,2.753,2.753,0,0,1,2.259.954,4.248,4.248,0,0,1,.782,2.755Zm6.892-.088A2.779,2.779,0,0,1,243.8.193q-2.364,0-2.364-2.637V-7.77h-1.547V-9h1.547v-2.2l1.441-.466V-9h2.268v1.23h-2.268V-2.7a2.1,2.1,0,0,0,.308,1.292,1.228,1.228,0,0,0,1.02.387,1.515,1.515,0,0,0,.94-.3Z" transform="translate(648 5656)" fill="#212429"/>
    <path id="Trazado_1056262" data-name="Trazado 1056262" d="M9.105-11.268H5.467V0H3.99V-11.268H.36V-12.6H9.105ZM16.367-4.14H10.013a3.366,3.366,0,0,0,.809,2.32A2.788,2.788,0,0,0,12.948-1a4.422,4.422,0,0,0,2.795-1V-.65a5.224,5.224,0,0,1-3.138.861,3.8,3.8,0,0,1-3-1.226,5.018,5.018,0,0,1-1.09-3.45A4.921,4.921,0,0,1,9.709-7.888a3.819,3.819,0,0,1,2.958-1.323A3.384,3.384,0,0,1,15.4-8.068,4.764,4.764,0,0,1,16.367-4.9ZM14.89-5.361a2.933,2.933,0,0,0-.6-1.942A2.051,2.051,0,0,0,12.64-8a2.328,2.328,0,0,0-1.731.729,3.311,3.311,0,0,0-.879,1.907ZM24.683-.413a4.684,4.684,0,0,1-2.461.624,4.074,4.074,0,0,1-3.107-1.252,4.539,4.539,0,0,1-1.182-3.248,4.99,4.99,0,0,1,1.274-3.573,4.458,4.458,0,0,1,3.4-1.349,4.735,4.735,0,0,1,2.092.439v1.477A3.665,3.665,0,0,0,22.556-8a2.9,2.9,0,0,0-2.263.989,3.752,3.752,0,0,0-.883,2.6,3.573,3.573,0,0,0,.831,2.5A2.863,2.863,0,0,0,22.468-1a3.613,3.613,0,0,0,2.215-.782ZM34.335,0H32.894V-5.186Q32.894-8,30.8-8a2.28,2.28,0,0,0-1.775.813A3.03,3.03,0,0,0,28.306-5.1V0H26.865V-13.324h1.441v5.818h.035a3.273,3.273,0,0,1,2.953-1.705q3.041,0,3.041,3.665ZM44.524,0H43.082V-5.133Q43.082-8,40.991-8a2.269,2.269,0,0,0-1.789.813,3.013,3.013,0,0,0-.708,2.052V0H37.053V-9h1.441v1.494h.035a3.248,3.248,0,0,1,2.953-1.705,2.753,2.753,0,0,1,2.259.954A4.248,4.248,0,0,1,44.524-5.5ZM51,.211A4.175,4.175,0,0,1,47.817-1.05a4.672,4.672,0,0,1-1.191-3.344,4.867,4.867,0,0,1,1.239-3.542,4.455,4.455,0,0,1,3.349-1.274,4.037,4.037,0,0,1,3.142,1.239,4.914,4.914,0,0,1,1.129,3.437,4.835,4.835,0,0,1-1.217,3.45A4.265,4.265,0,0,1,51,.211ZM51.109-8a2.742,2.742,0,0,0-2.2.945A3.88,3.88,0,0,0,48.1-4.447a3.67,3.67,0,0,0,.817,2.522A2.778,2.778,0,0,0,51.109-1a2.635,2.635,0,0,0,2.149-.905,3.928,3.928,0,0,0,.751-2.575,4,4,0,0,0-.751-2.6A2.623,2.623,0,0,0,51.109-8Zm8.123,8H57.79V-13.324h1.441Zm6.681.211A4.175,4.175,0,0,1,62.727-1.05a4.672,4.672,0,0,1-1.191-3.344,4.867,4.867,0,0,1,1.239-3.542,4.455,4.455,0,0,1,3.349-1.274,4.037,4.037,0,0,1,3.142,1.239A4.914,4.914,0,0,1,70.4-4.535a4.835,4.835,0,0,1-1.217,3.45A4.265,4.265,0,0,1,65.913.211ZM66.018-8a2.742,2.742,0,0,0-2.2.945,3.88,3.88,0,0,0-.809,2.606,3.67,3.67,0,0,0,.817,2.522A2.778,2.778,0,0,0,66.018-1a2.635,2.635,0,0,0,2.149-.905,3.929,3.929,0,0,0,.751-2.575,4,4,0,0,0-.751-2.6A2.623,2.623,0,0,0,66.018-8ZM80.382-.721q0,4.957-4.746,4.957A6.372,6.372,0,0,1,72.718,3.6V2.162a5.993,5.993,0,0,0,2.9.844q3.322,0,3.322-3.533v-.984h-.035A3.371,3.371,0,0,1,75.811.211a3.379,3.379,0,0,1-2.7-1.2A4.8,4.8,0,0,1,72.085-4.21a5.6,5.6,0,0,1,1.1-3.647,3.685,3.685,0,0,1,3.019-1.354,2.934,2.934,0,0,1,2.7,1.459h.035V-9h1.441ZM78.94-4.069V-5.4a2.575,2.575,0,0,0-.725-1.837A2.387,2.387,0,0,0,76.409-8a2.5,2.5,0,0,0-2.092.971,4.335,4.335,0,0,0-.756,2.72,3.721,3.721,0,0,0,.725,2.4,2.343,2.343,0,0,0,1.92.9,2.509,2.509,0,0,0,1.973-.861A3.21,3.21,0,0,0,78.94-4.069ZM90.464-9,86.325,1.441q-1.107,2.795-3.111,2.795a3.3,3.3,0,0,1-.94-.114V2.83a2.672,2.672,0,0,0,.853.158,1.767,1.767,0,0,0,1.635-1.3l.721-1.705L81.965-9h1.6L86-2.074q.044.132.185.686h.053q.044-.211.176-.668L88.97-9Zm6.674,9V-12.6h3.48q6.662,0,6.662,6.144a6.191,6.191,0,0,1-1.85,4.689A6.863,6.863,0,0,1,100.479,0Zm1.477-11.268v9.932H100.5a5.338,5.338,0,0,0,3.858-1.327,4.975,4.975,0,0,0,1.38-3.762q0-4.843-5.15-4.843ZM116.8-4.14h-6.354a3.366,3.366,0,0,0,.809,2.32A2.788,2.788,0,0,0,113.383-1a4.422,4.422,0,0,0,2.795-1V-.65a5.224,5.224,0,0,1-3.138.861,3.8,3.8,0,0,1-3-1.226,5.018,5.018,0,0,1-1.09-3.45,4.921,4.921,0,0,1,1.191-3.423A3.819,3.819,0,0,1,113.1-9.211a3.384,3.384,0,0,1,2.733,1.143A4.764,4.764,0,0,1,116.8-4.9Zm-1.477-1.222a2.933,2.933,0,0,0-.6-1.942A2.051,2.051,0,0,0,113.075-8a2.328,2.328,0,0,0-1.731.729,3.311,3.311,0,0,0-.879,1.907ZM126.059-9l-3.586,9h-1.415l-3.41-9h1.582l2.285,6.539a5.869,5.869,0,0,1,.316,1.257h.035a5.943,5.943,0,0,1,.281-1.222L124.538-9Zm8.782,4.86h-6.354a3.366,3.366,0,0,0,.809,2.32A2.788,2.788,0,0,0,131.422-1a4.422,4.422,0,0,0,2.795-1V-.65a5.224,5.224,0,0,1-3.138.861,3.8,3.8,0,0,1-3-1.226,5.018,5.018,0,0,1-1.09-3.45,4.921,4.921,0,0,1,1.191-3.423,3.819,3.819,0,0,1,2.958-1.323,3.384,3.384,0,0,1,2.733,1.143,4.764,4.764,0,0,1,.967,3.173Zm-1.477-1.222a2.933,2.933,0,0,0-.6-1.942A2.051,2.051,0,0,0,131.114-8a2.328,2.328,0,0,0-1.731.729,3.311,3.311,0,0,0-.879,1.907ZM138.464,0h-1.441V-13.324h1.441Zm6.681.211a4.175,4.175,0,0,1-3.186-1.261,4.672,4.672,0,0,1-1.191-3.344,4.867,4.867,0,0,1,1.239-3.542,4.455,4.455,0,0,1,3.349-1.274A4.037,4.037,0,0,1,148.5-7.972a4.914,4.914,0,0,1,1.129,3.437,4.835,4.835,0,0,1-1.217,3.45A4.265,4.265,0,0,1,145.145.211ZM145.25-8a2.742,2.742,0,0,0-2.2.945,3.88,3.88,0,0,0-.809,2.606,3.67,3.67,0,0,0,.817,2.522A2.778,2.778,0,0,0,145.25-1a2.635,2.635,0,0,0,2.149-.905,3.928,3.928,0,0,0,.751-2.575,4,4,0,0,0-.751-2.6A2.623,2.623,0,0,0,145.25-8Zm8.158,6.7h-.035V4.14h-1.441V-9h1.441v1.582h.035a3.408,3.408,0,0,1,3.111-1.793A3.3,3.3,0,0,1,159.236-8a5.005,5.005,0,0,1,.976,3.239,5.578,5.578,0,0,1-1.1,3.617A3.658,3.658,0,0,1,156.107.211,3.011,3.011,0,0,1,153.409-1.3Zm-.035-3.63v1.257A2.676,2.676,0,0,0,154.1-1.78,2.408,2.408,0,0,0,155.94-1a2.413,2.413,0,0,0,2.052-1,4.6,4.6,0,0,0,.743-2.786,3.629,3.629,0,0,0-.694-2.355A2.3,2.3,0,0,0,156.16-8a2.554,2.554,0,0,0-2.021.875A3.211,3.211,0,0,0,153.373-4.931ZM175.3,0h-1.441V-5.168a3.9,3.9,0,0,0-.461-2.162A1.75,1.75,0,0,0,171.841-8a1.921,1.921,0,0,0-1.569.844,3.228,3.228,0,0,0-.646,2.021V0h-1.441V-5.344Q168.185-8,166.137-8a1.9,1.9,0,0,0-1.564.8,3.288,3.288,0,0,0-.615,2.07V0h-1.441V-9h1.441v1.424h.035a3.058,3.058,0,0,1,2.795-1.635A2.606,2.606,0,0,1,168.4-8.7a2.586,2.586,0,0,1,.94,1.349,3.212,3.212,0,0,1,2.988-1.863q2.971,0,2.971,3.665Zm9.96-4.14H178.9a3.366,3.366,0,0,0,.809,2.32A2.788,2.788,0,0,0,181.836-1a4.422,4.422,0,0,0,2.795-1V-.65a5.224,5.224,0,0,1-3.138.861,3.8,3.8,0,0,1-3-1.226,5.018,5.018,0,0,1-1.09-3.45A4.921,4.921,0,0,1,178.6-7.888a3.819,3.819,0,0,1,2.958-1.323,3.384,3.384,0,0,1,2.733,1.143,4.764,4.764,0,0,1,.967,3.173Zm-1.477-1.222a2.933,2.933,0,0,0-.6-1.942A2.051,2.051,0,0,0,181.528-8a2.328,2.328,0,0,0-1.731.729,3.311,3.311,0,0,0-.879,1.907ZM194.907,0h-1.441V-5.133Q193.466-8,191.374-8a2.269,2.269,0,0,0-1.789.813,3.013,3.013,0,0,0-.708,2.052V0h-1.441V-9h1.441v1.494h.035a3.248,3.248,0,0,1,2.953-1.705,2.753,2.753,0,0,1,2.259.954,4.248,4.248,0,0,1,.782,2.755ZM201.8-.088a2.779,2.779,0,0,1-1.345.281q-2.364,0-2.364-2.637V-7.77h-1.547V-9h1.547v-2.2l1.441-.466V-9H201.8v1.23h-2.268V-2.7a2.1,2.1,0,0,0,.308,1.292,1.228,1.228,0,0,0,1.02.387,1.515,1.515,0,0,0,.94-.3Z" transform="translate(673 5694)" fill="#212429"/>
    <path id="Trazado_1056263" data-name="Trazado 1056263" d="M3.129-4.764V0H1.652V-12.6H5.115a4.571,4.571,0,0,1,3.133.984A3.515,3.515,0,0,1,9.36-8.842,3.82,3.82,0,0,1,8.125-5.906,4.718,4.718,0,0,1,4.79-4.764Zm0-6.5V-6.1H4.676a3.458,3.458,0,0,0,2.333-.7,2.474,2.474,0,0,0,.8-1.973q0-2.5-2.953-2.5ZM16.235-7.541a1.763,1.763,0,0,0-1.09-.29,1.839,1.839,0,0,0-1.542.87,4.023,4.023,0,0,0-.62,2.373V0H11.542V-9h1.441v1.854h.035a3.143,3.143,0,0,1,.94-1.481,2.144,2.144,0,0,1,1.415-.532,2.353,2.353,0,0,1,.861.123ZM21.563.211A4.175,4.175,0,0,1,18.377-1.05a4.672,4.672,0,0,1-1.191-3.344,4.867,4.867,0,0,1,1.239-3.542,4.455,4.455,0,0,1,3.349-1.274,4.037,4.037,0,0,1,3.142,1.239,4.914,4.914,0,0,1,1.129,3.437,4.835,4.835,0,0,1-1.217,3.45A4.265,4.265,0,0,1,21.563.211ZM21.669-8a2.742,2.742,0,0,0-2.2.945,3.88,3.88,0,0,0-.809,2.606,3.67,3.67,0,0,0,.817,2.522A2.778,2.778,0,0,0,21.669-1a2.635,2.635,0,0,0,2.149-.905,3.928,3.928,0,0,0,.751-2.575,4,4,0,0,0-.751-2.6A2.623,2.623,0,0,0,21.669-8ZM34.485-.413a4.684,4.684,0,0,1-2.461.624,4.074,4.074,0,0,1-3.107-1.252,4.539,4.539,0,0,1-1.182-3.248,4.99,4.99,0,0,1,1.274-3.573,4.458,4.458,0,0,1,3.4-1.349,4.735,4.735,0,0,1,2.092.439v1.477A3.665,3.665,0,0,0,32.358-8a2.9,2.9,0,0,0-2.263.989,3.752,3.752,0,0,0-.883,2.6,3.573,3.573,0,0,0,.831,2.5A2.863,2.863,0,0,0,32.27-1a3.613,3.613,0,0,0,2.215-.782ZM43.944,0H42.5V-1.424h-.035A2.96,2.96,0,0,1,39.69.211q-3.217,0-3.217-3.832V-9h1.433v5.15Q37.906-1,40.085-1a2.205,2.205,0,0,0,1.736-.778A2.976,2.976,0,0,0,42.5-3.814V-9h1.441Zm7.6-7.541a1.763,1.763,0,0,0-1.09-.29,1.839,1.839,0,0,0-1.542.87,4.023,4.023,0,0,0-.62,2.373V0H46.855V-9H48.3v1.854h.035a3.143,3.143,0,0,1,.94-1.481,2.144,2.144,0,0,1,1.415-.532,2.353,2.353,0,0,1,.861.123Zm8.8,3.4H53.993a3.366,3.366,0,0,0,.809,2.32A2.788,2.788,0,0,0,56.929-1a4.422,4.422,0,0,0,2.795-1V-.65a5.224,5.224,0,0,1-3.138.861,3.8,3.8,0,0,1-3-1.226,5.018,5.018,0,0,1-1.09-3.45A4.921,4.921,0,0,1,53.69-7.888a3.819,3.819,0,0,1,2.958-1.323,3.384,3.384,0,0,1,2.733,1.143A4.764,4.764,0,0,1,60.348-4.9ZM58.871-5.361a2.933,2.933,0,0,0-.6-1.942A2.051,2.051,0,0,0,56.621-8a2.328,2.328,0,0,0-1.731.729,3.311,3.311,0,0,0-.879,1.907ZM75.309,0H73.867V-5.168a3.9,3.9,0,0,0-.461-2.162A1.75,1.75,0,0,0,71.854-8a1.921,1.921,0,0,0-1.569.844,3.228,3.228,0,0,0-.646,2.021V0H68.2V-5.344Q68.2-8,66.15-8a1.9,1.9,0,0,0-1.564.8,3.288,3.288,0,0,0-.615,2.07V0H62.529V-9h1.441v1.424h.035A3.058,3.058,0,0,1,66.8-9.211a2.606,2.606,0,0,1,1.608.514,2.586,2.586,0,0,1,.94,1.349,3.212,3.212,0,0,1,2.988-1.863q2.971,0,2.971,3.665Zm9.96-4.14H78.914a3.366,3.366,0,0,0,.809,2.32A2.788,2.788,0,0,0,81.849-1a4.422,4.422,0,0,0,2.795-1V-.65a5.224,5.224,0,0,1-3.138.861,3.8,3.8,0,0,1-3-1.226,5.018,5.018,0,0,1-1.09-3.45,4.921,4.921,0,0,1,1.191-3.423,3.819,3.819,0,0,1,2.958-1.323A3.384,3.384,0,0,1,84.3-8.068,4.764,4.764,0,0,1,85.268-4.9ZM83.792-5.361a2.933,2.933,0,0,0-.6-1.942A2.051,2.051,0,0,0,81.542-8a2.328,2.328,0,0,0-1.731.729,3.311,3.311,0,0,0-.879,1.907ZM94.92,0H93.479V-5.133Q93.479-8,91.387-8a2.269,2.269,0,0,0-1.789.813,3.013,3.013,0,0,0-.708,2.052V0H87.45V-9h1.441v1.494h.035a3.248,3.248,0,0,1,2.953-1.705,2.753,2.753,0,0,1,2.259.954A4.248,4.248,0,0,1,94.92-5.5Zm6.892-.088a2.779,2.779,0,0,1-1.345.281Q98.1.193,98.1-2.443V-7.77H96.557V-9H98.1v-2.2l1.441-.466V-9h2.268v1.23H99.545V-2.7a2.1,2.1,0,0,0,.308,1.292,1.228,1.228,0,0,0,1.02.387,1.515,1.515,0,0,0,.94-.3Z" transform="translate(723 5732)" fill="#212429"/>
    <path id="Trazado_1052547" data-name="Trazado 1052547" d="M4957.5,5619h46.325l49.043,149.077-48.274,138.4h-43.851l47.953-138.462Z" transform="translate(-3983 -26)" fill="#c1f0fa" stroke="#1d7083" stroke-width="1"/>
    <path id="Trazado_1056264" data-name="Trazado 1056264" d="M14.5,0H13.034V-8.455q0-1,.123-2.452h-.035a7.84,7.84,0,0,1-.378,1.222L8.438,0H7.717l-4.3-9.615a7.533,7.533,0,0,1-.378-1.292H3.006q.07.756.07,2.47V0H1.652V-12.6H3.6L7.471-3.814A11.254,11.254,0,0,1,8.051-2.3H8.1Q8.481-3.34,8.71-3.85L12.656-12.6H14.5ZM27.573,0H25.938L24.6-3.533H19.259L18,0H16.358l4.834-12.6h1.529ZM24.119-4.86l-1.978-5.37a5.142,5.142,0,0,1-.193-.844h-.035a4.708,4.708,0,0,1-.2.844l-1.96,5.37ZM38.465,0H36.707L34.6-3.533a7.7,7.7,0,0,0-.562-.839,3.207,3.207,0,0,0-.558-.567,1.933,1.933,0,0,0-.615-.321,2.53,2.53,0,0,0-.743-.1H30.906V0H29.429V-12.6h3.762a5.361,5.361,0,0,1,1.525.207,3.412,3.412,0,0,1,1.213.628,2.92,2.92,0,0,1,.8,1.05,3.483,3.483,0,0,1,.29,1.472,3.545,3.545,0,0,1-.2,1.208,3.156,3.156,0,0,1-.562.98,3.41,3.41,0,0,1-.879.734,4.487,4.487,0,0,1-1.156.47v.035a2.658,2.658,0,0,1,.549.321,3.023,3.023,0,0,1,.444.426,5.646,5.646,0,0,1,.417.558q.207.312.461.725ZM30.906-11.268V-6.7h2a3.039,3.039,0,0,0,1.024-.167,2.37,2.37,0,0,0,.813-.479,2.172,2.172,0,0,0,.536-.765,2.56,2.56,0,0,0,.193-1.015,1.976,1.976,0,0,0-.655-1.578,2.813,2.813,0,0,0-1.894-.567ZM49.365-.861A8.428,8.428,0,0,1,45.146.211a5.765,5.765,0,0,1-4.364-1.74,6.383,6.383,0,0,1-1.666-4.605,6.554,6.554,0,0,1,1.85-4.8,6.307,6.307,0,0,1,4.689-1.876,7.979,7.979,0,0,1,3.454.668v1.635a6.634,6.634,0,0,0-3.621-.967,4.524,4.524,0,0,0-3.472,1.459A5.336,5.336,0,0,0,40.664-6.24,5.339,5.339,0,0,0,41.92-2.483a4.405,4.405,0,0,0,3.41,1.367,5.269,5.269,0,0,0,2.558-.589V-5.238h-2.76V-6.574h4.236ZM53.77,0H52.293V-12.6H53.77ZM67.245,0H65.435L58.948-10.046a4.2,4.2,0,0,1-.4-.791h-.053a12.976,12.976,0,0,1,.07,1.731V0H57.085V-12.6H59l6.311,9.888q.4.615.51.844h.035a13.335,13.335,0,0,1-.088-1.854V-12.6h1.477Z" transform="translate(1036 5708) rotate(90)" fill="#212429"/>
  </g>
</svg>
