<svg xmlns="http://www.w3.org/2000/svg" xmlns:xlink="http://www.w3.org/1999/xlink" width="103" height="103" viewBox="0 0 103 103">
  <defs>
    <filter id="Trazado_982547" x="0" y="0" width="103" height="103" filterUnits="userSpaceOnUse">
      <feOffset dy="3" input="SourceAlpha"/>
      <feGaussianBlur stdDeviation="3" result="blur"/>
      <feFlood flood-opacity="0.161"/>
      <feComposite operator="in" in2="blur"/>
      <feComposite in="SourceGraphic"/>
    </filter>
  </defs>
  <g id="Grupo_1207832" data-name="Grupo 1207832" transform="translate(-191 -8560.251)">
    <g id="Grupo_1207590" data-name="Grupo 1207590" transform="translate(0 4632.751)">
      <g id="Grupo_1207295" data-name="Grupo 1207295" transform="translate(0 3183.5)">
        <g id="Grupo_1202212" data-name="Grupo 1202212" transform="translate(-80 -126.414)">
          <g id="Grupo_1174813" data-name="Grupo 1174813" transform="translate(280 876.414)">
            <g id="Grupo_1201680" data-name="Grupo 1201680">
              <g id="Grupo_1201330" data-name="Grupo 1201330">
                <g id="Grupo_1172010" data-name="Grupo 1172010">
                  <g id="Grupo_1171046" data-name="Grupo 1171046">
                    <g id="Grupo_1148525" data-name="Grupo 1148525">
                      <g transform="matrix(1, 0, 0, 1, -9, -6)" filter="url(#Trazado_982547)">
                        <g id="Trazado_982547-2" data-name="Trazado 982547" transform="translate(9 6)" fill="#f2f7e5">
                          <path d="M 42.5 83.5 C 36.96437835693359 83.5 31.59512901306152 82.41617584228516 26.54141235351562 80.27863311767578 C 21.65934181213379 78.21369171142578 17.27447128295898 75.25723266601562 13.50862312316895 71.49137878417969 C 9.742764472961426 67.72553253173828 6.786305904388428 63.34066009521484 4.721364498138428 58.45858764648438 C 2.583823442459106 53.40486907958984 1.5 48.03562164306641 1.5 42.5 C 1.5 36.96437835693359 2.583823442459106 31.59512901306152 4.721364498138428 26.54141235351562 C 6.786305904388428 21.65934181213379 9.742764472961426 17.27448272705078 13.50862312316895 13.50862312316895 C 17.27447128295898 9.742776870727539 21.65934181213379 6.786305904388428 26.54141235351562 4.721364498138428 C 31.59512901306152 2.583823442459106 36.96437835693359 1.5 42.5 1.5 C 48.03562164306641 1.5 53.40486907958984 2.583823442459106 58.45858764648438 4.721364498138428 C 63.34066009521484 6.786305904388428 67.72553253173828 9.742776870727539 71.49137878417969 13.50862312316895 C 75.25723266601562 17.27448272705078 78.21369171142578 21.65934181213379 80.27863311767578 26.54141235351562 C 82.41617584228516 31.59512901306152 83.5 36.96437835693359 83.5 42.5 C 83.5 48.03562164306641 82.41617584228516 53.40486907958984 80.27863311767578 58.45858764648438 C 78.21369171142578 63.34066009521484 75.25723266601562 67.72553253173828 71.49137878417969 71.49137878417969 C 67.72553253173828 75.25723266601562 63.34066009521484 78.21369171142578 58.45858764648438 80.27863311767578 C 53.40486907958984 82.41617584228516 48.03562164306641 83.5 42.5 83.5 Z" stroke="none"/>
                          <path d="M 42.5 3 C 37.16621398925781 3 31.99356079101562 4.043960571289062 27.125732421875 6.102882385253906 C 22.42246627807617 8.092185974121094 18.19785308837891 10.94070434570312 14.56928253173828 14.56928253173828 C 10.94070434570312 18.19785308837891 8.092185974121094 22.42246627807617 6.102882385253906 27.125732421875 C 4.043960571289062 31.99356079101562 3 37.16621398925781 3 42.5 C 3 47.83378601074219 4.043960571289062 53.00643920898438 6.102882385253906 57.874267578125 C 8.092185974121094 62.57753372192383 10.94070434570312 66.80214691162109 14.56928253173828 70.43071746826172 C 18.19785308837891 74.05929565429688 22.42246627807617 76.90781402587891 27.125732421875 78.89711761474609 C 31.99356079101562 80.95603942871094 37.16621398925781 82 42.5 82 C 47.83378601074219 82 53.00643920898438 80.95603942871094 57.874267578125 78.89711761474609 C 62.57753372192383 76.90781402587891 66.80214691162109 74.05929565429688 70.43071746826172 70.43071746826172 C 74.05929565429688 66.80214691162109 76.90781402587891 62.57753372192383 78.89711761474609 57.874267578125 C 80.95603942871094 53.00643920898438 82 47.83378601074219 82 42.5 C 82 37.16621398925781 80.95603942871094 31.99356079101562 78.89711761474609 27.125732421875 C 76.90781402587891 22.42246627807617 74.05929565429688 18.19785308837891 70.43071746826172 14.56928253173828 C 66.80214691162109 10.94070434570312 62.57753372192383 8.092185974121094 57.874267578125 6.102882385253906 C 53.00643920898438 4.043960571289062 47.83378601074219 3 42.5 3 M 42.5 0 C 65.97210693359375 0 85 19.02789306640625 85 42.5 C 85 65.97210693359375 65.97210693359375 85 42.5 85 C 19.02789306640625 85 0 65.97210693359375 0 42.5 C 0 19.02789306640625 19.02789306640625 0 42.5 0 Z" stroke="none" fill="#496406"/>
                        </g>
                      </g>
                    </g>
                  </g>
                </g>
              </g>
            </g>
          </g>
        </g>
      </g>
    </g>
    <g id="analyzing_2973762" transform="translate(215.453 8581.204)">
      <g id="Grupo_1207830" data-name="Grupo 1207830" transform="translate(1.856 1.856)">
        <g id="Grupo_1207808" data-name="Grupo 1207808" transform="translate(37.679 34.254)">
          <path id="Trazado_1053197" data-name="Trazado 1053197" d="M51.138,42.856V59.127H46V42.856A.859.859,0,0,1,46.856,42h3.425A.859.859,0,0,1,51.138,42.856Z" transform="translate(-46 -42)" fill="#ffeaa7"/>
        </g>
        <g id="Grupo_1207809" data-name="Grupo 1207809" transform="translate(46.243 25.691)">
          <path id="Trazado_1053198" data-name="Trazado 1053198" d="M61.138,32.856V57.691H56V32.856A.859.859,0,0,1,56.856,32h3.425A.859.859,0,0,1,61.138,32.856Z" transform="translate(-56 -32)" fill="#ffeaa7"/>
        </g>
        <g id="Grupo_1207810" data-name="Grupo 1207810" transform="translate(0 25.691)">
          <path id="Trazado_1053199" data-name="Trazado 1053199" d="M7.138,32.856V57.691H2V32.856A.859.859,0,0,1,2.856,32H6.282A.859.859,0,0,1,7.138,32.856Z" transform="translate(-2 -32)" fill="#ffeaa7"/>
        </g>
        <g id="Grupo_1207811" data-name="Grupo 1207811" transform="translate(8.564 34.254)">
          <path id="Trazado_1053200" data-name="Trazado 1053200" d="M17.138,42.856V59.127H12V42.856A.859.859,0,0,1,12.856,42h3.425A.859.859,0,0,1,17.138,42.856Z" transform="translate(-12 -42)" fill="#ffeaa7"/>
        </g>
        <g id="Grupo_1207812" data-name="Grupo 1207812" transform="translate(18.84 47.956)">
          <path id="Trazado_1053201" data-name="Trazado 1053201" d="M24,58H34.276v3.425H24Z" transform="translate(-24 -58)" fill="#b4dd7f"/>
        </g>
        <g id="Grupo_1207813" data-name="Grupo 1207813" transform="translate(27.403 34.254)">
          <path id="Trazado_1053202" data-name="Trazado 1053202" d="M38.633,44.92a1.674,1.674,0,0,1-1.207.505H35.713A1.718,1.718,0,0,1,34,43.713,1.725,1.725,0,0,1,35.713,42h1.713a1.718,1.718,0,0,1,1.713,1.713A1.674,1.674,0,0,1,38.633,44.92Z" transform="translate(-34 -42)" fill="#f0d0b4"/>
        </g>
        <g id="Grupo_1207814" data-name="Grupo 1207814" transform="translate(27.403 37.679)">
          <path id="Trazado_1053203" data-name="Trazado 1053203" d="M37.425,46a1.718,1.718,0,0,1,1.713,1.713,1.725,1.725,0,0,1-1.713,1.713H35.713A1.718,1.718,0,0,1,34,47.713,1.725,1.725,0,0,1,35.713,46Z" transform="translate(-34 -46)" fill="#f0d0b4"/>
        </g>
        <g id="Grupo_1207815" data-name="Grupo 1207815" transform="translate(27.403 41.105)">
          <path id="Trazado_1053204" data-name="Trazado 1053204" d="M37.425,50a1.718,1.718,0,0,1,1.713,1.713,1.725,1.725,0,0,1-1.713,1.713H35.713A1.718,1.718,0,0,1,34,51.713,1.725,1.725,0,0,1,35.713,50Z" transform="translate(-34 -50)" fill="#f0d0b4"/>
        </g>
        <g id="Grupo_1207816" data-name="Grupo 1207816" transform="translate(17.127 34.254)">
          <path id="Trazado_1053205" data-name="Trazado 1053205" d="M32.276,50.564a1.718,1.718,0,0,0,1.713,1.713H35.53a8.616,8.616,0,0,1-1.25,3l-.291.428H23.713l-1.584-6.328A4.431,4.431,0,0,1,22,48.32a4.352,4.352,0,0,1,1.559-3.34l3.228-2.689a1.273,1.273,0,0,1,.8-.291,1.307,1.307,0,0,1,.257.026,1.267,1.267,0,0,1,1,1.233V44a3.429,3.429,0,0,1-1,2.423l-.711.711v3.425a1.718,1.718,0,0,0,1.713,1.713h1.713A1.718,1.718,0,0,0,32.276,50.564Z" transform="translate(-22 -42)" fill="#f0d0b4"/>
        </g>
        <g id="Grupo_1207817" data-name="Grupo 1207817" transform="translate(22.265 34.049)">
          <path id="Trazado_1053206" data-name="Trazado 1053206" d="M28.754,41.76a17.135,17.135,0,0,0,2.672.206,16.153,16.153,0,0,0,1.713-.086v8.649a1.718,1.718,0,0,1-1.713,1.713H29.713A1.718,1.718,0,0,1,28,50.529V47.1l.711-.711a3.429,3.429,0,0,0,1-2.423v-.745a1.267,1.267,0,0,0-1-1.233Z" transform="translate(-28 -41.76)" fill="#969faa"/>
        </g>
        <g id="Grupo_1207818" data-name="Grupo 1207818" transform="translate(8.564)">
          <path id="Trazado_1053207" data-name="Trazado 1053207" d="M29.127,2A17.127,17.127,0,0,1,30.84,36.168a16.153,16.153,0,0,1-1.713.086A17.127,17.127,0,0,1,29.127,2Z" transform="translate(-12 -2)" fill="#fcd770"/>
        </g>
        <g id="Grupo_1207819" data-name="Grupo 1207819" transform="translate(16.63 27.403)">
          <path id="Trazado_1053208" data-name="Trazado 1053208" d="M21.917,34H39.54a13.695,13.695,0,0,1-18.12,0Z" transform="translate(-21.42 -34)" fill="#69d6f4"/>
        </g>
        <g id="Grupo_1207820" data-name="Grupo 1207820" transform="translate(12.383 3.425)">
          <path id="Trazado_1053209" data-name="Trazado 1053209" d="M22.163,10.282a1.817,1.817,0,0,0-1.285,3.1l2.894,2.894H16.922a.861.861,0,0,0-.462.137,13.71,13.71,0,0,1,26.615,0,.861.861,0,0,0-.462-.137H35.762l2.894-2.894a1.817,1.817,0,0,0-2.569-2.569L30.3,16.6a1.815,1.815,0,0,0-.531,1.285,1.815,1.815,0,0,0-.531-1.285l-5.789-5.789a1.815,1.815,0,0,0-1.285-.531Z" transform="translate(-16.46 -6)" fill="#69d6f4"/>
        </g>
        <g id="Grupo_1207821" data-name="Grupo 1207821" transform="translate(13.702 17.127)">
          <path id="Trazado_1053210" data-name="Trazado 1053210" d="M18,22l.728,8.709a1.708,1.708,0,0,0,1.7,1.567H39.546a1.708,1.708,0,0,0,1.7-1.567L41.978,22Z" transform="translate(-18 -22)" fill="#e6e9ed"/>
        </g>
        <g id="Grupo_1207822" data-name="Grupo 1207822" transform="translate(30.829 20.552)">
          <path id="Trazado_1053211" data-name="Trazado 1053211" d="M41.425,26.856v5.994H38V26.856A.859.859,0,0,1,38.856,26h1.713A.859.859,0,0,1,41.425,26.856Z" transform="translate(-38 -26)" fill="#ff826e"/>
        </g>
        <g id="Grupo_1207823" data-name="Grupo 1207823" transform="translate(23.978 20.552)">
          <path id="Trazado_1053212" data-name="Trazado 1053212" d="M33.425,26.856v5.994H30V26.856A.859.859,0,0,1,30.856,26h1.713A.859.859,0,0,1,33.425,26.856Z" transform="translate(-30 -26)" fill="#ff826e"/>
        </g>
        <g id="Grupo_1207824" data-name="Grupo 1207824" transform="translate(17.127 20.552)">
          <path id="Trazado_1053213" data-name="Trazado 1053213" d="M25.425,26.856v5.994H22V26.856A.859.859,0,0,1,22.856,26h1.713A.859.859,0,0,1,25.425,26.856Z" transform="translate(-22 -26)" fill="#ff826e"/>
        </g>
        <g id="Grupo_1207825" data-name="Grupo 1207825" transform="translate(23.875 15.312)">
          <path id="Trazado_1053214" data-name="Trazado 1053214" d="M33.511,21.7H29.88A1.813,1.813,0,0,0,31.7,19.88,1.813,1.813,0,0,0,33.511,21.7Z" transform="translate(-29.88 -19.88)" fill="#aab2bd"/>
        </g>
        <g id="Grupo_1207826" data-name="Grupo 1207826" transform="translate(27.506 13.702)">
          <path id="Trazado_1053215" data-name="Trazado 1053215" d="M46.006,18.856v1.713a.859.859,0,0,1-.856.856H34.12a1.815,1.815,0,0,0,1.285-.531L38.3,18H45.15a.861.861,0,0,1,.462.137A.853.853,0,0,1,46.006,18.856Z" transform="translate(-34.12 -18)" fill="#aab2bd"/>
        </g>
        <g id="Grupo_1207827" data-name="Grupo 1207827" transform="translate(11.989 13.702)">
          <path id="Trazado_1053216" data-name="Trazado 1053216" d="M27.886,21.425H16.856A.859.859,0,0,1,16,20.569V18.856a.853.853,0,0,1,.394-.719A.861.861,0,0,1,16.856,18h6.851L26.6,20.894a1.815,1.815,0,0,0,1.285.531Z" transform="translate(-16 -18)" fill="#aab2bd"/>
        </g>
        <g id="Grupo_1207828" data-name="Grupo 1207828" transform="translate(25.691 7.707)">
          <path id="Trazado_1053217" data-name="Trazado 1053217" d="M41.42,12.815a1.815,1.815,0,0,1-.531,1.285l-2.894,2.894L35.1,19.889a1.817,1.817,0,0,1-2.569-2.569l5.789-5.789a1.815,1.815,0,0,1,3.1,1.285Z" transform="translate(-32 -11)" fill="#ff826e"/>
        </g>
        <g id="Grupo_1207829" data-name="Grupo 1207829" transform="translate(16.271 7.707)">
          <path id="Trazado_1053218" data-name="Trazado 1053218" d="M29.889,17.32a1.817,1.817,0,0,1-2.569,2.569l-2.894-2.894L21.531,14.1A1.817,1.817,0,0,1,24.1,11.531Z" transform="translate(-21 -11)" fill="#ff826e"/>
        </g>
      </g>
      <g id="Grupo_1207831" data-name="Grupo 1207831" transform="translate(1 1)">
        <path id="Trazado_1053219" data-name="Trazado 1053219" d="M29.558,34.116a14.529,14.529,0,0,0,9.362-3.425h.194a2.584,2.584,0,0,0,2.56-2.356l.66-7.92H42.4A1.714,1.714,0,0,0,44.116,18.7V16.989a1.706,1.706,0,0,0-.507-1.214,14.549,14.549,0,0,0-28.1,0A1.706,1.706,0,0,0,15,16.989V18.7a1.714,1.714,0,0,0,1.713,1.713h.069l.66,7.92A2.583,2.583,0,0,0,20,30.691h.194a14.535,14.535,0,0,0,9.363,3.425Zm-5.994-5.138H21.851V23.84h1.713ZM29.558,32.4a12.832,12.832,0,0,1-6.393-1.713H35.951A12.832,12.832,0,0,1,29.558,32.4Zm.856-3.425H28.7V23.84h1.713Zm6.851,0H35.552V23.84h1.713ZM42.4,18.7H34.194l1.713-1.713h6.5Zm-15.341-.281-5.787-5.787a.96.96,0,0,1,1.358-1.358l5.787,5.787a.96.96,0,0,1-1.358,1.358Zm-7-4.576L21.5,15.276H17.447a12.779,12.779,0,0,1,1.847-3.449c0,.043-.013.083-.013.127A2.656,2.656,0,0,0,20.064,13.844Zm10.35,3.9a.956.956,0,0,1,.281-.679l5.787-5.787a.96.96,0,0,1,1.358,1.358l-5.787,5.787a.96.96,0,0,1-1.639-.679Zm9.407-5.914a12.779,12.779,0,0,1,1.847,3.449H37.62l1.432-1.432a2.656,2.656,0,0,0,.783-1.89c0-.044-.011-.084-.013-.127ZM37.287,9.295c-.043,0-.082-.013-.125-.013a2.656,2.656,0,0,0-1.89.783l-5.714,5.714-5.714-5.714a2.656,2.656,0,0,0-1.89-.783c-.043,0-.082.01-.125.013a12.858,12.858,0,0,1,15.457,0ZM16.713,16.989h6.5L24.922,18.7H16.713Zm2.435,11.2L18.5,20.414H40.616l-.648,7.778a.861.861,0,0,1-.853.785h-.137V23.84a1.714,1.714,0,0,0-1.713-1.713H35.552A1.714,1.714,0,0,0,33.84,23.84v5.138H32.127V23.84a1.714,1.714,0,0,0-1.713-1.713H28.7a1.714,1.714,0,0,0-1.713,1.713v5.138H25.276V23.84a1.714,1.714,0,0,0-1.713-1.713H21.851a1.714,1.714,0,0,0-1.713,1.713v5.138H20a.861.861,0,0,1-.853-.785Z" transform="translate(-3.011 -1.575)"/>
        <path id="Trazado_1053220" data-name="Trazado 1053220" d="M52.381,26.691H48.956A1.714,1.714,0,0,0,47.243,28.4V52.381H45.53V36.967a1.714,1.714,0,0,0-1.713-1.713H40.392a1.714,1.714,0,0,0-1.713,1.713V52.381H31.829v-2.31l.144-.216a9.285,9.285,0,0,0,1.214-2.663,2.556,2.556,0,0,0,1.4-4.231,2.53,2.53,0,0,0,0-3.425A2.55,2.55,0,0,0,34.13,35.7,17.98,17.98,0,1,0,22.6,36.26L20,38.432a5.2,5.2,0,0,0-1.716,5.255l1.558,6.23v2.464H16.414V36.967A1.714,1.714,0,0,0,14.7,35.254H11.276a1.714,1.714,0,0,0-1.713,1.713V52.381H7.851V28.4a1.714,1.714,0,0,0-1.713-1.713H2.713A1.714,1.714,0,0,0,1,28.4V54.094H54.094V28.4a1.714,1.714,0,0,0-1.713-1.713ZM6.138,52.381H2.713V28.4H6.138ZM40.392,36.967h3.425V52.381H40.392ZM32.685,45.53H30.972a.856.856,0,1,1,0-1.713h1.713a.856.856,0,0,1,0,1.713Zm0-6.851H30.972a.856.856,0,1,1,0-1.713h1.713a.856.856,0,0,1,0,1.713Zm.856,2.569a.858.858,0,0,1-.856.856H30.972a.856.856,0,1,1,0-1.713h1.713A.858.858,0,0,1,33.541,41.248ZM11.276,18.983A16.271,16.271,0,1,1,27.547,35.254,16.289,16.289,0,0,1,11.276,18.983ZM27.547,36.967c.289,0,.57-.03.856-.044v7.751a.858.858,0,0,1-.856.856H25.834a.858.858,0,0,1-.856-.856V41.6l.459-.459a4.252,4.252,0,0,0,1.254-3.027v-.749a2.141,2.141,0,0,0-.05-.447c.3.015.6.046.906.046Zm-6.453,2.781,3.226-2.688a.416.416,0,0,1,.658.308v.749a2.586,2.586,0,0,1-.752,1.816l-.961.961v3.78a2.572,2.572,0,0,0,2.569,2.569h1.713a2.553,2.553,0,0,0,1.713-.668,2.548,2.548,0,0,0,1.713.668h.4a7.548,7.548,0,0,1-.827,1.662l-.033.051H21.365l-1.421-5.684a3.485,3.485,0,0,1,1.15-3.525Zm.458,10.921h8.564v1.713H21.552Zm-10.276-13.7H14.7V52.381H11.276Zm41.1,15.414H48.956V28.4h3.425Z" transform="translate(-1 -1)"/>
      </g>
    </g>
  </g>
</svg>
