<svg xmlns="http://www.w3.org/2000/svg" xmlns:xlink="http://www.w3.org/1999/xlink" width="103" height="103" viewBox="0 0 103 103">
  <defs>
    <filter id="Trazado_982547" x="0" y="0" width="103" height="103" filterUnits="userSpaceOnUse">
      <feOffset dy="3" input="SourceAlpha"/>
      <feGaussianBlur stdDeviation="3" result="blur"/>
      <feFlood flood-opacity="0.161"/>
      <feComposite operator="in" in2="blur"/>
      <feComposite in="SourceGraphic"/>
    </filter>
  </defs>
  <g id="Grupo_1207833" data-name="Grupo 1207833" transform="translate(-611 -8560.251)">
    <g id="Grupo_1207589" data-name="Grupo 1207589" transform="translate(0 4632.751)">
      <g id="Grupo_1207296" data-name="Grupo 1207296" transform="translate(0 3183.5)">
        <g id="Grupo_1202210" data-name="Grupo 1202210" transform="translate(340 -126.414)">
          <g id="Grupo_1174813" data-name="Grupo 1174813" transform="translate(280 876.414)">
            <g id="Grupo_1201680" data-name="Grupo 1201680">
              <g id="Grupo_1201330" data-name="Grupo 1201330">
                <g id="Grupo_1172010" data-name="Grupo 1172010">
                  <g id="Grupo_1171046" data-name="Grupo 1171046">
                    <g id="Grupo_1148525" data-name="Grupo 1148525">
                      <g transform="matrix(1, 0, 0, 1, -9, -6)" filter="url(#Trazado_982547)">
                        <g id="Trazado_982547-2" data-name="Trazado 982547" transform="translate(9 6)" fill="#e6f0cd">
                          <path d="M 42.5 83.5 C 36.96437835693359 83.5 31.59512901306152 82.41617584228516 26.54141235351562 80.27863311767578 C 21.65934181213379 78.21369171142578 17.27447128295898 75.25723266601562 13.50862312316895 71.49137878417969 C 9.742764472961426 67.72553253173828 6.786305904388428 63.34066009521484 4.721364498138428 58.45858764648438 C 2.583823442459106 53.40486907958984 1.5 48.03562164306641 1.5 42.5 C 1.5 36.96437835693359 2.583823442459106 31.59512901306152 4.721364498138428 26.54141235351562 C 6.786305904388428 21.65934181213379 9.742764472961426 17.27448272705078 13.50862312316895 13.50862312316895 C 17.27447128295898 9.742776870727539 21.65934181213379 6.786305904388428 26.54141235351562 4.721364498138428 C 31.59512901306152 2.583823442459106 36.96437835693359 1.5 42.5 1.5 C 48.03562164306641 1.5 53.40486907958984 2.583823442459106 58.45858764648438 4.721364498138428 C 63.34066009521484 6.786305904388428 67.72553253173828 9.742776870727539 71.49137878417969 13.50862312316895 C 75.25723266601562 17.27448272705078 78.21369171142578 21.65934181213379 80.27863311767578 26.54141235351562 C 82.41617584228516 31.59512901306152 83.5 36.96437835693359 83.5 42.5 C 83.5 48.03562164306641 82.41617584228516 53.40486907958984 80.27863311767578 58.45858764648438 C 78.21369171142578 63.34066009521484 75.25723266601562 67.72553253173828 71.49137878417969 71.49137878417969 C 67.72553253173828 75.25723266601562 63.34066009521484 78.21369171142578 58.45858764648438 80.27863311767578 C 53.40486907958984 82.41617584228516 48.03562164306641 83.5 42.5 83.5 Z" stroke="none"/>
                          <path d="M 42.5 3 C 37.16621398925781 3 31.99356079101562 4.043960571289062 27.125732421875 6.102882385253906 C 22.42246627807617 8.092185974121094 18.19785308837891 10.94070434570312 14.56928253173828 14.56928253173828 C 10.94070434570312 18.19785308837891 8.092185974121094 22.42246627807617 6.102882385253906 27.125732421875 C 4.043960571289062 31.99356079101562 3 37.16621398925781 3 42.5 C 3 47.83378601074219 4.043960571289062 53.00643920898438 6.102882385253906 57.874267578125 C 8.092185974121094 62.57753372192383 10.94070434570312 66.80214691162109 14.56928253173828 70.43071746826172 C 18.19785308837891 74.05929565429688 22.42246627807617 76.90781402587891 27.125732421875 78.89711761474609 C 31.99356079101562 80.95603942871094 37.16621398925781 82 42.5 82 C 47.83378601074219 82 53.00643920898438 80.95603942871094 57.874267578125 78.89711761474609 C 62.57753372192383 76.90781402587891 66.80214691162109 74.05929565429688 70.43071746826172 70.43071746826172 C 74.05929565429688 66.80214691162109 76.90781402587891 62.57753372192383 78.89711761474609 57.874267578125 C 80.95603942871094 53.00643920898438 82 47.83378601074219 82 42.5 C 82 37.16621398925781 80.95603942871094 31.99356079101562 78.89711761474609 27.125732421875 C 76.90781402587891 22.42246627807617 74.05929565429688 18.19785308837891 70.43071746826172 14.56928253173828 C 66.80214691162109 10.94070434570312 62.57753372192383 8.092185974121094 57.874267578125 6.102882385253906 C 53.00643920898438 4.043960571289062 47.83378601074219 3 42.5 3 M 42.5 0 C 65.97210693359375 0 85 19.02789306640625 85 42.5 C 85 65.97210693359375 65.97210693359375 85 42.5 85 C 19.02789306640625 85 0 65.97210693359375 0 42.5 C 0 19.02789306640625 19.02789306640625 0 42.5 0 Z" stroke="none" fill="#496406"/>
                        </g>
                      </g>
                    </g>
                  </g>
                </g>
              </g>
            </g>
          </g>
        </g>
      </g>
    </g>
    <g id="performance_1610614" transform="translate(636.632 8582.368)">
      <path id="Trazado_1053221" data-name="Trazado 1053221" d="M8,424h6.9v5.174H8Zm0,0" transform="translate(-7.138 -378.3)" fill="#ff6b6b"/>
      <path id="Trazado_1053222" data-name="Trazado 1053222" d="M144,408h6.9v6.9H144Zm0,0" transform="translate(-128.479 -364.025)" fill="#ffe35b"/>
      <path id="Trazado_1053223" data-name="Trazado 1053223" d="M280,336h6.9v14.658H280Zm0,0" transform="translate(-249.821 -299.785)" fill="#5eaee6"/>
      <path id="Trazado_1053224" data-name="Trazado 1053224" d="M408,264h6.9v22.419H408Zm0,0" transform="translate(-364.025 -235.546)" fill="#398ecc"/>
      <path id="Trazado_1053225" data-name="Trazado 1053225" d="M279.281,21.585V17.7l-2.532-.838a9.434,9.434,0,0,0-.7-1.686l1.075-2.264a11.693,11.693,0,0,0-2.751-2.751l-2.264,1.075a9.495,9.495,0,0,0-1.686-.7L269.585,8H265.7l-.838,2.532-1.686.7-2.265-1.075a11.674,11.674,0,0,0-2.751,2.751l1.075,2.265-.7,1.686L256,17.7v3.889l2.532.838.7,1.686-1.075,2.264a11.693,11.693,0,0,0,2.751,2.751l2.264-1.075a9.493,9.493,0,0,0,1.686.7l.838,2.532h3.889l.838-2.532a9.433,9.433,0,0,0,1.686-.7l2.264,1.075a11.685,11.685,0,0,0,2.751-2.751l-1.075-2.264a9.5,9.5,0,0,0,.7-1.686Zm0,0" transform="translate(-228.408 -7.138)" fill="#ffe35b"/>
      <path id="Trazado_1053226" data-name="Trazado 1053226" d="M316.934,62.467A6.467,6.467,0,1,1,310.467,56,6.467,6.467,0,0,1,316.934,62.467Zm0,0" transform="translate(-271.234 -49.964)" fill="#c8cece"/>
      <path id="Trazado_1053227" data-name="Trazado 1053227" d="M33.868,151.095v-4.321l-2.814-.931a10.442,10.442,0,0,0-.778-1.873l1.2-2.516a12.993,12.993,0,0,0-3.057-3.057l-2.516,1.2a10.553,10.553,0,0,0-1.873-.778L23.094,136H18.773l-.931,2.814-1.873.778-2.516-1.2a12.993,12.993,0,0,0-3.057,3.057l1.2,2.516-.778,1.873L8,146.773v4.321l2.814.931.778,1.873-1.2,2.516a12.993,12.993,0,0,0,3.057,3.057l2.516-1.2,1.873.778.931,2.815h4.321l.931-2.814a10.441,10.441,0,0,0,1.873-.778l2.516,1.2a12.993,12.993,0,0,0,3.057-3.057l-1.2-2.516a10.49,10.49,0,0,0,.778-1.873Zm0,0" transform="translate(-7.137 -121.342)" fill="#ff6b6b"/>
      <path id="Trazado_1053228" data-name="Trazado 1053228" d="M75.706,196.521a7.185,7.185,0,1,1-7.185-7.185A7.185,7.185,0,0,1,75.706,196.521Zm0,0" transform="translate(-54.725 -168.929)" fill="#c8cece"/>
      <path id="Trazado_1053229" data-name="Trazado 1053229" d="M101.164,227.449A2.147,2.147,0,0,0,100,224.068a2.16,2.16,0,0,0-2.708,2.087,2.138,2.138,0,0,0,.441,1.293A1.734,1.734,0,0,0,96,229.184v5.164h6.9v-5.164A1.734,1.734,0,0,0,101.164,227.449Zm0,0" transform="translate(-85.653 -199.857)" fill="#398ecc"/>
      <path id="Trazado_1053230" data-name="Trazado 1053230" d="M251.15,8.058l-.4.967-2.157.715a.861.861,0,0,0-.592.818v3.889a.861.861,0,0,0,.592.818l2.157.715.4.967-.911,1.919a.864.864,0,0,0,.076.87,12.533,12.533,0,0,0,2.954,2.954.862.862,0,0,0,.87.076l1.882-.894a10.36,10.36,0,0,0,1.016.422l.7,2.12a.863.863,0,0,0,.819.591h3.889a.861.861,0,0,0,.818-.592l.7-2.12a10.6,10.6,0,0,0,1.016-.422l1.882.894a.86.86,0,0,0,.87-.076,12.533,12.533,0,0,0,2.954-2.954.862.862,0,0,0,.076-.87l-.894-1.882a10.193,10.193,0,0,0,.422-1.016l2.12-.7a.862.862,0,0,0,.591-.818V10.558a.861.861,0,0,0-.592-.818l-2.12-.7a10.487,10.487,0,0,0-.422-1.016l.894-1.882a.864.864,0,0,0-.076-.87,12.534,12.534,0,0,0-2.954-2.954.86.86,0,0,0-.87-.076l-1.882.894a10.5,10.5,0,0,0-1.016-.422l-.7-2.12A.86.86,0,0,0,262.447,0h-3.889a.861.861,0,0,0-.818.592l-.715,2.158-.967.4-1.919-.911a.866.866,0,0,0-.87.076,12.51,12.51,0,0,0-2.954,2.954.86.86,0,0,0-.076.869Zm1.04,1.992.7-1.685a.861.861,0,0,0-.018-.7l-.853-1.8a10.758,10.758,0,0,1,1.849-1.849l1.8.853a.858.858,0,0,0,.7.017l1.685-.7a.861.861,0,0,0,.488-.525l.642-1.94h2.644l.642,1.941a.863.863,0,0,0,.568.554,8.648,8.648,0,0,1,1.531.635.863.863,0,0,0,.775.018l1.8-.853a10.759,10.759,0,0,1,1.849,1.849l-.853,1.8a.861.861,0,0,0,.018.775,8.549,8.549,0,0,1,.635,1.531.863.863,0,0,0,.554.568l1.942.643v2.644l-1.941.643a.863.863,0,0,0-.554.568,8.641,8.641,0,0,1-.636,1.531.866.866,0,0,0-.018.775l.853,1.8a10.729,10.729,0,0,1-1.849,1.849l-1.8-.853a.855.855,0,0,0-.775.018,8.648,8.648,0,0,1-1.531.635.863.863,0,0,0-.568.554l-.642,1.941H259.18l-.642-1.941a.863.863,0,0,0-.568-.554,8.682,8.682,0,0,1-1.532-.636.864.864,0,0,0-.775-.018l-1.8.853a10.728,10.728,0,0,1-1.849-1.849l.853-1.8a.858.858,0,0,0,.017-.7l-.7-1.686a.861.861,0,0,0-.525-.488l-1.94-.641V11.181l1.941-.642A.866.866,0,0,0,252.19,10.05Zm0,0" transform="translate(-221.27 0)"/>
      <path id="Trazado_1053231" data-name="Trazado 1053231" d="M303.329,62.658A7.329,7.329,0,1,0,296,55.329,7.337,7.337,0,0,0,303.329,62.658Zm0-12.934a5.6,5.6,0,1,1-5.6,5.6A5.611,5.611,0,0,1,303.329,49.725Zm0,0" transform="translate(-264.096 -42.827)"/>
      <path id="Trazado_1053232" data-name="Trazado 1053232" d="M353.294,88.164a1.3,1.3,0,0,0,1.293-1.293,1.259,1.259,0,0,0-.033-.28l1.6-2.236-1.4-1-1.6,2.24a1.29,1.29,0,0,0,.146,2.572Zm0,0" transform="translate(-314.061 -74.368)"/>
      <path id="Trazado_1053233" data-name="Trazado 1053233" d="M.862,422.9h6.9a.863.863,0,0,0,.862-.862v-5.174A.863.863,0,0,0,7.76,416H.862a.863.863,0,0,0-.862.862v5.174A.863.863,0,0,0,.862,422.9Zm.862-5.174H6.9v3.449H1.725Zm0,0" transform="translate(0 -371.163)"/>
      <path id="Trazado_1053234" data-name="Trazado 1053234" d="M136.862,408.623h6.9a.863.863,0,0,0,.862-.862v-6.9a.863.863,0,0,0-.862-.862h-6.9a.863.863,0,0,0-.862.862v6.9A.863.863,0,0,0,136.862,408.623Zm.862-6.9H142.9V406.9h-5.174Zm0,0" transform="translate(-121.342 -356.887)"/>
      <path id="Trazado_1053235" data-name="Trazado 1053235" d="M279.76,344.383a.863.863,0,0,0,.862-.862V328.862a.863.863,0,0,0-.862-.862h-6.9a.863.863,0,0,0-.862.862v14.658a.863.863,0,0,0,.862.862Zm-6.036-14.658H278.9v12.934h-5.174Zm0,0" transform="translate(-242.683 -292.647)"/>
      <path id="Trazado_1053236" data-name="Trazado 1053236" d="M400.862,256a.863.863,0,0,0-.862.862v22.419a.863.863,0,0,0,.862.862h6.9a.863.863,0,0,0,.862-.862V256.862a.863.863,0,0,0-.862-.862Zm6.036,22.419h-5.174V257.725H406.9Zm0,0" transform="translate(-356.887 -228.408)"/>
      <path id="Trazado_1053237" data-name="Trazado 1053237" d="M4.242,121.326l1.725-.92.812,1.522-1.725.92Zm0,0" transform="translate(-3.785 -107.428)"/>
      <path id="Trazado_1053238" data-name="Trazado 1053238" d="M37.042,13.58,57.074,2.9,55.7,5.65l1.543.772,2.587-5.174A.863.863,0,0,0,59.055,0H53.019V1.724h2.587L36.23,12.058Zm0,0" transform="translate(-32.325)"/>
      <path id="Trazado_1053239" data-name="Trazado 1053239" d="M61.383,197.431a8.047,8.047,0,1,0-8.047-8.047,8.057,8.057,0,0,0,8.047,8.047ZM58.8,195.148v-4.029a.874.874,0,0,1,.872-.873.862.862,0,0,0,.688-1.381,1.291,1.291,0,1,1,2.26-1.169,1.268,1.268,0,0,1-.207,1.168.863.863,0,0,0,.689,1.383.873.873,0,0,1,.872.872v4.029a6.263,6.263,0,0,1-5.174,0Zm2.587-12.087A6.314,6.314,0,0,1,65.695,194v-2.878a2.6,2.6,0,0,0-1.386-2.3,3.034,3.034,0,0,0-.038-1.617,2.98,2.98,0,0,0-2.128-2.039,3.022,3.022,0,0,0-3.777,2.925,2.979,2.979,0,0,0,.091.732,2.6,2.6,0,0,0-1.385,2.3V194a6.314,6.314,0,0,1,4.311-10.935Zm0,0" transform="translate(-47.587 -161.791)"/>
      <path id="Trazado_1053240" data-name="Trazado 1053240" d="M.592,144.776l2.439.808.479,1.154-1.03,2.17a.864.864,0,0,0,.076.87,13.806,13.806,0,0,0,3.26,3.26.862.862,0,0,0,.87.076l2.17-1.03,1.154.479L10.818,155a.86.86,0,0,0,.818.591h4.321a.861.861,0,0,0,.818-.592l.795-2.4a11.373,11.373,0,0,0,1.2-.5l2.133,1.013a.862.862,0,0,0,.87-.076,13.806,13.806,0,0,0,3.26-3.26.862.862,0,0,0,.076-.87L24.1,146.773a11.462,11.462,0,0,0,.5-1.2l2.4-.795a.86.86,0,0,0,.591-.818v-4.321a.861.861,0,0,0-.592-.818l-2.4-.795a11.374,11.374,0,0,0-.5-1.2l1.013-2.133a.864.864,0,0,0-.076-.87,13.805,13.805,0,0,0-3.26-3.26.857.857,0,0,0-.87-.076l-2.134,1.013a11.463,11.463,0,0,0-1.2-.5l-.795-2.4a.86.86,0,0,0-.818-.591H11.635a.861.861,0,0,0-.818.592l-.808,2.439-1.154.478-2.17-1.03a.863.863,0,0,0-.869.076,13.806,13.806,0,0,0-3.26,3.26.862.862,0,0,0-.076.87l1.03,2.17-.479,1.154-2.439.808a.861.861,0,0,0-.592.818v4.321a.861.861,0,0,0,.592.818Zm1.133-4.518,2.222-.736a.861.861,0,0,0,.525-.488l.778-1.873a.858.858,0,0,0-.017-.7l-.973-2.048a12.073,12.073,0,0,1,2.154-2.154l2.049.973a.865.865,0,0,0,.7.018l1.873-.777a.861.861,0,0,0,.488-.525l.735-2.224h3.076l.736,2.222a.863.863,0,0,0,.566.554,9.568,9.568,0,0,1,1.719.714.863.863,0,0,0,.775.018l2.048-.973a12.1,12.1,0,0,1,2.154,2.154l-.973,2.048a.861.861,0,0,0,.018.775,9.726,9.726,0,0,1,.714,1.719.862.862,0,0,0,.554.566l2.223.736v3.076l-2.222.736a.863.863,0,0,0-.554.566,9.57,9.57,0,0,1-.714,1.719.861.861,0,0,0-.018.775l.973,2.048a12.1,12.1,0,0,1-2.154,2.154l-2.048-.973a.854.854,0,0,0-.775.018,9.724,9.724,0,0,1-1.719.714.862.862,0,0,0-.566.554l-.736,2.223H12.259l-.736-2.222a.861.861,0,0,0-.488-.525l-1.873-.778a.86.86,0,0,0-.7.017l-2.048.973a12.1,12.1,0,0,1-2.154-2.154l.973-2.048a.858.858,0,0,0,.017-.7l-.778-1.873a.859.859,0,0,0-.525-.488l-2.222-.736Zm0,0" transform="translate(0 -114.204)"/>
    </g>
  </g>
</svg>
