<svg xmlns="http://www.w3.org/2000/svg" xmlns:xlink="http://www.w3.org/1999/xlink" width="103" height="103" viewBox="0 0 103 103">
  <defs>
    <filter id="Trazado_982547" x="0" y="0" width="103" height="103" filterUnits="userSpaceOnUse">
      <feOffset dy="3" input="SourceAlpha"/>
      <feGaussianBlur stdDeviation="3" result="blur"/>
      <feFlood flood-opacity="0.161"/>
      <feComposite operator="in" in2="blur"/>
      <feComposite in="SourceGraphic"/>
    </filter>
  </defs>
  <g id="Grupo_1207840" data-name="Grupo 1207840" transform="translate(-1031 -8560.251)">
    <g id="Grupo_1207588" data-name="Grupo 1207588" transform="translate(0 4632.751)">
      <g id="Grupo_1207297" data-name="Grupo 1207297" transform="translate(0 3183.5)">
        <g id="Grupo_1202211" data-name="Grupo 1202211" transform="translate(760 -126.414)">
          <g id="Grupo_1174813" data-name="Grupo 1174813" transform="translate(280 876.414)">
            <g id="Grupo_1201680" data-name="Grupo 1201680">
              <g id="Grupo_1201330" data-name="Grupo 1201330">
                <g id="Grupo_1172010" data-name="Grupo 1172010">
                  <g id="Grupo_1171046" data-name="Grupo 1171046">
                    <g id="Grupo_1148525" data-name="Grupo 1148525">
                      <g transform="matrix(1, 0, 0, 1, -9, -6)" filter="url(#Trazado_982547)">
                        <g id="Trazado_982547-2" data-name="Trazado 982547" transform="translate(9 6)" fill="#f2f7e5">
                          <path d="M 42.5 83.5 C 36.96437835693359 83.5 31.59512901306152 82.41617584228516 26.54141235351562 80.27863311767578 C 21.65934181213379 78.21369171142578 17.27447128295898 75.25723266601562 13.50862312316895 71.49137878417969 C 9.742764472961426 67.72553253173828 6.786305904388428 63.34066009521484 4.721364498138428 58.45858764648438 C 2.583823442459106 53.40486907958984 1.5 48.03562164306641 1.5 42.5 C 1.5 36.96437835693359 2.583823442459106 31.59512901306152 4.721364498138428 26.54141235351562 C 6.786305904388428 21.65934181213379 9.742764472961426 17.27448272705078 13.50862312316895 13.50862312316895 C 17.27447128295898 9.742776870727539 21.65934181213379 6.786305904388428 26.54141235351562 4.721364498138428 C 31.59512901306152 2.583823442459106 36.96437835693359 1.5 42.5 1.5 C 48.03562164306641 1.5 53.40486907958984 2.583823442459106 58.45858764648438 4.721364498138428 C 63.34066009521484 6.786305904388428 67.72553253173828 9.742776870727539 71.49137878417969 13.50862312316895 C 75.25723266601562 17.27448272705078 78.21369171142578 21.65934181213379 80.27863311767578 26.54141235351562 C 82.41617584228516 31.59512901306152 83.5 36.96437835693359 83.5 42.5 C 83.5 48.03562164306641 82.41617584228516 53.40486907958984 80.27863311767578 58.45858764648438 C 78.21369171142578 63.34066009521484 75.25723266601562 67.72553253173828 71.49137878417969 71.49137878417969 C 67.72553253173828 75.25723266601562 63.34066009521484 78.21369171142578 58.45858764648438 80.27863311767578 C 53.40486907958984 82.41617584228516 48.03562164306641 83.5 42.5 83.5 Z" stroke="none"/>
                          <path d="M 42.5 3 C 37.16621398925781 3 31.99356079101562 4.043960571289062 27.125732421875 6.102882385253906 C 22.42246627807617 8.092185974121094 18.19785308837891 10.94070434570312 14.56928253173828 14.56928253173828 C 10.94070434570312 18.19785308837891 8.092185974121094 22.42246627807617 6.102882385253906 27.125732421875 C 4.043960571289062 31.99356079101562 3 37.16621398925781 3 42.5 C 3 47.83378601074219 4.043960571289062 53.00643920898438 6.102882385253906 57.874267578125 C 8.092185974121094 62.57753372192383 10.94070434570312 66.80214691162109 14.56928253173828 70.43071746826172 C 18.19785308837891 74.05929565429688 22.42246627807617 76.90781402587891 27.125732421875 78.89711761474609 C 31.99356079101562 80.95603942871094 37.16621398925781 82 42.5 82 C 47.83378601074219 82 53.00643920898438 80.95603942871094 57.874267578125 78.89711761474609 C 62.57753372192383 76.90781402587891 66.80214691162109 74.05929565429688 70.43071746826172 70.43071746826172 C 74.05929565429688 66.80214691162109 76.90781402587891 62.57753372192383 78.89711761474609 57.874267578125 C 80.95603942871094 53.00643920898438 82 47.83378601074219 82 42.5 C 82 37.16621398925781 80.95603942871094 31.99356079101562 78.89711761474609 27.125732421875 C 76.90781402587891 22.42246627807617 74.05929565429688 18.19785308837891 70.43071746826172 14.56928253173828 C 66.80214691162109 10.94070434570312 62.57753372192383 8.092185974121094 57.874267578125 6.102882385253906 C 53.00643920898438 4.043960571289062 47.83378601074219 3 42.5 3 M 42.5 0 C 65.97210693359375 0 85 19.02789306640625 85 42.5 C 85 65.97210693359375 65.97210693359375 85 42.5 85 C 19.02789306640625 85 0 65.97210693359375 0 42.5 C 0 19.02789306640625 19.02789306640625 0 42.5 0 Z" stroke="none" fill="#496406"/>
                        </g>
                      </g>
                    </g>
                  </g>
                </g>
              </g>
            </g>
          </g>
        </g>
      </g>
    </g>
    <g id="positive-interaction_16135884" transform="translate(1053.124 8579.379)">
      <g id="Grupo_1207839" data-name="Grupo 1207839" transform="translate(1.895 1.89)">
        <g id="Grupo_1207834" data-name="Grupo 1207834" transform="translate(34.095 32.557)">
          <path id="Trazado_1053241" data-name="Trazado 1053241" d="M315.445,418.652a10.461,10.461,0,0,1,20.863,0,.727.727,0,0,1-.728.784H316.173A.727.727,0,0,1,315.445,418.652Z" transform="translate(-315.443 -397.031)" fill="#72d561" fill-rule="evenodd"/>
          <path id="Trazado_1053242" data-name="Trazado 1053242" d="M398.728,409.042a10.456,10.456,0,0,1,11.6,9.611.727.727,0,0,1-.728.784h-2.335a.727.727,0,0,0,.728-.784A10.5,10.5,0,0,0,398.728,409.042Z" transform="translate(-389.462 -397.032)" fill="#57ca5a" fill-rule="evenodd"/>
          <circle id="Elipse_13465" data-name="Elipse 13465" cx="5.654" cy="5.654" r="5.654" transform="translate(4.672 0.215) rotate(-1.088)" fill="#ffd6bd"/>
          <path id="Trazado_1053243" data-name="Trazado 1053243" d="M370.687,318.831a5.654,5.654,0,1,0,7.323-8.456,5.654,5.654,0,0,1-7.323,8.456Z" transform="translate(-364.54 -309.401)" fill="#f9c6aa" fill-rule="evenodd"/>
        </g>
        <g id="Grupo_1207835" data-name="Grupo 1207835" transform="translate(2.303 33.853)">
          <path id="Trazado_1053244" data-name="Trazado 1053244" d="M31.351,318.811H30.177a.475.475,0,0,1-.377-.767l3.544-4.586a.476.476,0,0,1,.753,0l3.544,4.586a.475.475,0,0,1-.377.767h-1.07c1.3,8.063,8.743,10.127,14.422,10.382C42.513,332.862,32.407,327.538,31.351,318.811Z" transform="translate(-29.699 -313.273)" fill="#72d561" fill-rule="evenodd"/>
          <path id="Trazado_1053245" data-name="Trazado 1053245" d="M61.04,313.664l.158-.205a.476.476,0,0,1,.753,0l3.544,4.586a.475.475,0,0,1-.377.767h-2.14c1.3,8.063,8.743,10.127,14.422,10.382a13.233,13.233,0,0,1-4.958,1.164,13.315,13.315,0,0,0,6.029-1.164c-5.679-.255-13.122-2.319-14.422-10.382a.476.476,0,0,0,.377-.767Z" transform="translate(-57.553 -313.274)" fill="#57ca5a" fill-rule="evenodd"/>
        </g>
        <g id="Grupo_1207836" data-name="Grupo 1207836" transform="translate(27.162 6.504)">
          <path id="Trazado_1053246" data-name="Trazado 1053246" d="M272.4,79.016h1.174a.475.475,0,0,1,.377.767l-3.544,4.586a.476.476,0,0,1-.753,0l-3.544-4.586a.475.475,0,0,1,.377-.767h1.07c-1.3-8.063-8.743-10.127-14.422-10.382C261.236,64.965,271.343,70.289,272.4,79.016Z" transform="translate(-253.134 -67.459)" fill="#ffda2d" fill-rule="evenodd"/>
          <path id="Trazado_1053247" data-name="Trazado 1053247" d="M270.564,84.174l-.158.205a.476.476,0,0,1-.753,0l-3.544-4.586a.476.476,0,0,1,.377-.767h2.14c-1.3-8.063-8.743-10.127-14.422-10.382a13.234,13.234,0,0,1,4.958-1.164,13.315,13.315,0,0,0-6.029,1.164c5.679.255,13.122,2.319,14.422,10.382a.476.476,0,0,0-.377.767Z" transform="translate(-253.134 -67.468)" fill="#ffc700" fill-rule="evenodd"/>
        </g>
        <g id="Grupo_1207837" data-name="Grupo 1207837">
          <path id="Trazado_1053248" data-name="Trazado 1053248" d="M9.005,125.219a10.461,10.461,0,0,1,20.863,0,.727.727,0,0,1-.728.784H9.733A.727.727,0,0,1,9.005,125.219Z" transform="translate(-9.003 -103.688)" fill="#ffda2d" fill-rule="evenodd"/>
          <path id="Trazado_1053249" data-name="Trazado 1053249" d="M92.288,115.608a10.456,10.456,0,0,1,11.6,9.611.727.727,0,0,1-.728.784h-2.335a.727.727,0,0,0,.728-.784A10.5,10.5,0,0,0,92.288,115.608Z" transform="translate(-83.022 -103.688)" fill="#ffc700" fill-rule="evenodd"/>
          <circle id="Elipse_13466" data-name="Elipse 13466" cx="5.654" cy="5.654" r="5.654" transform="translate(4.78)" fill="#ffd6bd"/>
          <path id="Trazado_1053250" data-name="Trazado 1053250" d="M64.247,25.4a5.654,5.654,0,1,0,7.323-8.456A5.654,5.654,0,0,1,64.247,25.4Z" transform="translate(-58.1 -16.059)" fill="#f9c6aa" fill-rule="evenodd"/>
        </g>
        <g id="Grupo_1207838" data-name="Grupo 1207838" transform="translate(16.398 14.761)">
          <path id="Trazado_1053251" data-name="Trazado 1053251" d="M181.7,156.136l-.5,9.847,3.622,1.9h10.22a1.888,1.888,0,1,0,0-3.775h.946a1.893,1.893,0,0,0,0-3.787h.946a1.893,1.893,0,0,0,0-3.787h.946a1.893,1.893,0,0,0,0-3.787l-6.74.034c.718-2.8,1.883-6.5,1.993-7.681.253-2.724-2-4.652-3.29-2.511Z" transform="translate(-178.439 -141.675)" fill="#ffd6bd" fill-rule="evenodd"/>
          <path id="Trazado_1053252" data-name="Trazado 1053252" d="M181.262,164.746l-.063,1.241,3.622,1.9h10.22a1.891,1.891,0,0,0,1.776-2.525,1.9,1.9,0,0,1-1.776,1.251h-10.22Zm11.871-19.64c.213-2.292-1.35-4.02-2.618-3.236a3.387,3.387,0,0,1,1.3,3.236c-.109,1.18-1.274,4.883-1.993,7.681l1.324-.007C191.861,149.983,193.024,146.285,193.134,145.106Zm2.854,19.007a1.9,1.9,0,0,0,1.777-2.53,1.9,1.9,0,0,1-1.777,1.256h-4.494a.637.637,0,0,0,0,1.274Zm.946-3.787a1.9,1.9,0,0,0,1.777-2.53,1.9,1.9,0,0,1-1.777,1.256H192.44a.637.637,0,1,0,0,1.274h4.494Zm.946-3.787a1.9,1.9,0,0,0,1.777-2.53h0a1.9,1.9,0,0,1-1.777,1.256h-4.494a.637.637,0,0,0,0,1.274Z" transform="translate(-178.438 -141.678)" fill="#f9c6aa" fill-rule="evenodd"/>
          <path id="Trazado_1053253" data-name="Trazado 1053253" d="M157.032,261.53H159.7a.647.647,0,0,0,.645-.645v-13.2a.647.647,0,0,0-.645-.645h-2.667a.647.647,0,0,0-.645.645v13.2A.647.647,0,0,0,157.032,261.53Z" transform="translate(-156.387 -235.32)" fill="#64b5f6" fill-rule="evenodd"/>
          <path id="Trazado_1053254" data-name="Trazado 1053254" d="M159.242,261.53h.457a.647.647,0,0,0,.645-.645v-13.2a.647.647,0,0,0-.645-.645h-2.667a.647.647,0,0,0-.645.645v.409h2.21a.647.647,0,0,1,.645.645V261.53Z" transform="translate(-156.386 -235.32)" fill="#42a5f5" fill-rule="evenodd"/>
        </g>
      </g>
      <path id="Trazado_1053255" data-name="Trazado 1053255" d="M2.8,23.315a9.571,9.571,0,0,1,19.059,0ZM7.565,7.545a4.764,4.764,0,1,1,4.764,4.764A4.77,4.77,0,0,1,7.565,7.545ZM23.222,24.579a1.629,1.629,0,0,0,.427-1.224,11.413,11.413,0,0,0-8.2-10.059,6.544,6.544,0,1,0-6.24,0,11.413,11.413,0,0,0-8.2,10.059A1.616,1.616,0,0,0,2.625,25.1H22.034A1.625,1.625,0,0,0,23.222,24.579ZM41.172,11.04a12.047,12.047,0,0,1,6.269,9.019.889.889,0,0,0,.883.782h.331l-2.7,3.5-2.7-3.5h.227a.89.89,0,0,0,.879-1.032,11.764,11.764,0,0,0-6.007-8.75,17.391,17.391,0,0,0-4.581-1.747,13.447,13.447,0,0,1,7.4,1.727Zm-12.154-.58c4.321.194,11.612,1.59,13.372,8.6a1.365,1.365,0,0,0-1.062,2.2l3.544,4.586a1.366,1.366,0,0,0,2.162,0l3.545-4.586a1.366,1.366,0,0,0-1.082-2.2h-.409a13.877,13.877,0,0,0-7.043-9.573,14.858,14.858,0,0,0-13.354-.73.891.891,0,0,0,.327,1.7ZM13,50.2a12.046,12.046,0,0,1-6.267-9.02.891.891,0,0,0-.884-.783H5.521l2.7-3.495,2.7,3.495h-.227a.892.892,0,0,0-.879,1.033,11.767,11.767,0,0,0,6.008,8.75A17.354,17.354,0,0,0,20.4,51.922,13.461,13.461,0,0,1,13,50.2Zm12.154.579c-4.321-.194-11.612-1.591-13.371-8.6a1.366,1.366,0,0,0,1.062-2.2L9.3,35.386a1.364,1.364,0,0,0-2.162,0L3.6,39.971a1.365,1.365,0,0,0,1.08,2.2h.409a13.885,13.885,0,0,0,7.043,9.574,15.3,15.3,0,0,0,7.486,1.979,14.226,14.226,0,0,0,5.869-1.25.89.89,0,0,0-.327-1.7ZM36.9,55.963a9.57,9.57,0,0,1,19.057,0ZM41.66,40.192a4.764,4.764,0,1,1,4.764,4.764A4.769,4.769,0,0,1,41.66,40.192ZM57.742,56a11.4,11.4,0,0,0-8.2-10.058,6.544,6.544,0,1,0-6.24,0A11.41,11.41,0,0,0,35.1,56a1.618,1.618,0,0,0,1.615,1.741H56.131A1.615,1.615,0,0,0,57.742,56ZM19.385,40.52a.89.89,0,1,0,1.78,0V39.184a.89.89,0,1,0-1.78,0ZM35.845,38.2H31.352a.89.89,0,0,0,0,1.781H34.9a1,1,0,0,1,0,2h-10l-1.755-.921V30.2l7.319-12.175c.229-.381.454-.537.672-.466A2.388,2.388,0,0,1,32.106,20a41.382,41.382,0,0,1-1.092,4.338c-.3,1.079-.618,2.2-.877,3.2A.89.89,0,0,0,31,28.651h0l6.736-.034a1,1,0,0,1,0,2.006H33.245a.89.89,0,1,0,0,1.781h3.547a1,1,0,0,1,0,2.006H32.3a.89.89,0,0,0,0,1.781h3.547a1,1,0,0,1,0,2.005ZM21.364,41.972V29.265H19.186V41.972Zm16.313-1a2.759,2.759,0,0,0-.383-1.406,2.785,2.785,0,0,0,.945-3.786A2.787,2.787,0,0,0,39.185,32a2.783,2.783,0,0,0-1.451-5.158l-5.578.028c.183-.671.378-1.368.569-2.048a38,38,0,0,0,1.152-4.655c.184-1.977-.757-3.822-2.187-4.291a2.312,2.312,0,0,0-2.753,1.24L22.519,27.788a1.52,1.52,0,0,0-.91-.3H18.941a1.537,1.537,0,0,0-1.535,1.535v13.2a1.537,1.537,0,0,0,1.535,1.535h2.668a1.536,1.536,0,0,0,1.342-.792l1.314.69a.9.9,0,0,0,.414.1H34.9a2.781,2.781,0,0,0,2.778-2.778Z" fill-rule="evenodd"/>
    </g>
  </g>
</svg>
