<svg xmlns="http://www.w3.org/2000/svg" xmlns:xlink="http://www.w3.org/1999/xlink" width="103" height="103" viewBox="0 0 103 103">
  <defs>
    <filter id="Trazado_982547" x="0" y="0" width="103" height="103" filterUnits="userSpaceOnUse">
      <feOffset dy="3" input="SourceAlpha"/>
      <feGaussianBlur stdDeviation="3" result="blur"/>
      <feFlood flood-opacity="0.161"/>
      <feComposite operator="in" in2="blur"/>
      <feComposite in="SourceGraphic"/>
    </filter>
  </defs>
  <g id="Grupo_1207762" data-name="Grupo 1207762" transform="translate(-191 -685.5)">
    <g id="Grupo_1207544" data-name="Grupo 1207544" transform="translate(0 -3242)">
      <g id="Grupo_1207295" data-name="Grupo 1207295" transform="translate(0 3183.5)">
        <g id="Grupo_1202212" data-name="Grupo 1202212" transform="translate(-80 -126.414)">
          <g id="Grupo_1174813" data-name="Grupo 1174813" transform="translate(280 876.414)">
            <g id="Grupo_1201680" data-name="Grupo 1201680">
              <g id="Grupo_1201330" data-name="Grupo 1201330">
                <g id="Grupo_1172010" data-name="Grupo 1172010">
                  <g id="Grupo_1171046" data-name="Grupo 1171046">
                    <g id="Grupo_1148525" data-name="Grupo 1148525">
                      <g transform="matrix(1, 0, 0, 1, -9, -6)" filter="url(#Trazado_982547)">
                        <g id="Trazado_982547-2" data-name="Trazado 982547" transform="translate(9 6)" fill="#f2f7e5">
                          <path d="M 42.5 83.5 C 36.96437835693359 83.5 31.59512901306152 82.41617584228516 26.54141235351562 80.27863311767578 C 21.65934181213379 78.21369171142578 17.27447128295898 75.25723266601562 13.50862312316895 71.49137878417969 C 9.742764472961426 67.72553253173828 6.786305904388428 63.34066009521484 4.721364498138428 58.45858764648438 C 2.583823442459106 53.40486907958984 1.5 48.03562164306641 1.5 42.5 C 1.5 36.96437835693359 2.583823442459106 31.59512901306152 4.721364498138428 26.54141235351562 C 6.786305904388428 21.65934181213379 9.742764472961426 17.27448272705078 13.50862312316895 13.50862312316895 C 17.27447128295898 9.742776870727539 21.65934181213379 6.786305904388428 26.54141235351562 4.721364498138428 C 31.59512901306152 2.583823442459106 36.96437835693359 1.5 42.5 1.5 C 48.03562164306641 1.5 53.40486907958984 2.583823442459106 58.45858764648438 4.721364498138428 C 63.34066009521484 6.786305904388428 67.72553253173828 9.742776870727539 71.49137878417969 13.50862312316895 C 75.25723266601562 17.27448272705078 78.21369171142578 21.65934181213379 80.27863311767578 26.54141235351562 C 82.41617584228516 31.59512901306152 83.5 36.96437835693359 83.5 42.5 C 83.5 48.03562164306641 82.41617584228516 53.40486907958984 80.27863311767578 58.45858764648438 C 78.21369171142578 63.34066009521484 75.25723266601562 67.72553253173828 71.49137878417969 71.49137878417969 C 67.72553253173828 75.25723266601562 63.34066009521484 78.21369171142578 58.45858764648438 80.27863311767578 C 53.40486907958984 82.41617584228516 48.03562164306641 83.5 42.5 83.5 Z" stroke="none"/>
                          <path d="M 42.5 3 C 37.16621398925781 3 31.99356079101562 4.043960571289062 27.125732421875 6.102882385253906 C 22.42246627807617 8.092185974121094 18.19785308837891 10.94070434570312 14.56928253173828 14.56928253173828 C 10.94070434570312 18.19785308837891 8.092185974121094 22.42246627807617 6.102882385253906 27.125732421875 C 4.043960571289062 31.99356079101562 3 37.16621398925781 3 42.5 C 3 47.83378601074219 4.043960571289062 53.00643920898438 6.102882385253906 57.874267578125 C 8.092185974121094 62.57753372192383 10.94070434570312 66.80214691162109 14.56928253173828 70.43071746826172 C 18.19785308837891 74.05929565429688 22.42246627807617 76.90781402587891 27.125732421875 78.89711761474609 C 31.99356079101562 80.95603942871094 37.16621398925781 82 42.5 82 C 47.83378601074219 82 53.00643920898438 80.95603942871094 57.874267578125 78.89711761474609 C 62.57753372192383 76.90781402587891 66.80214691162109 74.05929565429688 70.43071746826172 70.43071746826172 C 74.05929565429688 66.80214691162109 76.90781402587891 62.57753372192383 78.89711761474609 57.874267578125 C 80.95603942871094 53.00643920898438 82 47.83378601074219 82 42.5 C 82 37.16621398925781 80.95603942871094 31.99356079101562 78.89711761474609 27.125732421875 C 76.90781402587891 22.42246627807617 74.05929565429688 18.19785308837891 70.43071746826172 14.56928253173828 C 66.80214691162109 10.94070434570312 62.57753372192383 8.092185974121094 57.874267578125 6.102882385253906 C 53.00643920898438 4.043960571289062 47.83378601074219 3 42.5 3 M 42.5 0 C 65.97210693359375 0 85 19.02789306640625 85 42.5 C 85 65.97210693359375 65.97210693359375 85 42.5 85 C 19.02789306640625 85 0 65.97210693359375 0 42.5 C 0 19.02789306640625 19.02789306640625 0 42.5 0 Z" stroke="none" fill="#1d7083"/>
                        </g>
                      </g>
                    </g>
                  </g>
                </g>
              </g>
            </g>
          </g>
        </g>
      </g>
    </g>
    <g id="_x36_75_x2C__Analysis_x2C__business_x2C__chart_x2C__graph_x2C__product" transform="translate(197.106 688.501)">
      <g id="Grupo_1207761" data-name="Grupo 1207761" transform="translate(19.999 20)">
        <path id="Trazado_1053110" data-name="Trazado 1053110" d="M61.585,175.967l-.013.022-6.63,6.63a2.414,2.414,0,0,1-3.415-3.414l6.63-6.631.007,0A9.688,9.688,0,0,0,61.585,175.967Z" transform="translate(-47.417 -155.724)" fill="#3c3b3d"/>
        <path id="Trazado_1053111" data-name="Trazado 1053111" d="M114.709,40.38a9.66,9.66,0,1,1-9.659,9.658A9.658,9.658,0,0,1,114.709,40.38Z" transform="translate(-95.659 -38.13)" fill="#d8f2f1"/>
        <path id="Trazado_1053112" data-name="Trazado 1053112" d="M260,303.187V280l5.521,6.625h9.937v16.562Z" transform="translate(-233.501 -251.292)" fill="#e8a664"/>
        <path id="Trazado_1053113" data-name="Trazado 1053113" d="M135.458,280v23.187H120V286.625h9.937Z" transform="translate(-108.958 -251.292)" fill="#d39154"/>
        <path id="Trazado_1053114" data-name="Trazado 1053114" d="M275.458,280l5.521,6.625H265.521L260,280Z" transform="translate(-233.501 -251.292)" fill="#febe76"/>
        <path id="Trazado_1053115" data-name="Trazado 1053115" d="M90.979,280l-5.521,6.625H70L75.521,280Z" transform="translate(-64.479 -251.292)" fill="#febe76"/>
        <path id="Trazado_1053116" data-name="Trazado 1053116" d="M432.208,210A2.208,2.208,0,1,1,430,212.208,2.208,2.208,0,0,1,432.208,210Z" transform="translate(-384.73 -189.021)" fill="#74829c"/>
        <path id="Trazado_1053117" data-name="Trazado 1053117" d="M302.76,30A2.76,2.76,0,1,1,300,32.76,2.76,2.76,0,0,1,302.76,30Z" transform="translate(-269.084 -28.896)" fill="#74829c"/>
        <path id="Trazado_1053118" data-name="Trazado 1053118" d="M385.11,50a4.968,4.968,0,1,0,4.826,5.107A4.968,4.968,0,0,0,385.11,50Z" transform="translate(-340.252 -46.689)" fill="#ffd24d"/>
        <path id="Trazado_1053119" data-name="Trazado 1053119" d="M284.552,189.843a4.968,4.968,0,1,0,4.826,5.107A4.968,4.968,0,0,0,284.552,189.843Z" transform="translate(-250.796 -171.088)" fill="#ffd24d"/>
        <path id="Trazado_1053120" data-name="Trazado 1053120" d="M441.1,370a1.1,1.1,0,1,1-1.1,1.1A1.1,1.1,0,0,1,441.1,370Z" transform="translate(-393.626 -331.355)"/>
        <path id="Trazado_1053121" data-name="Trazado 1053121" d="M408.394,65.959v.871q.558-.022.559-.385a.337.337,0,0,0-.152-.294A1.687,1.687,0,0,0,408.394,65.959Zm-.341-2.243q-.508.043-.509.421a.357.357,0,0,0,.127.287,1.149,1.149,0,0,0,.382.184Zm2.177,2.612a1.558,1.558,0,0,1-.146.7,1.337,1.337,0,0,1-.389.475,1.715,1.715,0,0,1-.559.28,2.76,2.76,0,0,1-.664.108v.842h-.5V67.89a4.439,4.439,0,0,1-.99-.2,3.559,3.559,0,0,1-.882-.421l.522-1.038a.846.846,0,0,0,.157.12,2.457,2.457,0,0,0,.322.173,4.366,4.366,0,0,0,.443.174,2.733,2.733,0,0,0,.509.12V65.85l-.349-.1a4.306,4.306,0,0,1-.617-.235,1.629,1.629,0,0,1-.432-.295,1.058,1.058,0,0,1-.254-.384,1.428,1.428,0,0,1-.084-.508,1.631,1.631,0,0,1,.131-.671,1.555,1.555,0,0,1,.352-.5,1.6,1.6,0,0,1,.522-.33,2.41,2.41,0,0,1,.649-.157V61.93h.5v.733a3.138,3.138,0,0,1,.886.211,5.969,5.969,0,0,1,.719.341l-.523.987a.552.552,0,0,0-.127-.094,2.379,2.379,0,0,0-.268-.142,3.861,3.861,0,0,0-.363-.145,2.174,2.174,0,0,0-.4-.1v.987l.232.059a6.243,6.243,0,0,1,.668.221,1.808,1.808,0,0,1,.5.3,1.219,1.219,0,0,1,.319.432A1.494,1.494,0,0,1,410.23,66.329Z" transform="translate(-363.468 -57.3)"/>
        <path id="Trazado_1053122" data-name="Trazado 1053122" d="M381.1,170a1.1,1.1,0,1,1-1.1,1.1A1.1,1.1,0,0,1,381.1,170Z" transform="translate(-340.251 -153.438)"/>
        <path id="Trazado_1053123" data-name="Trazado 1053123" d="M321.1,130a1.1,1.1,0,1,1-1.1,1.1A1.1,1.1,0,0,1,321.1,130Z" transform="translate(-286.876 -117.854)"/>
        <path id="Trazado_1053124" data-name="Trazado 1053124" d="M308.4,206.285a.337.337,0,0,0-.152-.294,1.684,1.684,0,0,0-.406-.192v.871c.372-.014.559-.144.559-.385Zm-.9-.6-.349-.1a4.264,4.264,0,0,1-.616-.236,1.607,1.607,0,0,1-.433-.294,1.082,1.082,0,0,1-.254-.384,1.429,1.429,0,0,1-.083-.508,1.633,1.633,0,0,1,.13-.671,1.555,1.555,0,0,1,.352-.5,1.613,1.613,0,0,1,.522-.33,2.407,2.407,0,0,1,.65-.157v-.733h.5v.733a3.138,3.138,0,0,1,.885.211,5.964,5.964,0,0,1,.719.341l-.522.987a.573.573,0,0,0-.127-.095,2.778,2.778,0,0,0-.269-.141,3.594,3.594,0,0,0-.362-.145,2.214,2.214,0,0,0-.4-.1v.987l.232.059a6.153,6.153,0,0,1,.668.221,1.794,1.794,0,0,1,.5.3,1.2,1.2,0,0,1,.319.432,1.493,1.493,0,0,1,.113.609,1.569,1.569,0,0,1-.145.7,1.336,1.336,0,0,1-.389.475,1.712,1.712,0,0,1-.559.279,2.714,2.714,0,0,1-.665.109v.842h-.5v-.85a4.373,4.373,0,0,1-.991-.2,3.559,3.559,0,0,1-.882-.421l.523-1.038a.754.754,0,0,0,.156.119,2.334,2.334,0,0,0,.323.174,4.261,4.261,0,0,0,.443.174,2.72,2.72,0,0,0,.508.12v-.966Zm0-2.134q-.508.045-.508.422a.35.35,0,0,0,.127.286,1.11,1.11,0,0,0,.381.185v-.893Z" transform="translate(-274.015 -181.7)"/>
        <path id="Trazado_1053125" data-name="Trazado 1053125" d="M221.1,240a1.1,1.1,0,1,1-1.1,1.1A1.1,1.1,0,0,1,221.1,240Z" transform="translate(-197.917 -215.709)"/>
        <path id="Trazado_1053126" data-name="Trazado 1053126" d="M51.1,170a1.1,1.1,0,1,1-1.1,1.1A1.1,1.1,0,0,1,51.1,170Z" transform="translate(-46.687 -153.438)"/>
        <path id="Trazado_1053127" data-name="Trazado 1053127" d="M51.1,380a1.1,1.1,0,1,1-1.1,1.1A1.1,1.1,0,0,1,51.1,380Z" transform="translate(-46.687 -340.251)"/>
        <path id="Trazado_1053128" data-name="Trazado 1053128" d="M111.1,348.77a1.1,1.1,0,0,1-1.1-1.1V331.1a1.1,1.1,0,1,1,2.208,0v16.562A1.1,1.1,0,0,1,111.1,348.77Z" transform="translate(-100.063 -295.772)"/>
        <path id="Trazado_1053129" data-name="Trazado 1053129" d="M76.562,278.832H61.1a1.1,1.1,0,0,1-.848-1.811l5.521-6.625a1.1,1.1,0,0,1,.848-.4H82.083a1.1,1.1,0,0,1,.848,1.811l-5.521,6.625A1.1,1.1,0,0,1,76.562,278.832Zm-13.1-2.208H76.045l3.68-4.417H67.142Z" transform="translate(-55.583 -242.396)"/>
        <path id="Trazado_1053130" data-name="Trazado 1053130" d="M251.1,295.4a1.1,1.1,0,0,1-1.1-1.1V271.1a1.1,1.1,0,1,1,2.208,0v23.187A1.1,1.1,0,0,1,251.1,295.4Z" transform="translate(-224.605 -242.396)"/>
        <path id="Trazado_1053131" data-name="Trazado 1053131" d="M391.1,348.77a1.1,1.1,0,0,1-1.1-1.1V331.1a1.1,1.1,0,1,1,2.208,0v16.562A1.1,1.1,0,0,1,391.1,348.77Z" transform="translate(-349.147 -295.772)"/>
        <path id="Trazado_1053132" data-name="Trazado 1053132" d="M272.083,278.833H256.625a1.1,1.1,0,0,1-.848-.4l-5.521-6.625A1.1,1.1,0,0,1,251.1,270h15.458a1.1,1.1,0,0,1,.848.4l5.521,6.625a1.1,1.1,0,0,1-.848,1.811Zm-14.941-2.208h12.583l-3.68-4.417H253.461Z" transform="translate(-224.604 -242.396)"/>
        <path id="Trazado_1053133" data-name="Trazado 1053133" d="M126.437,482.208H91.1a1.1,1.1,0,1,1,0-2.208h35.333a1.1,1.1,0,1,1,0,2.208Z" transform="translate(-82.271 -429.209)"/>
        <path id="Trazado_1053134" data-name="Trazado 1053134" d="M44.338,175.571a3.519,3.519,0,0,1-2.488-6.006l6.63-6.631a1.1,1.1,0,0,1,1.562,1.561l-6.63,6.631a1.31,1.31,0,0,0,1.854,1.853l6.63-6.63a1.1,1.1,0,1,1,1.561,1.561l-6.63,6.63A3.5,3.5,0,0,1,44.338,175.571Z" transform="translate(-38.521 -146.864)"/>
        <path id="Trazado_1053135" data-name="Trazado 1053135" d="M105.813,51.905a10.763,10.763,0,1,1,10.762-10.763A10.737,10.737,0,0,1,105.813,51.905Zm0-19.317a8.554,8.554,0,1,0,8.554,8.554A8.564,8.564,0,0,0,105.813,32.588Z" transform="translate(-86.763 -29.234)"/>
        <path id="Trazado_1053136" data-name="Trazado 1053136" d="M138.55,80.579a6.708,6.708,0,0,1-6.7-6.7,1.1,1.1,0,1,1,2.208,0,4.492,4.492,0,1,0,4.492-4.491,1.1,1.1,0,0,1,0-2.208,6.7,6.7,0,1,1,0,13.4Z" transform="translate(-119.5 -61.971)"/>
        <path id="Trazado_1053137" data-name="Trazado 1053137" d="M51.1,44.354a1.1,1.1,0,0,1-1.1-1.1V31.1a1.1,1.1,0,1,1,2.208,0V43.25A1.1,1.1,0,0,1,51.1,44.354Z" transform="translate(-46.687 -28.896)"/>
        <path id="Trazado_1053138" data-name="Trazado 1053138" d="M27.728,35.52a1.1,1.1,0,0,1-.781-.323l-2.532-2.532L21.884,35.2a1.1,1.1,0,1,1-1.562-1.562l3.312-3.312a1.1,1.1,0,0,1,1.562,0l3.312,3.312a1.1,1.1,0,0,1-.781,1.885Z" transform="translate(-19.999 -28.895)"/>
        <path id="Trazado_1053139" data-name="Trazado 1053139" d="M376.078,52.148l-.176,0A6.073,6.073,0,0,1,376.071,40l.174,0a6.073,6.073,0,0,1-.167,12.143Zm-.007-9.937a3.864,3.864,0,0,0-.107,7.727l.113,0a3.864,3.864,0,0,0,.1-7.727Z" transform="translate(-331.356 -37.794)"/>
        <path id="Trazado_1053140" data-name="Trazado 1053140" d="M275.518,191.987l-.176,0a6.075,6.075,0,1,1,.176,0Zm-.008-9.937a3.864,3.864,0,0,0-.106,7.727l.113,0a3.864,3.864,0,0,0,.106-7.727Z" transform="translate(-241.899 -162.192)"/>
        <path id="Trazado_1053141" data-name="Trazado 1053141" d="M423.312,206.625a3.312,3.312,0,1,1,3.312-3.312A3.316,3.316,0,0,1,423.312,206.625Zm0-4.417a1.1,1.1,0,1,0,1.1,1.1A1.105,1.105,0,0,0,423.312,202.208Z" transform="translate(-375.834 -180.125)"/>
        <path id="Trazado_1053142" data-name="Trazado 1053142" d="M293.865,27.729a3.865,3.865,0,1,1,3.865-3.865A3.869,3.869,0,0,1,293.865,27.729Zm0-5.521a1.656,1.656,0,1,0,1.656,1.656A1.658,1.658,0,0,0,293.865,22.208Z" transform="translate(-260.188 -20)"/>
      </g>
    </g>
  </g>
</svg>
