<svg xmlns="http://www.w3.org/2000/svg" xmlns:xlink="http://www.w3.org/1999/xlink" width="103" height="103" viewBox="0 0 103 103">
  <defs>
    <filter id="Trazado_982547" x="0" y="0" width="103" height="103" filterUnits="userSpaceOnUse">
      <feOffset dy="3" input="SourceAlpha"/>
      <feGaussianBlur stdDeviation="3" result="blur"/>
      <feFlood flood-opacity="0.161"/>
      <feComposite operator="in" in2="blur"/>
      <feComposite in="SourceGraphic"/>
    </filter>
  </defs>
  <g id="Grupo_1207842" data-name="Grupo 1207842" transform="translate(-191 -9616.5)">
    <g id="Grupo_1207591" data-name="Grupo 1207591" transform="translate(0 5689)">
      <g id="Grupo_1207295" data-name="Grupo 1207295" transform="translate(0 3183.5)">
        <g id="Grupo_1202212" data-name="Grupo 1202212" transform="translate(-80 -126.414)">
          <g id="Grupo_1174813" data-name="Grupo 1174813" transform="translate(280 876.414)">
            <g id="Grupo_1201680" data-name="Grupo 1201680">
              <g id="Grupo_1201330" data-name="Grupo 1201330">
                <g id="Grupo_1172010" data-name="Grupo 1172010">
                  <g id="Grupo_1171046" data-name="Grupo 1171046">
                    <g id="Grupo_1148525" data-name="Grupo 1148525">
                      <g transform="matrix(1, 0, 0, 1, -9, -6)" filter="url(#Trazado_982547)">
                        <g id="Trazado_982547-2" data-name="Trazado 982547" transform="translate(9 6)" fill="#f2f7e5">
                          <path d="M 42.5 83.5 C 36.96437835693359 83.5 31.59512901306152 82.41617584228516 26.54141235351562 80.27863311767578 C 21.65934181213379 78.21369171142578 17.27447128295898 75.25723266601562 13.50862312316895 71.49137878417969 C 9.742764472961426 67.72553253173828 6.786305904388428 63.34066009521484 4.721364498138428 58.45858764648438 C 2.583823442459106 53.40486907958984 1.5 48.03562164306641 1.5 42.5 C 1.5 36.96437835693359 2.583823442459106 31.59512901306152 4.721364498138428 26.54141235351562 C 6.786305904388428 21.65934181213379 9.742764472961426 17.27448272705078 13.50862312316895 13.50862312316895 C 17.27447128295898 9.742776870727539 21.65934181213379 6.786305904388428 26.54141235351562 4.721364498138428 C 31.59512901306152 2.583823442459106 36.96437835693359 1.5 42.5 1.5 C 48.03562164306641 1.5 53.40486907958984 2.583823442459106 58.45858764648438 4.721364498138428 C 63.34066009521484 6.786305904388428 67.72553253173828 9.742776870727539 71.49137878417969 13.50862312316895 C 75.25723266601562 17.27448272705078 78.21369171142578 21.65934181213379 80.27863311767578 26.54141235351562 C 82.41617584228516 31.59512901306152 83.5 36.96437835693359 83.5 42.5 C 83.5 48.03562164306641 82.41617584228516 53.40486907958984 80.27863311767578 58.45858764648438 C 78.21369171142578 63.34066009521484 75.25723266601562 67.72553253173828 71.49137878417969 71.49137878417969 C 67.72553253173828 75.25723266601562 63.34066009521484 78.21369171142578 58.45858764648438 80.27863311767578 C 53.40486907958984 82.41617584228516 48.03562164306641 83.5 42.5 83.5 Z" stroke="none"/>
                          <path d="M 42.5 3 C 37.16621398925781 3 31.99356079101562 4.043960571289062 27.125732421875 6.102882385253906 C 22.42246627807617 8.092185974121094 18.19785308837891 10.94070434570312 14.56928253173828 14.56928253173828 C 10.94070434570312 18.19785308837891 8.092185974121094 22.42246627807617 6.102882385253906 27.125732421875 C 4.043960571289062 31.99356079101562 3 37.16621398925781 3 42.5 C 3 47.83378601074219 4.043960571289062 53.00643920898438 6.102882385253906 57.874267578125 C 8.092185974121094 62.57753372192383 10.94070434570312 66.80214691162109 14.56928253173828 70.43071746826172 C 18.19785308837891 74.05929565429688 22.42246627807617 76.90781402587891 27.125732421875 78.89711761474609 C 31.99356079101562 80.95603942871094 37.16621398925781 82 42.5 82 C 47.83378601074219 82 53.00643920898438 80.95603942871094 57.874267578125 78.89711761474609 C 62.57753372192383 76.90781402587891 66.80214691162109 74.05929565429688 70.43071746826172 70.43071746826172 C 74.05929565429688 66.80214691162109 76.90781402587891 62.57753372192383 78.89711761474609 57.874267578125 C 80.95603942871094 53.00643920898438 82 47.83378601074219 82 42.5 C 82 37.16621398925781 80.95603942871094 31.99356079101562 78.89711761474609 27.125732421875 C 76.90781402587891 22.42246627807617 74.05929565429688 18.19785308837891 70.43071746826172 14.56928253173828 C 66.80214691162109 10.94070434570312 62.57753372192383 8.092185974121094 57.874267578125 6.102882385253906 C 53.00643920898438 4.043960571289062 47.83378601074219 3 42.5 3 M 42.5 0 C 65.97210693359375 0 85 19.02789306640625 85 42.5 C 85 65.97210693359375 65.97210693359375 85 42.5 85 C 19.02789306640625 85 0 65.97210693359375 0 42.5 C 0 19.02789306640625 19.02789306640625 0 42.5 0 Z" stroke="none" fill="#496406"/>
                        </g>
                      </g>
                    </g>
                  </g>
                </g>
              </g>
            </g>
          </g>
        </g>
      </g>
    </g>
    <g id="Marketing" transform="translate(215.565 9637.565)">
      <path id="Trazado_1053346" data-name="Trazado 1053346" d="M8.7,13h39a1.7,1.7,0,0,1,1.7,1.7V40.13H7V14.7A1.7,1.7,0,0,1,8.7,13Z" transform="translate(-0.761 -1.674)" fill="#00479b"/>
      <path id="Trazado_1053347" data-name="Trazado 1053347" d="M11,17H46.608V37.348H11Z" transform="translate(-1.37 -2.283)" fill="#2488ff"/>
      <path id="Trazado_1053348" data-name="Trazado 1053348" d="M44.913,17V28.869a6.783,6.783,0,0,1-6.783,6.783H11v1.7H46.608V17Z" transform="translate(-1.37 -2.283)" fill="#006df0"/>
      <path id="Trazado_1053349" data-name="Trazado 1053349" d="M4.7,60.391H50.478a1.7,1.7,0,0,0,1.7-1.7V57H3v1.7A1.7,1.7,0,0,0,4.7,60.391Z" transform="translate(-0.152 -8.37)" fill="#004fac"/>
      <path id="Trazado_1053350" data-name="Trazado 1053350" d="M48.782,45H6.391L3,55.174H52.174Z" transform="translate(-0.152 -6.544)" fill="#bcbec0"/>
      <path id="Trazado_1053351" data-name="Trazado 1053351" d="M48.782,45H45.956l.593,1.78a5.087,5.087,0,0,1-4.826,6.7H3.565L3,55.174H52.174Z" transform="translate(-0.152 -6.544)" fill="#a9abad"/>
      <path id="Trazado_1053352" data-name="Trazado 1053352" d="M25.848,53,25,56.391H36.869L36.022,53Z" transform="translate(-3.5 -7.761)" fill="#6d6e71"/>
      <path id="Trazado_1053353" data-name="Trazado 1053353" d="M31.543,23.783a2.543,2.543,0,0,0,2.543-2.543V17H29v4.239a2.543,2.543,0,0,0,2.543,2.543Z" transform="translate(-4.109 -2.283)" fill="#ff9811"/>
      <path id="Trazado_1053354" data-name="Trazado 1053354" d="M43.543,23.783a2.543,2.543,0,0,0,2.543-2.543V17H41v4.239A2.543,2.543,0,0,0,43.543,23.783Z" transform="translate(-5.935 -2.283)" fill="#ff9811"/>
      <path id="Trazado_1053355" data-name="Trazado 1053355" d="M19.543,23.783a2.543,2.543,0,0,0,2.543-2.543V17H17v4.239a2.543,2.543,0,0,0,2.543,2.543Z" transform="translate(-2.283 -2.283)" fill="#ff9811"/>
      <path id="Trazado_1053356" data-name="Trazado 1053356" d="M37.543,23.783a2.543,2.543,0,0,0,2.543-2.543V17H35v4.239A2.543,2.543,0,0,0,37.543,23.783Z" transform="translate(-5.022 -2.283)" fill="#ed1c24"/>
      <path id="Trazado_1053357" data-name="Trazado 1053357" d="M49.543,23.783a2.543,2.543,0,0,0,2.543-2.543V17H47v4.239a2.543,2.543,0,0,0,2.543,2.543Z" transform="translate(-6.848 -2.283)" fill="#ed1c24"/>
      <path id="Trazado_1053358" data-name="Trazado 1053358" d="M23,21.239a2.543,2.543,0,0,0,5.087,0V17H23Z" transform="translate(-3.196 -2.283)" fill="#ed1c24"/>
      <path id="Trazado_1053359" data-name="Trazado 1053359" d="M11,21.239a2.543,2.543,0,1,0,5.087,0V17H11Z" transform="translate(-1.37 -2.283)" fill="#ed1c24"/>
      <path id="Trazado_1053360" data-name="Trazado 1053360" d="M18.261,3H4.7A1.7,1.7,0,0,0,3,4.7V16.565a1.7,1.7,0,0,0,1.7,1.7H18.261a1.7,1.7,0,0,0,1.7-1.7V4.7A1.7,1.7,0,0,0,18.261,3Z" transform="translate(-0.152 -0.152)" fill="#ff5023"/>
      <path id="Trazado_1053361" data-name="Trazado 1053361" d="M20.848,3H20a1.7,1.7,0,0,1,1.7,1.7V16.565a1.7,1.7,0,0,1-1.7,1.7h.848a1.7,1.7,0,0,0,1.7-1.7V4.7A1.7,1.7,0,0,0,20.848,3Z" transform="translate(-2.739 -0.152)" fill="#e54820"/>
      <rect id="Rectángulo_419615" data-name="Rectángulo 419615" width="17" height="16" rx="2" transform="translate(35.435 2.435)" fill="#5eac24"/>
      <path id="Trazado_1053362" data-name="Trazado 1053362" d="M58.848,3H58a1.7,1.7,0,0,1,1.7,1.7V16.565a1.7,1.7,0,0,1-1.7,1.7h.848a1.7,1.7,0,0,0,1.7-1.7V4.7a1.7,1.7,0,0,0-1.7-1.7Z" transform="translate(-8.522 -0.152)" fill="#4e901e"/>
      <path id="Trazado_1053363" data-name="Trazado 1053363" d="M33.783,29H28.7A1.7,1.7,0,0,0,27,30.7v8.478h8.478V30.7A1.7,1.7,0,0,0,33.783,29Z" transform="translate(-3.805 -4.109)" fill="#ee8700"/>
      <path id="Trazado_1053364" data-name="Trazado 1053364" d="M41,31h6.783v3.391H41Z" transform="translate(-5.935 -4.413)" fill="#ff9811"/>
      <path id="Trazado_1053365" data-name="Trazado 1053365" d="M15,31h6.783v3.391H15Z" transform="translate(-1.978 -4.413)" fill="#ff9811"/>
      <g id="Grupo_1207863" data-name="Grupo 1207863" transform="translate(2 2)">
        <path id="Trazado_1053366" data-name="Trazado 1053366" d="M37,48h1.7v1.7H37Z" transform="translate(-7.326 -9)" fill="#231f20"/>
        <path id="Trazado_1053367" data-name="Trazado 1053367" d="M9,48h1.7v1.7H9Z" transform="translate(-3.065 -9)" fill="#231f20"/>
        <path id="Trazado_1053368" data-name="Trazado 1053368" d="M13,48h1.7v1.7H13Z" transform="translate(-3.674 -9)" fill="#231f20"/>
        <path id="Trazado_1053369" data-name="Trazado 1053369" d="M17,48h1.7v1.7H17Z" transform="translate(-4.283 -9)" fill="#231f20"/>
        <path id="Trazado_1053370" data-name="Trazado 1053370" d="M21,48h1.7v1.7H21Z" transform="translate(-4.891 -9)" fill="#231f20"/>
        <path id="Trazado_1053371" data-name="Trazado 1053371" d="M41,48h1.7v1.7H41Z" transform="translate(-7.935 -9)" fill="#231f20"/>
        <path id="Trazado_1053372" data-name="Trazado 1053372" d="M45,48h1.7v1.7H45Z" transform="translate(-8.544 -9)" fill="#231f20"/>
        <path id="Trazado_1053373" data-name="Trazado 1053373" d="M49,48h1.7v1.7H49Z" transform="translate(-9.153 -9)" fill="#231f20"/>
        <path id="Trazado_1053374" data-name="Trazado 1053374" d="M25,48h1.7v1.7H25Z" transform="translate(-5.5 -9)" fill="#231f20"/>
        <path id="Trazado_1053375" data-name="Trazado 1053375" d="M29,48h1.7v1.7H29Z" transform="translate(-6.109 -9)" fill="#231f20"/>
        <path id="Trazado_1053376" data-name="Trazado 1053376" d="M33,48h1.7v1.7H33Z" transform="translate(-6.718 -9)" fill="#231f20"/>
        <path id="Trazado_1053377" data-name="Trazado 1053377" d="M53,48h1.7v1.7H53Z" transform="translate(-9.761 -9)" fill="#231f20"/>
        <path id="Trazado_1053378" data-name="Trazado 1053378" d="M41,52h5.087v1.7H41Z" transform="translate(-7.935 -9.609)" fill="#231f20"/>
        <path id="Trazado_1053379" data-name="Trazado 1053379" d="M49,52h1.7v1.7H49Z" transform="translate(-9.153 -9.609)" fill="#231f20"/>
        <path id="Trazado_1053380" data-name="Trazado 1053380" d="M53,52h1.7v1.7H53Z" transform="translate(-9.761 -9.609)" fill="#231f20"/>
        <path id="Trazado_1053381" data-name="Trazado 1053381" d="M9,52h1.7v1.7H9Z" transform="translate(-3.065 -9.609)" fill="#231f20"/>
        <path id="Trazado_1053382" data-name="Trazado 1053382" d="M13,52h1.7v1.7H13Z" transform="translate(-3.674 -9.609)" fill="#231f20"/>
        <path id="Trazado_1053383" data-name="Trazado 1053383" d="M17,52h5.087v1.7H17Z" transform="translate(-4.283 -9.609)" fill="#231f20"/>
        <path id="Trazado_1053384" data-name="Trazado 1053384" d="M47.289,15.274a.848.848,0,0,0,1.2-.079L54.42,8.413A.848.848,0,0,0,53.149,7.3l-5.935,6.783a.848.848,0,0,0,.075,1.2Z" transform="translate(-8.849 -2.767)" fill="#231f20"/>
        <circle id="Elipse_13475" data-name="Elipse 13475" cx="1.5" cy="1.5" r="1.5" transform="translate(43.435 9.435)" fill="#231f20"/>
        <circle id="Elipse_13476" data-name="Elipse 13476" cx="1.5" cy="1.5" r="1.5" transform="translate(37.435 4.435)" fill="#231f20"/>
        <path id="Trazado_1053385" data-name="Trazado 1053385" d="M11.522,16.011a.848.848,0,0,0,.837.859h.012a.848.848,0,0,0,.848-.837l.011-.859h.009a2.543,2.543,0,1,0,0-5.087h-1.7a.848.848,0,0,1,0-1.7h1.7a.848.848,0,0,1,.848.848.848.848,0,0,0,1.7,0A2.543,2.543,0,0,0,13.239,6.7V5.848a.848.848,0,0,0-1.7,0V6.7a2.543,2.543,0,0,0,0,5.087h1.7a.848.848,0,0,1,0,1.7h-1.7a.848.848,0,0,1-.848-.848.848.848,0,1,0-1.7,0,2.543,2.543,0,0,0,2.533,2.543Z" transform="translate(-3.065 -2.457)" fill="#231f20"/>
        <path id="Trazado_1053386" data-name="Trazado 1053386" d="M50.326,18.956a2.551,2.551,0,0,0,2.543-2.543V4.543A2.551,2.551,0,0,0,50.326,2H36.761a2.551,2.551,0,0,0-2.543,2.543v5.935H20.652V4.543A2.551,2.551,0,0,0,18.109,2H4.543A2.551,2.551,0,0,0,2,4.543V16.413a2.551,2.551,0,0,0,2.543,2.543h.848V38.321L2,48.494v1.831a2.551,2.551,0,0,0,2.543,2.543H50.326a2.551,2.551,0,0,0,2.543-2.543V48.494L49.478,38.321V18.956ZM35.913,18.8a2.543,2.543,0,0,0,.848.153H39.3a1.7,1.7,0,0,1-3.391,0Zm-15.261-6.63H34.217v1.7H20.652Zm13.565,3.391v3.391a1.7,1.7,0,0,1-3.391,0V15.565Zm-5.087,0v3.391a1.7,1.7,0,0,1-3.391,0V15.565Zm-8.478,0h3.391v3.391a1.7,1.7,0,0,1-3.391,0Zm1.7,6.783a3.363,3.363,0,0,0,2.543-1.17,3.35,3.35,0,0,0,5.087,0,3.35,3.35,0,0,0,5.087,0,3.35,3.35,0,0,0,5.087,0,3.363,3.363,0,0,0,2.543,1.17,3.312,3.312,0,0,0,1.7-.475V34.217H32.521v-7.63a2.551,2.551,0,0,0-2.543-2.543H24.891a2.551,2.551,0,0,0-2.543,2.543v7.63H10.478V21.873a3.312,3.312,0,0,0,1.7.475,3.363,3.363,0,0,0,2.543-1.17,3.35,3.35,0,0,0,5.087,0,3.363,3.363,0,0,0,2.543,1.17ZM9.63,35.913H45.239a.848.848,0,0,0,.848-.848V18.956h1.7V37.608H7.087V18.956h1.7V35.065A.848.848,0,0,0,9.63,35.913Zm14.413-1.7v-7.63a.848.848,0,0,1,.848-.848h5.087a.848.848,0,0,1,.848.848v7.63ZM41,18.956h3.391a1.7,1.7,0,0,1-3.391,0Zm-30.521,0h3.391a1.7,1.7,0,0,1-3.391,0Zm5.087,0h2.543a2.544,2.544,0,0,0,.848-.153v.153a1.7,1.7,0,0,1-3.391,0Zm-11.022-1.7a.848.848,0,0,1-.848-.848V4.543A.848.848,0,0,1,4.543,3.7H18.109a.848.848,0,0,1,.848.848V16.413a.848.848,0,0,1-.848.848Zm46.63,33.065a.848.848,0,0,1-.848.848H4.543a.848.848,0,0,1-.848-.848v-.848H51.174ZM22.585,47.782l.424-1.7H31.86l.424,1.7Zm28.258,0H34.031l-.687-2.747a.848.848,0,0,0-.822-.644H22.348a.848.848,0,0,0-.822.644l-.687,2.747H4.026L6.85,39.3H48.02ZM36.761,17.261a.848.848,0,0,1-.848-.848V4.543a.848.848,0,0,1,.848-.848H50.326a.848.848,0,0,1,.848.848V16.413a.848.848,0,0,1-.848.848Z" transform="translate(-2 -2)" fill="#231f20"/>
        <path id="Trazado_1053387" data-name="Trazado 1053387" d="M40.848,35.087H47.63a.848.848,0,0,0,.848-.848V30.848A.848.848,0,0,0,47.63,30H40.848a.848.848,0,0,0-.848.848v3.391A.848.848,0,0,0,40.848,35.087ZM41.7,31.7h5.087v1.7H41.7Z" transform="translate(-7.783 -6.261)" fill="#231f20"/>
        <path id="Trazado_1053388" data-name="Trazado 1053388" d="M21.63,30H14.848a.848.848,0,0,0-.848.848v3.391a.848.848,0,0,0,.848.848H21.63a.848.848,0,0,0,.848-.848V30.848A.848.848,0,0,0,21.63,30Zm-.848,3.391H15.7V31.7h5.087Z" transform="translate(-3.826 -6.261)" fill="#231f20"/>
      </g>
    </g>
  </g>
</svg>
