<svg xmlns="http://www.w3.org/2000/svg" xmlns:xlink="http://www.w3.org/1999/xlink" width="103" height="103" viewBox="0 0 103 103">
  <defs>
    <filter id="Trazado_982547" x="0" y="0" width="103" height="103" filterUnits="userSpaceOnUse">
      <feOffset dy="3" input="SourceAlpha"/>
      <feGaussianBlur stdDeviation="3" result="blur"/>
      <feFlood flood-opacity="0.161"/>
      <feComposite operator="in" in2="blur"/>
      <feComposite in="SourceGraphic"/>
    </filter>
  </defs>
  <g id="Grupo_1207851" data-name="Grupo 1207851" transform="translate(-611 -9616.5)">
    <g id="Grupo_1207592" data-name="Grupo 1207592" transform="translate(0 5689)">
      <g id="Grupo_1207296" data-name="Grupo 1207296" transform="translate(0 3183.5)">
        <g id="Grupo_1202210" data-name="Grupo 1202210" transform="translate(340 -126.414)">
          <g id="Grupo_1174813" data-name="Grupo 1174813" transform="translate(280 876.414)">
            <g id="Grupo_1201680" data-name="Grupo 1201680">
              <g id="Grupo_1201330" data-name="Grupo 1201330">
                <g id="Grupo_1172010" data-name="Grupo 1172010">
                  <g id="Grupo_1171046" data-name="Grupo 1171046">
                    <g id="Grupo_1148525" data-name="Grupo 1148525">
                      <g transform="matrix(1, 0, 0, 1, -9, -6)" filter="url(#Trazado_982547)">
                        <g id="Trazado_982547-2" data-name="Trazado 982547" transform="translate(9 6)" fill="#f2f7e5">
                          <path d="M 42.5 83.5 C 36.96437835693359 83.5 31.59512901306152 82.41617584228516 26.54141235351562 80.27863311767578 C 21.65934181213379 78.21369171142578 17.27447128295898 75.25723266601562 13.50862312316895 71.49137878417969 C 9.742764472961426 67.72553253173828 6.786305904388428 63.34066009521484 4.721364498138428 58.45858764648438 C 2.583823442459106 53.40486907958984 1.5 48.03562164306641 1.5 42.5 C 1.5 36.96437835693359 2.583823442459106 31.59512901306152 4.721364498138428 26.54141235351562 C 6.786305904388428 21.65934181213379 9.742764472961426 17.27448272705078 13.50862312316895 13.50862312316895 C 17.27447128295898 9.742776870727539 21.65934181213379 6.786305904388428 26.54141235351562 4.721364498138428 C 31.59512901306152 2.583823442459106 36.96437835693359 1.5 42.5 1.5 C 48.03562164306641 1.5 53.40486907958984 2.583823442459106 58.45858764648438 4.721364498138428 C 63.34066009521484 6.786305904388428 67.72553253173828 9.742776870727539 71.49137878417969 13.50862312316895 C 75.25723266601562 17.27448272705078 78.21369171142578 21.65934181213379 80.27863311767578 26.54141235351562 C 82.41617584228516 31.59512901306152 83.5 36.96437835693359 83.5 42.5 C 83.5 48.03562164306641 82.41617584228516 53.40486907958984 80.27863311767578 58.45858764648438 C 78.21369171142578 63.34066009521484 75.25723266601562 67.72553253173828 71.49137878417969 71.49137878417969 C 67.72553253173828 75.25723266601562 63.34066009521484 78.21369171142578 58.45858764648438 80.27863311767578 C 53.40486907958984 82.41617584228516 48.03562164306641 83.5 42.5 83.5 Z" stroke="none"/>
                          <path d="M 42.5 3 C 37.16621398925781 3 31.99356079101562 4.043960571289062 27.125732421875 6.102882385253906 C 22.42246627807617 8.092185974121094 18.19785308837891 10.94070434570312 14.56928253173828 14.56928253173828 C 10.94070434570312 18.19785308837891 8.092185974121094 22.42246627807617 6.102882385253906 27.125732421875 C 4.043960571289062 31.99356079101562 3 37.16621398925781 3 42.5 C 3 47.83378601074219 4.043960571289062 53.00643920898438 6.102882385253906 57.874267578125 C 8.092185974121094 62.57753372192383 10.94070434570312 66.80214691162109 14.56928253173828 70.43071746826172 C 18.19785308837891 74.05929565429688 22.42246627807617 76.90781402587891 27.125732421875 78.89711761474609 C 31.99356079101562 80.95603942871094 37.16621398925781 82 42.5 82 C 47.83378601074219 82 53.00643920898438 80.95603942871094 57.874267578125 78.89711761474609 C 62.57753372192383 76.90781402587891 66.80214691162109 74.05929565429688 70.43071746826172 70.43071746826172 C 74.05929565429688 66.80214691162109 76.90781402587891 62.57753372192383 78.89711761474609 57.874267578125 C 80.95603942871094 53.00643920898438 82 47.83378601074219 82 42.5 C 82 37.16621398925781 80.95603942871094 31.99356079101562 78.89711761474609 27.125732421875 C 76.90781402587891 22.42246627807617 74.05929565429688 18.19785308837891 70.43071746826172 14.56928253173828 C 66.80214691162109 10.94070434570312 62.57753372192383 8.092185974121094 57.874267578125 6.102882385253906 C 53.00643920898438 4.043960571289062 47.83378601074219 3 42.5 3 M 42.5 0 C 65.97210693359375 0 85 19.02789306640625 85 42.5 C 85 65.97210693359375 65.97210693359375 85 42.5 85 C 19.02789306640625 85 0 65.97210693359375 0 42.5 C 0 19.02789306640625 19.02789306640625 0 42.5 0 Z" stroke="none" fill="#496406"/>
                        </g>
                      </g>
                    </g>
                  </g>
                </g>
              </g>
            </g>
          </g>
        </g>
      </g>
    </g>
    <g id="discount_2331575" transform="translate(592.866 9630.792)">
      <path id="Trazado_1053308" data-name="Trazado 1053308" d="M357.137,142.044l-2.57,2.57-2.5,2.432-3.61-3.61,2.346-2.345,2.69-2.69,1.435-1.435,3.743,3.322Z" transform="translate(-266.704 -119.149)" fill="#d7d0d6"/>
      <g id="XMLID_1044_" transform="translate(62.528 1.255)">
        <g id="Grupo_1207843" data-name="Grupo 1207843">
          <path id="Trazado_1053309" data-name="Trazado 1053309" d="M207.889,9.651a7.231,7.231,0,1,1-7.231,7.231,7.231,7.231,0,0,1,7.231-7.231Zm3.05,7.394a3.2,3.2,0,1,0-3.2,3.2A3.2,3.2,0,0,0,210.94,17.045Z" transform="translate(-200.658 -9.651)" fill="#e5e1e5"/>
        </g>
      </g>
      <path id="Trazado_1053310" data-name="Trazado 1053310" d="M237.609,99.371h-6.175V93.019a1.93,1.93,0,0,1,1.93-1.93h2.314a1.93,1.93,0,0,1,1.93,1.93Z" transform="translate(-164.903 -79.24)" fill="#d7d0d6"/>
      <path id="Trazado_1053311" data-name="Trazado 1053311" d="M88.691,134.777l2.69,2.69,2.948,2.948-3.84,3.84-2.872-3.264-2.57-2.57-1.512-1.862,3.758-3.758Z" transform="translate(-36.243 -115.526)" fill="#d7d0d6"/>
      <g id="Grupo_1207844" data-name="Grupo 1207844" transform="translate(45.805 17.5)">
        <path id="Trazado_1053312" data-name="Trazado 1053312" d="M120.026,157.564l-6.23.509a17.729,17.729,0,0,0-35.454.433H72.1a23.973,23.973,0,0,1,47.927-.942Z" transform="translate(-72.099 -134.532)" fill="#9df8d3"/>
      </g>
      <path id="Trazado_1053313" data-name="Trazado 1053313" d="M120.026,311.592q.02.468.02.942a23.973,23.973,0,1,1-47.947,0h6.244a17.729,17.729,0,1,0,35.459,0c0-.144,0-.289-.005-.433Z" transform="translate(-26.294 -271.06)" fill="#fdea84"/>
      <path id="Trazado_1053314" data-name="Trazado 1053314" d="M388.008,124.912l-3.722-3.722a1.318,1.318,0,0,1,0-1.863L386,117.613a1.318,1.318,0,0,1,1.863,0l3.722,3.722a1.318,1.318,0,0,1,0,1.863l-1.714,1.714A1.318,1.318,0,0,1,388.008,124.912Z" transform="translate(-297.536 -101.978)" fill="#e5e1e5"/>
      <g id="Grupo_1207845" data-name="Grupo 1207845" transform="translate(62.757 33.936)">
        <path id="Trazado_1053315" data-name="Trazado 1053315" d="M204.032,275.581l-1.271-1.184a1.083,1.083,0,0,1-.054-1.53l10.843-11.639a1.083,1.083,0,0,1,1.53-.054l1.271,1.184a1.083,1.083,0,0,1,.054,1.53l-10.843,11.639A1.083,1.083,0,0,1,204.032,275.581Z" transform="translate(-202.416 -260.883)" fill="#ef7483"/>
      </g>
      <circle id="Elipse_13471" data-name="Elipse 13471" cx="3.034" cy="3.034" r="3.034" transform="translate(60.979 31.884)" fill="#ef7483"/>
      <circle id="Elipse_13472" data-name="Elipse 13472" cx="3.034" cy="3.034" r="3.034" transform="translate(73.353 44.257)" fill="#ef7483"/>
      <path id="Trazado_1053316" data-name="Trazado 1053316" d="M68.356,124.912l3.722-3.722a1.318,1.318,0,0,0,0-1.863l-1.714-1.714a1.318,1.318,0,0,0-1.863,0l-3.722,3.722a1.318,1.318,0,0,0,0,1.863l1.714,1.714A1.318,1.318,0,0,0,68.356,124.912Z" transform="translate(-19.591 -101.978)" fill="#e5e1e5"/>
      <g id="Grupo_1207846" data-name="Grupo 1207846" transform="translate(45.805 17.5)">
        <path id="Trazado_1053317" data-name="Trazado 1053317" d="M99.672,135.67a24.045,24.045,0,0,1,5.4.612A23.988,23.988,0,0,0,72.1,158.507h3.627A23.974,23.974,0,0,1,99.672,135.67Z" transform="translate(-72.099 -134.533)" fill="#6ef5c2"/>
      </g>
      <g id="Grupo_1207847" data-name="Grupo 1207847" transform="translate(45.805 41.474)">
        <path id="Trazado_1053318" data-name="Trazado 1053318" d="M99.673,341.226a23.973,23.973,0,0,1-23.921-22.394H72.1a23.981,23.981,0,0,0,35.372,21.1A23.937,23.937,0,0,1,99.673,341.226Z" transform="translate(-72.099 -318.832)" fill="#fde044"/>
      </g>
      <g id="XMLID_1034_" transform="translate(42.755 38.886)">
        <g id="Grupo_1207848" data-name="Grupo 1207848" transform="translate(0)">
          <path id="Trazado_1053319" data-name="Trazado 1053319" d="M60.274,298.941a.268.268,0,0,1,.258.4l-4.892,8.19a.268.268,0,0,1-.427.046l-6.486-7a.269.269,0,0,1,.169-.45l2.725-.285,6.387-.67Z" transform="translate(-48.655 -298.94)" fill="#9df8d3"/>
        </g>
      </g>
      <path id="Trazado_1053320" data-name="Trazado 1053320" d="M56.767,305.649l-1.127,1.887a.268.268,0,0,1-.427.046l-6.486-7a.269.269,0,0,1,.169-.45l2.725-.285,6.387-.67,2.266-.238a.268.268,0,0,1,.258.4l-.848,1.42-3.525.37-.418.05a1.414,1.414,0,0,0-.882,2.353Z" transform="translate(-5.9 -260.053)" fill="#6ef5c2"/>
      <g id="XMLID_1023_" transform="translate(84.41 32.836)">
        <g id="Grupo_1207849" data-name="Grupo 1207849">
          <path id="Trazado_1053321" data-name="Trazado 1053321" d="M380.717,259.513a.268.268,0,0,1-.168.449l-2.443.256-6.283.66-2.654.278a.269.269,0,0,1-.258-.4l4.892-8.191a.268.268,0,0,1,.427-.044Z" transform="translate(-368.874 -252.43)" fill="#fdea84"/>
        </g>
      </g>
      <g id="Grupo_1207850" data-name="Grupo 1207850" transform="translate(41.873 0)">
        <path id="Trazado_1053322" data-name="Trazado 1053322" d="M49.605,48.642a1.241,1.241,0,0,0,1.066-.606l4.893-8.191a1.244,1.244,0,0,0-1.2-1.875l-.991.1a16.665,16.665,0,0,1,3.8-7.643.976.976,0,1,0-1.468-1.285,18.6,18.6,0,0,0-4.474,9.908A.976.976,0,0,0,52.3,40.148l.859-.09L49.48,46.225,44.6,40.957l1.32-.138a.976.976,0,0,0,.872-.907A23.02,23.02,0,0,1,89.46,29.543a.976.976,0,0,0,1.669-1.01,25.018,25.018,0,0,0-1.986-2.822l1.521-1.521a2.294,2.294,0,0,0,2.455-.513l1.714-1.714a2.3,2.3,0,0,0,0-3.243L91.111,15a2.3,2.3,0,0,0-3.243,0l-1.714,1.714a2.291,2.291,0,0,0-.514,2.456l-1.72,1.72a25.141,25.141,0,0,0-2.871-1.711A24.822,24.822,0,0,0,73.776,16.8V15.061a8.079,8.079,0,1,0-8.126,0v1.758a24.993,24.993,0,0,0-10.11,4.1l-1.755-1.755a2.291,2.291,0,0,0-.514-2.456L51.557,15a2.3,2.3,0,0,0-3.243,0l-3.722,3.722a2.3,2.3,0,0,0,0,3.243l1.714,1.714a2.294,2.294,0,0,0,2.455.513l1.571,1.571a24.99,24.99,0,0,0-5.423,13.2l-1.922.2a1.244,1.244,0,0,0-.783,2.082l6.486,7a1.25,1.25,0,0,0,.914.4Zm37.929-30.55,1.714-1.714a.342.342,0,0,1,.484,0L93.453,20.1a.343.343,0,0,1,0,.484L91.739,22.3a.342.342,0,0,1-.484,0l-3.683-3.683-.039-.039a.342.342,0,0,1,0-.483Zm-.651,2.592,2.264,2.264-1.3,1.3A25.007,25.007,0,0,0,85.5,22.068ZM71.824,13.832v2.644H67.6V13.832a.956.956,0,0,1,.955-.955H70.87A.956.956,0,0,1,71.824,13.832ZM69.713,10.3a2.225,2.225,0,1,1,2.225-2.225A2.227,2.227,0,0,1,69.713,10.3ZM63.585,8.079a6.127,6.127,0,1,1,10.007,4.739,2.922,2.922,0,0,0-1.257-1.493,4.176,4.176,0,1,0-5.247,0,2.922,2.922,0,0,0-1.257,1.493,6.169,6.169,0,0,1-2.247-4.739Zm-17.613,12.5a.343.343,0,0,1,0-.484l3.722-3.722a.342.342,0,0,1,.484,0l1.714,1.714a.342.342,0,0,1,0,.483l-.039.039L48.169,22.3a.342.342,0,0,1-.484,0Zm4.306,2.365,2.264-2.264,1.423,1.423a24.851,24.851,0,0,0-2.278,2.108l-.068.073Z" transform="translate(-41.873 0)"/>
        <path id="Trazado_1053323" data-name="Trazado 1053323" d="M195.841,185.427a.976.976,0,1,0,1.692-.971,18.681,18.681,0,0,0-26.99-5.958.976.976,0,0,0,1.129,1.592,16.729,16.729,0,0,1,24.169,5.337Z" transform="translate(-153.448 -152.296)"/>
        <path id="Trazado_1053324" data-name="Trazado 1053324" d="M130.276,252.731l-6.486-7a1.244,1.244,0,0,0-1.98.208l-4.893,8.191a1.244,1.244,0,0,0,1.2,1.875l1.549-.162a16.683,16.683,0,0,1-4.18,10.111.976.976,0,1,0,1.461,1.293,18.624,18.624,0,0,0,4.7-12.5.975.975,0,0,0-1.077-.963l-1.247.131L123,247.753l4.883,5.268-1.036.109a.975.975,0,0,0-.873,1,23.02,23.02,0,0,1-44.054,10.057.976.976,0,0,0-1.784.79,24.988,24.988,0,0,0,22.785,14.86,25.42,25.42,0,0,0,2.654-.139,24.97,24.97,0,0,0,22.364-24.722l1.555-.163a1.244,1.244,0,0,0,.782-2.083Z" transform="translate(-75.087 -213.422)"/>
        <path id="Trazado_1053325" data-name="Trazado 1053325" d="M126.72,367.974a.976.976,0,1,0-1.777.807,18.644,18.644,0,0,0,16.984,10.947,18.721,18.721,0,0,0,10.714-3.366.976.976,0,0,0-1.119-1.6,16.728,16.728,0,0,1-24.8-6.79Z" transform="translate(-114.061 -319.61)"/>
        <path id="Trazado_1053326" data-name="Trazado 1053326" d="M209.22,253.942a2.061,2.061,0,0,0-2.909.1l-6.139,6.59a.976.976,0,0,0,1.428,1.33l6.139-6.59a.107.107,0,0,1,.151-.005l1.271,1.184a.107.107,0,0,1,.005.151l-10.843,11.639a.107.107,0,0,1-.151.005l-1.271-1.184a.107.107,0,0,1-.005-.151l1.868-2.005a.976.976,0,1,0-1.428-1.33l-1.868,2.005a2.058,2.058,0,0,0,.1,2.909l1.271,1.184a2.061,2.061,0,0,0,2.909-.1l10.843-11.639a2.058,2.058,0,0,0-.1-2.909Z" transform="translate(-175.008 -220.43)"/>
        <path id="Trazado_1053327" data-name="Trazado 1053327" d="M185.261,237.6a4.009,4.009,0,1,0,4.009,4.009,4.014,4.014,0,0,0-4.009-4.009Zm0,6.067a2.058,2.058,0,1,1,2.058-2.058A2.06,2.06,0,0,1,185.261,243.672Z" transform="translate(-163.121 -206.697)"/>
        <path id="Trazado_1053328" data-name="Trazado 1053328" d="M276.372,336.735a4.009,4.009,0,1,0,4.009-4.009A4.014,4.014,0,0,0,276.372,336.735Zm6.067,0a2.058,2.058,0,1,1-2.058-2.058A2.06,2.06,0,0,1,282.439,336.735Z" transform="translate(-245.868 -289.445)"/>
      </g>
    </g>
  </g>
</svg>
