<svg xmlns="http://www.w3.org/2000/svg" xmlns:xlink="http://www.w3.org/1999/xlink" width="103" height="103" viewBox="0 0 103 103">
  <defs>
    <filter id="Trazado_982547" x="0" y="0" width="103" height="103" filterUnits="userSpaceOnUse">
      <feOffset dy="3" input="SourceAlpha"/>
      <feGaussianBlur stdDeviation="3" result="blur"/>
      <feFlood flood-opacity="0.161"/>
      <feComposite operator="in" in2="blur"/>
      <feComposite in="SourceGraphic"/>
    </filter>
  </defs>
  <g id="Grupo_1207908" data-name="Grupo 1207908" transform="translate(-191 -9782)">
    <g id="Grupo_1207594" data-name="Grupo 1207594" transform="translate(0 5689)">
      <g id="Grupo_1202412" data-name="Grupo 1202412" transform="translate(0 3349)">
        <g id="Grupo_1202212" data-name="Grupo 1202212" transform="translate(-80 -126.414)">
          <g id="Grupo_1174813" data-name="Grupo 1174813" transform="translate(280 876.414)">
            <g id="Grupo_1201680" data-name="Grupo 1201680">
              <g id="Grupo_1201330" data-name="Grupo 1201330">
                <g id="Grupo_1172010" data-name="Grupo 1172010">
                  <g id="Grupo_1171046" data-name="Grupo 1171046">
                    <g id="Grupo_1148525" data-name="Grupo 1148525">
                      <g transform="matrix(1, 0, 0, 1, -9, -6)" filter="url(#Trazado_982547)">
                        <g id="Trazado_982547-2" data-name="Trazado 982547" transform="translate(9 6)" fill="#f2f7e5">
                          <path d="M 42.5 83.5 C 36.96437835693359 83.5 31.59512901306152 82.41617584228516 26.54141235351562 80.27863311767578 C 21.65934181213379 78.21369171142578 17.27447128295898 75.25723266601562 13.50862312316895 71.49137878417969 C 9.742764472961426 67.72553253173828 6.786305904388428 63.34066009521484 4.721364498138428 58.45858764648438 C 2.583823442459106 53.40486907958984 1.5 48.03562164306641 1.5 42.5 C 1.5 36.96437835693359 2.583823442459106 31.59512901306152 4.721364498138428 26.54141235351562 C 6.786305904388428 21.65934181213379 9.742764472961426 17.27448272705078 13.50862312316895 13.50862312316895 C 17.27447128295898 9.742776870727539 21.65934181213379 6.786305904388428 26.54141235351562 4.721364498138428 C 31.59512901306152 2.583823442459106 36.96437835693359 1.5 42.5 1.5 C 48.03562164306641 1.5 53.40486907958984 2.583823442459106 58.45858764648438 4.721364498138428 C 63.34066009521484 6.786305904388428 67.72553253173828 9.742776870727539 71.49137878417969 13.50862312316895 C 75.25723266601562 17.27448272705078 78.21369171142578 21.65934181213379 80.27863311767578 26.54141235351562 C 82.41617584228516 31.59512901306152 83.5 36.96437835693359 83.5 42.5 C 83.5 48.03562164306641 82.41617584228516 53.40486907958984 80.27863311767578 58.45858764648438 C 78.21369171142578 63.34066009521484 75.25723266601562 67.72553253173828 71.49137878417969 71.49137878417969 C 67.72553253173828 75.25723266601562 63.34066009521484 78.21369171142578 58.45858764648438 80.27863311767578 C 53.40486907958984 82.41617584228516 48.03562164306641 83.5 42.5 83.5 Z" stroke="none"/>
                          <path d="M 42.5 3 C 37.16621398925781 3 31.99356079101562 4.043960571289062 27.125732421875 6.102882385253906 C 22.42246627807617 8.092185974121094 18.19785308837891 10.94070434570312 14.56928253173828 14.56928253173828 C 10.94070434570312 18.19785308837891 8.092185974121094 22.42246627807617 6.102882385253906 27.125732421875 C 4.043960571289062 31.99356079101562 3 37.16621398925781 3 42.5 C 3 47.83378601074219 4.043960571289062 53.00643920898438 6.102882385253906 57.874267578125 C 8.092185974121094 62.57753372192383 10.94070434570312 66.80214691162109 14.56928253173828 70.43071746826172 C 18.19785308837891 74.05929565429688 22.42246627807617 76.90781402587891 27.125732421875 78.89711761474609 C 31.99356079101562 80.95603942871094 37.16621398925781 82 42.5 82 C 47.83378601074219 82 53.00643920898438 80.95603942871094 57.874267578125 78.89711761474609 C 62.57753372192383 76.90781402587891 66.80214691162109 74.05929565429688 70.43071746826172 70.43071746826172 C 74.05929565429688 66.80214691162109 76.90781402587891 62.57753372192383 78.89711761474609 57.874267578125 C 80.95603942871094 53.00643920898438 82 47.83378601074219 82 42.5 C 82 37.16621398925781 80.95603942871094 31.99356079101562 78.89711761474609 27.125732421875 C 76.90781402587891 22.42246627807617 74.05929565429688 18.19785308837891 70.43071746826172 14.56928253173828 C 66.80214691162109 10.94070434570312 62.57753372192383 8.092185974121094 57.874267578125 6.102882385253906 C 53.00643920898438 4.043960571289062 47.83378601074219 3 42.5 3 M 42.5 0 C 65.97210693359375 0 85 19.02789306640625 85 42.5 C 85 65.97210693359375 65.97210693359375 85 42.5 85 C 19.02789306640625 85 0 65.97210693359375 0 42.5 C 0 19.02789306640625 19.02789306640625 0 42.5 0 Z" stroke="none" fill="#496406"/>
                        </g>
                      </g>
                    </g>
                  </g>
                </g>
              </g>
            </g>
          </g>
        </g>
      </g>
    </g>
    <g id="effective_11628389" transform="translate(204.054 9798.279)">
      <g id="Grupo_1207882" data-name="Grupo 1207882" transform="translate(12.235 7.5)">
        <g id="Grupo_1207881" data-name="Grupo 1207881" transform="translate(0 0)">
          <g id="Grupo_1207872" data-name="Grupo 1207872">
            <g id="Grupo_1207865" data-name="Grupo 1207865" transform="translate(0 0)">
              <g id="Grupo_1207864" data-name="Grupo 1207864">
                <path id="Trazado_1053389" data-name="Trazado 1053389" d="M30.151,34.075H13.209a.974.974,0,0,1-.974-.974V8.474a.974.974,0,0,1,.974-.974H30.151a.974.974,0,0,1,.974.974V33.1A.974.974,0,0,1,30.151,34.075Z" transform="translate(-12.235 -7.5)" fill="#edf3f4"/>
                <path id="Trazado_1053390" data-name="Trazado 1053390" d="M147.466,8.474V33.1a.974.974,0,0,1-.974.974h-3.9a.975.975,0,0,0,.974-.974V8.474a.975.975,0,0,0-.974-.974h3.9A.974.974,0,0,1,147.466,8.474Z" transform="translate(-128.576 -7.5)" fill="#cbe5e7"/>
              </g>
            </g>
            <g id="Grupo_1207871" data-name="Grupo 1207871" transform="translate(25.577)">
              <circle id="Elipse_13477" data-name="Elipse 13477" cx="13.423" cy="13.423" r="13.423" transform="translate(0 0)" fill="#edf3f4"/>
              <path id="Trazado_1053391" data-name="Trazado 1053391" d="M371.455,20.923A13.43,13.43,0,0,1,356,34.192a13.425,13.425,0,0,0,0-26.538,13.43,13.43,0,0,1,15.459,13.269Z" transform="translate(-344.609 -7.5)" fill="#cbe5e7"/>
              <path id="Trazado_1053392" data-name="Trazado 1053392" d="M343.638,179.252v8.209c0,.034,0,.068,0,.1q-.667.066-1.352.066a13.386,13.386,0,0,1-3.933-.587v-7.791Z" transform="translate(-328.861 -160.784)" fill="#f79e8d"/>
              <path id="Trazado_1053393" data-name="Trazado 1053393" d="M365.562,179.252v8.209c0,.034,0,.068,0,.1q-.667.066-1.351.066c-.436,0-.868-.02-1.292-.062,0-.036,0-.071,0-.107v-8.209Z" transform="translate(-350.786 -160.784)" fill="#ea806f"/>
              <g id="Grupo_1207870" data-name="Grupo 1207870" transform="translate(4.654 5.287)">
                <g id="Grupo_1207869" data-name="Grupo 1207869">
                  <g id="Grupo_1207868" data-name="Grupo 1207868">
                    <g id="Grupo_1207867" data-name="Grupo 1207867">
                      <g id="Grupo_1207866" data-name="Grupo 1207866">
                        <path id="Trazado_1053394" data-name="Trazado 1053394" d="M323.846,128.411c4-.753,1.118-10.8,1.118-10.8l-8.66-.151a2.661,2.661,0,0,0-2.723,2.505,2.627,2.627,0,0,0,1.871,2.636,1,1,0,0,1,.7.909C316.257,125.352,317.195,129.662,323.846,128.411Z" transform="translate(-311.406 -110.92)" fill="#fdb0a0"/>
                        <path id="Trazado_1053395" data-name="Trazado 1053395" d="M389.307,129.268a11.811,11.811,0,0,1-2.381.223c3.35-1.317,1.057-10.061.778-11.075l2.722.048S393.311,128.515,389.307,129.268Z" transform="translate(-376.867 -111.777)" fill="#f79e8d"/>
                        <path id="Trazado_1053396" data-name="Trazado 1053396" d="M299.24,58.035c3.3-3.475,7.153.785,7.994.9a1.072,1.072,0,0,0,1.037-.671.514.514,0,0,1,.646-.222c2.138.87,3.139,5.3.007,6.688a10.119,10.119,0,0,1-6.738.33,3.315,3.315,0,0,1-1.62,1.84.508.508,0,0,1-.665-.38c-.2-1-.868-3.189-2.743-2.849-1.324.24-1.6,2.792.66,4.564a1.038,1.038,0,0,1,.385.619l.569,2.956s-5.518-1.449-5.4-8.527C293.485,57.112,299.24,58.035,299.24,58.035Z" transform="translate(-293.376 -56.673)" fill="#fca62f"/>
                        <path id="Trazado_1053397" data-name="Trazado 1053397" d="M407.969,75.748a9.205,9.205,0,0,1-3.615.76,8.584,8.584,0,0,0,1.016-.375c2.788-1.235,2.3-4.879.654-6.28a.812.812,0,0,0,.256.1,1.073,1.073,0,0,0,1.037-.671.515.515,0,0,1,.646-.223C410.1,69.93,411.1,74.361,407.969,75.748Z" transform="translate(-392.421 -67.694)" fill="#f98824"/>
                      </g>
                    </g>
                  </g>
                </g>
              </g>
            </g>
          </g>
          <g id="Grupo_1207878" data-name="Grupo 1207878" transform="translate(31.538 34.511)">
            <g id="Grupo_1207877" data-name="Grupo 1207877">
              <g id="Grupo_1207873" data-name="Grupo 1207873">
                <path id="Trazado_1053398" data-name="Trazado 1053398" d="M318.115,347.383h-10.23a2.346,2.346,0,0,1-2.346-2.346V330.8a2.346,2.346,0,0,1,2.346-2.346h10.23a2.346,2.346,0,0,1,2.346,2.346v14.237A2.346,2.346,0,0,1,318.115,347.383Z" transform="translate(-305.538 -328.453)" fill="#23f1a8"/>
                <path id="Trazado_1053399" data-name="Trazado 1053399" d="M399.558,330.8v14.237a2.346,2.346,0,0,1-2.346,2.346h-3.047a2.346,2.346,0,0,0,2.346-2.346V330.8a2.346,2.346,0,0,0-2.346-2.346h3.047A2.346,2.346,0,0,1,399.558,330.8Z" transform="translate(-384.635 -328.455)" fill="#26d192"/>
              </g>
              <g id="Grupo_1207876" data-name="Grupo 1207876" transform="translate(2.606 6.538)">
                <g id="Grupo_1207874" data-name="Grupo 1207874" transform="translate(2.339)">
                  <path id="Trazado_1053400" data-name="Trazado 1053400" d="M351.525,391.7c0,.81.191,2.436,1.087,3.035a3.264,3.264,0,0,0,2.859,0c.9-.6,1.087-2.225,1.087-3.035C356.559,388.44,351.525,388.44,351.525,391.7Z" transform="translate(-351.525 -389.255)" fill="#fdb0a0"/>
                </g>
                <g id="Grupo_1207875" data-name="Grupo 1207875" transform="translate(0 5.758)">
                  <path id="Trazado_1053401" data-name="Trazado 1053401" d="M335.505,442.862h-1.751c-2.171-.145-3.63-.446-3.98,6.58h9.711C339.135,442.416,337.676,442.717,335.505,442.862Z" transform="translate(-329.774 -442.811)" fill="#fb4a59"/>
                  <path id="Trazado_1053402" data-name="Trazado 1053402" d="M379.55,449.439h-2.517c-.255-5.1-1.093-6.341-2.367-6.58h.9C377.741,442.715,379.2,442.414,379.55,449.439Z" transform="translate(-369.839 -442.808)" fill="#e22334"/>
                </g>
              </g>
            </g>
          </g>
          <g id="Grupo_1207880" data-name="Grupo 1207880" transform="translate(11.584 21.51)">
            <g id="Grupo_1207879" data-name="Grupo 1207879">
              <circle id="Elipse_13478" data-name="Elipse 13478" cx="7.307" cy="7.307" r="7.307" transform="translate(0 0)" fill="#23f1a8"/>
              <path id="Trazado_1053403" data-name="Trazado 1053403" d="M182.616,214.851A7.308,7.308,0,0,1,173.791,222a7.308,7.308,0,0,0,0-14.3,7.308,7.308,0,0,1,8.825,7.147Z" transform="translate(-168.003 -207.544)" fill="#26d192"/>
            </g>
          </g>
        </g>
      </g>
      <g id="Grupo_1207907" data-name="Grupo 1207907" transform="translate(12.235 7.5)">
        <g id="Grupo_1207906" data-name="Grupo 1207906" transform="translate(0 0)">
          <g id="Grupo_1207893" data-name="Grupo 1207893">
            <g id="Grupo_1207885" data-name="Grupo 1207885">
              <g id="Grupo_1207883" data-name="Grupo 1207883">
                <line id="Línea_1364" data-name="Línea 1364" y1="12.821" transform="translate(18.891 8.298)" fill="none" stroke="#000" stroke-linecap="round" stroke-linejoin="round" stroke-width="1.5"/>
                <path id="Trazado_1053404" data-name="Trazado 1053404" d="M31.126,12.3V8.474a.974.974,0,0,0-.974-.974H13.209a.974.974,0,0,0-.974.974V33.1a.974.974,0,0,0,.974.974H23.961" transform="translate(-12.235 -7.5)" fill="none" stroke="#000" stroke-linecap="round" stroke-linejoin="round" stroke-width="1.5"/>
              </g>
              <line id="Línea_1365" data-name="Línea 1365" x2="1.872" transform="translate(4.596 4.388)" fill="none" stroke="#000" stroke-linecap="round" stroke-linejoin="round" stroke-width="1.5"/>
              <line id="Línea_1366" data-name="Línea 1366" x2="5.359" transform="translate(4.596 22.471)" fill="none" stroke="#000" stroke-linecap="round" stroke-linejoin="round" stroke-width="1.5"/>
              <g id="Grupo_1207884" data-name="Grupo 1207884" transform="translate(4.596 8.859)">
                <line id="Línea_1367" data-name="Línea 1367" x2="9.699" fill="none" stroke="#000" stroke-linecap="round" stroke-linejoin="round" stroke-width="1.5"/>
                <line id="Línea_1368" data-name="Línea 1368" x2="9.699" transform="translate(0 3.047)" fill="none" stroke="#000" stroke-linecap="round" stroke-linejoin="round" stroke-width="1.5"/>
                <line id="Línea_1369" data-name="Línea 1369" x2="9.699" transform="translate(0 6.094)" fill="none" stroke="#000" stroke-linecap="round" stroke-linejoin="round" stroke-width="1.5"/>
                <line id="Línea_1370" data-name="Línea 1370" x2="9.699" transform="translate(0 9.141)" fill="none" stroke="#000" stroke-linecap="round" stroke-linejoin="round" stroke-width="1.5"/>
              </g>
            </g>
            <g id="Grupo_1207892" data-name="Grupo 1207892" transform="translate(25.577 0)">
              <g id="Grupo_1207891" data-name="Grupo 1207891">
                <g id="Grupo_1207886" data-name="Grupo 1207886" transform="translate(9.489 20.308)">
                  <line id="Línea_1371" data-name="Línea 1371" y2="3.538" transform="translate(5.288 2.831)" fill="none" stroke="#000" stroke-linecap="round" stroke-linejoin="round" stroke-miterlimit="10" stroke-width="1.5"/>
                  <line id="Línea_1372" data-name="Línea 1372" y1="5.717" fill="none" stroke="#000" stroke-linecap="round" stroke-linejoin="round" stroke-miterlimit="10" stroke-width="1.5"/>
                </g>
                <path id="Trazado_1053405" data-name="Trazado 1053405" d="M273.567,29.828a13.408,13.408,0,1,0-2.633,2.29" transform="translate(-250.098 -7.504)" fill="none" stroke="#000" stroke-linecap="round" stroke-linejoin="round" stroke-miterlimit="10" stroke-width="1.5"/>
                <g id="Grupo_1207890" data-name="Grupo 1207890" transform="translate(4.654 5.287)">
                  <g id="Grupo_1207889" data-name="Grupo 1207889">
                    <g id="Grupo_1207888" data-name="Grupo 1207888">
                      <g id="Grupo_1207887" data-name="Grupo 1207887">
                        <path id="Trazado_1053406" data-name="Trazado 1053406" d="M343.57,144.2c.848,1.662,2.762,3.161,7.043,2.356,2.852-.536,2.209-5.79,1.6-8.769" transform="translate(-338.173 -129.067)" fill="none" stroke="#000" stroke-linecap="round" stroke-linejoin="round" stroke-miterlimit="10" stroke-width="1.5"/>
                        <path id="Trazado_1053407" data-name="Trazado 1053407" d="M299.24,58.035c3.3-3.475,7.153.785,7.994.9a1.072,1.072,0,0,0,1.037-.671.514.514,0,0,1,.646-.222c2.138.87,3.139,5.3.007,6.688a10.119,10.119,0,0,1-6.738.33,3.315,3.315,0,0,1-1.62,1.84.508.508,0,0,1-.665-.38c-.2-1-.868-3.189-2.743-2.849-1.324.24-1.6,2.792.66,4.564a1.038,1.038,0,0,1,.385.619l.569,2.956s-5.518-1.449-5.4-8.527C293.485,57.112,299.24,58.035,299.24,58.035Z" transform="translate(-293.376 -56.673)" fill="none" stroke="#000" stroke-linecap="round" stroke-linejoin="round" stroke-miterlimit="10" stroke-width="1.5"/>
                      </g>
                    </g>
                  </g>
                </g>
              </g>
            </g>
          </g>
          <g id="Grupo_1207900" data-name="Grupo 1207900" transform="translate(31.538 34.511)">
            <g id="Grupo_1207899" data-name="Grupo 1207899">
              <g id="Grupo_1207894" data-name="Grupo 1207894">
                <path id="Trazado_1053408" data-name="Trazado 1053408" d="M320.462,330.8a2.346,2.346,0,0,0-2.346-2.346H307.885a2.346,2.346,0,0,0-2.346,2.346v14.237a2.346,2.346,0,0,0,2.346,2.346h10.231a2.346,2.346,0,0,0,2.346-2.346Z" transform="translate(-305.539 -328.453)" fill="none" stroke="#000" stroke-linecap="round" stroke-linejoin="round" stroke-miterlimit="10" stroke-width="1.5"/>
              </g>
              <g id="Grupo_1207897" data-name="Grupo 1207897" transform="translate(2.606 6.538)">
                <g id="Grupo_1207895" data-name="Grupo 1207895" transform="translate(2.339)">
                  <path id="Trazado_1053409" data-name="Trazado 1053409" d="M351.525,391.7c0,.81.191,2.436,1.087,3.035a3.264,3.264,0,0,0,2.859,0c.9-.6,1.087-2.225,1.087-3.035C356.559,388.44,351.525,388.44,351.525,391.7Z" transform="translate(-351.525 -389.255)" fill="none" stroke="#000" stroke-linecap="round" stroke-linejoin="round" stroke-miterlimit="10" stroke-width="1.5"/>
                </g>
                <g id="Grupo_1207896" data-name="Grupo 1207896" transform="translate(0 5.759)">
                  <path id="Trazado_1053410" data-name="Trazado 1053410" d="M335.505,442.862h-1.751c-2.171-.145-3.63-.446-3.98,6.58h9.711C339.135,442.416,337.676,442.717,335.505,442.862Z" transform="translate(-329.774 -442.811)" fill="none" stroke="#000" stroke-linecap="round" stroke-linejoin="round" stroke-miterlimit="10" stroke-width="1.5"/>
                </g>
              </g>
              <g id="Grupo_1207898" data-name="Grupo 1207898" transform="translate(4.891 3.166)">
                <line id="Línea_1373" data-name="Línea 1373" y2="0.044" fill="none" stroke="#000" stroke-linecap="round" stroke-linejoin="round" stroke-miterlimit="10" stroke-width="1.5"/>
                <line id="Línea_1374" data-name="Línea 1374" y2="0.044" transform="translate(2.571)" fill="none" stroke="#000" stroke-linecap="round" stroke-linejoin="round" stroke-miterlimit="10" stroke-width="1.5"/>
                <line id="Línea_1375" data-name="Línea 1375" y2="0.044" transform="translate(5.142)" fill="none" stroke="#000" stroke-linecap="round" stroke-linejoin="round" stroke-miterlimit="10" stroke-width="1.5"/>
              </g>
            </g>
          </g>
          <line id="Línea_1376" data-name="Línea 1376" x2="6.238" transform="translate(19.114 13.423)" fill="none" stroke="#000" stroke-linecap="round" stroke-linejoin="round" stroke-miterlimit="10" stroke-width="1.5"/>
          <line id="Línea_1377" data-name="Línea 1377" y2="7.665" transform="translate(39 26.846)" fill="none" stroke="#000" stroke-linecap="round" stroke-linejoin="round" stroke-miterlimit="10" stroke-width="1.5"/>
          <g id="Grupo_1207905" data-name="Grupo 1207905" transform="translate(11.584 21.51)">
            <g id="Grupo_1207904" data-name="Grupo 1207904">
              <g id="Grupo_1207903" data-name="Grupo 1207903">
                <g id="Grupo_1207902" data-name="Grupo 1207902" transform="translate(4.032 6.539)">
                  <g id="Grupo_1207901" data-name="Grupo 1207901">
                    <line id="Línea_1378" data-name="Línea 1378" y2="0.271" fill="none" stroke="#000" stroke-linecap="round" stroke-linejoin="round" stroke-miterlimit="10" stroke-width="1.5"/>
                    <line id="Línea_1379" data-name="Línea 1379" y2="0.271" transform="translate(6.549)" fill="none" stroke="#000" stroke-linecap="round" stroke-linejoin="round" stroke-miterlimit="10" stroke-width="1.5"/>
                  </g>
                  <path id="Trazado_1053411" data-name="Trazado 1053411" d="M173.885,290.225a1.844,1.844,0,0,0,3.017,0" transform="translate(-172.119 -287.874)" fill="none" stroke="#000" stroke-linecap="round" stroke-linejoin="round" stroke-miterlimit="10" stroke-width="1.5"/>
                </g>
                <path id="Trazado_1053412" data-name="Trazado 1053412" d="M129,221.953a7.306,7.306,0,1,0-3.495-.008" transform="translate(-119.962 -207.547)" fill="none" stroke="#000" stroke-linecap="round" stroke-linejoin="round" stroke-miterlimit="10" stroke-width="1.5"/>
              </g>
            </g>
          </g>
        </g>
        <path id="Trazado_1053413" data-name="Trazado 1053413" d="M122.169,347.663H103.051a2.975,2.975,0,0,1-2.975-2.975V339.4" transform="translate(-90.631 -303.71)" fill="none" stroke="#000" stroke-linecap="round" stroke-linejoin="round" stroke-miterlimit="10" stroke-width="1.5"/>
        <path id="Trazado_1053414" data-name="Trazado 1053414" d="M86.825,338.253l1.425-1.425,1.425,1.425" transform="translate(-78.805 -301.416)" fill="none" stroke="#000" stroke-linecap="round" stroke-linejoin="round" stroke-miterlimit="10" stroke-width="1.5"/>
      </g>
    </g>
  </g>
</svg>
