<svg xmlns="http://www.w3.org/2000/svg" xmlns:xlink="http://www.w3.org/1999/xlink" width="103" height="103" viewBox="0 0 103 103">
  <defs>
    <filter id="Trazado_982547" x="0" y="0" width="103" height="103" filterUnits="userSpaceOnUse">
      <feOffset dy="3" input="SourceAlpha"/>
      <feGaussianBlur stdDeviation="3" result="blur"/>
      <feFlood flood-opacity="0.161"/>
      <feComposite operator="in" in2="blur"/>
      <feComposite in="SourceGraphic"/>
    </filter>
  </defs>
  <g id="Grupo_1207910" data-name="Grupo 1207910" transform="translate(-611 -9782)">
    <g id="Grupo_1207595" data-name="Grupo 1207595" transform="translate(0 5689)">
      <g id="Grupo_1202419" data-name="Grupo 1202419" transform="translate(0 3349)">
        <g id="Grupo_1202210" data-name="Grupo 1202210" transform="translate(340 -126.414)">
          <g id="Grupo_1174813" data-name="Grupo 1174813" transform="translate(280 876.414)">
            <g id="Grupo_1201680" data-name="Grupo 1201680">
              <g id="Grupo_1201330" data-name="Grupo 1201330">
                <g id="Grupo_1172010" data-name="Grupo 1172010">
                  <g id="Grupo_1171046" data-name="Grupo 1171046">
                    <g id="Grupo_1148525" data-name="Grupo 1148525">
                      <g transform="matrix(1, 0, 0, 1, -9, -6)" filter="url(#Trazado_982547)">
                        <g id="Trazado_982547-2" data-name="Trazado 982547" transform="translate(9 6)" fill="#f2f7e5">
                          <path d="M 42.5 83.5 C 36.96437835693359 83.5 31.59512901306152 82.41617584228516 26.54141235351562 80.27863311767578 C 21.65934181213379 78.21369171142578 17.27447128295898 75.25723266601562 13.50862312316895 71.49137878417969 C 9.742764472961426 67.72553253173828 6.786305904388428 63.34066009521484 4.721364498138428 58.45858764648438 C 2.583823442459106 53.40486907958984 1.5 48.03562164306641 1.5 42.5 C 1.5 36.96437835693359 2.583823442459106 31.59512901306152 4.721364498138428 26.54141235351562 C 6.786305904388428 21.65934181213379 9.742764472961426 17.27448272705078 13.50862312316895 13.50862312316895 C 17.27447128295898 9.742776870727539 21.65934181213379 6.786305904388428 26.54141235351562 4.721364498138428 C 31.59512901306152 2.583823442459106 36.96437835693359 1.5 42.5 1.5 C 48.03562164306641 1.5 53.40486907958984 2.583823442459106 58.45858764648438 4.721364498138428 C 63.34066009521484 6.786305904388428 67.72553253173828 9.742776870727539 71.49137878417969 13.50862312316895 C 75.25723266601562 17.27448272705078 78.21369171142578 21.65934181213379 80.27863311767578 26.54141235351562 C 82.41617584228516 31.59512901306152 83.5 36.96437835693359 83.5 42.5 C 83.5 48.03562164306641 82.41617584228516 53.40486907958984 80.27863311767578 58.45858764648438 C 78.21369171142578 63.34066009521484 75.25723266601562 67.72553253173828 71.49137878417969 71.49137878417969 C 67.72553253173828 75.25723266601562 63.34066009521484 78.21369171142578 58.45858764648438 80.27863311767578 C 53.40486907958984 82.41617584228516 48.03562164306641 83.5 42.5 83.5 Z" stroke="none"/>
                          <path d="M 42.5 3 C 37.16621398925781 3 31.99356079101562 4.043960571289062 27.125732421875 6.102882385253906 C 22.42246627807617 8.092185974121094 18.19785308837891 10.94070434570312 14.56928253173828 14.56928253173828 C 10.94070434570312 18.19785308837891 8.092185974121094 22.42246627807617 6.102882385253906 27.125732421875 C 4.043960571289062 31.99356079101562 3 37.16621398925781 3 42.5 C 3 47.83378601074219 4.043960571289062 53.00643920898438 6.102882385253906 57.874267578125 C 8.092185974121094 62.57753372192383 10.94070434570312 66.80214691162109 14.56928253173828 70.43071746826172 C 18.19785308837891 74.05929565429688 22.42246627807617 76.90781402587891 27.125732421875 78.89711761474609 C 31.99356079101562 80.95603942871094 37.16621398925781 82 42.5 82 C 47.83378601074219 82 53.00643920898438 80.95603942871094 57.874267578125 78.89711761474609 C 62.57753372192383 76.90781402587891 66.80214691162109 74.05929565429688 70.43071746826172 70.43071746826172 C 74.05929565429688 66.80214691162109 76.90781402587891 62.57753372192383 78.89711761474609 57.874267578125 C 80.95603942871094 53.00643920898438 82 47.83378601074219 82 42.5 C 82 37.16621398925781 80.95603942871094 31.99356079101562 78.89711761474609 27.125732421875 C 76.90781402587891 22.42246627807617 74.05929565429688 18.19785308837891 70.43071746826172 14.56928253173828 C 66.80214691162109 10.94070434570312 62.57753372192383 8.092185974121094 57.874267578125 6.102882385253906 C 53.00643920898438 4.043960571289062 47.83378601074219 3 42.5 3 M 42.5 0 C 65.97210693359375 0 85 19.02789306640625 85 42.5 C 85 65.97210693359375 65.97210693359375 85 42.5 85 C 19.02789306640625 85 0 65.97210693359375 0 42.5 C 0 19.02789306640625 19.02789306640625 0 42.5 0 Z" stroke="none" fill="#496406"/>
                        </g>
                      </g>
                    </g>
                  </g>
                </g>
              </g>
            </g>
          </g>
        </g>
      </g>
    </g>
    <g id="smartphone-mobilephone-application-like-hamd" transform="translate(634.987 9803.486)">
      <rect id="Rectángulo_419616" data-name="Rectángulo 419616" width="31.782" height="50.851" rx="4" transform="translate(3.088 3.087)" fill="#2488ff"/>
      <path id="Trazado_1053415" data-name="Trazado 1053415" d="M31.746,8.768V49.421a1.773,1.773,0,0,1-1.768,1.768H8.768A1.773,1.773,0,0,1,7,49.421V8.768A1.773,1.773,0,0,1,8.768,7h4.569a1.782,1.782,0,0,1,1.246.513l.742.742a1.782,1.782,0,0,0,1.246.513h5.6a1.782,1.782,0,0,0,1.246-.513l.742-.742A1.782,1.782,0,0,1,25.409,7h4.569A1.773,1.773,0,0,1,31.746,8.768Z" transform="translate(-0.581 -0.581)" fill="#ffcd00"/>
      <path id="Trazado_1053416" data-name="Trazado 1053416" d="M29.978,7H28.211V26.443A21.273,21.273,0,0,1,7,47.654v1.768a1.773,1.773,0,0,0,1.768,1.768H29.978a1.773,1.773,0,0,0,1.768-1.768V8.768A1.773,1.773,0,0,0,29.978,7Z" transform="translate(-0.581 -0.581)" fill="#ebbf00"/>
      <path id="Trazado_1053417" data-name="Trazado 1053417" d="M55.189,14.768V46.583a1.773,1.773,0,0,1-1.768,1.768H18.07A1.773,1.773,0,0,1,16.3,46.583V35.094L11,30.684l5.3-4.428V14.768A1.773,1.773,0,0,1,18.07,13H53.421a1.773,1.773,0,0,1,1.768,1.768Z" transform="translate(-1.046 -1.278)" fill="#bddbff"/>
      <path id="Trazado_1053418" data-name="Trazado 1053418" d="M54.118,13V44.816a1.773,1.773,0,0,1-1.768,1.768H17a1.773,1.773,0,0,0,1.768,1.768H54.118a1.773,1.773,0,0,0,1.768-1.768V14.768A1.773,1.773,0,0,0,54.118,13Z" transform="translate(-1.743 -1.278)" fill="#9bc9ff"/>
      <path id="Trazado_1053419" data-name="Trazado 1053419" d="M51,30.373a2.209,2.209,0,1,0,0-4.419H44.373V21.535A3.535,3.535,0,0,0,40.838,18a1.768,1.768,0,0,0-1.768,1.768v1.768A7.07,7.07,0,0,1,32,28.605V41.862l1.76,1.174a3.535,3.535,0,0,0,1.961.594H49.234a2.209,2.209,0,0,0,0-4.419h.884a2.209,2.209,0,1,0,0-4.419H51a2.209,2.209,0,1,0,0-4.419Z" transform="translate(-3.487 -1.86)" fill="#ffb8a5"/>
      <path id="Trazado_1053420" data-name="Trazado 1053420" d="M22,28V45.675h8.838V28Z" transform="translate(-2.325 -3.022)" fill="#006df0"/>
      <g id="Grupo_1207909" data-name="Grupo 1207909" transform="translate(2 2)">
        <path id="Trazado_1053421" data-name="Trazado 1053421" d="M52.375,10.838H35.583V6.419A4.419,4.419,0,0,0,31.165,2H6.419A4.419,4.419,0,0,0,2,6.419V50.608a4.419,4.419,0,0,0,4.419,4.419H31.165a4.419,4.419,0,0,0,4.419-4.419V47.956H52.375A2.659,2.659,0,0,0,55.026,45.3V13.489a2.659,2.659,0,0,0-2.651-2.651ZM33.816,50.608a2.659,2.659,0,0,1-2.651,2.651H6.419a2.659,2.659,0,0,1-2.651-2.651V6.419A2.659,2.659,0,0,1,6.419,3.768H31.165a2.659,2.659,0,0,1,2.651,2.651v4.419H32.048V8.186A2.659,2.659,0,0,0,29.4,5.535H24.828a2.687,2.687,0,0,0-1.874.769l-.734.734a.9.9,0,0,1-.627.265h-5.6a.892.892,0,0,1-.619-.256L14.62,6.3a2.68,2.68,0,0,0-1.865-.76H8.186A2.659,2.659,0,0,0,5.535,8.186V48.84a2.659,2.659,0,0,0,2.651,2.651H29.4a2.659,2.659,0,0,0,2.651-2.651v-.884h1.768ZM9.388,30.086l4.984,4.145V45.3a2.659,2.659,0,0,0,2.651,2.651H30.281v.884a.884.884,0,0,1-.884.884H8.186A.884.884,0,0,1,7.3,48.84V8.186A.884.884,0,0,1,8.186,7.3h4.569a.892.892,0,0,1,.619.256l.751.751a2.68,2.68,0,0,0,1.865.76h5.6A2.687,2.687,0,0,0,23.467,8.3l.734-.734a.9.9,0,0,1,.627-.265H29.4a.884.884,0,0,1,.884.884v2.651H17.024a2.659,2.659,0,0,0-2.651,2.651V24.563L9.388,28.725a.877.877,0,0,0-.318.681.891.891,0,0,0,.318.681ZM53.259,45.3a.884.884,0,0,1-.884.884H17.024a.884.884,0,0,1-.884-.884V33.816a.877.877,0,0,0-.318-.681l-4.49-3.73,4.49-3.747a.877.877,0,0,0,.318-.681V13.489a.884.884,0,0,1,.884-.884H52.375a.884.884,0,0,1,.884.884Z" transform="translate(-2 -2)" fill="#231f20"/>
        <path id="Trazado_1053422" data-name="Trazado 1053422" d="M52.816,28.047a3.093,3.093,0,0,0-3.093-3.093H43.978V21.419A4.419,4.419,0,0,0,39.559,17a2.659,2.659,0,0,0-2.651,2.651v1.768a6.186,6.186,0,0,1-5.3,6.116v-.813a.884.884,0,0,0-.884-.884H21.884a.884.884,0,0,0-.884.884V44.4a.884.884,0,0,0,.884.884h8.838a.884.884,0,0,0,.884-.884v-1l.389.256a4.383,4.383,0,0,0,2.448.742H47.955a3.083,3.083,0,0,0,2.51-4.887,3.1,3.1,0,0,0,1.467-2.625,3.065,3.065,0,0,0-.583-1.794,3.078,3.078,0,0,0,.53-4.834,3.093,3.093,0,0,0,.937-2.209ZM29.838,43.513h-7.07V27.605h7.07ZM47.513,31.14h2.209a1.326,1.326,0,1,1,0,2.651H47.513a.884.884,0,1,0,0,1.768h1.326a1.326,1.326,0,0,1,0,2.651H47.513a.884.884,0,0,0,0,1.768h.442a1.326,1.326,0,1,1,0,2.651H34.442a2.625,2.625,0,0,1-1.467-.442l-1.37-.919V29.32a7.961,7.961,0,0,0,7.07-7.9V19.651a.884.884,0,0,1,.884-.884,2.659,2.659,0,0,1,2.651,2.651v4.419a.884.884,0,0,0,.884.884h6.628a1.326,1.326,0,1,1,0,2.651H47.513a.884.884,0,1,0,0,1.768Z" transform="translate(-4.208 -3.743)" fill="#231f20"/>
        <path id="Trazado_1053423" data-name="Trazado 1053423" d="M26.884,42a.884.884,0,0,0-.884.884v.884a.884.884,0,1,0,1.768,0v-.884A.884.884,0,0,0,26.884,42Z" transform="translate(-4.789 -6.649)" fill="#231f20"/>
        <path id="Trazado_1053424" data-name="Trazado 1053424" d="M19.884,6.768h1.768a.884.884,0,0,0,0-1.768H19.884a.884.884,0,1,0,0,1.768Z" transform="translate(-3.976 -2.349)" fill="#231f20"/>
        <path id="Trazado_1053425" data-name="Trazado 1053425" d="M12.651,10H10.884a.884.884,0,0,0-.884.884v1.768a.884.884,0,1,0,1.768,0v-.884h.884a.884.884,0,0,0,0-1.768Z" transform="translate(-2.93 -2.93)" fill="#231f20"/>
        <path id="Trazado_1053426" data-name="Trazado 1053426" d="M10,52.653a.884.884,0,0,0,.884.884h1.768a.884.884,0,1,0,0-1.768h-.884V50.9A.884.884,0,1,0,10,50.9Z" transform="translate(-2.93 -7.581)" fill="#231f20"/>
      </g>
    </g>
  </g>
</svg>
