<svg xmlns="http://www.w3.org/2000/svg" xmlns:xlink="http://www.w3.org/1999/xlink" width="103" height="103" viewBox="0 0 103 103">
  <defs>
    <filter id="Trazado_982547" x="0" y="0" width="103" height="103" filterUnits="userSpaceOnUse">
      <feOffset dy="3" input="SourceAlpha"/>
      <feGaussianBlur stdDeviation="3" result="blur"/>
      <feFlood flood-opacity="0.161"/>
      <feComposite operator="in" in2="blur"/>
      <feComposite in="SourceGraphic"/>
    </filter>
  </defs>
  <g id="Grupo_1207789" data-name="Grupo 1207789" transform="translate(-611 -685.5)">
    <g id="Grupo_1207545" data-name="Grupo 1207545" transform="translate(0 -3242)">
      <g id="Grupo_1207296" data-name="Grupo 1207296" transform="translate(0 3183.5)">
        <g id="Grupo_1202210" data-name="Grupo 1202210" transform="translate(340 -126.414)">
          <g id="Grupo_1174813" data-name="Grupo 1174813" transform="translate(280 876.414)">
            <g id="Grupo_1201680" data-name="Grupo 1201680">
              <g id="Grupo_1201330" data-name="Grupo 1201330">
                <g id="Grupo_1172010" data-name="Grupo 1172010">
                  <g id="Grupo_1171046" data-name="Grupo 1171046">
                    <g id="Grupo_1148525" data-name="Grupo 1148525">
                      <g transform="matrix(1, 0, 0, 1, -9, -6)" filter="url(#Trazado_982547)">
                        <g id="Trazado_982547-2" data-name="Trazado 982547" transform="translate(9 6)" fill="#f2f7e5">
                          <path d="M 42.5 83.5 C 36.96437835693359 83.5 31.59512901306152 82.41617584228516 26.54141235351562 80.27863311767578 C 21.65934181213379 78.21369171142578 17.27447128295898 75.25723266601562 13.50862312316895 71.49137878417969 C 9.742764472961426 67.72553253173828 6.786305904388428 63.34066009521484 4.721364498138428 58.45858764648438 C 2.583823442459106 53.40486907958984 1.5 48.03562164306641 1.5 42.5 C 1.5 36.96437835693359 2.583823442459106 31.59512901306152 4.721364498138428 26.54141235351562 C 6.786305904388428 21.65934181213379 9.742764472961426 17.27448272705078 13.50862312316895 13.50862312316895 C 17.27447128295898 9.742776870727539 21.65934181213379 6.786305904388428 26.54141235351562 4.721364498138428 C 31.59512901306152 2.583823442459106 36.96437835693359 1.5 42.5 1.5 C 48.03562164306641 1.5 53.40486907958984 2.583823442459106 58.45858764648438 4.721364498138428 C 63.34066009521484 6.786305904388428 67.72553253173828 9.742776870727539 71.49137878417969 13.50862312316895 C 75.25723266601562 17.27448272705078 78.21369171142578 21.65934181213379 80.27863311767578 26.54141235351562 C 82.41617584228516 31.59512901306152 83.5 36.96437835693359 83.5 42.5 C 83.5 48.03562164306641 82.41617584228516 53.40486907958984 80.27863311767578 58.45858764648438 C 78.21369171142578 63.34066009521484 75.25723266601562 67.72553253173828 71.49137878417969 71.49137878417969 C 67.72553253173828 75.25723266601562 63.34066009521484 78.21369171142578 58.45858764648438 80.27863311767578 C 53.40486907958984 82.41617584228516 48.03562164306641 83.5 42.5 83.5 Z" stroke="none"/>
                          <path d="M 42.5 3 C 37.16621398925781 3 31.99356079101562 4.043960571289062 27.125732421875 6.102882385253906 C 22.42246627807617 8.092185974121094 18.19785308837891 10.94070434570312 14.56928253173828 14.56928253173828 C 10.94070434570312 18.19785308837891 8.092185974121094 22.42246627807617 6.102882385253906 27.125732421875 C 4.043960571289062 31.99356079101562 3 37.16621398925781 3 42.5 C 3 47.83378601074219 4.043960571289062 53.00643920898438 6.102882385253906 57.874267578125 C 8.092185974121094 62.57753372192383 10.94070434570312 66.80214691162109 14.56928253173828 70.43071746826172 C 18.19785308837891 74.05929565429688 22.42246627807617 76.90781402587891 27.125732421875 78.89711761474609 C 31.99356079101562 80.95603942871094 37.16621398925781 82 42.5 82 C 47.83378601074219 82 53.00643920898438 80.95603942871094 57.874267578125 78.89711761474609 C 62.57753372192383 76.90781402587891 66.80214691162109 74.05929565429688 70.43071746826172 70.43071746826172 C 74.05929565429688 66.80214691162109 76.90781402587891 62.57753372192383 78.89711761474609 57.874267578125 C 80.95603942871094 53.00643920898438 82 47.83378601074219 82 42.5 C 82 37.16621398925781 80.95603942871094 31.99356079101562 78.89711761474609 27.125732421875 C 76.90781402587891 22.42246627807617 74.05929565429688 18.19785308837891 70.43071746826172 14.56928253173828 C 66.80214691162109 10.94070434570312 62.57753372192383 8.092185974121094 57.874267578125 6.102882385253906 C 53.00643920898438 4.043960571289062 47.83378601074219 3 42.5 3 M 42.5 0 C 65.97210693359375 0 85 19.02789306640625 85 42.5 C 85 65.97210693359375 65.97210693359375 85 42.5 85 C 19.02789306640625 85 0 65.97210693359375 0 42.5 C 0 19.02789306640625 19.02789306640625 0 42.5 0 Z" stroke="none" fill="#1d7083"/>
                        </g>
                      </g>
                    </g>
                  </g>
                </g>
              </g>
            </g>
          </g>
        </g>
      </g>
    </g>
    <g id="job-description_3896637_1_" data-name="job-description_3896637 (1)" transform="translate(635.734 707.234)">
      <g id="Grupo_1207787" data-name="Grupo 1207787" transform="translate(0.863 0.863)">
        <g id="Grupo_1207763" data-name="Grupo 1207763" transform="translate(13.815 1.727)">
          <path id="Trazado_1053143" data-name="Trazado 1053143" d="M30.815,4.727V8.18H17V3.863A.866.866,0,0,1,17.863,3H29.951a.866.866,0,0,1,.863.863Z" transform="translate(-17 -3)" fill="#ffeaa7"/>
        </g>
        <g id="Grupo_1207764" data-name="Grupo 1207764" transform="translate(19.41 46.624)">
          <path id="Trazado_1053144" data-name="Trazado 1053144" d="M40.334,55v3.454H23.48A13.015,13.015,0,0,0,27.383,55Z" transform="translate(-23.48 -55)" fill="#aab2bd"/>
        </g>
        <g id="Grupo_1207765" data-name="Grupo 1207765" transform="translate(32.81 13.944)">
          <path id="Trazado_1053145" data-name="Trazado 1053145" d="M41.685,18.506a1.429,1.429,0,0,1,1.571-.285.03.03,0,0,1,.017.009,1.43,1.43,0,0,1,.907,1.3V29.9a.935.935,0,0,1-1.856.155l-.25-1.52A3.457,3.457,0,0,0,39,25.672V17.15l2.02,2.02Z" transform="translate(-39 -17.15)" fill="#b27946"/>
        </g>
        <g id="Grupo_1207766" data-name="Grupo 1207766" transform="translate(23.312 29.227)">
          <path id="Trazado_1053146" data-name="Trazado 1053146" d="M40.951,43.614v8.634H28a13.032,13.032,0,0,0,1.848-3.454H37.5V34.85c.173.734.311,1.476.423,2.228a12.084,12.084,0,0,0,2.305,5.569Z" transform="translate(-28 -34.85)" fill="#b27946"/>
        </g>
        <g id="Grupo_1207767" data-name="Grupo 1207767" transform="translate(27.629 3.454)">
          <path id="Trazado_1053147" data-name="Trazado 1053147" d="M38.422,5.958a1.429,1.429,0,0,1,.285,1.571.03.03,0,0,1-.009.017,1.43,1.43,0,0,1-1.3.907H33V5h5.051l-.294.294Z" transform="translate(-33 -5)" fill="#b27946"/>
        </g>
        <g id="Grupo_1207768" data-name="Grupo 1207768" transform="translate(3.454 3.454)">
          <path id="Trazado_1053148" data-name="Trazado 1053148" d="M5,31.593V5.863A.866.866,0,0,1,5.863,5h9.5V8.454H8.454V28.943A12.959,12.959,0,0,0,5.009,31.6Z" transform="translate(-5 -5)" fill="#b27946"/>
        </g>
        <g id="Grupo_1207769" data-name="Grupo 1207769" transform="translate(6.907 6.907)">
          <path id="Trazado_1053149" data-name="Trazado 1053149" d="M9,29.489V9H33.176v3.454h.941a1.43,1.43,0,0,1,1.3.907.03.03,0,0,1,.009.017,1.429,1.429,0,0,1-.285,1.571l-.665.665.423.423v8.522c-.1-.009-.216-.017-.328-.017a1.393,1.393,0,0,0-1.4,1.4v.052a1.44,1.44,0,0,0,.1.535l.509,1.278A24.8,24.8,0,0,1,34.9,31.319V45.263h-7.65A12.812,12.812,0,0,0,28,40.946,12.956,12.956,0,0,0,9,29.489Zm20.722.233V26.268H26.268v3.454Zm0-13.815V12.454H12.454v3.454H29.722Z" transform="translate(-9 -9)" fill="#e6e9ed"/>
        </g>
        <g id="Grupo_1207770" data-name="Grupo 1207770" transform="translate(24.176 24.176)">
          <path id="Trazado_1053150" data-name="Trazado 1053150" d="M29,29h3.454v3.454H29Z" transform="translate(-29 -29)" fill="#b4dd7f"/>
        </g>
        <g id="Grupo_1207771" data-name="Grupo 1207771" transform="translate(0 25.902)">
          <path id="Trazado_1053151" data-name="Trazado 1053151" d="M15.652,48.337a5.3,5.3,0,0,0-.838-.069,3.453,3.453,0,0,0,3.454-3.454H20a1.739,1.739,0,0,0,1.727-1.727,1.75,1.75,0,0,0-.691-1.381l.466-1.39a4.53,4.53,0,0,0,.224-1.407,4.455,4.455,0,0,0-4.455-4.455H10.636A4.451,4.451,0,0,0,6.18,38.909,4.53,4.53,0,0,0,6.4,40.316l.466,1.39a1.75,1.75,0,0,0-.691,1.381,1.739,1.739,0,0,0,1.727,1.727H9.634a3.453,3.453,0,0,0,3.454,3.454,5.3,5.3,0,0,0-.838.069,5.182,5.182,0,0,0-4.343,5.111v1.96a12.952,12.952,0,1,1,19-11.458,12.812,12.812,0,0,1-.743,4.317,12.925,12.925,0,0,1-5.75,6.907H20V53.449a5.182,5.182,0,0,0-4.343-5.111Z" transform="translate(-1 -31)" fill="#ffeaa7"/>
        </g>
        <g id="Grupo_1207772" data-name="Grupo 1207772" transform="translate(13.815 43.24)">
          <path id="Trazado_1053152" data-name="Trazado 1053152" d="M22.18,57.918v.233A12.864,12.864,0,0,1,18.658,59.4L17,54.465l.838-3.385a5.182,5.182,0,0,1,4.343,5.111Z" transform="translate(-17 -51.08)" fill="#b4dd7f"/>
        </g>
        <g id="Grupo_1207773" data-name="Grupo 1207773" transform="translate(6.907 43.24)">
          <path id="Trazado_1053153" data-name="Trazado 1053153" d="M13.343,51.08l.838,3.385L12.523,59.4A12.863,12.863,0,0,1,9,58.151v-1.96A5.182,5.182,0,0,1,13.343,51.08Z" transform="translate(-9 -51.08)" fill="#b4dd7f"/>
        </g>
        <g id="Grupo_1207774" data-name="Grupo 1207774" transform="translate(10.43 46.624)">
          <path id="Trazado_1053154" data-name="Trazado 1053154" d="M16.465,55l1.658,4.939a13.267,13.267,0,0,1-5.042,0L14.738,55Z" transform="translate(-13.08 -55)" fill="#ef7385"/>
        </g>
        <g id="Grupo_1207775" data-name="Grupo 1207775" transform="translate(11.25 43.171)">
          <path id="Trazado_1053155" data-name="Trazado 1053155" d="M16.594,51a5.3,5.3,0,0,1,.838.069l-.838,3.385H14.868l-.838-3.385A5.3,5.3,0,0,1,14.868,51Z" transform="translate(-14.03 -51)" fill="#ef7385"/>
        </g>
        <g id="Grupo_1207776" data-name="Grupo 1207776" transform="translate(17.268 36.263)">
          <path id="Trazado_1053156" data-name="Trazado 1053156" d="M23.763,43.345a1.75,1.75,0,0,1,.691,1.381,1.739,1.739,0,0,1-1.727,1.727H21V43h1.727A1.737,1.737,0,0,1,23.763,43.345Z" transform="translate(-21 -43)" fill="#f5e0cd"/>
        </g>
        <g id="Grupo_1207777" data-name="Grupo 1207777" transform="translate(5.18 36.263)">
          <path id="Trazado_1053157" data-name="Trazado 1053157" d="M10.454,43v3.454H8.727A1.739,1.739,0,0,1,7,44.727,1.727,1.727,0,0,1,8.727,43Z" transform="translate(-7 -43)" fill="#f5e0cd"/>
        </g>
        <g id="Grupo_1207778" data-name="Grupo 1207778" transform="translate(8.634 34.537)">
          <path id="Trazado_1053158" data-name="Trazado 1053158" d="M19.634,42.727V46.18a3.453,3.453,0,0,1-3.454,3.454H14.454A3.453,3.453,0,0,1,11,46.18V42.727A1.732,1.732,0,0,1,12.727,41h5.18A1.732,1.732,0,0,1,19.634,42.727Z" transform="translate(-11 -41)" fill="#f5e0cd"/>
        </g>
        <g id="Grupo_1207779" data-name="Grupo 1207779" transform="translate(5.18 29.356)">
          <path id="Trazado_1053159" data-name="Trazado 1053159" d="M11.455,35h6.631a4.455,4.455,0,0,1,4.455,4.455,4.53,4.53,0,0,1-.224,1.407l-.466,1.39a1.737,1.737,0,0,0-1.036-.345H19.088a1.732,1.732,0,0,0-1.727-1.727H12.18a1.732,1.732,0,0,0-1.727,1.727H8.727a1.737,1.737,0,0,0-1.036.345l-.466-1.39A4.53,4.53,0,0,1,7,39.455,4.451,4.451,0,0,1,11.455,35Z" transform="translate(-7 -35)" fill="#b27946"/>
        </g>
        <g id="Grupo_1207780" data-name="Grupo 1207780" transform="translate(17.268 10.361)">
          <path id="Trazado_1053160" data-name="Trazado 1053160" d="M21,13h3.454v3.454H21Z" transform="translate(-21 -13)" fill="#ef7385"/>
        </g>
        <g id="Grupo_1207781" data-name="Grupo 1207781" transform="translate(24.176 10.361)">
          <path id="Trazado_1053161" data-name="Trazado 1053161" d="M29,13h3.454v3.454H29Z" transform="translate(-29 -13)" fill="#ef7385"/>
        </g>
        <g id="Grupo_1207782" data-name="Grupo 1207782" transform="translate(13.815 10.361)">
          <path id="Trazado_1053162" data-name="Trazado 1053162" d="M17,13h3.454v3.454H17Z" transform="translate(-17 -13)" fill="#ef7385"/>
        </g>
        <g id="Grupo_1207783" data-name="Grupo 1207783" transform="translate(20.722 10.361)">
          <path id="Trazado_1053163" data-name="Trazado 1053163" d="M25,13h3.454v3.454H25Z" transform="translate(-25 -13)" fill="#ef7385"/>
        </g>
        <g id="Grupo_1207784" data-name="Grupo 1207784" transform="translate(10.361 10.361)">
          <path id="Trazado_1053164" data-name="Trazado 1053164" d="M13,13h3.454v3.454H13Z" transform="translate(-13 -13)" fill="#ef7385"/>
        </g>
        <g id="Grupo_1207785" data-name="Grupo 1207785" transform="translate(31.083)">
          <path id="Trazado_1053165" data-name="Trazado 1053165" d="M42.983,16.015a1.429,1.429,0,0,0-1.571.285l-.665.665-2.02-2.02-.423-.423.665-.665a1.429,1.429,0,0,0,.285-1.571.03.03,0,0,0-.009-.017,1.43,1.43,0,0,0-1.3-.907H37V7.907h.941A1.43,1.43,0,0,0,39.245,7a.03.03,0,0,0,.009-.017,1.429,1.429,0,0,0-.285-1.571L38.3,4.747l.294-.294,2.15-2.15.665.665a1.429,1.429,0,0,0,1.571.285A.03.03,0,0,0,43,3.245a1.43,1.43,0,0,0,.907-1.3V1h3.454v.941a1.43,1.43,0,0,0,.907,1.3.03.03,0,0,0,.017.009,1.429,1.429,0,0,0,1.571-.285l.665-.665,2.443,2.443-.665.665a1.429,1.429,0,0,0-.285,1.571A.03.03,0,0,0,52.023,7a1.43,1.43,0,0,0,1.3.907h.941v3.454h-.941a1.43,1.43,0,0,0-1.3.907.03.03,0,0,0-.009.017,1.429,1.429,0,0,0,.285,1.571l.665.665-2.443,2.443-.665-.665a1.429,1.429,0,0,0-1.571-.285.03.03,0,0,0-.017.009,1.43,1.43,0,0,0-.907,1.3V14.815a1.739,1.739,0,0,0-1.727-1.727A3.454,3.454,0,1,0,42.18,9.634a3.453,3.453,0,0,0,3.454,3.454,1.732,1.732,0,0,0-1.727,1.727v2.513a1.43,1.43,0,0,0-.907-1.3.03.03,0,0,0-.017-.009Z" transform="translate(-37 -1)" fill="#fcd770"/>
        </g>
        <g id="Grupo_1207786" data-name="Grupo 1207786" transform="translate(31.083 12.088)">
          <path id="Trazado_1053166" data-name="Trazado 1053166" d="M54.268,27.088A1.732,1.732,0,0,1,56,25.361a1.739,1.739,0,0,1,1.727,1.727V35.2A10.312,10.312,0,0,1,56,40.9H42.18l-.725-.967a12.084,12.084,0,0,1-2.305-5.569c-.112-.751-.25-1.494-.423-2.228a24.8,24.8,0,0,0-1.114-3.514L37.1,27.347a1.44,1.44,0,0,1-.1-.535V26.76a1.393,1.393,0,0,1,1.4-1.4c.112,0,.224.009.328.017A3.457,3.457,0,0,1,41.8,28.245l.25,1.52a.935.935,0,0,0,1.856-.155V16.727A1.732,1.732,0,0,1,45.634,15a1.739,1.739,0,0,1,1.727,1.727v6.907a1.732,1.732,0,0,1,1.727-1.727,1.739,1.739,0,0,1,1.727,1.727v1.727a1.732,1.732,0,0,1,1.727-1.727,1.739,1.739,0,0,1,1.727,1.727Z" transform="translate(-37 -15)" fill="#f5e0cd"/>
        </g>
      </g>
      <g id="Grupo_1207788" data-name="Grupo 1207788" transform="translate(0 0)">
        <path id="Trazado_1053167" data-name="Trazado 1053167" d="M53.532,25.039a2.582,2.582,0,0,0-3.554-2.4,2.568,2.568,0,0,0-3.454-1.727,2.547,2.547,0,0,0-3.354-1.758V17.191a.57.57,0,0,1,.391-.516.562.562,0,0,1,.628.095l1.278,1.278,3.664-3.664-1.279-1.278a.576.576,0,0,1-.086-.648.566.566,0,0,1,.508-.371h1.8V6.907h-1.8a.577.577,0,0,1-.516-.391.565.565,0,0,1,.095-.627l1.279-1.279L45.467.945,44.19,2.224a.575.575,0,0,1-.648.087.561.561,0,0,1-.371-.509V0H37.99V1.8a.57.57,0,0,1-.391.516.566.566,0,0,1-.628-.094L35.694.946,33.185,3.454H29.356a1.729,1.729,0,0,0-1.727-1.727H15.541a1.729,1.729,0,0,0-1.727,1.727H5.18A1.729,1.729,0,0,0,3.454,5.18v25.43A13.8,13.8,0,1,0,24.581,48.351H36.263v1.727H27.629V51.8h8.634v1.727H51.8V39.1a11.1,11.1,0,0,0,1.727-5.946Zm-22.284.579.512,1.28a24.006,24.006,0,0,1,1.05,3.336V43.171H27.174A13.789,13.789,0,0,0,8.634,26.92V8.634H31.083v3.454h1.8a.577.577,0,0,1,.516.391.566.566,0,0,1-.094.627L32.03,14.384l.78.781V22.52a2.282,2.282,0,0,0-1.727,2.241,2.309,2.309,0,0,0,.165.858Zm3.289-8.727,1.157,1.157,1.278-1.278a.576.576,0,0,1,.648-.087.559.559,0,0,1,.371.508V27.558c0,.073-.129.086-.142.011l-.254-1.519a4.282,4.282,0,0,0-3.058-3.419ZM37.99,9.5a2.59,2.59,0,1,1,2.59,2.59A2.593,2.593,0,0,1,37.99,9.5Zm-3.461-4.83-.058-.057,1.223-1.223.057.058a2.3,2.3,0,0,0,2.528.46,2.283,2.283,0,0,0,1.438-2.1V1.727h1.727V1.8A2.291,2.291,0,0,0,42.9,3.913a2.292,2.292,0,0,0,2.513-.468l.057-.057L46.69,4.611l-.058.058a2.294,2.294,0,0,0-.46,2.527,2.284,2.284,0,0,0,2.1,1.438h.077v1.727h-.077a2.351,2.351,0,0,0-1.642,3.967l.058.057-1.223,1.223-.057-.058a2.273,2.273,0,0,0-2.24-.558v-.313a2.574,2.574,0,0,0-.449-1.455,4.317,4.317,0,1,0-4.283,0,2.574,2.574,0,0,0-.449,1.455v.313a2.272,2.272,0,0,0-2.24.559l-.057.057-1.223-1.223.058-.058a2.35,2.35,0,0,0-1.642-3.966H32.81V8.634h.077A2.289,2.289,0,0,0,35,7.179a2.289,2.289,0,0,0-.467-2.512ZM32.6,5.18l.709.708a.576.576,0,0,1,.086.648.566.566,0,0,1-.508.371H29.356V5.18Zm-4.97-1.727V6.907H15.541V3.454ZM13.815,5.18V6.907H6.907V27.772A13.9,13.9,0,0,0,5.18,28.95V5.18Zm-3.454,35.4V37.127a.864.864,0,0,1,.863-.863H16.4a.864.864,0,0,1,.863.863v3.454a2.593,2.593,0,0,1-2.59,2.59H12.951A2.593,2.593,0,0,1,10.361,40.581Zm-1.727-.863H7.771a.863.863,0,0,1,0-1.727h.863Zm.159-3.454H7.771a2.568,2.568,0,0,0-.512.052l-.167-.5A3.594,3.594,0,0,1,10.5,31.083h6.628a3.595,3.595,0,0,1,3.41,4.73l-.168.5a2.633,2.633,0,0,0-.512-.051H18.836A2.587,2.587,0,0,0,16.4,34.537h-2.59a1.729,1.729,0,0,1-1.727-1.727H10.361a3.42,3.42,0,0,0,.5,1.763A2.585,2.585,0,0,0,8.793,36.263ZM19,37.99h.863a.863.863,0,0,1,0,1.727H19Zm0,12.632a12.031,12.031,0,0,1-2.1.769l-1.323-3.94.566-2.28A4.31,4.31,0,0,1,19,49.215Zm-5.369-4L13.2,44.9h1.234L14,46.624Zm-1.574.827-1.323,3.94a11.961,11.961,0,0,1-2.1-.769V49.215a4.31,4.31,0,0,1,2.852-4.043Zm.389,4.27,1.131-3.37h.484l1.131,3.37a11.3,11.3,0,0,1-2.747,0Zm8.281-2.1v-.408a6.046,6.046,0,0,0-3.263-5.36,4.306,4.306,0,0,0,1.449-2.411h.951a2.593,2.593,0,0,0,2.59-2.59,2.564,2.564,0,0,0-.571-1.6l.3-.894a5.32,5.32,0,0,0-5.048-7H10.5a5.321,5.321,0,0,0-5.048,7l.3.892a2.576,2.576,0,0,0,2.02,4.193h.951a4.3,4.3,0,0,0,1.449,2.411,6.046,6.046,0,0,0-3.263,5.36v.408a12.088,12.088,0,1,1,13.815,0Zm5.038-3a13.819,13.819,0,0,0,.852-1.727h7.924V36.51a13.088,13.088,0,0,0,1.177,1.9l.55.733v7.483ZM50.078,51.8H37.99V39.717H50.078ZM51.8,33.151A9.382,9.382,0,0,1,50.46,37.99h-12.9l-.464-.618A11.3,11.3,0,0,1,34.952,32.2a25.9,25.9,0,0,0-1.588-5.939l-.512-1.28a.68.68,0,0,1-.042-.269.534.534,0,0,1,.534-.534,2.574,2.574,0,0,1,2.548,2.159l.254,1.518a1.8,1.8,0,0,0,3.572-.3V14.678a.863.863,0,0,1,1.727,0V27.629h1.727V21.585a.863.863,0,0,1,1.727,0v6.044h1.727V23.312a.863.863,0,0,1,1.727,0v4.317h1.727v-2.59a.863.863,0,0,1,1.727,0Z" transform="translate(0 0)"/>
        <path id="Trazado_1053168" data-name="Trazado 1053168" d="M12,17.18H31V12H12Zm10.361-1.727H20.634V13.727h1.727Zm1.727-1.727h1.727v1.727H24.088Zm-5.18,1.727H17.18V13.727h1.727Zm10.361,0H27.541V13.727h1.727ZM13.727,13.727h1.727v1.727H13.727Z" transform="translate(-1.639 -1.639)"/>
        <path id="Trazado_1053169" data-name="Trazado 1053169" d="M12,20h3.454v1.727H12Z" transform="translate(-1.639 -2.732)"/>
        <path id="Trazado_1053170" data-name="Trazado 1053170" d="M18,20H31.815v1.727H18Z" transform="translate(-2.459 -2.732)"/>
        <path id="Trazado_1053171" data-name="Trazado 1053171" d="M12,24H25.815v1.727H12Z" transform="translate(-1.639 -3.278)"/>
        <path id="Trazado_1053172" data-name="Trazado 1053172" d="M28,33.18h5.18V28H28Zm1.727-3.454h1.727v1.727H29.727Z" transform="translate(-3.824 -3.824)"/>
      </g>
    </g>
  </g>
</svg>
