<svg xmlns="http://www.w3.org/2000/svg" xmlns:xlink="http://www.w3.org/1999/xlink" width="103" height="103" viewBox="0 0 103 103">
  <defs>
    <filter id="Trazado_982547" x="0" y="0" width="103" height="103" filterUnits="userSpaceOnUse">
      <feOffset dy="3" input="SourceAlpha"/>
      <feGaussianBlur stdDeviation="3" result="blur"/>
      <feFlood flood-opacity="0.161"/>
      <feComposite operator="in" in2="blur"/>
      <feComposite in="SourceGraphic"/>
    </filter>
  </defs>
  <g id="Grupo_1207793" data-name="Grupo 1207793" transform="translate(-1031 -685.5)">
    <g id="Grupo_1207546" data-name="Grupo 1207546" transform="translate(0 -3242)">
      <g id="Grupo_1207297" data-name="Grupo 1207297" transform="translate(0 3183.5)">
        <g id="Grupo_1202211" data-name="Grupo 1202211" transform="translate(760 -126.414)">
          <g id="Grupo_1174813" data-name="Grupo 1174813" transform="translate(280 876.414)">
            <g id="Grupo_1201680" data-name="Grupo 1201680">
              <g id="Grupo_1201330" data-name="Grupo 1201330">
                <g id="Grupo_1172010" data-name="Grupo 1172010">
                  <g id="Grupo_1171046" data-name="Grupo 1171046">
                    <g id="Grupo_1148525" data-name="Grupo 1148525">
                      <g transform="matrix(1, 0, 0, 1, -9, -6)" filter="url(#Trazado_982547)">
                        <g id="Trazado_982547-2" data-name="Trazado 982547" transform="translate(9 6)" fill="#f2f7e5">
                          <path d="M 42.5 83.5 C 36.96437835693359 83.5 31.59512901306152 82.41617584228516 26.54141235351562 80.27863311767578 C 21.65934181213379 78.21369171142578 17.27447128295898 75.25723266601562 13.50862312316895 71.49137878417969 C 9.742764472961426 67.72553253173828 6.786305904388428 63.34066009521484 4.721364498138428 58.45858764648438 C 2.583823442459106 53.40486907958984 1.5 48.03562164306641 1.5 42.5 C 1.5 36.96437835693359 2.583823442459106 31.59512901306152 4.721364498138428 26.54141235351562 C 6.786305904388428 21.65934181213379 9.742764472961426 17.27448272705078 13.50862312316895 13.50862312316895 C 17.27447128295898 9.742776870727539 21.65934181213379 6.786305904388428 26.54141235351562 4.721364498138428 C 31.59512901306152 2.583823442459106 36.96437835693359 1.5 42.5 1.5 C 48.03562164306641 1.5 53.40486907958984 2.583823442459106 58.45858764648438 4.721364498138428 C 63.34066009521484 6.786305904388428 67.72553253173828 9.742776870727539 71.49137878417969 13.50862312316895 C 75.25723266601562 17.27448272705078 78.21369171142578 21.65934181213379 80.27863311767578 26.54141235351562 C 82.41617584228516 31.59512901306152 83.5 36.96437835693359 83.5 42.5 C 83.5 48.03562164306641 82.41617584228516 53.40486907958984 80.27863311767578 58.45858764648438 C 78.21369171142578 63.34066009521484 75.25723266601562 67.72553253173828 71.49137878417969 71.49137878417969 C 67.72553253173828 75.25723266601562 63.34066009521484 78.21369171142578 58.45858764648438 80.27863311767578 C 53.40486907958984 82.41617584228516 48.03562164306641 83.5 42.5 83.5 Z" stroke="none"/>
                          <path d="M 42.5 3 C 37.16621398925781 3 31.99356079101562 4.043960571289062 27.125732421875 6.102882385253906 C 22.42246627807617 8.092185974121094 18.19785308837891 10.94070434570312 14.56928253173828 14.56928253173828 C 10.94070434570312 18.19785308837891 8.092185974121094 22.42246627807617 6.102882385253906 27.125732421875 C 4.043960571289062 31.99356079101562 3 37.16621398925781 3 42.5 C 3 47.83378601074219 4.043960571289062 53.00643920898438 6.102882385253906 57.874267578125 C 8.092185974121094 62.57753372192383 10.94070434570312 66.80214691162109 14.56928253173828 70.43071746826172 C 18.19785308837891 74.05929565429688 22.42246627807617 76.90781402587891 27.125732421875 78.89711761474609 C 31.99356079101562 80.95603942871094 37.16621398925781 82 42.5 82 C 47.83378601074219 82 53.00643920898438 80.95603942871094 57.874267578125 78.89711761474609 C 62.57753372192383 76.90781402587891 66.80214691162109 74.05929565429688 70.43071746826172 70.43071746826172 C 74.05929565429688 66.80214691162109 76.90781402587891 62.57753372192383 78.89711761474609 57.874267578125 C 80.95603942871094 53.00643920898438 82 47.83378601074219 82 42.5 C 82 37.16621398925781 80.95603942871094 31.99356079101562 78.89711761474609 27.125732421875 C 76.90781402587891 22.42246627807617 74.05929565429688 18.19785308837891 70.43071746826172 14.56928253173828 C 66.80214691162109 10.94070434570312 62.57753372192383 8.092185974121094 57.874267578125 6.102882385253906 C 53.00643920898438 4.043960571289062 47.83378601074219 3 42.5 3 M 42.5 0 C 65.97210693359375 0 85 19.02789306640625 85 42.5 C 85 65.97210693359375 65.97210693359375 85 42.5 85 C 19.02789306640625 85 0 65.97210693359375 0 42.5 C 0 19.02789306640625 19.02789306640625 0 42.5 0 Z" stroke="none" fill="#1d7083"/>
                        </g>
                      </g>
                    </g>
                  </g>
                </g>
              </g>
            </g>
          </g>
        </g>
      </g>
    </g>
    <g id="adapt_11803224" transform="translate(1053.151 693.915)">
      <g id="Grupo_1207792" data-name="Grupo 1207792" transform="translate(1.839 13.919)">
        <g id="Grupo_1207790" data-name="Grupo 1207790" transform="translate(0 0)">
          <path id="Trazado_1053173" data-name="Trazado 1053173" d="M257.578,402.663a1.473,1.473,0,0,1,0-2.945h21.008l-1.323-1.317a1.474,1.474,0,1,1,2.079-2.091l3.827,3.81a1.474,1.474,0,0,1,.011,2.079l-3.81,3.86a1.474,1.474,0,0,1-2.1-2.067l1.311-1.329Z" transform="translate(-228.584 -354.167)" fill="#9ae7fd" fill-rule="evenodd"/>
          <path id="Trazado_1053174" data-name="Trazado 1053174" d="M12.251,69.089a1.478,1.478,0,0,1,0-2.957H35.024a21.267,21.267,0,1,0-19.448-12.6l.766-2.484a1.474,1.474,0,1,1,2.818.866l-1.833,5.943a1.474,1.474,0,0,1-1.842.976L9.541,57a1.474,1.474,0,0,1,.866-2.818l2.584.8A24.252,24.252,0,1,1,35.024,69.089Z" transform="translate(-8.5 -20.588)" fill="#c9f0ff" fill-rule="evenodd"/>
        </g>
        <g id="Grupo_1207791" data-name="Grupo 1207791" transform="translate(12.447 10.174)">
          <path id="Trazado_1053175" data-name="Trazado 1053175" d="M132.9,112.122h3.327a.864.864,0,0,1,.862.862v1.57a2.3,2.3,0,0,0,3.923,1.625l1.11-1.11a.864.864,0,0,1,1.219,0l2.353,2.353a.864.864,0,0,1,0,1.219l-1.11,1.11a2.3,2.3,0,0,0,1.625,3.923h1.57a.864.864,0,0,1,.862.862v3.327a.864.864,0,0,1-.862.862H146.2a2.3,2.3,0,0,0-1.625,3.923l1.11,1.11a.864.864,0,0,1,0,1.219l-2.353,2.353a.864.864,0,0,1-1.219,0l-1.11-1.11a2.3,2.3,0,0,0-3.923,1.625v1.57a.864.864,0,0,1-.862.862H132.9a.864.864,0,0,1-.862-.862v-1.57a2.3,2.3,0,0,0-3.923-1.625l-1.11,1.11a.864.864,0,0,1-1.219,0l-2.353-2.353a.865.865,0,0,1,0-1.219l1.11-1.11a2.3,2.3,0,0,0-1.625-3.923h-1.57a.864.864,0,0,1-.862-.862v-3.327a.864.864,0,0,1,.862-.862h1.57a2.3,2.3,0,0,0,1.625-3.923l-1.11-1.11a.864.864,0,0,1,0-1.219l2.353-2.353a.864.864,0,0,1,1.219,0l1.11,1.11a2.3,2.3,0,0,0,3.923-1.625v-1.57A.865.865,0,0,1,132.9,112.122Z" transform="translate(-120.482 -112.122)" fill="#ffd54f" fill-rule="evenodd"/>
          <ellipse id="Elipse_13464" data-name="Elipse 13464" cx="6.477" cy="6.477" rx="6.477" ry="6.477" transform="matrix(1, -0.022, 0.022, 1, 7.471, 7.741)" fill="#ffb700"/>
        </g>
      </g>
      <path id="Trazado_1053176" data-name="Trazado 1053176" d="M25.815,36.6a2.406,2.406,0,0,1,1.716-2.3v-.33a.834.834,0,0,1,1.668,0v.379a2.407,2.407,0,0,1,1.57,2.254.834.834,0,1,1-1.667,0,.738.738,0,0,0-.736-.737h-.147a.737.737,0,0,0,0,1.473h.293a2.4,2.4,0,0,1,.687,4.707v.329a.834.834,0,0,1-1.668,0v-.378a2.408,2.408,0,0,1-1.57-2.255.834.834,0,1,1,1.667,0,.737.737,0,0,0,.737.736h.146a.736.736,0,0,0,0-1.473h-.293A2.406,2.406,0,0,1,25.815,36.6Zm2.55-4.074a5.643,5.643,0,1,0,5.644,5.643,5.65,5.65,0,0,0-5.644-5.643Zm0,12.953a7.31,7.31,0,1,0-7.311-7.31,7.319,7.319,0,0,0,7.311,7.31ZM18.934,31.131a3.132,3.132,0,0,1-2.214,5.346h-1.57a.031.031,0,0,0-.028.028v3.328a.031.031,0,0,0,.028.028h1.57a3.132,3.132,0,0,1,2.214,5.346l-1.11,1.11a.03.03,0,0,0,0,.04l2.353,2.352a.024.024,0,0,0,.02.008.025.025,0,0,0,.02-.008l1.11-1.109a3.09,3.09,0,0,1,2.195-.926,3.182,3.182,0,0,1,1.218.246,3.084,3.084,0,0,1,1.934,2.893v1.57a.031.031,0,0,0,.028.029h3.327a.031.031,0,0,0,.028-.029v-1.57A3.131,3.131,0,0,1,35.4,47.6l1.11,1.109a.024.024,0,0,0,.02.008.028.028,0,0,0,.02-.008L38.9,46.357a.03.03,0,0,0,0-.04L37.8,45.207a3.132,3.132,0,0,1,2.214-5.346h1.57a.031.031,0,0,0,.029-.028V36.506a.031.031,0,0,0-.029-.028h-1.57A3.132,3.132,0,0,1,37.8,31.131l1.109-1.11a.03.03,0,0,0,0-.04l-2.352-2.352a.028.028,0,0,0-.02-.008.024.024,0,0,0-.02.008L35.4,28.74a3.132,3.132,0,0,1-5.346-2.215v-1.57a.032.032,0,0,0-.028-.029H26.7a.032.032,0,0,0-.028.029v1.57a3.133,3.133,0,0,1-5.347,2.215l-1.11-1.111a.025.025,0,0,0-.02-.008.024.024,0,0,0-.02.008l-2.353,2.352a.03.03,0,0,0,0,.04ZM16.719,34.81h-1.57a1.7,1.7,0,0,0-1.7,1.7v3.328a1.7,1.7,0,0,0,1.7,1.695h1.57a1.465,1.465,0,0,1,1.035,2.5l-1.11,1.109a1.7,1.7,0,0,0,0,2.4L19,49.889a1.7,1.7,0,0,0,2.4,0l1.11-1.111a1.465,1.465,0,0,1,2.5,1.036v1.57a1.7,1.7,0,0,0,1.7,1.7h3.327a1.7,1.7,0,0,0,1.7-1.7v-1.57a1.465,1.465,0,0,1,2.5-1.036l1.109,1.111a1.7,1.7,0,0,0,2.4,0l2.353-2.353a1.7,1.7,0,0,0,0-2.4l-1.11-1.109a1.466,1.466,0,0,1,1.036-2.5h1.57a1.7,1.7,0,0,0,1.7-1.695V36.506a1.7,1.7,0,0,0-1.7-1.7h-1.57a1.464,1.464,0,0,1-1.036-2.5l1.11-1.11a1.7,1.7,0,0,0,0-2.4L37.731,26.45a1.7,1.7,0,0,0-2.4,0l-1.109,1.11a1.465,1.465,0,0,1-2.5-1.036v-1.57a1.7,1.7,0,0,0-1.7-1.7H26.7a1.7,1.7,0,0,0-1.7,1.7v1.57a1.465,1.465,0,0,1-2.5,1.036l-1.11-1.11a1.7,1.7,0,0,0-2.4,0L16.645,28.8a1.7,1.7,0,0,0,0,2.4l1.11,1.11a1.464,1.464,0,0,1-1.035,2.5ZM55.844,61.364l-3.811,3.861a.64.64,0,0,1-.451.192h-.005a.637.637,0,0,1-.449-.185.64.64,0,0,1-.008-.9L52.431,63a.834.834,0,0,0-.593-1.42H37.409A24.7,24.7,0,0,0,40.193,60.3h11.65a.833.833,0,0,0,.588-1.424l-1.323-1.318a.64.64,0,1,1,.9-.908l3.827,3.811a.641.641,0,0,1,.006.9Zm-50.252.222H28.365A23.417,23.417,0,1,0,4.947,38.169a23.188,23.188,0,0,0,2.143,9.79.834.834,0,0,1-1,1.146l-2.584-.8a.641.641,0,0,0-.753.913.632.632,0,0,0,.377.312l5.944,1.833a.64.64,0,0,0,.8-.424L11.7,45a.64.64,0,0,0-.424-.8.631.631,0,0,0-.488.046.638.638,0,0,0-.312.378l-.767,2.485a.833.833,0,0,1-1.558.094A22.133,22.133,0,1,1,28.365,60.3H5.592a.645.645,0,1,0,0,1.289ZM57.013,59.28l-3.827-3.809a2.308,2.308,0,0,0-3.357,3.165H42.876A25.37,25.37,0,0,0,46.1,55.907,25.084,25.084,0,1,0,10.627,20.432,25.107,25.107,0,0,0,4.876,46.987l-.882-.273a2.308,2.308,0,1,0-1.357,4.412L8.58,52.96a2.311,2.311,0,0,0,2.884-1.527L13.3,45.489a2.308,2.308,0,0,0-4.412-1.357l-.051.167a20.466,20.466,0,1,1,19.53,14.33H5.592a2.312,2.312,0,0,0,0,4.624l44.256-.005a2.309,2.309,0,0,0,1.728,3.837h.02A2.292,2.292,0,0,0,53.22,66.4l3.811-3.861a2.313,2.313,0,0,0-.018-3.255Z" fill-rule="evenodd"/>
    </g>
  </g>
</svg>
