<svg xmlns="http://www.w3.org/2000/svg" width="36.132" height="31.314" viewBox="0 0 36.132 31.314">
  <g id="scooter_2289781" transform="translate(-16 -48)">
    <path id="Trazado_1052533" data-name="Trazado 1052533" d="M48.519,69.832v-.755a2.409,2.409,0,0,0,0-4.818.6.6,0,0,0-.038-.211l-1.5-4h.034a2.11,2.11,0,0,0,2.108-2.108V56.882a2.864,2.864,0,0,0-2.86-2.86h-.9a2.865,2.865,0,0,0-2.825,2.409h-1.24a.6.6,0,0,0-.426.176L39.06,58.414l.852.852,1.63-1.63H42.5v1.807a.6.6,0,0,0,.6.6v3.5l-2.366,5.914a.6.6,0,0,0-.043.224v1.2H32.862v-1l3.493-4.657a.6.6,0,0,0,.12-.361v-1.2h.6a.6.6,0,0,0,.6-.6v-.9a2.11,2.11,0,0,0-2.108-2.108H30.453V51.613h1.2v-1.2h-1.2v-.3A2.11,2.11,0,0,0,28.345,48H18.108A2.11,2.11,0,0,0,16,50.108v9.033a2.11,2.11,0,0,0,2.108,2.108h4.516v1.5l-3.276,2.383-.05.037-.02.015-.03.023-.021.016-.029.022-.022.017-.027.021-.023.018-.025.02-.024.019-.025.02-.023.019L19,65.4l-.025.02-.023.019-.026.021-.021.018-.028.024-.018.015-.03.026-.016.014-.033.028-.01.009-.038.033-.005,0a8.156,8.156,0,0,0-1.946,2.59.591.591,0,0,0-.023.057A8.123,8.123,0,0,0,16,71.706v4h1.2V74.5h1.807a4.818,4.818,0,1,0,9.635,0h3.613v-1.2H28.494a4.818,4.818,0,0,0-9.33,0H17.2V71.706a6.914,6.914,0,0,1,.521-2.629h2.189a2.11,2.11,0,0,0,2.108-2.108V64.675l1.4-1.018H35.27v1l-3.493,4.657a.6.6,0,0,0-.12.361v1.807a.6.6,0,0,0,.6.6h9.033a.6.6,0,0,0,.6-.6V69.8l2.366-5.914a.6.6,0,0,0,.043-.224V60.044h1.389l1.622,4.325v5.311a4.826,4.826,0,0,0-4.665,3.613H33.464v1.2H42.5a4.818,4.818,0,1,0,6.022-4.665ZM23.829,78.11A3.617,3.617,0,0,1,20.215,74.5h1.807a1.807,1.807,0,0,0,3.613,0h1.807A3.617,3.617,0,0,1,23.829,78.11Zm0-5.42a1.8,1.8,0,0,0-1.345.6H20.431a3.614,3.614,0,0,1,6.8,0H25.174A1.8,1.8,0,0,0,23.829,72.69Zm.6,1.807a.6.6,0,1,1-.6-.6A.6.6,0,0,1,24.431,74.5ZM17.2,50.108a.9.9,0,0,1,.9-.9H28.345a.9.9,0,0,1,.9.9v.3H17.2Zm0,9.033V51.613H29.248v8.431H18.108A.9.9,0,0,1,17.2,59.141Zm3.613,6.411v1.418a.9.9,0,0,1-.9.9h-1.55a6.922,6.922,0,0,1,1.246-1.414l0,0,.031-.027.008-.007.034-.029,0,0,.036-.03.011-.009.026-.021.012-.01L19.8,66.3l.008-.007.035-.027.012-.009.025-.02.013-.01.031-.023.007-.005.035-.027.012-.009.027-.02.012-.009.037-.027Zm3.011-3.1v-1.2H35.571a.9.9,0,0,1,.9.9v.3ZM43.7,58.84v-1.2h1.2v-1.2H43.764a1.659,1.659,0,0,1,1.593-1.2h.9a1.658,1.658,0,0,1,1.656,1.656v1.054a.9.9,0,0,1-.9.9Zm6.022,7.829a1.206,1.206,0,0,1-1.2,1.2V65.464A1.206,1.206,0,0,1,49.723,66.668ZM47.314,72.69a1.8,1.8,0,0,0-1.345.6H43.916a3.614,3.614,0,0,1,6.8,0H48.66A1.8,1.8,0,0,0,47.314,72.69Zm.6,1.807a.6.6,0,1,1-.6-.6A.6.6,0,0,1,47.916,74.5Zm-.6,3.613A3.617,3.617,0,0,1,43.7,74.5h1.807a1.807,1.807,0,0,0,3.613,0h1.807A3.617,3.617,0,0,1,47.314,78.11Z" transform="translate(0 0)" fill="#1d7083"/>
    <path id="Trazado_1052534" data-name="Trazado 1052534" d="M200,272h2.409v1.2H200Z" transform="translate(-170.149 -207.138)" fill="#1d7083"/>
    <path id="Trazado_1052535" data-name="Trazado 1052535" d="M112,304h7.226v1.2H112Z" transform="translate(-88.774 -236.73)" fill="#1d7083"/>
    <path id="Trazado_1052536" data-name="Trazado 1052536" d="M48.6,115.613h8.431a.6.6,0,0,0,.6-.6V112.6a.6.6,0,0,0-.6-.6H55.226v1.2h1.2v1.2H49.2v-1.2h4.818V112H48.6a.6.6,0,0,0-.6.6v2.409A.6.6,0,0,0,48.6,115.613Z" transform="translate(-29.591 -59.182)" fill="#1d7083"/>
    <path id="Trazado_1052537" data-name="Trazado 1052537" d="M104,176h5.42v1.2H104Z" transform="translate(-81.376 -118.365)" fill="#1d7083"/>
    <path id="Trazado_1052538" data-name="Trazado 1052538" d="M48,176h3.011v1.2H48Z" transform="translate(-29.591 -118.365)" fill="#1d7083"/>
    <path id="Trazado_1052539" data-name="Trazado 1052539" d="M128,272h4.215v1.2H128Z" transform="translate(-103.569 -207.138)" fill="#1d7083"/>
    <path id="Trazado_1052540" data-name="Trazado 1052540" d="M400,272h1.2v1.2H400Z" transform="translate(-355.095 -207.138)" fill="#1d7083"/>
    <path id="Trazado_1052541" data-name="Trazado 1052541" d="M384,304h2.409v1.2H384Z" transform="translate(-340.299 -236.73)" fill="#1d7083"/>
  </g>
</svg>
