<svg xmlns="http://www.w3.org/2000/svg" width="37.75" height="32.701" viewBox="0 0 37.75 32.701">
  <g id="maintenance_11433014" transform="translate(-2.5 -8.853)">
    <path id="Trazado_1053178" data-name="Trazado 1053178" d="M9.773,55.219a.41.41,0,0,1-.41-.41V40.666a1.659,1.659,0,0,1,1.657-1.657H12.5a.41.41,0,1,1,0,.821H11.02a.838.838,0,0,0-.837.836V54.808a.41.41,0,0,1-.41.41Z" transform="translate(-4.135 -18.173)" fill="#1d7083"/>
    <path id="Trazado_1053179" data-name="Trazado 1053179" d="M73.655,55.219a.41.41,0,0,1-.41-.41V40.666a.838.838,0,0,0-.837-.837H70.922a.41.41,0,0,1,0-.821h1.485a1.659,1.659,0,0,1,1.657,1.657V54.808A.41.41,0,0,1,73.655,55.219Z" transform="translate(-40.986 -18.173)" fill="#1d7083"/>
    <path id="Trazado_1053180" data-name="Trazado 1053180" d="M32.6,83.066H5.709A3.211,3.211,0,0,1,2.5,79.86v-.478a1.649,1.649,0,0,1,1.649-1.645H15a.41.41,0,0,1,.376.245l.519,1.185h6.522l.519-1.185a.411.411,0,0,1,.376-.245H34.157a1.649,1.649,0,0,1,1.649,1.645v.478A3.211,3.211,0,0,1,32.6,83.066ZM4.149,78.558a.828.828,0,0,0-.829.825v.478a2.389,2.389,0,0,0,2.389,2.385H32.6a2.389,2.389,0,0,0,2.388-2.385v-.478a.827.827,0,0,0-.828-.825H23.577l-.519,1.185a.41.41,0,0,1-.376.245H15.624a.41.41,0,0,1-.376-.245l-.519-1.185Z" transform="translate(0 -41.512)" fill="#1d7083"/>
    <g id="Grupo_1207795" data-name="Grupo 1207795" transform="translate(30.911 38.479)">
      <path id="Trazado_1053181" data-name="Trazado 1053181" d="M75.058,84.23h-.648a.41.41,0,0,1,0-.821h.648a.41.41,0,0,1,0,.821Z" transform="translate(-73.999 -83.409)" fill="#1d7083"/>
    </g>
    <g id="Grupo_1207796" data-name="Grupo 1207796" transform="translate(28.518 38.479)">
      <path id="Trazado_1053182" data-name="Trazado 1053182" d="M69.034,84.23h-.648a.41.41,0,0,1,0-.821h.648a.41.41,0,1,1,0,.821Z" transform="translate(-67.975 -83.409)" fill="#1d7083"/>
    </g>
    <path id="Trazado_1053183" data-name="Trazado 1053183" d="M37.387,45.693H17.477a1.24,1.24,0,0,1-1.239-1.239v-15a1.24,1.24,0,0,1,1.239-1.239h19.91a1.24,1.24,0,0,1,1.239,1.239v15A1.24,1.24,0,0,1,37.387,45.693ZM17.477,29.036a.418.418,0,0,0-.418.418v15a.419.419,0,0,0,.418.418h19.91a.419.419,0,0,0,.418-.418v-15a.418.418,0,0,0-.418-.418Z" transform="translate(-8.279 -11.668)" fill="#1d7083"/>
    <g id="Grupo_1207797" data-name="Grupo 1207797" transform="translate(7.959 20.088)">
      <path id="Trazado_1053184" data-name="Trazado 1053184" d="M38.215,37.946H16.649a.41.41,0,0,1,0-.821H38.215a.41.41,0,1,1,0,.821Z" transform="translate(-16.238 -37.126)" fill="#1d7083"/>
    </g>
    <g id="Grupo_1207798" data-name="Grupo 1207798" transform="translate(26.557 18.317)">
      <path id="Trazado_1053185" data-name="Trazado 1053185" d="M64.18,33.491h-.73a.41.41,0,1,1,0-.821h.73a.41.41,0,1,1,0,.821Z" transform="translate(-63.04 -32.67)" fill="#1d7083"/>
    </g>
    <g id="Grupo_1207799" data-name="Grupo 1207799" transform="translate(24.125 18.317)">
      <path id="Trazado_1053186" data-name="Trazado 1053186" d="M58.062,33.491h-.731a.41.41,0,0,1,0-.821h.731a.41.41,0,1,1,0,.821Z" transform="translate(-56.921 -32.67)" fill="#1d7083"/>
    </g>
    <g id="Grupo_1207800" data-name="Grupo 1207800" transform="translate(21.694 18.317)">
      <path id="Trazado_1053187" data-name="Trazado 1053187" d="M51.943,33.491h-.73a.41.41,0,1,1,0-.821h.73a.41.41,0,0,1,0,.821Z" transform="translate(-50.803 -32.67)" fill="#1d7083"/>
    </g>
    <g id="Grupo_1207801" data-name="Grupo 1207801" transform="translate(11.752 24.696)">
      <path id="Trazado_1053188" data-name="Trazado 1053188" d="M26.192,50.869a.41.41,0,0,1-.41-.41V49.134a.41.41,0,0,1,.821,0v1.325A.41.41,0,0,1,26.192,50.869Z" transform="translate(-25.782 -48.724)" fill="#1d7083"/>
    </g>
    <g id="Grupo_1207802" data-name="Grupo 1207802" transform="translate(16.555 24.696)">
      <path id="Trazado_1053189" data-name="Trazado 1053189" d="M38.28,50.869a.41.41,0,0,1-.41-.41V49.134a.41.41,0,0,1,.821,0v1.325A.41.41,0,0,1,38.28,50.869Z" transform="translate(-37.87 -48.724)" fill="#1d7083"/>
    </g>
    <path id="Trazado_1053190" data-name="Trazado 1053190" d="M28.123,51.772h-4.8a.41.41,0,0,1-.41-.41V47.516H21.425a.41.41,0,0,1-.408-.451,4.194,4.194,0,0,1,3.039-3.885.409.409,0,0,1,.489.2,1.5,1.5,0,0,0,2.353,0,.409.409,0,0,1,.489-.2,4.193,4.193,0,0,1,3.039,3.885.41.41,0,0,1-.408.45H28.533v3.846a.41.41,0,0,1-.41.41Zm-4.393-.821h3.983V47.106a.41.41,0,0,1,.41-.41h1.423a3.279,3.279,0,0,0-2.131-2.633,2.384,2.384,0,0,1-3.387,0A3.281,3.281,0,0,0,21.9,46.7h1.423a.41.41,0,0,1,.41.41Z" transform="translate(-11.157 -20.674)" fill="#1d7083"/>
    <g id="Grupo_1207803" data-name="Grupo 1207803" transform="translate(20.011 23.099)">
      <path id="Trazado_1053191" data-name="Trazado 1053191" d="M54.595,45.525H46.978a.41.41,0,1,1,0-.821h7.617a.41.41,0,0,1,0,.821Z" transform="translate(-46.567 -44.704)" fill="#1d7083"/>
    </g>
    <g id="Grupo_1207804" data-name="Grupo 1207804" transform="translate(23.82 25.649)">
      <path id="Trazado_1053192" data-name="Trazado 1053192" d="M58.108,51.941H56.563a.41.41,0,0,1,0-.821h1.546a.41.41,0,0,1,0,.821Z" transform="translate(-56.152 -51.12)" fill="#1d7083"/>
    </g>
    <g id="Grupo_1207805" data-name="Grupo 1207805" transform="translate(20.011 25.649)">
      <path id="Trazado_1053193" data-name="Trazado 1053193" d="M48.661,51.941H46.978a.41.41,0,1,1,0-.821h1.683a.41.41,0,1,1,0,.821Z" transform="translate(-46.567 -51.12)" fill="#1d7083"/>
    </g>
    <g id="Grupo_1207806" data-name="Grupo 1207806" transform="translate(20.011 29.156)">
      <path id="Trazado_1053194" data-name="Trazado 1053194" d="M49.391,60.768H46.978a.41.41,0,1,1,0-.821h2.413a.41.41,0,0,1,0,.821Z" transform="translate(-46.567 -59.947)" fill="#1d7083"/>
    </g>
    <g id="Grupo_1207807" data-name="Grupo 1207807" transform="translate(24.593 29.156)">
      <path id="Trazado_1053195" data-name="Trazado 1053195" d="M60.921,60.768H58.508a.41.41,0,1,1,0-.821h2.413a.41.41,0,1,1,0,.821Z" transform="translate(-58.097 -59.947)" fill="#1d7083"/>
    </g>
    <path id="Trazado_1053196" data-name="Trazado 1053196" d="M64.409,27.732a.41.41,0,0,1-.23-.071l-1.474-1a8.551,8.551,0,0,1-1.28.579.41.41,0,0,1-.276-.773,7.682,7.682,0,0,0,1.363-.643.41.41,0,0,1,.442.012l1.406.954,1.822-1.818-.957-1.405a.41.41,0,0,1-.014-.441,7.79,7.79,0,0,0,.854-2.05.411.411,0,0,1,.321-.3l1.665-.318V17.879l-1.665-.318a.411.411,0,0,1-.321-.3,7.789,7.789,0,0,0-.854-2.051.41.41,0,0,1,.014-.441l.957-1.405-1.822-1.818-1.406.954a.411.411,0,0,1-.44.013,7.7,7.7,0,0,0-2.049-.85.411.411,0,0,1-.3-.321l-.318-1.669H57.268l-.318,1.669a.41.41,0,0,1-.3.321,7.672,7.672,0,0,0-2.048.85.41.41,0,0,1-.44-.013l-1.406-.954-1.821,1.818.957,1.405a.409.409,0,0,1,.013.441,7.776,7.776,0,0,0-.8,1.859.41.41,0,1,1-.789-.224,8.58,8.58,0,0,1,.756-1.827l-1-1.474a.41.41,0,0,1,.049-.521l2.3-2.3a.411.411,0,0,1,.52-.049l1.475,1a8.5,8.5,0,0,1,1.785-.741l.334-1.749a.41.41,0,0,1,.4-.333h3.254a.41.41,0,0,1,.4.334l.333,1.75a8.519,8.519,0,0,1,1.785.741l1.475-1a.41.41,0,0,1,.52.049l2.3,2.3a.41.41,0,0,1,.049.521l-1,1.474a8.633,8.633,0,0,1,.743,1.785l1.747.333a.41.41,0,0,1,.333.4V20.8a.41.41,0,0,1-.333.4l-1.747.334a8.642,8.642,0,0,1-.743,1.785l1,1.474a.41.41,0,0,1-.049.522l-2.3,2.3a.409.409,0,0,1-.29.12Zm-3.184-5.223a.41.41,0,0,1-.276-.713,3.554,3.554,0,1,0-5.341-4.61.41.41,0,1,1-.681-.457A4.374,4.374,0,1,1,61.5,22.4a.409.409,0,0,1-.276.107Z" transform="translate(-28.619)" fill="#1d7083"/>
  </g>
</svg>
