<svg xmlns="http://www.w3.org/2000/svg" xmlns:xlink="http://www.w3.org/1999/xlink" width="108" height="108" viewBox="0 0 108 108">
  <defs>
    <filter id="Trazado_904820" x="0" y="0" width="108" height="108" filterUnits="userSpaceOnUse">
      <feOffset dy="3" input="SourceAlpha"/>
      <feGaussianBlur stdDeviation="3" result="blur"/>
      <feFlood flood-opacity="0.161"/>
      <feComposite operator="in" in2="blur"/>
      <feComposite in="SourceGraphic"/>
    </filter>
  </defs>
  <g id="Grupo_1207515" data-name="Grupo 1207515" transform="translate(9 6)">
    <g id="Grupo_1173585" data-name="Grupo 1173585" transform="translate(0 0)">
      <g id="Grupo_1173428" data-name="Grupo 1173428">
        <g id="Grupo_1171958" data-name="Grupo 1171958">
          <g id="Grupo_1167341" data-name="Grupo 1167341">
            <g id="Grupo_1166792" data-name="Grupo 1166792">
              <g transform="matrix(1, 0, 0, 1, -9, -6)" filter="url(#Trazado_904820)">
                <g id="Trazado_904820-2" data-name="Trazado 904820" transform="translate(9 6)" fill="#fff4e6">
                  <path d="M 44.99999618530273 88.50005340576172 C 39.12687301635742 88.50005340576172 33.43022155761719 87.35012817382812 28.06829643249512 85.08221435546875 C 22.88852119445801 82.891357421875 18.23629570007324 79.75464630126953 14.24084663391113 75.75919342041016 C 10.24540901184082 71.76373291015625 7.108683586120605 67.11150360107422 4.917821407318115 61.93174362182617 C 2.649921178817749 56.56980514526367 1.499996185302734 50.87315368652344 1.499996185302734 45.00003051757812 C 1.499996185302734 39.12690734863281 2.649921178817749 33.43025588989258 4.917821407318115 28.06831741333008 C 7.108683586120605 22.88854217529297 10.24540901184082 18.23631858825684 14.24084663391113 14.24086761474609 C 18.23629570007324 10.24541759490967 22.88852119445801 7.10869312286377 28.06829643249512 4.917842864990234 C 33.43022155761719 2.649930477142334 39.12687301635742 1.500005483627319 44.99999618530273 1.500005483627319 C 50.87311935424805 1.500005483627319 56.56977081298828 2.649930477142334 61.93169784545898 4.917842864990234 C 67.11147308349609 7.10869312286377 71.76369476318359 10.24541759490967 75.75914764404297 14.24086761474609 C 79.75458526611328 18.23631858825684 82.89131164550781 22.88854217529297 85.08216857910156 28.06831741333008 C 87.35007476806641 33.43025588989258 88.5 39.12690734863281 88.5 45.00003051757812 C 88.5 50.87315368652344 87.35007476806641 56.56980514526367 85.08216857910156 61.93174362182617 C 82.89131164550781 67.11150360107422 79.75458526611328 71.76373291015625 75.75914764404297 75.75919342041016 C 71.76369476318359 79.75464630126953 67.11147308349609 82.891357421875 61.93169784545898 85.08221435546875 C 56.56977081298828 87.35012817382812 50.87311935424805 88.50005340576172 44.99999618530273 88.50005340576172 Z" stroke="none"/>
                  <path d="M 44.99999618530273 3 C 39.32870864868164 3 33.82865142822266 4.110061645507812 28.65262603759766 6.299346923828125 C 23.65165710449219 8.414573669433594 19.15968322753906 11.44334411621094 15.301513671875 15.30152893066406 C 11.44333648681641 19.15969848632812 8.414566040039062 23.65167236328125 6.299339294433594 28.65264511108398 C 4.110054016113281 33.82868576049805 2.999992370605469 39.32874298095703 2.999992370605469 45.00003051757812 C 2.999992370605469 50.67131805419922 4.110054016113281 56.1713752746582 6.299339294433594 61.34740447998047 C 8.414566040039062 66.348388671875 11.44333648681641 70.84034729003906 15.301513671875 74.69851684570312 C 19.15968322753906 78.55670166015625 23.65165710449219 81.58547210693359 28.65262603759766 83.70069885253906 C 33.82865142822266 85.88998413085938 39.32870864868164 87.00004577636719 44.99999618530273 87.00004577636719 C 50.67128372192383 87.00004577636719 56.17134094238281 85.88998413085938 61.34736633300781 83.70069885253906 C 66.34834289550781 81.58547210693359 70.84030914306641 78.55670166015625 74.69847869873047 74.69851684570312 C 78.55665588378906 70.84034729003906 81.58542633056641 66.348388671875 83.70065307617188 61.34740447998047 C 85.88993835449219 56.1713752746582 87 50.67131805419922 87 45.00003051757812 C 87 39.32874298095703 85.88993835449219 33.82868576049805 83.70065307617188 28.65264511108398 C 81.58542633056641 23.65167236328125 78.55665588378906 19.15969848632812 74.69847869873047 15.30152893066406 C 70.84030914306641 11.44334411621094 66.34834289550781 8.414573669433594 61.34736633300781 6.299346923828125 C 56.17134094238281 4.110061645507812 50.67128372192383 3 44.99999618530273 3 M 44.99999618530273 0 C 69.85281372070312 0 90 20.14720153808594 90 45.00003051757812 C 90 69.85284423828125 69.85281372070312 90.00004577636719 44.99999618530273 90.00004577636719 C 20.14717864990234 90.00004577636719 -7.62939453125e-06 69.85284423828125 -7.62939453125e-06 45.00003051757812 C -7.62939453125e-06 20.14720153808594 20.14717864990234 0 44.99999618530273 0 Z" stroke="none" fill="#ff9d1c"/>
                </g>
              </g>
            </g>
          </g>
        </g>
      </g>
    </g>
    <g id="categorization_17226316" transform="translate(10.509 -12.981)">
      <path id="Trazado_1056092" data-name="Trazado 1056092" d="M27.26,179.475H78.2a2.531,2.531,0,0,0,2.522-2.525V148.583a2.531,2.531,0,0,0-2.522-2.525H27.26a2.532,2.532,0,0,0-2.525,2.525v28.366A2.532,2.532,0,0,0,27.26,179.475Z" transform="translate(-18.237 -104.795)" fill="#4b4359" fill-rule="evenodd"/>
      <path id="Trazado_1056093" data-name="Trazado 1056093" d="M27.26,179.475h48.3a2.532,2.532,0,0,0,2.525-2.525V148.583a2.532,2.532,0,0,0-2.525-2.525H27.26a2.532,2.532,0,0,0-2.525,2.525v28.366A2.532,2.532,0,0,0,27.26,179.475Z" transform="translate(-18.237 -104.795)" fill="#574e66" fill-rule="evenodd"/>
      <path id="Trazado_1056094" data-name="Trazado 1056094" d="M55.463,176.814h48.548v25.971H55.463Z" transform="translate(-45.246 -131.828)" fill="#96d3ff"/>
      <path id="Trazado_1056095" data-name="Trazado 1056095" d="M13.45,429.027H66.1a3.461,3.461,0,0,0,3.452-3.452v-3.452H9.995v3.452A3.462,3.462,0,0,0,13.45,429.027Z" transform="translate(-5.282 -347.444)" fill="#e1dae7" fill-rule="evenodd"/>
      <path id="Trazado_1056096" data-name="Trazado 1056096" d="M13.45,429.027H63.464a3.462,3.462,0,0,0,3.455-3.452v-3.452H10v3.452a3.462,3.462,0,0,0,3.455,3.452Z" transform="translate(-5.282 -347.444)" fill="#ebe6ef" fill-rule="evenodd"/>
      <path id="Trazado_1056097" data-name="Trazado 1056097" d="M193.933,425.577h11.992a1.729,1.729,0,0,0,1.726-1.726v-1.726H192.207v1.726A1.729,1.729,0,0,0,193.933,425.577Z" transform="translate(-165.438 -347.445)" fill="#40374f" fill-rule="evenodd"/>
      <path id="Trazado_1056098" data-name="Trazado 1056098" d="M193.933,425.577h9.086a1.732,1.732,0,0,0,1.729-1.726v-1.726H192.207v1.726A1.729,1.729,0,0,0,193.933,425.577Z" transform="translate(-165.438 -347.445)" fill="#4b4359" fill-rule="evenodd"/>
      <path id="Trazado_1056099" data-name="Trazado 1056099" d="M432.953,176.814h2.855v25.971h-2.855Z" transform="translate(-377.042 -131.828)" fill="#74c3fc"/>
      <path id="Trazado_1056100" data-name="Trazado 1056100" d="M134.122,225.791V223.42H119.855a.293.293,0,0,0-.209.089.3.3,0,0,0-.086.206v2.076h-1.451v-2.076a1.746,1.746,0,0,1,1.747-1.747h14.267v-4.591h1.451v4.591H149.84a1.746,1.746,0,0,1,1.747,1.747v2.076h-1.451v-2.076a.285.285,0,0,0-.089-.206.279.279,0,0,0-.206-.089H135.573v2.371h-1.451Z" transform="translate(-100.308 -167.482)" fill="#574e66"/>
      <path id="Trazado_1056101" data-name="Trazado 1056101" d="M177.453,35.079a9.333,9.333,0,0,1,1.983.823l1.427-.823a.867.867,0,0,1,1.053.137l.9.9.9.9a.862.862,0,0,1,.141,1.053l-.823,1.424a9.29,9.29,0,0,1,.823,1.987l1.589.425a.861.861,0,0,1,.645.844v2.532a.861.861,0,0,1-.645.844l-1.589.425a9.29,9.29,0,0,1-.823,1.987l.823,1.424a.862.862,0,0,1-.141,1.053l-.9.9-.9.9a.867.867,0,0,1-1.053.137l-1.427-.823a9.336,9.336,0,0,1-1.983.823l-.429,1.589a.86.86,0,0,1-.841.649h-2.536a.863.863,0,0,1-.841-.649l-.429-1.589a9.333,9.333,0,0,1-1.983-.823l-1.427.823a.867.867,0,0,1-1.053-.137l-.9-.9-.9-.9a.862.862,0,0,1-.141-1.053l.823-1.424a9.288,9.288,0,0,1-.823-1.987l-1.589-.425a.861.861,0,0,1-.645-.844V42.745a.86.86,0,0,1,.645-.844l1.589-.425a9.29,9.29,0,0,1,.823-1.987l-.823-1.427a.858.858,0,0,1,.141-1.05l.9-.9.9-.9a.867.867,0,0,1,1.053-.137l1.427.823a9.289,9.289,0,0,1,1.987-.823l.425-1.589a.863.863,0,0,1,.841-.649h2.536a.86.86,0,0,1,.841.649l.429,1.589Z" transform="translate(-140.424 -5.283)" fill="#ffc738" fill-rule="evenodd"/>
      <path id="Trazado_1056102" data-name="Trazado 1056102" d="M240.113,35.079a9.334,9.334,0,0,1,1.983.823l1.427-.823a.867.867,0,0,1,1.053.137l.9.9.9.9a.862.862,0,0,1,.141,1.053l-.823,1.424a9.291,9.291,0,0,1,.823,1.987l1.589.425a.861.861,0,0,1,.645.844v2.532a.861.861,0,0,1-.645.844l-1.589.425a9.291,9.291,0,0,1-.823,1.987l.823,1.424a.862.862,0,0,1-.141,1.053l-.9.9-.9.9a.868.868,0,0,1-1.053.137l-1.427-.823a9.336,9.336,0,0,1-1.983.823l-.429,1.589a.86.86,0,0,1-.841.649h-2.536a.863.863,0,0,1-.841-.649l-.429-1.589h0a8.933,8.933,0,0,0,0-17.863l.425-1.589a.863.863,0,0,1,.841-.649h2.536a.86.86,0,0,1,.841.649Z" transform="translate(-203.084 -5.283)" fill="#ffb122" fill-rule="evenodd"/>
      <path id="Trazado_1056103" data-name="Trazado 1056103" d="M218.217,92.54a5.2,5.2,0,1,0-5.205-5.2A5.212,5.212,0,0,0,218.217,92.54Z" transform="translate(-183.724 -48.611)" fill="#f28d00" fill-rule="evenodd"/>
      <path id="Trazado_1056104" data-name="Trazado 1056104" d="M216.945,93.5a5.2,5.2,0,0,1,0-10.091,5.2,5.2,0,0,1,0,10.091Z" transform="translate(-183.725 -49.733)" fill="#ff9b0d" fill-rule="evenodd"/>
      <path id="Trazado_1056105" data-name="Trazado 1056105" d="M233.9,109.349a.724.724,0,1,1,1.252-.727l.552.954,2.234-2.23a.725.725,0,0,1,1.026,1.026l-2.9,2.9h0a.713.713,0,0,1-.148.117.728.728,0,0,1-.992-.264l-1.022-1.774Z" transform="translate(-201.996 -70.58)" fill="#08a88a"/>
      <g id="Grupo_1209015" data-name="Grupo 1209015" transform="translate(13.823 58.309)">
        <path id="Trazado_1056106" data-name="Trazado 1056106" d="M89.959,296.288a4.7,4.7,0,1,0-4.7-4.7,4.713,4.713,0,0,0,4.7,4.7Z" transform="translate(-85.255 -286.883)" fill="#ffb122" fill-rule="evenodd"/>
        <path id="Trazado_1056107" data-name="Trazado 1056107" d="M88.955,296.951a4.7,4.7,0,0,1,0-9.189,4.7,4.7,0,0,1,0,9.189Z" transform="translate(-85.256 -287.656)" fill="#ffc738" fill-rule="evenodd"/>
        <path id="Trazado_1056108" data-name="Trazado 1056108" d="M114.54,310.3l-2.858-1.65a.42.42,0,0,0-.631.364v3.3a.415.415,0,0,0,.209.364.421.421,0,0,0,.422,0l2.858-1.654a.417.417,0,0,0,0-.727Z" transform="translate(-107.928 -305.962)" fill="#4bb3fd" fill-rule="evenodd"/>
        <path id="Trazado_1056109" data-name="Trazado 1056109" d="M197.49,296.288h11.9a1.06,1.06,0,0,0,1.057-1.06V287.94a1.06,1.06,0,0,0-1.057-1.057h-11.9a1.062,1.062,0,0,0-1.06,1.057v7.288A1.063,1.063,0,0,0,197.49,296.288Z" transform="translate(-182.973 -286.883)" fill="#e1dae7" fill-rule="evenodd"/>
        <path id="Trazado_1056110" data-name="Trazado 1056110" d="M197.49,296.288h9.625a1.063,1.063,0,0,0,1.06-1.06V287.94a1.062,1.062,0,0,0-1.06-1.057H197.49a1.062,1.062,0,0,0-1.06,1.057v7.288A1.063,1.063,0,0,0,197.49,296.288Z" transform="translate(-182.973 -286.883)" fill="#ebe6ef" fill-rule="evenodd"/>
        <path id="Trazado_1056111" data-name="Trazado 1056111" d="M244.795,316.52h5.154a1.06,1.06,0,0,0,1.057-1.06v-1.534l-4.021-4.025-4.406,4.4,2.217,2.217Z" transform="translate(-223.535 -307.115)" fill="#4bb3fd" fill-rule="evenodd"/>
        <path id="Trazado_1056112" data-name="Trazado 1056112" d="M197.49,332.416h6.742l-4.43-4.43-3.373,3.369A1.063,1.063,0,0,0,197.49,332.416Z" transform="translate(-182.973 -323.011)" fill="#74c3fc" fill-rule="evenodd"/>
      </g>
      <path id="Trazado_1056113" data-name="Trazado 1056113" d="M240.159,309.822a.726.726,0,1,1,0-1.451h.082a.726.726,0,0,1,0,1.451Z" transform="translate(-206.946 -247.461)" fill="#ffc738"/>
      <path id="Trazado_1056114" data-name="Trazado 1056114" d="M351.163,296.289h8.156a.532.532,0,0,0,.528-.532v-8.345a.529.529,0,0,0-.528-.528h-8.156a.529.529,0,0,0-.528.528v8.345A.532.532,0,0,0,351.163,296.289Z" transform="translate(-304.689 -228.575)" fill="#e1dae7" fill-rule="evenodd"/>
      <path id="Trazado_1056115" data-name="Trazado 1056115" d="M351.163,296.289h4.91a.532.532,0,0,0,.528-.532v-8.345a.529.529,0,0,0-.528-.528h-4.91a.529.529,0,0,0-.528.528v8.345A.532.532,0,0,0,351.163,296.289Z" transform="translate(-304.689 -228.575)" fill="#ebe6ef" fill-rule="evenodd"/>
      <path id="Trazado_1056116" data-name="Trazado 1056116" d="M373.472,300.864a.726.726,0,1,1,0-1.451h2.405a.726.726,0,1,1,0,1.451Zm0,4.917a.726.726,0,1,1,0-1.451h2.405a.726.726,0,1,1,0,1.451Zm0-2.457a.726.726,0,1,1,0-1.451h2.405a.726.726,0,1,1,0,1.451Z" transform="translate(-324.122 -239.587)" fill="#574e66"/>
      <path id="Trazado_1056117" data-name="Trazado 1056117" d="M31.9,38.768a.729.729,0,0,1,1.263-.727l.549.95,2.23-2.23a.728.728,0,0,1,1.029,1.029l-2.9,2.9a.738.738,0,0,1-.515.209.468.468,0,0,1-.1-.007.712.712,0,0,1-.532-.357L31.9,38.768Zm2.594-4.519a4.476,4.476,0,1,1-4.478,4.478A4.482,4.482,0,0,1,34.493,34.25Zm0,10.407a5.931,5.931,0,1,0-5.933-5.929A5.935,5.935,0,0,0,34.493,44.656Zm14.13,20.81a.725.725,0,0,1,.727-.724h2.405a.726.726,0,1,1,0,1.451H49.35A.728.728,0,0,1,48.623,65.467Zm0-4.914a.726.726,0,0,1,.727-.727h2.405a.727.727,0,1,1,0,1.455H49.35A.73.73,0,0,1,48.623,60.553Zm0,2.457a.728.728,0,0,1,.727-.727h2.405a.727.727,0,1,1,0,1.455H49.35A.726.726,0,0,1,48.623,63.01Zm-14.6-1.376a.728.728,0,0,1-.727.727h-.082a.727.727,0,0,1,0-1.455H33.3A.728.728,0,0,1,34.023,61.634Zm-16.35.254,1.939,1.122-1.939,1.119Zm-.882,3.768a1.14,1.14,0,0,0,.576.158,1.11,1.11,0,0,0,.573-.158L20.806,64a1.146,1.146,0,0,0-.01-1.987l-2.862-1.654a1.138,1.138,0,0,0-1.136,0s-.007,0-.014.007a1.143,1.143,0,0,0-.566.992v3.3a1.129,1.129,0,0,0,.573.995ZM63.542,78.132a2.727,2.727,0,0,1-2.724,2.724H8.169a2.73,2.73,0,0,1-2.728-2.724V75.4h20.6v1A2.455,2.455,0,0,0,28.5,78.859H40.487a2.455,2.455,0,0,0,2.453-2.453v-1h20.6ZM41.486,75.4v1a1,1,0,0,1-1,1H28.5a1,1,0,0,1-1-1v-1H41.486ZM7.225,43.788a1.8,1.8,0,0,1,1.8-1.8h16a10.132,10.132,0,0,0,.525,1.242l-.59,1.022H10.217a.728.728,0,0,0-.727.731V70.957a.728.728,0,0,0,.727.727H58.765a.728.728,0,0,0,.727-.727V44.986a.729.729,0,0,0-.727-.731H44.021l-.59-1.022a10.148,10.148,0,0,0,.525-1.242H59.963a1.8,1.8,0,0,1,1.795,1.8V72.151a1.8,1.8,0,0,1-1.795,1.8H9.023a1.8,1.8,0,0,1-1.8-1.8V43.788ZM54.432,59.037v7.947H46.674V59.037Zm-35.9,0a3.973,3.973,0,1,1-3.977,3.973A3.976,3.976,0,0,1,18.528,59.037ZM33.81,54.483H19.547A1.751,1.751,0,0,0,17.8,56.237V57.63a5.428,5.428,0,1,0,1.455,0V56.237a.3.3,0,0,1,.292-.3H33.81v1.644H28.341a1.789,1.789,0,0,0-1.788,1.788v7.285a1.788,1.788,0,0,0,1.788,1.784h11.9a1.785,1.785,0,0,0,1.784-1.784V59.369a1.786,1.786,0,0,0-1.784-1.788H35.265V55.938H49.532a.3.3,0,0,1,.292.3v1.345H46.475a1.256,1.256,0,0,0-1.256,1.256v8.345a1.256,1.256,0,0,0,1.256,1.256h8.156a1.256,1.256,0,0,0,1.256-1.256V58.838a1.256,1.256,0,0,0-1.256-1.256H51.279V56.237a1.751,1.751,0,0,0-1.746-1.753H35.265V50.62h.494A1.581,1.581,0,0,0,37.3,49.44l.323-1.2A10.416,10.416,0,0,0,39,47.669l1.077.621a1.589,1.589,0,0,0,1.932-.257L43.8,46.242a1.672,1.672,0,0,0,.357-.528H58.038V70.229H10.944V45.713H24.831a1.605,1.605,0,0,0,.353.528l1.791,1.791a1.585,1.585,0,0,0,1.932.257l1.077-.621a9.811,9.811,0,0,0,1.376.566l.319,1.2a1.581,1.581,0,0,0,1.544,1.184h.587v3.864Zm-.484,12.5H28.341a.335.335,0,0,1-.247-.113l2.56-2.56,2.673,2.673Zm7.24-1.565v1.235a.334.334,0,0,1-.329.329H35.385L33.9,65.5l3.376-3.376,3.294,3.3Zm-2.779-4.838a.725.725,0,0,0-1.029,0L32.87,64.468l-1.7-1.7a.729.729,0,0,0-1.029,0L28.008,64.9V59.369a.335.335,0,0,1,.333-.333h11.9a.33.33,0,0,1,.329.333V63.36l-2.779-2.779ZM24.052,37.458a.133.133,0,0,1,.106-.137l1.589-.425a.723.723,0,0,0,.511-.5,8.605,8.605,0,0,1,.758-1.829.723.723,0,0,0,0-.717l-.823-1.427a.137.137,0,0,1,.024-.178L28,30.448a.133.133,0,0,1,.175-.021l1.427.82a.731.731,0,0,0,.717.007,8.471,8.471,0,0,1,1.832-.762.723.723,0,0,0,.5-.511l.425-1.589a.137.137,0,0,1,.137-.106h2.536a.13.13,0,0,1,.137.11l.429,1.585a.723.723,0,0,0,.5.511,8.691,8.691,0,0,1,1.829.762.731.731,0,0,0,.717-.007l1.431-.823a.133.133,0,0,1,.172.024l1.791,1.791a.142.142,0,0,1,.027.178l-.827,1.427a.731.731,0,0,0,0,.717,8.609,8.609,0,0,1,.758,1.829.729.729,0,0,0,.511.5l1.592.425a.133.133,0,0,1,.1.137v2.536a.139.139,0,0,1-.106.144l-1.589.422a.741.741,0,0,0-.511.5,8.606,8.606,0,0,1-.758,1.829.732.732,0,0,0,0,.717l.823,1.427a.138.138,0,0,1-.024.178l-1.791,1.791a.141.141,0,0,1-.175.024l-1.427-.823a.723.723,0,0,0-.717-.007,8.614,8.614,0,0,1-1.829.762.724.724,0,0,0-.5.508L35.9,49.062a.13.13,0,0,1-.137.1H33.223a.133.133,0,0,1-.137-.1l-.425-1.592a.724.724,0,0,0-.5-.508,8.643,8.643,0,0,1-1.832-.762.716.716,0,0,0-.353-.093.735.735,0,0,0-.364.1l-1.427.823A.141.141,0,0,1,28,47.007l-1.791-1.791a.138.138,0,0,1-.024-.178l.823-1.427a.723.723,0,0,0,0-.717,8.534,8.534,0,0,1-.758-1.829.73.73,0,0,0-.511-.5l-1.592-.429a.133.133,0,0,1-.1-.141V37.458ZM64.269,73.949h-1.6a3.228,3.228,0,0,0,.542-1.8V43.788a3.257,3.257,0,0,0-3.249-3.253H46.293a1.649,1.649,0,0,0,.093-.542V37.458A1.581,1.581,0,0,0,45.2,35.914L44,35.594a9.993,9.993,0,0,0-.57-1.373l.624-1.081a1.585,1.585,0,0,0-.257-1.928l-1.791-1.795a1.576,1.576,0,0,0-1.932-.25L39,29.785a10.411,10.411,0,0,0-1.373-.57l-.323-1.2a1.58,1.58,0,0,0-1.544-1.187H33.223a1.58,1.58,0,0,0-1.544,1.187l-.319,1.2a10.267,10.267,0,0,0-1.376.57l-1.074-.618a1.58,1.58,0,0,0-1.935.25l-1.791,1.795a1.585,1.585,0,0,0-.257,1.928l.624,1.081a9.972,9.972,0,0,0-.57,1.373l-1.2.319A1.58,1.58,0,0,0,22.6,37.458v2.536a1.649,1.649,0,0,0,.093.542H9.023A3.257,3.257,0,0,0,5.77,43.788V72.151a3.2,3.2,0,0,0,.546,1.8h-1.6a.728.728,0,0,0-.727.727v3.455a4.185,4.185,0,0,0,4.183,4.179H60.817A4.182,4.182,0,0,0,65,78.131V74.676a.728.728,0,0,0-.727-.727Z" transform="translate(0)" fill="#070202"/>
    </g>
  </g>
</svg>
