<svg xmlns="http://www.w3.org/2000/svg" xmlns:xlink="http://www.w3.org/1999/xlink" width="108" height="108" viewBox="0 0 108 108">
  <defs>
    <filter id="Trazado_904820" x="0" y="0" width="108" height="108" filterUnits="userSpaceOnUse">
      <feOffset dy="3" input="SourceAlpha"/>
      <feGaussianBlur stdDeviation="3" result="blur"/>
      <feFlood flood-opacity="0.161"/>
      <feComposite operator="in" in2="blur"/>
      <feComposite in="SourceGraphic"/>
    </filter>
  </defs>
  <g id="Grupo_1209032" data-name="Grupo 1209032" transform="translate(-166 -2877)">
    <g id="Grupo_1208923" data-name="Grupo 1208923" transform="translate(175 2883)">
      <g id="Grupo_1173585" data-name="Grupo 1173585" transform="translate(0 0)">
        <g id="Grupo_1173428" data-name="Grupo 1173428">
          <g id="Grupo_1171958" data-name="Grupo 1171958">
            <g id="Grupo_1167341" data-name="Grupo 1167341">
              <g id="Grupo_1166792" data-name="Grupo 1166792">
                <g transform="matrix(1, 0, 0, 1, -9, -6)" filter="url(#Trazado_904820)">
                  <g id="Trazado_904820-2" data-name="Trazado 904820" transform="translate(9 6)" fill="#e9f9fd">
                    <path d="M 44.99999618530273 88.50005340576172 C 39.12687301635742 88.50005340576172 33.43022155761719 87.35012817382812 28.06829643249512 85.08221435546875 C 22.88852119445801 82.891357421875 18.23629570007324 79.75464630126953 14.24084663391113 75.75919342041016 C 10.24540901184082 71.76373291015625 7.108683586120605 67.11150360107422 4.917821407318115 61.93174362182617 C 2.649921178817749 56.56980514526367 1.499996185302734 50.87315368652344 1.499996185302734 45.00003051757812 C 1.499996185302734 39.12690734863281 2.649921178817749 33.43025588989258 4.917821407318115 28.06831741333008 C 7.108683586120605 22.88854217529297 10.24540901184082 18.23631858825684 14.24084663391113 14.24086761474609 C 18.23629570007324 10.24541759490967 22.88852119445801 7.10869312286377 28.06829643249512 4.917842864990234 C 33.43022155761719 2.649930477142334 39.12687301635742 1.500005483627319 44.99999618530273 1.500005483627319 C 50.87311935424805 1.500005483627319 56.56977081298828 2.649930477142334 61.93169784545898 4.917842864990234 C 67.11147308349609 7.10869312286377 71.76369476318359 10.24541759490967 75.75914764404297 14.24086761474609 C 79.75458526611328 18.23631858825684 82.89131164550781 22.88854217529297 85.08216857910156 28.06831741333008 C 87.35007476806641 33.43025588989258 88.5 39.12690734863281 88.5 45.00003051757812 C 88.5 50.87315368652344 87.35007476806641 56.56980514526367 85.08216857910156 61.93174362182617 C 82.89131164550781 67.11150360107422 79.75458526611328 71.76373291015625 75.75914764404297 75.75919342041016 C 71.76369476318359 79.75464630126953 67.11147308349609 82.891357421875 61.93169784545898 85.08221435546875 C 56.56977081298828 87.35012817382812 50.87311935424805 88.50005340576172 44.99999618530273 88.50005340576172 Z" stroke="none"/>
                    <path d="M 44.99999618530273 3 C 39.32870864868164 3 33.82865142822266 4.110061645507812 28.65262603759766 6.299346923828125 C 23.65165710449219 8.414573669433594 19.15968322753906 11.44334411621094 15.301513671875 15.30152893066406 C 11.44333648681641 19.15969848632812 8.414566040039062 23.65167236328125 6.299339294433594 28.65264511108398 C 4.110054016113281 33.82868576049805 2.999992370605469 39.32874298095703 2.999992370605469 45.00003051757812 C 2.999992370605469 50.67131805419922 4.110054016113281 56.1713752746582 6.299339294433594 61.34740447998047 C 8.414566040039062 66.348388671875 11.44333648681641 70.84034729003906 15.301513671875 74.69851684570312 C 19.15968322753906 78.55670166015625 23.65165710449219 81.58547210693359 28.65262603759766 83.70069885253906 C 33.82865142822266 85.88998413085938 39.32870864868164 87.00004577636719 44.99999618530273 87.00004577636719 C 50.67128372192383 87.00004577636719 56.17134094238281 85.88998413085938 61.34736633300781 83.70069885253906 C 66.34834289550781 81.58547210693359 70.84030914306641 78.55670166015625 74.69847869873047 74.69851684570312 C 78.55665588378906 70.84034729003906 81.58542633056641 66.348388671875 83.70065307617188 61.34740447998047 C 85.88993835449219 56.1713752746582 87 50.67131805419922 87 45.00003051757812 C 87 39.32874298095703 85.88993835449219 33.82868576049805 83.70065307617188 28.65264511108398 C 81.58542633056641 23.65167236328125 78.55665588378906 19.15969848632812 74.69847869873047 15.30152893066406 C 70.84030914306641 11.44334411621094 66.34834289550781 8.414573669433594 61.34736633300781 6.299346923828125 C 56.17134094238281 4.110061645507812 50.67128372192383 3 44.99999618530273 3 M 44.99999618530273 0 C 69.85281372070312 0 90 20.14720153808594 90 45.00003051757812 C 90 69.85284423828125 69.85281372070312 90.00004577636719 44.99999618530273 90.00004577636719 C 20.14717864990234 90.00004577636719 -7.62939453125e-06 69.85284423828125 -7.62939453125e-06 45.00003051757812 C -7.62939453125e-06 20.14720153808594 20.14717864990234 0 44.99999618530273 0 Z" stroke="none" fill="#36ceef"/>
                  </g>
                </g>
              </g>
            </g>
          </g>
        </g>
      </g>
    </g>
    <g id="problem-solving_5866082" transform="translate(185.596 2893.596)">
      <g id="Grupo_1209030" data-name="Grupo 1209030" transform="translate(1.11 1.11)">
        <g id="Grupo_1209016" data-name="Grupo 1209016" transform="translate(29.965 29.965)">
          <path id="Trazado_1056118" data-name="Trazado 1056118" d="M228.439,224l2.22,12.208H224L226.22,224Z" transform="translate(-224 -224)" fill="#b4dd7f"/>
        </g>
        <g id="Grupo_1209017" data-name="Grupo 1209017" transform="translate(30.599 24.416)">
          <path id="Trazado_1056119" data-name="Trazado 1056119" d="M233.961,184l-1.586,5.549h-2.22L228.57,184Z" transform="translate(-228.57 -184)" fill="#a0d468"/>
        </g>
        <g id="Grupo_1209018" data-name="Grupo 1209018" transform="translate(34.404 21.24)">
          <path id="Trazado_1056120" data-name="Trazado 1056120" d="M265.988,173.164v8.878H258.22L256,169.834l1.586-5.549h.634V163.8a1.526,1.526,0,0,1,2.605-1.079l.343.344,1.955-1.955,2.757.92a10.547,10.547,0,0,1,5.451,4.163,10.538,10.538,0,0,0,1.318,1.608v9.249A15.153,15.153,0,0,1,265.988,173.164Z" transform="translate(-256 -161.11)" fill="#ff826e"/>
        </g>
        <g id="Grupo_1209019" data-name="Grupo 1209019" transform="translate(8.878 21.24)">
          <path id="Trazado_1056121" data-name="Trazado 1056121" d="M85.318,173.164A15.156,15.156,0,0,1,74.6,177.6H72v-6.659l1.257-.251a10.563,10.563,0,0,0,6.72-4.5,10.547,10.547,0,0,1,5.451-4.163l2.756-.92,1.955,1.955.343-.344a1.526,1.526,0,0,1,2.605,1.079v.486h.634l1.586,5.549-2.22,12.208H85.318Z" transform="translate(-72 -161.11)" fill="#ff826e"/>
        </g>
        <g id="Grupo_1209020" data-name="Grupo 1209020" transform="translate(21.086)">
          <path id="Trazado_1056122" data-name="Trazado 1056122" d="M184.416,16.878v6.659h-.486a1.526,1.526,0,0,0-1.079,2.605l.344.343L180.44,29.24l-1.955,1.955-.343-.344a1.526,1.526,0,0,0-2.605,1.079v.486h-6.659V31.93a1.526,1.526,0,0,0-2.605-1.079l-.343.344-1.955-1.955-2.755-2.755.344-.343a1.526,1.526,0,0,0-1.079-2.605H160V16.878h.486a1.526,1.526,0,0,0,1.079-2.605l-.344-.343,4.71-4.71.343.344a1.526,1.526,0,0,0,2.605-1.079V8h6.659v.486a1.526,1.526,0,0,0,2.605,1.079l.343-.344,4.71,4.71-.344.343a1.526,1.526,0,0,0,1.079,2.605Zm-4.439,3.329a7.769,7.769,0,1,0-7.769,7.769A7.768,7.768,0,0,0,179.977,20.208Z" transform="translate(-160 -8)" fill="#ffc729"/>
        </g>
        <g id="Grupo_1209021" data-name="Grupo 1209021" transform="translate(25.526 4.439)">
          <path id="Trazado_1056123" data-name="Trazado 1056123" d="M199.769,40A7.769,7.769,0,1,1,192,47.769,7.768,7.768,0,0,1,199.769,40Zm3.329,7.769a3.329,3.329,0,1,0-3.329,3.329A3.33,3.33,0,0,0,203.1,47.769Z" transform="translate(-192 -40)" fill="#fcd770"/>
        </g>
        <g id="Grupo_1209022" data-name="Grupo 1209022" transform="translate(19.533 62.149)">
          <path id="Trazado_1056124" data-name="Trazado 1056124" d="M176.323,456l-.254,2.536a2.113,2.113,0,0,1-2.1,1.9H151.157a2.113,2.113,0,0,1-2.1-1.9L148.8,456Z" transform="translate(-148.8 -456)" fill="#aab2bd"/>
        </g>
        <g id="Grupo_1209023" data-name="Grupo 1209023" transform="translate(17.757 42.173)">
          <path id="Trazado_1056125" data-name="Trazado 1056125" d="M167.075,314.114c0,.071,0,.14-.011.211L165.3,331.977H137.776l-1.765-17.651c-.007-.071-.011-.14-.011-.211A2.113,2.113,0,0,1,138.114,312H164.96A2.114,2.114,0,0,1,167.075,314.114Z" transform="translate(-136 -312)" fill="#ccd1d9"/>
        </g>
        <g id="Grupo_1209024" data-name="Grupo 1209024" transform="translate(2.22 42.173)">
          <path id="Trazado_1056126" data-name="Trazado 1056126" d="M30.659,312v1.11a3.329,3.329,0,0,1-6.659,0V312Z" transform="translate(-24 -312)" fill="#ccd1d9"/>
        </g>
        <g id="Grupo_1209025" data-name="Grupo 1209025" transform="translate(2.22 18.867)">
          <path id="Trazado_1056127" data-name="Trazado 1056127" d="M30.659,151.706v.062H24v-.062a4.448,4.448,0,0,1,.469-1.985L27.329,144l2.861,5.721A4.448,4.448,0,0,1,30.659,151.706Z" transform="translate(-24 -144)" fill="#ccd1d9"/>
        </g>
        <g id="Grupo_1209026" data-name="Grupo 1209026" transform="translate(2.22 26.635)">
          <path id="Trazado_1056128" data-name="Trazado 1056128" d="M30.659,211.1v4.439H24v-4.629a3.332,3.332,0,0,0,2.22-3.139v-2.22A3.332,3.332,0,0,0,24,202.41V200h6.659v11.1Z" transform="translate(-24 -200)" fill="#b4dd7f"/>
        </g>
        <g id="Grupo_1209027" data-name="Grupo 1209027" transform="translate(51.051 22.196)">
          <path id="Trazado_1056129" data-name="Trazado 1056129" d="M376,173.735V169.11a1.11,1.11,0,0,1,1.11-1.11h8.878a1.11,1.11,0,0,1,1.11,1.11v15.537a1.11,1.11,0,0,1-1.11,1.11H377.11a1.11,1.11,0,0,1-1.11-1.11V173.735Z" transform="translate(-376 -168)" fill="#e6e9ed"/>
        </g>
        <g id="Grupo_1209028" data-name="Grupo 1209028" transform="translate(62.149 28.855)">
          <path id="Trazado_1056130" data-name="Trazado 1056130" d="M460.439,217.11v6.659a1.11,1.11,0,0,1-1.11,1.11A3.33,3.33,0,0,1,456,221.549v-2.22A3.33,3.33,0,0,1,459.329,216a1.108,1.108,0,0,1,1.11,1.11Z" transform="translate(-456 -216)" fill="#f0d0b4"/>
        </g>
        <g id="Grupo_1209029" data-name="Grupo 1209029" transform="translate(0 28.855)">
          <path id="Trazado_1056131" data-name="Trazado 1056131" d="M12.439,219.329v2.22a3.328,3.328,0,0,1-3.329,3.329A1.11,1.11,0,0,1,8,223.769V217.11A1.108,1.108,0,0,1,9.11,216a3.328,3.328,0,0,1,3.329,3.329Z" transform="translate(-8 -216)" fill="#f0d0b4"/>
        </g>
      </g>
      <g id="Grupo_1209031" data-name="Grupo 1209031" transform="translate(0 0)">
        <path id="Trazado_1056132" data-name="Trazado 1056132" d="M240,336h2.22v8.878H240Z" transform="translate(-206.706 -289.388)"/>
        <path id="Trazado_1056133" data-name="Trazado 1056133" d="M240,416h2.22v2.22H240Z" transform="translate(-206.706 -358.29)"/>
        <path id="Trazado_1056134" data-name="Trazado 1056134" d="M220.439,72.878A4.439,4.439,0,1,0,216,68.439,4.444,4.444,0,0,0,220.439,72.878Zm0-6.659a2.22,2.22,0,1,1-2.22,2.22A2.222,2.222,0,0,1,220.439,66.22Z" transform="translate(-186.035 -55.122)"/>
        <path id="Trazado_1056135" data-name="Trazado 1056135" d="M192.878,49.757A8.878,8.878,0,1,0,184,40.878,8.888,8.888,0,0,0,192.878,49.757Zm0-15.537a6.659,6.659,0,1,1-6.659,6.659A6.666,6.666,0,0,1,192.878,34.22Z" transform="translate(-158.474 -27.561)"/>
        <path id="Trazado_1056136" data-name="Trazado 1056136" d="M400,192h4.439v2.22H400Z" transform="translate(-344.51 -165.365)"/>
        <path id="Trazado_1056137" data-name="Trazado 1056137" d="M400,224h4.439v2.22H400Z" transform="translate(-344.51 -192.925)"/>
        <path id="Trazado_1056138" data-name="Trazado 1056138" d="M400,256h4.439v2.22H400Z" transform="translate(-344.51 -220.486)"/>
        <path id="Trazado_1056139" data-name="Trazado 1056139" d="M66.588,28.855a4.411,4.411,0,0,0-2.22.6V24.416a2.222,2.222,0,0,0-2.22-2.22H53.271a2.222,2.222,0,0,0-2.22,2.22v1.445a11.74,11.74,0,0,0-5.308-3.644l-1.053-.351,2.27-2.27-1.129-1.128a.416.416,0,0,1,.294-.711h1.6V8.878h-1.6a.416.416,0,0,1-.294-.711L46.96,7.04,40.682.762,39.554,1.89a.416.416,0,0,1-.711-.294V0H29.965V1.6a.416.416,0,0,1-.711.294L28.126.762,21.848,7.04l1.128,1.128a.416.416,0,0,1-.294.71h-1.6v8.878h1.6a.416.416,0,0,1,.294.711L21.848,19.6l2.27,2.27-1.053.351a11.733,11.733,0,0,0-6.023,4.6A9.393,9.393,0,0,1,11.1,30.829V27.683a5.577,5.577,0,0,0-.586-2.482L6.659,17.495,2.805,25.2a5.577,5.577,0,0,0-.586,2.482v1.172A2.222,2.222,0,0,0,0,31.075v6.659a2.222,2.222,0,0,0,2.22,2.22v4.439a4.439,4.439,0,0,0,8.878,0V39.953h1.491A16.144,16.144,0,0,0,22.2,36.816v5.357H20.981A3.228,3.228,0,0,0,17.757,45.4c0,.106.005.214.016.321L19.792,65.9A3.214,3.214,0,0,0,23,68.808H45.808a3.214,3.214,0,0,0,3.208-2.9l2.019-20.188c.011-.106.016-.214.016-.321a3.228,3.228,0,0,0-3.224-3.224H46.612V36.81a16.314,16.314,0,0,0,4.439,2.3v.845a2.222,2.222,0,0,0,2.22,2.22h8.878a2.222,2.222,0,0,0,2.22-2.22v-.6a4.411,4.411,0,0,0,2.22.6,2.222,2.222,0,0,0,2.22-2.22V31.075a2.222,2.222,0,0,0-2.22-2.22ZM23.306,11.024a2.638,2.638,0,0,0,1.629-3.932l3.244-3.244A2.638,2.638,0,0,0,32.11,2.22H36.7a2.638,2.638,0,0,0,3.932,1.629l3.244,3.244A2.638,2.638,0,0,0,45.5,11.024v4.587a2.638,2.638,0,0,0-1.629,3.932l-3.244,3.244A2.638,2.638,0,0,0,36.7,24.416H32.11a2.638,2.638,0,0,0-3.932-1.629l-3.244-3.244a2.638,2.638,0,0,0-1.629-3.932V11.024ZM34.22,32.184h.367L36.4,42.173h-4Zm.456-2.22h-.545l-.951-3.329h2.448ZM6.659,22.458l1.868,3.736a3.305,3.305,0,0,1,.18.441H4.61a3.294,3.294,0,0,1,.18-.441ZM2.22,31.075a2.222,2.222,0,0,1,2.22,2.22v2.22a2.222,2.222,0,0,1-2.22,2.22Zm4.439,4.439v-2.22a4.441,4.441,0,0,0-2.22-3.842v-.6H8.878V42.173H4.439V39.356A4.441,4.441,0,0,0,6.659,35.514Zm0,11.1a2.222,2.222,0,0,1-2.22-2.22H8.878A2.222,2.222,0,0,1,6.659,46.612ZM23.631,28.07A4.867,4.867,0,0,0,22.2,31.534v2.4a13.948,13.948,0,0,1-9.607,3.8H11.1V33.094l.365-.073a11.6,11.6,0,0,0,7.426-4.973,9.5,9.5,0,0,1,4.878-3.726l2.105-.7,2.254,2.254,1.128-1.129a.416.416,0,0,1,.711.294v1.6h.907l1.284,4.5L30.148,42.173H24.416V31.534A2.661,2.661,0,0,1,25.2,29.64ZM45.808,66.588H23a1,1,0,0,1-1-.9l-.132-1.315H46.939l-.132,1.315A1,1,0,0,1,45.808,66.588ZM48.832,45.4c0,.033,0,.067,0,.1L47.161,62.149H21.647L19.981,45.5c0-.033,0-.067,0-.1a1.006,1.006,0,0,1,1-1H47.827A1.006,1.006,0,0,1,48.832,45.4Zm-2.22-11.463v-2.4a4.867,4.867,0,0,0-1.435-3.464l-1.569,1.57a2.661,2.661,0,0,1,.785,1.894V42.173H38.66L36.652,31.131l1.284-4.5h.907v-1.6a.416.416,0,0,1,.71-.295l1.128,1.129,2.254-2.254,2.105.7a9.5,9.5,0,0,1,4.878,3.726,11.694,11.694,0,0,0,1.132,1.436v7.262A14.078,14.078,0,0,1,46.612,33.934Zm15.537,6.019H53.271V24.416h8.878v8.847c0,.011,0,.021,0,.032v2.22c0,.013,0,.027,0,.04v4.4h0Zm4.439-2.22a2.222,2.222,0,0,1-2.22-2.22v-2.22a2.222,2.222,0,0,1,2.22-2.22v6.659Z" transform="translate(0 0)"/>
      </g>
    </g>
  </g>
</svg>
