<svg xmlns="http://www.w3.org/2000/svg" xmlns:xlink="http://www.w3.org/1999/xlink" width="610" height="279.591" viewBox="0 0 610 279.591">
  <defs>
    <clipPath id="clip-path">
      <rect id="Rectángulo_419388" data-name="Rectángulo 419388" width="610" height="279.591" transform="translate(800 2168.458)" fill="#fff" opacity="0.4"/>
    </clipPath>
    <clipPath id="clip-path-2">
      <rect id="Rectángulo_419389" data-name="Rectángulo 419389" width="300.96" height="279.591" transform="translate(0 0)" fill="none"/>
    </clipPath>
    <filter id="Trazado_1043752" x="137.577" y="35.858" width="81.423" height="80.621" filterUnits="userSpaceOnUse">
      <feOffset dy="3" input="SourceAlpha"/>
      <feGaussianBlur stdDeviation="3" result="blur"/>
      <feFlood flood-opacity="0.161"/>
      <feComposite operator="in" in2="blur"/>
      <feComposite in="SourceGraphic"/>
    </filter>
    <clipPath id="clip-path-3">
      <rect id="Rectángulo_419390" data-name="Rectángulo 419390" width="66.85" height="92.116" fill="none"/>
    </clipPath>
    <clipPath id="clip-path-4">
      <rect id="Rectángulo_419391" data-name="Rectángulo 419391" width="97.467" height="102.077" fill="none"/>
    </clipPath>
  </defs>
  <g id="Enmascarar_grupo_1098809" data-name="Enmascarar grupo 1098809" transform="translate(-800 -2168.458)" clip-path="url(#clip-path)">
    <rect id="Rectángulo_419387" data-name="Rectángulo 419387" width="505" height="110.934" rx="10" transform="translate(852.5 2312.033)" fill="#1d7083"/>
    <g id="Grupo_1203648" data-name="Grupo 1203648" transform="translate(970.616 2219.55)">
      <g id="Grupo_1203647" data-name="Grupo 1203647" transform="translate(0 -51.091)" clip-path="url(#clip-path-2)">
        <path id="Trazado_1043624" data-name="Trazado 1043624" d="M2692.958,841.255c-1.35,2.657-2.8,5.295-3.349,8.252a8.127,8.127,0,0,0,2.635,7.753c1.617,1.526,3.2,3.09,4.795,4.637.67.214.9.818,1.2,1.357a3.761,3.761,0,0,0,.354.656c1.979,2.293,4.142,4.489,3.668,8.027a5.95,5.95,0,0,0,1.581-2.78,2.909,2.909,0,0,1,2.883-1.955c3.046-.022,6.093,0,9.136-.226a40.421,40.421,0,0,1,20.038,15.31c3.275,4.616,4.627,10.2,5.946,15.659a56.8,56.8,0,0,1,1.278,20.044,23.26,23.26,0,0,1-2.883,8.431,73.846,73.846,0,0,1-16.86,20.852,117.216,117.216,0,0,1-10.234,8.468c-1.112-.113-1.286-1.06-1.6-1.847-4.449-11.331-8.376-22.849-12.369-34.346-2.177-6.267-5.56-11.987-8.694-17.815a146.444,146.444,0,0,0-9.415-15.511,13.342,13.342,0,0,0-2.993-3.319c-2.272-2.224-4.227-4.756-6.785-6.709-6.145-4.692-12.519-8.921-20.142-10.877-1.91-.49-2.334-1.135-2.223-2.888.248-3.909-.417-4.959-4.009-6.316a2.277,2.277,0,0,1-.962-.559c-.642-.987-.314-2.04-.252-3.093a11.214,11.214,0,0,0-3.007-8.546c-3.887-4.4-9.048-5.831-14.626-6.5-3.217-.383-6.452-.09-9.653-.537a1.11,1.11,0,0,1-.347-.5,2.768,2.768,0,0,1,.311-1.974,35.388,35.388,0,0,0,3-10.661,3.678,3.678,0,0,1,.427-1.408c.842-.817,1.2.068,1.6.515a13.6,13.6,0,0,0,2.907,2.834c.854.337,1.6-.1,2.371-.342,2.627-.648,3.48-2.416,3.805-5.012,1.127-8.984,3.212-17.808,4.757-26.726a8.986,8.986,0,0,0,.049-3.7c.863-1.873,2.225-2.054,3.433-.451a8.366,8.366,0,0,1,.982,2.2c-.089,3.193-1.225,6.185-1.837,9.279-1.346,6.8-2.242,13.678-3.824,20.591.874,0,1.3-.613,1.87-.874.821-.294,1.4-1,2.206-1.317,1.1-.585,1.387-1.728,1.762-2.747a44.5,44.5,0,0,0,2.79-12.48c.1-1.576.926-3.14.2-4.752-.167-1.457-1.308-2.711-.906-4.289a1.928,1.928,0,0,1,.691-.871,25.43,25.43,0,0,1,13.475-4.56,3.6,3.6,0,0,1,2.819,1.644c.96,1.107,16.547.919,18.38,1.861,10.041,5.163,16.7,13.074,19.778,24,2.056,7.31.587,14.1-2.665,20.691a33.266,33.266,0,0,0-1.49,3.419" transform="translate(-2448.455 -737.88)" fill="#86b60c"/>
        <path id="Trazado_1043625" data-name="Trazado 1043625" d="M817.986,3577.365A285.86,285.86,0,0,1,788,3574.256a317.906,317.906,0,0,1-41.126-9.009c-1.8-1.925-1.057-4.368-1.246-6.587a19.916,19.916,0,0,1,.186-4.444,38.38,38.38,0,0,1,1.363-7.7c2.1-6.478,5.007-12.466,10.08-17.223,3.841-3.6,8.028-5.583,13.538-4.57a114.646,114.646,0,0,1,15.353,4.01c.6.285,1.255.439,1.84.76a71.073,71.073,0,0,1,7.7,3.052c1.219.575,2.372,1.279,3.583,1.871,2.758,1.449,5.408,3.089,8.137,4.589a143.2,143.2,0,0,1,16.541,12.022,5.079,5.079,0,0,0,1.1.687c2.615,1.939,5.207,3.909,7.668,6.044q2.794,2.035,5.534,4.137c.587.448,1.258.833,1.5,1.609.1.9-.562,1.325-1.145,1.78-5.4,4.21-11.13,7.951-16.829,11.733-1.2.8-2.51.46-3.8.347" transform="translate(-697.827 -3298.735)" fill="#201f50"/>
        <path id="Trazado_1043626" data-name="Trazado 1043626" d="M2115.5,3672.182a292.5,292.5,0,0,1-40.912,6.928,416.938,416.938,0,0,1-49.9,2.375c-4.366-.067-8.729-.276-13.094-.42-.392-.668.167-.919.57-1.137,8.486-4.575,15.548-11.037,22.839-17.2,7.4-6.252,14.975-12.254,23.667-16.682,5.95-3.03,11.94-5.913,17.641-6.5a55.993,55.993,0,0,0-15.525,5.14c-2.215,1.091-4.731,1.555-6.981,2.658a1.188,1.188,0,0,1-1.4-.2c-.023-1.274,1.055-1.583,1.877-2.047,5.316-2.993,10.708-5.826,16.645-7.434a4.273,4.273,0,0,0,.51-.232c6.739-1.866,13.534-3.253,20.588-2.52a22.322,22.322,0,0,1,3.023.4c.556.156,1.133.237,1.685.416,1.028.414,2.125.635,3.145,1.078,1.225.458,2.344,1.142,3.547,1.651,7.325,4.334,11.323,10.872,12.691,19.156.346,2.1.444,4.219.618,6.335-.121,1.6-.149,3.207-.111,4.81a4.475,4.475,0,0,1-1.121,3.41" transform="translate(-1882.632 -3401.937)" fill="#201f50"/>
        <path id="Trazado_1043627" data-name="Trazado 1043627" d="M434.226,2293.911a133.828,133.828,0,0,0-15.913-4.042,13.079,13.079,0,0,0-11.063,3.152,34.276,34.276,0,0,0-9.75,13.723c-.575,1.417-1.061,2.871-1.588,4.307-2.652-1.367-5.358-.241-8.034-.147-5.1.179-10.208.659-15.2-.93a15.376,15.376,0,0,1-2.538-6.757c-1.578-8.2.192-16.016,2.862-23.72a24.992,24.992,0,0,0,1.549-4.789,2.665,2.665,0,0,1,.378-2.313c1.362-3.011,2.677-6.043,4.008-9.068.644-2.271,2.2-4.05,3.375-6.013,6.423-10.7,12.33-21.711,18.9-32.33a167.328,167.328,0,0,1,12.891-18.832c.7-.851,1.3-2.1,2.827-1.573a26.406,26.406,0,0,0,3.68,4.223,6.215,6.215,0,0,1,1.611,2.277c2.477,6.961,4.624,13.994,4.52,21.5a13.27,13.27,0,0,1-.076,1.684c-.294,2.07-1.251,2.744-3.23,2.13-2.154-.667-4.374-1.028-6.552-1.575a9.007,9.007,0,0,0-4.262.068c-1.9.432-2.516,1.372-1.917,3.273.975,3.1,2.309,6.067,3.351,9.144a51.145,51.145,0,0,1,1.588,7.121,2,2,0,0,1-.44,1.925c-.932.491-1.557-.16-2.149-.664a61.941,61.941,0,0,1-8.383-9.232,38.818,38.818,0,0,1,2.66,4.088c1.984,3.943,4.932,7.157,7.89,10.354,1.609,1.74,3.369,3.339,5,5.059.6.629,1.352,1.331.956,2.273-.382.91-1.393.95-2.265,1.035-3.262.315-5.952-1.146-8.494-2.889a85.486,85.486,0,0,1-9.842-8.526c.53.649,1.2,1.217,1.781,1.865,1.1,1.472,2.746,2.475,3.585,4.172a22.833,22.833,0,0,0,1.229,2.309c1.189,1.924.666,3.348-1.472,4.051-2.373.781-4.837,1.272-7.188,2.122-5.178,1.873-10.352,3.77-14.335,7.837a13.513,13.513,0,0,0-2.006,2.467c-.4.667-1.317,1.4-.807,2.107.482.665,1.538.155,2.285-.021,2-.472,4.015-.951,5.969-1.613a89.34,89.34,0,0,1,27.281-4.275c.973-.018,2.027-.187,2.819.661-.118,1.019-.974.982-1.668,1.139-3.654.826-7.386,1.195-11.07,1.847a96.032,96.032,0,0,0-20.634,5.973,3.012,3.012,0,0,0-1.855,1.289,3.5,3.5,0,0,0,2.417.674,38.34,38.34,0,0,0,9.859-.8c10.086-2.047,20.189-4.015,30.226-6.3,1.95-.444,3.826-1.146,5.762-1.631,1.989-.5,2.61.02,1.971,1.88a4.718,4.718,0,0,0,.756,4.729,16.166,16.166,0,0,1-.187,4.341c-.039.582-.253,1.225-1.07,1.235" transform="translate(-345.881 -2063.269)" fill="#fec53b"/>
        <path id="Trazado_1043628" data-name="Trazado 1043628" d="M3315.673,2374.028a61.086,61.086,0,0,0-1.1-8.323,25.058,25.058,0,0,0-10.543-15.543c-.459-.308-.882-.672-1.322-1.01a1.8,1.8,0,0,1-.653-1.467c.334-2.116,0-4.286.538-6.379.692-1.123,1.471-.61,2.195-.064a26.173,26.173,0,0,1,2.412,2.61c6.745,6.68,13.384,13.476,20.676,19.576a17.761,17.761,0,0,0,6.172,3.473,3.737,3.737,0,0,0,3.686-.68c5.74-4.607,7.715-14.159,4.266-20.658a15.485,15.485,0,0,0-2.419-3.084c-.517-.568-1.294-1.087-.855-2.074,1.118-.613,1.907.121,2.686.71a23.2,23.2,0,0,1,3.563,3.675c1-7.777-4.19-14.046-12.2-14.741-3.586-.312-7.243-.489-10.525,1.562-1.706.291-3.331-.3-4.993-.463a94.164,94.164,0,0,0-12.652-.755,3.344,3.344,0,0,1-1.457-.266c-1.023-.572-.612-1.356-.059-1.833a75.858,75.858,0,0,0,8.621-9.082.768.768,0,0,1,.87-.157c1.117.847.721,1.881.309,2.874a28.627,28.627,0,0,1-3.62,5.838,9.871,9.871,0,0,0,5.23-2.494,21.207,21.207,0,0,0,6.387-8.876,41.264,41.264,0,0,0,2.282-15.431c-.206-11.7-5.549-21.637-10.472-31.73-1.188-2.436-1.36-2.3-2.993-.138a51.568,51.568,0,0,0-7.728,13.416c-1.751,4.826-2.844,9.767-2.28,14.872a17.7,17.7,0,0,0,9.11,14.064,7.341,7.341,0,0,0,3.076.7c.949.1,1.84.473,1.779,1.543-.092,1.59.168,3.262-.734,4.735a6.192,6.192,0,0,0-1.868,1.47,57.613,57.613,0,0,1-10.259,9.514c-.214-.027-.033.427-.036.177,0-.076.048-.085.127-.107.419-.11.738-.08.729.471-.848,1.052-1.832.44-2.785.235a4.066,4.066,0,0,1-2.621-1.606,16.381,16.381,0,0,1-1.158-4.712c-.549-3.454-1.49-6.834-1.921-10.309-.01-.726-.008-1.453-.009-2.178a85.586,85.586,0,0,1,8.037-36.974c1.391-2.992,3.141-5.81,4.79-8.674a11.709,11.709,0,0,0,1.516-3.2c1.017-2.346,2.15-4.6,4.643-5.765,1.5.593,2.211,1.966,3.077,3.166,5.537,7.669,9.781,16.094,14.226,24.4,4.627,8.649,6.911,18.185,10.362,27.279,2.192,5.776,4.29,11.588,6.448,17.377a6.519,6.519,0,0,0,.679,1.1c.7,2.992,2.177,5.7,3.142,8.6a35.03,35.03,0,0,1,.631,21.9,10.149,10.149,0,0,0-.224,1.277c.378,1.842-.6,3.368-1.263,4.921-1.124,2.629-2.5,5.12-5.293,6.4a78.577,78.577,0,0,1-10.512,3.992c-3.806.053-7.421-1.25-11.176-1.577-1.414-.123-2.811-.458-4.23-.558a3.353,3.353,0,0,1-2.3-1.02" transform="translate(-3082.209 -2112.235)" fill="#f3a62f"/>
        <path id="Trazado_1043629" data-name="Trazado 1043629" d="M33.6,1343.08l-4.924,11.262c-2.168-.917-3.8-2.6-5.541-4.076a64.47,64.47,0,0,1-18.027-24.212A67.945,67.945,0,0,1,.191,1304.3c-1.243-16.538,3.612-31.12,13.922-43.939a81.959,81.959,0,0,1,18.11-16.076A129.1,129.1,0,0,1,67.085,1227.3a158.533,158.533,0,0,1,26.793-5.827,20.513,20.513,0,0,1,3.711-.353,3.3,3.3,0,0,1,1.858,3.781,2.493,2.493,0,0,1-1.884.66,158.635,158.635,0,0,0-53.4,15.365,72.98,72.98,0,0,0-23.046,17.7,79.7,79.7,0,0,0-12.746,18.659c-3.926,8.29-5.865,16.96-4.893,26.171a5.039,5.039,0,0,1,.047,1.309c-.914,5.69,1.832,10.173,4.876,14.5,6.042,8.592,13.792,15.431,22.336,21.428a11.3,11.3,0,0,1,2.863,2.384" transform="translate(0 -1142.903)" fill="#496406"/>
        <path id="Trazado_1043630" data-name="Trazado 1043630" d="M1483.2,59.1c-.719-2.178-.446-4.447-.523-6.668-.2-5.882-.023-11.757,1.7-17.453,1.708-5.652,4.668-10.474,9.777-13.954-1.908-1.677-3.773-3.3-3.63-6.053a5.345,5.345,0,0,1,1.457-3.432c.972,4.229,2.563,5.154,6.778,4.129,3.963-.964,7.542-2.973,11.424-4.159,4.34-1.326,8.677-1.867,13.006-.009a2.515,2.515,0,0,0,1.976-.082,20.727,20.727,0,0,1,4.809-1.29c-1.366-1.707-2.688-3.248-3.882-4.882-1.337-1.828-.95-2.57,1.342-2.827a11.245,11.245,0,0,1,8.215,2.5,30.312,30.312,0,0,1,4.421,4.1c-1-2.866-2.077-5.7-.672-9.01,3.229,5.778,8.188,8.334,14.181,9.342,3.2.538,6.18,1.552,7.924,4.862.234-1.792-.487-3.226-.734-4.757,2.171,1.022,3.108,2.688,3.238,5.7,1.348-1.586,1.556-2.468,1.694-7.354,2.1,1.516,2.455,3.558,2.239,5.8-.175,1.822-1.057,3.055-3.051,3.173.163.719.759.877,1.211,1.155,9.489,5.839,13.982,14.62,15.005,25.446.164,1.74.288,3.485.431,5.227,1.274,2.573.827,5.217.323,7.861-.364.624-.8,1.089-1.612.74-1.579-.743-1.651-2.191-1.7-3.648-.688-3.322-.276-6.716-.694-10.071-.773-6.205-2.586-11.928-6.554-16.879-1.744-2.177-4.09-3.626-6.037-5.379a21.169,21.169,0,0,1,3.112,4.525,27.625,27.625,0,0,0,3.842,5.746c1.442,1.579,1.177,2.328-.869,3-1.221,0-1.674-.9-2.161-1.8a34.173,34.173,0,0,0-9.359-11.3c-6.866-5.165-14.727-7.512-23.16-8.109a53.011,53.011,0,0,0-21.874,3.292A33.811,33.811,0,0,0,1494.8,34.9c-.546,1.182-.929,2.524-2.577,2.626-2-.387-2.729-1.147-2.918-3.031a7.9,7.9,0,0,1,6.487-8.525c-1.663-.784-1.856-1.291-.929-2.44-5.011,5.285-8.221,11.438-8.654,18.79-.26,4.411-.912,8.835-.154,13.265a6.766,6.766,0,0,1,.256,2.011,2.615,2.615,0,0,1-1.857,2.167,1.251,1.251,0,0,1-1.255-.662" transform="translate(-1387.655 -0.004)" fill="#1f1f51"/>
        <path id="Trazado_1043631" data-name="Trazado 1043631" d="M3900.124,1699.74c-2.947.714-5.948.425-8.927.429-1.318,0-2.1.351-2.441,1.687a24.61,24.61,0,0,1-1.013,2.807c-.2.529-.446,1.106-1.158.992-.632-.1-.631-.68-.684-1.174-.046-.433-.093-.867-.114-1.3-.1-2.082-.426-3.942-2.445-5.251-1.185-.769-1.646-2.3-1.947-3.732,0-3.242,0-6.484.008-9.725a6.384,6.384,0,0,1,6.435-6.771c3.551-.115,7.109-.085,10.662-.02,2.7.049,5.475,2.174,5.644,4.833a56.573,56.573,0,0,1-.219,13.226,6.374,6.374,0,0,1-.373,1.051,3.345,3.345,0,0,1-3.428,2.949" transform="translate(-3632.81 -1570.179)" fill="#86b60c"/>
        <path id="Trazado_1043632" data-name="Trazado 1043632" d="M4173.825,1979.871c1.423-.657,2.335-1.908,3.428-2.949,4.324,1.769,8.743,3.289,12.908,5.465,9.3,4.86,15.679,12.064,16.982,22.651a46.161,46.161,0,0,1-4.015,24.808,55.272,55.272,0,0,1-3.9,7.868c-.273.416-.453.894-.931,1.136a42.471,42.471,0,0,0,2.587-15.574,63.973,63.973,0,0,0-6.365-26.318c-2.342-4.878-6.534-8.283-10.751-11.531a43.431,43.431,0,0,0-9.94-5.555" transform="translate(-3906.511 -1850.31)" fill="#496406"/>
        <path id="Trazado_1043633" data-name="Trazado 1043633" d="M3023.931,755.448c.383-2.729.011-5.473.166-8.207a112.546,112.546,0,0,1,14.544-.778,53.91,53.91,0,0,1,27.474,7.414c9.208,5.509,14.259,13.745,15.391,24.5.933,8.866-1.745,16.563-6.785,23.648-.077-2.156.958-3.995,1.813-5.838,4.918-10.6,2.494-20.286-3.6-29.5a35.986,35.986,0,0,0-13.655-11.943c-1.731-.91-3.312-1.5-5.429-.4a15.857,15.857,0,0,1-8.5,1.429c-1.067-.079-3.781-1.479-4.365-2.466-1.813-3.06-4.366-2.466-6.874-1.8-3.552.941-7.071,2.069-10.052,4.373a.293.293,0,0,1-.179-.26c0-.114.017-.172.047-.172" transform="translate(-2830.218 -698.648)" fill="#496406"/>
        <path id="Trazado_1043634" data-name="Trazado 1043634" d="M1925.743,3707.392c1.525.021,2.564-1.206,3.943-1.544,3.861-.946,7.286-3,11.02-4.305,3.7-1.3,7.516-1.635,11.289-2.353a.779.779,0,0,1,.905.339c-.775.689-1.782.364-2.631.534-7.435,1.489-14.151,4.747-20.7,8.38-8.929,4.953-16.588,11.608-24.324,18.183-5.78,4.914-11.577,9.843-18.24,13.6-.672.38-1.635.289-2.035,1.142a85.149,85.149,0,0,1-8.8-.5c2.212.427,3.667-1.069,5.28-2.116,5.318-3.454,10.522-7.073,15.575-10.906.3-.231.606-.438.641-.858.051-.919.766-1.341,1.377-1.845,1.509-1.245,3.215-2.229,4.685-3.525a234.807,234.807,0,0,1,19.318-13.441c.8-.482,1.563-1.336,2.7-.792" transform="translate(-1756.011 -3462.248)" fill="#2a3272"/>
        <path id="Trazado_1043635" data-name="Trazado 1043635" d="M307.218,3907.548a47.959,47.959,0,0,0,.465,11.267c-9.08-2.706-17.876-6.216-26.765-9.459a11.918,11.918,0,0,1-3.912-2.15c-.991-.877-.888-1.479.278-2.079,2.706-1.391,5.664-1.844,8.6-2.4.541-.1,1.137.023,1.567-.452a.927.927,0,0,1,.73.031c3.926,2.553,8.574,2.38,12.9,3.4,1.39.328,2.81.566,4.225.793a2.723,2.723,0,0,1,1.912,1.042" transform="translate(-258.632 -3652.303)" fill="#496406"/>
        <path id="Trazado_1043636" data-name="Trazado 1043636" d="M440.264,3852.853c-4.85-.861-9.691-1.781-14.556-2.555a10.1,10.1,0,0,1-5.215-2.712c-.536-1.174-1.654-1.99-2.014-3.272.931-.848,1.9-.155,2.83-.03a67.279,67.279,0,0,0,16.836-.269c1.316-.155,3.075-.869,3.563,1.375l-1.445,7.464" transform="translate(-391.677 -3597.608)" fill="#f4a52c"/>
        <path id="Trazado_1043637" data-name="Trazado 1043637" d="M3636.549,4087.619a134.547,134.547,0,0,1,14.69,2.241c1.022.224,2.011.605,3.016.914a118.731,118.731,0,0,1-17.035,4.99l-1.27.308c.558-2.792.392-5.636.6-8.453" transform="translate(-3403.084 -3825.826)" fill="#496406"/>
        <path id="Trazado_1043638" data-name="Trazado 1043638" d="M1475.68,922.683l1.105.388c1.027.295,1.433,1.179,1.8,2.027,3.2,7.292,5.427,14.83,5.712,22.851a2.826,2.826,0,0,1-.2,1.646c-1.716.718-2.2-.629-2.854-1.7-1.962-6.512-3.891-13.037-6.084-19.479a6.9,6.9,0,0,1-.568-2.915c-.081-1.111.738-1.874,1.086-2.82" transform="translate(-1380.136 -863.59)" fill="#385fb2"/>
        <path id="Trazado_1043639" data-name="Trazado 1043639" d="M4085.879,3909.107c3.5-3.013,5.04-7.16,6.556-11.321a26.009,26.009,0,0,1,7.113,2.2c2.262,1.155,2.29,2.351.03,3.724a47.814,47.814,0,0,1-9.048,4.014,22.881,22.881,0,0,1-4.65,1.382" transform="translate(-3824.198 -3648.151)" fill="#496406"/>
        <path id="Trazado_1043641" data-name="Trazado 1043641" d="M1469,966.712c1.537,2.873,2.318,6.03,3.317,9.1,1.446,4.435,2.71,8.929,4.051,13.4-1.838.132-2.5-.5-2.548-2.456a17.854,17.854,0,0,0-1.688-3.734,82,82,0,0,1-3.385-13.587,3.525,3.525,0,0,1,.253-2.717" transform="translate(-1374.538 -904.799)" fill="#f4d23f"/>
        <path id="Trazado_1043642" data-name="Trazado 1043642" d="M1295.37,1577.325a37.945,37.945,0,0,0-4.181,5.694,2.767,2.767,0,0,1-1.413,2.127c-2.087.21-2.65,2.129-3.607,3.451a30.634,30.634,0,0,0-5.083,11.338,2.52,2.52,0,0,1-.906,1.789c-3.1,1.509-3.727,1.367-5.714-1.475-2.286-3.268-4.28-6.759-7.19-9.208a37.071,37.071,0,0,1,3.582,16.369,10.612,10.612,0,0,1-.447,3.135,35.839,35.839,0,0,1-12.441,22.9,5.476,5.476,0,0,1-2.446,1.316c-3.78-1.185-7.422-2.555-8.869-6.8a98.164,98.164,0,0,1,.047-11.793,6.072,6.072,0,0,0-.087-1.677,7.046,7.046,0,0,1-.043-1.634c.361-2.373.121-4.574-1.806-6.3a5.565,5.565,0,0,0-3.966-1.354c-10.1,0-20.2.388-30.3.5-3.51.037-7.11-.177-10.617.574a3.06,3.06,0,0,0-1.373.516,14.036,14.036,0,0,0-3.012,3.651,6.04,6.04,0,0,0-.541,3.088c0,4.607.02,9.214-.006,13.821-.013,2.322-.679,2.813-3,2.5-3.155-.421-6.329-.837-9.2,1.113a6.44,6.44,0,0,0-2.435,2.142c-.469.671-.95,1.282-1.9,1.125a33.407,33.407,0,0,1-10.664-9.559c-5.087-7.357-7.864-15.818-10.576-23.08.572,2.568,2.367,5.91,3.17,9.583a69.752,69.752,0,0,1,1.389,10.756,88.57,88.57,0,0,0,2.026,16.142,25.272,25.272,0,0,0,3.617,8.181c.41.6,1.1,1.233.715,2.006-.418.842-1.4.81-2.177.732-2.908-.292-5.855.316-8.742-.408a4.087,4.087,0,0,1-.874-.947c-.989-2.291-.783-4.755-1.045-7.154-.351-3.212-.9-6.4-1.306-9.6a4.25,4.25,0,0,0-.185-2.473c.023-1.993-.891-3.862-.785-5.866a7.275,7.275,0,0,0,.319-3.51c-.513-6.089-.729-12.216-2.008-18.216a92.35,92.35,0,0,0-10.205-27.25c-.227-.392-.407-.782-.947-.742-.569-.29-1.263-.309-1.755-.781.076-1.107,1-1.531,1.725-2.081,5.356-4.049,10.967-7.661,17.347-9.914,1.351-.477,1.582-1.179,1.115-2.555a7.052,7.052,0,0,1,2.348-8.4,2.906,2.906,0,0,1,2.92-.8c.154.461.143.914.7,1.274a31.306,31.306,0,0,1,5.351,4.32,14.6,14.6,0,0,1-3.575-4.027,5.488,5.488,0,0,0-2.368-2.272c-1.092-1.989-.743-4-.008-5.971,1.293-3.465,3.911-5.729,7.043-7.477,4.271-2.384,8.98-2.989,13.746-3.176,2.227-.087,4.5-.356,6.706.313a4.66,4.66,0,0,1,1.9,4.915,1.517,1.517,0,0,1-.354.534c-1.065.719-2.283.508-3.454.529-3.612.065-7.26-.309-10.776.869-2.024.678-4.076,1.352-4.9,3.648-.584,1.7.031,3.245.639,4.786.383.971,1.1,1.771,1.445,2.764a5.409,5.409,0,0,0,2.271,3.922c6.465,5.223,12.7,10.74,19.613,15.393,1.023.688,2.166,1.41,1.723,2.992a7.76,7.76,0,0,1-.929,1.357,2.9,2.9,0,0,0,.326,3.715c.5.6,1.242,1.031,1.355,1.91a1.151,1.151,0,0,1-1.557,1.153c-2.117-.667-4.343-.345-6.471-.917a23.137,23.137,0,0,1-6.109-2.752,4.5,4.5,0,0,0-2.6-.929,50.537,50.537,0,0,1-11.7-6.951c3.3,2.523,5.946,5.183,8.906,7.486a44.016,44.016,0,0,0,20.116,8.518,4.1,4.1,0,0,1,1.957.55,7.329,7.329,0,0,1,1.115,5.177,14.617,14.617,0,0,1-4.473,9.818,2.917,2.917,0,0,0-1.091,1.643,15.122,15.122,0,0,0,6.231-11.839c.075-1.343-.315-2.764.577-4a3.1,3.1,0,0,1,2.5-.511,83.575,83.575,0,0,0,10.647.62c.793-.021,1.653-.152,2.25.606.671,1.424.329,2.944.375,4.424a16.264,16.264,0,0,0,3.673,10.186,6.306,6.306,0,0,0,.894.954.57.57,0,0,0,.621.076c.183-.7-.452-1.028-.8-1.46a16.331,16.331,0,0,1-3.451-13.334,2.741,2.741,0,0,1,.81-1.838c6.245.263,11.583-2.41,16.89-5.2a60.385,60.385,0,0,0,15.523-11.586,20.652,20.652,0,0,0,3.767-4.982,17.421,17.421,0,0,0-4.7,1.848c-3.442,1.906-6.729,4.055-9.988,6.252a6.672,6.672,0,0,1-2.476,1.278,6.454,6.454,0,0,0-3.2,1.358,46.991,46.991,0,0,1-7.829,3.3,2.138,2.138,0,0,1-2.8-.72,2.619,2.619,0,0,1-.329-1.047c-.148-1.347-.735-2.256-2.24-2.048a2.22,2.22,0,0,0-2.059,2.577,6.271,6.271,0,0,1-.005,1.29,3.031,3.031,0,0,1-2.5,3.041,5.262,5.262,0,0,0-1.368.583c-4.523,2.738-9.12,2.181-13.769.379a7.205,7.205,0,0,1-2.208-1.344,2.251,2.251,0,0,1-.534-2.7,23.325,23.325,0,0,0,.855-3.2,2.245,2.245,0,0,1,2.038-1.553c2.132.476,3.677,1.992,5.422,3.137,2.069,1.358,2.321,1.419,4.269-.008,2.051-1.5,4.026-3.1,5.944-4.767a8.4,8.4,0,0,1,.829-.655,9.263,9.263,0,0,1,2.805-1.961c1.836-.61,3.13-2.031,4.555-3.2,3.8-3.118,8.189-5.418,11.929-8.564,2.482-2.088,5.378-3.875,6.907-6.953.542-.838,1.214-1.576,1.789-2.387,2.775-3.922,1.448-8.217-3.085-9.876-2.672-.979-5.51-.814-8.282-1.077-1.172-.111-2.361.009-3.541-.042a2.614,2.614,0,0,1-2.207-.773c-.575-1.081-.158-2.214-.179-3.325a1.1,1.1,0,0,1,.572-.827c7.934-.527,15.7-.226,22.527,4.624a5.711,5.711,0,0,1,2.134,2.292c2.393,4.649,1.945,9.02-1.389,13.034a68.024,68.024,0,0,1-15.449,13.465c-2.066,1.345-4.123,2.7-6.206,4.022,5.549-3.465,10.911-7.207,16.23-11.011a76.926,76.926,0,0,0,7.456-6.238c.664-.616,1.24-1.469,2.367-1.207,3.934-.131,6.357,2.839,5.429,6.73-.264,1.106-.368,1.882,1.075,2.207,7.74,1.743,14.2,5.97,20.424,10.641a41.9,41.9,0,0,1,7.273,7.232" transform="translate(-1065.474 -1432.789)" fill="#fec53d"/>
        <path id="Trazado_1043643" data-name="Trazado 1043643" d="M1875.446,634.641a51.67,51.67,0,0,1-3.9,14.006c-3.762,6.159-9,10.453-16.037,12.266-9.529,2.455-19.1-2.015-24.323-9.69a6.64,6.64,0,0,0-2.262-2.763c-2.638-3.365-3.809-7.327-4.613-11.428-.118-.6-.218-1.213-.369-1.812-.154-1.28-.622-2.5-.728-3.79-.126-2.129-.807-4.157-1.127-6.25.284-2.54-.618-4.924-1.012-7.37-.768-4.761-1.418-9.513-.615-14.336a9.363,9.363,0,0,1,.268-1.283c.554-1.757,1.461-2.2,3.11-1.4a29.9,29.9,0,0,0,3.771,1.652,7.726,7.726,0,0,0,8.863-2.694,21.957,21.957,0,0,0,3.051-5.773c.883-2.23,1.506-2.61,3.867-2.062a12.348,12.348,0,0,0,11.638-2.986c.595-.53,1.219-1.321,2.085-.988,1.007.387,1.046,1.467,1.116,2.4a6.415,6.415,0,0,1-.967,3.937,9.31,9.31,0,0,1-4.2,3.6c-.693.318-1.883.232-1.92,1.2-.042,1.081.955,1.684,1.839,2.176a7.528,7.528,0,0,0,5.825.4,15.464,15.464,0,0,0,9.447-6.6,10.2,10.2,0,0,1,1.684-2.24c.741-.654,1.338-.593,1.676.423a1.218,1.218,0,0,1,.092.362c.03,3.71,1.964,6.02,5.3,7.393a2.842,2.842,0,0,1,1.506,2.439c.57,3.433.062,6.844-.252,10.242-.114,1.235-.106,2.487-.314,3.717-.376,3.305-.886,6.6-.967,9.928-.458,2.45-.1,5.071-1.528,7.319" transform="translate(-1703.523 -550.211)" fill="#febd84"/>
        <path id="Trazado_1043644" data-name="Trazado 1043644" d="M1648.484,335.216a38.064,38.064,0,0,1,.919-7.288c1.016-7.786,3.1-15.378,4.212-23.146-.608,4.118-1.418,8.2-2.31,12.262-.1.438.117,1.277-.866.972-.024-.007-.034-.1-.029-.149a.956.956,0,0,1,.054-.179c.3-4.608.946-9.2.42-13.838-.09-.791-.126-1.472-1.046-1.743-4.171-1.229-5.8-4.223-5.774-8.36a5.143,5.143,0,0,0-.159-.768c-.859,1.3-1.543,2.448-2.335,3.513a16.126,16.126,0,0,1-11.8,6.806,6.486,6.486,0,0,1-6.534-3.158c-.636-1-.741-1.6.765-1.8a7.686,7.686,0,0,0,4.976-2.74,6.756,6.756,0,0,0,1.17-6.976c-.878.761-1.629,1.49-2.458,2.117a12.713,12.713,0,0,1-12.193,2.187c-1.2-.392-1.646-.182-1.992.994a19.576,19.576,0,0,1-3.077,6.377c-2.868,3.793-6.287,4.81-10.719,3.151a21.521,21.521,0,0,1-2.7-1.284c-2.239-1.218-2.324-1.2-2.764,1.43-.923,5.522-.092,10.955.869,16.382a21.825,21.825,0,0,1,.59,5.568c-1.239.085-1.289-1-1.569-1.724-2-5.149-3.422-10.483-4.934-15.786a15.487,15.487,0,0,1-.541-1.98c2.065,8.88,5.5,17.325,8.2,26a10.4,10.4,0,0,1,.649,3.707,5.314,5.314,0,0,1-2.372,3.949,1.566,1.566,0,0,1-1.885.188,4.321,4.321,0,0,1-1.043-2.151c-3.307-10.442-6.322-20.969-9.188-31.54-.355-1.31-.595-2.691-1.8-3.578.6-2.978-.533-5.248-2.708-7.256-1.315-1.214-1.148-2.921.175-4.932a4.346,4.346,0,0,1,3.066-2.194,6.9,6.9,0,0,1,2.309,1.166c1.611.888,1.848.839,2.6-.93a27.308,27.308,0,0,1,8.981-11.456,39.206,39.206,0,0,1,19.507-8.51,45.506,45.506,0,0,1,23.595,2.371,37.107,37.107,0,0,1,10.006,6.153,50.513,50.513,0,0,1,6.91,8.532c.631.917,1.075,1.721,2.154.442a1.355,1.355,0,0,1,2.008-.178,3.77,3.77,0,0,1,.752,2.625c.04,1.18-.031,2.363.042,3.542.161,2.619,1.04,4.839,3.471,6.207.7.393,1.529.848,1.182,1.848s-1.3,1.039-2.187,1.05a4.087,4.087,0,0,1-2.139-.571c-1.172-.687-1.562-.09-1.69.985q-3,15.984-5.615,32.029c-.143.868-.044,1.747-.174,2.609-.164,1.091-.1,2.268-1.034,3.105-1.875-.809-2.88-2.462-3.938-4.064" transform="translate(-1476.562 -250.785)" fill="#201f51"/>
        <path id="Trazado_1043645" data-name="Trazado 1043645" d="M2775.1,793.154c1.185,0,2.043.861,3.11,1.174a1.677,1.677,0,0,1,.775,2.007q-2.4,12.662-4.7,25.346a50.478,50.478,0,0,0-.747,5.172,2.9,2.9,0,0,1-2.485,2.976,15.074,15.074,0,0,0-1.913.695c-.955-1.062-.749-2.343-.566-3.557,1.609-10.7,3.488-21.356,5.759-31.939a3.865,3.865,0,0,1,.765-1.873" transform="translate(-2591.114 -742.356)" fill="#3659ac"/>
        <path id="Trazado_1043646" data-name="Trazado 1043646" d="M4196.15,2743.744c1.67-1.817.394-3.415.423-4.922.022-1.143-.818-2.69.161-3.332,1.078-.708,2.595-.1,3.856.522,4.351,2.129,4.492,2.837,1.139,6.192a12.641,12.641,0,0,1-4.968,3.451,13.23,13.23,0,0,0-3.356,2.319,2.1,2.1,0,0,1-2.738.025c-1.745-1.19-3.049-2.729-2.856-4.883a7.783,7.783,0,0,1,4.189-6.456,1.275,1.275,0,0,1,.174-.069c2.468-.891,3.153-1.822,3.1,2.011a29.914,29.914,0,0,0,.872,5.142" transform="translate(-3919.583 -2559.998)" fill="#496406"/>
        <path id="Trazado_1043647" data-name="Trazado 1043647" d="M1993.03,1539.24c1.536,1.542,2.979,3.191,4.623,4.607,8.742,7.532,21.139,7.191,29.763-.826,2.048-1.9,3.905-4.011,5.851-6.025a.324.324,0,0,0,0,.31q-.082.4-.166.794c-2.062,8.175-11.281,15.587-19.686,15.721-1.705.027-3.5.672-5.134-.391-5.489-1.371-9.44-4.862-12.735-9.253-.709-.945-1.362-1.93-2.055-2.887a1.934,1.934,0,0,1-.466-2.05" transform="translate(-1865.245 -1438.559)" fill="#1a1749"/>
        <path id="Trazado_1043648" data-name="Trazado 1043648" d="M2754,787.439a4.158,4.158,0,0,1-.114,2.377c-2.119,10.186-4.031,20.41-5.526,30.708-.205,1.413-.216,2.854-.317,4.284-.679.4-1.34.907-2.166.328.676-10.06,3.011-19.862,4.617-29.778.38-2.342.8-4.677,1.222-7.012.084-.467-.012-1.034.563-1.3l1.722.391" transform="translate(-2570.019 -736.641)" fill="#f9d444"/>
        <path id="Trazado_1043649" data-name="Trazado 1043649" d="M2927.352,885.721l.132.431c-.093,1.463,1.455,2.479,1.094,4.014-.392,3.039-1.545,5.887-2.214,8.859-.754,3.346-1.66,6.658-2.234,10.043a3.332,3.332,0,0,1-.792,1.857,5.257,5.257,0,0,1-1.807,1.154c-.91-.646-.77-1.631-.809-2.548-.212-5.082.883-10.011,1.782-14.961a42.069,42.069,0,0,1,1.713-7.043c.344-.936.646-2.138,2.135-1.841a.857.857,0,0,0,1,.034" transform="translate(-2733.639 -828.92)" fill="#395cad"/>
        <path id="Trazado_1043650" data-name="Trazado 1043650" d="M2648.27,1661.873c-3.457,2.944-6.736,6.087-10.461,8.728-5.4,3.828-11.026,7.284-16.667,10.728-.191.117-.413.32-.743.007a11.178,11.178,0,0,1,3.09-2.244,108.932,108.932,0,0,0,17.93-14.324c3.944-3.971,5.813-8.316,3.962-13.845a5.113,5.113,0,0,1-.119-1.114,10.985,10.985,0,0,1,3.176,9.49,6.029,6.029,0,0,0-.168,2.574" transform="translate(-2452.575 -1544.147)" fill="#eea12e"/>
        <path id="Trazado_1043652" data-name="Trazado 1043652" d="M2889.933,835.6c-1.095.418-1.269,1.473-1.565,2.388a65.764,65.764,0,0,0-3.257,24.005l-3.328,2.333c.961-4.961,1.886-9.515,2.72-14.087,1.071-5.879,2.159-11.753,3.5-17.578l.356-.535a4,4,0,0,0,1.574,3.473" transform="translate(-2697.218 -778.833)" fill="#222b70"/>
        <path id="Trazado_1043654" data-name="Trazado 1043654" d="M2961.342,977.057c-.249-2.536.677-4.889,1.206-7.292a107.906,107.906,0,0,1,3.016-11.5,4.78,4.78,0,0,1,1.018-1.964c.671,1.594.166,3.207.027,4.8a47.388,47.388,0,0,1-3.268,13.95c-.4.968-.878,1.792-2,2.012" transform="translate(-2771.643 -895.051)" fill="#f1d043"/>
        <path id="Trazado_1043657" data-name="Trazado 1043657" d="M1703.486,3642.5c-5.764-4.461-11.484-8.983-17.674-12.859-2.058-1.585-2.017-2.085.441-3.066a40.664,40.664,0,0,0,7.189-3.591c3.257-2.119,7.065-1.778,10.688-2.218a2.37,2.37,0,0,1,1.913,1.034,6.949,6.949,0,0,0,3.544,3.116c3.468.969,6.841,2.267,10.422,2.809a39.112,39.112,0,0,0,18.378-1.845c1.318-.437,2.668-.528,3.972-.906.744-.11,1.607-.306,2.021.489.4.76-.178,1.447-.652,2.012a33.245,33.245,0,0,1-8.9,7.656c-5.929,3.385-12.071,6.294-19.034,6.878a8.045,8.045,0,0,1-2.236,0c-2.637-.515-5.327-.655-7.966-1.1-1.5-.255-2.167.047-2.107,1.593" transform="translate(-1576.46 -3388.863)" fill="#f3a630"/>
        <path id="Trazado_1043658" data-name="Trazado 1043658" d="M1966.445,3648.936a.986.986,0,0,1-.048-.18c-.062-.807-1.6-1.145-.949-1.953.588-.725,1.753-.332,2.67-.2,3.191.443,6.381,1.262,9.57,1.256a27.658,27.658,0,0,0,10.5-2.336c4.656-1.939,9.266-4.015,13.173-7.306a28.932,28.932,0,0,0,5.76-6.022c-.582-.55-1.155-.251-1.678-.3-1.692.187-3.385.338-5.066.657a3.632,3.632,0,0,1-3-.471c-.517-.969.353-1,.862-1.189a5.736,5.736,0,0,1,2.03-.17c3.352-.007,6.706-.071,10.055.018a9.01,9.01,0,0,0,7.234-2.732,2.6,2.6,0,0,1,1.971-.318,24.8,24.8,0,0,1,7.106,2.2,2,2,0,0,1,1.4,1.611,85.345,85.345,0,0,0-16.994,7.747c-.641.377-1.255.8-1.881,1.205a128.032,128.032,0,0,0-13.962,9.1c-2.59,1.849-5.037,3.9-7.781,5.529a32.34,32.34,0,0,1-13.352-.373q-3.079-2.355-6.158-4.709c-.475-.363-.968-.7-1.453-1.052" transform="translate(-1839.419 -3395.301)" fill="#ed992f"/>
        <path id="Trazado_1043659" data-name="Trazado 1043659" d="M1382.9,2658.742h10.72c-5.382-6.663-6.183-14.407-6.62-22.2a87.269,87.269,0,0,0-4.119-23.256,12.082,12.082,0,0,1-.59-2.883c1.586,4.51,4.144,8.571,5.754,13.061,2.917,8.133,7.651,14.931,14.909,19.809a3.724,3.724,0,0,1,1.333,1.277.83.83,0,0,1,.03,1.029c-.927,1.369-1.853,2.739-2.726,4.144a1.123,1.123,0,0,1-1.095.547c-1.113-.581-1.6-1.719-2.291-2.659a76.5,76.5,0,0,1-5.841-8.917,6.253,6.253,0,0,0-1.572-1.833,28.738,28.738,0,0,0,3.7,11.772c1.15,2,2.538,3.851,3.59,5.908-.174,2.2-1.929,3.356-3.255,4.744-.928.972-2,1.831-2.976,2.775a2.344,2.344,0,0,1-1.513.668,1.283,1.283,0,0,1-.912-.6c-.32-.5.021-1.394-.725-1.587-.693-.18-1.076.513-1.483.947-2.722,2.912-4.9,6.072-4.914,10.3,0,1.007-.037,2.173-1.325,2.609l-1.57-.543c.805-1.836.287-3.859.805-5.735-.551-1.973.613-3.477,1.418-5.063a18.052,18.052,0,0,1,2.473-2.983c-.165-.707-1.494-.277-1.2-1.341" transform="translate(-1291.064 -2443.223)" fill="#f3a42f"/>
        <path id="Trazado_1043660" data-name="Trazado 1043660" d="M1528.476,3413.207l1.128-.718a1.617,1.617,0,0,1,.429,1.547c-.311,3.715.736,7.171,2.1,10.54,1.432,3.536,3.306,4.37,6.961,3.243a33.258,33.258,0,0,0,5.545-2.693c1.7-.894,3.272-1.418,5.3-.527,1.7.746,3.672-.18,5.533-.227.618-.015,1.234-.18,1.861-.153,1.373.058,2.135.631,1.777,2.136a1.285,1.285,0,0,1-.582,1.046c-1.516-2.048-3.477-.526-5.194-.544a15.289,15.289,0,0,0-9.164,3.2,23.751,23.751,0,0,1-4.772,2.1c-2.171.9-2.174.9-.844,2.55l-8.207-4.654c-3.278-4.671-3.6-9.971-3.226-15.4.051-.737.31-1.522,1.353-1.452" transform="translate(-1429.204 -3193.935)" fill="#f69b6c"/>
        <path id="Trazado_1043661" data-name="Trazado 1043661" d="M1403.922,3391.532c1.179-1.78.536-3.891,1.068-5.809.99-3.575,3.391-6.156,5.8-8.757a1.068,1.068,0,0,1,1.53-.079,1.738,1.738,0,0,1,.215,2.374,5.518,5.518,0,0,1-.7,1.91,15.2,15.2,0,0,0-.261,10.762c.3.9.867,1.847.223,2.849l-7.868-3.252" transform="translate(-1314.007 -3160.348)" fill="#fdc33d"/>
        <path id="Trazado_1043662" data-name="Trazado 1043662" d="M1499.926,3433.638c-1.163-3.482-2.418-6.933-1.546-10.731a9.012,9.012,0,0,1,2.286-4.791l.75.358c-.8.442-.722,1.21-.753,1.956-.2,4.944.306,9.748,2.711,14.2.091.168-.051.463-.086.7l-3.363-1.688" transform="translate(-1402.143 -3199.202)" fill="#ea744b"/>
        <path id="Trazado_1043663" data-name="Trazado 1043663" d="M2102.214,4045.266c1.208-.8,2.4.071,3.6.048,2.528-.049,5.058-.012,7.587-.013a4.13,4.13,0,0,1,2.164.339c-1.9,1.931-4.265,3.265-6.332,4.979a74.23,74.23,0,0,1-7.02-5.353" transform="translate(-1967.577 -3785.869)" fill="#e17f25"/>
        <path id="Trazado_1043664" data-name="Trazado 1043664" d="M2517.905,3096.666c-3.077-2.069-6.575-2.862-10.169-3.366a2.154,2.154,0,0,1-2.147.079,60.632,60.632,0,0,1-10.358-4.327,6.022,6.022,0,0,1-3.152-3.308c-.339-1.044-.543-2.107.724-2.752a48.073,48.073,0,0,0,8.965,2.4,63.8,63.8,0,0,0,13.771.324,4.553,4.553,0,0,0,3-1.246.582.582,0,0,0-.732-.206c-2.942,2.221-6.384,1.724-9.677,1.642a48.867,48.867,0,0,1-10.9-1.4c-1.57-.4-2.915-1.426-4.575-1.527-1.777-.13-2.77-1.327-3.506-2.731a3.02,3.02,0,0,1,.213-3.515c.909-1.1,2.081-.91,3.256-.521a10.079,10.079,0,0,0,5.391,1.247,55.121,55.121,0,0,0,16.808-2.028,9.88,9.88,0,0,0,4.385-2.338c-2.369.814-4.38,1.62-6.44,2.274-5.825,1.852-11.74,2.741-17.851,1.669a11.538,11.538,0,0,1-2.441-.866,2.6,2.6,0,0,1-2.078-3.082,3.806,3.806,0,0,1,3.332-3.315c2.167-.22,4.348-.349,6.524-.475a50.569,50.569,0,0,0,8.1-1.341,2.251,2.251,0,0,0,2.044-2.6c-.072-2.244-.039-4.493-.005-6.74.013-.863-.055-1.773.745-2.4a4.136,4.136,0,0,0,2.68,2.781c1.959.857,3.327,2.812,5.62,3.081a3.218,3.218,0,0,1,2.507,1.006,26.665,26.665,0,0,1,6.367,6.978,20.2,20.2,0,0,0,6.942,6.554c3.4,3.72,4.116,8.145,3.246,12.913-.289,1.579-1.126,3.112.364,4.511-7.156-.488-14.075.9-20.953,2.633" transform="translate(-2329.297 -2860.473)" fill="#fdbe87"/>
        <path id="Trazado_1043665" data-name="Trazado 1043665" d="M2984.066,2808.164c-4.083-1.448-5.986-5.106-8.365-8.274a26.139,26.139,0,0,0-6.971-6.451c8.233-5.908,12.623-14.1,14.225-23.944,1.21-.76,1.867.058,2.418.922a8.443,8.443,0,0,1,.935,3.208c1,5.751.737,11.555.76,17.347,0,1-.061,2,.04,2.992a3.024,3.024,0,0,0,1.53,2.79c.885,1.066.7,2.334.535,3.532-.228,1.708-.245,3.434-.548,5.134a2.1,2.1,0,0,0,.525,2.213,12.85,12.85,0,0,0,1.055,1.1c4.128,4.523,4.087,10.06,3.766,15.646a1.873,1.873,0,0,1-1.348,1.84,2.488,2.488,0,0,1-1.435-.383c-.526-.579-.383-1.286-.368-1.965a43.82,43.82,0,0,0-.036-6.183c-.525-4.333-2.229-7.937-6.719-9.52" transform="translate(-2778.597 -2591.841)" fill="#ec962f"/>
        <path id="Trazado_1043666" data-name="Trazado 1043666" d="M3285.415,3369.477l-.728-.585c1.37-1.3,2.734-.707,4.1.012l2.24.934c3.133,2.471,4.106,5.97,4.612,9.69a1.868,1.868,0,0,1-.434,1.571c.176,2.758-.34,5.483-.387,8.231l-3.4-1.564c-.287-4.548-.682-9.078-2.469-13.346a10.416,10.416,0,0,0-3.536-4.943" transform="translate(-3074.318 -3152.413)" fill="#fde366"/>
        <path id="Trazado_1043667" data-name="Trazado 1043667" d="M3208.176,3376.763c2.781-.422,4.217,1.38,5.439,3.394,2.722,4.488,2.334,9.372,1.684,14.273a9.715,9.715,0,0,1-3.03-.431,1.2,1.2,0,0,0-1.014-.373c-1.035-.019-1.28-.418-.886-1.422a14.8,14.8,0,0,0-2.192-15.442" transform="translate(-3002.707 -3160.44)" fill="#fec33f"/>
        <path id="Trazado_1043668" data-name="Trazado 1043668" d="M3296.055,3389.24c2.913,1.286,3.842,4.074,4.881,6.686,1.294,3.253,1.274,6.791,1.847,10.2a1.437,1.437,0,0,1-.723,1.4l-3.076-.979c1.007-1.631.906-3.455.8-5.238-.246-4.322-.388-8.7-3.734-12.071" transform="translate(-3084.958 -3172.176)" fill="#f8be3c"/>
        <path id="Trazado_1043669" data-name="Trazado 1043669" d="M153.959,881.741c2.147-.556,2.76-2.589,3.93-4.084.407,1.628.826,3.253,1.219,4.885a23.806,23.806,0,0,0,3.838,8.245.547.547,0,0,1-.091.728c-5.916-.034-11.848-.164-17.516,1.966a16.189,16.189,0,0,0-8.637,6.782,8.671,8.671,0,0,0-.784,7.368c.146.438-.068.688-.444.855-4.226.471-6.568,4.894-4.767,9,.94,2.145.942,2.15-1.293,2.958a65.3,65.3,0,0,0-19.456,11.587,2.84,2.84,0,0,1-2.232,1.891c-2.419,1.855-4.014,4.416-5.746,6.838-7.238,10.127-13.387,20.93-19.573,31.71-3.911,6.815-7.9,13.583-11.86,20.373-2.367-.754-4.166-2.435-6.085-3.872a92.783,92.783,0,0,1-11.89-10.239c-4.862-5.127-9.409-10.5-12.169-17.125a8.146,8.146,0,0,1-.695-4.529c.314-1.973-.161-3.975-.211-5.955a50.1,50.1,0,0,1,3.116-19.438,81.944,81.944,0,0,1,37.6-41.326,141.2,141.2,0,0,1,23.666-9.324,128.938,128.938,0,0,1,18.475-4.676c4.61-.69,9.188-1.664,13.876-1.741.737.935,1.089,2.268,2.548,2.455a4.457,4.457,0,0,0,1.9,1.759c.821-.29,1.539.243,2.495.456-3.134-7.807-4.057-16.044-7.067-23.677a11.629,11.629,0,0,1-.949-5.418c-.05-.612-.557-1.143-.327-1.806a1.81,1.81,0,0,1,2.368-1.39c1.232.814,1.355,2.192,1.669,3.435,2.075,8.228,4.254,16.429,6.632,24.575.052.18.089.364.141.544,1.387,4.809,1.387,4.809,6.34,5.881a5.454,5.454,0,0,1,1.989.3" transform="translate(-36.949 -792.67)" fill="#86b60c"/>
        <path id="Trazado_1043670" data-name="Trazado 1043670" d="M908.745,2792.281c.576.64.264,1.439.388,2.161a2.844,2.844,0,0,0-1.422,2.052c-1.391,5.025-3.406,9.865-4.457,14.992a3.52,3.52,0,0,1-.719,1.5c-1.2.912-2.542.676-3.878.524a11.061,11.061,0,0,1-3.854-2.211c-4.217-3.215-8.012-6.927-12.12-10.271a19.633,19.633,0,0,1-3.229-3.859l-3.395-3.745c.506-1.342,1.019-.266,1.382.058,2.224,1.989,4.179,4.308,6.72,5.907,3.24,2.039,5.863,4.827,8.931,7.065a3.453,3.453,0,0,0,5.306-1.8c.871-2.73,1.012-5.592,1.471-7.856-.144,1.084-1.218,1.663-2.674,1.7a8.075,8.075,0,0,1-5.162-1.913c-4.012-3.062-6.975-7.068-9.907-11.1a7.758,7.758,0,0,0-1.167-1.449c-1.559-1.786-2.4-3.986-3.5-6.065,3.891,3.824,6.954,8.43,11.386,11.7,2.648.336,4.017-1.638,5.549-3.193.645-.655.044-1.547-.305-2.267-1.174-2.415-2.2-4.9-3.325-7.333-.337-.729-.759-1.566-.021-2.253.645-.6,1.427-.2,2.124.043,1.708.6,3.345,1.384,5.019,2.073,1.763.726,3.379.808,4.82-.681a1.589,1.589,0,0,1,1.691-.54c.941.542,1.016,1.5,1.168,2.425.737,4.483,1.873,8.886,2.686,13.354a1.386,1.386,0,0,0,.494.978" transform="translate(-819.952 -2596.634)" fill="#e9902b"/>
        <path id="Trazado_1043671" data-name="Trazado 1043671" d="M558.342,3131.2c3.8,3.364,7.581,6.761,11.425,10.08a45.86,45.86,0,0,0,7.352,5.625,3.557,3.557,0,0,1-4.5.07,91.133,91.133,0,0,0-30.507,4.42c-2.347.792-4.816,1.227-7.233,1.809-.609.147-1.3.3-1.73-.293-.463-.64.108-1.194.4-1.7a22.268,22.268,0,0,1,9.808-8.87,80.511,80.511,0,0,1,15.484-5.442c1.343-.362,1.546-.965,1.146-2.156-.419-1.247-1.444-2.2-1.642-3.543" transform="translate(-498.84 -2930.66)" fill="#f3a52f"/>
        <path id="Trazado_1043672" data-name="Trazado 1043672" d="M1016.6,2214.663c-.122.025-.3.007-.358.082-2.439,3.32-5.281,2.015-8.134.733-1.195-.537-2.4-1.056-3.624-1.522-.364-.138-.843-.521-1.2-.061-.318.41.045.83.223,1.212,1.259,2.71,2.468,5.445,3.819,8.108.7,1.382.656,2.392-.6,3.422a31.359,31.359,0,0,0-3.073,2.391,1.6,1.6,0,0,1-2.439-.469c.557-.6.282-1.255.191-1.938-.742-5.555-3.023-10.626-4.912-15.824-.968-2.664-.06-3.876,2.671-4.435,3.752-.768,7.123.691,10.571,1.562,2.3.582,2.6.5,2.752-1.983.354-5.767-1.127-11.236-2.579-16.714-.271-1.02-.728-2-.943-3.025-.579-2.776-2.288-4.767-4.323-6.573a3.567,3.567,0,0,1-1.547-2.856,4.559,4.559,0,0,1,2.232-1.891c.568-.127,1.111-.164,1.5.4.65.1.894.622,1.139,1.13a83.565,83.565,0,0,1,6.658,17.649,6.025,6.025,0,0,1,.2,1.669,13.151,13.151,0,0,0,.633,4.955c.881,4,.867,8.116,1.69,12.117a1.726,1.726,0,0,1-.545,1.863" transform="translate(-932.326 -2035.517)" fill="#f3a62f"/>
        <path id="Trazado_1043673" data-name="Trazado 1043673" d="M617.765,3355.636l4.5-.069c1.4-.067,2.825.271,4.193-.273.579-.7,1.36-.433,2.094-.456,2.284-.07,4.633.469,6.8-.7l.468.7c.736.8,1.822.036,2.864.759a15.22,15.22,0,0,0-5.552,8.628c-2.789-1.746-1.057-3.915-.472-6.195-2.72.75-5.28,1.569-7.892,2.156-11.347,2.547-22.713,5.02-34.186,6.928a19.511,19.511,0,0,1-8-.234c-.535-.136-1.26-.133-1.366-.771-.118-.709.565-1.115,1.1-1.36,1.808-.836,3.633-1.651,5.5-2.343a106.975,106.975,0,0,1,21.733-5.307,69.4,69.4,0,0,0,8.214-1.467" transform="translate(-543.985 -3139.323)" fill="#fadf61"/>
        <path id="Trazado_1043674" data-name="Trazado 1043674" d="M727.069,2297.647c.114,2.323-1.209,4.073-2.533,5.7-6.345,7.778-12.193,15.933-18.3,23.889a50.111,50.111,0,0,1-4.3,4.441c-.21.213-.458.51-.8.337-.424-.214-.353-.655-.217-.985a17.672,17.672,0,0,1,1.054-2.193c4.074-6.934,8.083-13.908,12.283-20.765a59.623,59.623,0,0,1,8.427-11.407,5.157,5.157,0,0,1,.815-.771c.822-.514,1.638-1.45,2.669-.926,1.009.513.918,1.677.9,2.685" transform="translate(-655.929 -2147.836)" fill="#fce265"/>
        <path id="Trazado_1043675" data-name="Trazado 1043675" d="M839.751,2926.166c2.055.841,2.769,2.938,4.056,4.469a48.262,48.262,0,0,0,7.73,7.837,7.152,7.152,0,0,0,4.328,1.566c1.9.007,2.506-.682,2.354-2.646a1.874,1.874,0,0,1,.024-.552c.023-.1.143-.179.33-.4.954,2.168.438,4.295.174,6.378-.172,1.353-.641,2.665-.9,4.01-.3,1.566-.894,2.8-2.779,2.578-1.144-.133-.674.915-1.039,1.37-3.1-1.766-5.5-4.342-8.275-6.426a76.993,76.993,0,0,1-9.538-8.4c-.341-.357-.684-1.038-1.362-.4-.771-.726-1.554-1.439-2.307-2.183-.29-.287-.772-.62-.342-1.084s.882-.225,1.284.171c1.954,1.922,3.93,3.816,5.967,5.657a28.052,28.052,0,0,0,8.735,5.621,9.506,9.506,0,0,0,4.233.351c.439-.03,1.1-.062,1.248-.621.139-.53-.339-.9-.683-1.254-2.69-2.773-5.584-5.352-8-8.386-1.931-2.426-4.074-4.707-5.236-7.659" transform="translate(-778.744 -2738.759)" fill="#f3a52f"/>
        <path id="Trazado_1043676" data-name="Trazado 1043676" d="M3395.717,2456.892c.663-1.521.218-3.192.652-4.756.161-.584-.379-.859-.951-.87-5.509-.106-8.39-3.861-10.836-8.019-3.441-5.851-2.827-12.083-1.312-18.331,1.774-7.314,5.758-13.458,10.243-19.345.844-1.106,1.393-1.162,2.06.1,4.493,8.49,9.011,17.029,10.752,26.564,1.644,9.012,1.488,18.039-3.264,26.3-2.3,4.005-5.412,7.324-10.21,8.434-.447.1-1.058.467-1.4-.038-.438-.65.278-.986.627-1.37a24.17,24.17,0,0,0,3.682-5.831,2.049,2.049,0,0,0-.126-2.126.464.464,0,0,1,.08-.707" transform="translate(-3165.453 -2250.72)" fill="#fec53d"/>
        <path id="Trazado_1043677" data-name="Trazado 1043677" d="M3387.816,3402.264a22.071,22.071,0,0,0-4.178-11.26c.886.077,1.77.76,2.658.011a.721.721,0,0,1,1.082-.061,105.386,105.386,0,0,1,19.881,1.561,1.9,1.9,0,0,1,1.43.275,34.01,34.01,0,0,0,6.186,2.586,24.212,24.212,0,0,1,7.6,4.625c.553.471,1.216.934.973,1.845a25.457,25.457,0,0,1,3.376,3.955c3.292,5.931,3.023,11.912-.244,17.8a15.881,15.881,0,0,1-2.973,3.81c-2.127,2.029-3.467,2.292-6.223,1.083a26.275,26.275,0,0,1-7.122-4.748q-9.446-8.62-18.464-17.691c-.874-.881-1.626-1.881-2.464-2.8-.414-.453-.812-.972-1.521-.99" transform="translate(-3166.931 -3173.578)" fill="#fec53c"/>
        <path id="Trazado_1043678" data-name="Trazado 1043678" d="M3768.665,3398.8a25.576,25.576,0,0,0-11.417-6.831,13.456,13.456,0,0,1-4.774-2.5c.579-1.451,2-1.4,3.152-1.588,6.04-1,11.69-.253,16.429,4.06,2.466,2.246,4.007,4.9,3.733,8.394-.109,1.4-.018,2.807-.018,4.653-2.574-2.365-3.865-5.431-7.1-6.185" transform="translate(-3512.146 -3170.531)" fill="#ea8320"/>
        <path id="Trazado_1043679" data-name="Trazado 1043679" d="M3292.2,2347.605c.79-.41.887-1.351,1.472-1.918.556.534.013.888-.22,1.283a100.151,100.151,0,0,0-10.409,22.883,73.744,73.744,0,0,0-3.3,18.667c-.053,1.978-.358,3.959-.331,5.954-.207.265-.14.585-.189.884-.184,1.118-.588.641-.992.125-.81-2.545.038-5.07.222-7.579.2-2.722.353-5.458.513-8.178a44.57,44.57,0,0,1,2.814-14.194c1.691-2.039,2.013-4.72,3.246-6.978a44.047,44.047,0,0,1,2.536-4.731c1.527-1.175,2.067-3.043,3.172-4.512.4-.539.624-1.219,1.213-1.619l.25-.088" transform="translate(-3067.955 -2195.457)" fill="#df7b1c"/>
        <path id="Trazado_1043680" data-name="Trazado 1043680" d="M3270.381,3151.8c-1.367.348-2.731-.211-4.1-.012-1.149-.092-1.365-.7-1.219-1.787a61.545,61.545,0,0,0,.812-9.66c-.991-1.046-.53-2.152-.144-3.258.411-.6.779-1.33,1.68-.631q1.485,7.675,2.968,15.349" transform="translate(-3055.915 -2935.307)" fill="#496406"/>
        <path id="Trazado_1043681" data-name="Trazado 1043681" d="M3408.818,3228.534l-1.082.061c-.365-.051-.869.028-1.067-.181-.359-.38.147-.665.395-.851a98.532,98.532,0,0,0,10.92-10.164c.188-.193.408-.286.65-.07q-.038.354-.078.708a66.817,66.817,0,0,1-9.739,10.5" transform="translate(-3188.372 -3011.159)" fill="#de7b1c"/>
        <path id="Trazado_1043682" data-name="Trazado 1043682" d="M3279.829,3109.568c-.632-.27-.839.23-1.112.612-.5-.643-.74-1.238.3-1.593.792-.021.18-.99.774-1.145q.02,1.063.04,2.125" transform="translate(-3068.33 -2908.426)" fill="#ec962f"/>
        <path id="Trazado_1043683" data-name="Trazado 1043683" d="M1510.625,898.224q2.778,9.682,5.552,19.364a77.5,77.5,0,0,0,3.77,11.011,10.9,10.9,0,0,1-3.8-1.736,66.358,66.358,0,0,0-2.092-14.009,54.368,54.368,0,0,0-4.979-12.675,4.19,4.19,0,0,0,1.55-1.954" transform="translate(-1412.427 -840.697)" fill="#242d72"/>
        <path id="Trazado_1043685" data-name="Trazado 1043685" d="M2068.449,2753.219c-.029,3.371-.124,6.742-.055,10.111a1.877,1.877,0,0,1-1.68,2.191,54.857,54.857,0,0,1-14.089,1.752,4.362,4.362,0,0,0-3.186.792c-1.682,1.488-1.495,3.475.511,4.991.15.036.21.091.18.168s-.071.129-.113.129c-1.257-.059-2.681-.23-3.249,1.189-.6,1.509.132,2.79,1.324,3.781.62.516,1.284.977,1.928,1.463q.388.117.063.36c-.646,2.176-.173,3.42,1.93,4.842a36.932,36.932,0,0,0,7.238,3.348c1.894.755,3.865,1.321,5.8,1.972-1.037,2.629-3.331,3.169-5.746,3.26-4.158.154-8.323.144-12.485.219-.8.015-1.6.109-2.4.167-.573.87-1.48.833-2.35.836-5.808.026-11.617.063-17.424-.02-1.787-.025-3.544-.551-5.329-.756a5.371,5.371,0,0,1-3.376-3.066q0-.593.007-1.185a3.512,3.512,0,0,1,2.307-1.083,30.59,30.59,0,0,0,5.212-1.475,2.694,2.694,0,0,0,1.933-2.485,3.746,3.746,0,0,1,.777-2.078,2.6,2.6,0,0,0,.491-2.29,2,2,0,0,1,1.33-2.539c1.265-.584,2.016-1.425,1.579-2.95a1.6,1.6,0,0,1,.914-1.862c1.179-.749,2.046-1.743,1.78-3.219-.3-1.647-1.634-2.293-3.088-2.615-2.986-.659-6.042-.9-9.052-1.414-1.444-.248-3.028-.179-4.15-1.418a3.228,3.228,0,0,1-.236-1.645c.024-1.829.551-2.264,2.292-1.8a26.982,26.982,0,0,0,4.508,1.062,8.419,8.419,0,0,1,1.259.077,6.028,6.028,0,0,0,4.164-.134,8.831,8.831,0,0,0,2.463-.844,1.841,1.841,0,0,0,1.052-1.831c-.082-.854-.828-1.04-1.49-1.178-3.9-.812-7.77-1.749-11.659-2.6-2.542-.559-2.625-.657-2.6-3.173.048-4.852-.129-9.706.094-14.558,2.387-3.493,5.665-4.816,9.91-4.917q13.772-.329,27.543-.3a21.9,21.9,0,0,1,2.62.059c1.464.278,1.734,1.078.875,2.231a22.38,22.38,0,0,1-4.649,5.042c-2.534,1.84-4.2,4.542-6.309,6.815a101.256,101.256,0,0,0-6.465,7.938c-.7.4-1.415.787-2.147,1.13a6.337,6.337,0,0,0-3.3,6.536,6.62,6.62,0,0,0,6.345,5.338c.249,0,.5,0,.747-.014,3-.42,5.247-1.74,5.938-4.935a9.6,9.6,0,0,0,.336-3.27,2.9,2.9,0,0,1,1.353-2.131c6.125-5.176,11.9-10.726,17.6-16.36.676-.668,1.039-1.717,2.116-1.959q.054,7.151.107,14.3" transform="translate(-1886.615 -2557.484)" fill="#263173"/>
        <path id="Trazado_1043686" data-name="Trazado 1043686" d="M1591.325,2765.184c-.023,5.178-.023,10.356-.089,15.534-.012.955.5,1.114,1.224,1.267,4.393.926,8.785,1.857,13.168,2.831.781.174,1.885-.029,2.064,1.186a2.816,2.816,0,0,1-1.259,3.09,5.915,5.915,0,0,1-3.181.957,13.064,13.064,0,0,1-4.18,0l-1.094-.108c-.06-.252.112-.372.281-.493-2.545,0-4.8-1.171-7.212-1.725-2.18-.5-4.437-.892-6.543.4-.412.252-1.06.433-.984,1s.721.582,1.218.644c2.033.575,4.148.831,6.133,1.585a3.153,3.153,0,0,1,.686.553c3.95.617,7.9,1.227,11.85,1.856a13.835,13.835,0,0,1,2.192.484c1.44.481,2.6,1.294,2.745,2.97a3.583,3.583,0,0,1-1.98,3.731c-.811.429-1.116.672-.625,1.7.615,1.284-.392,2.684-2.193,3.363-.9.34-1.969.452-.8,1.715a1.09,1.09,0,0,1,.147.536c.09.564.226,1.3-.22,1.607-2.022,1.378-.481,4.952-3.763,5.667-2.553.556-5.057,1.37-7.661,1.73.293-.883.2-1.47-.955-1.357-1.672.163-3.359.217-5.016.468-1.419.214-2.767.685-3.981-.621-.47-.506-1.188-.111-1.752.169-2.231,1.108-4.446,2.248-6.689,3.332a10.286,10.286,0,0,1-3.065.781c-2.794.4-4.417-1.155-5.333-3.448-1.666-4.172-3.237-8.406-2.14-13.051,1.435-1.953,3.616-3.174,5.032-5.158a10.105,10.105,0,0,0,1.334-1.989,1.215,1.215,0,0,1,.329-.4,13.548,13.548,0,0,0,2.676-3.55c2.19-3.242,4.377-6.484,6.738-9.606,2.923-2.584,6.421-2.013,9.788-1.589,2.663.335,2.642.533,2.638-2.244-.006-4.8-.025-9.6-.022-14.4,0-.984-.118-2.026.823-2.737.789,1.2.335,2.275-.326,3.332" transform="translate(-1461.914 -2584.969)" fill="#fdbe86"/>
        <path id="Trazado_1043687" data-name="Trazado 1043687" d="M1965.884,1532.718l.091-.729c.5.919,1.62,1.411,1.788,2.565,3.291,5.463,7.071,10.421,13.28,12.873.7.275,1.4.523,2.105.784.252.49.415,1.023,1.026,1.255a20.867,20.867,0,0,1,1.955,1.092c5.378,2.741,8.818,2.144,13.184-2.019,2.726-2.6,4.448-5.821,6.207-9.048a9.682,9.682,0,0,1,1.132-1.93c.54-.6,1.115-.815,1.685-.01a7.422,7.422,0,0,1,.335,3.307,49.391,49.391,0,0,0,.838,9.987c.083,1.935,2.016,2.663,2.744,4.177.823,1.663.3,3.059-.784,4.413a23.952,23.952,0,0,0-2.42,3.263c-1.92,1.564-3.782,3.2-5.817,4.619a33.444,33.444,0,0,1-6.436,1.838,3.846,3.846,0,0,1-2.552-.082c-1.021-1.706.189-3.137,1.174-3.871,1.886-1.406.942-3.13,1.073-4.7.064-.766-.945-.663-1.5-.747-5.191-.787-9.68-3.139-13.891-6.131-4.975-3.537-8.527-8.328-11.8-13.364-.73-.946-.99-2.181-1.866-3.038a6.411,6.411,0,0,0-1.548-4.5" transform="translate(-1839.978 -1433.873)" fill="#f39a6d"/>
        <path id="Trazado_1043688" data-name="Trazado 1043688" d="M2381.957,2748.647c1.77-3.477,4.674-6.072,7.071-9.061,1.277-1.593,2.7-3.072,3.962-4.675.615-.78,1.525-1.036,2.23-1.606a29.363,29.363,0,0,0,4.345-5.073c.308-.394-.075-.5-.381-.584.141-.912.9-.97,1.553-1.008a27.46,27.46,0,0,1,5.576.072c2.912.424,4.411,2.05,4.77,5.04q.024.8.047,1.595a4.54,4.54,0,0,1-1.639,2.347c-1.56,1.335-2.952,2.868-4.4,4.327-4.393,4.417-9.093,8.5-13.786,12.586a1.714,1.714,0,0,0-.745,1.021c-.82.04-.984-.705-1.262-1.183a6.527,6.527,0,0,0-5.7-3.2c-.6-.041-1.264.07-1.641-.6" transform="translate(-2229.403 -2551.913)" fill="#2d408a"/>
        <path id="Trazado_1043689" data-name="Trazado 1043689" d="M2621.926,1622.755c-1.065-2.405-.759-5.007-1-7.519-.218-2.225-.082-4.485-.1-6.73a.23.23,0,0,1,.066-.367,63.631,63.631,0,0,1,12.858.761,8.042,8.042,0,0,1,4.861,2.967,6.612,6.612,0,0,1-.1,8.012c-.69.957-1.5,1.826-2.262,2.734-.955.8-1.408,2.227-2.926,2.317a34.849,34.849,0,0,1-9.186-.952,3.229,3.229,0,0,1-2.2-1.224" transform="translate(-2452.908 -1505.133)" fill="#e6791c"/>
        <path id="Trazado_1043690" data-name="Trazado 1043690" d="M3139.539,2487.7c-.452.465-.326,1.038-.3,1.592q-.213,1.639-.425,3.278c-.458.521-.886.623-1.3-.06a5.793,5.793,0,0,1-.962-3.151c.045-4.352.112-8.708-.015-13.057a47.805,47.805,0,0,0-1.128-9.011c-.256-1.146-.76-2.141-2.2-2.1,1.016-5.108-.112-10-1.437-14.889-.586-2.165-1.909-4.024-2.506-6.234a52.633,52.633,0,0,1,4.994,4.632,48.349,48.349,0,0,1,4.439,6.448c1.054,1.77,2.241,2.187,3.966,1.094.219-.139.428-.257.672-.057.4.381,0,.761,0,1.141a4.18,4.18,0,0,1-.351,1.813,35.089,35.089,0,0,0-2.294,11.648c-.37,5.638-.766,11.275-1.151,16.912" transform="translate(-2928.853 -2287.536)" fill="#f3a52f"/>
        <path id="Trazado_1043691" data-name="Trazado 1043691" d="M2472.613,2035.083c3.937-2.511,7.737-5.23,11.825-7.511a28.556,28.556,0,0,1,6.41-2.532c-.355,2.372-1.916,3.894-3.279,5.35a61.954,61.954,0,0,1-28.188,17.552,24.964,24.964,0,0,1-3.289.632,1.875,1.875,0,0,1-2.146-.735c-.864-1.279-.024-2.251.583-3.267,3.635-3.194,8.2-4.679,12.463-6.708,1.47-.7,2.825-1.576,4.251-2.338.443-.236.823-.564,1.368-.443" transform="translate(-2296.437 -1895.346)" fill="#f4a52e"/>
        <path id="Trazado_1043692" data-name="Trazado 1043692" d="M1679.471,1624.741a4.415,4.415,0,0,1,2.592-3.206,16.8,16.8,0,0,1,7.685-2.024c3.17-.116,6.348-.025,9.523-.023a1.889,1.889,0,0,1,.91,1.541,19.326,19.326,0,0,1-.906,10.21,1.875,1.875,0,0,1-.677.867c-1.688.745-3.4.342-5.125.133a31.779,31.779,0,0,1-9.137-2.457,7.945,7.945,0,0,1-4.865-5.041" transform="translate(-1571.909 -1515.734)" fill="#e6791c"/>
        <path id="Trazado_1043693" data-name="Trazado 1043693" d="M2071.185,2709.395c-1.359-3.408-2.815-4.435-6.529-4.395-1.79.02-3.609-.319-5.37.292-7.548.032-15.1-.045-22.642.147-3.486.089-6.979.124-10.462.312-2.572.139-4.527,1.577-6.227,3.418-.258.28-.265,1.159-1.039.6a7.1,7.1,0,0,1,.325-3.333,8.382,8.382,0,0,1,2.419-2.983,4.469,4.469,0,0,1,2.371-.384c13.3-.328,26.6-.5,39.9-.4a19.994,19.994,0,0,1,5.523.46c2.307,1.609,1.788,4,1.731,6.26" transform="translate(-1889.505 -2529.556)" fill="#487bc9"/>
        <path id="Trazado_1043694" data-name="Trazado 1043694" d="M1170.762,2193.275c-1.358-5.189-2.682-10.379-5.3-15.14a50.407,50.407,0,0,1-2.166-5.173c1.048-1.5,1.273.077,1.541.512a71.817,71.817,0,0,1,5.937,12.3,85.216,85.216,0,0,1,5.741,24.281c.256,3.6.765,7.186.673,10.81-.017.669.184,1.389-.346,1.973-.838-.22-.874-.938-1.032-1.606q-1.91-8.077-3.025-16.3c-.457-3.317-1.137-6.591-1.907-9.845a2.959,2.959,0,0,1-.116-1.806" transform="translate(-1088.794 -2033.199)" fill="#fce267"/>
        <path id="Trazado_1043695" data-name="Trazado 1043695" d="M2253.91,1557.688q-.024.185-.066.367c-.984.2-1.07,1.141-1.427,1.819-1.968,3.743-3.967,7.412-7.128,10.382-5.43,5.1-10.167,4.079-16.093.042-.512-.349-.831-.8-.095-1.279a18.335,18.335,0,0,0,11.2-1.1c5.495-2.272,9.32-6.359,12.19-11.447.427-.756.869-1.5,1.3-2.253q.059,1.734.117,3.467" transform="translate(-2085.933 -1454.68)" fill="#ec845e"/>
        <path id="Trazado_1043696" data-name="Trazado 1043696" d="M1296.6,3094.036c.038,1.045-.533,1.422-1.5,1.375-2.465-.119-4.941.134-7.4-.221a74.232,74.232,0,0,1,2.877-10.8c.741-2.374,1.483-4.748,2.269-7.107.323-.969.8-1.646,1.564-.255l2.188,17.008" transform="translate(-1205.227 -2879.219)" fill="#496406"/>
        <path id="Trazado_1043697" data-name="Trazado 1043697" d="M1891.2,1867.656c3.353.133,6.4-1.25,9.59-1.932-.971,1.619-2.617,2.448-4.086,3.483l-2.571,1.785c-4.986.914-9.768-.079-14.525-1.483-6.215-1.835-11.535-5.25-16.574-9.194a15.111,15.111,0,0,1-4.078-4.283.8.8,0,0,1-.241,1.3c-.576.319-1.145-.139-1.389-.646-.636-1.324-2.1-2.518-.83-4.229a5.056,5.056,0,0,1,2.771-1.012,1.555,1.555,0,0,1,1.3.584c.333.553.041,1.3.56,1.8a22.983,22.983,0,0,0,9.528,8.7c5.694,2.8,11.625,4.756,18.093,4.555a2.863,2.863,0,0,1,2.453.583" transform="translate(-1737.128 -1732.865)" fill="#66a3e6"/>
        <path id="Trazado_1043698" data-name="Trazado 1043698" d="M2111.277,2681.637a.683.683,0,0,1-.8.591c-10.513-.638-21.037-.236-31.553-.179-3.153.018-6.331.212-9.5.253a24.55,24.55,0,0,1-5.945-.344c1.514-1.516,3.492-1.521,5.41-1.56,7.732-.156,15.465-.243,23.2-.383,4.926-.09,9.85-.244,14.776-.335a4.848,4.848,0,0,1,4.41,1.957" transform="translate(-1931.328 -2508.058)" fill="#62a7e8"/>
        <path id="Trazado_1043699" data-name="Trazado 1043699" d="M2061.386,2161.256a4.553,4.553,0,0,1-.8,3.323c-.7.862-.048,1.6.327,2.354a8.1,8.1,0,0,1,1.627,3.728c.311.8-.212,1.539-.171,2.32.331,4.879-.346,9.488-3.7,13.334a24.41,24.41,0,0,1-2.427,2.324c-.492.427-1,.975-1.728.184-.87-.945.148-1.219.55-1.565a14.352,14.352,0,0,0,5.2-13.346c-.089-.724-.3-1.435-.45-2.15-.6-.414-.548-1.144-.837-1.709a22.461,22.461,0,0,0-1.881-4.654c-.514-.432-1.062-.83-1.537-1.3-1.717-1.7-1.354-4.057.868-5.792a3.32,3.32,0,0,1,4.956,2.953" transform="translate(-1922.616 -2019.659)" fill="#1a1949"/>
        <path id="Trazado_1043700" data-name="Trazado 1043700" d="M2132.838,2098.88a53.6,53.6,0,0,1-7.364,6.025c-.937.711-1.738.339-2.559-.224-1.952-1.338-3.917-2.656-5.876-3.982a9.978,9.978,0,0,1-4.214-2.562c-.48-.411-1.117-.883-.58-1.684.1-.059.3-.166.3-.177-.227-.509-1.169-.8-.662-1.506.543-.751,1.283-.186,1.857.08a39.953,39.953,0,0,0,17.722,3.671c.481-.009,1.014-.12,1.38.359" transform="translate(-1976.485 -1960.26)" fill="#5fa4ec"/>
        <path id="Trazado_1043701" data-name="Trazado 1043701" d="M1681.072,2120.333a3.19,3.19,0,0,1,.3,1.759,37.858,37.858,0,0,1-16.49-4.883,58.568,58.568,0,0,1-14.378-11.488c-.155-.163-.267-.366-.67-.931l12.425,7.173c1.547.038,2.5,1.279,3.777,1.87a144.79,144.79,0,0,0,15.039,6.5" transform="translate(-1544.167 -1969.988)" fill="#f0a12f"/>
        <path id="Trazado_1043702" data-name="Trazado 1043702" d="M1692.935,1711.955l-2.971,1.07a6.253,6.253,0,0,1-3.642,1.5,9.992,9.992,0,0,1-5.768-4.6c-1.711-2.354-3.019-4.838-2.541-7.9,4.8,6.283,11.814,6.712,18.835,7.12.431,1.561-.755,2.121-1.734,2.81-.725.266-1.452-.152-2.179,0" transform="translate(-1570.452 -1593.02)" fill="#d05c14"/>
        <path id="Trazado_1043703" data-name="Trazado 1043703" d="M2420.247,2197.45a6.759,6.759,0,0,0-.974,2.983c-1.647,6.463-.307,12.1,4.7,16.672-1.241,1.493-2.154,1.254-3.3-.154a18.29,18.29,0,0,1-4.115-12.9c.033-.685.04-1.372.059-2.059.029-1.318-.3-2.681.482-3.9a8.99,8.99,0,0,1,1.468-3.112,2.867,2.867,0,0,0,.544-2.4c-.519-2.214-.078-3.577,1.333-4.128,2.729-1.067,4.217.152,4.1,3.359a1.692,1.692,0,0,1-.883,1.726,16.726,16.726,0,0,0-3.418,3.913" transform="translate(-2261.764 -2047.94)" fill="#1e1b4b"/>
        <path id="Trazado_1043704" data-name="Trazado 1043704" d="M1806.752,1874.857a20.211,20.211,0,0,1,3.793-1.109c-.328,1.845,1.053,2.875,1.882,4.178.064-1.2-1.093-1.994-.965-3.716,2.952,4.6,6.938,7.47,11.018,10.2,7.171,4.789,15.006,7.5,23.735,7.23a2.906,2.906,0,0,1,1.825.236l-.655.493c-7.157.1-14.135-.744-20.664-4.062.442,1.124,1.815,1,2.337,1.994-.9.428-1.633-.341-2.431-.141a2.217,2.217,0,0,1-2.2-.723c-5.3-4.344-10.959-8.223-16.314-12.495-.666-.531-1.449-1.035-1.362-2.081" transform="translate(-1691.031 -1753.743)" fill="#4886d6"/>
        <path id="Trazado_1043705" data-name="Trazado 1043705" d="M1724.1,1829.533c6.367,5.435,13.212,10.249,19.875,15.3l4.959,4.028a2,2,0,0,0-1.784,1.159c-.98-2.112-2.539-3.252-4.955-2.953a2.312,2.312,0,0,0-1.09-1.765c-7.268-4.851-13.812-10.638-20.616-16.087-1.232-.987-2.284-2.106-2.006-3.89l5.617,4.21" transform="translate(-1608.384 -1708.42)" fill="#f9dd5a"/>
        <path id="Trazado_1043706" data-name="Trazado 1043706" d="M2178.436,2258.432a1.128,1.128,0,0,1,.25,1.488c-.623,1.4-1.219,2.805-1.826,4.21-3.121,2.261-6.789,2.107-10.323,2.047-2.014-.034-4.255.117-6.039-1.33l-1.114-3.781c5.3,2.515,10.6,3.553,16.028.272,1.266-.765,3-.9,3.023-2.905" transform="translate(-2021.086 -2113.791)" fill="#fce265"/>
        <path id="Trazado_1043707" data-name="Trazado 1043707" d="M1275.543,2499.416c1.729,7.068,2.943,14.241,4.372,21.37.548,2.734,1.137,5.459,1.708,8.188l.744,6.013c-.342.877-.542.112-.606-.1a43.837,43.837,0,0,1-1.25-4.464c-.654-3.41-1.654-6.75-2.061-10.212a2.549,2.549,0,0,0-.6-1.728,135.706,135.706,0,0,0-2.334-16.941c-.161-.722-.526-1.425.026-2.129" transform="translate(-1193.575 -2339.34)" fill="#d8741e"/>
        <path id="Trazado_1043708" data-name="Trazado 1043708" d="M1862.645,2220.833c-.29.595-.7.276-1.1.157-6.367-1.886-12.07-5.147-17.717-8.527.894-.724,1.575.06,2.176.442,3.273,2.081,6.677,3.653,10.69,3.349.718-.054,1.3.412,1.948.611.669.2,1.368.35,1.581-.636,1.827,1,2.063,2.833,2.421,4.6" transform="translate(-1725.74 -2070.489)" fill="#fde061"/>
        <path id="Trazado_1043709" data-name="Trazado 1043709" d="M2176.774,2348.089a8.888,8.888,0,0,1,3.316.36c4.462.811,8.75-.108,13.047-1.079q-.461,1.861-.921,3.719c-.173-.758-.734-.449-1.191-.436a69.275,69.275,0,0,1-11.81-.678,2.165,2.165,0,0,0-2.1.38,4.906,4.906,0,0,1-.342-2.267" transform="translate(-2037.362 -2197.033)" fill="#f3a833"/>
        <path id="Trazado_1043710" data-name="Trazado 1043710" d="M3346.722,2385.661c-.365-.381.065-.761,0-1.141a47.326,47.326,0,0,1,3.714-10.111,32.713,32.713,0,0,1,4.633-6.3c.419-.453.882-1.061,1.413-.086v-.006c-1.63,1.967-2.6,4.363-4.131,6.393l-5.63,11.254" transform="translate(-3132.242 -2215.872)" fill="#fce164"/>
        <path id="Trazado_1043711" data-name="Trazado 1043711" d="M2491.66,1853.215l4.084-3.481,5.016-4.163c1.885-2.412,4.834-3.553,6.882-5.771,1.152-.834,2.192-1.807,3.316-2.677a2.709,2.709,0,0,1,1.832-.762l2.624-2.006c-.327,1.223-1.316,1.934-2.141,2.776-3.95,4.027-8.741,6.95-13.3,10.183-2.03,1.439-3.943,3.043-5.918,4.56a4.466,4.466,0,0,1-2.393,1.342" transform="translate(-2332.081 -1716.872)" fill="#f6e083"/>
        <path id="Trazado_1043712" data-name="Trazado 1043712" d="M2474.562,2187.349a5.613,5.613,0,0,1,2.876-4.236,6.7,6.7,0,0,0,1.424-1.4c.639.742,1.362.592,2.2.333a45.567,45.567,0,0,0,9.57-4.2c.507-.3.96-.93,1.625-.265-4.941,3.228-10.465,5.368-15.54,8.345-.742.435-1.437.95-2.153,1.429" transform="translate(-2316.078 -2037.839)" fill="#fbdc5f"/>
        <path id="Trazado_1043713" data-name="Trazado 1043713" d="M1922.271,1628.936c.717-.81,1.776-1.344,2.032-2.525,1.867-3.206,1.463-6.7,1.27-10.161-.041-.741-.2-1.475-.3-2.213l.09-.408c1.854-.048,1.377,1.849,2.212,2.651a14.8,14.8,0,0,1-4.743,14.137,2.172,2.172,0,0,1-1.623.794c-.5-.549-.233-.99.2-1.408.106-.474.5-.661.87-.867" transform="translate(-1797.906 -1510.284)" fill="#fcd8ac"/>
        <path id="Trazado_1043714" data-name="Trazado 1043714" d="M1532.08,1789.672l.444-.854c.4-.082.743-.868,1.2-.065a40.513,40.513,0,0,0,5.916,7.776c-2.39-2.038-5.075-3.63-7.508-5.563-.523-.416-.725-.835-.051-1.294" transform="translate(-1433.556 -1673.857)" fill="#ec9d2b"/>
        <path id="Trazado_1043715" data-name="Trazado 1043715" d="M1681.168,3089.275c-.049,1.762-1.625,2.63-2.4,3.967-1.772,3.048-3.85,5.918-5.832,8.842-.258.381-.4,1.19-1.2.646a4.959,4.959,0,0,1,2.4-4.318l3.749-5.66c1.188-1.072,1.894-2.6,3.286-3.478" transform="translate(-1564.658 -2891.421)" fill="#fcdaae"/>
        <path id="Trazado_1043716" data-name="Trazado 1043716" d="M2110.142,1396.691c3.813,0,7.626-.006,11.439.007.48,0,1.092-.211,1.406.247.361.53-.242.905-.482,1.295-2.085,3.381-4.612,6.328-8.724,7.144-5.94,1.178-12.117-.2-15.591-5.5a9.847,9.847,0,0,1-.7-1.317c-.567-1.246-.47-1.937,1.218-1.9,3.811.091,7.625.029,11.438.029Z" transform="translate(-1962.86 -1307.202)" fill="#f48c61"/>
        <path id="Trazado_1043717" data-name="Trazado 1043717" d="M1903.654,898.9a18.554,18.554,0,0,1,7.011,1.464c.892.379,1.791.885,1.475,2.056-.334,1.237-1.327,1.332-2.416,1.088a25.132,25.132,0,0,0-6.683-.773,17.707,17.707,0,0,0-6.991,1.938c-1,.486-2.071.888-2.788-.365s.245-2.018,1.109-2.618a15.846,15.846,0,0,1,9.281-2.79" transform="translate(-1771.771 -841.334)" fill="#1a1850"/>
        <path id="Trazado_1043718" data-name="Trazado 1043718" d="M2424.991,901.413a4.067,4.067,0,0,1-1.96-.577,17.357,17.357,0,0,0-11.346-1.164c-1.085.226-2.56.932-3.061-.7s.987-2.105,2.147-2.518a15.276,15.276,0,0,1,14.616,1.94,1.871,1.871,0,0,1,.948,2.227c-.205.65-.758.764-1.344.795" transform="translate(-2254.271 -838.071)" fill="#19184e"/>
        <path id="Trazado_1043719" data-name="Trazado 1043719" d="M1741.61,858.774a95.178,95.178,0,0,1-5.455-14.474c-1.27-3.969-2.382-7.989-3.529-12-.148-.516-.792-1.344.1-1.572.941-.239.855.78,1.047,1.4,1.888,6.184,3.319,12.51,5.8,18.509a3.778,3.778,0,0,0,.88,1.615q.577,3.256,1.154,6.513" transform="translate(-1621.32 -777.494)" fill="#3f5099"/>
        <path id="Trazado_1043720" data-name="Trazado 1043720" d="M2699.8,828.683c1.124-2.52,1.3-5.272,1.9-7.917.4-1.76.578-3.569.931-5.34.111-.554.122-1.288,1.126-1.518-.457,2.683-.845,5.281-1.351,7.856-1.093,5.567-2.244,11.123-3.383,16.681a1.713,1.713,0,0,1-.286.478c.152-3.434.582-6.839,1.06-10.239" transform="translate(-2525.896 -761.78)" fill="#424986"/>
        <path id="Trazado_1043721" data-name="Trazado 1043721" d="M2234.773,1272.83l1.128-.98c.459,1.891-.471,3.46-2.481,4.313-2.7,1.147-6.422-.192-8.054-2.908.674-.446,1.139.331,1.738.292,2.622.457,5.28,1.308,7.67-.717" transform="translate(-2082.841 -1190.394)" fill="#24173e"/>
        <path id="Trazado_1043722" data-name="Trazado 1043722" d="M2408.942,1048.306c-1.868-.963-1.932-1.537-.321-2.649,2.865-1.975,5.822-2.729,9.033-.781.566.344,1.013.6.2,1.135-.8.7-1.549-.067-2.275-.181a6.626,6.626,0,0,0-6.637,2.475" transform="translate(-2253.286 -976.895)" fill="#e99570"/>
        <path id="Trazado_1043723" data-name="Trazado 1043723" d="M1988.42,1071.316c-.927.048-1.456.3-.593,1.389-3.548-1.608-6.813-1.732-9.686,1.708.666-4.12,6.255-5.6,10.279-3.1" transform="translate(-1851.45 -1001.557)" fill="#261c3c"/>
        <path id="Trazado_1043724" data-name="Trazado 1043724" d="M2429.085,1067.2c-.362-1.028.433-1.458,1.054-1.916,2.525-1.865,5.173-1.624,7.858-.378.53.444,1.278.693,1.493,1.742a14.631,14.631,0,0,0-4.68-1.333c-2.2-.079-3.815,1.279-5.725,1.885" transform="translate(-2273.428 -995.787)" fill="#201335"/>
        <path id="Trazado_1043725" data-name="Trazado 1043725" d="M2260.156,1287.161c-1.812,2.264-4.27,2.494-7.67.717,2.567-.133,5.186.3,7.67-.717" transform="translate(-2108.225 -1204.725)" fill="#d5886d"/>
        <path id="Trazado_1043726" data-name="Trazado 1043726" d="M1631.555,841.441a1.91,1.91,0,0,1-1.97.43,4.855,4.855,0,0,1-1.847-2.927c-2.934-9.478-5.409-19.085-8.066-28.641-.335-1.206-.777-2.369-1.219-3.536-.4-1.064-.479-2.084.628-2.826l-.01.039c1.536-.5,1.745.589,2.036,1.652,2.575,9.416,5.2,18.82,8.086,28.146q1.187,3.83,2.362,7.664" transform="translate(-1514.545 -752.37)" fill="#f6d44b"/>
        <path id="Trazado_1043727" data-name="Trazado 1043727" d="M2072,3692.325l25.1-.06,8.217.119c-6.258,1.773-12.442,3.871-19.12,3.356a31.058,31.058,0,0,1-11.01-2.531c-1.04-.49-2.263-.118-3.188-.884" transform="translate(-1939.302 -3455.793)" fill="#fac23a"/>
        <path id="Trazado_1043728" data-name="Trazado 1043728" d="M1556.724,3013.2q-1.2,2.16-2.4,4.318a1.927,1.927,0,0,0-.3.1,31.842,31.842,0,0,1-7.735-19.384c3.978,4.64,7.068,9.906,10.443,14.968" transform="translate(-1447.249 -2806.213)" fill="#e58223"/>
        <path id="Trazado_1043729" data-name="Trazado 1043729" d="M2550.371,3306.739a2.615,2.615,0,0,1-.067-.3c3.851,1.7,7.81,1.019,11.756.523a58.27,58.27,0,0,0,14.483-4.2,8.169,8.169,0,0,1,1.25-.384,2.113,2.113,0,0,1,.665.13,5.6,5.6,0,0,1-2.985,2.948,41.135,41.135,0,0,1-23.284,2.124,2.733,2.733,0,0,1-1.819-.841" transform="translate(-2386.969 -3090.869)" fill="#f39c6b"/>
        <path id="Trazado_1043730" data-name="Trazado 1043730" d="M2551.46,3471.4a.967.967,0,0,1-.063-.361c3.279.688,6.531,1.569,9.842,2.014,4.672.629,9.387.941,14.068-.227.03-.509-.709-.2-.685-.631s.406-.394.7-.4c1.162-.013,2.325-.006,3.643-.006a4.848,4.848,0,0,1-4.279,2.854,59.545,59.545,0,0,1-11.883-.045c-1.788-.163-3.553-.569-5.34-.743-2.265-.218-3.894-1.9-6-2.459" transform="translate(-2387.992 -3248.738)" fill="#f6a16f"/>
        <path id="Trazado_1043731" data-name="Trazado 1043731" d="M1565.632,805.222a1.964,1.964,0,0,0-.313,1.926c3.25,8.341,4.832,17.17,7.5,25.681,1.082,3.449,1.8,7.013,3.316,10.323a13.432,13.432,0,0,0-2.735-.559c-2.2,0-2.874-1.347-3.443-3.164-2.9-9.27-5.263-18.686-7.7-28.082a7.151,7.151,0,0,0-1.182-3.1,13.382,13.382,0,0,1,4.556-3.028" transform="translate(-1461.096 -753.652)" fill="#385db2"/>
        <path id="Trazado_1043737" data-name="Trazado 1043737" d="M3521.3,3443.126l-10.952.739c.09.834.712.981,1.13,1.286a59.22,59.22,0,0,1,15.052,15.17,12.073,12.073,0,0,1,1.952,7.837c-.042.5-.025,1.063-.6,1.258-.531.181-.943-.2-1.353-.482a4.815,4.815,0,0,1-1.651-3.266c-1.614-7.321-5.906-12.6-12.264-16.347a86.4,86.4,0,0,1-8.343-6c-.378-.288-.907-.6-.762-1.187.178-.709.845-.625,1.393-.643,4.624-.145,9.194.518,13.783.92.86.075,1.716.2,2.573.3q.018.208.037.415" transform="translate(-3279.106 -3221.061)" fill="#fce46c"/>
        <path id="Trazado_1043738" data-name="Trazado 1043738" d="M3436.8,2381.936c1.071-2.329,2.006-4.745,4.131-6.393-1.16,2.271-2.184,4.63-4.131,6.393" transform="translate(-3216.692 -2223.401)" fill="#fec53d"/>
        <path id="Trazado_1043739" data-name="Trazado 1043739" d="M2311.481,3086.026c-.871,3.191-3.006,4.89-6.434,5.121-.99-.582-2.174-.42-3.215-.894a6.4,6.4,0,0,1-3.637-8.327,6.76,6.76,0,0,1,8.237-4.018c3.863,1.147,5.489,3.761,5.05,8.118" transform="translate(-2150.595 -2880.522)" fill="#7ebaf0"/>
        <path id="Trazado_1043740" data-name="Trazado 1043740" d="M2303.278,3080c-.217-4.559-1.588-6.633-5.087-7.7a6.115,6.115,0,0,0-7.928,4.259c-.954,3.568.876,6.543,4.544,7.538.71.193,1.71-.008,2.037,1.02a7.229,7.229,0,0,1-7.728-5.668c-.663-2.972,1.372-6.42,4.6-7.775.4-.169.821-.3,1.233-.448,4-.3,7,1.135,8.6,4.981-.034,1.267.395,2.566-.266,3.789" transform="translate(-2142.392 -2874.491)" fill="#6697da"/>
        <path id="Trazado_1043741" data-name="Trazado 1043741" d="M1884.766,3153.162l-.722-.066c-.066-.242.026.044-.1-.153-.548-.842.395-2.588-.974-2.653-1.793-.085-3.854-.356-5.292,1.334l-2.454-.877c2.544-3.517,6.23-3.3,9.759-2.155a38.823,38.823,0,0,0,7.981,2.009c-.536.54-1.33.079-1.774.6a14.232,14.232,0,0,1-4.734-1c-1.376-.5-1.986-.3-1.763,1.278.078.552.054,1.119.076,1.678" transform="translate(-1755.122 -2946.238)" fill="#eb966a"/>
        <path id="Trazado_1043742" data-name="Trazado 1043742" d="M2534.542,2795.413c.951.048,1.4.429,1.378,1.407s-.689,1.2-1.333,1.174a1.324,1.324,0,0,1-1.406-1.426c.041-.855.669-1.113,1.361-1.155" transform="translate(-2370.941 -2616.38)" fill="#abc2e3"/>
        <path id="Trazado_1043743" data-name="Trazado 1043743" d="M2141.583,3202.056l4.181,0a6.865,6.865,0,0,1-4.181,0" transform="translate(-2004.424 -2996.979)" fill="#eb966a"/>
        <path id="Trazado_1043744" data-name="Trazado 1043744" d="M1870.8,3319.753a46.735,46.735,0,0,1,8.183.208c-1.142-.975-2.61-.661-3.9-.939a32.327,32.327,0,0,0-4.049-.174c5.863-1.108,11.116,1.158,16.523,3.068a1.959,1.959,0,0,1-1.9.717,124.539,124.539,0,0,1-14.5-2.511c-.049-.013-.083-.082-.358-.369" transform="translate(-1750.985 -3106.019)" fill="#f29b6b"/>
        <path id="Trazado_1043745" data-name="Trazado 1043745" d="M1910.07,3174.581c-.563-.952-.059-1.4.812-1.548,1.508-.262,3.023-.512,4.547-.653,1.19-.111,1.393.738,1.383,1.708a3.5,3.5,0,0,1-.372,1.965l-6.369-1.472" transform="translate(-1787.517 -2969.195)" fill="#f5a736"/>
        <path id="Trazado_1043746" data-name="Trazado 1043746" d="M1925.177,1669.963c2.7-2.641,5.131-5.383,5.727-9.382.276-1.85-.033-3.758.639-5.549,2.447,3.22,4.577,6.7,7.5,9.53,5.413,5.238,11.638,8.96,19.245,9.936,1.407.181,1.74.554.73,1.662a.77.77,0,0,0,.111,1.274,1.135,1.135,0,0,1-.112,2.023c-1.693,1.034-2.147,2.847-3.068,4.37-11.321.483-21.274-2.607-29.113-11.178a8.211,8.211,0,0,1-1.664-2.686" transform="translate(-1801.878 -1549.035)" fill="#fdbe86"/>
        <path id="Trazado_1043747" data-name="Trazado 1043747" d="M2650.739,1838.42l-4.792,3.844c-1.756.285-3.144-.177-3.9-1.921-1.114-1.171-2.654-2.005-2.994-3.788a53.653,53.653,0,0,0,9.542,1.5c.726.028,1.511-.221,2.148.361" transform="translate(-2470.03 -1718.932)" fill="#d45e12"/>
        <path id="Trazado_1043748" data-name="Trazado 1043748" d="M2637.08,1895.706c.971,1.31,2.688,1.1,3.9,1.92-2.019,2.318-4.724,3.713-7.237,5.366a17.579,17.579,0,0,1,2.57-3.807c.705-1,1.613-1.982.358-3.2l.406-.278" transform="translate(-2465.067 -1774.295)" fill="#638bbc"/>
        <path id="Trazado_1043749" data-name="Trazado 1043749" d="M1914.283,1851.117c-.042.538-.431.727-.871.867-.205-.427-.66-.421-1.014-.583a2.257,2.257,0,0,1,1.885-.283" transform="translate(-1789.918 -1732.464)" fill="#fdbe86"/>
        <path id="Trazado_1043750" data-name="Trazado 1043750" d="M2125.006,1414.643c7.29-.1,14.316-.035,21.427-.461-3.388,6.535-17.2,6.9-21.427.461" transform="translate(-1988.909 -1323.61)" fill="#fcfbf9"/>
        <path id="Trazado_1043751" data-name="Trazado 1043751" d="M2547.918,2809.053a.693.693,0,0,1-.514.73.6.6,0,0,1-.794-.5.5.5,0,0,1,.474-.627.726.726,0,0,1,.835.4" transform="translate(-2383.498 -2628.759)" fill="#3d5181"/>
      </g>
    </g>
    <g id="Grupo_1203650" data-name="Grupo 1203650" transform="translate(946.577 2210.316)">
      <g id="Grupo_1203651" data-name="Grupo 1203651" transform="translate(0 0)">
        <g transform="matrix(1, 0, 0, 1, -146.58, -41.86)" filter="url(#Trazado_1043752)">
          <path id="Trazado_1043752-2" data-name="Trazado 1043752" d="M28.9.059A30.357,30.357,0,0,1,55.7,47.424l7.724,15.2L46.9,55.769l-3.6,1.876a29.79,29.79,0,0,1-9.99,2.6,30.1,30.1,0,0,1-22.384-7.02,31.4,31.4,0,0,1-10.86-21.4,29.837,29.837,0,0,1,7-21.264C12.783,4,20.3.681,28.9.059" transform="translate(146.58 41.86)" fill="#f6f3ef"/>
        </g>
        <path id="Trazado_1043753" data-name="Trazado 1043753" d="M75.309,52.623l.021.27c.234,4.857-2.972,11.053-6.2,14.473a24.533,24.533,0,0,1-16.922,7.752,23.924,23.924,0,0,1-17.444-6.455A24.53,24.53,0,0,1,27,51.912a23.176,23.176,0,0,1,6.521-17.146A24.484,24.484,0,0,1,67.9,34.223c4.244,4.228,7.44,10.323,7.408,16.427a15.543,15.543,0,0,0,0,1.973" transform="translate(-20.726 -21.071)" fill="#fec53d"/>
        <path id="Trazado_1043754" data-name="Trazado 1043754" d="M83.035,104.675c-1.685,0-17.24-.128-17.386-.021a5.482,5.482,0,0,0-.469,1.042c-.673,1.489-1.472,4.022-2.737,5.023a1.677,1.677,0,0,1-1.37-.254,7.61,7.61,0,0,1-1-2.685l-1.349-5.165-1.934,6.708-1.008,4.336a5.413,5.413,0,0,1-.843,2.672,1.25,1.25,0,0,1-1.091-.148c-.991-1.578-1.321-4.682-1.723-6.524l-2.064-9.813a15.533,15.533,0,0,1-.933,3.923,1.507,1.507,0,0,1-.954.879,15.187,15.187,0,0,1-2.579.033H39.926a10.061,10.061,0,0,1-2.268-.046,3.258,3.258,0,0,1-.543-.449,1.481,1.481,0,0,1,.174-1.268,9.938,9.938,0,0,1,3.4-.226l6.828.018,1.56-6.853a1.493,1.493,0,0,1,1.165-.625,3.282,3.282,0,0,1,.562.4,5.329,5.329,0,0,1,.443,1.457l.924,4.193,2.217,9.6,2.18-7.324c.306-1.092.676-3.469,1.409-4.287.409-.455.657-.388,1.237-.442.9.643,1.012,2.052,1.256,3.092l1.456,6.357a46.2,46.2,0,0,1,2.73-5.515,57.683,57.683,0,0,1,6.31-.074l12.067.012a15.543,15.543,0,0,0,0,1.973" transform="translate(-28.452 -73.123)" fill="#263173"/>
      </g>
    </g>
    <g id="Grupo_1203653" data-name="Grupo 1203653" transform="translate(1238.15 2330.852)">
      <g id="Grupo_1203652" data-name="Grupo 1203652" clip-path="url(#clip-path-3)">
        <path id="Trazado_1043755" data-name="Trazado 1043755" d="M219.316,72.759c-.019-1.14-.356-3.581.449-4.406.832-.851,4.4-.5,5.7-.5.782,0,2.686-.235,3.237.326a1.8,1.8,0,0,1,.529.961,22.844,22.844,0,0,1,.032,3.521l.015,8.876c.015.945.318,3.536-.188,4.24a2.957,2.957,0,0,1-1.564.089,8.927,8.927,0,0,0-2.073-.089l-4.528.023a2.605,2.605,0,0,1-1.41-.139l-.162-.594a47.465,47.465,0,0,1-.006-6.266Z" transform="translate(-177.505 -54.882)" fill="#747eca"/>
        <path id="Trazado_1043756" data-name="Trazado 1043756" d="M229.819,140.079c.015.945.318,3.536-.188,4.24a2.957,2.957,0,0,1-1.564.089,8.927,8.927,0,0,0-2.073-.089l-4.528.023a2.605,2.605,0,0,1-1.41-.139l-.162-.594.019-3.476Z" transform="translate(-178.041 -113.418)" fill="#303a72"/>
        <path id="Trazado_1043757" data-name="Trazado 1043757" d="M158.236,437.2l4.263-.065a11.566,11.566,0,0,1,2.139.01l.129.012.049,1.577c.436.344,1.258.205,1.821.2l4.941-.007a17.589,17.589,0,0,1,2.916.093c3.894.68,6.058,3.355,7.143,6.973l-39.866.015A7.191,7.191,0,0,1,144.2,441.3c2.488-2.4,5.141-2.361,8.365-2.365l5.676.048Z" transform="translate(-114.79 -353.896)" fill="#303a72"/>
        <path id="Trazado_1043758" data-name="Trazado 1043758" d="M228.273,437.2l4.263-.065a11.566,11.566,0,0,1,2.139.01v1.673a1.2,1.2,0,0,1-.23.209c-.287.147-5.158.028-5.826,0l-.346-.042Z" transform="translate(-184.826 -353.896)" fill="#1a275f"/>
        <path id="Trazado_1043759" data-name="Trazado 1043759" d="M.085,27.286C.224,25.609.09,23.808.09,22.12l0-10.908c0-2.313-.438-5.562.579-7.653a6.174,6.174,0,0,1,3.7-3.2A7.33,7.33,0,0,1,6.843.074L17.757.067A24.484,24.484,0,0,1,22.77.193,6.032,6.032,0,0,1,27.151,4.5,21,21,0,0,1,27.3,8.829l.025,9.051-.01,6.044-.017,7.049c0,1.475.2,3.244-.348,4.625A6.233,6.233,0,0,1,22,39.329a29.211,29.211,0,0,1-3.163.036l-6.119-.012H7.989A11.376,11.376,0,0,1,5.248,39.2a6.783,6.783,0,0,1-3.384-1.816c-2.438-2.512-1.77-6.854-1.78-10.1" transform="translate(0 0)" fill="#303a72"/>
        <path id="Trazado_1043760" data-name="Trazado 1043760" d="M228.088,162.313l4.528-.023a8.928,8.928,0,0,1,2.073.089l.01,6.813-6.625-.013Z" transform="translate(-184.664 -131.389)" fill="#1a275f"/>
        <path id="Trazado_1043761" data-name="Trazado 1043761" d="M143.5,93.932l14.492,0,.034,6.048H143.493Z" transform="translate(-116.182 -76.052)" fill="#6c58aa"/>
        <path id="Trazado_1043762" data-name="Trazado 1043762" d="M228.073,198.557l6.625.013-.055,45.457-.129-.012a11.565,11.565,0,0,0-2.139-.01l-4.263.065Z" transform="translate(-184.664 -160.766)" fill="#747eca"/>
      </g>
    </g>
    <g id="Grupo_1203655" data-name="Grupo 1203655" transform="translate(905 2320.89)">
      <g id="Grupo_1203654" data-name="Grupo 1203654" clip-path="url(#clip-path-4)">
        <path id="Trazado_1043763" data-name="Trazado 1043763" d="M61.72,200.017c.213-.377,17.433-8.922,18.856-9.477a18.311,18.311,0,0,0,2.35,3.4L70.9,199.939c-1.857.939-3.947,2.358-5.9,2.946a2.043,2.043,0,0,1-1.316-.1c-1-.348-1.4-1.48-1.8-2.367Z" transform="translate(-49.092 -151.557)" fill="#141e54"/>
        <path id="Trazado_1043764" data-name="Trazado 1043764" d="M69.984,144.989c-1.159,3.027-1.592,6.138-.241,9.205l.052.114c-1.424.555-18.643,9.1-18.856,9.477l-2.077-4.136c-.54-1.071-.943-1.816-.519-3.016a2.453,2.453,0,0,1,.966-1.26,61.293,61.293,0,0,1,6.5-3.3Z" transform="translate(-38.31 -115.325)" fill="#1a275f"/>
        <path id="Trazado_1043765" data-name="Trazado 1043765" d="M241.783,79.895l.913-.545a29.985,29.985,0,0,0,4.933,11.331L232.3,98.5a14.558,14.558,0,0,0-.665-4.542c-.945-2.861-2.994-4.622-5.5-6.128Z" transform="translate(-179.867 -63.115)" fill="#1a275f"/>
        <path id="Trazado_1043766" data-name="Trazado 1043766" d="M263.155,79.895l.913-.545A29.985,29.985,0,0,0,269,90.681L253.667,98.5A14.558,14.558,0,0,0,253,93.96l12.858-6.52a30.581,30.581,0,0,1-2.7-7.545" transform="translate(-201.239 -63.115)" fill="#141e54"/>
        <path id="Trazado_1043767" data-name="Trazado 1043767" d="M305.635,35.728a8.165,8.165,0,0,1-.106-4.476c.775-2.384,3.129-3.206,5.158-4.256l4.893-2.489a28.755,28.755,0,0,0,.012,4.85,25.4,25.4,0,0,0,6.16,13.292,18.388,18.388,0,0,0,7.123,5.089l-9.417,4.986a4.672,4.672,0,0,1-2.389.208c-2.38-.4-5.162-3.955-6.5-5.874a29.985,29.985,0,0,1-4.933-11.331" transform="translate(-242.806 -19.494)" fill="#303a72"/>
        <path id="Trazado_1043768" data-name="Trazado 1043768" d="M150.616,121.153l.09-.183a10.56,10.56,0,0,1,6.223-5.429,10.948,10.948,0,0,1,8.279.665c2.5,1.506,4.552,3.267,5.5,6.128a14.557,14.557,0,0,1,.665,4.542,11.515,11.515,0,0,1-4.547,7.921,2.77,2.77,0,0,1-.731.442,5.925,5.925,0,0,1,.162,2.492l-.372.438a18.539,18.539,0,0,1-10.372.291,2.281,2.281,0,0,1-1.143-.927,3.693,3.693,0,0,1,.2-2.345,12.192,12.192,0,0,1-1.786-1.308,18.312,18.312,0,0,1-2.35-3.4l-.052-.114c-1.351-3.067-.918-6.178.241-9.205" transform="translate(-118.943 -91.489)" fill="#303a72"/>
        <path id="Trazado_1043769" data-name="Trazado 1043769" d="M172.812,213.576c2.915,1.468,5.691,2.13,8.888,1.1l2.642-1.044a5.925,5.925,0,0,1,.162,2.492l-.372.438a18.539,18.539,0,0,1-10.372.291,2.281,2.281,0,0,1-1.143-.927,3.693,3.693,0,0,1,.2-2.345" transform="translate(-137.191 -169.879)" fill="#1a275f"/>
        <path id="Trazado_1043770" data-name="Trazado 1043770" d="M176.011,134.94a7.056,7.056,0,0,1,4.13.805,6.881,6.881,0,0,1,3.272,4.083,6.512,6.512,0,0,1-.662,5.082,6.64,6.64,0,0,1-9.508,2.263,6.579,6.579,0,0,1-2.826-4.106,6.715,6.715,0,0,1,.9-5.068,7.042,7.042,0,0,1,4.691-3.06" transform="translate(-135.43 -107.308)" fill="#747eca"/>
        <path id="Trazado_1043771" data-name="Trazado 1043771" d="M36.569,228.444a18.539,18.539,0,0,0,10.372-.291,27.243,27.243,0,0,0,2.584,3.992l19.145,27.264L85.852,283.55H81.934l-17.349-24.59L48.2,235.768c-.5-.738-2.869-4.6-3.522-4.675l-1.091.055c-.418,1.109-.134,3.107-.131,4.332l.03,10.838-.023,30.324,6.883.01a16.151,16.151,0,0,1,3.009.057,1.8,1.8,0,0,1,.84.5c.992.97.533,4.82.534,6.263l-24.684-.007c-.006-1.448-.456-5.242.544-6.28a2.421,2.421,0,0,1,.634-.446,8.4,8.4,0,0,1,2.605-.139l6.527.058-.044-34.474.026-7.954a9.282,9.282,0,0,0-.129-3.056,5.455,5.455,0,0,0-1.605,0L3.909,283.448H0Z" transform="translate(0 -181.474)" fill="#303a72"/>
        <path id="Trazado_1043772" data-name="Trazado 1043772" d="M364.566,0A14.307,14.307,0,0,1,375.432,4.2a15.733,15.733,0,0,1,4.577,11.037c.013,2.849-.92,6.323-3,8.366a5.687,5.687,0,0,1-1.317.969l-1.488.774-4.278,2.168-1.31.735a18.388,18.388,0,0,1-7.123-5.089,25.4,25.4,0,0,1-6.16-13.292,28.758,28.758,0,0,1-.012-4.85l1.355-.814a.7.7,0,0,1,.052-.264c.6-1.624,3.39-2.607,4.852-3.254l1.561-.5Z" transform="translate(-282.543 0)" fill="#303a72"/>
        <path id="Trazado_1043773" data-name="Trazado 1043773" d="M384.672,1.4l1.561-.5c-.191,1.365-.533,2.712-.619,4.087A20.719,20.719,0,0,0,390,18.922a17.341,17.341,0,0,0,6.352,5.248,10.414,10.414,0,0,1,2.431,1.113l-1.488.774c-3.462-1.553-6.13-3.165-8.373-6.324A22.736,22.736,0,0,1,384.672,1.4" transform="translate(-305.638 -0.714)" fill="#141e54"/>
        <path id="Trazado_1043774" data-name="Trazado 1043774" d="M361.577,3.336a22.736,22.736,0,0,0,4.252,18.336c2.243,3.159,4.911,4.77,8.373,6.324l-4.278,2.168-1.31.735a18.388,18.388,0,0,1-7.123-5.089,25.4,25.4,0,0,1-6.16-13.292,28.758,28.758,0,0,1-.012-4.85l1.355-.814a.7.7,0,0,1,.052-.264c.6-1.624,3.39-2.607,4.852-3.254" transform="translate(-282.543 -2.653)" fill="#303a72"/>
        <path id="Trazado_1043775" data-name="Trazado 1043775" d="M355.318,21.344l1.355-.814a31.8,31.8,0,0,0-.031,5.326,24.506,24.506,0,0,0,6.085,12.974,18.065,18.065,0,0,0,5.034,4.1,17.292,17.292,0,0,1,2.162.908l-1.31.735a18.388,18.388,0,0,1-7.123-5.089,25.4,25.4,0,0,1-6.16-13.292,28.758,28.758,0,0,1-.012-4.85" transform="translate(-282.543 -16.33)" fill="#141e54"/>
      </g>
    </g>
  </g>
</svg>
