<svg xmlns="http://www.w3.org/2000/svg" xmlns:xlink="http://www.w3.org/1999/xlink" width="113" height="113" viewBox="0 0 113 113">
  <defs>
    <filter id="Trazado_982547" x="0" y="0" width="113" height="113" filterUnits="userSpaceOnUse">
      <feOffset dy="3" input="SourceAlpha"/>
      <feGaussianBlur stdDeviation="3" result="blur"/>
      <feFlood flood-opacity="0.161"/>
      <feComposite operator="in" in2="blur"/>
      <feComposite in="SourceGraphic"/>
    </filter>
  </defs>
  <g id="Grupo_1208999" data-name="Grupo 1208999" transform="translate(-1111.5 -5128.397)">
    <g id="Grupo_1208830" data-name="Grupo 1208830" transform="translate(1120.5 5134.397)">
      <g id="Grupo_1208311" data-name="Grupo 1208311" transform="translate(0 0)">
        <g id="Grupo_1207519" data-name="Grupo 1207519">
          <g id="Grupo_1202423" data-name="Grupo 1202423">
            <g id="Grupo_1202352" data-name="Grupo 1202352">
              <g id="Grupo_1174813" data-name="Grupo 1174813">
                <g id="Grupo_1201680" data-name="Grupo 1201680">
                  <g id="Grupo_1201330" data-name="Grupo 1201330">
                    <g id="Grupo_1172010" data-name="Grupo 1172010">
                      <g id="Grupo_1171046" data-name="Grupo 1171046">
                        <g id="Grupo_1148525" data-name="Grupo 1148525">
                          <g transform="matrix(1, 0, 0, 1, -9, -6)" filter="url(#Trazado_982547)">
                            <g id="Trazado_982547-2" data-name="Trazado 982547" transform="translate(9 6)" fill="#fff4e6">
                              <path d="M 47.5 93.5 C 41.28937149047852 93.5 35.26533508300781 92.28397369384766 29.59518623352051 89.88570404052734 C 24.11771965026855 87.56893157958984 19.19813346862793 84.25196075439453 14.97309303283691 80.02691650390625 C 10.74804019927979 75.80186462402344 7.431066513061523 70.88229370117188 5.114293098449707 65.40481567382812 C 2.716026782989502 59.73468017578125 1.5 53.71062850952148 1.5 47.5 C 1.5 41.28937149047852 2.716026782989502 35.26533508300781 5.114293098449707 29.59518623352051 C 7.431066513061523 24.11771965026855 10.74804019927979 19.19813346862793 14.97309303283691 14.97309303283691 C 19.19813346862793 10.74804019927979 24.11771965026855 7.431066513061523 29.59518623352051 5.114293098449707 C 35.26533508300781 2.716026782989502 41.28937149047852 1.5 47.5 1.5 C 53.71062850952148 1.5 59.73468017578125 2.716026782989502 65.40481567382812 5.114293098449707 C 70.88229370117188 7.431066513061523 75.80186462402344 10.74804019927979 80.02691650390625 14.97309303283691 C 84.25196075439453 19.19813346862793 87.56893157958984 24.11771965026855 89.88570404052734 29.59518623352051 C 92.28397369384766 35.26533508300781 93.5 41.28937149047852 93.5 47.5 C 93.5 53.71062850952148 92.28397369384766 59.73468017578125 89.88570404052734 65.40481567382812 C 87.56893157958984 70.88229370117188 84.25196075439453 75.80186462402344 80.02691650390625 80.02691650390625 C 75.80186462402344 84.25196075439453 70.88229370117188 87.56893157958984 65.40481567382812 89.88570404052734 C 59.73468017578125 92.28397369384766 53.71062850952148 93.5 47.5 93.5 Z" stroke="none"/>
                              <path d="M 47.5 3 C 41.49121475219727 3 35.66376876831055 4.176155090332031 30.17950439453125 6.495796203613281 C 24.88084411621094 8.736953735351562 20.12152099609375 11.94598388671875 16.03375244140625 16.03375244140625 C 11.94598388671875 20.12152099609375 8.736953735351562 24.88084411621094 6.495796203613281 30.17950439453125 C 4.176155090332031 35.66376876831055 3 41.49121475219727 3 47.5 C 3 53.50878524780273 4.176155090332031 59.33623123168945 6.495796203613281 64.82049560546875 C 8.736953735351562 70.11915588378906 11.94598388671875 74.87847900390625 16.03375244140625 78.96624755859375 C 20.12152099609375 83.05401611328125 24.88084411621094 86.26304626464844 30.17950439453125 88.50419616699219 C 35.66376876831055 90.82384490966797 41.49121475219727 92 47.5 92 C 53.50878524780273 92 59.33623123168945 90.82384490966797 64.82049560546875 88.50419616699219 C 70.11915588378906 86.26304626464844 74.87847900390625 83.05401611328125 78.96624755859375 78.96624755859375 C 83.05401611328125 74.87847900390625 86.26304626464844 70.11915588378906 88.50419616699219 64.82049560546875 C 90.82384490966797 59.33623123168945 92 53.50878524780273 92 47.5 C 92 41.49121475219727 90.82384490966797 35.66376876831055 88.50419616699219 30.17950439453125 C 86.26304626464844 24.88084411621094 83.05401611328125 20.12152099609375 78.96624755859375 16.03375244140625 C 74.87847900390625 11.94598388671875 70.11915588378906 8.736953735351562 64.82049560546875 6.495796203613281 C 59.33623123168945 4.176155090332031 53.50878524780273 3 47.5 3 M 47.5 0 C 73.7335205078125 0 95 21.2664794921875 95 47.5 C 95 73.7335205078125 73.7335205078125 95 47.5 95 C 21.2664794921875 95 0 73.7335205078125 0 47.5 C 0 21.2664794921875 21.2664794921875 0 47.5 0 Z" stroke="none" fill="#ff9d1c"/>
                            </g>
                          </g>
                        </g>
                      </g>
                    </g>
                  </g>
                </g>
              </g>
            </g>
          </g>
        </g>
      </g>
    </g>
    <g id="presentation_12450626" transform="translate(1136.42 5149.471)">
      <g id="Grupo_1208998" data-name="Grupo 1208998" transform="translate(1.958 7.251)">
        <g id="Grupo_1208995" data-name="Grupo 1208995" transform="translate(0 0)">
          <path id="Trazado_1055981" data-name="Trazado 1055981" d="M154.738,312.385l-3.921.241,7.654,21.984h4.005Zm-14.17.387h4.005l-7.6,21.838h-4.005Z" transform="translate(-118.098 -276.636)" fill="#8d9ca8" fill-rule="evenodd"/>
          <path id="Trazado_1055982" data-name="Trazado 1055982" d="M172.28,312.385l-1.581.1,7.7,22.128h1.615Zm-11.78.387h1.615l-7.6,21.838H152.9Z" transform="translate(-135.64 -276.636)" fill="#7a8c98" fill-rule="evenodd"/>
          <path id="Trazado_1055983" data-name="Trazado 1055983" d="M23.114,51.494H78.972V16.211a1.923,1.923,0,0,0-1.919-1.919H25.033a1.923,1.923,0,0,0-1.919,1.919Z" transform="translate(-21.421 -14.292)" fill="#e6f8ff" fill-rule="evenodd"/>
          <path id="Trazado_1055984" data-name="Trazado 1055984" d="M454.8,51.494h2.4V16.211a1.923,1.923,0,0,0-1.919-1.919h-2.4a1.923,1.923,0,0,1,1.919,1.919Z" transform="translate(-399.652 -14.292)" fill="#dbf4ff" fill-rule="evenodd"/>
          <path id="Trazado_1055985" data-name="Trazado 1055985" d="M9.48,308.144H67.764a.481.481,0,0,0,.48-.48V304.98a.481.481,0,0,0-.48-.48H9.48a.481.481,0,0,0-.48.48v2.685A.481.481,0,0,0,9.48,308.144Z" transform="translate(-9 -269.696)" fill="#b4d2d7" fill-rule="evenodd"/>
          <path id="Trazado_1055986" data-name="Trazado 1055986" d="M9.48,308.144H67.764a.481.481,0,0,0,.48-.48V304.98a.481.481,0,0,0-.48-.48h-.72v1.965a.481.481,0,0,1-.48.48H9v.72A.481.481,0,0,0,9.48,308.144Z" transform="translate(-9 -269.696)" fill="#9bb9c3" fill-rule="evenodd"/>
        </g>
        <g id="Grupo_1208996" data-name="Grupo 1208996" transform="translate(4.828 3.284)">
          <path id="Trazado_1055987" data-name="Trazado 1055987" d="M58.667,41.672h3.768v1.891a9.532,9.532,0,0,1,3.43,1.422L67.2,43.647l2.665,2.665L68.53,47.649a9.533,9.533,0,0,1,1.421,3.43h1.891v3.768H69.951a9.534,9.534,0,0,1-1.421,3.43l1.338,1.338L67.2,62.28l-1.338-1.338a9.531,9.531,0,0,1-3.43,1.422v1.891H58.667V62.364a9.534,9.534,0,0,1-3.43-1.421L53.9,62.28l-2.665-2.665,1.338-1.338a9.534,9.534,0,0,1-1.422-3.43H49.26V51.079h1.891a9.534,9.534,0,0,1,1.422-3.43l-1.338-1.338L53.9,43.647l1.338,1.338a9.534,9.534,0,0,1,3.43-1.421V41.672Z" transform="translate(-49.26 -41.672)" fill="#ffda2d" fill-rule="evenodd"/>
          <path id="Trazado_1055988" data-name="Trazado 1055988" d="M148.445,43.562a9.549,9.549,0,0,1,4.167,1.966l.543-.543a9.532,9.532,0,0,0-3.43-1.422V41.672h-1.28Zm6.1,4.087a9.532,9.532,0,0,1,1.422,3.431h1.279a9.533,9.533,0,0,0-1.421-3.43l1.338-1.338-2.665-2.665-.669.669,2.053,2Zm1.422,7.2a9.533,9.533,0,0,1-1.422,3.431l1.337,1.337-2.025,2.024.64.64,2.665-2.665-1.338-1.338a9.528,9.528,0,0,0,1.421-3.43h-1.279Zm-3.35,5.551a9.549,9.549,0,0,1-4.167,1.966v1.89h1.28V62.364a9.534,9.534,0,0,0,3.43-1.422Zm5.24-5.551h1.28V51.079h-1.28Z" transform="translate(-136.55 -41.672)" fill="#ffc700" fill-rule="evenodd"/>
          <ellipse id="Elipse_12496" data-name="Elipse 12496" cx="5.852" cy="5.852" rx="5.852" ry="5.852" transform="matrix(1, -0.022, 0.022, 1, 5.319, 5.567)" fill="#fdb800"/>
          <path id="Trazado_1055989" data-name="Trazado 1055989" d="M100.467,87.028a5.828,5.828,0,0,1,3.8,1.4,5.852,5.852,0,0,0-6.563,9.61,5.852,5.852,0,0,1,2.766-11.01Z" transform="translate(-89.176 -81.589)" fill="#f4a40e" fill-rule="evenodd"/>
        </g>
        <g id="Grupo_1208997" data-name="Grupo 1208997" transform="translate(27.41 13.508)">
          <path id="Trazado_1055990" data-name="Trazado 1055990" d="M238.175,216.7h2.692a.615.615,0,0,1,.614.614v5.469a.615.615,0,0,1-.614.614h-2.692a.615.615,0,0,1-.614-.614v-5.469A.615.615,0,0,1,238.175,216.7Z" transform="translate(-237.561 -205.931)" fill="#fc685b" fill-rule="evenodd"/>
          <path id="Trazado_1055991" data-name="Trazado 1055991" d="M240.281,216.7h.585a.615.615,0,0,1,.614.614v5.469a.615.615,0,0,1-.614.614h-2.692a.615.615,0,0,1-.614-.614v-.585h2.107a.615.615,0,0,0,.614-.614Z" transform="translate(-237.56 -205.931)" fill="#f35244" fill-rule="evenodd"/>
          <path id="Trazado_1055992" data-name="Trazado 1055992" d="M295.259,186.774h2.692a.615.615,0,0,1,.614.614v9.057a.615.615,0,0,1-.614.614h-2.692a.615.615,0,0,1-.614-.614v-9.057A.615.615,0,0,1,295.259,186.774Z" transform="translate(-287.799 -179.597)" fill="#ffda2d" fill-rule="evenodd"/>
          <path id="Trazado_1055993" data-name="Trazado 1055993" d="M297.366,186.774h.585a.615.615,0,0,1,.614.614v9.057a.615.615,0,0,1-.614.614h-2.692a.615.615,0,0,1-.614-.614v-.585h2.107a.615.615,0,0,0,.614-.614Z" transform="translate(-287.799 -179.597)" fill="#ffc700" fill-rule="evenodd"/>
          <path id="Trazado_1055994" data-name="Trazado 1055994" d="M352.343,156.848h2.692a.615.615,0,0,1,.614.614v12.646a.615.615,0,0,1-.614.614h-2.692a.615.615,0,0,1-.614-.614V157.462A.615.615,0,0,1,352.343,156.848Z" transform="translate(-338.037 -153.259)" fill="#72d561" fill-rule="evenodd"/>
          <path id="Trazado_1055995" data-name="Trazado 1055995" d="M354.45,156.848h.585a.615.615,0,0,1,.614.614v12.646a.615.615,0,0,1-.614.614h-2.692a.615.615,0,0,1-.614-.614v-.585h2.107a.615.615,0,0,0,.614-.614Z" transform="translate(-338.037 -153.259)" fill="#3cbe52" fill-rule="evenodd"/>
          <path id="Trazado_1055996" data-name="Trazado 1055996" d="M409.428,126.925h2.692a.615.615,0,0,1,.614.614v16.235a.615.615,0,0,1-.614.614h-2.692a.615.615,0,0,1-.614-.614V127.539A.615.615,0,0,1,409.428,126.925Z" transform="translate(-388.276 -126.925)" fill="#64b5f6" fill-rule="evenodd"/>
          <path id="Trazado_1055997" data-name="Trazado 1055997" d="M411.535,126.925h.585a.615.615,0,0,1,.614.614v16.235a.615.615,0,0,1-.614.614h-2.692a.615.615,0,0,1-.614-.614v-.585h2.107a.615.615,0,0,0,.614-.614Z" transform="translate(-388.276 -126.925)" fill="#42a5f5" fill-rule="evenodd"/>
        </g>
      </g>
      <path id="Trazado_1055998" data-name="Trazado 1055998" d="M20.385,23.037a2.174,2.174,0,0,1-1.348,2.01v.239a.96.96,0,1,1-1.919,0v-.2a2.177,2.177,0,0,1-1.047-.781.959.959,0,1,1,1.554-1.124.257.257,0,0,0,.207.107h.381a.253.253,0,0,0,0-.506h-.271a2.171,2.171,0,0,1-.824-4.181v-.239a.96.96,0,0,1,1.919,0v.2a2.184,2.184,0,0,1,1.047.781.959.959,0,1,1-1.554,1.124.259.259,0,0,0-.206-.108h-.381a.253.253,0,0,0,0,.506h.271a2.175,2.175,0,0,1,2.172,2.172Zm-2.307,3.652a4.864,4.864,0,1,0-4.863-4.864A4.87,4.87,0,0,0,18.078,26.689Zm0-11.646a6.782,6.782,0,1,0,6.782,6.782A6.79,6.79,0,0,0,18.078,15.043Zm8.459,8.479a.96.96,0,0,1,.941-.772h.931V20.9h-.931a.96.96,0,0,1-.941-.771,8.549,8.549,0,0,0-1.278-3.085.96.96,0,0,1,.119-1.212l.659-.658L24.73,13.865l-.659.66a.961.961,0,0,1-1.211.12,8.535,8.535,0,0,0-3.084-1.279.96.96,0,0,1-.773-.94v-.932H17.153v.932a.96.96,0,0,1-.773.94A8.53,8.53,0,0,0,13.3,14.645a.96.96,0,0,1-1.211-.12l-.658-.66-1.309,1.308.659.658a.961.961,0,0,1,.119,1.212,8.558,8.558,0,0,0-1.279,3.085.958.958,0,0,1-.94.771H7.746V22.75h.932a.959.959,0,0,1,.94.772A8.535,8.535,0,0,0,10.9,26.606a.961.961,0,0,1-.119,1.211l-.659.659,1.309,1.307.658-.658a.959.959,0,0,1,1.211-.12,8.551,8.551,0,0,0,3.084,1.279.961.961,0,0,1,.773.941v.93H19v-.93a.96.96,0,0,1,.773-.941,8.534,8.534,0,0,0,3.084-1.279.96.96,0,0,1,1.211.12l.659.658,1.307-1.307-.659-.659a.96.96,0,0,1-.119-1.211A8.56,8.56,0,0,0,26.538,23.522ZM27.27,27a10.355,10.355,0,0,0,.966-2.328h1.134a.959.959,0,0,0,.959-.959V19.941a.959.959,0,0,0-.959-.959H28.236a10.327,10.327,0,0,0-.966-2.326l.8-.8a.96.96,0,0,0,0-1.356L25.408,11.83a.96.96,0,0,0-1.356,0l-.8.8a10.452,10.452,0,0,0-2.328-.964V10.534a.959.959,0,0,0-.959-.959H16.194a.959.959,0,0,0-.96.959v1.135a10.444,10.444,0,0,0-2.328.964l-.8-.8a.959.959,0,0,0-1.356,0L8.083,14.495a.96.96,0,0,0,0,1.356l.8.8a10.4,10.4,0,0,0-.964,2.326H6.787a.959.959,0,0,0-.96.959v3.768a.959.959,0,0,0,.96.959H7.921A10.425,10.425,0,0,0,8.886,27l-.8.8a.96.96,0,0,0,0,1.356l2.665,2.665a.956.956,0,0,0,1.356,0l.8-.8a10.394,10.394,0,0,0,2.328.965v1.134a.959.959,0,0,0,.96.959h3.768a.959.959,0,0,0,.959-.959V31.982a10.4,10.4,0,0,0,2.328-.965l.8.8a.957.957,0,0,0,1.356,0l2.665-2.664a.96.96,0,0,0,0-1.357ZM39.175,37.262h-2V28.894h2Zm.959-10.286H36.215a.96.96,0,0,0-.959.959V38.221a.959.959,0,0,0,.959.959h3.919a.959.959,0,0,0,.959-.959V27.935A.959.959,0,0,0,40.135,26.976Zm-7.8,10.286h-2V32.484h2Zm.959-6.7a.959.959,0,0,1,.959.959v6.7a.959.959,0,0,1-.959.959h-3.92a.959.959,0,0,1-.959-.959v-6.7a.959.959,0,0,1,.959-.959Zm12.733,6.7h-2V25.306h2Zm.959-13.874H43.06a.959.959,0,0,0-.959.959V38.221a.959.959,0,0,0,.959.959h3.921a.959.959,0,0,0,.959-.959V24.347A.959.959,0,0,0,46.981,23.388Zm5.886,13.874h-2V21.718h2ZM53.827,19.8h-3.92a.96.96,0,0,0-.959.959V38.221a.96.96,0,0,0,.959.959h3.92a.959.959,0,0,0,.959-.959V20.759A.959.959,0,0,0,53.827,19.8Zm-4.978-1.24a.961.961,0,0,1-.908-1.269l.3-.88L31.873,25.859a.959.959,0,1,1-.959-1.661l16.366-9.45-.911-.18a.96.96,0,0,1,.373-1.883l3.416.676a.959.959,0,0,1,.722,1.251l-1.122,3.3a.96.96,0,0,1-.908.652Zm11.394,26.18H2.918V43.014H60.242ZM41.883,55.353H39.909l-3.027-8.695h1.974Zm3.1,8.913H43.012l-2.435-6.994h1.975Zm-19.7-8.913H37.878L34.85,46.658H28.31Zm-5.134,8.913H18.175l2.435-6.994h1.974Zm4.157-17.607h1.973l-3.027,8.695H21.277ZM4.61,9.169V41.094H58.551V9.169a.96.96,0,0,0-.959-.959H5.569a.96.96,0,0,0-.959.959ZM61.2,41.094h-.733V9.169a2.882,2.882,0,0,0-2.878-2.878H5.569A2.881,2.881,0,0,0,2.691,9.169V41.094H1.958A.959.959,0,0,0,1,42.054V45.7a.959.959,0,0,0,.959.959H22.273l-3.027,8.695H16.558a.959.959,0,1,0,0,1.919h2.02l-2.659,7.638a.96.96,0,0,0,.907,1.275h4a.959.959,0,0,0,.906-.644l2.878-8.269H38.546l2.878,8.269a.961.961,0,0,0,.907.644h4.006a.96.96,0,0,0,.906-1.275l-2.659-7.638H46.6a.959.959,0,0,0,0-1.919H43.915l-3.027-8.695H61.2a.959.959,0,0,0,.96-.959V42.054A.96.96,0,0,0,61.2,41.094Z" fill-rule="evenodd"/>
    </g>
  </g>
</svg>
