<svg xmlns="http://www.w3.org/2000/svg" xmlns:xlink="http://www.w3.org/1999/xlink" width="108" height="108" viewBox="0 0 108 108">
  <defs>
    <filter id="Trazado_904820" x="0" y="0" width="108" height="108" filterUnits="userSpaceOnUse">
      <feOffset dy="3" input="SourceAlpha"/>
      <feGaussianBlur stdDeviation="3" result="blur"/>
      <feFlood flood-opacity="0.161"/>
      <feComposite operator="in" in2="blur"/>
      <feComposite in="SourceGraphic"/>
    </filter>
  </defs>
  <g id="Grupo_1209047" data-name="Grupo 1209047" transform="translate(-166 -3854)">
    <g id="Grupo_1208943" data-name="Grupo 1208943" transform="translate(175 3860)">
      <g id="Grupo_1173585" data-name="Grupo 1173585" transform="translate(0 0)">
        <g id="Grupo_1173428" data-name="Grupo 1173428">
          <g id="Grupo_1171958" data-name="Grupo 1171958">
            <g id="Grupo_1167341" data-name="Grupo 1167341">
              <g id="Grupo_1166792" data-name="Grupo 1166792">
                <g transform="matrix(1, 0, 0, 1, -9, -6)" filter="url(#Trazado_904820)">
                  <g id="Trazado_904820-2" data-name="Trazado 904820" transform="translate(9 6)" fill="#e9f9fd">
                    <path d="M 44.99999618530273 88.50005340576172 C 39.12687301635742 88.50005340576172 33.43022155761719 87.35012817382812 28.06829643249512 85.08221435546875 C 22.88852119445801 82.891357421875 18.23629570007324 79.75464630126953 14.24084663391113 75.75919342041016 C 10.24540901184082 71.76373291015625 7.108683586120605 67.11150360107422 4.917821407318115 61.93174362182617 C 2.649921178817749 56.56980514526367 1.499996185302734 50.87315368652344 1.499996185302734 45.00003051757812 C 1.499996185302734 39.12690734863281 2.649921178817749 33.43025588989258 4.917821407318115 28.06831741333008 C 7.108683586120605 22.88854217529297 10.24540901184082 18.23631858825684 14.24084663391113 14.24086761474609 C 18.23629570007324 10.24541759490967 22.88852119445801 7.10869312286377 28.06829643249512 4.917842864990234 C 33.43022155761719 2.649930477142334 39.12687301635742 1.500005483627319 44.99999618530273 1.500005483627319 C 50.87311935424805 1.500005483627319 56.56977081298828 2.649930477142334 61.93169784545898 4.917842864990234 C 67.11147308349609 7.10869312286377 71.76369476318359 10.24541759490967 75.75914764404297 14.24086761474609 C 79.75458526611328 18.23631858825684 82.89131164550781 22.88854217529297 85.08216857910156 28.06831741333008 C 87.35007476806641 33.43025588989258 88.5 39.12690734863281 88.5 45.00003051757812 C 88.5 50.87315368652344 87.35007476806641 56.56980514526367 85.08216857910156 61.93174362182617 C 82.89131164550781 67.11150360107422 79.75458526611328 71.76373291015625 75.75914764404297 75.75919342041016 C 71.76369476318359 79.75464630126953 67.11147308349609 82.891357421875 61.93169784545898 85.08221435546875 C 56.56977081298828 87.35012817382812 50.87311935424805 88.50005340576172 44.99999618530273 88.50005340576172 Z" stroke="none"/>
                    <path d="M 44.99999618530273 3 C 39.32870864868164 3 33.82865142822266 4.110061645507812 28.65262603759766 6.299346923828125 C 23.65165710449219 8.414573669433594 19.15968322753906 11.44334411621094 15.301513671875 15.30152893066406 C 11.44333648681641 19.15969848632812 8.414566040039062 23.65167236328125 6.299339294433594 28.65264511108398 C 4.110054016113281 33.82868576049805 2.999992370605469 39.32874298095703 2.999992370605469 45.00003051757812 C 2.999992370605469 50.67131805419922 4.110054016113281 56.1713752746582 6.299339294433594 61.34740447998047 C 8.414566040039062 66.348388671875 11.44333648681641 70.84034729003906 15.301513671875 74.69851684570312 C 19.15968322753906 78.55670166015625 23.65165710449219 81.58547210693359 28.65262603759766 83.70069885253906 C 33.82865142822266 85.88998413085938 39.32870864868164 87.00004577636719 44.99999618530273 87.00004577636719 C 50.67128372192383 87.00004577636719 56.17134094238281 85.88998413085938 61.34736633300781 83.70069885253906 C 66.34834289550781 81.58547210693359 70.84030914306641 78.55670166015625 74.69847869873047 74.69851684570312 C 78.55665588378906 70.84034729003906 81.58542633056641 66.348388671875 83.70065307617188 61.34740447998047 C 85.88993835449219 56.1713752746582 87 50.67131805419922 87 45.00003051757812 C 87 39.32874298095703 85.88993835449219 33.82868576049805 83.70065307617188 28.65264511108398 C 81.58542633056641 23.65167236328125 78.55665588378906 19.15969848632812 74.69847869873047 15.30152893066406 C 70.84030914306641 11.44334411621094 66.34834289550781 8.414573669433594 61.34736633300781 6.299346923828125 C 56.17134094238281 4.110061645507812 50.67128372192383 3 44.99999618530273 3 M 44.99999618530273 0 C 69.85281372070312 0 90 20.14720153808594 90 45.00003051757812 C 90 69.85284423828125 69.85281372070312 90.00004577636719 44.99999618530273 90.00004577636719 C 20.14717864990234 90.00004577636719 -7.62939453125e-06 69.85284423828125 -7.62939453125e-06 45.00003051757812 C -7.62939453125e-06 20.14720153808594 20.14717864990234 0 44.99999618530273 0 Z" stroke="none" fill="#36ceef"/>
                  </g>
                </g>
              </g>
            </g>
          </g>
        </g>
      </g>
    </g>
    <g id="innovation_2974381" transform="translate(186.747 3874.747)">
      <g id="Grupo_1209045" data-name="Grupo 1209045" transform="translate(2.02 2.02)">
        <g id="Grupo_1209033" data-name="Grupo 1209033" transform="translate(41.829 0)">
          <circle id="Elipse_12500" data-name="Elipse 12500" cx="4" cy="4" r="4" transform="translate(0.404 0.233)" fill="#ff826e"/>
        </g>
        <g id="Grupo_1209034" data-name="Grupo 1209034" transform="translate(44.889 40.808)">
          <path id="Trazado_1056140" data-name="Trazado 1056140" d="M52.121,42A6.121,6.121,0,1,1,46,48.121,6.126,6.126,0,0,1,52.121,42Z" transform="translate(-46 -42)" fill="#ff826e"/>
        </g>
        <g id="Grupo_1209035" data-name="Grupo 1209035" transform="translate(48.97 44.889)">
          <circle id="Elipse_12501" data-name="Elipse 12501" cx="2" cy="2" r="2" transform="translate(0.263 0.344)" fill="#fc6e51"/>
        </g>
        <g id="Grupo_1209036" data-name="Grupo 1209036" transform="translate(43.869 57.132)">
          <circle id="Elipse_12502" data-name="Elipse 12502" cx="2" cy="2" r="2" transform="translate(0.364 0.101)" fill="#ff826e"/>
        </g>
        <g id="Grupo_1209037" data-name="Grupo 1209037" transform="translate(10.202 48.97)">
          <path id="Trazado_1056141" data-name="Trazado 1056141" d="M28.323,50v2.04A8.162,8.162,0,1,1,12,52.04V50Z" transform="translate(-12 -50)" fill="#aab2bd"/>
        </g>
        <g id="Grupo_1209038" data-name="Grupo 1209038" transform="translate(7.141 42.849)">
          <path id="Trazado_1056142" data-name="Trazado 1056142" d="M31.445,47.061a3.065,3.065,0,0,1-3.061,3.061H12.061a3.061,3.061,0,0,1,0-6.121H28.384A3.057,3.057,0,0,1,31.445,47.061Z" transform="translate(-9 -44)" fill="#ccd1d9"/>
        </g>
        <g id="Grupo_1209039" data-name="Grupo 1209039" transform="translate(0 4.081)">
          <path id="Trazado_1056143" data-name="Trazado 1056143" d="M36.932,16.243A18.113,18.113,0,0,0,20.609,6h-.49a18.116,18.116,0,0,0-10.4,32.953A5.825,5.825,0,0,1,12.2,43.707v1.061H28.526V43.707a5.878,5.878,0,0,1,.653-2.673A5.947,5.947,0,0,1,31,38.953a18.115,18.115,0,0,0,6.917-9.488Z" transform="translate(-2 -6)" fill="#ffeaa7"/>
        </g>
        <g id="Grupo_1209040" data-name="Grupo 1209040" transform="translate(20.404 14.487)">
          <path id="Trazado_1056144" data-name="Trazado 1056144" d="M30.111,25.157v.02H26a6.144,6.144,0,0,0-4-4.754V16.2A10.214,10.214,0,0,1,30.111,25.157Z" transform="translate(-22 -16.2)" fill="#ff826e"/>
        </g>
        <g id="Grupo_1209041" data-name="Grupo 1209041" transform="translate(8.162 14.487)">
          <path id="Trazado_1056145" data-name="Trazado 1056145" d="M25.507,29.259h4.428A10.2,10.2,0,1,1,18.141,16.2h.02v4.224a6.123,6.123,0,1,0,7.346,8.835Z" transform="translate(-10 -16.2)" fill="#ff826e"/>
        </g>
        <g id="Grupo_1209042" data-name="Grupo 1209042" transform="translate(16.323 10.202)">
          <path id="Trazado_1056146" data-name="Trazado 1056146" d="M22.081,20.509V22.2A2.04,2.04,0,0,1,18,22.2V14.04A2.046,2.046,0,0,1,20.04,12a2.055,2.055,0,0,1,2.04,2.04v6.468Z" transform="translate(-18 -12)" fill="#fc6e51"/>
        </g>
        <g id="Grupo_1209043" data-name="Grupo 1209043" transform="translate(55.091 13.263)">
          <path id="Trazado_1056147" data-name="Trazado 1056147" d="M62.121,15V31.323A10.155,10.155,0,0,1,56.51,29.63L56,29.283V17.04l.51-.347A10.155,10.155,0,0,1,62.121,15Z" transform="translate(-56 -15)" fill="#b4dd7f"/>
        </g>
        <g id="Grupo_1209044" data-name="Grupo 1209044" transform="translate(18.364 11.222)">
          <path id="Trazado_1056148" data-name="Trazado 1056148" d="M41.424,29.323H22.04A2.046,2.046,0,0,1,20,27.283a2.055,2.055,0,0,1,2.04-2.04H34.283l1.02-4.081,1.02-4.081.245-.979.388-1.561A2.032,2.032,0,0,1,38.935,13H49.484A6.1,6.1,0,0,1,53.3,14.336l3.428,2.744V29.323L53.3,32.068A6.1,6.1,0,0,1,49.484,33.4h-10.1a1.023,1.023,0,0,1-1.02-1.02,3.065,3.065,0,0,1,3.061-3.061Z" transform="translate(-20 -13)" fill="#f0d0b4"/>
        </g>
      </g>
      <g id="Grupo_1209046" data-name="Grupo 1209046" transform="translate(1 1)">
        <path id="Trazado_1056149" data-name="Trazado 1056149" d="M63.233,14.263a11.086,11.086,0,0,0-6.063,1.8l-2.845-2.276a7.161,7.161,0,0,0-4.46-1.566H39.321a3.048,3.048,0,0,0-2.657,1.56,19.276,19.276,0,0,0-7.5-6.661H42.932a5.1,5.1,0,1,0,0-2.04h-22.8A19.134,19.134,0,0,0,9.162,39.89a4.788,4.788,0,0,1,2.04,3.919v.184a4.061,4.061,0,0,0,0,7.872v1.166a9.193,9.193,0,0,0,9.182,9.182H45.057a3.061,3.061,0,1,0,0-2.04H26.142a9.164,9.164,0,0,0,3.424-7.141V51.866a4.076,4.076,0,0,0,2.493-1.9H45.971a7.141,7.141,0,1,0,0-2.04H32.627a4.077,4.077,0,0,0-3.061-3.936V43.81a4.787,4.787,0,0,1,2.04-3.919,19.249,19.249,0,0,0,6.137-7.116,2.036,2.036,0,0,0,2.025,1.891h10.1A7.171,7.171,0,0,0,54.325,33.1l2.845-2.276a11.087,11.087,0,0,0,6.062,1.8h1.02V14.263ZM47.93,3.04A3.061,3.061,0,1,1,44.869,6.1,3.064,3.064,0,0,1,47.93,3.04Zm0,57.132a1.02,1.02,0,1,1-1.02,1.02A1.022,1.022,0,0,1,47.93,60.172Zm5.1-16.323a5.1,5.1,0,1,1-5.1,5.1A5.107,5.107,0,0,1,53.031,43.849ZM20.384,60.172a7.149,7.149,0,0,1-7.141-7.141v-1.02H27.526v1.02A7.149,7.149,0,0,1,20.384,60.172Zm10.2-12.243a2.042,2.042,0,0,1-2.04,2.04H12.222a2.04,2.04,0,0,1,0-4.081H28.546A2.042,2.042,0,0,1,30.586,47.93Zm-.149-9.71a6.828,6.828,0,0,0-2.912,5.591v.039H13.243V43.81a6.83,6.83,0,0,0-2.912-5.591,17.094,17.094,0,0,1,9.8-31.1h.5a17.2,17.2,0,0,1,15.235,9.352l-.468,1.87-.51,2.04-.51,2.04-.51,2.04H31.42a11.321,11.321,0,0,0-7.975-8.755V14.263a3.061,3.061,0,1,0-6.121,0v1.45A11.22,11.22,0,1,0,30.837,30.586h5.657a17.181,17.181,0,0,1-6.057,7.633ZM17.323,20.073a7.129,7.129,0,1,0,8.9,10.513h2.386a9.182,9.182,0,1,1-11.29-12.731Zm3.061,11.534a5.1,5.1,0,0,1-3.061-9.18,3.056,3.056,0,0,0,2.854,3.038,3.049,3.049,0,0,0,2.248,5.121h1.011a5.109,5.109,0,0,1-3.051,1.02Zm1.02-9.182a1.02,1.02,0,0,1-2.04,0V14.263a1.02,1.02,0,1,1,2.04,0Zm2.039.008a5.1,5.1,0,0,1,1.611,2.032H22.649A3.036,3.036,0,0,0,23.444,22.433Zm3.781,2.032a7.128,7.128,0,0,0-3.78-4.4v-2.21a9.272,9.272,0,0,1,5.885,6.611ZM53.05,31.508a5.12,5.12,0,0,1-3.186,1.118h-10.1a2.042,2.042,0,0,1,2.04-2.04h5.1v-2.04H22.424a1.02,1.02,0,0,1,0-2.04H46.91v-2.04H35.974l.51-2.04H46.91v-2.04H36.994l.51-2.04H46.91V16.3h-8.9l.317-1.267a1.018,1.018,0,0,1,.99-.773H49.864a5.12,5.12,0,0,1,3.187,1.118l3.04,2.432V29.076Zm9.163-.979a9.064,9.064,0,0,1-4.021-1.469l-.06-.04V17.869l.06-.04a9.052,9.052,0,0,1,4.021-1.469Z" transform="translate(-1 -1)"/>
        <path id="Trazado_1056150" data-name="Trazado 1056150" d="M52.061,51.121A3.061,3.061,0,1,0,49,48.061,3.064,3.064,0,0,0,52.061,51.121Zm0-4.081a1.02,1.02,0,1,1-1.02,1.02A1.022,1.022,0,0,1,52.061,47.04Z" transform="translate(-0.03 -0.111)"/>
      </g>
    </g>
  </g>
</svg>
