<svg xmlns="http://www.w3.org/2000/svg" width="190" height="130.756" viewBox="0 0 190 130.756">
  <g id="Grupo_1209049" data-name="Grupo 1209049" transform="translate(-1230 -4214)">
    <g id="Grupo_1208944" data-name="Grupo 1208944" transform="translate(206 3909.628)">
      <g id="Grupo_1208316" data-name="Grupo 1208316" transform="translate(1024 314)">
        <rect id="Rectángulo_419456" data-name="Rectángulo 419456" width="190" height="89" rx="2" transform="translate(0 11.372)" fill="#103d47"/>
        <path id="Trazado_1053177" data-name="Trazado 1053177" d="M1.186,0H148.874c.655,0,1.186,1.3,1.186,2.9V108.841c0,1.6-.531,2.9-1.186,2.9H1.186c-.655,0-1.186-1.3-1.186-2.9V2.9C0,1.3.531,0,1.186,0Z" transform="translate(19.97)" fill="#36ceef"/>
      </g>
    </g>
    <g id="adoption_18566278" transform="translate(1202.57 4214.01)">
      <g id="Grupo_1209048" data-name="Grupo 1209048" transform="translate(77.972 2.036)">
        <path id="Trazado_1056151" data-name="Trazado 1056151" d="M93.891,297.909,93.2,270.148a4.193,4.193,0,0,1,8.384-.209l.358,14.334a4.209,4.209,0,0,1,4.441.751q5.616,5.091,11.234,10.166a13.737,13.737,0,0,1,4.678,10.2l.421,16.834-17.776.442-.161-6.282A9.973,9.973,0,0,0,101.389,309l-4.1-3.71a9.98,9.98,0,0,1-3.394-7.38Z" transform="translate(-90.456 -200.006)" fill="#fbbd80" fill-rule="evenodd"/>
        <path id="Trazado_1056152" data-name="Trazado 1056152" d="M155.5,455.283l.2,8-17.776.442-.161-6.282a10.615,10.615,0,0,0-.268-2.158H155.5Z" transform="translate(-123.44 -341.059)" fill="#e2aa73" fill-rule="evenodd"/>
        <path id="Trazado_1056153" data-name="Trazado 1056153" d="M230.395,185.99H213.51v5.881a3.816,3.816,0,0,0,3.808,3.808h9.267a3.819,3.819,0,0,0,3.808-3.808V185.99Z" transform="translate(-180.047 -140.537)" fill="#daeafa" fill-rule="evenodd"/>
        <path id="Trazado_1056154" data-name="Trazado 1056154" d="M191.145,8.01a19,19,0,0,0-19,19c0,8,3.716,10.891,7.47,15.281a11.627,11.627,0,0,1,2.888,7.827H199.8a11.615,11.615,0,0,1,2.888-7.827c3.751-4.392,7.462-7.278,7.462-15.281a19.012,19.012,0,0,0-19.01-19Z" transform="translate(-149.241 -8.007)" fill="#ffd400" fill-rule="evenodd"/>
        <path id="Trazado_1056155" data-name="Trazado 1056155" d="M219.4,166.59H201.156a3.13,3.13,0,0,0,0,6.259H219.4a3.13,3.13,0,0,0,0-6.259Z" transform="translate(-168.52 -126.091)" fill="#2f5274" fill-rule="evenodd"/>
        <path id="Trazado_1056156" data-name="Trazado 1056156" d="M210.5,34.01A12.365,12.365,0,1,1,198.14,46.375,12.367,12.367,0,0,1,210.5,34.01Z" transform="translate(-168.602 -27.368)" fill="#edf6ff" fill-rule="evenodd"/>
        <path id="Trazado_1056157" data-name="Trazado 1056157" d="M229.989,99.214a12.37,12.37,0,0,1-17.3,0,7.063,7.063,0,0,1,6.977-6.114h3.35A7.058,7.058,0,0,1,229.989,99.214Z" transform="translate(-179.436 -71.368)" fill="#ff4646" fill-rule="evenodd"/>
        <path id="Trazado_1056158" data-name="Trazado 1056158" d="M222.37,94.747a7.025,7.025,0,0,1,4.5-1.637h3.35a6.989,6.989,0,0,1,4.5,1.637,8.666,8.666,0,0,1-12.352,0Z" transform="translate(-186.644 -71.376)" fill="#e63f3f" fill-rule="evenodd"/>
        <path id="Trazado_1056159" data-name="Trazado 1056159" d="M229.947,53.35a5.7,5.7,0,1,0,5.7,5.7A5.7,5.7,0,0,0,229.947,53.35Z" transform="translate(-188.044 -41.769)" fill="#fbbd80" fill-rule="evenodd"/>
        <path id="Trazado_1056160" data-name="Trazado 1056160" d="M177.3,273.2a23.034,23.034,0,0,0,5.853-2.423,1.428,1.428,0,0,1,1.384-.043l3.407,1.742a1.428,1.428,0,0,0,1.68-.268l3.458-3.458a1.435,1.435,0,0,0,.268-1.68l-1.736-3.407a1.408,1.408,0,0,1,.036-1.384,23.412,23.412,0,0,0,2.431-5.853,1.385,1.385,0,0,1,.947-1l3.631-1.18a1.427,1.427,0,0,0,1-1.376v-4.89H142.94v4.89a1.427,1.427,0,0,0,1,1.376l3.631,1.18a1.384,1.384,0,0,1,.947,1,23.451,23.451,0,0,0,2.431,5.853,1.408,1.408,0,0,1,.036,1.384l-1.736,3.407a1.414,1.414,0,0,0,.268,1.673l3.458,3.463a1.435,1.435,0,0,0,1.68.268l3.407-1.742a1.421,1.421,0,0,1,1.384.043,23,23,0,0,0,5.853,2.423,1.412,1.412,0,0,1,1,.955l1.18,3.631a1.425,1.425,0,0,0,1.371,1h4.9a1.427,1.427,0,0,0,1.371-1l1.18-3.631A1.41,1.41,0,0,1,177.3,273.2Z" transform="translate(-127.498 -186.689)" fill="#2f5274" fill-rule="evenodd"/>
        <path id="Trazado_1056161" data-name="Trazado 1056161" d="M227.4,247.98a14.008,14.008,0,0,1,.217,2.444,13.768,13.768,0,1,1-27.536,0,13.511,13.511,0,0,1,.217-2.444Z" transform="translate(-170.046 -186.697)" fill="#edf6ff" fill-rule="evenodd"/>
        <path id="Trazado_1056162" data-name="Trazado 1056162" d="M395.886,177.979a5.083,5.083,0,1,1-5.079-5.079A5.083,5.083,0,0,1,395.886,177.979Z" transform="translate(-308.28 -130.79)" fill="#0593fc" fill-rule="evenodd"/>
        <path id="Trazado_1056163" data-name="Trazado 1056163" d="M82.47,177.979a5.083,5.083,0,1,0,5.079-5.079A5.083,5.083,0,0,0,82.47,177.979Z" transform="translate(-82.47 -130.79)" fill="#0593fc" fill-rule="evenodd"/>
        <path id="Trazado_1056164" data-name="Trazado 1056164" d="M328.019,297.909l.695-27.761a4.193,4.193,0,0,0-8.384-.209l-.358,14.334a4.209,4.209,0,0,0-4.441.751q-5.616,5.091-11.234,10.166a13.737,13.737,0,0,0-4.678,10.2l-.429,16.834,17.784.442.161-6.282A9.973,9.973,0,0,1,320.521,309l4.1-3.71a9.98,9.98,0,0,0,3.394-7.38Z" transform="translate(-243.847 -200.006)" fill="#fbbd80" fill-rule="evenodd"/>
        <path id="Trazado_1056165" data-name="Trazado 1056165" d="M299.394,455.283l-.2,8,17.784.442.161-6.282a10.1,10.1,0,0,1,.268-2.158H299.394Z" transform="translate(-243.847 -341.059)" fill="#e2aa73" fill-rule="evenodd"/>
        <path id="Trazado_1056166" data-name="Trazado 1056166" d="M122.438,470.81h24.536a1.1,1.1,0,0,1,1.1,1.1v6.282a1.1,1.1,0,0,1-1.1,1.1H122.438a1.1,1.1,0,0,1-1.088-1.1v-6.282A1.094,1.094,0,0,1,122.438,470.81Z" transform="translate(-111.421 -352.623)" fill="#0593fc" fill-rule="evenodd"/>
        <path id="Trazado_1056167" data-name="Trazado 1056167" d="M307.651,470.81H283.116a1.1,1.1,0,0,0-1.1,1.1v6.282a1.1,1.1,0,0,0,1.1,1.1h24.536a1.1,1.1,0,0,0,1.088-1.1v-6.282A1.094,1.094,0,0,0,307.651,470.81Z" transform="translate(-231.061 -352.623)" fill="#0593fc" fill-rule="evenodd"/>
        <path id="Trazado_1056168" data-name="Trazado 1056168" d="M215.877,264.048a13.769,13.769,0,0,1-11.747-13.624,13.509,13.509,0,0,1,.217-2.444h-4.04a13.3,13.3,0,0,0-.217,2.444A13.765,13.765,0,0,0,213.854,264.2,13.567,13.567,0,0,0,215.877,264.048Z" transform="translate(-170.054 -186.697)" fill="#d5dde6" fill-rule="evenodd"/>
        <path id="Trazado_1056169" data-name="Trazado 1056169" d="M186.226,48.5a11.564,11.564,0,0,0-2.789-6.211c-3.759-4.392-7.47-7.278-7.47-15.281A19.019,19.019,0,0,1,193.062,8.092c-.633-.056-1.272-.092-1.918-.092a19,19,0,0,0-19,19c0,8,3.716,10.891,7.47,15.281A11.564,11.564,0,0,1,182.4,48.5h3.828Z" transform="translate(-149.241 -8)" fill="#e6bf00" fill-rule="evenodd"/>
        <path id="Trazado_1056170" data-name="Trazado 1056170" d="M204.976,166.59h-3.831a3.13,3.13,0,0,0,0,6.259h3.831a3.139,3.139,0,0,1-3.126-3.133,3.094,3.094,0,0,1,.393-1.512,3.146,3.146,0,0,1,2.732-1.614Z" transform="translate(-168.512 -126.091)" fill="#2a4a68" fill-rule="evenodd"/>
        <path id="Trazado_1056171" data-name="Trazado 1056171" d="M216.511,191.11h-3v4.574a3.816,3.816,0,0,0,3.808,3.808h3.823a3.819,3.819,0,0,1-3.808-3.808V191.11Z" transform="translate(-180.047 -144.35)" fill="#c4d3e1" fill-rule="evenodd"/>
      </g>
      <path id="Trazado_1056172" data-name="Trazado 1056172" d="M159.32,65.842a6.247,6.247,0,0,0-6.394,6.075l-.3,12.028a6.21,6.21,0,0,0-3.823,1.593q-3.7,3.344-7.4,6.693l-3.841,3.478a15.726,15.726,0,0,0-5.355,11.665l-.268,10.812h-1.4a3.141,3.141,0,0,0-3.138,3.138v6.282a3.141,3.141,0,0,0,3.138,3.138h24.533a3.141,3.141,0,0,0,3.138-3.138v-6.282a3.141,3.141,0,0,0-3.138-3.138H153.83a7.85,7.85,0,0,1,2.7-5.631l4.1-3.713a12.053,12.053,0,0,0,4.06-8.849l.7-27.761a6.253,6.253,0,0,0-6.078-6.392Zm-5.2,60.813H131.49v-4.38h22.628ZM160.6,99.888a7.96,7.96,0,0,1-2.715,5.917l-4.106,3.716a12.08,12.08,0,0,0-4.05,8.662H136.028l.266-10.71a11.781,11.781,0,0,1,4.012-8.734l3.841-3.478q3.693-3.344,7.39-6.688a2.147,2.147,0,1,1,2.883,3.182q-2.344,2.118-4.689,4.244-2.421,2.195-4.844,4.385a2.045,2.045,0,1,0,2.743,3.034q2.425-2.191,4.847-4.387,2.344-2.122,4.689-4.244a6.234,6.234,0,0,0-.485-9.645l.332-13.123a2.144,2.144,0,0,1,3.7-1.42,2.127,2.127,0,0,1,.6,1.527Zm-46.569,18.3h-1.4l-.268-10.812a15.73,15.73,0,0,0-5.355-11.665l-3.82-3.46q-3.7-3.356-7.416-6.714a6.2,6.2,0,0,0-3.82-1.591l-.3-12.028a6.237,6.237,0,0,0-12.47.314l.7,27.761a12.068,12.068,0,0,0,4.06,8.849l4.1,3.713a7.862,7.862,0,0,1,2.7,5.633H89.51a3.141,3.141,0,0,0-3.138,3.138v6.282a3.141,3.141,0,0,0,3.138,3.138h24.533a3.141,3.141,0,0,0,3.138-3.138v-6.282A3.156,3.156,0,0,0,114.036,118.185ZM90.787,109.52,86.68,105.8a7.97,7.97,0,0,1-2.715-5.917l-.7-27.761a2.159,2.159,0,0,1,2.091-2.2,2.15,2.15,0,0,1,2.2,2.089l.332,13.123a6.232,6.232,0,0,0-.483,9.645q2.34,2.118,4.683,4.239l4.849,4.39a2.045,2.045,0,1,0,2.743-3.034Q97.259,98.192,94.837,96q-2.344-2.122-4.683-4.239a2.148,2.148,0,1,1,2.881-3.187q3.708,3.352,7.411,6.709l3.82,3.46a11.781,11.781,0,0,1,4.012,8.734l.266,10.71H94.837a12.07,12.07,0,0,0-4.05-8.662Zm22.3,17.135H90.455v-4.38h22.628Zm-5.789-89a9.882,9.882,0,0,1,1.872,3.233,5.167,5.167,0,0,0,.733,9.809v2.671a5.864,5.864,0,0,0,5.853,5.861h9.272a5.862,5.862,0,0,0,5.853-5.861V50.617a5.167,5.167,0,0,0,.7-9.617,9.85,9.85,0,0,1,1.91-3.345c.5-.58,1-1.144,1.489-1.688,3.325-3.713,6.466-7.222,6.466-14.921a21.051,21.051,0,1,0-42.1,0c0,7.7,3.141,11.2,6.466,14.916.49.544,1,1.111,1.491,1.691Zm22.071,6.936a1.083,1.083,0,0,1,0,2.166H111.117a1.083,1.083,0,0,1,0-2.166h18.249Zm-4.344,10.547h-9.272a1.767,1.767,0,0,1-1.762-1.77V50.841h12.8v2.523A1.769,1.769,0,0,1,125.021,55.134ZM120.389,4.078a16.98,16.98,0,0,1,16.956,16.964c0,6.137-2.275,8.677-5.424,12.194-.5.562-1.024,1.144-1.553,1.762a13.886,13.886,0,0,0-2.916,5.5H113.315a13.9,13.9,0,0,0-2.914-5.5c-.529-.618-1.052-1.2-1.558-1.767-3.029-3.384-5.424-6.055-5.424-12.186A16.99,16.99,0,0,1,120.389,4.078ZM110.228,31.26a2.291,2.291,0,0,0,.2.189,14.372,14.372,0,0,0,19.9.026,2.05,2.05,0,0,0,.253-.24,14.412,14.412,0,1,0-20.345.026Zm3.782-2.107a5.035,5.035,0,0,1,2.812-2.967,7.708,7.708,0,0,0,7.138,0,5.033,5.033,0,0,1,2.812,2.962,10.291,10.291,0,0,1-12.761.005Zm6.379-6.18a3.656,3.656,0,1,1,3.652-3.652A3.656,3.656,0,0,1,120.389,22.973Zm0-12.255a10.32,10.32,0,0,1,9.191,15.013,9.209,9.209,0,0,0-2.518-2.492,7.743,7.743,0,1,0-13.351,0,9.131,9.131,0,0,0-2.52,2.5,10.32,10.32,0,0,1,9.2-15.018ZM161.005,42.1a7.138,7.138,0,0,0-6.826,5.082H142.221a2.045,2.045,0,0,0-2.046,2.045V61.273H104.4V49.225a2.045,2.045,0,0,0-2.046-2.045H90.391a7.135,7.135,0,1,0,0,4.091H100.3V61.276H93.923a2.045,2.045,0,0,0-2.046,2.046v4.893a3.475,3.475,0,0,0,2.413,3.32l3.322,1.078A25.521,25.521,0,0,0,100,78.378l-1.586,3.11a3.474,3.474,0,0,0,.633,4.053l3.46,3.46a3.473,3.473,0,0,0,4.05.638l3.123-1.586a25.265,25.265,0,0,0,5.753,2.385l1.088,3.33a3.477,3.477,0,0,0,3.312,2.411h4.893a3.478,3.478,0,0,0,3.312-2.408l1.088-3.333a25.325,25.325,0,0,0,5.753-2.385L138,89.634A3.5,3.5,0,0,0,142.06,89l3.44-3.447a3.458,3.458,0,0,0,.656-4.058l-1.588-3.116a25.655,25.655,0,0,0,2.388-5.766l3.317-1.078a3.479,3.479,0,0,0,2.418-3.322V63.319a2.045,2.045,0,0,0-2.046-2.045h-6.382v-10h9.913a7.13,7.13,0,1,0,6.829-9.173ZM83.565,52.269A3.04,3.04,0,1,1,86.6,49.225,3.048,3.048,0,0,1,83.565,52.269Zm50.445,13.5a11.724,11.724,0,1,1-23.448,0c0-.135.005-.268.008-.4H134C134.005,65.5,134.01,65.63,134.01,65.765ZM148.6,67.778l-3.236,1.05a3.443,3.443,0,0,0-2.278,2.423,21.742,21.742,0,0,1-2.209,5.342,3.413,3.413,0,0,0-.1,3.35l1.537,3.016L139.48,85.8l-3.016-1.53a3.446,3.446,0,0,0-3.353.087,21.212,21.212,0,0,1-5.335,2.211s-.005,0-.005,0a3.448,3.448,0,0,0-2.426,2.3l-1.052,3.223h-4.012l-1.044-3.2a3.466,3.466,0,0,0-2.441-2.321,21.327,21.327,0,0,1-5.347-2.219,3.425,3.425,0,0,0-3.325-.087L105.093,85.8l-2.837-2.837,1.54-3.021c.005-.008.008-.018.013-.026a3.424,3.424,0,0,0-.117-3.322,21.469,21.469,0,0,1-2.209-5.342,3.451,3.451,0,0,0-2.293-2.429l-3.22-1.044V65.362h10.514c0,.133-.008.268-.008.4a15.812,15.812,0,1,0,31.625,0c0-.135-.005-.268-.008-.4H148.6v2.416Zm12.4-15.509a3.04,3.04,0,1,1,3.044-3.044A3.043,3.043,0,0,1,161.005,52.269Z"/>
    </g>
  </g>
</svg>
