<svg xmlns="http://www.w3.org/2000/svg" xmlns:xlink="http://www.w3.org/1999/xlink" width="108" height="108" viewBox="0 0 108 108">
  <defs>
    <filter id="Trazado_904820" x="0" y="0" width="108" height="108" filterUnits="userSpaceOnUse">
      <feOffset dy="3" input="SourceAlpha"/>
      <feGaussianBlur stdDeviation="3" result="blur"/>
      <feFlood flood-opacity="0.161"/>
      <feComposite operator="in" in2="blur"/>
      <feComposite in="SourceGraphic"/>
    </filter>
  </defs>
  <g id="Grupo_1209077" data-name="Grupo 1209077" transform="translate(-166 -5057)">
    <g id="Grupo_1208945" data-name="Grupo 1208945" transform="translate(175 5063)">
      <g id="Grupo_1173585" data-name="Grupo 1173585" transform="translate(0 0)">
        <g id="Grupo_1173428" data-name="Grupo 1173428">
          <g id="Grupo_1171958" data-name="Grupo 1171958">
            <g id="Grupo_1167341" data-name="Grupo 1167341">
              <g id="Grupo_1166792" data-name="Grupo 1166792">
                <g transform="matrix(1, 0, 0, 1, -9, -6)" filter="url(#Trazado_904820)">
                  <g id="Trazado_904820-2" data-name="Trazado 904820" transform="translate(9 6)" fill="#e9f9fd">
                    <path d="M 44.99999618530273 88.50005340576172 C 39.12687301635742 88.50005340576172 33.43022155761719 87.35012817382812 28.06829643249512 85.08221435546875 C 22.88852119445801 82.891357421875 18.23629570007324 79.75464630126953 14.24084663391113 75.75919342041016 C 10.24540901184082 71.76373291015625 7.108683586120605 67.11150360107422 4.917821407318115 61.93174362182617 C 2.649921178817749 56.56980514526367 1.499996185302734 50.87315368652344 1.499996185302734 45.00003051757812 C 1.499996185302734 39.12690734863281 2.649921178817749 33.43025588989258 4.917821407318115 28.06831741333008 C 7.108683586120605 22.88854217529297 10.24540901184082 18.23631858825684 14.24084663391113 14.24086761474609 C 18.23629570007324 10.24541759490967 22.88852119445801 7.10869312286377 28.06829643249512 4.917842864990234 C 33.43022155761719 2.649930477142334 39.12687301635742 1.500005483627319 44.99999618530273 1.500005483627319 C 50.87311935424805 1.500005483627319 56.56977081298828 2.649930477142334 61.93169784545898 4.917842864990234 C 67.11147308349609 7.10869312286377 71.76369476318359 10.24541759490967 75.75914764404297 14.24086761474609 C 79.75458526611328 18.23631858825684 82.89131164550781 22.88854217529297 85.08216857910156 28.06831741333008 C 87.35007476806641 33.43025588989258 88.5 39.12690734863281 88.5 45.00003051757812 C 88.5 50.87315368652344 87.35007476806641 56.56980514526367 85.08216857910156 61.93174362182617 C 82.89131164550781 67.11150360107422 79.75458526611328 71.76373291015625 75.75914764404297 75.75919342041016 C 71.76369476318359 79.75464630126953 67.11147308349609 82.891357421875 61.93169784545898 85.08221435546875 C 56.56977081298828 87.35012817382812 50.87311935424805 88.50005340576172 44.99999618530273 88.50005340576172 Z" stroke="none"/>
                    <path d="M 44.99999618530273 3 C 39.32870864868164 3 33.82865142822266 4.110061645507812 28.65262603759766 6.299346923828125 C 23.65165710449219 8.414573669433594 19.15968322753906 11.44334411621094 15.301513671875 15.30152893066406 C 11.44333648681641 19.15969848632812 8.414566040039062 23.65167236328125 6.299339294433594 28.65264511108398 C 4.110054016113281 33.82868576049805 2.999992370605469 39.32874298095703 2.999992370605469 45.00003051757812 C 2.999992370605469 50.67131805419922 4.110054016113281 56.1713752746582 6.299339294433594 61.34740447998047 C 8.414566040039062 66.348388671875 11.44333648681641 70.84034729003906 15.301513671875 74.69851684570312 C 19.15968322753906 78.55670166015625 23.65165710449219 81.58547210693359 28.65262603759766 83.70069885253906 C 33.82865142822266 85.88998413085938 39.32870864868164 87.00004577636719 44.99999618530273 87.00004577636719 C 50.67128372192383 87.00004577636719 56.17134094238281 85.88998413085938 61.34736633300781 83.70069885253906 C 66.34834289550781 81.58547210693359 70.84030914306641 78.55670166015625 74.69847869873047 74.69851684570312 C 78.55665588378906 70.84034729003906 81.58542633056641 66.348388671875 83.70065307617188 61.34740447998047 C 85.88993835449219 56.1713752746582 87 50.67131805419922 87 45.00003051757812 C 87 39.32874298095703 85.88993835449219 33.82868576049805 83.70065307617188 28.65264511108398 C 81.58542633056641 23.65167236328125 78.55665588378906 19.15969848632812 74.69847869873047 15.30152893066406 C 70.84030914306641 11.44334411621094 66.34834289550781 8.414573669433594 61.34736633300781 6.299346923828125 C 56.17134094238281 4.110061645507812 50.67128372192383 3 44.99999618530273 3 M 44.99999618530273 0 C 69.85281372070312 0 90 20.14720153808594 90 45.00003051757812 C 90 69.85284423828125 69.85281372070312 90.00004577636719 44.99999618530273 90.00004577636719 C 20.14717864990234 90.00004577636719 -7.62939453125e-06 69.85284423828125 -7.62939453125e-06 45.00003051757812 C -7.62939453125e-06 20.14720153808594 20.14717864990234 0 44.99999618530273 0 Z" stroke="none" fill="#36ceef"/>
                  </g>
                </g>
              </g>
            </g>
          </g>
        </g>
      </g>
    </g>
    <g id="leadership_2849169" transform="translate(190.354 5075.354)">
      <g id="Grupo_1209075" data-name="Grupo 1209075" transform="translate(1.924 1.924)">
        <g id="Grupo_1209050" data-name="Grupo 1209050" transform="translate(9.24 11.089)">
          <path id="Trazado_1056173" data-name="Trazado 1056173" d="M17.544,21.392h7.392l3.169,7.392,2.375,5.544v4.62a4.566,4.566,0,0,0-2.772-.924,4.621,4.621,0,0,0-4.528,3.7,4.354,4.354,0,0,0-.092.924V26.937l-6.856-.573A4.611,4.611,0,0,1,12,21.762V14h5.544Z" transform="translate(-12 -14)" fill="#4fc1e9"/>
        </g>
        <g id="Grupo_1209051" data-name="Grupo 1209051" transform="translate(27.721 11.089)">
          <path id="Trazado_1056174" data-name="Trazado 1056174" d="M44.937,21.392V14h5.544v7.762a4.611,4.611,0,0,1-4.232,4.6l-6.856.573v6.468l1.164,1a2.064,2.064,0,0,1,.4,2.273c-.009.018-.009.028-.018.037a2.038,2.038,0,0,1-1.876,1.312H37.544v3.7H33.756A4.628,4.628,0,0,0,32,38.949v-4.62l2.375-5.544,3.169-7.392Z" transform="translate(-32 -14)" fill="#4fc1e9"/>
        </g>
        <g id="Grupo_1209052" data-name="Grupo 1209052" transform="translate(25.347 20.329)">
          <path id="Trazado_1056175" data-name="Trazado 1056175" d="M31.8,24l2.375,5.544L31.8,35.089,29.43,29.544Z" transform="translate(-29.43 -24)" fill="#e6e9ed"/>
        </g>
        <g id="Grupo_1209053" data-name="Grupo 1209053" transform="translate(27.721 17.899)">
          <path id="Trazado_1056176" data-name="Trazado 1056176" d="M37.544,21.952l-3.169,7.392L32,23.8l3.243-2.43a2.794,2.794,0,0,0,1.691.582Z" transform="translate(-32 -21.37)" fill="#aab2bd"/>
        </g>
        <g id="Grupo_1209054" data-name="Grupo 1209054" transform="translate(22.177 17.89)">
          <path id="Trazado_1056177" data-name="Trazado 1056177" d="M31.544,23.8l-2.375,5.544L26,21.951h.61a2.771,2.771,0,0,0,1.7-.591v.009Z" transform="translate(-26 -21.36)" fill="#aab2bd"/>
        </g>
        <g id="Grupo_1209055" data-name="Grupo 1209055" transform="translate(8.316 45.648)">
          <path id="Trazado_1056178" data-name="Trazado 1056178" d="M19.316,58.423v2.772H11L15.454,51.4a8.14,8.14,0,0,1,1.423,1.146,8.274,8.274,0,0,1,2.439,5.877Z" transform="translate(-11 -51.4)" fill="#ff826e"/>
        </g>
        <g id="Grupo_1209056" data-name="Grupo 1209056" transform="translate(0 45.648)">
          <path id="Trazado_1056179" data-name="Trazado 1056179" d="M5.863,51.4l4.454,9.795H2V58.423A8.314,8.314,0,0,1,5.863,51.4Z" transform="translate(-2 -51.4)" fill="#ff826e"/>
        </g>
        <g id="Grupo_1209057" data-name="Grupo 1209057" transform="translate(20.329)">
          <path id="Trazado_1056180" data-name="Trazado 1056180" d="M30.478,7.544h-.009a3.7,3.7,0,0,0-3.7,3.7v2.772a4.776,4.776,0,0,0,.129,1.1l-1.515-2.024A6.962,6.962,0,0,1,24,8.93V8.616a4.055,4.055,0,0,1,2.772-3.844,4.056,4.056,0,0,1,1.478-2.005A4,4,0,0,1,30.616,2h1.238A6.93,6.93,0,0,1,37.4,13.089c-.748,1-1.515,2.024-1.515,2.024a4.776,4.776,0,0,0,.129-1.1V11.878a1.853,1.853,0,0,0-1.543-1.82L32.141,9.67A2,2,0,0,1,30.468,7.7a.845.845,0,0,1,.009-.157Z" transform="translate(-24 -2)" fill="#b27946"/>
        </g>
        <g id="Grupo_1209058" data-name="Grupo 1209058" transform="translate(3.789 35.114)">
          <path id="Trazado_1056181" data-name="Trazado 1056181" d="M15.156,43.7H6.1a4.621,4.621,0,0,1,9.056,0Z" transform="translate(-6.1 -40)" fill="#656d78"/>
        </g>
        <g id="Grupo_1209059" data-name="Grupo 1209059" transform="translate(20.421 35.114)">
          <path id="Trazado_1056182" data-name="Trazado 1056182" d="M33.156,43.7H24.1A4.621,4.621,0,0,1,28.628,40a4.566,4.566,0,0,1,2.772.924A4.628,4.628,0,0,1,33.156,43.7Z" transform="translate(-24.1 -40)" fill="#656d78"/>
        </g>
        <g id="Grupo_1209060" data-name="Grupo 1209060" transform="translate(16.633 45.648)">
          <path id="Trazado_1056183" data-name="Trazado 1056183" d="M23.863,51.4l4.454,9.795H20V58.423A8.314,8.314,0,0,1,23.863,51.4Z" transform="translate(-20 -51.4)" fill="#b4dd7f"/>
        </g>
        <g id="Grupo_1209061" data-name="Grupo 1209061" transform="translate(24.949 45.648)">
          <path id="Trazado_1056184" data-name="Trazado 1056184" d="M37.316,58.423v2.772H29L33.454,51.4a8.14,8.14,0,0,1,1.423,1.146,8.274,8.274,0,0,1,2.439,5.877Z" transform="translate(-29 -51.4)" fill="#b4dd7f"/>
        </g>
        <g id="Grupo_1209062" data-name="Grupo 1209062" transform="translate(33.266 25.873)">
          <path id="Trazado_1056185" data-name="Trazado 1056185" d="M60.177,39.24v3.7H58.662a2.038,2.038,0,0,0-1.876,1.312.328.328,0,0,0-.037.083,2.061,2.061,0,0,0,.416,2.227l1.072,1.063-2.615,2.615-1.063-1.072a2.064,2.064,0,0,0-2.273-.4c-.018.009-.028.009-.037.018a2.038,2.038,0,0,0-1.312,1.876v1.515h-3.7V50.662a2.038,2.038,0,0,0-1.312-1.876c-.009-.009-.018-.009-.037-.018a2.064,2.064,0,0,0-2.273.4l-1.063,1.072-2.615-2.615,1.072-1.063a2.064,2.064,0,0,0,.4-2.273c-.009-.018-.009-.028-.018-.037a2.038,2.038,0,0,0-1.876-1.312H38v-3.7h1.515a2.038,2.038,0,0,0,1.876-1.312c.009-.009.009-.018.018-.037a2.064,2.064,0,0,0-.4-2.273l-1.164-1,2.707-2.68,1.063,1.072a2.064,2.064,0,0,0,2.273.4c.018-.009.028-.009.037-.018a2.038,2.038,0,0,0,1.312-1.876V30h3.7v1.515a2.038,2.038,0,0,0,1.312,1.876c.009.009.018.009.037.018a2.064,2.064,0,0,0,2.273-.4l1.063-1.072,2.615,2.615-1.072,1.063a2.064,2.064,0,0,0-.4,2.273c.009.018.009.028.018.037a2.038,2.038,0,0,0,1.876,1.312Zm-5.544,1.848a5.544,5.544,0,1,0-5.544,5.544A5.549,5.549,0,0,0,54.633,41.089Z" transform="translate(-38 -30)" fill="#ffc729"/>
        </g>
        <g id="Grupo_1209063" data-name="Grupo 1209063" transform="translate(51.747 51.747)">
          <circle id="Elipse_12503" data-name="Elipse 12503" cx="2" cy="2" r="2" transform="translate(-0.025 -0.025)" fill="#ff826e"/>
        </g>
        <g id="Grupo_1209064" data-name="Grupo 1209064" transform="translate(38.81 31.418)">
          <path id="Trazado_1056186" data-name="Trazado 1056186" d="M49.544,36A5.544,5.544,0,1,1,44,41.544,5.549,5.549,0,0,1,49.544,36Zm1.848,5.544a1.848,1.848,0,1,0-1.848,1.848A1.854,1.854,0,0,0,51.392,41.544Z" transform="translate(-44 -36)" fill="#fcd770"/>
        </g>
        <g id="Grupo_1209065" data-name="Grupo 1209065" transform="translate(44.354 51.747)">
          <ellipse id="Elipse_12504" data-name="Elipse 12504" cx="1.5" cy="2" rx="1.5" ry="2" transform="translate(0.367 -0.025)" fill="#ff826e"/>
        </g>
        <g id="Grupo_1209066" data-name="Grupo 1209066" transform="translate(38.81 3.696)">
          <path id="Trazado_1056187" data-name="Trazado 1056187" d="M51.392,8.772v4.62H45.848l-1.3-1.3A1.854,1.854,0,0,1,44,10.777V10.62a1.854,1.854,0,0,1,1.848-1.848,2.772,2.772,0,0,1,5.544,0Z" transform="translate(-44 -6)" fill="#f0d0b4"/>
        </g>
        <g id="Grupo_1209067" data-name="Grupo 1209067" transform="translate(36.962 51.747)">
          <circle id="Elipse_12505" data-name="Elipse 12505" cx="2" cy="2" r="2" transform="translate(-0.24 -0.025)" fill="#ff826e"/>
        </g>
        <g id="Grupo_1209068" data-name="Grupo 1209068" transform="translate(23.101 5.544)">
          <path id="Trazado_1056188" data-name="Trazado 1056188" d="M36.24,12.334v2.135a4.776,4.776,0,0,1-.129,1.1,4.7,4.7,0,0,1-1.22,2.172,4.624,4.624,0,0,1-5.443.8,4.632,4.632,0,0,1-2.319-2.975,4.776,4.776,0,0,1-.129-1.1V11.7A3.7,3.7,0,0,1,30.7,8h.009a.845.845,0,0,0-.009.157,2,2,0,0,0,1.673,1.968l2.329.388a1.853,1.853,0,0,1,1.543,1.82Z" transform="translate(-27 -8)" fill="#f0d0b4"/>
        </g>
        <g id="Grupo_1209069" data-name="Grupo 1209069" transform="translate(24.487 16.088)">
          <path id="Trazado_1056189" data-name="Trazado 1056189" d="M33.98,19.706a2.77,2.77,0,0,0,1,1.515l-3.243,2.43L28.5,21.221v-.009a2.733,2.733,0,0,0,.989-1.506l.074-.3a4.6,4.6,0,0,0,4.343,0Z" transform="translate(-28.5 -19.41)" fill="#f0d0b4"/>
        </g>
        <g id="Grupo_1209070" data-name="Grupo 1209070" transform="translate(20.329 38.81)">
          <path id="Trazado_1056190" data-name="Trazado 1056190" d="M33.148,44a4.354,4.354,0,0,1,.092.924,4.62,4.62,0,1,1-9.24,0A4.354,4.354,0,0,1,24.092,44Z" transform="translate(-24 -44)" fill="#f0d0b4"/>
        </g>
        <g id="Grupo_1209071" data-name="Grupo 1209071" transform="translate(24.949 44.354)">
          <path id="Trazado_1056191" data-name="Trazado 1056191" d="M33.454,51.294,29,61.089V50A8.241,8.241,0,0,1,33.454,51.294Z" transform="translate(-29 -50)" fill="#e6e9ed"/>
        </g>
        <g id="Grupo_1209072" data-name="Grupo 1209072" transform="translate(20.495 44.354)">
          <path id="Trazado_1056192" data-name="Trazado 1056192" d="M28.634,50V61.089L24.18,51.294A8.241,8.241,0,0,1,28.634,50Z" transform="translate(-24.18 -50)" fill="#e6e9ed"/>
        </g>
        <g id="Grupo_1209073" data-name="Grupo 1209073" transform="translate(9.24 3.696)">
          <path id="Trazado_1056193" data-name="Trazado 1056193" d="M19.392,10.62v.157a1.854,1.854,0,0,1-.545,1.312l-1.3,1.3H12V8.772a2.772,2.772,0,0,1,5.544,0,1.854,1.854,0,0,1,1.848,1.848Z" transform="translate(-12 -6)" fill="#f0d0b4"/>
        </g>
        <g id="Grupo_1209074" data-name="Grupo 1209074" transform="translate(3.696 38.81)">
          <path id="Trazado_1056194" data-name="Trazado 1056194" d="M15.148,44a4.354,4.354,0,0,1,.092.924,4.62,4.62,0,0,1-9.24,0A4.354,4.354,0,0,1,6.092,44Z" transform="translate(-6 -44)" fill="#f0d0b4"/>
        </g>
      </g>
      <g id="Grupo_1209076" data-name="Grupo 1209076" transform="translate(1 1)">
        <path id="Trazado_1056195" data-name="Trazado 1056195" d="M49.772,39a2.772,2.772,0,1,0,2.772,2.772A2.776,2.776,0,0,0,49.772,39Zm0,3.7a.924.924,0,1,1,.924-.924A.925.925,0,0,1,49.772,42.7Z" transform="translate(-4.494 -3.886)"/>
        <path id="Trazado_1056196" data-name="Trazado 1056196" d="M49.468,35a6.468,6.468,0,1,0,6.468,6.468A6.476,6.476,0,0,0,49.468,35Zm0,11.089a4.62,4.62,0,1,1,4.62-4.62A4.625,4.625,0,0,1,49.468,46.089Z" transform="translate(-4.19 -3.582)"/>
        <path id="Trazado_1056197" data-name="Trazado 1056197" d="M55.852,36.114a1.156,1.156,0,0,1-1.042-.778,1.144,1.144,0,0,1,.2-1.264l1.725-1.718L52.81,28.429l-1.717,1.726a1.151,1.151,0,0,1-1.3.182,1.122,1.122,0,0,1-.739-1.025V26.873H43.506v2.439a1.144,1.144,0,0,1-.779,1.041,1.132,1.132,0,0,1-1.263-.2L39.75,28.433,37.962,30.2V26.8l6-.5a5.577,5.577,0,0,0,5.084-5.525V8.392A3.7,3.7,0,0,0,41.744,7.6,2.777,2.777,0,0,0,39.81,10.24V10.4a2.752,2.752,0,0,0,.812,1.96L41.658,13.4v6.086H34.582a1.843,1.843,0,0,1-1.674-1.071,5.557,5.557,0,0,0,2.064-2.95l1.419-1.892A7.854,7.854,0,0,0,30.108,1H28.871A4.973,4.973,0,0,0,24.31,3.982a4.972,4.972,0,0,0-2.981,4.56v.312A7.9,7.9,0,0,0,22.9,13.567l1.418,1.892a5.555,5.555,0,0,0,2.064,2.951,1.842,1.842,0,0,1-1.673,1.071H17.633V13.4l1.036-1.036a2.752,2.752,0,0,0,.812-1.96V10.24A2.777,2.777,0,0,0,17.547,7.6a3.7,3.7,0,0,0-7.306.795V20.774A5.577,5.577,0,0,0,15.325,26.3l6,.5V41.658a5.532,5.532,0,0,0,2.142,4.368,9.282,9.282,0,0,0-4.914,4.543,9.279,9.279,0,0,0-4.914-4.543,5.544,5.544,0,1,0-6.818-.009A9.25,9.25,0,0,0,1,54.595v3.7H36.114v-3.7a9.25,9.25,0,0,0-5.825-8.578,5.523,5.523,0,0,0,.281-8.48V33.531l5.229-12.2h6.565l1.653.827.827-1.653-1.338-.669v-5.9h3.7v6.837a3.719,3.719,0,0,1-3.389,3.683l-7.7.642v6.932l-.437.432,1.871,1.608a1.163,1.163,0,0,1,.182,1.3,1.137,1.137,0,0,1-1.026.739H34.266v5.544H36.7a1.156,1.156,0,0,1,1.042.778,1.132,1.132,0,0,1-.2,1.264l-1.725,1.718,3.925,3.924,1.717-1.726a1.148,1.148,0,0,1,1.3-.182,1.122,1.122,0,0,1,.739,1.025V50.9h5.544V48.459a1.144,1.144,0,0,1,.779-1.041,1.13,1.13,0,0,1,1.263.2l1.717,1.726,3.925-3.924L55.01,43.7a1.117,1.117,0,0,1-.224-1.2l.041-.1a1.137,1.137,0,0,1,1.026-.739h2.439V36.114ZM9.316,53.1,6.983,47.969a7.331,7.331,0,0,1,2.333-.7Zm1.848-5.835a7.331,7.331,0,0,1,2.333.7L11.165,53.1Zm-.924-9.3a3.684,3.684,0,0,1,3.182,1.848H7.058A3.684,3.684,0,0,1,10.24,37.962Zm-3.7,3.7h7.392a3.7,3.7,0,0,1-7.392,0Zm-3.7,12.937A7.373,7.373,0,0,1,5.422,49l3.383,7.442H2.848Zm14.785,1.848H11.676L15.058,49a7.373,7.373,0,0,1,2.574,5.594Zm7.832-35.2a3.7,3.7,0,0,0,.885-.306l2.16,1.621-1.241,2.9Zm7.476-.306a3.733,3.733,0,0,0,.885.307l-1.8,4.21-1.241-2.9ZM23.177,8.542a3.128,3.128,0,0,1,2.14-2.97l.438-.146.146-.438a3.127,3.127,0,0,1,2.97-2.14h1.236a5.977,5.977,0,0,1,5.082,9.169v-.212a2.762,2.762,0,0,0-2.317-2.734l-2.329-.388a1.077,1.077,0,0,1,.178-2.139h.771V4.7h-.771A2.93,2.93,0,0,0,27.98,6.6,4.627,4.627,0,0,0,24.1,11.165v.854a6.037,6.037,0,0,1-.924-3.164Zm2.772,2.622a2.777,2.777,0,0,1,1.983-2.658,2.915,2.915,0,0,0,2.309,2l2.329.388a.92.92,0,0,1,.772.911v2.131a3.7,3.7,0,0,1-7.392,0Zm3.7,8.316a5.521,5.521,0,0,0,1.616-.242,3.531,3.531,0,0,0,.255.456l-1.871,1.4-1.871-1.4a3.766,3.766,0,0,0,.255-.456,5.53,5.53,0,0,0,1.616.242ZM13.937,6.544a1.85,1.85,0,0,1,1.848,1.848v.924h.924a.925.925,0,0,1,.924.924V10.4a.931.931,0,0,1-.271.653l-1.036,1.036H12.089v-3.7A1.85,1.85,0,0,1,13.937,6.544ZM30.056,39.81H23.692a3.663,3.663,0,0,1,6.364,0ZM27.8,47.266a7.331,7.331,0,0,1,2.333.7L27.8,53.1ZM25.949,53.1l-2.333-5.132a7.331,7.331,0,0,1,2.333-.7Zm-6.468,1.493A7.373,7.373,0,0,1,22.055,49l3.383,7.442H19.481Zm14.785,0v1.848H28.308L31.691,49A7.373,7.373,0,0,1,34.266,54.595Zm-7.392-9.24a3.7,3.7,0,0,1-3.7-3.7H30.57A3.7,3.7,0,0,1,26.873,45.354Zm0-9.24a5.516,5.516,0,0,0-3.7,1.423V25.1l-7.7-.641a3.719,3.719,0,0,1-3.389-3.684V13.937h3.7v5.9l-1.337.669.827,1.653,1.652-.827h6.565l5.229,12.2v2.907a5.522,5.522,0,0,0-1.848-.323ZM29.646,31l-1.371-3.2,1.371-3.2,1.371,3.2ZM42.965,12.089l-1.036-1.036a.933.933,0,0,1-.271-.653V10.24a.925.925,0,0,1,.924-.924h.924V8.392a1.848,1.848,0,0,1,3.7,0v3.7ZM56.443,39.81h-.59a2.98,2.98,0,0,0-2.733,1.88l-.04.1a2.984,2.984,0,0,0,.626,3.221l.413.411-1.306,1.306-.411-.412a3.09,3.09,0,0,0-5.2,2.146v.591H45.354v-.591a3.091,3.091,0,0,0-5.2-2.147l-.41.412-1.306-1.306.413-.411a3.09,3.09,0,0,0-2.147-5.2h-.59V37.962h.59a3.087,3.087,0,0,0,2.1-5.244l-.4-.347,1.342-1.329.414.416a3.091,3.091,0,0,0,5.2-2.146v-.591H47.2v.591a3.091,3.091,0,0,0,5.2,2.147l.41-.412,1.306,1.306-.412.41a3.09,3.09,0,0,0,2.147,5.2h.59Z" transform="translate(-1 -1)"/>
        <path id="Trazado_1056198" data-name="Trazado 1056198" d="M43.772,57a2.772,2.772,0,1,0,2.772,2.772A2.776,2.776,0,0,0,43.772,57Zm0,3.7a.924.924,0,1,1,.924-.924A.925.925,0,0,1,43.772,60.7Z" transform="translate(-4.038 -5.253)"/>
        <path id="Trazado_1056199" data-name="Trazado 1056199" d="M51.772,57a2.772,2.772,0,1,0,2.772,2.772A2.776,2.776,0,0,0,51.772,57Zm0,3.7a.924.924,0,1,1,.924-.924A.925.925,0,0,1,51.772,60.7Z" transform="translate(-4.646 -5.253)"/>
        <path id="Trazado_1056200" data-name="Trazado 1056200" d="M59.772,57a2.772,2.772,0,1,0,2.772,2.772A2.776,2.776,0,0,0,59.772,57Zm0,3.7a.924.924,0,1,1,.924-.924A.925.925,0,0,1,59.772,60.7Z" transform="translate(-5.253 -5.253)"/>
      </g>
    </g>
  </g>
</svg>
