<svg xmlns="http://www.w3.org/2000/svg" xmlns:xlink="http://www.w3.org/1999/xlink" width="108" height="108" viewBox="0 0 108 108">
  <defs>
    <filter id="Trazado_904820" x="0" y="0" width="108" height="108" filterUnits="userSpaceOnUse">
      <feOffset dy="3" input="SourceAlpha"/>
      <feGaussianBlur stdDeviation="3" result="blur"/>
      <feFlood flood-opacity="0.161"/>
      <feComposite operator="in" in2="blur"/>
      <feComposite in="SourceGraphic"/>
    </filter>
  </defs>
  <g id="Grupo_1207515" data-name="Grupo 1207515" transform="translate(9 6)">
    <g id="Grupo_1173585" data-name="Grupo 1173585" transform="translate(0 0)">
      <g id="Grupo_1173428" data-name="Grupo 1173428">
        <g id="Grupo_1171958" data-name="Grupo 1171958">
          <g id="Grupo_1167341" data-name="Grupo 1167341">
            <g id="Grupo_1166792" data-name="Grupo 1166792">
              <g transform="matrix(1, 0, 0, 1, -9, -6)" filter="url(#Trazado_904820)">
                <g id="Trazado_904820-2" data-name="Trazado 904820" transform="translate(9 6)" fill="#e9f9fd">
                  <path d="M 44.99999618530273 88.50005340576172 C 39.12687301635742 88.50005340576172 33.43022155761719 87.35012817382812 28.06829643249512 85.08221435546875 C 22.88852119445801 82.891357421875 18.23629570007324 79.75464630126953 14.24084663391113 75.75919342041016 C 10.24540901184082 71.76373291015625 7.108683586120605 67.11150360107422 4.917821407318115 61.93174362182617 C 2.649921178817749 56.56980514526367 1.499996185302734 50.87315368652344 1.499996185302734 45.00003051757812 C 1.499996185302734 39.12690734863281 2.649921178817749 33.43025588989258 4.917821407318115 28.06831741333008 C 7.108683586120605 22.88854217529297 10.24540901184082 18.23631858825684 14.24084663391113 14.24086761474609 C 18.23629570007324 10.24541759490967 22.88852119445801 7.10869312286377 28.06829643249512 4.917842864990234 C 33.43022155761719 2.649930477142334 39.12687301635742 1.500005483627319 44.99999618530273 1.500005483627319 C 50.87311935424805 1.500005483627319 56.56977081298828 2.649930477142334 61.93169784545898 4.917842864990234 C 67.11147308349609 7.10869312286377 71.76369476318359 10.24541759490967 75.75914764404297 14.24086761474609 C 79.75458526611328 18.23631858825684 82.89131164550781 22.88854217529297 85.08216857910156 28.06831741333008 C 87.35007476806641 33.43025588989258 88.5 39.12690734863281 88.5 45.00003051757812 C 88.5 50.87315368652344 87.35007476806641 56.56980514526367 85.08216857910156 61.93174362182617 C 82.89131164550781 67.11150360107422 79.75458526611328 71.76373291015625 75.75914764404297 75.75919342041016 C 71.76369476318359 79.75464630126953 67.11147308349609 82.891357421875 61.93169784545898 85.08221435546875 C 56.56977081298828 87.35012817382812 50.87311935424805 88.50005340576172 44.99999618530273 88.50005340576172 Z" stroke="none"/>
                  <path d="M 44.99999618530273 3 C 39.32870864868164 3 33.82865142822266 4.110061645507812 28.65262603759766 6.299346923828125 C 23.65165710449219 8.414573669433594 19.15968322753906 11.44334411621094 15.301513671875 15.30152893066406 C 11.44333648681641 19.15969848632812 8.414566040039062 23.65167236328125 6.299339294433594 28.65264511108398 C 4.110054016113281 33.82868576049805 2.999992370605469 39.32874298095703 2.999992370605469 45.00003051757812 C 2.999992370605469 50.67131805419922 4.110054016113281 56.1713752746582 6.299339294433594 61.34740447998047 C 8.414566040039062 66.348388671875 11.44333648681641 70.84034729003906 15.301513671875 74.69851684570312 C 19.15968322753906 78.55670166015625 23.65165710449219 81.58547210693359 28.65262603759766 83.70069885253906 C 33.82865142822266 85.88998413085938 39.32870864868164 87.00004577636719 44.99999618530273 87.00004577636719 C 50.67128372192383 87.00004577636719 56.17134094238281 85.88998413085938 61.34736633300781 83.70069885253906 C 66.34834289550781 81.58547210693359 70.84030914306641 78.55670166015625 74.69847869873047 74.69851684570312 C 78.55665588378906 70.84034729003906 81.58542633056641 66.348388671875 83.70065307617188 61.34740447998047 C 85.88993835449219 56.1713752746582 87 50.67131805419922 87 45.00003051757812 C 87 39.32874298095703 85.88993835449219 33.82868576049805 83.70065307617188 28.65264511108398 C 81.58542633056641 23.65167236328125 78.55665588378906 19.15969848632812 74.69847869873047 15.30152893066406 C 70.84030914306641 11.44334411621094 66.34834289550781 8.414573669433594 61.34736633300781 6.299346923828125 C 56.17134094238281 4.110061645507812 50.67128372192383 3 44.99999618530273 3 M 44.99999618530273 0 C 69.85281372070312 0 90 20.14720153808594 90 45.00003051757812 C 90 69.85284423828125 69.85281372070312 90.00004577636719 44.99999618530273 90.00004577636719 C 20.14717864990234 90.00004577636719 -7.62939453125e-06 69.85284423828125 -7.62939453125e-06 45.00003051757812 C -7.62939453125e-06 20.14720153808594 20.14717864990234 0 44.99999618530273 0 Z" stroke="none" fill="#1d7083"/>
                </g>
              </g>
            </g>
          </g>
        </g>
      </g>
    </g>
    <g id="database_2835247" transform="translate(19.581 18.538)">
      <g id="Grupo_1208981" data-name="Grupo 1208981" transform="translate(1.878 1.878)">
        <g id="Grupo_1208966" data-name="Grupo 1208966" transform="translate(0 7.026)">
          <path id="Trazado_1055927" data-name="Trazado 1055927" d="M24.835,17.026v7.9a.881.881,0,0,1-.878.878H2.878A.881.881,0,0,1,2,24.931V10H24.835Z" transform="translate(-2 -10)" fill="#e6e9ed"/>
        </g>
        <g id="Grupo_1208967" data-name="Grupo 1208967" transform="translate(29.861 10.539)">
          <path id="Trazado_1055928" data-name="Trazado 1055928" d="M58.835,14V28.931a.881.881,0,0,1-.878.878H36.878A.881.881,0,0,1,36,28.931V14Z" transform="translate(-36 -14)" fill="#e6e9ed"/>
        </g>
        <g id="Grupo_1208968" data-name="Grupo 1208968" transform="translate(0 0)">
          <path id="Trazado_1055929" data-name="Trazado 1055929" d="M2,9.026V2.878A.881.881,0,0,1,2.878,2H23.957a.881.881,0,0,1,.878.878V9.026Z" transform="translate(-2 -2)" fill="#b4dd7f"/>
        </g>
        <g id="Grupo_1208969" data-name="Grupo 1208969" transform="translate(29.861 3.513)">
          <path id="Trazado_1055930" data-name="Trazado 1055930" d="M36,13.026V6.878A.881.881,0,0,1,36.878,6H57.957a.881.881,0,0,1,.878.878v6.148Z" transform="translate(-36 -6)" fill="#b4dd7f"/>
        </g>
        <g id="Grupo_1208970" data-name="Grupo 1208970" transform="translate(3.513 10.539)">
          <path id="Trazado_1055931" data-name="Trazado 1055931" d="M6,14H9.513v5.27H6Z" transform="translate(-6 -14)" fill="#ff826e"/>
        </g>
        <g id="Grupo_1208971" data-name="Grupo 1208971" transform="translate(40.776 40.776)">
          <circle id="Elipse_12495" data-name="Elipse 12495" cx="3" cy="3" r="3" transform="translate(-0.235 0.38)" fill="#ff826e"/>
        </g>
        <g id="Grupo_1208972" data-name="Grupo 1208972" transform="translate(33.375 14.052)">
          <path id="Trazado_1055932" data-name="Trazado 1055932" d="M40,18h3.513v5.27H40Z" transform="translate(-40 -18)" fill="#fcd770"/>
        </g>
        <g id="Grupo_1208973" data-name="Grupo 1208973" transform="translate(17.513 35.131)">
          <path id="Trazado_1055933" data-name="Trazado 1055933" d="M39.558,50.783V54.3a5.274,5.274,0,0,1-5.27,5.27H23.749V57.194a5.225,5.225,0,0,0-1.757-3.926L22,53.26l-.009-10.381a7.22,7.22,0,0,0-.053-.869L21.993,42H39.558Z" transform="translate(-21.94 -42)" fill="#e6e9ed"/>
        </g>
        <g id="Grupo_1208974" data-name="Grupo 1208974" transform="translate(14.623 29.861)">
          <path id="Trazado_1055934" data-name="Trazado 1055934" d="M18.659,36H38.279a.881.881,0,0,1,.878.878V41.27H21.592l-.053.009a7.8,7.8,0,0,0-2.266-4.716,6.235,6.235,0,0,0-.624-.553Z" transform="translate(-18.65 -36)" fill="#b4dd7f"/>
        </g>
        <g id="Grupo_1208975" data-name="Grupo 1208975" transform="translate(1.757 28.105)">
          <path id="Trazado_1055935" data-name="Trazado 1055935" d="M11.9,39.27l-.685.685a6.346,6.346,0,0,1-2.5,1.546,1.765,1.765,0,0,0-1.2,1.669v2.248A3.5,3.5,0,0,0,9.77,48.694V48.7l-.061.237A2.623,2.623,0,0,1,7.627,50.88c-.044.009-.1.018-.149.026l-.615.079a5.2,5.2,0,0,0-2.854,1.309L4,52.286V41.9A7.905,7.905,0,0,1,11.9,34a7.81,7.81,0,0,1,4.962,1.765,6.235,6.235,0,0,1,.624.553,7.8,7.8,0,0,1,2.266,4.716,7.219,7.219,0,0,1,.053.869l.009,10.381-.009.009a5.231,5.231,0,0,0-2.863-1.309l-.615-.079c-.053-.009-.105-.018-.149-.026A2.623,2.623,0,0,1,14.1,48.939l-.061-.237v-.009A3.5,3.5,0,0,0,16.3,45.418V43.169a1.765,1.765,0,0,0-1.2-1.669,6.346,6.346,0,0,1-2.5-1.546Z" transform="translate(-4 -34)" fill="#656d78"/>
        </g>
        <g id="Grupo_1208976" data-name="Grupo 1208976" transform="translate(0 44.985)">
          <path id="Trazado_1055936" data-name="Trazado 1055936" d="M9.219,56.54l2.442,4.391H2V58.56a5.3,5.3,0,0,1,4.62-5.235l.615-.079c.053-.009.105-.018.149-.026v.009Z" transform="translate(-2 -53.22)" fill="#4fc1e9"/>
        </g>
        <g id="Grupo_1208977" data-name="Grupo 1208977" transform="translate(9.661 44.985)">
          <path id="Trazado_1055937" data-name="Trazado 1055937" d="M17.277,53.229V53.22c.044.009.1.018.149.026l.615.079a5.286,5.286,0,0,1,4.62,5.235v2.371H13l2.442-4.391Z" transform="translate(-13 -53.22)" fill="#4fc1e9"/>
        </g>
        <g id="Grupo_1208978" data-name="Grupo 1208978" transform="translate(7.219 48.305)">
          <path id="Trazado_1055938" data-name="Trazado 1055938" d="M15.1,57l-2.442,4.391L10.22,57Z" transform="translate(-10.22 -57)" fill="#ffeaa7"/>
        </g>
        <g id="Grupo_1208979" data-name="Grupo 1208979" transform="translate(5.384 42.798)">
          <path id="Trazado_1055939" data-name="Trazado 1055939" d="M14.6,50.976a2.623,2.623,0,0,0,2.082,1.941v.009l-1.836,3.311H9.966L8.13,52.926v-.009a2.623,2.623,0,0,0,2.082-1.941l.061-.237V50.73a3.3,3.3,0,0,0,1.256.237h1.757a3.3,3.3,0,0,0,1.256-.237v.009Z" transform="translate(-8.13 -50.73)" fill="#f0d0b4"/>
        </g>
        <g id="Grupo_1208980" data-name="Grupo 1208980" transform="translate(5.27 33.375)">
          <path id="Trazado_1055940" data-name="Trazado 1055940" d="M16.783,43.9v2.248a3.5,3.5,0,0,1-2.257,3.276,3.3,3.3,0,0,1-1.256.237H11.513a3.3,3.3,0,0,1-1.256-.237A3.5,3.5,0,0,1,8,46.148V43.9a1.765,1.765,0,0,1,1.2-1.669,6.346,6.346,0,0,0,2.5-1.546L12.391,40l.685.685a6.346,6.346,0,0,0,2.5,1.546A1.765,1.765,0,0,1,16.783,43.9Z" transform="translate(-8 -40)" fill="#f0d0b4"/>
        </g>
      </g>
      <g id="Grupo_1208982" data-name="Grupo 1208982" transform="translate(1 1)">
        <path id="Trazado_1055941" data-name="Trazado 1055941" d="M5,5H6.757V6.757H5Z" transform="translate(-1.487 -1.487)"/>
        <path id="Trazado_1055942" data-name="Trazado 1055942" d="M9,5h1.757V6.757H9Z" transform="translate(-1.974 -1.487)"/>
        <path id="Trazado_1055943" data-name="Trazado 1055943" d="M5,20.026h5.27V13H5Zm1.757-5.27H8.513V18.27H6.757Z" transform="translate(-1.487 -2.461)"/>
        <path id="Trazado_1055944" data-name="Trazado 1055944" d="M13,13H23.539v1.757H13Z" transform="translate(-2.461 -2.461)"/>
        <path id="Trazado_1055945" data-name="Trazado 1055945" d="M13,17H23.539v1.757H13Z" transform="translate(-2.461 -2.948)"/>
        <path id="Trazado_1055946" data-name="Trazado 1055946" d="M5,23H6.757v1.757H5Z" transform="translate(-1.487 -3.678)"/>
        <path id="Trazado_1055947" data-name="Trazado 1055947" d="M9,23h1.757v1.757H9Z" transform="translate(-1.974 -3.678)"/>
        <path id="Trazado_1055948" data-name="Trazado 1055948" d="M13,21H23.539v1.757H13Z" transform="translate(-2.461 -3.434)"/>
        <path id="Trazado_1055949" data-name="Trazado 1055949" d="M13,5h1.757V6.757H13Z" transform="translate(-2.461 -1.487)"/>
        <path id="Trazado_1055950" data-name="Trazado 1055950" d="M53.7,4.513H32.618A1.758,1.758,0,0,0,30.861,6.27v8.783h-5.27V2.757A1.758,1.758,0,0,0,23.835,1H2.757A1.758,1.758,0,0,0,1,2.757V23.835a1.758,1.758,0,0,0,1.757,1.757H23.835a1.758,1.758,0,0,0,1.757-1.757V16.809h5.27V27.348A1.758,1.758,0,0,0,32.618,29.1h12.3V41.489a4.405,4.405,0,0,0-3.424,3.424h-3.6v-12.3a1.758,1.758,0,0,0-1.757-1.757H16.786a8.766,8.766,0,0,0-14.03,7.026V47.911A6.136,6.136,0,0,0,1,52.2v3.252H31.74a6.155,6.155,0,0,0,6.148-6.148V46.67h3.6a4.391,4.391,0,1,0,5.181-5.181V29.1H53.7a1.758,1.758,0,0,0,1.757-1.757V6.27A1.758,1.758,0,0,0,53.7,4.513ZM23.835,2.757v5.27H2.757V2.757ZM2.757,23.835V9.783H23.835V23.835Zm33.375,12.3H20.145a8.74,8.74,0,0,0-1.6-3.513H36.131Zm-24.659.43.067-.067.067.067a7.3,7.3,0,0,0,2.846,1.758.877.877,0,0,1,.6.833V41.4a2.638,2.638,0,0,1-2.635,2.635H10.661A2.638,2.638,0,0,1,8.026,41.4V39.153a.877.877,0,0,1,.6-.833,7.312,7.312,0,0,0,2.845-1.758Zm-1.49,9.162a4.316,4.316,0,0,0,.679.069h1.757a4.338,4.338,0,0,0,.68-.069,3.544,3.544,0,0,0,1.467,1.6l-1.1,1.981H9.616l-1.1-1.982A3.539,3.539,0,0,0,9.982,45.724Zm2.5,5.338-.947,1.7-.947-1.7Zm3.81-3.241.179.023A4.4,4.4,0,0,1,20.322,52.2v1.5h-7.29Zm-4.757-16.96a7.035,7.035,0,0,1,7.026,7.027l.011,8.77a6.1,6.1,0,0,0-1.881-.558l-.619-.077a1.761,1.761,0,0,1-1.319-.919,4.386,4.386,0,0,0,2.053-3.7V39.153a2.631,2.631,0,0,0-1.8-2.5h0a5.551,5.551,0,0,1-2.159-1.334l-.43-.43V32.618H10.661v2.271l-.43.43a5.541,5.541,0,0,1-2.16,1.334,2.632,2.632,0,0,0-1.8,2.5V41.4a4.382,4.382,0,0,0,2.053,3.7A1.76,1.76,0,0,1,7,46.022l-.617.077a6.134,6.134,0,0,0-1.872.554V37.888a7.034,7.034,0,0,1,7.026-7.026ZM2.757,52.2A4.4,4.4,0,0,1,6.6,47.844l.178-.022L10.046,53.7H2.757ZM31.74,53.7H22.079V52.2a6.134,6.134,0,0,0-1.745-4.278l-.011-10.035H36.131V49.305A4.4,4.4,0,0,1,31.74,53.7Zm16.687-7.9a2.635,2.635,0,1,1-2.635-2.635A2.638,2.638,0,0,1,48.427,45.792ZM53.7,6.27v5.27H32.618V6.27ZM32.618,27.348V13.3H53.7V27.348Z" transform="translate(-1 -1)"/>
        <path id="Trazado_1055951" data-name="Trazado 1055951" d="M39,9h1.757v1.757H39Z" transform="translate(-5.625 -1.974)"/>
        <path id="Trazado_1055952" data-name="Trazado 1055952" d="M43,9h1.757v1.757H43Z" transform="translate(-6.112 -1.974)"/>
        <path id="Trazado_1055953" data-name="Trazado 1055953" d="M39,24.026h5.27V17H39Zm1.757-5.27h1.757V22.27H40.757Z" transform="translate(-5.625 -2.948)"/>
        <path id="Trazado_1055954" data-name="Trazado 1055954" d="M47,17H57.539v1.757H47Z" transform="translate(-6.599 -2.948)"/>
        <path id="Trazado_1055955" data-name="Trazado 1055955" d="M47,21H57.539v1.757H47Z" transform="translate(-6.599 -3.434)"/>
        <path id="Trazado_1055956" data-name="Trazado 1055956" d="M39,27h1.757v1.757H39Z" transform="translate(-5.625 -4.165)"/>
        <path id="Trazado_1055957" data-name="Trazado 1055957" d="M43,27h1.757v1.757H43Z" transform="translate(-6.112 -4.165)"/>
        <path id="Trazado_1055958" data-name="Trazado 1055958" d="M47,25H57.539v1.757H47Z" transform="translate(-6.599 -3.921)"/>
        <path id="Trazado_1055959" data-name="Trazado 1055959" d="M47,9h1.757v1.757H47Z" transform="translate(-6.599 -1.974)"/>
        <path id="Trazado_1055960" data-name="Trazado 1055960" d="M25,45h3.513v1.757H25Z" transform="translate(-3.921 -6.356)"/>
        <path id="Trazado_1055961" data-name="Trazado 1055961" d="M31,45h7.026v1.757H31Z" transform="translate(-4.652 -6.356)"/>
        <path id="Trazado_1055962" data-name="Trazado 1055962" d="M25,49H37.3v1.757H25Z" transform="translate(-3.921 -6.843)"/>
        <path id="Trazado_1055963" data-name="Trazado 1055963" d="M25,53h5.27v1.757H25Z" transform="translate(-3.921 -7.33)"/>
        <path id="Trazado_1055964" data-name="Trazado 1055964" d="M33,53h5.27v1.757H33Z" transform="translate(-4.895 -7.33)"/>
        <path id="Trazado_1055965" data-name="Trazado 1055965" d="M27,57h1.757v1.757H27Z" transform="translate(-4.165 -7.816)"/>
        <path id="Trazado_1055966" data-name="Trazado 1055966" d="M31,57h1.757v1.757H31Z" transform="translate(-4.652 -7.816)"/>
      </g>
    </g>
  </g>
</svg>
