<svg xmlns="http://www.w3.org/2000/svg" width="35.121" height="33.988" viewBox="0 0 35.121 33.988">
  <path id="access-control_7008749" d="M33.289,16.162a2.8,2.8,0,0,0-1.133.238V11.064a1.133,1.133,0,0,0-1.133-1.133H28.87L30.457,8.47A2.232,2.232,0,0,0,31.59,8.8a2.266,2.266,0,1,0-1.954-1.133L27.216,9.931H19.127V7.609a2.832,2.832,0,1,0-1.133,0V9.931H12.25a2.266,2.266,0,0,0-4.373,0H3.832A1.133,1.133,0,0,0,2.7,11.064V32.024H1.566A.566.566,0,0,0,1,32.59a3.4,3.4,0,0,0,3.4,3.4H30.457a3.4,3.4,0,0,0,3.4-3.4.566.566,0,0,0-.566-.566H32.156V21.589a2.8,2.8,0,0,0,1.133.238,2.832,2.832,0,1,0,0-5.665ZM31.59,5.4a1.133,1.133,0,1,1-1.133,1.133A1.133,1.133,0,0,1,31.59,5.4ZM16.861,4.833a1.7,1.7,0,1,1,1.7,1.7,1.7,1.7,0,0,1-1.7-1.7Zm14.162,6.231V17.3a2.832,2.832,0,0,0-.51,1.133h-7.46a4.475,4.475,0,0,0-.906-2.192l5.517-5.172ZM18.561,15.6a3.4,3.4,0,1,1-3.4,3.4A3.4,3.4,0,0,1,18.561,15.6ZM26,11.064l-4.656,4.368a4.481,4.481,0,0,0-2.221-.929V11.064ZM17.994,14.5a4.532,4.532,0,0,0-1.824.651l-4.243-3.4a2.209,2.209,0,0,0,.323-.691h5.744ZM10.064,9.365A1.133,1.133,0,1,1,8.931,10.5,1.133,1.133,0,0,1,10.064,9.365Zm-6.231,1.7H7.877a2.245,2.245,0,0,0,3.172,1.467l4.226,3.354a4.532,4.532,0,1,0,6.8,5.942l3.4,2.679a2.362,2.362,0,0,0-.119.719,2.266,2.266,0,1,0,2.266-2.266,2.226,2.226,0,0,0-1.535.612l-3.4-2.691a4.532,4.532,0,0,0,.363-1.32h7.46a2.832,2.832,0,0,0,.51,1.133V32.024H21.959a.566.566,0,0,0-.4.164l-.4.4H13.695l-.4-.4a.566.566,0,0,0-.4-.164H3.832V18.995S3.99,13.781,3.832,11.064ZM27.624,24.093a1.133,1.133,0,1,1-1.133,1.133A1.133,1.133,0,0,1,27.624,24.093Zm5.03,9.064a2.317,2.317,0,0,1-.566,1.037,2.266,2.266,0,0,1-1.631.663H4.4a2.266,2.266,0,0,1-2.192-1.7H12.664l.4.4a.566.566,0,0,0,.4.164h7.931a.566.566,0,0,0,.4-.164l.4-.4Zm.634-12.462a1.7,1.7,0,1,1,1.7-1.7A1.7,1.7,0,0,1,33.289,20.694Z" transform="translate(-1 -2.001)" fill="#1d7083"/>
</svg>
