<svg xmlns="http://www.w3.org/2000/svg" xmlns:xlink="http://www.w3.org/1999/xlink" width="113" height="113" viewBox="0 0 113 113">
  <defs>
    <filter id="Trazado_982547" x="0" y="0" width="113" height="113" filterUnits="userSpaceOnUse">
      <feOffset dy="3" input="SourceAlpha"/>
      <feGaussianBlur stdDeviation="3" result="blur"/>
      <feFlood flood-opacity="0.161"/>
      <feComposite operator="in" in2="blur"/>
      <feComposite in="SourceGraphic"/>
    </filter>
  </defs>
  <g id="Grupo_1208994" data-name="Grupo 1208994" transform="translate(-796.5 -5128.397)">
    <g id="Grupo_1208829" data-name="Grupo 1208829" transform="translate(805.5 5134.397)">
      <g id="Grupo_1208311" data-name="Grupo 1208311" transform="translate(0 0)">
        <g id="Grupo_1207519" data-name="Grupo 1207519">
          <g id="Grupo_1202423" data-name="Grupo 1202423">
            <g id="Grupo_1202352" data-name="Grupo 1202352">
              <g id="Grupo_1174813" data-name="Grupo 1174813">
                <g id="Grupo_1201680" data-name="Grupo 1201680">
                  <g id="Grupo_1201330" data-name="Grupo 1201330">
                    <g id="Grupo_1172010" data-name="Grupo 1172010">
                      <g id="Grupo_1171046" data-name="Grupo 1171046">
                        <g id="Grupo_1148525" data-name="Grupo 1148525">
                          <g transform="matrix(1, 0, 0, 1, -9, -6)" filter="url(#Trazado_982547)">
                            <g id="Trazado_982547-2" data-name="Trazado 982547" transform="translate(9 6)" fill="#fff4e6">
                              <path d="M 47.5 93.5 C 41.28937149047852 93.5 35.26533508300781 92.28397369384766 29.59518623352051 89.88570404052734 C 24.11771965026855 87.56893157958984 19.19813346862793 84.25196075439453 14.97309303283691 80.02691650390625 C 10.74804019927979 75.80186462402344 7.431066513061523 70.88229370117188 5.114293098449707 65.40481567382812 C 2.716026782989502 59.73468017578125 1.5 53.71062850952148 1.5 47.5 C 1.5 41.28937149047852 2.716026782989502 35.26533508300781 5.114293098449707 29.59518623352051 C 7.431066513061523 24.11771965026855 10.74804019927979 19.19813346862793 14.97309303283691 14.97309303283691 C 19.19813346862793 10.74804019927979 24.11771965026855 7.431066513061523 29.59518623352051 5.114293098449707 C 35.26533508300781 2.716026782989502 41.28937149047852 1.5 47.5 1.5 C 53.71062850952148 1.5 59.73468017578125 2.716026782989502 65.40481567382812 5.114293098449707 C 70.88229370117188 7.431066513061523 75.80186462402344 10.74804019927979 80.02691650390625 14.97309303283691 C 84.25196075439453 19.19813346862793 87.56893157958984 24.11771965026855 89.88570404052734 29.59518623352051 C 92.28397369384766 35.26533508300781 93.5 41.28937149047852 93.5 47.5 C 93.5 53.71062850952148 92.28397369384766 59.73468017578125 89.88570404052734 65.40481567382812 C 87.56893157958984 70.88229370117188 84.25196075439453 75.80186462402344 80.02691650390625 80.02691650390625 C 75.80186462402344 84.25196075439453 70.88229370117188 87.56893157958984 65.40481567382812 89.88570404052734 C 59.73468017578125 92.28397369384766 53.71062850952148 93.5 47.5 93.5 Z" stroke="none"/>
                              <path d="M 47.5 3 C 41.49121475219727 3 35.66376876831055 4.176155090332031 30.17950439453125 6.495796203613281 C 24.88084411621094 8.736953735351562 20.12152099609375 11.94598388671875 16.03375244140625 16.03375244140625 C 11.94598388671875 20.12152099609375 8.736953735351562 24.88084411621094 6.495796203613281 30.17950439453125 C 4.176155090332031 35.66376876831055 3 41.49121475219727 3 47.5 C 3 53.50878524780273 4.176155090332031 59.33623123168945 6.495796203613281 64.82049560546875 C 8.736953735351562 70.11915588378906 11.94598388671875 74.87847900390625 16.03375244140625 78.96624755859375 C 20.12152099609375 83.05401611328125 24.88084411621094 86.26304626464844 30.17950439453125 88.50419616699219 C 35.66376876831055 90.82384490966797 41.49121475219727 92 47.5 92 C 53.50878524780273 92 59.33623123168945 90.82384490966797 64.82049560546875 88.50419616699219 C 70.11915588378906 86.26304626464844 74.87847900390625 83.05401611328125 78.96624755859375 78.96624755859375 C 83.05401611328125 74.87847900390625 86.26304626464844 70.11915588378906 88.50419616699219 64.82049560546875 C 90.82384490966797 59.33623123168945 92 53.50878524780273 92 47.5 C 92 41.49121475219727 90.82384490966797 35.66376876831055 88.50419616699219 30.17950439453125 C 86.26304626464844 24.88084411621094 83.05401611328125 20.12152099609375 78.96624755859375 16.03375244140625 C 74.87847900390625 11.94598388671875 70.11915588378906 8.736953735351562 64.82049560546875 6.495796203613281 C 59.33623123168945 4.176155090332031 53.50878524780273 3 47.5 3 M 47.5 0 C 73.7335205078125 0 95 21.2664794921875 95 47.5 C 95 73.7335205078125 73.7335205078125 95 47.5 95 C 21.2664794921875 95 0 73.7335205078125 0 47.5 C 0 21.2664794921875 21.2664794921875 0 47.5 0 Z" stroke="none" fill="#ff9d1c"/>
                            </g>
                          </g>
                        </g>
                      </g>
                    </g>
                  </g>
                </g>
              </g>
            </g>
          </g>
        </g>
      </g>
    </g>
    <g id="monitoring-system_5863367" transform="translate(825 5151)">
      <g id="Grupo_1208992" data-name="Grupo 1208992">
        <g id="Grupo_1208984" data-name="Grupo 1208984">
          <g id="Grupo_1208983" data-name="Grupo 1208983">
            <path id="Trazado_1055967" data-name="Trazado 1055967" d="M27,33a2.015,2.015,0,0,0-2-2V22h1.1a2,2,0,0,0,1.41-3.41l-.77-.78,2.27-2.26L33,11.56V5a4,4,0,0,0-4-4H5A4,4,0,0,0,1,5V49a4,4,0,0,0,4,4H29a4,4,0,0,0,4-4V42l-6-6Z" fill="#969faa"/>
          </g>
        </g>
        <g id="Grupo_1208985" data-name="Grupo 1208985">
          <path id="Trazado_1055968" data-name="Trazado 1055968" d="M28,49H6a1,1,0,0,1-1-1V8A1,1,0,0,1,6,7H28a1,1,0,0,1,1,1V48A1,1,0,0,1,28,49Z" fill="#69d6f4"/>
        </g>
        <g id="Grupo_1208986" data-name="Grupo 1208986">
          <path id="Trazado_1055969" data-name="Trazado 1055969" d="M33,42l-6-6V33a2.015,2.015,0,0,0-2-2V22h1.1a2,2,0,0,0,1.41-3.41l-.77-.78,2.27-2.26,4-4,.8-.81.78.77A2,2,0,0,0,38,10.1V9H48v1.1a2,2,0,0,0,3.41,1.41l.78-.77,7.07,7.07-.77.78A2,2,0,0,0,59.9,22H61V32H59.9a2,2,0,0,0-1.41,3.41l.77.78-7.07,7.07-.78-.77A2,2,0,0,0,48,43.9V45H38V43.84a2,2,0,0,0-3.4-1.43L34,43ZM55,27A12,12,0,1,0,43,39,12.006,12.006,0,0,0,55,27Z" fill="#fcd770"/>
        </g>
        <g id="Grupo_1208987" data-name="Grupo 1208987">
          <path id="Trazado_1055970" data-name="Trazado 1055970" d="M53.21,20.68a12,12,0,1,1-21.65,9.95L43,23l4,3,6.2-5.32Z" fill="#ff826e"/>
        </g>
        <g id="Grupo_1208988" data-name="Grupo 1208988">
          <path id="Trazado_1055971" data-name="Trazado 1055971" d="M24.33,53,25,61H9l.67-8L10,49H24Z" fill="#b4dd7f"/>
        </g>
        <g id="Grupo_1208989" data-name="Grupo 1208989">
          <path id="Trazado_1055972" data-name="Trazado 1055972" d="M21,23H11a1,1,0,0,1-1-1V12a1,1,0,0,1,1-1H21a1,1,0,0,1,1,1V22A1,1,0,0,1,21,23Z" fill="#d3a06c"/>
        </g>
        <g id="Grupo_1208990" data-name="Grupo 1208990">
          <path id="Trazado_1055973" data-name="Trazado 1055973" d="M23,33a2.006,2.006,0,0,1,2-2,2.015,2.015,0,0,1,2,2v8.76A10.25,10.25,0,0,1,24,49H10a10.25,10.25,0,0,1-3-7.24V32a1,1,0,0,1,1-1,3,3,0,0,1,3,3V23a2.006,2.006,0,0,1,2-2,2.015,2.015,0,0,1,2,2v8a2.006,2.006,0,0,1,2-2,2.015,2.015,0,0,1,2,2,2.006,2.006,0,0,1,2-2,2.015,2.015,0,0,1,2,2Z" fill="#f0d0b4"/>
        </g>
        <g id="Grupo_1208991" data-name="Grupo 1208991">
          <path id="Trazado_1055974" data-name="Trazado 1055974" d="M18,11v3a1,1,0,0,1-1,1H15a1,1,0,0,1-1-1V11Z" fill="#b27946"/>
        </g>
      </g>
      <g id="Grupo_1208993" data-name="Grupo 1208993">
        <path id="Trazado_1055975" data-name="Trazado 1055975" d="M36,54h2v2H36Z"/>
        <path id="Trazado_1055976" data-name="Trazado 1055976" d="M40,54h2v2H40Z"/>
        <path id="Trazado_1055977" data-name="Trazado 1055977" d="M44,54h2v2H44Z"/>
        <path id="Trazado_1055978" data-name="Trazado 1055978" d="M48,54h2v2H48Z"/>
        <path id="Trazado_1055979" data-name="Trazado 1055979" d="M43,14A13,13,0,1,0,56,27,13.015,13.015,0,0,0,43,14Zm0,2a10.978,10.978,0,0,1,8.864,4.514l-4.906,4.2-3.924-2.943L32.191,29A10.966,10.966,0,0,1,43,16Zm7,19.479a11.013,11.013,0,0,1-2,1.307V26.46l2-1.714ZM36,28.868l2-1.333v9.251a11.013,11.013,0,0,1-2-1.307ZM40,26.2l2-1.333V37.95a10.822,10.822,0,0,1-2-.376ZM44,25l2,1.5V37.573a11.006,11.006,0,0,1-2,.376ZM32.772,31.021,34,30.2v3.1A10.937,10.937,0,0,1,32.772,31.021ZM52,33.305V23.032l.908-.778A10.905,10.905,0,0,1,52,33.305Z"/>
        <path id="Trazado_1055980" data-name="Trazado 1055980" d="M59.9,33H62V21H59.9a1,1,0,0,1-.707-1.707l1.485-1.485L52.192,9.323l-1.485,1.485A1,1,0,0,1,49,10.1V8H37v2.1a1,1,0,0,1-1.707.707L34,9.515V5a5.006,5.006,0,0,0-5-5H5A5.006,5.006,0,0,0,0,5V49a5.006,5.006,0,0,0,5,5H8.58l-.667,8H26.087l-.667-8H29a5.006,5.006,0,0,0,5-5V44.4l1.3-1.276a1,1,0,0,1,1.7.713V46H49V43.9a1,1,0,0,1,1.707-.707l1.485,1.485,8.485-8.485-1.485-1.485A1,1,0,0,1,59.9,33ZM5,52a3,3,0,0,1-3-3V5A3,3,0,0,1,5,2H29a3,3,0,0,1,3,3v6.13l-2,2V8a2,2,0,0,0-2-2H6A2,2,0,0,0,4,8V29H6V8H28v7.13l-2.678,2.678,1.485,1.485A1,1,0,0,1,26.1,21H24v9.184c-.038.014-.079.021-.116.036A2.973,2.973,0,0,0,19,28.78a2.908,2.908,0,0,0-3-.6V24h5a2,2,0,0,0,2-2V12a2,2,0,0,0-2-2H11a2,2,0,0,0-2,2V22a1.993,1.993,0,0,0,1,1.722v6.835A3.95,3.95,0,0,0,8,30a2,2,0,0,0-2,2v9.758a11.151,11.151,0,0,0,2.968,7.591L8.747,52Zm18.559-4H10.441A9.17,9.17,0,0,1,8,41.758V32a2,2,0,0,1,2,2v2h2V23a1,1,0,0,1,2,0V36h2V31a1,1,0,0,1,2,0v5h2V31a1,1,0,0,1,2,0v5h2V33a1,1,0,0,1,2,0v8.758A9.17,9.17,0,0,1,23.559,48ZM15,12h2v2H15Zm0,4h2a2,2,0,0,0,2-2V12h2V22H15.816A2.972,2.972,0,0,0,11,20.78V12h2v2A2,2,0,0,0,15,16ZM10.087,60l.833-10H23.08l.833,10ZM29,52H25.253l-.221-2.651A11.151,11.151,0,0,0,28,41.758V38.414l4,4V49a3,3,0,0,1-3,3ZM57.128,32.852a2.955,2.955,0,0,0,.65,3.27l.071.071L52.192,41.85l-.071-.071A3,3,0,0,0,47,43.9V44H39v-.161a3,3,0,0,0-4.991-2.245L28,35.586V33a3,3,0,0,0-2-2.816V23h.1a3,3,0,0,0,2.121-5.122l-.071-.071,5.657-5.657.071.071A3,3,0,0,0,39,10.1V10h8v.1a3,3,0,0,0,5.121,2.121l.071-.071,5.657,5.657-.071.071A3,3,0,0,0,59.9,23H60v8h-.1a2.954,2.954,0,0,0-2.771,1.852Z"/>
      </g>
    </g>
  </g>
</svg>
