<svg xmlns="http://www.w3.org/2000/svg" xmlns:xlink="http://www.w3.org/1999/xlink" width="1328" height="525.333" viewBox="0 0 1328 525.333">
  <defs>
    <clipPath id="clip-path">
      <rect id="Rectángulo_419780" data-name="Rectángulo 419780" width="1328" height="525" fill="none"/>
    </clipPath>
  </defs>
  <g id="Grupo_1208919" data-name="Grupo 1208919" transform="translate(-136 -742.392)">
    <g id="Grupo_1208265" data-name="Grupo 1208265" transform="translate(793.639 841.806)">
      <path id="Trazado_1043527" data-name="Trazado 1043527" d="M6.361,12.723a6.361,6.361,0,1,1,6.361-6.361A6.361,6.361,0,0,1,6.361,12.723Z" transform="translate(0 0)" fill="#7c6ea2"/>
      <g id="Grupo_1181473" data-name="Grupo 1181473" transform="matrix(-0.998, 0.07, -0.07, -0.998, 11.838, 11.121)">
        <g id="Elipse_12494" data-name="Elipse 12494" transform="translate(0.131 0.131)" fill="#48396f" stroke="#48396f" stroke-width="1">
          <circle cx="5" cy="5" r="5" stroke="none"/>
          <circle cx="5" cy="5" r="4.5" fill="none"/>
        </g>
        <g id="Trazado_1043525" data-name="Trazado 1043525" transform="translate(0)" fill="#fff">
          <path d="M 5.130859375 9.761719703674316 C 2.577399492263794 9.761719703674316 0.4999993741512299 7.684319496154785 0.4999993741512299 5.130859375 C 0.4999993741512299 2.577399492263794 2.577399492263794 0.4999993741512299 5.130859375 0.4999993741512299 C 7.684319496154785 0.4999993741512299 9.761719703674316 2.577399492263794 9.761719703674316 5.130859375 C 9.761719703674316 7.684319496154785 7.684319496154785 9.761719703674316 5.130859375 9.761719703674316 Z" stroke="none"/>
          <path d="M 5.130859375 0.9999990463256836 C 2.853099346160889 0.9999990463256836 0.9999990463256836 2.853099346160889 0.9999990463256836 5.130859375 C 0.9999990463256836 7.408619403839111 2.853099346160889 9.261719703674316 5.130859375 9.261719703674316 C 7.408619403839111 9.261719703674316 9.261719703674316 7.408619403839111 9.261719703674316 5.130859375 C 9.261719703674316 2.853099346160889 7.408619403839111 0.9999990463256836 5.130859375 0.9999990463256836 M 5.130859375 -9.5367431640625e-07 C 7.964559555053711 -9.5367431640625e-07 10.26171970367432 2.297159194946289 10.26171970367432 5.130859375 C 10.26171970367432 7.964559555053711 7.964559555053711 10.26171970367432 5.130859375 10.26171970367432 C 2.297159194946289 10.26171970367432 -9.5367431640625e-07 7.964559555053711 -9.5367431640625e-07 5.130859375 C -9.5367431640625e-07 2.297159194946289 2.297159194946289 -9.5367431640625e-07 5.130859375 -9.5367431640625e-07 Z" stroke="none" fill="#48396f"/>
        </g>
        <g id="Trazado_1043526" data-name="Trazado 1043526" transform="translate(0)" fill="#fff">
          <path d="M 5.130859375 9.761719703674316 C 2.577399492263794 9.761719703674316 0.4999993741512299 7.684319496154785 0.4999993741512299 5.130859375 C 0.4999993741512299 2.577399492263794 2.577399492263794 0.4999993741512299 5.130859375 0.4999993741512299 C 7.684319496154785 0.4999993741512299 9.761719703674316 2.577399492263794 9.761719703674316 5.130859375 C 9.761719703674316 7.684319496154785 7.684319496154785 9.761719703674316 5.130859375 9.761719703674316 Z" stroke="none"/>
          <path d="M 5.130859375 0.9999990463256836 C 2.853099346160889 0.9999990463256836 0.9999990463256836 2.853099346160889 0.9999990463256836 5.130859375 C 0.9999990463256836 7.408619403839111 2.853099346160889 9.261719703674316 5.130859375 9.261719703674316 C 7.408619403839111 9.261719703674316 9.261719703674316 7.408619403839111 9.261719703674316 5.130859375 C 9.261719703674316 2.853099346160889 7.408619403839111 0.9999990463256836 5.130859375 0.9999990463256836 M 5.130859375 -9.5367431640625e-07 C 7.964559555053711 -9.5367431640625e-07 10.26171970367432 2.297159194946289 10.26171970367432 5.130859375 C 10.26171970367432 7.964559555053711 7.964559555053711 10.26171970367432 5.130859375 10.26171970367432 C 2.297159194946289 10.26171970367432 -9.5367431640625e-07 7.964559555053711 -9.5367431640625e-07 5.130859375 C -9.5367431640625e-07 2.297159194946289 2.297159194946289 -9.5367431640625e-07 5.130859375 -9.5367431640625e-07 Z" stroke="none" fill="#48396f"/>
        </g>
      </g>
    </g>
    <g id="Grupo_1208912" data-name="Grupo 1208912" transform="translate(131.12 742.392)">
      <rect id="Rectángulo_419769" data-name="Rectángulo 419769" width="1328" height="525" transform="translate(4.88 0.333)" fill="#eddabe"/>
      <rect id="Rectángulo_419770" data-name="Rectángulo 419770" width="1082.953" height="525.333" transform="translate(127.403)" fill="#f5e5c9"/>
      <rect id="Rectángulo_419771" data-name="Rectángulo 419771" width="144.823" height="208.981" transform="translate(324.381 62.254)" fill="#ecd4ae"/>
      <path id="Trazado_1055584" data-name="Trazado 1055584" d="M314.576,138.234l-135.849,126h16.536L314.482,151.867Z" transform="translate(160.052 7.004)" fill="#f5e5c9"/>
      <path id="Trazado_1055585" data-name="Trazado 1055585" d="M315.009,77.246,170.186,208.309v39.2l145.36-129.318Z" transform="translate(154.317 3.914)" fill="#f5e5c9"/>
      <path id="Trazado_1055586" data-name="Trazado 1055586" d="M248.369,59.252l-78.183,72.9v62.633l143.995-127.9.828-7.633Z" transform="translate(154.195 3.002)" fill="#f5e5c9"/>
      <rect id="Rectángulo_419772" data-name="Rectángulo 419772" width="144.823" height="208.981" transform="translate(324.381 62.254)" fill="none" stroke="#fff" stroke-miterlimit="10" stroke-width="2"/>
      <rect id="Rectángulo_419773" data-name="Rectángulo 419773" width="144.823" height="208.981" transform="translate(869.278 62.254)" fill="#ecd4ae"/>
      <path id="Trazado_1055587" data-name="Trazado 1055587" d="M596.5,138.234l-135.849,126h43.583L596.4,178.99Z" transform="translate(419.604 7.004)" fill="#f5e5c9"/>
      <path id="Trazado_1055588" data-name="Trazado 1055588" d="M596.931,97.615,452.109,228.677v9.465l145.36-132.452Z" transform="translate(417.499 4.946)" fill="#f5e5c9"/>
      <path id="Trazado_1055589" data-name="Trazado 1055589" d="M530.292,59.252l-78.183,72.9V221.26L596.931,92.625V59.252Z" transform="translate(417.169 3.002)" fill="#f5e5c9"/>
      <rect id="Rectángulo_419774" data-name="Rectángulo 419774" width="144.823" height="208.981" transform="translate(869.278 62.254)" fill="none" stroke="#fff" stroke-miterlimit="10" stroke-width="2"/>
      <rect id="Rectángulo_419775" data-name="Rectángulo 419775" width="91.655" height="194.169" transform="translate(623.052 135.745)" fill="#e0c399"/>
      <rect id="Rectángulo_419776" data-name="Rectángulo 419776" width="71.882" height="50.886" transform="translate(632.939 145.239)" fill="#f5e5c9"/>
      <rect id="Rectángulo_419777" data-name="Rectángulo 419777" width="71.882" height="50.886" transform="translate(632.939 205.332)" fill="#f5e5c9"/>
      <rect id="Rectángulo_419778" data-name="Rectángulo 419778" width="71.882" height="50.886" transform="translate(632.939 265.426)" fill="#f5e5c9"/>
      <rect id="Rectángulo_419779" data-name="Rectángulo 419779" width="35.006" height="13.844" transform="translate(651.377 115.078)" fill="#ecd4ae"/>
      <path id="Trazado_1055590" data-name="Trazado 1055590" d="M201.449,314.13,4.88,372.446V509.418h1328V407.877L1126.333,314.13Z" transform="translate(0 15.916)" fill="#e2c79f"/>
      <g id="Grupo_1208907" data-name="Grupo 1208907" transform="translate(4.88 0.333)">
        <g id="Grupo_1208906" data-name="Grupo 1208906" transform="translate(0)" clip-path="url(#clip-path)">
          <path id="Trazado_1055591" data-name="Trazado 1055591" d="M4.88,487.713V389.537L232.713,314.13H358.588Z" transform="translate(-4.88 15.583)" fill="none" stroke="#d1ab79" stroke-miterlimit="10" stroke-width="1.132"/>
          <path id="Trazado_1055592" data-name="Trazado 1055592" d="M368.7,509.417H119.257L394.245,314.13H520.12Z" transform="translate(83.267 15.583)" fill="none" stroke="#d1ab79" stroke-miterlimit="10" stroke-width="1.132"/>
          <path id="Trazado_1055593" data-name="Trazado 1055593" d="M623.737,509.417H381.471l69.8-195.287H577.146Z" transform="translate(285.346 15.583)" fill="none" stroke="#d1ab79" stroke-miterlimit="10" stroke-width="1.132"/>
          <path id="Trazado_1055594" data-name="Trazado 1055594" d="M693.014,509.417,567.223,314.13H693.1" transform="translate(428.499 15.583)" fill="none" stroke="#d1ab79" stroke-miterlimit="10" stroke-width="1.132"/>
          <path id="Trazado_1055595" data-name="Trazado 1055595" d="M115.894,314.13h911.712L1246.682,424.1" transform="translate(80.675 15.583)" fill="none" stroke="#d1ab79" stroke-miterlimit="10" stroke-width="1.132"/>
        </g>
      </g>
      <path id="Trazado_1055596" data-name="Trazado 1055596" d="M4.88,253.212l60.278-22.82V139.648L4.88,116.827Z" transform="translate(0 5.919)" fill="#f5e5c9"/>
      <g id="Grupo_1208909" data-name="Grupo 1208909" transform="translate(4.88 0.333)">
        <g id="Grupo_1208908" data-name="Grupo 1208908" transform="translate(0)" clip-path="url(#clip-path)">
          <line id="Línea_1409" data-name="Línea 1409" x1="113.656" y1="14.635" transform="translate(-7.89 143.575)" fill="none" stroke="#eddabe" stroke-miterlimit="10" stroke-width="4"/>
          <line id="Línea_1410" data-name="Línea 1410" x1="110.323" y1="5.142" transform="translate(-4.557 168.991)" fill="none" stroke="#eddabe" stroke-miterlimit="10" stroke-width="4"/>
          <line id="Línea_1411" data-name="Línea 1411" x1="113.656" y2="14.635" transform="translate(-7.89 222.304)" fill="none" stroke="#eddabe" stroke-miterlimit="10" stroke-width="4"/>
          <line id="Línea_1412" data-name="Línea 1412" x1="110.323" y2="5.142" transform="translate(-4.557 206.381)" fill="none" stroke="#eddabe" stroke-miterlimit="10" stroke-width="4"/>
          <line id="Línea_1413" data-name="Línea 1413" x1="108.308" transform="translate(-6.723 189.161)" fill="none" stroke="#eddabe" stroke-miterlimit="10" stroke-width="4"/>
        </g>
      </g>
      <path id="Trazado_1055597" data-name="Trazado 1055597" d="M694.953,230.392l60.278,22.82V116.826l-60.278,22.822Z" transform="translate(574.963 5.919)" fill="#f5e5c9"/>
      <g id="Grupo_1208911" data-name="Grupo 1208911" transform="translate(4.88 0.333)">
        <g id="Grupo_1208910" data-name="Grupo 1208910" transform="translate(0)" clip-path="url(#clip-path)">
          <line id="Línea_1414" data-name="Línea 1414" y1="14.635" x2="113.656" transform="translate(1217.709 143.575)" fill="none" stroke="#eddabe" stroke-miterlimit="10" stroke-width="4"/>
          <line id="Línea_1415" data-name="Línea 1415" y1="5.142" x2="110.323" transform="translate(1217.709 168.991)" fill="none" stroke="#eddabe" stroke-miterlimit="10" stroke-width="4"/>
          <line id="Línea_1416" data-name="Línea 1416" x2="113.656" y2="14.635" transform="translate(1217.709 222.304)" fill="none" stroke="#eddabe" stroke-miterlimit="10" stroke-width="4"/>
          <line id="Línea_1417" data-name="Línea 1417" x2="110.323" y2="5.142" transform="translate(1217.709 206.381)" fill="none" stroke="#eddabe" stroke-miterlimit="10" stroke-width="4"/>
          <line id="Línea_1418" data-name="Línea 1418" x2="108.308" transform="translate(1221.89 189.161)" fill="none" stroke="#eddabe" stroke-miterlimit="10" stroke-width="4"/>
        </g>
      </g>
    </g>
  </g>
</svg>
